<?xml version="1.0" encoding="utf-8" standalone="no"?>
<!DOCTYPE svg PUBLIC "-//W3C//DTD SVG 1.1//EN"
  "http://www.w3.org/Graphics/SVG/1.1/DTD/svg11.dtd">
<svg xmlns:xlink="http://www.w3.org/1999/xlink" width="720pt" height="432pt" viewBox="0 0 720 432" xmlns="http://www.w3.org/2000/svg" version="1.1">
 <metadata>
  <rdf:RDF xmlns:dc="http://purl.org/dc/elements/1.1/" xmlns:cc="http://creativecommons.org/ns#" xmlns:rdf="http://www.w3.org/1999/02/22-rdf-syntax-ns#">
   <cc:Work>
    <dc:type rdf:resource="http://purl.org/dc/dcmitype/StillImage"/>
    <dc:date>2024-10-02T13:38:14.115799</dc:date>
    <dc:format>image/svg+xml</dc:format>
    <dc:creator>
     <cc:Agent>
      <dc:title>Matplotlib v3.8.4, https://matplotlib.org/</dc:title>
     </cc:Agent>
    </dc:creator>
   </cc:Work>
  </rdf:RDF>
 </metadata>
 <defs>
  <style type="text/css">*{stroke-linejoin: round; stroke-linecap: butt}</style>
 </defs>
 <g id="figure_1">
  <g id="patch_1">
   <path d="M 0 432 
L 720 432 
L 720 0 
L 0 0 
L 0 432 
z
" style="fill: none"/>
  </g>
  <g id="axes_1">
   <g id="patch_2">
    <path d="M 69.575 367.8 
L 466.4 367.8 
L 466.4 45.2 
L 69.575 45.2 
L 69.575 367.8 
z
" style="fill: none"/>
   </g>
   <g id="matplotlib.axis_1">
    <g id="xtick_1">
     <g id="line2d_1">
      <defs>
       <path id="m68094bff91" d="M 0 0 
L 0 5 
" style="stroke: #000000; stroke-width: 0.75"/>
      </defs>
      <g>
       <use xlink:href="#m68094bff91" x="69.575" y="367.8" style="stroke: #000000; stroke-width: 0.75"/>
      </g>
     </g>
     <g id="text_1">
      <text style="font: 15px &quot;Suisse Int&apos;l&quot;, sans-serif; text-anchor: middle" x="69.575" y="388.675" transform="rotate(-0 69.575 388.675)">0</text>
     </g>
    </g>
    <g id="xtick_2">
     <g id="line2d_2">
      <g>
       <use xlink:href="#m68094bff91" x="120.45" y="367.8" style="stroke: #000000; stroke-width: 0.75"/>
      </g>
     </g>
     <g id="text_2">
      <text style="font: 15px &quot;Suisse Int&apos;l&quot;, sans-serif; text-anchor: middle" x="120.45" y="388.675" transform="rotate(-0 120.45 388.675)">5</text>
     </g>
    </g>
    <g id="xtick_3">
     <g id="line2d_3">
      <g>
       <use xlink:href="#m68094bff91" x="171.325" y="367.8" style="stroke: #000000; stroke-width: 0.75"/>
      </g>
     </g>
     <g id="text_3">
      <text style="font: 15px &quot;Suisse Int&apos;l&quot;, sans-serif; text-anchor: middle" x="171.325" y="388.675" transform="rotate(-0 171.325 388.675)">10</text>
     </g>
    </g>
    <g id="xtick_4">
     <g id="line2d_4">
      <g>
       <use xlink:href="#m68094bff91" x="222.2" y="367.8" style="stroke: #000000; stroke-width: 0.75"/>
      </g>
     </g>
     <g id="text_4">
      <text style="font: 15px &quot;Suisse Int&apos;l&quot;, sans-serif; text-anchor: middle" x="222.2" y="388.675" transform="rotate(-0 222.2 388.675)">15</text>
     </g>
    </g>
    <g id="xtick_5">
     <g id="line2d_5">
      <g>
       <use xlink:href="#m68094bff91" x="273.075" y="367.8" style="stroke: #000000; stroke-width: 0.75"/>
      </g>
     </g>
     <g id="text_5">
      <text style="font: 15px &quot;Suisse Int&apos;l&quot;, sans-serif; text-anchor: middle" x="273.075" y="388.675" transform="rotate(-0 273.075 388.675)">20</text>
     </g>
    </g>
    <g id="xtick_6">
     <g id="line2d_6">
      <g>
       <use xlink:href="#m68094bff91" x="323.95" y="367.8" style="stroke: #000000; stroke-width: 0.75"/>
      </g>
     </g>
     <g id="text_6">
      <text style="font: 15px &quot;Suisse Int&apos;l&quot;, sans-serif; text-anchor: middle" x="323.95" y="388.675" transform="rotate(-0 323.95 388.675)">25</text>
     </g>
    </g>
    <g id="xtick_7">
     <g id="line2d_7">
      <g>
       <use xlink:href="#m68094bff91" x="374.825" y="367.8" style="stroke: #000000; stroke-width: 0.75"/>
      </g>
     </g>
     <g id="text_7">
      <text style="font: 15px &quot;Suisse Int&apos;l&quot;, sans-serif; text-anchor: middle" x="374.825" y="388.675" transform="rotate(-0 374.825 388.675)">30</text>
     </g>
    </g>
    <g id="xtick_8">
     <g id="line2d_8">
      <g>
       <use xlink:href="#m68094bff91" x="425.7" y="367.8" style="stroke: #000000; stroke-width: 0.75"/>
      </g>
     </g>
     <g id="text_8">
      <text style="font: 15px &quot;Suisse Int&apos;l&quot;, sans-serif; text-anchor: middle" x="425.7" y="388.675" transform="rotate(-0 425.7 388.675)">35</text>
     </g>
    </g>
    <g id="text_9">
     <text style="font: 500 15px &quot;Suisse Int&apos;l&quot;, sans-serif; text-anchor: middle" x="267.9875" y="412.175" transform="rotate(-0 267.9875 412.175)">Pixel Position</text>
    </g>
   </g>
   <g id="matplotlib.axis_2">
    <g id="ytick_1">
     <g id="line2d_9">
      <defs>
       <path id="m81a51c5052" d="M 0 0 
L -5 0 
" style="stroke: #000000; stroke-width: 0.75"/>
      </defs>
      <g>
       <use xlink:href="#m81a51c5052" x="69.575" y="340.674474" style="stroke: #000000; stroke-width: 0.75"/>
      </g>
     </g>
     <g id="text_10">
      <text style="font: 15px &quot;Suisse Int&apos;l&quot;, sans-serif; text-anchor: end" x="59.575" y="346.111974" transform="rotate(-0 59.575 346.111974)">10</text>
     </g>
    </g>
    <g id="ytick_2">
     <g id="line2d_10">
      <g>
       <use xlink:href="#m81a51c5052" x="69.575" y="287.392192" style="stroke: #000000; stroke-width: 0.75"/>
      </g>
     </g>
     <g id="text_11">
      <text style="font: 15px &quot;Suisse Int&apos;l&quot;, sans-serif; text-anchor: end" x="59.575" y="292.829692" transform="rotate(-0 59.575 292.829692)">20</text>
     </g>
    </g>
    <g id="ytick_3">
     <g id="line2d_11">
      <g>
       <use xlink:href="#m81a51c5052" x="69.575" y="234.10991" style="stroke: #000000; stroke-width: 0.75"/>
      </g>
     </g>
     <g id="text_12">
      <text style="font: 15px &quot;Suisse Int&apos;l&quot;, sans-serif; text-anchor: end" x="59.575" y="239.54741" transform="rotate(-0 59.575 239.54741)">30</text>
     </g>
    </g>
    <g id="ytick_4">
     <g id="line2d_12">
      <g>
       <use xlink:href="#m81a51c5052" x="69.575" y="180.827628" style="stroke: #000000; stroke-width: 0.75"/>
      </g>
     </g>
     <g id="text_13">
      <text style="font: 15px &quot;Suisse Int&apos;l&quot;, sans-serif; text-anchor: end" x="59.575" y="186.265128" transform="rotate(-0 59.575 186.265128)">40</text>
     </g>
    </g>
    <g id="ytick_5">
     <g id="line2d_13">
      <g>
       <use xlink:href="#m81a51c5052" x="69.575" y="127.545345" style="stroke: #000000; stroke-width: 0.75"/>
      </g>
     </g>
     <g id="text_14">
      <text style="font: 15px &quot;Suisse Int&apos;l&quot;, sans-serif; text-anchor: end" x="59.575" y="132.982845" transform="rotate(-0 59.575 132.982845)">50</text>
     </g>
    </g>
    <g id="ytick_6">
     <g id="line2d_14">
      <g>
       <use xlink:href="#m81a51c5052" x="69.575" y="74.263063" style="stroke: #000000; stroke-width: 0.75"/>
      </g>
     </g>
     <g id="text_15">
      <text style="font: 15px &quot;Suisse Int&apos;l&quot;, sans-serif; text-anchor: end" x="59.575" y="79.700563" transform="rotate(-0 59.575 79.700563)">60</text>
     </g>
    </g>
    <g id="text_16">
     <text style="font: 500 15px &quot;Suisse Int&apos;l&quot;, sans-serif; text-anchor: middle" x="27.675" y="206.5" transform="rotate(-90 27.675 206.5)">Relative Cell Density</text>
    </g>
   </g>
   <g id="line2d_15">
    <path d="M 69.575 189.546547 
L 79.75 189.062162 
L 89.925 192.937237 
L 100.1 195.843544 
L 110.275 192.937237 
L 120.45 192.937237 
L 130.625 187.609009 
L 140.8 180.343243 
L 150.975 195.359159 
L 161.15 180.827628 
L 171.325 184.218318 
L 181.5 189.062162 
L 191.675 175.015015 
L 201.85 185.671471 
L 212.025 180.343243 
L 222.2 180.827628 
L 232.375 190.9997 
L 242.55 190.515315 
L 252.725 184.702703 
L 262.9 194.874775 
L 273.075 200.203003 
L 283.25 188.577778 
L 293.425 187.124625 
L 303.6 187.609009 
L 313.775 193.421622 
L 323.95 192.452853 
L 334.125 196.812312 
L 344.3 204.562462 
L 354.475 203.593694 
L 364.65 212.312613 
L 374.825 220.062763 
L 385 209.406306 
L 395.175 200.687387 
L 405.35 185.671471 
L 415.525 184.218318 
L 425.7 193.906006 
L 435.875 223.937838 
L 446.05 213.765766 
L 456.225 194.874775 
L 466.4 195.359159 
" clip-path="url(#p190980d487)" style="fill: none; stroke: #5088c5; stroke-opacity: 0.5; stroke-width: 0.5; stroke-linecap: round"/>
   </g>
   <g id="line2d_16">
    <path d="M 69.575 158.061562 
L 79.75 150.311411 
L 89.925 154.186486 
L 100.1 159.999099 
L 110.275 147.889489 
L 120.45 158.061562 
L 130.625 154.186486 
L 140.8 159.514715 
L 150.975 166.78048 
L 161.15 157.092793 
L 171.325 152.248949 
L 181.5 163.38979 
L 191.675 162.421021 
L 201.85 161.936637 
L 212.025 168.718018 
L 222.2 164.358559 
L 232.375 172.108709 
L 242.55 175.015015 
L 252.725 186.64024 
L 262.9 195.843544 
L 273.075 206.984384 
L 283.25 214.734535 
L 293.425 212.312613 
L 303.6 217.156456 
L 313.775 191.968468 
L 323.95 190.030931 
L 334.125 171.624324 
L 344.3 158.061562 
L 354.475 159.514715 
L 364.65 160.967868 
L 374.825 153.702102 
L 385 170.655556 
L 395.175 169.202402 
L 405.35 157.577177 
L 415.525 162.905405 
L 425.7 156.124024 
L 435.875 152.248949 
L 446.05 151.764565 
L 456.225 154.670871 
L 466.4 159.514715 
" clip-path="url(#p190980d487)" style="fill: none; stroke: #5088c5; stroke-opacity: 0.5; stroke-width: 0.5; stroke-linecap: round"/>
   </g>
   <g id="line2d_17">
    <path d="M 69.575 123.185886 
L 79.75 120.763964 
L 89.925 132.389189 
L 100.1 120.763964 
L 110.275 133.842342 
L 120.45 133.842342 
L 130.625 126.092192 
L 140.8 134.326727 
L 150.975 136.264264 
L 161.15 130.451652 
L 171.325 131.42042 
L 181.5 141.108108 
L 191.675 140.139339 
L 201.85 140.139339 
L 212.025 145.951952 
L 222.2 155.155255 
L 232.375 163.38979 
L 242.55 183.24955 
L 252.725 193.906006 
L 262.9 198.265465 
L 273.075 209.406306 
L 283.25 199.718619 
L 293.425 174.046246 
L 303.6 162.905405 
L 313.775 146.920721 
L 323.95 145.467568 
L 334.125 138.201802 
L 344.3 132.389189 
L 354.475 134.326727 
L 364.65 133.357958 
L 374.825 139.170571 
L 385 133.842342 
L 395.175 140.139339 
L 405.35 137.717417 
L 415.525 131.904805 
L 425.7 128.02973 
L 435.875 120.763964 
L 446.05 127.545345 
L 456.225 121.732733 
L 466.4 126.092192 
" clip-path="url(#p190980d487)" style="fill: none; stroke: #5088c5; stroke-opacity: 0.5; stroke-width: 0.5; stroke-linecap: round"/>
   </g>
   <g id="line2d_18">
    <path d="M 69.575 156.931331 
L 79.75 153.379179 
L 89.925 159.837638 
L 100.1 158.868869 
L 110.275 158.223023 
L 120.45 161.613714 
L 130.625 155.962563 
L 140.8 158.061562 
L 150.975 166.134635 
L 161.15 156.124024 
L 171.325 155.962563 
L 181.5 164.52002 
L 191.675 159.191792 
L 201.85 162.582482 
L 212.025 165.004404 
L 222.2 166.78048 
L 232.375 175.499399 
L 242.55 182.926627 
L 252.725 188.416316 
L 262.9 196.327928 
L 273.075 205.531231 
L 283.25 201.01031 
L 293.425 191.161161 
L 303.6 189.223624 
L 313.775 177.436937 
L 323.95 175.983784 
L 334.125 168.879479 
L 344.3 165.004404 
L 354.475 165.811712 
L 364.65 168.879479 
L 374.825 170.978478 
L 385 171.301401 
L 395.175 170.00971 
L 405.35 160.322022 
L 415.525 159.676176 
L 425.7 159.353253 
L 435.875 165.65025 
L 446.05 164.358559 
L 456.225 157.092793 
L 466.4 160.322022 
" clip-path="url(#p190980d487)" style="fill: none; stroke: #5088c5; stroke-width: 2.5; stroke-linecap: round"/>
   </g>
   <g id="line2d_19">
    <path d="M 69.575 111.560661 
L 79.75 112.045045 
L 89.925 108.654354 
L 100.1 114.466967 
L 110.275 119.795195 
L 120.45 111.560661 
L 130.625 110.107508 
L 140.8 119.310811 
L 150.975 115.92012 
L 161.15 116.404505 
L 171.325 112.045045 
L 181.5 103.326126 
L 191.675 104.779279 
L 201.85 115.435736 
L 212.025 118.342042 
L 222.2 132.873574 
L 232.375 142.076877 
L 242.55 161.936637 
L 252.725 168.718018 
L 262.9 180.343243 
L 273.075 182.765165 
L 283.25 181.312012 
L 293.425 172.593093 
L 303.6 155.155255 
L 313.775 148.858258 
L 323.95 135.295495 
L 334.125 123.185886 
L 344.3 120.27958 
L 354.475 116.888889 
L 364.65 107.201201 
L 374.825 116.404505 
L 385 107.685586 
L 395.175 110.591892 
L 405.35 108.654354 
L 415.525 108.16997 
L 425.7 106.232432 
L 435.875 108.654354 
L 446.05 109.138739 
L 456.225 116.888889 
L 466.4 109.138739 
" clip-path="url(#p190980d487)" style="fill: none; stroke: #f28360; stroke-opacity: 0.5; stroke-width: 0.5; stroke-linecap: round"/>
   </g>
   <g id="line2d_20">
    <path d="M 69.575 84.91952 
L 79.75 90.247748 
L 89.925 90.732132 
L 100.1 90.247748 
L 110.275 89.763363 
L 120.45 96.544745 
L 130.625 86.857057 
L 140.8 96.06036 
L 150.975 103.810511 
L 161.15 94.122823 
L 171.325 102.841742 
L 181.5 98.966667 
L 191.675 105.748048 
L 201.85 122.217117 
L 212.025 132.389189 
L 222.2 152.248949 
L 232.375 172.593093 
L 242.55 181.796396 
L 252.725 180.343243 
L 262.9 187.124625 
L 273.075 188.577778 
L 283.25 160.483483 
L 293.425 147.889489 
L 303.6 117.373273 
L 313.775 109.623123 
L 323.95 105.748048 
L 334.125 97.997898 
L 344.3 102.357357 
L 354.475 98.482282 
L 364.65 92.66967 
L 374.825 97.029129 
L 385 94.122823 
L 395.175 95.091592 
L 405.35 88.31021 
L 415.525 96.06036 
L 425.7 86.857057 
L 435.875 88.794595 
L 446.05 78.138138 
L 456.225 91.700901 
L 466.4 78.622523 
" clip-path="url(#p190980d487)" style="fill: none; stroke: #f28360; stroke-opacity: 0.5; stroke-width: 0.5; stroke-linecap: round"/>
   </g>
   <g id="line2d_21">
    <path d="M 69.575 83.950751 
L 79.75 88.794595 
L 89.925 85.403904 
L 100.1 82.013213 
L 110.275 87.825826 
L 120.45 91.216517 
L 130.625 87.825826 
L 140.8 85.403904 
L 150.975 97.029129 
L 161.15 97.997898 
L 171.325 84.435135 
L 181.5 94.607207 
L 191.675 92.66967 
L 201.85 113.013814 
L 212.025 107.685586 
L 222.2 117.857658 
L 232.375 134.811111 
L 242.55 147.889489 
L 252.725 161.452252 
L 262.9 177.921321 
L 273.075 195.843544 
L 283.25 181.796396 
L 293.425 186.155856 
L 303.6 162.905405 
L 313.775 144.014414 
L 323.95 128.514114 
L 334.125 114.951351 
L 344.3 112.045045 
L 354.475 109.623123 
L 364.65 96.544745 
L 374.825 112.529429 
L 385 97.513514 
L 395.175 91.700901 
L 405.35 97.029129 
L 415.525 83.466366 
L 425.7 101.872973 
L 435.875 89.763363 
L 446.05 94.122823 
L 456.225 87.825826 
L 466.4 85.403904 
" clip-path="url(#p190980d487)" style="fill: none; stroke: #f28360; stroke-opacity: 0.5; stroke-width: 0.5; stroke-linecap: round"/>
   </g>
   <g id="line2d_22">
    <path d="M 69.575 93.476977 
L 79.75 97.029129 
L 89.925 94.93013 
L 100.1 95.575976 
L 110.275 99.128128 
L 120.45 99.773974 
L 130.625 94.93013 
L 140.8 100.258358 
L 150.975 105.586587 
L 161.15 102.841742 
L 171.325 99.773974 
L 181.5 98.966667 
L 191.675 101.065666 
L 201.85 116.888889 
L 212.025 119.472272 
L 222.2 134.326727 
L 232.375 149.827027 
L 242.55 163.874174 
L 252.725 170.171171 
L 262.9 181.796396 
L 273.075 189.062162 
L 283.25 174.530631 
L 293.425 168.879479 
L 303.6 145.144645 
L 313.775 134.165265 
L 323.95 123.185886 
L 334.125 112.045045 
L 344.3 111.560661 
L 354.475 108.331431 
L 364.65 98.805205 
L 374.825 108.654354 
L 385 99.773974 
L 395.175 99.128128 
L 405.35 97.997898 
L 415.525 95.898899 
L 425.7 98.320821 
L 435.875 95.737437 
L 446.05 93.7999 
L 456.225 98.805205 
L 466.4 91.055055 
" clip-path="url(#p190980d487)" style="fill: none; stroke: #f28360; stroke-width: 2.5; stroke-linecap: round"/>
   </g>
   <g id="line2d_23">
    <path d="M 69.575 115.92012 
L 79.75 103.326126 
L 89.925 115.92012 
L 100.1 113.982583 
L 110.275 116.888889 
L 120.45 120.27958 
L 130.625 111.560661 
L 140.8 110.591892 
L 150.975 113.498198 
L 161.15 117.373273 
L 171.325 109.623123 
L 181.5 109.138739 
L 191.675 114.951351 
L 201.85 123.185886 
L 212.025 111.560661 
L 222.2 120.763964 
L 232.375 109.623123 
L 242.55 119.795195 
L 252.725 116.404505 
L 262.9 132.873574 
L 273.075 135.77988 
L 283.25 133.357958 
L 293.425 132.873574 
L 303.6 129.967267 
L 313.775 134.811111 
L 323.95 128.02973 
L 334.125 124.154655 
L 344.3 124.154655 
L 354.475 122.217117 
L 364.65 120.763964 
L 374.825 130.451652 
L 385 121.732733 
L 395.175 117.857658 
L 405.35 125.607808 
L 415.525 122.701502 
L 425.7 122.701502 
L 435.875 121.248348 
L 446.05 126.092192 
L 456.225 112.045045 
L 466.4 120.27958 
" clip-path="url(#p190980d487)" style="fill: none; stroke: #3b9886; stroke-opacity: 0.5; stroke-width: 0.5; stroke-linecap: round"/>
   </g>
   <g id="line2d_24">
    <path d="M 69.575 107.201201 
L 79.75 111.560661 
L 89.925 116.888889 
L 100.1 110.107508 
L 110.275 113.982583 
L 120.45 118.342042 
L 130.625 118.826426 
L 140.8 123.185886 
L 150.975 123.185886 
L 161.15 119.795195 
L 171.325 127.060961 
L 181.5 116.888889 
L 191.675 118.342042 
L 201.85 125.607808 
L 212.025 117.373273 
L 222.2 116.888889 
L 232.375 121.732733 
L 242.55 132.389189 
L 252.725 130.936036 
L 262.9 142.561261 
L 273.075 148.373874 
L 283.25 146.436336 
L 293.425 139.654955 
L 303.6 136.748649 
L 313.775 133.357958 
L 323.95 123.67027 
L 334.125 135.295495 
L 344.3 127.060961 
L 354.475 129.967267 
L 364.65 130.936036 
L 374.825 125.123423 
L 385 119.310811 
L 395.175 124.154655 
L 405.35 119.795195 
L 415.525 116.404505 
L 425.7 120.27958 
L 435.875 113.013814 
L 446.05 117.373273 
L 456.225 109.138739 
L 466.4 110.591892 
" clip-path="url(#p190980d487)" style="fill: none; stroke: #3b9886; stroke-opacity: 0.5; stroke-width: 0.5; stroke-linecap: round"/>
   </g>
   <g id="line2d_25">
    <path d="M 69.575 106.716817 
L 79.75 112.529429 
L 89.925 116.404505 
L 100.1 111.560661 
L 110.275 109.623123 
L 120.45 117.373273 
L 130.625 104.779279 
L 140.8 102.357357 
L 150.975 103.326126 
L 161.15 106.232432 
L 171.325 115.92012 
L 181.5 108.654354 
L 191.675 107.685586 
L 201.85 120.27958 
L 212.025 120.763964 
L 222.2 121.732733 
L 232.375 116.404505 
L 242.55 138.686186 
L 252.725 128.998498 
L 262.9 136.748649 
L 273.075 144.014414 
L 283.25 133.842342 
L 293.425 136.264264 
L 303.6 130.451652 
L 313.775 135.295495 
L 323.95 124.639039 
L 334.125 137.717417 
L 344.3 121.248348 
L 354.475 127.545345 
L 364.65 118.342042 
L 374.825 122.701502 
L 385 100.41982 
L 395.175 97.997898 
L 405.35 95.575976 
L 415.525 102.841742 
L 425.7 103.810511 
L 435.875 117.857658 
L 446.05 110.591892 
L 456.225 114.466967 
L 466.4 114.466967 
" clip-path="url(#p190980d487)" style="fill: none; stroke: #3b9886; stroke-opacity: 0.5; stroke-width: 0.5; stroke-linecap: round"/>
   </g>
   <g id="line2d_26">
    <path d="M 69.575 109.946046 
L 79.75 109.138739 
L 89.925 116.404505 
L 100.1 111.883584 
L 110.275 113.498198 
L 120.45 118.664965 
L 130.625 111.722122 
L 140.8 112.045045 
L 150.975 113.336737 
L 161.15 114.466967 
L 171.325 117.534735 
L 181.5 111.560661 
L 191.675 113.65966 
L 201.85 123.024424 
L 212.025 116.565966 
L 222.2 119.795195 
L 232.375 115.92012 
L 242.55 130.29019 
L 252.725 125.446346 
L 262.9 137.394494 
L 273.075 142.722723 
L 283.25 137.878879 
L 293.425 136.264264 
L 303.6 132.389189 
L 313.775 134.488188 
L 323.95 125.446346 
L 334.125 132.389189 
L 344.3 124.154655 
L 354.475 126.576577 
L 364.65 123.347347 
L 374.825 126.092192 
L 385 113.821121 
L 395.175 113.336737 
L 405.35 113.65966 
L 415.525 113.982583 
L 425.7 115.597197 
L 435.875 117.373273 
L 446.05 118.019119 
L 456.225 111.883584 
L 466.4 115.112813 
" clip-path="url(#p190980d487)" style="fill: none; stroke: #3b9886; stroke-width: 2.5; stroke-linecap: round"/>
   </g>
   <g id="line2d_27">
    <path d="M 69.575 145.467568 
L 79.75 145.467568 
L 89.925 145.467568 
L 100.1 146.920721 
L 110.275 146.920721 
L 120.45 144.983183 
L 130.625 150.795796 
L 140.8 141.108108 
L 150.975 138.201802 
L 161.15 148.373874 
L 171.325 147.889489 
L 181.5 151.28018 
L 191.675 150.795796 
L 201.85 166.78048 
L 212.025 166.78048 
L 222.2 181.796396 
L 232.375 203.593694 
L 242.55 224.422222 
L 252.725 232.656757 
L 262.9 246.21952 
L 273.075 248.157057 
L 283.25 236.531832 
L 293.425 223.453453 
L 303.6 199.718619 
L 313.775 183.733934 
L 323.95 175.015015 
L 334.125 163.874174 
L 344.3 162.421021 
L 354.475 160.967868 
L 364.65 159.999099 
L 374.825 153.702102 
L 385 157.577177 
L 395.175 149.827027 
L 405.35 154.186486 
L 415.525 146.920721 
L 425.7 140.623724 
L 435.875 153.217718 
L 446.05 145.951952 
L 456.225 142.561261 
L 466.4 143.53003 
" clip-path="url(#p190980d487)" style="fill: none; stroke: #f7b846; stroke-opacity: 0.5; stroke-width: 0.5; stroke-linecap: round"/>
   </g>
   <g id="line2d_28">
    <path d="M 69.575 164.842943 
L 79.75 169.202402 
L 89.925 157.577177 
L 100.1 160.483483 
L 110.275 166.78048 
L 120.45 169.202402 
L 130.625 161.452252 
L 140.8 173.077477 
L 150.975 171.13994 
L 161.15 152.248949 
L 171.325 159.999099 
L 181.5 163.874174 
L 191.675 166.78048 
L 201.85 161.452252 
L 212.025 182.765165 
L 222.2 201.656156 
L 232.375 212.312613 
L 242.55 229.75045 
L 252.725 244.281982 
L 262.9 256.391592 
L 273.075 260.266667 
L 283.25 253.96967 
L 293.425 248.641441 
L 303.6 228.781682 
L 313.775 217.640841 
L 323.95 210.859459 
L 334.125 190.515315 
L 344.3 186.64024 
L 354.475 181.796396 
L 364.65 167.264865 
L 374.825 177.921321 
L 385 166.296096 
L 395.175 166.78048 
L 405.35 170.171171 
L 415.525 169.202402 
L 425.7 166.78048 
L 435.875 166.296096 
L 446.05 165.811712 
L 456.225 164.358559 
L 466.4 159.03033 
" clip-path="url(#p190980d487)" style="fill: none; stroke: #f7b846; stroke-opacity: 0.5; stroke-width: 0.5; stroke-linecap: round"/>
   </g>
   <g id="line2d_29">
    <path d="M 69.575 181.796396 
L 79.75 184.702703 
L 89.925 185.187087 
L 100.1 176.952553 
L 110.275 189.546547 
L 120.45 186.155856 
L 130.625 183.24955 
L 140.8 185.187087 
L 150.975 179.858859 
L 161.15 181.796396 
L 171.325 191.968468 
L 181.5 190.515315 
L 191.675 206.015616 
L 201.85 237.016216 
L 212.025 241.375676 
L 222.2 254.454054 
L 232.375 275.282583 
L 242.55 279.157658 
L 252.725 288.845345 
L 262.9 292.72042 
L 273.075 270.923123 
L 283.25 259.782282 
L 293.425 240.891291 
L 303.6 217.640841 
L 313.775 208.437538 
L 323.95 203.109309 
L 334.125 203.593694 
L 344.3 199.718619 
L 354.475 192.937237 
L 364.65 192.452853 
L 374.825 192.937237 
L 385 179.374474 
L 395.175 197.296697 
L 405.35 184.702703 
L 415.525 186.155856 
L 425.7 176.952553 
L 435.875 178.89009 
L 446.05 184.702703 
L 456.225 172.108709 
L 466.4 187.124625 
" clip-path="url(#p190980d487)" style="fill: none; stroke: #f7b846; stroke-opacity: 0.5; stroke-width: 0.5; stroke-linecap: round"/>
   </g>
   <g id="line2d_30">
    <path d="M 69.575 164.035636 
L 79.75 166.457558 
L 89.925 162.743944 
L 100.1 161.452252 
L 110.275 167.749249 
L 120.45 166.78048 
L 130.625 165.165866 
L 140.8 166.457558 
L 150.975 163.066867 
L 161.15 160.806406 
L 171.325 166.619019 
L 181.5 168.556557 
L 191.675 174.530631 
L 201.85 188.416316 
L 212.025 196.973774 
L 222.2 212.635536 
L 232.375 230.396296 
L 242.55 244.443443 
L 252.725 255.261361 
L 262.9 265.110511 
L 273.075 259.782282 
L 283.25 250.094595 
L 293.425 237.662062 
L 303.6 215.38038 
L 313.775 203.270771 
L 323.95 196.327928 
L 334.125 185.994394 
L 344.3 182.926627 
L 354.475 178.567167 
L 364.65 173.238939 
L 374.825 174.853554 
L 385 167.749249 
L 395.175 171.301401 
L 405.35 169.686787 
L 415.525 167.426326 
L 425.7 161.452252 
L 435.875 166.134635 
L 446.05 165.488789 
L 456.225 159.676176 
L 466.4 163.228328 
" clip-path="url(#p190980d487)" style="fill: none; stroke: #f7b846; stroke-width: 2.5; stroke-linecap: round"/>
   </g>
   <g id="line2d_31">
    <path d="M 69.575 195.359159 
L 79.75 184.702703 
L 89.925 190.9997 
L 100.1 190.515315 
L 110.275 191.484084 
L 120.45 183.733934 
L 130.625 180.343243 
L 140.8 179.374474 
L 150.975 171.624324 
L 161.15 175.983784 
L 171.325 181.796396 
L 181.5 177.436937 
L 191.675 181.312012 
L 201.85 172.108709 
L 212.025 175.499399 
L 222.2 174.046246 
L 232.375 179.858859 
L 242.55 178.89009 
L 252.725 175.499399 
L 262.9 179.858859 
L 273.075 187.124625 
L 283.25 179.858859 
L 293.425 181.796396 
L 303.6 175.983784 
L 313.775 186.64024 
L 323.95 179.374474 
L 334.125 171.13994 
L 344.3 185.187087 
L 354.475 181.796396 
L 364.65 192.452853 
L 374.825 199.234234 
L 385 197.781081 
L 395.175 204.078078 
L 405.35 205.531231 
L 415.525 191.968468 
L 425.7 186.155856 
L 435.875 178.405706 
L 446.05 183.733934 
L 456.225 205.046847 
L 466.4 196.327928 
" clip-path="url(#p190980d487)" style="fill: none; stroke: #7a77ab; stroke-opacity: 0.5; stroke-width: 0.5; stroke-linecap: round"/>
   </g>
   <g id="line2d_32">
    <path d="M 69.575 147.405105 
L 79.75 141.108108 
L 89.925 142.561261 
L 100.1 148.373874 
L 110.275 146.920721 
L 120.45 153.217718 
L 130.625 147.889489 
L 140.8 154.670871 
L 150.975 157.092793 
L 161.15 147.889489 
L 171.325 148.858258 
L 181.5 156.124024 
L 191.675 156.124024 
L 201.85 152.248949 
L 212.025 155.63964 
L 222.2 152.248949 
L 232.375 169.686787 
L 242.55 159.03033 
L 252.725 167.749249 
L 262.9 184.702703 
L 273.075 197.296697 
L 283.25 200.203003 
L 293.425 195.843544 
L 303.6 179.858859 
L 313.775 173.561862 
L 323.95 154.670871 
L 334.125 149.342643 
L 344.3 144.983183 
L 354.475 149.827027 
L 364.65 137.233033 
L 374.825 143.53003 
L 385 167.264865 
L 395.175 162.421021 
L 405.35 155.63964 
L 415.525 161.936637 
L 425.7 158.545946 
L 435.875 163.874174 
L 446.05 155.155255 
L 456.225 150.795796 
L 466.4 149.827027 
" clip-path="url(#p190980d487)" style="fill: none; stroke: #7a77ab; stroke-opacity: 0.5; stroke-width: 0.5; stroke-linecap: round"/>
   </g>
   <g id="line2d_33">
    <path d="M 69.575 116.888889 
L 79.75 127.545345 
L 89.925 126.092192 
L 100.1 120.763964 
L 110.275 125.607808 
L 120.45 121.732733 
L 130.625 123.185886 
L 140.8 126.576577 
L 150.975 122.217117 
L 161.15 130.451652 
L 171.325 121.248348 
L 181.5 130.936036 
L 191.675 128.514114 
L 201.85 133.842342 
L 212.025 131.42042 
L 222.2 141.592492 
L 232.375 139.654955 
L 242.55 161.936637 
L 252.725 172.593093 
L 262.9 181.796396 
L 273.075 183.24955 
L 283.25 173.561862 
L 293.425 167.264865 
L 303.6 150.795796 
L 313.775 143.53003 
L 323.95 129.967267 
L 334.125 122.217117 
L 344.3 124.154655 
L 354.475 122.217117 
L 364.65 128.514114 
L 374.825 117.857658 
L 385 120.763964 
L 395.175 133.842342 
L 405.35 129.967267 
L 415.525 128.998498 
L 425.7 122.217117 
L 435.875 118.342042 
L 446.05 123.185886 
L 456.225 115.92012 
L 466.4 115.92012 
" clip-path="url(#p190980d487)" style="fill: none; stroke: #7a77ab; stroke-opacity: 0.5; stroke-width: 0.5; stroke-linecap: round"/>
   </g>
   <g id="line2d_34">
    <path d="M 69.575 153.217718 
L 79.75 151.118719 
L 89.925 153.217718 
L 100.1 153.217718 
L 110.275 154.670871 
L 120.45 152.894795 
L 130.625 150.472873 
L 140.8 153.540641 
L 150.975 150.311411 
L 161.15 151.441642 
L 171.325 150.634334 
L 181.5 154.832332 
L 191.675 155.316717 
L 201.85 152.733333 
L 212.025 154.186486 
L 222.2 155.962563 
L 232.375 163.066867 
L 242.55 166.619019 
L 252.725 171.947247 
L 262.9 182.119319 
L 273.075 189.223624 
L 283.25 184.541241 
L 293.425 181.634935 
L 303.6 168.879479 
L 313.775 167.910711 
L 323.95 154.670871 
L 334.125 147.566567 
L 344.3 151.441642 
L 354.475 151.28018 
L 364.65 152.733333 
L 374.825 153.540641 
L 385 161.936637 
L 395.175 166.78048 
L 405.35 163.712713 
L 415.525 160.967868 
L 425.7 155.63964 
L 435.875 153.540641 
L 446.05 154.025025 
L 456.225 157.254254 
L 466.4 154.025025 
" clip-path="url(#p190980d487)" style="fill: none; stroke: #7a77ab; stroke-width: 2.5; stroke-linecap: round"/>
   </g>
   <g id="line2d_35">
    <path d="M 69.575 102.357357 
L 79.75 98.966667 
L 89.925 100.904204 
L 100.1 103.326126 
L 110.275 103.810511 
L 120.45 96.544745 
L 130.625 94.122823 
L 140.8 101.872973 
L 150.975 87.825826 
L 161.15 98.966667 
L 171.325 91.216517 
L 181.5 98.966667 
L 191.675 89.763363 
L 201.85 87.825826 
L 212.025 99.935435 
L 222.2 101.388589 
L 232.375 122.701502 
L 242.55 131.904805 
L 252.725 143.045646 
L 262.9 168.233634 
L 273.075 175.015015 
L 283.25 173.077477 
L 293.425 157.092793 
L 303.6 141.108108 
L 313.775 117.373273 
L 323.95 118.342042 
L 334.125 104.294895 
L 344.3 99.935435 
L 354.475 93.638438 
L 364.65 89.763363 
L 374.825 87.341441 
L 385 91.700901 
L 395.175 93.638438 
L 405.35 89.763363 
L 415.525 88.31021 
L 425.7 100.904204 
L 435.875 99.451051 
L 446.05 93.154054 
L 456.225 104.779279 
L 466.4 101.388589 
" clip-path="url(#p190980d487)" style="fill: none; stroke: #f898ae; stroke-opacity: 0.5; stroke-width: 0.5; stroke-linecap: round"/>
   </g>
   <g id="line2d_36">
    <path d="M 69.575 73.294294 
L 79.75 86.857057 
L 89.925 82.013213 
L 100.1 82.013213 
L 110.275 81.528829 
L 120.45 81.528829 
L 130.625 91.700901 
L 140.8 92.66967 
L 150.975 84.91952 
L 161.15 84.91952 
L 171.325 92.185285 
L 181.5 97.997898 
L 191.675 91.700901 
L 201.85 95.575976 
L 212.025 105.748048 
L 222.2 104.779279 
L 232.375 113.982583 
L 242.55 124.639039 
L 252.725 137.233033 
L 262.9 159.03033 
L 273.075 173.561862 
L 283.25 169.686787 
L 293.425 164.842943 
L 303.6 151.764565 
L 313.775 126.092192 
L 323.95 122.217117 
L 334.125 104.294895 
L 344.3 96.544745 
L 354.475 105.263664 
L 364.65 96.544745 
L 374.825 96.544745 
L 385 86.857057 
L 395.175 95.575976 
L 405.35 96.544745 
L 415.525 88.794595 
L 425.7 85.403904 
L 435.875 102.841742 
L 446.05 90.247748 
L 456.225 73.294294 
L 466.4 74.747447 
" clip-path="url(#p190980d487)" style="fill: none; stroke: #f898ae; stroke-opacity: 0.5; stroke-width: 0.5; stroke-linecap: round"/>
   </g>
   <g id="line2d_37">
    <path d="M 69.575 82.013213 
L 79.75 98.482282 
L 89.925 89.763363 
L 100.1 91.700901 
L 110.275 86.857057 
L 120.45 79.106907 
L 130.625 83.466366 
L 140.8 82.981982 
L 150.975 94.122823 
L 161.15 86.372673 
L 171.325 93.638438 
L 181.5 89.763363 
L 191.675 85.888288 
L 201.85 95.091592 
L 212.025 97.513514 
L 222.2 105.263664 
L 232.375 119.795195 
L 242.55 140.139339 
L 252.725 158.061562 
L 262.9 173.077477 
L 273.075 177.436937 
L 283.25 161.936637 
L 293.425 145.467568 
L 303.6 126.092192 
L 313.775 123.185886 
L 323.95 112.045045 
L 334.125 106.716817 
L 344.3 96.06036 
L 354.475 98.966667 
L 364.65 96.06036 
L 374.825 95.575976 
L 385 95.575976 
L 395.175 88.31021 
L 405.35 93.638438 
L 415.525 92.66967 
L 425.7 86.372673 
L 435.875 92.66967 
L 446.05 82.981982 
L 456.225 88.794595 
L 466.4 83.466366 
" clip-path="url(#p190980d487)" style="fill: none; stroke: #f898ae; stroke-opacity: 0.5; stroke-width: 0.5; stroke-linecap: round"/>
   </g>
   <g id="line2d_38">
    <path d="M 69.575 85.888288 
L 79.75 94.768669 
L 89.925 90.893594 
L 100.1 92.346747 
L 110.275 90.732132 
L 120.45 85.726827 
L 130.625 89.763363 
L 140.8 92.508208 
L 150.975 88.956056 
L 161.15 90.086286 
L 171.325 92.346747 
L 181.5 95.575976 
L 191.675 89.117518 
L 201.85 92.831131 
L 212.025 101.065666 
L 222.2 103.810511 
L 232.375 118.826426 
L 242.55 132.227728 
L 252.725 146.113413 
L 262.9 166.78048 
L 273.075 175.337938 
L 283.25 168.233634 
L 293.425 155.801101 
L 303.6 139.654955 
L 313.775 122.217117 
L 323.95 117.534735 
L 334.125 105.102202 
L 344.3 97.513514 
L 354.475 99.28959 
L 364.65 94.122823 
L 374.825 93.154054 
L 385 91.377978 
L 395.175 92.508208 
L 405.35 93.315516 
L 415.525 89.924825 
L 425.7 90.893594 
L 435.875 98.320821 
L 446.05 88.794595 
L 456.225 88.956056 
L 466.4 86.534134 
" clip-path="url(#p190980d487)" style="fill: none; stroke: #f898ae; stroke-width: 2.5; stroke-linecap: round"/>
   </g>
   <g id="line2d_39">
    <path d="M 69.575 78.622523 
L 79.75 88.31021 
L 89.925 90.732132 
L 100.1 97.513514 
L 110.275 106.232432 
L 120.45 108.16997 
L 130.625 117.857658 
L 140.8 126.576577 
L 150.975 147.405105 
L 161.15 177.436937 
L 171.325 204.562462 
L 181.5 231.687988 
L 191.675 261.71982 
L 201.85 283.032733 
L 212.025 308.705105 
L 222.2 325.658559 
L 232.375 334.861862 
L 242.55 345.033934 
L 252.725 343.096396 
L 262.9 338.252553 
L 273.075 346.487087 
L 283.25 342.612012 
L 293.425 335.346246 
L 303.6 321.783483 
L 313.775 305.314414 
L 323.95 282.548348 
L 334.125 255.907207 
L 344.3 224.422222 
L 354.475 196.327928 
L 364.65 161.452252 
L 374.825 140.139339 
L 385 131.42042 
L 395.175 117.857658 
L 405.35 108.654354 
L 415.525 98.482282 
L 425.7 93.638438 
L 435.875 91.216517 
L 446.05 69.903604 
L 456.225 86.372673 
L 466.4 85.888288 
" clip-path="url(#p190980d487)" style="fill: none; stroke: #73b5e3; stroke-opacity: 0.5; stroke-width: 0.5; stroke-linecap: round"/>
   </g>
   <g id="line2d_40">
    <path d="M 69.575 86.372673 
L 79.75 85.888288 
L 89.925 82.497598 
L 100.1 73.778679 
L 110.275 92.185285 
L 120.45 87.341441 
L 130.625 105.748048 
L 140.8 102.841742 
L 150.975 116.888889 
L 161.15 120.27958 
L 171.325 141.592492 
L 181.5 171.624324 
L 191.675 202.624925 
L 201.85 222.0003 
L 212.025 255.422823 
L 222.2 277.704505 
L 232.375 307.736336 
L 242.55 327.596096 
L 252.725 341.643243 
L 262.9 346.487087 
L 273.075 352.784084 
L 283.25 352.2997 
L 293.425 350.362162 
L 303.6 347.455856 
L 313.775 339.705706 
L 323.95 331.955556 
L 334.125 314.033333 
L 344.3 288.360961 
L 354.475 261.235435 
L 364.65 230.234835 
L 374.825 189.546547 
L 385 159.03033 
L 395.175 146.920721 
L 405.35 123.185886 
L 415.525 129.482883 
L 425.7 105.263664 
L 435.875 104.294895 
L 446.05 102.841742 
L 456.225 92.66967 
L 466.4 89.278979 
" clip-path="url(#p190980d487)" style="fill: none; stroke: #73b5e3; stroke-opacity: 0.5; stroke-width: 0.5; stroke-linecap: round"/>
   </g>
   <g id="line2d_41">
    <path d="M 69.575 88.31021 
L 79.75 77.653754 
L 89.925 73.778679 
L 100.1 77.169369 
L 110.275 83.466366 
L 120.45 87.825826 
L 130.625 99.451051 
L 140.8 98.966667 
L 150.975 116.404505 
L 161.15 139.654955 
L 171.325 159.999099 
L 181.5 198.74985 
L 191.675 237.984985 
L 201.85 267.532432 
L 212.025 285.939039 
L 222.2 317.424024 
L 232.375 331.955556 
L 242.55 341.158859 
L 252.725 346.971471 
L 262.9 353.268468 
L 273.075 356.174775 
L 283.25 349.393393 
L 293.425 351.330931 
L 303.6 347.455856 
L 313.775 332.924324 
L 323.95 315.486486 
L 334.125 301.923724 
L 344.3 268.016817 
L 354.475 242.344444 
L 364.65 196.812312 
L 374.825 166.78048 
L 385 139.170571 
L 395.175 111.560661 
L 405.35 94.122823 
L 415.525 74.747447 
L 425.7 45.2 
L 435.875 66.997297 
L 446.05 68.934835 
L 456.225 66.512913 
L 466.4 65.544144 
" clip-path="url(#p190980d487)" style="fill: none; stroke: #73b5e3; stroke-opacity: 0.5; stroke-width: 0.5; stroke-linecap: round"/>
   </g>
   <g id="line2d_42">
    <path d="M 69.575 84.435135 
L 79.75 83.950751 
L 89.925 82.336136 
L 100.1 82.820521 
L 110.275 93.961361 
L 120.45 94.445746 
L 130.625 107.685586 
L 140.8 109.461662 
L 150.975 126.899499 
L 161.15 145.79049 
L 171.325 168.718018 
L 181.5 200.687387 
L 191.675 234.10991 
L 201.85 257.521822 
L 212.025 283.355656 
L 222.2 306.929029 
L 232.375 324.851251 
L 242.55 337.92963 
L 252.725 343.903704 
L 262.9 346.002703 
L 273.075 351.815315 
L 283.25 348.101702 
L 293.425 345.67978 
L 303.6 338.898398 
L 313.775 325.981481 
L 323.95 309.996797 
L 334.125 290.621421 
L 344.3 260.266667 
L 354.475 233.302603 
L 364.65 196.166466 
L 374.825 165.488789 
L 385 143.207107 
L 395.175 125.446346 
L 405.35 108.654354 
L 415.525 100.904204 
L 425.7 81.367367 
L 435.875 87.502903 
L 446.05 80.56006 
L 456.225 81.851752 
L 466.4 80.237137 
" clip-path="url(#p190980d487)" style="fill: none; stroke: #73b5e3; stroke-width: 2.5; stroke-linecap: round"/>
   </g>
   <g id="line2d_43">
    <path d="M 69.575 179.374474 
L 79.75 173.561862 
L 89.925 160.967868 
L 100.1 165.327327 
L 110.275 162.421021 
L 120.45 162.905405 
L 130.625 172.593093 
L 140.8 174.530631 
L 150.975 172.108709 
L 161.15 174.530631 
L 171.325 180.343243 
L 181.5 200.203003 
L 191.675 219.093994 
L 201.85 248.157057 
L 212.025 275.766967 
L 222.2 299.501802 
L 232.375 319.845946 
L 242.55 321.783483 
L 252.725 334.861862 
L 262.9 341.158859 
L 273.075 341.643243 
L 283.25 337.768168 
L 293.425 327.596096 
L 303.6 324.68979 
L 313.775 307.251952 
L 323.95 284.97027 
L 334.125 253.485285 
L 344.3 238.469369 
L 354.475 210.859459 
L 364.65 206.5 
L 374.825 201.171772 
L 385 193.421622 
L 395.175 194.39039 
L 405.35 185.187087 
L 415.525 177.921321 
L 425.7 180.343243 
L 435.875 175.983784 
L 446.05 181.796396 
L 456.225 182.765165 
L 466.4 177.921321 
" clip-path="url(#p190980d487)" style="fill: none; stroke: #ffb984; stroke-opacity: 0.5; stroke-width: 0.5; stroke-linecap: round"/>
   </g>
   <g id="line2d_44">
    <path d="M 69.575 192.452853 
L 79.75 207.953153 
L 89.925 194.39039 
L 100.1 201.171772 
L 110.275 194.874775 
L 120.45 191.484084 
L 130.625 195.843544 
L 140.8 196.812312 
L 150.975 190.9997 
L 161.15 191.484084 
L 171.325 197.781081 
L 181.5 202.624925 
L 191.675 215.703303 
L 201.85 234.594294 
L 212.025 255.907207 
L 222.2 278.673273 
L 232.375 301.439339 
L 242.55 314.033333 
L 252.725 319.361562 
L 262.9 324.205405 
L 273.075 333.893093 
L 283.25 328.564865 
L 293.425 317.908408 
L 303.6 298.533033 
L 313.775 286.907808 
L 323.95 263.172973 
L 334.125 246.703904 
L 344.3 234.594294 
L 354.475 223.453453 
L 364.65 224.422222 
L 374.825 222.484685 
L 385 212.796997 
L 395.175 203.593694 
L 405.35 200.687387 
L 415.525 199.234234 
L 425.7 189.062162 
L 435.875 202.140541 
L 446.05 197.296697 
L 456.225 194.874775 
L 466.4 199.718619 
" clip-path="url(#p190980d487)" style="fill: none; stroke: #ffb984; stroke-opacity: 0.5; stroke-width: 0.5; stroke-linecap: round"/>
   </g>
   <g id="line2d_45">
    <path d="M 69.575 226.844144 
L 79.75 219.093994 
L 89.925 223.453453 
L 100.1 219.093994 
L 110.275 216.672072 
L 120.45 218.60961 
L 130.625 214.25015 
L 140.8 210.375075 
L 150.975 212.796997 
L 161.15 223.937838 
L 171.325 235.563063 
L 181.5 236.531832 
L 191.675 239.922523 
L 201.85 261.71982 
L 212.025 273.829429 
L 222.2 287.392192 
L 232.375 304.345646 
L 242.55 310.642643 
L 252.725 313.064565 
L 262.9 307.251952 
L 273.075 310.158258 
L 283.25 297.564264 
L 293.425 288.360961 
L 303.6 268.501201 
L 313.775 260.266667 
L 323.95 251.063363 
L 334.125 247.188288 
L 344.3 241.375676 
L 354.475 236.047447 
L 364.65 238.469369 
L 374.825 237.500601 
L 385 236.531832 
L 395.175 231.203604 
L 405.35 232.656757 
L 415.525 231.203604 
L 425.7 222.0003 
L 435.875 226.844144 
L 446.05 224.422222 
L 456.225 223.937838 
L 466.4 214.25015 
" clip-path="url(#p190980d487)" style="fill: none; stroke: #ffb984; stroke-opacity: 0.5; stroke-width: 0.5; stroke-linecap: round"/>
   </g>
   <g id="line2d_46">
    <path d="M 69.575 199.557157 
L 79.75 200.203003 
L 89.925 192.937237 
L 100.1 195.197698 
L 110.275 191.322623 
L 120.45 190.9997 
L 130.625 194.228929 
L 140.8 193.906006 
L 150.975 191.968468 
L 161.15 196.650851 
L 171.325 204.562462 
L 181.5 213.11992 
L 191.675 224.906607 
L 201.85 248.157057 
L 212.025 268.501201 
L 222.2 288.522422 
L 232.375 308.543644 
L 242.55 315.486486 
L 252.725 322.429329 
L 262.9 324.205405 
L 273.075 328.564865 
L 283.25 321.299099 
L 293.425 311.288488 
L 303.6 297.241341 
L 313.775 284.808809 
L 323.95 266.402202 
L 334.125 249.125826 
L 344.3 238.146446 
L 354.475 223.453453 
L 364.65 223.130531 
L 374.825 220.385686 
L 385 214.25015 
L 395.175 209.729229 
L 405.35 206.177077 
L 415.525 202.786386 
L 425.7 197.135235 
L 435.875 201.656156 
L 446.05 201.171772 
L 456.225 200.525926 
L 466.4 197.296697 
" clip-path="url(#p190980d487)" style="fill: none; stroke: #ffb984; stroke-width: 2.5; stroke-linecap: round"/>
   </g>
   <g id="patch_3">
    <path d="M 69.575 367.8 
L 69.575 45.2 
" style="fill: none; stroke: #000000; stroke-width: 0.75; stroke-linejoin: miter; stroke-linecap: square"/>
   </g>
   <g id="patch_4">
    <path d="M 69.575 367.8 
L 466.4 367.8 
" style="fill: none; stroke: #000000; stroke-width: 0.75; stroke-linejoin: miter; stroke-linecap: square"/>
   </g>
   <g id="text_17">
    <text style="font: 500 18px &quot;Suisse Int&apos;l&quot;, sans-serif; text-anchor: middle" x="267.9875" y="29.2" transform="rotate(-0 267.9875 29.2)">Normalized Spatial Density of Cells in a Conical Well : CC-2670</text>
   </g>
   <g id="legend_1">
    <g id="line2d_47">
     <path d="M 486.24125 51.575 
L 493.74125 51.575 
L 501.24125 51.575 
" style="fill: none; stroke: #5088c5; stroke-width: 2.5; stroke-linecap: round"/>
    </g>
    <g id="text_18">
     <text style="font: 15px &quot;Suisse Int&apos;l&quot;, sans-serif; text-anchor: start" x="507.24125" y="57.95" transform="rotate(-0 507.24125 57.95)">water Average</text>
    </g>
    <g id="line2d_48">
     <path d="M 486.24125 74.644531 
L 493.74125 74.644531 
L 501.24125 74.644531 
" style="fill: none; stroke: #f28360; stroke-width: 2.5; stroke-linecap: round"/>
    </g>
    <g id="text_19">
     <text style="font: 15px &quot;Suisse Int&apos;l&quot;, sans-serif; text-anchor: start" x="507.24125" y="81.019531" transform="rotate(-0 507.24125 81.019531)">0.1% DMSO Average</text>
    </g>
    <g id="line2d_49">
     <path d="M 486.24125 97.714062 
L 493.74125 97.714062 
L 501.24125 97.714062 
" style="fill: none; stroke: #3b9886; stroke-width: 2.5; stroke-linecap: round"/>
    </g>
    <g id="text_20">
     <text style="font: 15px &quot;Suisse Int&apos;l&quot;, sans-serif; text-anchor: start" x="507.24125" y="104.089062" transform="rotate(-0 507.24125 104.089062)">50 µM Torin2 Average</text>
    </g>
    <g id="line2d_50">
     <path d="M 486.24125 120.783594 
L 493.74125 120.783594 
L 501.24125 120.783594 
" style="fill: none; stroke: #f7b846; stroke-width: 2.5; stroke-linecap: round"/>
    </g>
    <g id="text_21">
     <text style="font: 15px &quot;Suisse Int&apos;l&quot;, sans-serif; text-anchor: start" x="507.24125" y="127.158594" transform="rotate(-0 507.24125 127.158594)">50 µM TAK-063 Average</text>
    </g>
    <g id="line2d_51">
     <path d="M 486.24125 143.853125 
L 493.74125 143.853125 
L 501.24125 143.853125 
" style="fill: none; stroke: #7a77ab; stroke-width: 2.5; stroke-linecap: round"/>
    </g>
    <g id="text_22">
     <text style="font: 15px &quot;Suisse Int&apos;l&quot;, sans-serif; text-anchor: start" x="507.24125" y="150.228125" transform="rotate(-0 507.24125 150.228125)">50 µM Dynarrestin Average</text>
    </g>
    <g id="line2d_52">
     <path d="M 486.24125 166.922656 
L 493.74125 166.922656 
L 501.24125 166.922656 
" style="fill: none; stroke: #f898ae; stroke-width: 2.5; stroke-linecap: round"/>
    </g>
    <g id="text_23">
     <text style="font: 15px &quot;Suisse Int&apos;l&quot;, sans-serif; text-anchor: start" x="507.24125" y="173.297656" transform="rotate(-0 507.24125 173.297656)">50 µM ATP Average</text>
    </g>
    <g id="line2d_53">
     <path d="M 486.24125 189.992187 
L 493.74125 189.992187 
L 501.24125 189.992187 
" style="fill: none; stroke: #73b5e3; stroke-width: 2.5; stroke-linecap: round"/>
    </g>
    <g id="text_24">
     <text style="font: 15px &quot;Suisse Int&apos;l&quot;, sans-serif; text-anchor: start" x="507.24125" y="196.367187" transform="rotate(-0 507.24125 196.367187)">50 µM Linsitinib Average</text>
    </g>
    <g id="line2d_54">
     <path d="M 486.24125 213.061719 
L 493.74125 213.061719 
L 501.24125 213.061719 
" style="fill: none; stroke: #ffb984; stroke-width: 2.5; stroke-linecap: round"/>
    </g>
    <g id="text_25">
     <text style="font: 15px &quot;Suisse Int&apos;l&quot;, sans-serif; text-anchor: start" x="507.24125" y="219.436719" transform="rotate(-0 507.24125 219.436719)">50 µM Ibudilast Average</text>
    </g>
   </g>
  </g>
 </g>
 <defs>
  <clipPath id="p190980d487">
   <rect x="69.575" y="45.2" width="396.825" height="322.6"/>
  </clipPath>
 </defs>
</svg>
