<?xml version="1.0" encoding="utf-8" standalone="no"?>
<!DOCTYPE svg PUBLIC "-//W3C//DTD SVG 1.1//EN"
  "http://www.w3.org/Graphics/SVG/1.1/DTD/svg11.dtd">
<svg xmlns:xlink="http://www.w3.org/1999/xlink" width="720pt" height="432pt" viewBox="0 0 720 432" xmlns="http://www.w3.org/2000/svg" version="1.1">
 <metadata>
  <rdf:RDF xmlns:dc="http://purl.org/dc/elements/1.1/" xmlns:cc="http://creativecommons.org/ns#" xmlns:rdf="http://www.w3.org/1999/02/22-rdf-syntax-ns#">
   <cc:Work>
    <dc:type rdf:resource="http://purl.org/dc/dcmitype/StillImage"/>
    <dc:date>2024-09-11T16:11:03.038548</dc:date>
    <dc:format>image/svg+xml</dc:format>
    <dc:creator>
     <cc:Agent>
      <dc:title>Matplotlib v3.9.2, https://matplotlib.org/</dc:title>
     </cc:Agent>
    </dc:creator>
   </cc:Work>
  </rdf:RDF>
 </metadata>
 <defs>
  <style type="text/css">*{stroke-linejoin: round; stroke-linecap: butt}</style>
 </defs>
 <g id="figure_1">
  <g id="patch_1">
   <path d="M 0 432 
L 720 432 
L 720 0 
L 0 0 
L 0 432 
z
" style="fill: none"/>
  </g>
  <g id="axes_1">
   <g id="patch_2">
    <path d="M 69.575 367.8 
L 466.775 367.8 
L 466.775 45.2 
L 69.575 45.2 
L 69.575 367.8 
z
" style="fill: none"/>
   </g>
   <g id="matplotlib.axis_1">
    <g id="xtick_1">
     <g id="line2d_1">
      <defs>
       <path id="md760ff8403" d="M 0 0 
L 0 5 
" style="stroke: #000000; stroke-width: 0.75"/>
      </defs>
      <g>
       <use xlink:href="#md760ff8403" x="69.575" y="367.8" style="stroke: #000000; stroke-width: 0.75"/>
      </g>
     </g>
     <g id="text_1">
      <text style="font: 15px &quot;Suisse Int&apos;l&quot;, sans-serif; text-anchor: middle" x="69.575" y="388.675" transform="rotate(-0 69.575 388.675)">0</text>
     </g>
    </g>
    <g id="xtick_2">
     <g id="line2d_2">
      <g>
       <use xlink:href="#md760ff8403" x="120.498077" y="367.8" style="stroke: #000000; stroke-width: 0.75"/>
      </g>
     </g>
     <g id="text_2">
      <text style="font: 15px &quot;Suisse Int&apos;l&quot;, sans-serif; text-anchor: middle" x="120.498077" y="388.675" transform="rotate(-0 120.498077 388.675)">5</text>
     </g>
    </g>
    <g id="xtick_3">
     <g id="line2d_3">
      <g>
       <use xlink:href="#md760ff8403" x="171.421154" y="367.8" style="stroke: #000000; stroke-width: 0.75"/>
      </g>
     </g>
     <g id="text_3">
      <text style="font: 15px &quot;Suisse Int&apos;l&quot;, sans-serif; text-anchor: middle" x="171.421154" y="388.675" transform="rotate(-0 171.421154 388.675)">10</text>
     </g>
    </g>
    <g id="xtick_4">
     <g id="line2d_4">
      <g>
       <use xlink:href="#md760ff8403" x="222.344231" y="367.8" style="stroke: #000000; stroke-width: 0.75"/>
      </g>
     </g>
     <g id="text_4">
      <text style="font: 15px &quot;Suisse Int&apos;l&quot;, sans-serif; text-anchor: middle" x="222.344231" y="388.675" transform="rotate(-0 222.344231 388.675)">15</text>
     </g>
    </g>
    <g id="xtick_5">
     <g id="line2d_5">
      <g>
       <use xlink:href="#md760ff8403" x="273.267308" y="367.8" style="stroke: #000000; stroke-width: 0.75"/>
      </g>
     </g>
     <g id="text_5">
      <text style="font: 15px &quot;Suisse Int&apos;l&quot;, sans-serif; text-anchor: middle" x="273.267308" y="388.675" transform="rotate(-0 273.267308 388.675)">20</text>
     </g>
    </g>
    <g id="xtick_6">
     <g id="line2d_6">
      <g>
       <use xlink:href="#md760ff8403" x="324.190385" y="367.8" style="stroke: #000000; stroke-width: 0.75"/>
      </g>
     </g>
     <g id="text_6">
      <text style="font: 15px &quot;Suisse Int&apos;l&quot;, sans-serif; text-anchor: middle" x="324.190385" y="388.675" transform="rotate(-0 324.190385 388.675)">25</text>
     </g>
    </g>
    <g id="xtick_7">
     <g id="line2d_7">
      <g>
       <use xlink:href="#md760ff8403" x="375.113462" y="367.8" style="stroke: #000000; stroke-width: 0.75"/>
      </g>
     </g>
     <g id="text_7">
      <text style="font: 15px &quot;Suisse Int&apos;l&quot;, sans-serif; text-anchor: middle" x="375.113462" y="388.675" transform="rotate(-0 375.113462 388.675)">30</text>
     </g>
    </g>
    <g id="xtick_8">
     <g id="line2d_8">
      <g>
       <use xlink:href="#md760ff8403" x="426.036538" y="367.8" style="stroke: #000000; stroke-width: 0.75"/>
      </g>
     </g>
     <g id="text_8">
      <text style="font: 15px &quot;Suisse Int&apos;l&quot;, sans-serif; text-anchor: middle" x="426.036538" y="388.675" transform="rotate(-0 426.036538 388.675)">35</text>
     </g>
    </g>
    <g id="text_9">
     <text style="font: 500 15px &quot;Suisse Int&apos;l&quot;, sans-serif; text-anchor: middle" x="268.175" y="412.175" transform="rotate(-0 268.175 412.175)">Pixel Position</text>
    </g>
   </g>
   <g id="matplotlib.axis_2">
    <g id="ytick_1">
     <g id="line2d_9">
      <defs>
       <path id="mac6019a199" d="M 0 0 
L -5 0 
" style="stroke: #000000; stroke-width: 0.75"/>
      </defs>
      <g>
       <use xlink:href="#mac6019a199" x="69.575" y="340.674474" style="stroke: #000000; stroke-width: 0.75"/>
      </g>
     </g>
     <g id="text_10">
      <text style="font: 15px &quot;Suisse Int&apos;l&quot;, sans-serif; text-anchor: end" x="59.575" y="346.111974" transform="rotate(-0 59.575 346.111974)">10</text>
     </g>
    </g>
    <g id="ytick_2">
     <g id="line2d_10">
      <g>
       <use xlink:href="#mac6019a199" x="69.575" y="287.392192" style="stroke: #000000; stroke-width: 0.75"/>
      </g>
     </g>
     <g id="text_11">
      <text style="font: 15px &quot;Suisse Int&apos;l&quot;, sans-serif; text-anchor: end" x="59.575" y="292.829692" transform="rotate(-0 59.575 292.829692)">20</text>
     </g>
    </g>
    <g id="ytick_3">
     <g id="line2d_11">
      <g>
       <use xlink:href="#mac6019a199" x="69.575" y="234.10991" style="stroke: #000000; stroke-width: 0.75"/>
      </g>
     </g>
     <g id="text_12">
      <text style="font: 15px &quot;Suisse Int&apos;l&quot;, sans-serif; text-anchor: end" x="59.575" y="239.54741" transform="rotate(-0 59.575 239.54741)">30</text>
     </g>
    </g>
    <g id="ytick_4">
     <g id="line2d_12">
      <g>
       <use xlink:href="#mac6019a199" x="69.575" y="180.827628" style="stroke: #000000; stroke-width: 0.75"/>
      </g>
     </g>
     <g id="text_13">
      <text style="font: 15px &quot;Suisse Int&apos;l&quot;, sans-serif; text-anchor: end" x="59.575" y="186.265128" transform="rotate(-0 59.575 186.265128)">40</text>
     </g>
    </g>
    <g id="ytick_5">
     <g id="line2d_13">
      <g>
       <use xlink:href="#mac6019a199" x="69.575" y="127.545345" style="stroke: #000000; stroke-width: 0.75"/>
      </g>
     </g>
     <g id="text_14">
      <text style="font: 15px &quot;Suisse Int&apos;l&quot;, sans-serif; text-anchor: end" x="59.575" y="132.982845" transform="rotate(-0 59.575 132.982845)">50</text>
     </g>
    </g>
    <g id="ytick_6">
     <g id="line2d_14">
      <g>
       <use xlink:href="#mac6019a199" x="69.575" y="74.263063" style="stroke: #000000; stroke-width: 0.75"/>
      </g>
     </g>
     <g id="text_15">
      <text style="font: 15px &quot;Suisse Int&apos;l&quot;, sans-serif; text-anchor: end" x="59.575" y="79.700563" transform="rotate(-0 59.575 79.700563)">60</text>
     </g>
    </g>
    <g id="text_16">
     <text style="font: 500 15px &quot;Suisse Int&apos;l&quot;, sans-serif; text-anchor: middle" x="27.675" y="206.5" transform="rotate(-90 27.675 206.5)">Relative Cell Density</text>
    </g>
   </g>
   <g id="line2d_15">
    <path d="M 69.575 191.968468 
L 79.759615 192.452853 
L 89.944231 189.062162 
L 100.128846 185.187087 
L 110.313462 176.468168 
L 120.498077 184.218318 
L 130.682692 192.452853 
L 140.867308 186.64024 
L 151.051923 186.155856 
L 161.236538 195.359159 
L 171.421154 204.078078 
L 181.605769 204.078078 
L 191.790385 201.656156 
L 201.975 212.796997 
L 212.159615 213.281381 
L 222.344231 222.484685 
L 232.528846 246.703904 
L 242.713462 273.345045 
L 252.898077 308.220721 
L 263.082692 326.627327 
L 273.267308 342.127628 
L 283.451923 354.237237 
L 293.636538 361.503003 
L 303.821154 362.956156 
L 314.005769 361.503003 
L 324.190385 366.346847 
L 334.375 353.268468 
L 344.559615 351.330931 
L 354.744231 343.580781 
L 364.928846 330.986787 
L 375.113462 306.283183 
L 385.298077 195.359159 
L 395.482692 180.827628 
L 405.667308 189.062162 
L 415.851923 183.733934 
L 426.036538 178.405706 
L 436.221154 180.827628 
L 446.405769 189.062162 
L 456.590385 189.546547 
L 466.775 183.733934 
" clip-path="url(#p76241b954e)" style="fill: none; stroke: #5088c5; stroke-opacity: 0.5; stroke-width: 0.5; stroke-linecap: round"/>
   </g>
   <g id="line2d_16">
    <path d="M 69.575 153.702102 
L 79.759615 153.702102 
L 89.944231 161.936637 
L 100.128846 159.999099 
L 110.313462 168.233634 
L 120.498077 167.264865 
L 130.682692 166.78048 
L 140.867308 179.858859 
L 151.051923 178.405706 
L 161.236538 182.280781 
L 171.421154 191.484084 
L 181.605769 194.39039 
L 191.790385 207.468769 
L 201.975 230.234835 
L 212.159615 260.266667 
L 222.344231 286.907808 
L 232.528846 313.064565 
L 242.713462 330.502402 
L 252.898077 342.612012 
L 263.082692 348.424625 
L 273.267308 351.330931 
L 283.451923 356.659159 
L 293.636538 352.784084 
L 303.821154 350.846547 
L 314.005769 344.065165 
L 324.190385 331.471171 
L 334.375 320.33033 
L 344.559615 299.017417 
L 354.744231 275.766967 
L 364.928846 227.328529 
L 375.113462 199.234234 
L 385.298077 150.311411 
L 395.482692 159.514715 
L 405.667308 154.670871 
L 415.851923 156.124024 
L 426.036538 164.842943 
L 436.221154 163.38979 
L 446.405769 156.608408 
L 456.590385 150.795796 
L 466.775 153.702102 
" clip-path="url(#p76241b954e)" style="fill: none; stroke: #5088c5; stroke-opacity: 0.5; stroke-width: 0.5; stroke-linecap: round"/>
   </g>
   <g id="line2d_17">
    <path d="M 69.575 133.842342 
L 79.759615 149.342643 
L 89.944231 138.201802 
L 100.128846 140.623724 
L 110.313462 143.045646 
L 120.498077 147.405105 
L 130.682692 153.217718 
L 140.867308 151.28018 
L 151.051923 152.733333 
L 161.236538 151.28018 
L 171.421154 159.514715 
L 181.605769 164.358559 
L 191.790385 185.187087 
L 201.975 217.640841 
L 212.159615 256.391592 
L 222.344231 288.845345 
L 232.528846 308.220721 
L 242.713462 329.533634 
L 252.898077 339.221321 
L 263.082692 346.002703 
L 273.267308 350.846547 
L 283.451923 346.487087 
L 293.636538 342.612012 
L 303.821154 335.830631 
L 314.005769 328.08048 
L 324.190385 311.611411 
L 334.375 284.485886 
L 344.559615 256.391592 
L 354.744231 213.765766 
L 364.928846 179.858859 
L 375.113462 162.421021 
L 385.298077 146.436336 
L 395.482692 135.77988 
L 405.667308 114.466967 
L 415.851923 125.123423 
L 426.036538 129.482883 
L 436.221154 120.763964 
L 446.405769 135.77988 
L 456.590385 136.264264 
L 466.775 135.77988 
" clip-path="url(#p76241b954e)" style="fill: none; stroke: #5088c5; stroke-opacity: 0.5; stroke-width: 0.5; stroke-linecap: round"/>
   </g>
   <g id="line2d_18">
    <path d="M 69.575 159.837638 
L 79.759615 165.165866 
L 89.944231 163.066867 
L 100.128846 161.936637 
L 110.313462 162.582482 
L 120.498077 166.296096 
L 130.682692 170.817017 
L 140.867308 172.593093 
L 151.051923 172.431632 
L 161.236538 176.306707 
L 171.421154 185.025626 
L 181.605769 187.609009 
L 191.790385 198.104004 
L 201.975 220.224224 
L 212.159615 243.313213 
L 222.344231 266.079279 
L 232.528846 289.32973 
L 242.713462 311.127027 
L 252.898077 330.018018 
L 263.082692 340.351552 
L 273.267308 348.101702 
L 283.451923 352.461161 
L 293.636538 352.2997 
L 303.821154 349.877778 
L 314.005769 344.54955 
L 324.190385 336.476476 
L 334.375 319.361562 
L 344.559615 302.246647 
L 354.744231 277.704505 
L 364.928846 246.058058 
L 375.113462 222.646146 
L 385.298077 164.035636 
L 395.482692 158.707407 
L 405.667308 152.733333 
L 415.851923 154.993794 
L 426.036538 157.577177 
L 436.221154 154.993794 
L 446.405769 160.483483 
L 456.590385 158.868869 
L 466.775 157.738639 
" clip-path="url(#p76241b954e)" style="fill: none; stroke: #5088c5; stroke-width: 2.5; stroke-linecap: round"/>
   </g>
   <g id="line2d_19">
    <path d="M 69.575 129.482883 
L 79.759615 121.732733 
L 89.944231 130.451652 
L 100.128846 128.514114 
L 110.313462 137.717417 
L 120.498077 140.623724 
L 130.682692 149.342643 
L 140.867308 139.170571 
L 151.051923 141.108108 
L 161.236538 156.608408 
L 171.421154 172.108709 
L 181.605769 189.546547 
L 191.790385 223.453453 
L 201.975 255.422823 
L 212.159615 285.454655 
L 222.344231 311.127027 
L 232.528846 320.33033 
L 242.713462 337.768168 
L 252.898077 343.096396 
L 263.082692 338.736937 
L 273.267308 346.002703 
L 283.451923 340.674474 
L 293.636538 326.627327 
L 303.821154 310.642643 
L 314.005769 289.32973 
L 324.190385 261.235435 
L 334.375 221.031532 
L 344.559615 186.155856 
L 354.744231 156.124024 
L 364.928846 141.108108 
L 375.113462 138.686186 
L 385.298077 130.451652 
L 395.482692 122.217117 
L 405.667308 118.342042 
L 415.851923 117.857658 
L 426.036538 116.888889 
L 436.221154 124.639039 
L 446.405769 129.482883 
L 456.590385 128.02973 
L 466.775 125.123423 
" clip-path="url(#p76241b954e)" style="fill: none; stroke: #f28360; stroke-opacity: 0.5; stroke-width: 0.5; stroke-linecap: round"/>
   </g>
   <g id="line2d_20">
    <path d="M 69.575 118.342042 
L 79.759615 122.701502 
L 89.944231 132.389189 
L 100.128846 127.545345 
L 110.313462 131.42042 
L 120.498077 138.201802 
L 130.682692 142.076877 
L 140.867308 145.951952 
L 151.051923 158.061562 
L 161.236538 167.264865 
L 171.421154 179.858859 
L 181.605769 196.327928 
L 191.790385 233.141141 
L 201.975 259.297898 
L 212.159615 286.907808 
L 222.344231 312.095796 
L 232.528846 326.627327 
L 242.713462 339.221321 
L 252.898077 334.861862 
L 263.082692 342.127628 
L 273.267308 344.54955 
L 283.451923 337.283784 
L 293.636538 333.893093 
L 303.821154 318.392793 
L 314.005769 295.626727 
L 324.190385 262.688589 
L 334.375 232.172372 
L 344.559615 195.843544 
L 354.744231 167.749249 
L 364.928846 153.702102 
L 375.113462 151.28018 
L 385.298077 142.076877 
L 395.482692 137.233033 
L 405.667308 142.561261 
L 415.851923 134.811111 
L 426.036538 141.592492 
L 436.221154 118.342042 
L 446.405769 112.529429 
L 456.590385 107.685586 
L 466.775 113.013814 
" clip-path="url(#p76241b954e)" style="fill: none; stroke: #f28360; stroke-opacity: 0.5; stroke-width: 0.5; stroke-linecap: round"/>
   </g>
   <g id="line2d_21">
    <path d="M 69.575 112.045045 
L 79.759615 124.639039 
L 89.944231 125.607808 
L 100.128846 121.248348 
L 110.313462 134.326727 
L 120.498077 131.42042 
L 130.682692 128.514114 
L 140.867308 137.233033 
L 151.051923 148.858258 
L 161.236538 150.795796 
L 171.421154 153.702102 
L 181.605769 170.655556 
L 191.790385 196.327928 
L 201.975 234.594294 
L 212.159615 265.110511 
L 222.344231 295.142342 
L 232.528846 315.002102 
L 242.713462 330.986787 
L 252.898077 341.158859 
L 263.082692 343.580781 
L 273.267308 345.033934 
L 283.451923 341.643243 
L 293.636538 338.736937 
L 303.821154 327.596096 
L 314.005769 316.93964 
L 324.190385 293.689189 
L 334.375 261.71982 
L 344.559615 221.515916 
L 354.744231 191.484084 
L 364.928846 173.561862 
L 375.113462 164.358559 
L 385.298077 164.358559 
L 395.482692 150.311411 
L 405.667308 143.045646 
L 415.851923 140.139339 
L 426.036538 142.076877 
L 436.221154 136.748649 
L 446.405769 133.842342 
L 456.590385 130.936036 
L 466.775 121.732733 
" clip-path="url(#p76241b954e)" style="fill: none; stroke: #f28360; stroke-opacity: 0.5; stroke-width: 0.5; stroke-linecap: round"/>
   </g>
   <g id="line2d_22">
    <path d="M 69.575 119.956657 
L 79.759615 123.024424 
L 89.944231 129.482883 
L 100.128846 125.769269 
L 110.313462 134.488188 
L 120.498077 136.748649 
L 130.682692 139.977878 
L 140.867308 140.785185 
L 151.051923 149.342643 
L 161.236538 158.223023 
L 171.421154 168.556557 
L 181.605769 185.51001 
L 191.790385 217.640841 
L 201.975 249.771672 
L 212.159615 279.157658 
L 222.344231 306.121722 
L 232.528846 320.653253 
L 242.713462 335.992092 
L 252.898077 339.705706 
L 263.082692 341.481782 
L 273.267308 345.195395 
L 283.451923 339.867167 
L 293.636538 333.085786 
L 303.821154 318.877177 
L 314.005769 300.632032 
L 324.190385 272.537738 
L 334.375 238.307908 
L 344.559615 201.171772 
L 354.744231 171.785786 
L 364.928846 156.124024 
L 375.113462 151.441642 
L 385.298077 145.629029 
L 395.482692 136.587187 
L 405.667308 134.64965 
L 415.851923 130.936036 
L 426.036538 133.519419 
L 436.221154 126.576577 
L 446.405769 125.284885 
L 456.590385 122.217117 
L 466.775 119.956657 
" clip-path="url(#p76241b954e)" style="fill: none; stroke: #f28360; stroke-width: 2.5; stroke-linecap: round"/>
   </g>
   <g id="line2d_23">
    <path d="M 69.575 115.92012 
L 79.759615 116.404505 
L 89.944231 114.466967 
L 100.128846 115.92012 
L 110.313462 119.310811 
L 120.498077 124.154655 
L 130.682692 123.185886 
L 140.867308 119.795195 
L 151.051923 118.342042 
L 161.236538 111.076276 
L 171.421154 126.092192 
L 181.605769 123.185886 
L 191.790385 118.342042 
L 201.975 114.951351 
L 212.159615 117.857658 
L 222.344231 119.795195 
L 232.528846 124.639039 
L 242.713462 127.545345 
L 252.898077 119.310811 
L 263.082692 128.02973 
L 273.267308 132.873574 
L 283.451923 116.888889 
L 293.636538 124.639039 
L 303.821154 129.482883 
L 314.005769 121.248348 
L 324.190385 119.795195 
L 334.375 113.982583 
L 344.559615 119.310811 
L 354.744231 119.795195 
L 364.928846 124.639039 
L 375.113462 116.404505 
L 385.298077 120.27958 
L 395.482692 124.154655 
L 405.667308 107.201201 
L 415.851923 114.951351 
L 426.036538 112.045045 
L 436.221154 107.201201 
L 446.405769 114.466967 
L 456.590385 111.076276 
L 466.775 126.576577 
" clip-path="url(#p76241b954e)" style="fill: none; stroke: #3b9886; stroke-opacity: 0.5; stroke-width: 0.5; stroke-linecap: round"/>
   </g>
   <g id="line2d_24">
    <path d="M 69.575 119.310811 
L 79.759615 116.888889 
L 89.944231 121.248348 
L 100.128846 116.888889 
L 110.313462 125.607808 
L 120.498077 118.826426 
L 130.682692 116.888889 
L 140.867308 120.27958 
L 151.051923 115.92012 
L 161.236538 117.373273 
L 171.421154 122.701502 
L 181.605769 122.217117 
L 191.790385 128.02973 
L 201.975 123.185886 
L 212.159615 117.857658 
L 222.344231 127.545345 
L 232.528846 125.607808 
L 242.713462 126.576577 
L 252.898077 122.217117 
L 263.082692 125.123423 
L 273.267308 128.998498 
L 283.451923 111.076276 
L 293.636538 115.435736 
L 303.821154 126.092192 
L 314.005769 124.154655 
L 324.190385 112.045045 
L 334.375 125.123423 
L 344.559615 117.857658 
L 354.744231 116.888889 
L 364.928846 118.342042 
L 375.113462 122.217117 
L 385.298077 114.951351 
L 395.482692 116.404505 
L 405.667308 118.826426 
L 415.851923 109.623123 
L 426.036538 121.732733 
L 436.221154 118.342042 
L 446.405769 118.826426 
L 456.590385 111.560661 
L 466.775 119.795195 
" clip-path="url(#p76241b954e)" style="fill: none; stroke: #3b9886; stroke-opacity: 0.5; stroke-width: 0.5; stroke-linecap: round"/>
   </g>
   <g id="line2d_25">
    <path d="M 69.575 97.997898 
L 79.759615 97.997898 
L 89.944231 104.294895 
L 100.128846 113.013814 
L 110.313462 105.748048 
L 120.498077 109.138739 
L 130.682692 113.013814 
L 140.867308 108.654354 
L 151.051923 106.716817 
L 161.236538 105.748048 
L 171.421154 93.638438 
L 181.605769 97.029129 
L 191.790385 88.31021 
L 201.975 86.372673 
L 212.159615 92.66967 
L 222.344231 94.122823 
L 232.528846 98.966667 
L 242.713462 96.544745 
L 252.898077 102.357357 
L 263.082692 98.482282 
L 273.267308 114.466967 
L 283.451923 99.935435 
L 293.636538 99.451051 
L 303.821154 104.779279 
L 314.005769 114.466967 
L 324.190385 101.872973 
L 334.375 102.841742 
L 344.559615 102.841742 
L 354.744231 97.513514 
L 364.928846 99.451051 
L 375.113462 91.216517 
L 385.298077 87.825826 
L 395.482692 79.591291 
L 405.667308 68.45045 
L 415.851923 48.590691 
L 426.036538 60.7003 
L 436.221154 82.013213 
L 446.405769 89.763363 
L 456.590385 88.794595 
L 466.775 100.41982 
" clip-path="url(#p76241b954e)" style="fill: none; stroke: #3b9886; stroke-opacity: 0.5; stroke-width: 0.5; stroke-linecap: round"/>
   </g>
   <g id="line2d_26">
    <path d="M 69.575 111.076276 
L 79.759615 110.43043 
L 89.944231 113.336737 
L 100.128846 115.274274 
L 110.313462 116.888889 
L 120.498077 117.373273 
L 130.682692 117.696196 
L 140.867308 116.243043 
L 151.051923 113.65966 
L 161.236538 111.399199 
L 171.421154 114.144044 
L 181.605769 114.144044 
L 191.790385 111.560661 
L 201.975 108.16997 
L 212.159615 109.461662 
L 222.344231 113.821121 
L 232.528846 116.404505 
L 242.713462 116.888889 
L 252.898077 114.628428 
L 263.082692 117.211812 
L 273.267308 125.446346 
L 283.451923 109.3002 
L 293.636538 113.175275 
L 303.821154 120.118118 
L 314.005769 119.956657 
L 324.190385 111.237738 
L 334.375 113.982583 
L 344.559615 113.336737 
L 354.744231 111.399199 
L 364.928846 114.144044 
L 375.113462 109.946046 
L 385.298077 107.685586 
L 395.482692 106.716817 
L 405.667308 98.159359 
L 415.851923 91.055055 
L 426.036538 98.159359 
L 436.221154 102.518819 
L 446.405769 107.685586 
L 456.590385 103.810511 
L 466.775 115.597197 
" clip-path="url(#p76241b954e)" style="fill: none; stroke: #3b9886; stroke-width: 2.5; stroke-linecap: round"/>
   </g>
   <g id="line2d_27">
    <path d="M 69.575 137.717417 
L 79.759615 131.904805 
L 89.944231 144.014414 
L 100.128846 144.983183 
L 110.313462 131.904805 
L 120.498077 150.311411 
L 130.682692 164.358559 
L 140.867308 163.874174 
L 151.051923 172.593093 
L 161.236538 196.812312 
L 171.421154 228.781682 
L 181.605769 257.36036 
L 191.790385 282.063964 
L 201.975 310.642643 
L 212.159615 325.174174 
L 222.344231 333.893093 
L 232.528846 347.94024 
L 242.713462 350.846547 
L 252.898077 359.565465 
L 263.082692 361.987387 
L 273.267308 364.409309 
L 283.451923 361.018619 
L 293.636538 357.143544 
L 303.821154 360.04985 
L 314.005769 348.424625 
L 324.190385 336.799399 
L 334.375 318.877177 
L 344.559615 284.97027 
L 354.744231 246.703904 
L 364.928846 212.312613 
L 375.113462 182.765165 
L 385.298077 175.983784 
L 395.482692 161.452252 
L 405.667308 157.092793 
L 415.851923 156.124024 
L 426.036538 155.63964 
L 436.221154 141.108108 
L 446.405769 144.983183 
L 456.590385 147.889489 
L 466.775 152.733333 
" clip-path="url(#p76241b954e)" style="fill: none; stroke: #f7b846; stroke-opacity: 0.5; stroke-width: 0.5; stroke-linecap: round"/>
   </g>
   <g id="line2d_28">
    <path d="M 69.575 171.624324 
L 79.759615 170.655556 
L 89.944231 158.545946 
L 100.128846 168.233634 
L 110.313462 168.718018 
L 120.498077 165.327327 
L 130.682692 165.811712 
L 140.867308 158.061562 
L 151.051923 203.109309 
L 161.236538 222.0003 
L 171.421154 242.344444 
L 181.605769 268.501201 
L 191.790385 289.814114 
L 201.975 312.095796 
L 212.159615 326.142943 
L 222.344231 341.643243 
L 232.528846 352.2997 
L 242.713462 350.846547 
L 252.898077 358.112312 
L 263.082692 362.956156 
L 273.267308 363.924925 
L 283.451923 359.565465 
L 293.636538 361.503003 
L 303.821154 353.752853 
L 314.005769 344.065165 
L 324.190385 325.174174 
L 334.375 297.564264 
L 344.559615 266.079279 
L 354.744231 236.047447 
L 364.928846 219.093994 
L 375.113462 199.718619 
L 385.298077 185.187087 
L 395.482692 179.858859 
L 405.667308 175.499399 
L 415.851923 174.530631 
L 426.036538 175.499399 
L 436.221154 178.405706 
L 446.405769 162.905405 
L 456.590385 165.327327 
L 466.775 169.686787 
" clip-path="url(#p76241b954e)" style="fill: none; stroke: #f7b846; stroke-opacity: 0.5; stroke-width: 0.5; stroke-linecap: round"/>
   </g>
   <g id="line2d_29">
    <path d="M 69.575 200.203003 
L 79.759615 192.937237 
L 89.944231 193.906006 
L 100.128846 189.546547 
L 110.313462 189.546547 
L 120.498077 194.39039 
L 130.682692 189.062162 
L 140.867308 187.609009 
L 151.051923 186.155856 
L 161.236538 243.797598 
L 171.421154 276.735736 
L 181.605769 298.533033 
L 191.790385 317.908408 
L 201.975 330.502402 
L 212.159615 343.580781 
L 222.344231 351.815315 
L 232.528846 359.565465 
L 242.713462 364.409309 
L 252.898077 365.862462 
L 263.082692 366.346847 
L 273.267308 367.315616 
L 283.451923 357.627928 
L 293.636538 363.924925 
L 303.821154 355.69039 
L 314.005769 342.127628 
L 324.190385 329.533634 
L 334.375 306.767568 
L 344.559615 268.985586 
L 354.744231 256.391592 
L 364.928846 233.141141 
L 375.113462 222.484685 
L 385.298077 209.890691 
L 395.482692 216.672072 
L 405.667308 210.859459 
L 415.851923 197.781081 
L 426.036538 202.140541 
L 436.221154 211.828228 
L 446.405769 195.359159 
L 456.590385 186.64024 
L 466.775 204.078078 
" clip-path="url(#p76241b954e)" style="fill: none; stroke: #f7b846; stroke-opacity: 0.5; stroke-width: 0.5; stroke-linecap: round"/>
   </g>
   <g id="line2d_30">
    <path d="M 69.575 169.848248 
L 79.759615 165.165866 
L 89.944231 165.488789 
L 100.128846 167.587788 
L 110.313462 163.38979 
L 120.498077 170.00971 
L 130.682692 173.077477 
L 140.867308 169.848248 
L 151.051923 187.286086 
L 161.236538 220.87007 
L 171.421154 249.287287 
L 181.605769 274.798198 
L 191.790385 296.595495 
L 201.975 317.746947 
L 212.159615 331.632633 
L 222.344231 342.450551 
L 232.528846 353.268468 
L 242.713462 355.367467 
L 252.898077 361.18008 
L 263.082692 363.763463 
L 273.267308 365.216617 
L 283.451923 359.404004 
L 293.636538 360.857157 
L 303.821154 356.497698 
L 314.005769 344.872472 
L 324.190385 330.502402 
L 334.375 307.736336 
L 344.559615 273.345045 
L 354.744231 246.380981 
L 364.928846 221.515916 
L 375.113462 201.656156 
L 385.298077 190.353854 
L 395.482692 185.994394 
L 405.667308 181.150551 
L 415.851923 176.145245 
L 426.036538 177.75986 
L 436.221154 177.114014 
L 446.405769 167.749249 
L 456.590385 166.619019 
L 466.775 175.499399 
" clip-path="url(#p76241b954e)" style="fill: none; stroke: #f7b846; stroke-width: 2.5; stroke-linecap: round"/>
   </g>
   <g id="line2d_31">
    <path d="M 69.575 192.937237 
L 79.759615 196.327928 
L 89.944231 182.765165 
L 100.128846 190.9997 
L 110.313462 199.718619 
L 120.498077 192.937237 
L 130.682692 204.078078 
L 140.867308 196.812312 
L 151.051923 187.124625 
L 161.236538 203.109309 
L 171.421154 200.687387 
L 181.605769 203.109309 
L 191.790385 200.203003 
L 201.975 216.672072 
L 212.159615 218.125225 
L 222.344231 238.953754 
L 232.528846 248.641441 
L 242.713462 285.454655 
L 252.898077 320.814715 
L 263.082692 337.768168 
L 273.267308 354.237237 
L 283.451923 356.659159 
L 293.636538 361.503003 
L 303.821154 367.8 
L 314.005769 365.862462 
L 324.190385 358.112312 
L 334.375 360.534234 
L 344.559615 357.143544 
L 354.744231 353.268468 
L 364.928846 349.393393 
L 375.113462 325.174174 
L 385.298077 198.265465 
L 395.482692 197.296697 
L 405.667308 191.968468 
L 415.851923 192.937237 
L 426.036538 184.702703 
L 436.221154 179.374474 
L 446.405769 194.39039 
L 456.590385 203.593694 
L 466.775 190.9997 
" clip-path="url(#p76241b954e)" style="fill: none; stroke: #7a77ab; stroke-opacity: 0.5; stroke-width: 0.5; stroke-linecap: round"/>
   </g>
   <g id="line2d_32">
    <path d="M 69.575 161.452252 
L 79.759615 161.936637 
L 89.944231 161.452252 
L 100.128846 167.264865 
L 110.313462 165.811712 
L 120.498077 175.015015 
L 130.682692 169.202402 
L 140.867308 176.468168 
L 151.051923 169.686787 
L 161.236538 180.343243 
L 171.421154 186.155856 
L 181.605769 200.687387 
L 191.790385 226.35976 
L 201.975 248.641441 
L 212.159615 282.548348 
L 222.344231 313.064565 
L 232.528846 329.533634 
L 242.713462 344.54955 
L 252.898077 351.815315 
L 263.082692 357.627928 
L 273.267308 362.471772 
L 283.451923 362.956156 
L 293.636538 360.534234 
L 303.821154 360.04985 
L 314.005769 356.659159 
L 324.190385 351.330931 
L 334.375 332.924324 
L 344.559615 327.111712 
L 354.744231 297.07988 
L 364.928846 263.172973 
L 375.113462 228.297297 
L 385.298077 147.889489 
L 395.482692 158.061562 
L 405.667308 156.124024 
L 415.851923 155.155255 
L 426.036538 148.373874 
L 436.221154 166.78048 
L 446.405769 161.452252 
L 456.590385 163.38979 
L 466.775 159.514715 
" clip-path="url(#p76241b954e)" style="fill: none; stroke: #7a77ab; stroke-opacity: 0.5; stroke-width: 0.5; stroke-linecap: round"/>
   </g>
   <g id="line2d_33">
    <path d="M 69.575 129.967267 
L 79.759615 131.42042 
L 89.944231 133.357958 
L 100.128846 122.701502 
L 110.313462 135.77988 
L 120.498077 134.811111 
L 130.682692 144.498799 
L 140.867308 148.373874 
L 151.051923 157.092793 
L 161.236538 169.686787 
L 171.421154 192.452853 
L 181.605769 222.0003 
L 191.790385 262.688589 
L 201.975 293.689189 
L 212.159615 320.33033 
L 222.344231 344.54955 
L 232.528846 347.94024 
L 242.713462 354.721622 
L 252.898077 361.987387 
L 263.082692 361.503003 
L 273.267308 363.924925 
L 283.451923 358.112312 
L 293.636538 350.846547 
L 303.821154 347.455856 
L 314.005769 334.377477 
L 324.190385 313.064565 
L 334.375 293.689189 
L 344.559615 251.063363 
L 354.744231 219.578378 
L 364.928846 171.624324 
L 375.113462 164.358559 
L 385.298077 151.764565 
L 395.482692 129.482883 
L 405.667308 128.514114 
L 415.851923 118.342042 
L 426.036538 132.389189 
L 436.221154 125.607808 
L 446.405769 116.404505 
L 456.590385 127.060961 
L 466.775 129.967267 
" clip-path="url(#p76241b954e)" style="fill: none; stroke: #7a77ab; stroke-opacity: 0.5; stroke-width: 0.5; stroke-linecap: round"/>
   </g>
   <g id="line2d_34">
    <path d="M 69.575 161.452252 
L 79.759615 163.228328 
L 89.944231 159.191792 
L 100.128846 160.322022 
L 110.313462 167.103403 
L 120.498077 167.587788 
L 130.682692 172.593093 
L 140.867308 173.884785 
L 151.051923 171.301401 
L 161.236538 184.37978 
L 171.421154 193.098699 
L 181.605769 208.598999 
L 191.790385 229.75045 
L 201.975 253.000901 
L 212.159615 273.667968 
L 222.344231 298.855956 
L 232.528846 308.705105 
L 242.713462 328.241942 
L 252.898077 344.872472 
L 263.082692 352.2997 
L 273.267308 360.211311 
L 283.451923 359.242543 
L 293.636538 357.627928 
L 303.821154 358.435235 
L 314.005769 352.2997 
L 324.190385 340.835936 
L 334.375 329.049249 
L 344.559615 311.772873 
L 354.744231 289.975576 
L 364.928846 261.396897 
L 375.113462 239.276677 
L 385.298077 165.973173 
L 395.482692 161.613714 
L 405.667308 158.868869 
L 415.851923 155.478178 
L 426.036538 155.155255 
L 436.221154 157.254254 
L 446.405769 157.415716 
L 456.590385 164.681481 
L 466.775 160.160561 
" clip-path="url(#p76241b954e)" style="fill: none; stroke: #7a77ab; stroke-width: 2.5; stroke-linecap: round"/>
   </g>
   <g id="line2d_35">
    <path d="M 69.575 111.560661 
L 79.759615 107.685586 
L 89.944231 113.013814 
L 100.128846 110.107508 
L 110.313462 110.107508 
L 120.498077 120.763964 
L 130.682692 121.248348 
L 140.867308 124.639039 
L 151.051923 131.42042 
L 161.236538 142.561261 
L 171.421154 162.905405 
L 181.605769 205.531231 
L 191.790385 249.61021 
L 201.975 278.673273 
L 212.159615 312.095796 
L 222.344231 328.564865 
L 232.528846 343.096396 
L 242.713462 351.330931 
L 252.898077 354.237237 
L 263.082692 359.081081 
L 273.267308 362.956156 
L 283.451923 356.174775 
L 293.636538 348.909009 
L 303.821154 339.221321 
L 314.005769 330.986787 
L 324.190385 312.095796 
L 334.375 278.673273 
L 344.559615 228.297297 
L 354.744231 177.436937 
L 364.928846 139.654955 
L 375.113462 122.217117 
L 385.298077 108.16997 
L 395.482692 91.700901 
L 405.667308 97.029129 
L 415.851923 95.575976 
L 426.036538 100.904204 
L 436.221154 108.16997 
L 446.405769 94.607207 
L 456.590385 92.66967 
L 466.775 103.810511 
" clip-path="url(#p76241b954e)" style="fill: none; stroke: #f898ae; stroke-opacity: 0.5; stroke-width: 0.5; stroke-linecap: round"/>
   </g>
   <g id="line2d_36">
    <path d="M 69.575 122.217117 
L 79.759615 117.373273 
L 89.944231 129.967267 
L 100.128846 123.67027 
L 110.313462 120.763964 
L 120.498077 127.060961 
L 130.682692 138.686186 
L 140.867308 136.264264 
L 151.051923 156.608408 
L 161.236538 172.108709 
L 171.421154 210.375075 
L 181.605769 250.094595 
L 191.790385 272.376276 
L 201.975 303.861261 
L 212.159615 328.08048 
L 222.344231 344.54955 
L 232.528846 349.393393 
L 242.713462 359.081081 
L 252.898077 362.471772 
L 263.082692 363.924925 
L 273.267308 366.831231 
L 283.451923 361.987387 
L 293.636538 353.752853 
L 303.821154 353.268468 
L 314.005769 335.346246 
L 324.190385 315.970871 
L 334.375 286.907808 
L 344.559615 235.078679 
L 354.744231 200.687387 
L 364.928846 171.624324 
L 375.113462 149.827027 
L 385.298077 137.717417 
L 395.482692 130.451652 
L 405.667308 128.514114 
L 415.851923 132.873574 
L 426.036538 134.326727 
L 436.221154 101.388589 
L 446.405769 108.16997 
L 456.590385 117.373273 
L 466.775 124.639039 
" clip-path="url(#p76241b954e)" style="fill: none; stroke: #f898ae; stroke-opacity: 0.5; stroke-width: 0.5; stroke-linecap: round"/>
   </g>
   <g id="line2d_37">
    <path d="M 69.575 110.107508 
L 79.759615 120.763964 
L 89.944231 118.826426 
L 100.128846 114.951351 
L 110.313462 117.857658 
L 120.498077 128.514114 
L 130.682692 127.060961 
L 140.867308 131.42042 
L 151.051923 144.983183 
L 161.236538 162.421021 
L 171.421154 182.280781 
L 181.605769 232.656757 
L 191.790385 261.235435 
L 201.975 288.360961 
L 212.159615 319.361562 
L 222.344231 337.768168 
L 232.528846 343.580781 
L 242.713462 356.174775 
L 252.898077 356.659159 
L 263.082692 360.04985 
L 273.267308 361.018619 
L 283.451923 358.596697 
L 293.636538 359.565465 
L 303.821154 358.112312 
L 314.005769 348.424625 
L 324.190385 339.221321 
L 334.375 328.08048 
L 344.559615 300.954955 
L 354.744231 265.594895 
L 364.928846 217.156456 
L 375.113462 189.062162 
L 385.298077 158.061562 
L 395.482692 142.076877 
L 405.667308 139.170571 
L 415.851923 135.295495 
L 426.036538 136.264264 
L 436.221154 119.795195 
L 446.405769 123.67027 
L 456.590385 128.02973 
L 466.775 112.529429 
" clip-path="url(#p76241b954e)" style="fill: none; stroke: #f898ae; stroke-opacity: 0.5; stroke-width: 0.5; stroke-linecap: round"/>
   </g>
   <g id="line2d_38">
    <path d="M 69.575 114.628428 
L 79.759615 115.274274 
L 89.944231 120.602503 
L 100.128846 116.243043 
L 110.313462 116.243043 
L 120.498077 125.446346 
L 130.682692 128.998498 
L 140.867308 130.774575 
L 151.051923 144.337337 
L 161.236538 159.03033 
L 171.421154 185.187087 
L 181.605769 229.427528 
L 191.790385 261.073974 
L 201.975 290.298498 
L 212.159615 319.845946 
L 222.344231 336.960861 
L 232.528846 345.356857 
L 242.713462 355.528929 
L 252.898077 357.789389 
L 263.082692 361.018619 
L 273.267308 363.602002 
L 283.451923 358.91962 
L 293.636538 354.075776 
L 303.821154 350.200701 
L 314.005769 338.252553 
L 324.190385 322.429329 
L 334.375 297.887187 
L 344.559615 254.776977 
L 354.744231 214.573073 
L 364.928846 176.145245 
L 375.113462 153.702102 
L 385.298077 134.64965 
L 395.482692 121.40981 
L 405.667308 121.571271 
L 415.851923 121.248348 
L 426.036538 123.831732 
L 436.221154 109.784585 
L 446.405769 108.815816 
L 456.590385 112.690891 
L 466.775 113.65966 
" clip-path="url(#p76241b954e)" style="fill: none; stroke: #f898ae; stroke-width: 2.5; stroke-linecap: round"/>
   </g>
   <g id="line2d_39">
    <path d="M 69.575 166.78048 
L 79.759615 175.983784 
L 89.944231 173.077477 
L 100.128846 185.187087 
L 110.313462 176.468168 
L 120.498077 181.796396 
L 130.682692 171.13994 
L 140.867308 175.983784 
L 151.051923 182.765165 
L 161.236538 174.530631 
L 171.421154 180.827628 
L 181.605769 185.671471 
L 191.790385 180.343243 
L 201.975 196.327928 
L 212.159615 190.030931 
L 222.344231 201.171772 
L 232.528846 195.359159 
L 242.713462 205.531231 
L 252.898077 209.890691 
L 263.082692 226.35976 
L 273.267308 236.047447 
L 283.451923 220.547147 
L 293.636538 213.281381 
L 303.821154 216.187688 
L 314.005769 210.375075 
L 324.190385 195.843544 
L 334.375 189.546547 
L 344.559615 197.296697 
L 354.744231 191.484084 
L 364.928846 178.405706 
L 375.113462 184.218318 
L 385.298077 176.468168 
L 395.482692 173.077477 
L 405.667308 175.015015 
L 415.851923 170.171171 
L 426.036538 167.749249 
L 436.221154 170.655556 
L 446.405769 173.561862 
L 456.590385 175.015015 
L 466.775 169.202402 
" clip-path="url(#p76241b954e)" style="fill: none; stroke: #73b5e3; stroke-opacity: 0.5; stroke-width: 0.5; stroke-linecap: round"/>
   </g>
   <g id="line2d_40">
    <path d="M 69.575 178.89009 
L 79.759615 179.374474 
L 89.944231 179.858859 
L 100.128846 170.655556 
L 110.313462 173.077477 
L 120.498077 170.171171 
L 130.682692 173.077477 
L 140.867308 183.24955 
L 151.051923 179.374474 
L 161.236538 189.062162 
L 171.421154 200.203003 
L 181.605769 194.39039 
L 191.790385 198.265465 
L 201.975 206.5 
L 212.159615 205.531231 
L 222.344231 206.5 
L 232.528846 207.953153 
L 242.713462 223.453453 
L 252.898077 230.719219 
L 263.082692 228.297297 
L 273.267308 241.86006 
L 283.451923 229.75045 
L 293.636538 234.10991 
L 303.821154 232.172372 
L 314.005769 212.312613 
L 324.190385 209.890691 
L 334.375 210.375075 
L 344.559615 202.624925 
L 354.744231 191.484084 
L 364.928846 192.937237 
L 375.113462 198.74985 
L 385.298077 181.312012 
L 395.482692 185.187087 
L 405.667308 193.906006 
L 415.851923 190.030931 
L 426.036538 191.484084 
L 436.221154 192.452853 
L 446.405769 179.374474 
L 456.590385 178.405706 
L 466.775 180.827628 
" clip-path="url(#p76241b954e)" style="fill: none; stroke: #73b5e3; stroke-opacity: 0.5; stroke-width: 0.5; stroke-linecap: round"/>
   </g>
   <g id="line2d_41">
    <path d="M 69.575 152.733333 
L 79.759615 152.733333 
L 89.944231 158.545946 
L 100.128846 174.046246 
L 110.313462 182.765165 
L 120.498077 161.936637 
L 130.682692 164.842943 
L 140.867308 161.452252 
L 151.051923 166.296096 
L 161.236538 160.483483 
L 171.421154 160.483483 
L 181.605769 162.905405 
L 191.790385 157.577177 
L 201.975 162.905405 
L 212.159615 164.358559 
L 222.344231 167.749249 
L 232.528846 181.312012 
L 242.713462 190.515315 
L 252.898077 215.703303 
L 263.082692 233.141141 
L 273.267308 239.438138 
L 283.451923 235.563063 
L 293.636538 230.234835 
L 303.821154 224.906607 
L 314.005769 218.125225 
L 324.190385 221.515916 
L 334.375 207.468769 
L 344.559615 206.5 
L 354.744231 196.812312 
L 364.928846 180.827628 
L 375.113462 174.046246 
L 385.298077 171.13994 
L 395.482692 163.38979 
L 405.667308 155.63964 
L 415.851923 157.577177 
L 426.036538 148.858258 
L 436.221154 153.702102 
L 446.405769 149.827027 
L 456.590385 154.670871 
L 466.775 159.03033 
" clip-path="url(#p76241b954e)" style="fill: none; stroke: #73b5e3; stroke-opacity: 0.5; stroke-width: 0.5; stroke-linecap: round"/>
   </g>
   <g id="line2d_42">
    <path d="M 69.575 166.134635 
L 79.759615 169.363864 
L 89.944231 170.494094 
L 100.128846 176.62963 
L 110.313462 177.436937 
L 120.498077 171.301401 
L 130.682692 169.686787 
L 140.867308 173.561862 
L 151.051923 176.145245 
L 161.236538 174.692092 
L 171.421154 180.504705 
L 181.605769 180.989089 
L 191.790385 178.728629 
L 201.975 188.577778 
L 212.159615 186.64024 
L 222.344231 191.807007 
L 232.528846 194.874775 
L 242.713462 206.5 
L 252.898077 218.771071 
L 263.082692 229.266066 
L 273.267308 239.115215 
L 283.451923 228.62022 
L 293.636538 225.875375 
L 303.821154 224.422222 
L 314.005769 213.604304 
L 324.190385 209.083383 
L 334.375 202.463463 
L 344.559615 202.140541 
L 354.744231 193.26016 
L 364.928846 184.056857 
L 375.113462 185.671471 
L 385.298077 176.306707 
L 395.482692 173.884785 
L 405.667308 174.853554 
L 415.851923 172.593093 
L 426.036538 169.363864 
L 436.221154 172.27017 
L 446.405769 167.587788 
L 456.590385 169.363864 
L 466.775 169.686787 
" clip-path="url(#p76241b954e)" style="fill: none; stroke: #73b5e3; stroke-width: 2.5; stroke-linecap: round"/>
   </g>
   <g id="line2d_43">
    <path d="M 69.575 218.125225 
L 79.759615 217.156456 
L 89.944231 219.578378 
L 100.128846 223.937838 
L 110.313462 234.10991 
L 120.498077 229.75045 
L 130.682692 234.10991 
L 140.867308 217.640841 
L 151.051923 223.937838 
L 161.236538 225.390991 
L 171.421154 223.453453 
L 181.605769 223.937838 
L 191.790385 217.640841 
L 201.975 221.515916 
L 212.159615 229.75045 
L 222.344231 232.656757 
L 232.528846 235.078679 
L 242.713462 244.766366 
L 252.898077 257.36036 
L 263.082692 272.860661 
L 273.267308 281.095195 
L 283.451923 279.157658 
L 293.636538 272.860661 
L 303.821154 270.923123 
L 314.005769 254.938438 
L 324.190385 242.828829 
L 334.375 228.297297 
L 344.559615 235.078679 
L 354.744231 232.172372 
L 364.928846 233.141141 
L 375.113462 228.297297 
L 385.298077 231.687988 
L 395.482692 222.484685 
L 405.667308 213.765766 
L 415.851923 218.60961 
L 426.036538 217.640841 
L 436.221154 217.640841 
L 446.405769 216.187688 
L 456.590385 214.734535 
L 466.775 215.703303 
" clip-path="url(#p76241b954e)" style="fill: none; stroke: #ffb984; stroke-opacity: 0.5; stroke-width: 0.5; stroke-linecap: round"/>
   </g>
   <g id="line2d_44">
    <path d="M 69.575 244.281982 
L 79.759615 238.953754 
L 89.944231 243.313213 
L 100.128846 244.281982 
L 110.313462 247.672673 
L 120.498077 246.21952 
L 130.682692 244.766366 
L 140.867308 239.922523 
L 151.051923 243.797598 
L 161.236538 241.86006 
L 171.421154 237.016216 
L 181.605769 243.797598 
L 191.790385 242.344444 
L 201.975 237.016216 
L 212.159615 239.922523 
L 222.344231 244.766366 
L 232.528846 251.547748 
L 242.713462 260.266667 
L 252.898077 269.46997 
L 263.082692 278.673273 
L 273.267308 282.063964 
L 283.451923 281.095195 
L 293.636538 272.376276 
L 303.821154 263.657357 
L 314.005769 251.063363 
L 324.190385 238.469369 
L 334.375 237.016216 
L 344.559615 236.531832 
L 354.744231 239.922523 
L 364.928846 239.438138 
L 375.113462 245.250751 
L 385.298077 244.281982 
L 395.482692 239.922523 
L 405.667308 238.953754 
L 415.851923 244.766366 
L 426.036538 243.797598 
L 436.221154 233.141141 
L 446.405769 251.063363 
L 456.590385 252.516517 
L 466.775 236.047447 
" clip-path="url(#p76241b954e)" style="fill: none; stroke: #ffb984; stroke-opacity: 0.5; stroke-width: 0.5; stroke-linecap: round"/>
   </g>
   <g id="line2d_45">
    <path d="M 69.575 255.907207 
L 79.759615 268.501201 
L 89.944231 261.71982 
L 100.128846 268.016817 
L 110.313462 259.297898 
L 120.498077 259.297898 
L 130.682692 258.329129 
L 140.867308 253.96967 
L 151.051923 256.875976 
L 161.236538 247.672673 
L 171.421154 241.375676 
L 181.605769 242.828829 
L 191.790385 238.953754 
L 201.975 251.547748 
L 212.159615 244.281982 
L 222.344231 261.71982 
L 232.528846 266.563664 
L 242.713462 280.126426 
L 252.898077 274.798198 
L 263.082692 286.423423 
L 273.267308 274.313814 
L 283.451923 272.860661 
L 293.636538 263.657357 
L 303.821154 262.204204 
L 314.005769 255.422823 
L 324.190385 258.813514 
L 334.375 256.391592 
L 344.559615 261.71982 
L 354.744231 257.844745 
L 364.928846 263.657357 
L 375.113462 258.329129 
L 385.298077 257.36036 
L 395.482692 259.782282 
L 405.667308 258.813514 
L 415.851923 257.36036 
L 426.036538 263.657357 
L 436.221154 263.172973 
L 446.405769 265.110511 
L 456.590385 256.391592 
L 466.775 259.297898 
" clip-path="url(#p76241b954e)" style="fill: none; stroke: #ffb984; stroke-opacity: 0.5; stroke-width: 0.5; stroke-linecap: round"/>
   </g>
   <g id="line2d_46">
    <path d="M 69.575 239.438138 
L 79.759615 241.537137 
L 89.944231 241.537137 
L 100.128846 245.412212 
L 110.313462 247.026827 
L 120.498077 245.089289 
L 130.682692 245.735135 
L 140.867308 237.177678 
L 151.051923 241.537137 
L 161.236538 238.307908 
L 171.421154 233.948448 
L 181.605769 236.854755 
L 191.790385 232.97968 
L 201.975 236.693293 
L 212.159615 237.984985 
L 222.344231 246.380981 
L 232.528846 251.063363 
L 242.713462 261.71982 
L 252.898077 267.20951 
L 263.082692 279.319119 
L 273.267308 279.157658 
L 283.451923 277.704505 
L 293.636538 269.631431 
L 303.821154 265.594895 
L 314.005769 253.808208 
L 324.190385 246.703904 
L 334.375 240.568368 
L 344.559615 244.443443 
L 354.744231 243.313213 
L 364.928846 245.412212 
L 375.113462 243.959059 
L 385.298077 244.443443 
L 395.482692 240.72983 
L 405.667308 237.177678 
L 415.851923 240.245445 
L 426.036538 241.698599 
L 436.221154 237.984985 
L 446.405769 244.120521 
L 456.590385 241.214214 
L 466.775 237.016216 
" clip-path="url(#p76241b954e)" style="fill: none; stroke: #ffb984; stroke-width: 2.5; stroke-linecap: round"/>
   </g>
   <g id="patch_3">
    <path d="M 69.575 367.8 
L 69.575 45.2 
" style="fill: none; stroke: #000000; stroke-width: 0.75; stroke-linejoin: miter; stroke-linecap: square"/>
   </g>
   <g id="patch_4">
    <path d="M 69.575 367.8 
L 466.775 367.8 
" style="fill: none; stroke: #000000; stroke-width: 0.75; stroke-linejoin: miter; stroke-linecap: square"/>
   </g>
   <g id="text_17">
    <text style="font: 500 18px &quot;Suisse Int&apos;l&quot;, sans-serif; text-anchor: middle" x="268.175" y="29.2" transform="rotate(-0 268.175 29.2)">Normalized Spatial Density of Cells in a Conical Well : cc-3707</text>
   </g>
   <g id="legend_1">
    <g id="line2d_47">
     <path d="M 486.635 51.575 
L 494.135 51.575 
L 501.635 51.575 
" style="fill: none; stroke: #5088c5; stroke-width: 2.5; stroke-linecap: round"/>
    </g>
    <g id="text_18">
     <text style="font: 15px &quot;Suisse Int&apos;l&quot;, sans-serif; text-anchor: start" x="507.635" y="57.95" transform="rotate(-0 507.635 57.95)">water Average</text>
    </g>
    <g id="line2d_48">
     <path d="M 486.635 74.644531 
L 494.135 74.644531 
L 501.635 74.644531 
" style="fill: none; stroke: #f28360; stroke-width: 2.5; stroke-linecap: round"/>
    </g>
    <g id="text_19">
     <text style="font: 15px &quot;Suisse Int&apos;l&quot;, sans-serif; text-anchor: start" x="507.635" y="81.019531" transform="rotate(-0 507.635 81.019531)">0.1% DMSO Average</text>
    </g>
    <g id="line2d_49">
     <path d="M 486.635 97.714062 
L 494.135 97.714062 
L 501.635 97.714062 
" style="fill: none; stroke: #3b9886; stroke-width: 2.5; stroke-linecap: round"/>
    </g>
    <g id="text_20">
     <text style="font: 15px &quot;Suisse Int&apos;l&quot;, sans-serif; text-anchor: start" x="507.635" y="104.089062" transform="rotate(-0 507.635 104.089062)">50 µM Torin2 Average</text>
    </g>
    <g id="line2d_50">
     <path d="M 486.635 120.783594 
L 494.135 120.783594 
L 501.635 120.783594 
" style="fill: none; stroke: #f7b846; stroke-width: 2.5; stroke-linecap: round"/>
    </g>
    <g id="text_21">
     <text style="font: 15px &quot;Suisse Int&apos;l&quot;, sans-serif; text-anchor: start" x="507.635" y="127.158594" transform="rotate(-0 507.635 127.158594)">50 µM TAK-063 Average</text>
    </g>
    <g id="line2d_51">
     <path d="M 486.635 143.853125 
L 494.135 143.853125 
L 501.635 143.853125 
" style="fill: none; stroke: #7a77ab; stroke-width: 2.5; stroke-linecap: round"/>
    </g>
    <g id="text_22">
     <text style="font: 15px &quot;Suisse Int&apos;l&quot;, sans-serif; text-anchor: start" x="507.635" y="150.228125" transform="rotate(-0 507.635 150.228125)">50 µM Dynarrestin Average</text>
    </g>
    <g id="line2d_52">
     <path d="M 486.635 166.922656 
L 494.135 166.922656 
L 501.635 166.922656 
" style="fill: none; stroke: #f898ae; stroke-width: 2.5; stroke-linecap: round"/>
    </g>
    <g id="text_23">
     <text style="font: 15px &quot;Suisse Int&apos;l&quot;, sans-serif; text-anchor: start" x="507.635" y="173.297656" transform="rotate(-0 507.635 173.297656)">50 µM ATP Average</text>
    </g>
    <g id="line2d_53">
     <path d="M 486.635 189.992187 
L 494.135 189.992187 
L 501.635 189.992187 
" style="fill: none; stroke: #73b5e3; stroke-width: 2.5; stroke-linecap: round"/>
    </g>
    <g id="text_24">
     <text style="font: 15px &quot;Suisse Int&apos;l&quot;, sans-serif; text-anchor: start" x="507.635" y="196.367187" transform="rotate(-0 507.635 196.367187)">50 µM Linsitinib Average</text>
    </g>
    <g id="line2d_54">
     <path d="M 486.635 213.061719 
L 494.135 213.061719 
L 501.635 213.061719 
" style="fill: none; stroke: #ffb984; stroke-width: 2.5; stroke-linecap: round"/>
    </g>
    <g id="text_25">
     <text style="font: 15px &quot;Suisse Int&apos;l&quot;, sans-serif; text-anchor: start" x="507.635" y="219.436719" transform="rotate(-0 507.635 219.436719)">50 µM Ibudilast Average</text>
    </g>
   </g>
  </g>
 </g>
 <defs>
  <clipPath id="p76241b954e">
   <rect x="69.575" y="45.2" width="397.2" height="322.6"/>
  </clipPath>
 </defs>
</svg>
