<?xml version="1.0" encoding="utf-8" standalone="no"?>
<!DOCTYPE svg PUBLIC "-//W3C//DTD SVG 1.1//EN"
  "http://www.w3.org/Graphics/SVG/1.1/DTD/svg11.dtd">
<svg xmlns:xlink="http://www.w3.org/1999/xlink" width="720pt" height="432pt" viewBox="0 0 720 432" xmlns="http://www.w3.org/2000/svg" version="1.1">
 <metadata>
  <rdf:RDF xmlns:dc="http://purl.org/dc/elements/1.1/" xmlns:cc="http://creativecommons.org/ns#" xmlns:rdf="http://www.w3.org/1999/02/22-rdf-syntax-ns#">
   <cc:Work>
    <dc:type rdf:resource="http://purl.org/dc/dcmitype/StillImage"/>
    <dc:date>2024-09-19T15:13:48.165674</dc:date>
    <dc:format>image/svg+xml</dc:format>
    <dc:creator>
     <cc:Agent>
      <dc:title>Matplotlib v3.8.4, https://matplotlib.org/</dc:title>
     </cc:Agent>
    </dc:creator>
   </cc:Work>
  </rdf:RDF>
 </metadata>
 <defs>
  <style type="text/css">*{stroke-linejoin: round; stroke-linecap: butt}</style>
 </defs>
 <g id="figure_1">
  <g id="patch_1">
   <path d="M 0 432 
L 720 432 
L 720 0 
L 0 0 
L 0 432 
z
" style="fill: none"/>
  </g>
  <g id="axes_1">
   <g id="patch_2">
    <path d="M 69.575 367.8 
L 467.9 367.8 
L 467.9 45.2 
L 69.575 45.2 
L 69.575 367.8 
z
" style="fill: none"/>
   </g>
   <g id="matplotlib.axis_1">
    <g id="xtick_1">
     <g id="line2d_1">
      <defs>
       <path id="mcb8b7b9955" d="M 0 0 
L 0 5 
" style="stroke: #000000; stroke-width: 0.75"/>
      </defs>
      <g>
       <use xlink:href="#mcb8b7b9955" x="69.575" y="367.8" style="stroke: #000000; stroke-width: 0.75"/>
      </g>
     </g>
     <g id="text_1">
      <text style="font: 15px &quot;Suisse Int&apos;l&quot;, sans-serif; text-anchor: middle" x="69.575" y="388.675" transform="rotate(-0 69.575 388.675)">0</text>
     </g>
    </g>
    <g id="xtick_2">
     <g id="line2d_2">
      <g>
       <use xlink:href="#mcb8b7b9955" x="120.642308" y="367.8" style="stroke: #000000; stroke-width: 0.75"/>
      </g>
     </g>
     <g id="text_2">
      <text style="font: 15px &quot;Suisse Int&apos;l&quot;, sans-serif; text-anchor: middle" x="120.642308" y="388.675" transform="rotate(-0 120.642308 388.675)">5</text>
     </g>
    </g>
    <g id="xtick_3">
     <g id="line2d_3">
      <g>
       <use xlink:href="#mcb8b7b9955" x="171.709615" y="367.8" style="stroke: #000000; stroke-width: 0.75"/>
      </g>
     </g>
     <g id="text_3">
      <text style="font: 15px &quot;Suisse Int&apos;l&quot;, sans-serif; text-anchor: middle" x="171.709615" y="388.675" transform="rotate(-0 171.709615 388.675)">10</text>
     </g>
    </g>
    <g id="xtick_4">
     <g id="line2d_4">
      <g>
       <use xlink:href="#mcb8b7b9955" x="222.776923" y="367.8" style="stroke: #000000; stroke-width: 0.75"/>
      </g>
     </g>
     <g id="text_4">
      <text style="font: 15px &quot;Suisse Int&apos;l&quot;, sans-serif; text-anchor: middle" x="222.776923" y="388.675" transform="rotate(-0 222.776923 388.675)">15</text>
     </g>
    </g>
    <g id="xtick_5">
     <g id="line2d_5">
      <g>
       <use xlink:href="#mcb8b7b9955" x="273.844231" y="367.8" style="stroke: #000000; stroke-width: 0.75"/>
      </g>
     </g>
     <g id="text_5">
      <text style="font: 15px &quot;Suisse Int&apos;l&quot;, sans-serif; text-anchor: middle" x="273.844231" y="388.675" transform="rotate(-0 273.844231 388.675)">20</text>
     </g>
    </g>
    <g id="xtick_6">
     <g id="line2d_6">
      <g>
       <use xlink:href="#mcb8b7b9955" x="324.911538" y="367.8" style="stroke: #000000; stroke-width: 0.75"/>
      </g>
     </g>
     <g id="text_6">
      <text style="font: 15px &quot;Suisse Int&apos;l&quot;, sans-serif; text-anchor: middle" x="324.911538" y="388.675" transform="rotate(-0 324.911538 388.675)">25</text>
     </g>
    </g>
    <g id="xtick_7">
     <g id="line2d_7">
      <g>
       <use xlink:href="#mcb8b7b9955" x="375.978846" y="367.8" style="stroke: #000000; stroke-width: 0.75"/>
      </g>
     </g>
     <g id="text_7">
      <text style="font: 15px &quot;Suisse Int&apos;l&quot;, sans-serif; text-anchor: middle" x="375.978846" y="388.675" transform="rotate(-0 375.978846 388.675)">30</text>
     </g>
    </g>
    <g id="xtick_8">
     <g id="line2d_8">
      <g>
       <use xlink:href="#mcb8b7b9955" x="427.046154" y="367.8" style="stroke: #000000; stroke-width: 0.75"/>
      </g>
     </g>
     <g id="text_8">
      <text style="font: 15px &quot;Suisse Int&apos;l&quot;, sans-serif; text-anchor: middle" x="427.046154" y="388.675" transform="rotate(-0 427.046154 388.675)">35</text>
     </g>
    </g>
    <g id="text_9">
     <text style="font: 500 15px &quot;Suisse Int&apos;l&quot;, sans-serif; text-anchor: middle" x="268.7375" y="412.175" transform="rotate(-0 268.7375 412.175)">Pixel Position</text>
    </g>
   </g>
   <g id="matplotlib.axis_2">
    <g id="ytick_1">
     <g id="line2d_9">
      <defs>
       <path id="m5217570de6" d="M 0 0 
L -5 0 
" style="stroke: #000000; stroke-width: 0.75"/>
      </defs>
      <g>
       <use xlink:href="#m5217570de6" x="69.575" y="340.674474" style="stroke: #000000; stroke-width: 0.75"/>
      </g>
     </g>
     <g id="text_10">
      <text style="font: 15px &quot;Suisse Int&apos;l&quot;, sans-serif; text-anchor: end" x="59.575" y="346.111974" transform="rotate(-0 59.575 346.111974)">10</text>
     </g>
    </g>
    <g id="ytick_2">
     <g id="line2d_10">
      <g>
       <use xlink:href="#m5217570de6" x="69.575" y="287.392192" style="stroke: #000000; stroke-width: 0.75"/>
      </g>
     </g>
     <g id="text_11">
      <text style="font: 15px &quot;Suisse Int&apos;l&quot;, sans-serif; text-anchor: end" x="59.575" y="292.829692" transform="rotate(-0 59.575 292.829692)">20</text>
     </g>
    </g>
    <g id="ytick_3">
     <g id="line2d_11">
      <g>
       <use xlink:href="#m5217570de6" x="69.575" y="234.10991" style="stroke: #000000; stroke-width: 0.75"/>
      </g>
     </g>
     <g id="text_12">
      <text style="font: 15px &quot;Suisse Int&apos;l&quot;, sans-serif; text-anchor: end" x="59.575" y="239.54741" transform="rotate(-0 59.575 239.54741)">30</text>
     </g>
    </g>
    <g id="ytick_4">
     <g id="line2d_12">
      <g>
       <use xlink:href="#m5217570de6" x="69.575" y="180.827628" style="stroke: #000000; stroke-width: 0.75"/>
      </g>
     </g>
     <g id="text_13">
      <text style="font: 15px &quot;Suisse Int&apos;l&quot;, sans-serif; text-anchor: end" x="59.575" y="186.265128" transform="rotate(-0 59.575 186.265128)">40</text>
     </g>
    </g>
    <g id="ytick_5">
     <g id="line2d_13">
      <g>
       <use xlink:href="#m5217570de6" x="69.575" y="127.545345" style="stroke: #000000; stroke-width: 0.75"/>
      </g>
     </g>
     <g id="text_14">
      <text style="font: 15px &quot;Suisse Int&apos;l&quot;, sans-serif; text-anchor: end" x="59.575" y="132.982845" transform="rotate(-0 59.575 132.982845)">50</text>
     </g>
    </g>
    <g id="ytick_6">
     <g id="line2d_14">
      <g>
       <use xlink:href="#m5217570de6" x="69.575" y="74.263063" style="stroke: #000000; stroke-width: 0.75"/>
      </g>
     </g>
     <g id="text_15">
      <text style="font: 15px &quot;Suisse Int&apos;l&quot;, sans-serif; text-anchor: end" x="59.575" y="79.700563" transform="rotate(-0 59.575 79.700563)">60</text>
     </g>
    </g>
    <g id="text_16">
     <text style="font: 500 15px &quot;Suisse Int&apos;l&quot;, sans-serif; text-anchor: middle" x="27.675" y="206.5" transform="rotate(-90 27.675 206.5)">Relative Cell Density</text>
    </g>
   </g>
   <g id="line2d_15">
    <path d="M 69.575 189.546547 
L 79.788462 189.062162 
L 90.001923 192.937237 
L 100.215385 195.843544 
L 110.428846 192.937237 
L 120.642308 192.937237 
L 130.855769 187.609009 
L 141.069231 180.343243 
L 151.282692 195.359159 
L 161.496154 180.827628 
L 171.709615 184.218318 
L 181.923077 189.062162 
L 192.136538 175.015015 
L 202.35 185.671471 
L 212.563462 180.343243 
L 222.776923 180.827628 
L 232.990385 190.9997 
L 243.203846 190.515315 
L 253.417308 184.702703 
L 263.630769 194.874775 
L 273.844231 200.203003 
L 284.057692 188.577778 
L 294.271154 187.124625 
L 304.484615 187.609009 
L 314.698077 193.421622 
L 324.911538 192.452853 
L 335.125 196.812312 
L 345.338462 204.562462 
L 355.551923 203.593694 
L 365.765385 212.312613 
L 375.978846 220.062763 
L 386.192308 209.406306 
L 396.405769 200.687387 
L 406.619231 185.671471 
L 416.832692 184.218318 
L 427.046154 193.906006 
L 437.259615 223.937838 
L 447.473077 213.765766 
L 457.686538 194.874775 
L 467.9 195.359159 
" clip-path="url(#p46895167b5)" style="fill: none; stroke: #5088c5; stroke-opacity: 0.5; stroke-width: 0.5; stroke-linecap: round"/>
   </g>
   <g id="line2d_16">
    <path d="M 69.575 158.061562 
L 79.788462 150.311411 
L 90.001923 154.186486 
L 100.215385 159.999099 
L 110.428846 147.889489 
L 120.642308 158.061562 
L 130.855769 154.186486 
L 141.069231 159.514715 
L 151.282692 166.78048 
L 161.496154 157.092793 
L 171.709615 152.248949 
L 181.923077 163.38979 
L 192.136538 162.421021 
L 202.35 161.936637 
L 212.563462 168.718018 
L 222.776923 164.358559 
L 232.990385 172.108709 
L 243.203846 175.015015 
L 253.417308 186.64024 
L 263.630769 195.843544 
L 273.844231 206.984384 
L 284.057692 214.734535 
L 294.271154 212.312613 
L 304.484615 217.156456 
L 314.698077 191.968468 
L 324.911538 190.030931 
L 335.125 171.624324 
L 345.338462 158.061562 
L 355.551923 159.514715 
L 365.765385 160.967868 
L 375.978846 153.702102 
L 386.192308 170.655556 
L 396.405769 169.202402 
L 406.619231 157.577177 
L 416.832692 162.905405 
L 427.046154 156.124024 
L 437.259615 152.248949 
L 447.473077 151.764565 
L 457.686538 154.670871 
L 467.9 159.514715 
" clip-path="url(#p46895167b5)" style="fill: none; stroke: #5088c5; stroke-opacity: 0.5; stroke-width: 0.5; stroke-linecap: round"/>
   </g>
   <g id="line2d_17">
    <path d="M 69.575 123.185886 
L 79.788462 120.763964 
L 90.001923 132.389189 
L 100.215385 120.763964 
L 110.428846 133.842342 
L 120.642308 133.842342 
L 130.855769 126.092192 
L 141.069231 134.326727 
L 151.282692 136.264264 
L 161.496154 130.451652 
L 171.709615 131.42042 
L 181.923077 141.108108 
L 192.136538 140.139339 
L 202.35 140.139339 
L 212.563462 145.951952 
L 222.776923 155.155255 
L 232.990385 163.38979 
L 243.203846 183.24955 
L 253.417308 193.906006 
L 263.630769 198.265465 
L 273.844231 209.406306 
L 284.057692 199.718619 
L 294.271154 174.046246 
L 304.484615 162.905405 
L 314.698077 146.920721 
L 324.911538 145.467568 
L 335.125 138.201802 
L 345.338462 132.389189 
L 355.551923 134.326727 
L 365.765385 133.357958 
L 375.978846 139.170571 
L 386.192308 133.842342 
L 396.405769 140.139339 
L 406.619231 137.717417 
L 416.832692 131.904805 
L 427.046154 128.02973 
L 437.259615 120.763964 
L 447.473077 127.545345 
L 457.686538 121.732733 
L 467.9 126.092192 
" clip-path="url(#p46895167b5)" style="fill: none; stroke: #5088c5; stroke-opacity: 0.5; stroke-width: 0.5; stroke-linecap: round"/>
   </g>
   <g id="line2d_18">
    <path d="M 69.575 156.931331 
L 79.788462 153.379179 
L 90.001923 159.837638 
L 100.215385 158.868869 
L 110.428846 158.223023 
L 120.642308 161.613714 
L 130.855769 155.962563 
L 141.069231 158.061562 
L 151.282692 166.134635 
L 161.496154 156.124024 
L 171.709615 155.962563 
L 181.923077 164.52002 
L 192.136538 159.191792 
L 202.35 162.582482 
L 212.563462 165.004404 
L 222.776923 166.78048 
L 232.990385 175.499399 
L 243.203846 182.926627 
L 253.417308 188.416316 
L 263.630769 196.327928 
L 273.844231 205.531231 
L 284.057692 201.01031 
L 294.271154 191.161161 
L 304.484615 189.223624 
L 314.698077 177.436937 
L 324.911538 175.983784 
L 335.125 168.879479 
L 345.338462 165.004404 
L 355.551923 165.811712 
L 365.765385 168.879479 
L 375.978846 170.978478 
L 386.192308 171.301401 
L 396.405769 170.00971 
L 406.619231 160.322022 
L 416.832692 159.676176 
L 427.046154 159.353253 
L 437.259615 165.65025 
L 447.473077 164.358559 
L 457.686538 157.092793 
L 467.9 160.322022 
" clip-path="url(#p46895167b5)" style="fill: none; stroke: #5088c5; stroke-width: 2.5; stroke-linecap: round"/>
   </g>
   <g id="line2d_19">
    <path d="M 69.575 111.560661 
L 79.788462 112.045045 
L 90.001923 108.654354 
L 100.215385 114.466967 
L 110.428846 119.795195 
L 120.642308 111.560661 
L 130.855769 110.107508 
L 141.069231 119.310811 
L 151.282692 115.92012 
L 161.496154 116.404505 
L 171.709615 112.045045 
L 181.923077 103.326126 
L 192.136538 104.779279 
L 202.35 115.435736 
L 212.563462 118.342042 
L 222.776923 132.873574 
L 232.990385 142.076877 
L 243.203846 161.936637 
L 253.417308 168.718018 
L 263.630769 180.343243 
L 273.844231 182.765165 
L 284.057692 181.312012 
L 294.271154 172.593093 
L 304.484615 155.155255 
L 314.698077 148.858258 
L 324.911538 135.295495 
L 335.125 123.185886 
L 345.338462 120.27958 
L 355.551923 116.888889 
L 365.765385 107.201201 
L 375.978846 116.404505 
L 386.192308 107.685586 
L 396.405769 110.591892 
L 406.619231 108.654354 
L 416.832692 108.16997 
L 427.046154 106.232432 
L 437.259615 108.654354 
L 447.473077 109.138739 
L 457.686538 116.888889 
L 467.9 109.138739 
" clip-path="url(#p46895167b5)" style="fill: none; stroke: #f28360; stroke-opacity: 0.5; stroke-width: 0.5; stroke-linecap: round"/>
   </g>
   <g id="line2d_20">
    <path d="M 69.575 84.91952 
L 79.788462 90.247748 
L 90.001923 90.732132 
L 100.215385 90.247748 
L 110.428846 89.763363 
L 120.642308 96.544745 
L 130.855769 86.857057 
L 141.069231 96.06036 
L 151.282692 103.810511 
L 161.496154 94.122823 
L 171.709615 102.841742 
L 181.923077 98.966667 
L 192.136538 105.748048 
L 202.35 122.217117 
L 212.563462 132.389189 
L 222.776923 152.248949 
L 232.990385 172.593093 
L 243.203846 181.796396 
L 253.417308 180.343243 
L 263.630769 187.124625 
L 273.844231 188.577778 
L 284.057692 160.483483 
L 294.271154 147.889489 
L 304.484615 117.373273 
L 314.698077 109.623123 
L 324.911538 105.748048 
L 335.125 97.997898 
L 345.338462 102.357357 
L 355.551923 98.482282 
L 365.765385 92.66967 
L 375.978846 97.029129 
L 386.192308 94.122823 
L 396.405769 95.091592 
L 406.619231 88.31021 
L 416.832692 96.06036 
L 427.046154 86.857057 
L 437.259615 88.794595 
L 447.473077 78.138138 
L 457.686538 91.700901 
L 467.9 78.622523 
" clip-path="url(#p46895167b5)" style="fill: none; stroke: #f28360; stroke-opacity: 0.5; stroke-width: 0.5; stroke-linecap: round"/>
   </g>
   <g id="line2d_21">
    <path d="M 69.575 83.950751 
L 79.788462 88.794595 
L 90.001923 85.403904 
L 100.215385 82.013213 
L 110.428846 87.825826 
L 120.642308 91.216517 
L 130.855769 87.825826 
L 141.069231 85.403904 
L 151.282692 97.029129 
L 161.496154 97.997898 
L 171.709615 84.435135 
L 181.923077 94.607207 
L 192.136538 92.66967 
L 202.35 113.013814 
L 212.563462 107.685586 
L 222.776923 117.857658 
L 232.990385 134.811111 
L 243.203846 147.889489 
L 253.417308 161.452252 
L 263.630769 177.921321 
L 273.844231 195.843544 
L 284.057692 181.796396 
L 294.271154 186.155856 
L 304.484615 162.905405 
L 314.698077 144.014414 
L 324.911538 128.514114 
L 335.125 114.951351 
L 345.338462 112.045045 
L 355.551923 109.623123 
L 365.765385 96.544745 
L 375.978846 112.529429 
L 386.192308 97.513514 
L 396.405769 91.700901 
L 406.619231 97.029129 
L 416.832692 83.466366 
L 427.046154 101.872973 
L 437.259615 89.763363 
L 447.473077 94.122823 
L 457.686538 87.825826 
L 467.9 85.403904 
" clip-path="url(#p46895167b5)" style="fill: none; stroke: #f28360; stroke-opacity: 0.5; stroke-width: 0.5; stroke-linecap: round"/>
   </g>
   <g id="line2d_22">
    <path d="M 69.575 93.476977 
L 79.788462 97.029129 
L 90.001923 94.93013 
L 100.215385 95.575976 
L 110.428846 99.128128 
L 120.642308 99.773974 
L 130.855769 94.93013 
L 141.069231 100.258358 
L 151.282692 105.586587 
L 161.496154 102.841742 
L 171.709615 99.773974 
L 181.923077 98.966667 
L 192.136538 101.065666 
L 202.35 116.888889 
L 212.563462 119.472272 
L 222.776923 134.326727 
L 232.990385 149.827027 
L 243.203846 163.874174 
L 253.417308 170.171171 
L 263.630769 181.796396 
L 273.844231 189.062162 
L 284.057692 174.530631 
L 294.271154 168.879479 
L 304.484615 145.144645 
L 314.698077 134.165265 
L 324.911538 123.185886 
L 335.125 112.045045 
L 345.338462 111.560661 
L 355.551923 108.331431 
L 365.765385 98.805205 
L 375.978846 108.654354 
L 386.192308 99.773974 
L 396.405769 99.128128 
L 406.619231 97.997898 
L 416.832692 95.898899 
L 427.046154 98.320821 
L 437.259615 95.737437 
L 447.473077 93.7999 
L 457.686538 98.805205 
L 467.9 91.055055 
" clip-path="url(#p46895167b5)" style="fill: none; stroke: #f28360; stroke-width: 2.5; stroke-linecap: round"/>
   </g>
   <g id="line2d_23">
    <path d="M 69.575 115.92012 
L 79.788462 103.326126 
L 90.001923 115.92012 
L 100.215385 113.982583 
L 110.428846 116.888889 
L 120.642308 120.27958 
L 130.855769 111.560661 
L 141.069231 110.591892 
L 151.282692 113.498198 
L 161.496154 117.373273 
L 171.709615 109.623123 
L 181.923077 109.138739 
L 192.136538 114.951351 
L 202.35 123.185886 
L 212.563462 111.560661 
L 222.776923 120.763964 
L 232.990385 109.623123 
L 243.203846 119.795195 
L 253.417308 116.404505 
L 263.630769 132.873574 
L 273.844231 135.77988 
L 284.057692 133.357958 
L 294.271154 132.873574 
L 304.484615 129.967267 
L 314.698077 134.811111 
L 324.911538 128.02973 
L 335.125 124.154655 
L 345.338462 124.154655 
L 355.551923 122.217117 
L 365.765385 120.763964 
L 375.978846 130.451652 
L 386.192308 121.732733 
L 396.405769 117.857658 
L 406.619231 125.607808 
L 416.832692 122.701502 
L 427.046154 122.701502 
L 437.259615 121.248348 
L 447.473077 126.092192 
L 457.686538 112.045045 
L 467.9 120.27958 
" clip-path="url(#p46895167b5)" style="fill: none; stroke: #3b9886; stroke-opacity: 0.5; stroke-width: 0.5; stroke-linecap: round"/>
   </g>
   <g id="line2d_24">
    <path d="M 69.575 107.201201 
L 79.788462 111.560661 
L 90.001923 116.888889 
L 100.215385 110.107508 
L 110.428846 113.982583 
L 120.642308 118.342042 
L 130.855769 118.826426 
L 141.069231 123.185886 
L 151.282692 123.185886 
L 161.496154 119.795195 
L 171.709615 127.060961 
L 181.923077 116.888889 
L 192.136538 118.342042 
L 202.35 125.607808 
L 212.563462 117.373273 
L 222.776923 116.888889 
L 232.990385 121.732733 
L 243.203846 132.389189 
L 253.417308 130.936036 
L 263.630769 142.561261 
L 273.844231 148.373874 
L 284.057692 146.436336 
L 294.271154 139.654955 
L 304.484615 136.748649 
L 314.698077 133.357958 
L 324.911538 123.67027 
L 335.125 135.295495 
L 345.338462 127.060961 
L 355.551923 129.967267 
L 365.765385 130.936036 
L 375.978846 125.123423 
L 386.192308 119.310811 
L 396.405769 124.154655 
L 406.619231 119.795195 
L 416.832692 116.404505 
L 427.046154 120.27958 
L 437.259615 113.013814 
L 447.473077 117.373273 
L 457.686538 109.138739 
L 467.9 110.591892 
" clip-path="url(#p46895167b5)" style="fill: none; stroke: #3b9886; stroke-opacity: 0.5; stroke-width: 0.5; stroke-linecap: round"/>
   </g>
   <g id="line2d_25">
    <path d="M 69.575 106.716817 
L 79.788462 112.529429 
L 90.001923 116.404505 
L 100.215385 111.560661 
L 110.428846 109.623123 
L 120.642308 117.373273 
L 130.855769 104.779279 
L 141.069231 102.357357 
L 151.282692 103.326126 
L 161.496154 106.232432 
L 171.709615 115.92012 
L 181.923077 108.654354 
L 192.136538 107.685586 
L 202.35 120.27958 
L 212.563462 120.763964 
L 222.776923 121.732733 
L 232.990385 116.404505 
L 243.203846 138.686186 
L 253.417308 128.998498 
L 263.630769 136.748649 
L 273.844231 144.014414 
L 284.057692 133.842342 
L 294.271154 136.264264 
L 304.484615 130.451652 
L 314.698077 135.295495 
L 324.911538 124.639039 
L 335.125 137.717417 
L 345.338462 121.248348 
L 355.551923 127.545345 
L 365.765385 118.342042 
L 375.978846 122.701502 
L 386.192308 100.41982 
L 396.405769 97.997898 
L 406.619231 95.575976 
L 416.832692 102.841742 
L 427.046154 103.810511 
L 437.259615 117.857658 
L 447.473077 110.591892 
L 457.686538 114.466967 
L 467.9 114.466967 
" clip-path="url(#p46895167b5)" style="fill: none; stroke: #3b9886; stroke-opacity: 0.5; stroke-width: 0.5; stroke-linecap: round"/>
   </g>
   <g id="line2d_26">
    <path d="M 69.575 109.946046 
L 79.788462 109.138739 
L 90.001923 116.404505 
L 100.215385 111.883584 
L 110.428846 113.498198 
L 120.642308 118.664965 
L 130.855769 111.722122 
L 141.069231 112.045045 
L 151.282692 113.336737 
L 161.496154 114.466967 
L 171.709615 117.534735 
L 181.923077 111.560661 
L 192.136538 113.65966 
L 202.35 123.024424 
L 212.563462 116.565966 
L 222.776923 119.795195 
L 232.990385 115.92012 
L 243.203846 130.29019 
L 253.417308 125.446346 
L 263.630769 137.394494 
L 273.844231 142.722723 
L 284.057692 137.878879 
L 294.271154 136.264264 
L 304.484615 132.389189 
L 314.698077 134.488188 
L 324.911538 125.446346 
L 335.125 132.389189 
L 345.338462 124.154655 
L 355.551923 126.576577 
L 365.765385 123.347347 
L 375.978846 126.092192 
L 386.192308 113.821121 
L 396.405769 113.336737 
L 406.619231 113.65966 
L 416.832692 113.982583 
L 427.046154 115.597197 
L 437.259615 117.373273 
L 447.473077 118.019119 
L 457.686538 111.883584 
L 467.9 115.112813 
" clip-path="url(#p46895167b5)" style="fill: none; stroke: #3b9886; stroke-width: 2.5; stroke-linecap: round"/>
   </g>
   <g id="line2d_27">
    <path d="M 69.575 145.467568 
L 79.788462 145.467568 
L 90.001923 145.467568 
L 100.215385 146.920721 
L 110.428846 146.920721 
L 120.642308 144.983183 
L 130.855769 150.795796 
L 141.069231 141.108108 
L 151.282692 138.201802 
L 161.496154 148.373874 
L 171.709615 147.889489 
L 181.923077 151.28018 
L 192.136538 150.795796 
L 202.35 166.78048 
L 212.563462 166.78048 
L 222.776923 181.796396 
L 232.990385 203.593694 
L 243.203846 224.422222 
L 253.417308 232.656757 
L 263.630769 246.21952 
L 273.844231 248.157057 
L 284.057692 236.531832 
L 294.271154 223.453453 
L 304.484615 199.718619 
L 314.698077 183.733934 
L 324.911538 175.015015 
L 335.125 163.874174 
L 345.338462 162.421021 
L 355.551923 160.967868 
L 365.765385 159.999099 
L 375.978846 153.702102 
L 386.192308 157.577177 
L 396.405769 149.827027 
L 406.619231 154.186486 
L 416.832692 146.920721 
L 427.046154 140.623724 
L 437.259615 153.217718 
L 447.473077 145.951952 
L 457.686538 142.561261 
L 467.9 143.53003 
" clip-path="url(#p46895167b5)" style="fill: none; stroke: #f7b846; stroke-opacity: 0.5; stroke-width: 0.5; stroke-linecap: round"/>
   </g>
   <g id="line2d_28">
    <path d="M 69.575 164.842943 
L 79.788462 169.202402 
L 90.001923 157.577177 
L 100.215385 160.483483 
L 110.428846 166.78048 
L 120.642308 169.202402 
L 130.855769 161.452252 
L 141.069231 173.077477 
L 151.282692 171.13994 
L 161.496154 152.248949 
L 171.709615 159.999099 
L 181.923077 163.874174 
L 192.136538 166.78048 
L 202.35 161.452252 
L 212.563462 182.765165 
L 222.776923 201.656156 
L 232.990385 212.312613 
L 243.203846 229.75045 
L 253.417308 244.281982 
L 263.630769 256.391592 
L 273.844231 260.266667 
L 284.057692 253.96967 
L 294.271154 248.641441 
L 304.484615 228.781682 
L 314.698077 217.640841 
L 324.911538 210.859459 
L 335.125 190.515315 
L 345.338462 186.64024 
L 355.551923 181.796396 
L 365.765385 167.264865 
L 375.978846 177.921321 
L 386.192308 166.296096 
L 396.405769 166.78048 
L 406.619231 170.171171 
L 416.832692 169.202402 
L 427.046154 166.78048 
L 437.259615 166.296096 
L 447.473077 165.811712 
L 457.686538 164.358559 
L 467.9 159.03033 
" clip-path="url(#p46895167b5)" style="fill: none; stroke: #f7b846; stroke-opacity: 0.5; stroke-width: 0.5; stroke-linecap: round"/>
   </g>
   <g id="line2d_29">
    <path d="M 69.575 181.796396 
L 79.788462 184.702703 
L 90.001923 185.187087 
L 100.215385 176.952553 
L 110.428846 189.546547 
L 120.642308 186.155856 
L 130.855769 183.24955 
L 141.069231 185.187087 
L 151.282692 179.858859 
L 161.496154 181.796396 
L 171.709615 191.968468 
L 181.923077 190.515315 
L 192.136538 206.015616 
L 202.35 237.016216 
L 212.563462 241.375676 
L 222.776923 254.454054 
L 232.990385 275.282583 
L 243.203846 279.157658 
L 253.417308 288.845345 
L 263.630769 292.72042 
L 273.844231 270.923123 
L 284.057692 259.782282 
L 294.271154 240.891291 
L 304.484615 217.640841 
L 314.698077 208.437538 
L 324.911538 203.109309 
L 335.125 203.593694 
L 345.338462 199.718619 
L 355.551923 192.937237 
L 365.765385 192.452853 
L 375.978846 192.937237 
L 386.192308 179.374474 
L 396.405769 197.296697 
L 406.619231 184.702703 
L 416.832692 186.155856 
L 427.046154 176.952553 
L 437.259615 178.89009 
L 447.473077 184.702703 
L 457.686538 172.108709 
L 467.9 187.124625 
" clip-path="url(#p46895167b5)" style="fill: none; stroke: #f7b846; stroke-opacity: 0.5; stroke-width: 0.5; stroke-linecap: round"/>
   </g>
   <g id="line2d_30">
    <path d="M 69.575 164.035636 
L 79.788462 166.457558 
L 90.001923 162.743944 
L 100.215385 161.452252 
L 110.428846 167.749249 
L 120.642308 166.78048 
L 130.855769 165.165866 
L 141.069231 166.457558 
L 151.282692 163.066867 
L 161.496154 160.806406 
L 171.709615 166.619019 
L 181.923077 168.556557 
L 192.136538 174.530631 
L 202.35 188.416316 
L 212.563462 196.973774 
L 222.776923 212.635536 
L 232.990385 230.396296 
L 243.203846 244.443443 
L 253.417308 255.261361 
L 263.630769 265.110511 
L 273.844231 259.782282 
L 284.057692 250.094595 
L 294.271154 237.662062 
L 304.484615 215.38038 
L 314.698077 203.270771 
L 324.911538 196.327928 
L 335.125 185.994394 
L 345.338462 182.926627 
L 355.551923 178.567167 
L 365.765385 173.238939 
L 375.978846 174.853554 
L 386.192308 167.749249 
L 396.405769 171.301401 
L 406.619231 169.686787 
L 416.832692 167.426326 
L 427.046154 161.452252 
L 437.259615 166.134635 
L 447.473077 165.488789 
L 457.686538 159.676176 
L 467.9 163.228328 
" clip-path="url(#p46895167b5)" style="fill: none; stroke: #f7b846; stroke-width: 2.5; stroke-linecap: round"/>
   </g>
   <g id="line2d_31">
    <path d="M 69.575 195.359159 
L 79.788462 184.702703 
L 90.001923 190.9997 
L 100.215385 190.515315 
L 110.428846 191.484084 
L 120.642308 183.733934 
L 130.855769 180.343243 
L 141.069231 179.374474 
L 151.282692 171.624324 
L 161.496154 175.983784 
L 171.709615 181.796396 
L 181.923077 177.436937 
L 192.136538 181.312012 
L 202.35 172.108709 
L 212.563462 175.499399 
L 222.776923 174.046246 
L 232.990385 179.858859 
L 243.203846 178.89009 
L 253.417308 175.499399 
L 263.630769 179.858859 
L 273.844231 187.124625 
L 284.057692 179.858859 
L 294.271154 181.796396 
L 304.484615 175.983784 
L 314.698077 186.64024 
L 324.911538 179.374474 
L 335.125 171.13994 
L 345.338462 185.187087 
L 355.551923 181.796396 
L 365.765385 192.452853 
L 375.978846 199.234234 
L 386.192308 197.781081 
L 396.405769 204.078078 
L 406.619231 205.531231 
L 416.832692 191.968468 
L 427.046154 186.155856 
L 437.259615 178.405706 
L 447.473077 183.733934 
L 457.686538 205.046847 
L 467.9 196.327928 
" clip-path="url(#p46895167b5)" style="fill: none; stroke: #7a77ab; stroke-opacity: 0.5; stroke-width: 0.5; stroke-linecap: round"/>
   </g>
   <g id="line2d_32">
    <path d="M 69.575 147.405105 
L 79.788462 141.108108 
L 90.001923 142.561261 
L 100.215385 148.373874 
L 110.428846 146.920721 
L 120.642308 153.217718 
L 130.855769 147.889489 
L 141.069231 154.670871 
L 151.282692 157.092793 
L 161.496154 147.889489 
L 171.709615 148.858258 
L 181.923077 156.124024 
L 192.136538 156.124024 
L 202.35 152.248949 
L 212.563462 155.63964 
L 222.776923 152.248949 
L 232.990385 169.686787 
L 243.203846 159.03033 
L 253.417308 167.749249 
L 263.630769 184.702703 
L 273.844231 197.296697 
L 284.057692 200.203003 
L 294.271154 195.843544 
L 304.484615 179.858859 
L 314.698077 173.561862 
L 324.911538 154.670871 
L 335.125 149.342643 
L 345.338462 144.983183 
L 355.551923 149.827027 
L 365.765385 137.233033 
L 375.978846 143.53003 
L 386.192308 167.264865 
L 396.405769 162.421021 
L 406.619231 155.63964 
L 416.832692 161.936637 
L 427.046154 158.545946 
L 437.259615 163.874174 
L 447.473077 155.155255 
L 457.686538 150.795796 
L 467.9 149.827027 
" clip-path="url(#p46895167b5)" style="fill: none; stroke: #7a77ab; stroke-opacity: 0.5; stroke-width: 0.5; stroke-linecap: round"/>
   </g>
   <g id="line2d_33">
    <path d="M 69.575 116.888889 
L 79.788462 127.545345 
L 90.001923 126.092192 
L 100.215385 120.763964 
L 110.428846 125.607808 
L 120.642308 121.732733 
L 130.855769 123.185886 
L 141.069231 126.576577 
L 151.282692 122.217117 
L 161.496154 130.451652 
L 171.709615 121.248348 
L 181.923077 130.936036 
L 192.136538 128.514114 
L 202.35 133.842342 
L 212.563462 131.42042 
L 222.776923 141.592492 
L 232.990385 139.654955 
L 243.203846 161.936637 
L 253.417308 172.593093 
L 263.630769 181.796396 
L 273.844231 183.24955 
L 284.057692 173.561862 
L 294.271154 167.264865 
L 304.484615 150.795796 
L 314.698077 143.53003 
L 324.911538 129.967267 
L 335.125 122.217117 
L 345.338462 124.154655 
L 355.551923 122.217117 
L 365.765385 128.514114 
L 375.978846 117.857658 
L 386.192308 120.763964 
L 396.405769 133.842342 
L 406.619231 129.967267 
L 416.832692 128.998498 
L 427.046154 122.217117 
L 437.259615 118.342042 
L 447.473077 123.185886 
L 457.686538 115.92012 
L 467.9 115.92012 
" clip-path="url(#p46895167b5)" style="fill: none; stroke: #7a77ab; stroke-opacity: 0.5; stroke-width: 0.5; stroke-linecap: round"/>
   </g>
   <g id="line2d_34">
    <path d="M 69.575 153.217718 
L 79.788462 151.118719 
L 90.001923 153.217718 
L 100.215385 153.217718 
L 110.428846 154.670871 
L 120.642308 152.894795 
L 130.855769 150.472873 
L 141.069231 153.540641 
L 151.282692 150.311411 
L 161.496154 151.441642 
L 171.709615 150.634334 
L 181.923077 154.832332 
L 192.136538 155.316717 
L 202.35 152.733333 
L 212.563462 154.186486 
L 222.776923 155.962563 
L 232.990385 163.066867 
L 243.203846 166.619019 
L 253.417308 171.947247 
L 263.630769 182.119319 
L 273.844231 189.223624 
L 284.057692 184.541241 
L 294.271154 181.634935 
L 304.484615 168.879479 
L 314.698077 167.910711 
L 324.911538 154.670871 
L 335.125 147.566567 
L 345.338462 151.441642 
L 355.551923 151.28018 
L 365.765385 152.733333 
L 375.978846 153.540641 
L 386.192308 161.936637 
L 396.405769 166.78048 
L 406.619231 163.712713 
L 416.832692 160.967868 
L 427.046154 155.63964 
L 437.259615 153.540641 
L 447.473077 154.025025 
L 457.686538 157.254254 
L 467.9 154.025025 
" clip-path="url(#p46895167b5)" style="fill: none; stroke: #7a77ab; stroke-width: 2.5; stroke-linecap: round"/>
   </g>
   <g id="line2d_35">
    <path d="M 69.575 102.357357 
L 79.788462 98.966667 
L 90.001923 100.904204 
L 100.215385 103.326126 
L 110.428846 103.810511 
L 120.642308 96.544745 
L 130.855769 94.122823 
L 141.069231 101.872973 
L 151.282692 87.825826 
L 161.496154 98.966667 
L 171.709615 91.216517 
L 181.923077 98.966667 
L 192.136538 89.763363 
L 202.35 87.825826 
L 212.563462 99.935435 
L 222.776923 101.388589 
L 232.990385 122.701502 
L 243.203846 131.904805 
L 253.417308 143.045646 
L 263.630769 168.233634 
L 273.844231 175.015015 
L 284.057692 173.077477 
L 294.271154 157.092793 
L 304.484615 141.108108 
L 314.698077 117.373273 
L 324.911538 118.342042 
L 335.125 104.294895 
L 345.338462 99.935435 
L 355.551923 93.638438 
L 365.765385 89.763363 
L 375.978846 87.341441 
L 386.192308 91.700901 
L 396.405769 93.638438 
L 406.619231 89.763363 
L 416.832692 88.31021 
L 427.046154 100.904204 
L 437.259615 99.451051 
L 447.473077 93.154054 
L 457.686538 104.779279 
L 467.9 101.388589 
" clip-path="url(#p46895167b5)" style="fill: none; stroke: #f898ae; stroke-opacity: 0.5; stroke-width: 0.5; stroke-linecap: round"/>
   </g>
   <g id="line2d_36">
    <path d="M 69.575 73.294294 
L 79.788462 86.857057 
L 90.001923 82.013213 
L 100.215385 82.013213 
L 110.428846 81.528829 
L 120.642308 81.528829 
L 130.855769 91.700901 
L 141.069231 92.66967 
L 151.282692 84.91952 
L 161.496154 84.91952 
L 171.709615 92.185285 
L 181.923077 97.997898 
L 192.136538 91.700901 
L 202.35 95.575976 
L 212.563462 105.748048 
L 222.776923 104.779279 
L 232.990385 113.982583 
L 243.203846 124.639039 
L 253.417308 137.233033 
L 263.630769 159.03033 
L 273.844231 173.561862 
L 284.057692 169.686787 
L 294.271154 164.842943 
L 304.484615 151.764565 
L 314.698077 126.092192 
L 324.911538 122.217117 
L 335.125 104.294895 
L 345.338462 96.544745 
L 355.551923 105.263664 
L 365.765385 96.544745 
L 375.978846 96.544745 
L 386.192308 86.857057 
L 396.405769 95.575976 
L 406.619231 96.544745 
L 416.832692 88.794595 
L 427.046154 85.403904 
L 437.259615 102.841742 
L 447.473077 90.247748 
L 457.686538 73.294294 
L 467.9 74.747447 
" clip-path="url(#p46895167b5)" style="fill: none; stroke: #f898ae; stroke-opacity: 0.5; stroke-width: 0.5; stroke-linecap: round"/>
   </g>
   <g id="line2d_37">
    <path d="M 69.575 82.013213 
L 79.788462 98.482282 
L 90.001923 89.763363 
L 100.215385 91.700901 
L 110.428846 86.857057 
L 120.642308 79.106907 
L 130.855769 83.466366 
L 141.069231 82.981982 
L 151.282692 94.122823 
L 161.496154 86.372673 
L 171.709615 93.638438 
L 181.923077 89.763363 
L 192.136538 85.888288 
L 202.35 95.091592 
L 212.563462 97.513514 
L 222.776923 105.263664 
L 232.990385 119.795195 
L 243.203846 140.139339 
L 253.417308 158.061562 
L 263.630769 173.077477 
L 273.844231 177.436937 
L 284.057692 161.936637 
L 294.271154 145.467568 
L 304.484615 126.092192 
L 314.698077 123.185886 
L 324.911538 112.045045 
L 335.125 106.716817 
L 345.338462 96.06036 
L 355.551923 98.966667 
L 365.765385 96.06036 
L 375.978846 95.575976 
L 386.192308 95.575976 
L 396.405769 88.31021 
L 406.619231 93.638438 
L 416.832692 92.66967 
L 427.046154 86.372673 
L 437.259615 92.66967 
L 447.473077 82.981982 
L 457.686538 88.794595 
L 467.9 83.466366 
" clip-path="url(#p46895167b5)" style="fill: none; stroke: #f898ae; stroke-opacity: 0.5; stroke-width: 0.5; stroke-linecap: round"/>
   </g>
   <g id="line2d_38">
    <path d="M 69.575 85.888288 
L 79.788462 94.768669 
L 90.001923 90.893594 
L 100.215385 92.346747 
L 110.428846 90.732132 
L 120.642308 85.726827 
L 130.855769 89.763363 
L 141.069231 92.508208 
L 151.282692 88.956056 
L 161.496154 90.086286 
L 171.709615 92.346747 
L 181.923077 95.575976 
L 192.136538 89.117518 
L 202.35 92.831131 
L 212.563462 101.065666 
L 222.776923 103.810511 
L 232.990385 118.826426 
L 243.203846 132.227728 
L 253.417308 146.113413 
L 263.630769 166.78048 
L 273.844231 175.337938 
L 284.057692 168.233634 
L 294.271154 155.801101 
L 304.484615 139.654955 
L 314.698077 122.217117 
L 324.911538 117.534735 
L 335.125 105.102202 
L 345.338462 97.513514 
L 355.551923 99.28959 
L 365.765385 94.122823 
L 375.978846 93.154054 
L 386.192308 91.377978 
L 396.405769 92.508208 
L 406.619231 93.315516 
L 416.832692 89.924825 
L 427.046154 90.893594 
L 437.259615 98.320821 
L 447.473077 88.794595 
L 457.686538 88.956056 
L 467.9 86.534134 
" clip-path="url(#p46895167b5)" style="fill: none; stroke: #f898ae; stroke-width: 2.5; stroke-linecap: round"/>
   </g>
   <g id="line2d_39">
    <path d="M 69.575 78.622523 
L 79.788462 88.31021 
L 90.001923 90.732132 
L 100.215385 97.513514 
L 110.428846 106.232432 
L 120.642308 108.16997 
L 130.855769 117.857658 
L 141.069231 126.576577 
L 151.282692 147.405105 
L 161.496154 177.436937 
L 171.709615 204.562462 
L 181.923077 231.687988 
L 192.136538 261.71982 
L 202.35 283.032733 
L 212.563462 308.705105 
L 222.776923 325.658559 
L 232.990385 334.861862 
L 243.203846 345.033934 
L 253.417308 343.096396 
L 263.630769 338.252553 
L 273.844231 346.487087 
L 284.057692 342.612012 
L 294.271154 335.346246 
L 304.484615 321.783483 
L 314.698077 305.314414 
L 324.911538 282.548348 
L 335.125 255.907207 
L 345.338462 224.422222 
L 355.551923 196.327928 
L 365.765385 161.452252 
L 375.978846 140.139339 
L 386.192308 131.42042 
L 396.405769 117.857658 
L 406.619231 108.654354 
L 416.832692 98.482282 
L 427.046154 93.638438 
L 437.259615 91.216517 
L 447.473077 69.903604 
L 457.686538 86.372673 
L 467.9 85.888288 
" clip-path="url(#p46895167b5)" style="fill: none; stroke: #73b5e3; stroke-opacity: 0.5; stroke-width: 0.5; stroke-linecap: round"/>
   </g>
   <g id="line2d_40">
    <path d="M 69.575 86.372673 
L 79.788462 85.888288 
L 90.001923 82.497598 
L 100.215385 73.778679 
L 110.428846 92.185285 
L 120.642308 87.341441 
L 130.855769 105.748048 
L 141.069231 102.841742 
L 151.282692 116.888889 
L 161.496154 120.27958 
L 171.709615 141.592492 
L 181.923077 171.624324 
L 192.136538 202.624925 
L 202.35 222.0003 
L 212.563462 255.422823 
L 222.776923 277.704505 
L 232.990385 307.736336 
L 243.203846 327.596096 
L 253.417308 341.643243 
L 263.630769 346.487087 
L 273.844231 352.784084 
L 284.057692 352.2997 
L 294.271154 350.362162 
L 304.484615 347.455856 
L 314.698077 339.705706 
L 324.911538 331.955556 
L 335.125 314.033333 
L 345.338462 288.360961 
L 355.551923 261.235435 
L 365.765385 230.234835 
L 375.978846 189.546547 
L 386.192308 159.03033 
L 396.405769 146.920721 
L 406.619231 123.185886 
L 416.832692 129.482883 
L 427.046154 105.263664 
L 437.259615 104.294895 
L 447.473077 102.841742 
L 457.686538 92.66967 
L 467.9 89.278979 
" clip-path="url(#p46895167b5)" style="fill: none; stroke: #73b5e3; stroke-opacity: 0.5; stroke-width: 0.5; stroke-linecap: round"/>
   </g>
   <g id="line2d_41">
    <path d="M 69.575 88.31021 
L 79.788462 77.653754 
L 90.001923 73.778679 
L 100.215385 77.169369 
L 110.428846 83.466366 
L 120.642308 87.825826 
L 130.855769 99.451051 
L 141.069231 98.966667 
L 151.282692 116.404505 
L 161.496154 139.654955 
L 171.709615 159.999099 
L 181.923077 198.74985 
L 192.136538 237.984985 
L 202.35 267.532432 
L 212.563462 285.939039 
L 222.776923 317.424024 
L 232.990385 331.955556 
L 243.203846 341.158859 
L 253.417308 346.971471 
L 263.630769 353.268468 
L 273.844231 356.174775 
L 284.057692 349.393393 
L 294.271154 351.330931 
L 304.484615 347.455856 
L 314.698077 332.924324 
L 324.911538 315.486486 
L 335.125 301.923724 
L 345.338462 268.016817 
L 355.551923 242.344444 
L 365.765385 196.812312 
L 375.978846 166.78048 
L 386.192308 139.170571 
L 396.405769 111.560661 
L 406.619231 94.122823 
L 416.832692 74.747447 
L 427.046154 45.2 
L 437.259615 66.997297 
L 447.473077 68.934835 
L 457.686538 66.512913 
L 467.9 65.544144 
" clip-path="url(#p46895167b5)" style="fill: none; stroke: #73b5e3; stroke-opacity: 0.5; stroke-width: 0.5; stroke-linecap: round"/>
   </g>
   <g id="line2d_42">
    <path d="M 69.575 84.435135 
L 79.788462 83.950751 
L 90.001923 82.336136 
L 100.215385 82.820521 
L 110.428846 93.961361 
L 120.642308 94.445746 
L 130.855769 107.685586 
L 141.069231 109.461662 
L 151.282692 126.899499 
L 161.496154 145.79049 
L 171.709615 168.718018 
L 181.923077 200.687387 
L 192.136538 234.10991 
L 202.35 257.521822 
L 212.563462 283.355656 
L 222.776923 306.929029 
L 232.990385 324.851251 
L 243.203846 337.92963 
L 253.417308 343.903704 
L 263.630769 346.002703 
L 273.844231 351.815315 
L 284.057692 348.101702 
L 294.271154 345.67978 
L 304.484615 338.898398 
L 314.698077 325.981481 
L 324.911538 309.996797 
L 335.125 290.621421 
L 345.338462 260.266667 
L 355.551923 233.302603 
L 365.765385 196.166466 
L 375.978846 165.488789 
L 386.192308 143.207107 
L 396.405769 125.446346 
L 406.619231 108.654354 
L 416.832692 100.904204 
L 427.046154 81.367367 
L 437.259615 87.502903 
L 447.473077 80.56006 
L 457.686538 81.851752 
L 467.9 80.237137 
" clip-path="url(#p46895167b5)" style="fill: none; stroke: #73b5e3; stroke-width: 2.5; stroke-linecap: round"/>
   </g>
   <g id="line2d_43">
    <path d="M 69.575 179.374474 
L 79.788462 173.561862 
L 90.001923 160.967868 
L 100.215385 165.327327 
L 110.428846 162.421021 
L 120.642308 162.905405 
L 130.855769 172.593093 
L 141.069231 174.530631 
L 151.282692 172.108709 
L 161.496154 174.530631 
L 171.709615 180.343243 
L 181.923077 200.203003 
L 192.136538 219.093994 
L 202.35 248.157057 
L 212.563462 275.766967 
L 222.776923 299.501802 
L 232.990385 319.845946 
L 243.203846 321.783483 
L 253.417308 334.861862 
L 263.630769 341.158859 
L 273.844231 341.643243 
L 284.057692 337.768168 
L 294.271154 327.596096 
L 304.484615 324.68979 
L 314.698077 307.251952 
L 324.911538 284.97027 
L 335.125 253.485285 
L 345.338462 238.469369 
L 355.551923 210.859459 
L 365.765385 206.5 
L 375.978846 201.171772 
L 386.192308 193.421622 
L 396.405769 194.39039 
L 406.619231 185.187087 
L 416.832692 177.921321 
L 427.046154 180.343243 
L 437.259615 175.983784 
L 447.473077 181.796396 
L 457.686538 182.765165 
L 467.9 177.921321 
" clip-path="url(#p46895167b5)" style="fill: none; stroke: #ffb984; stroke-opacity: 0.5; stroke-width: 0.5; stroke-linecap: round"/>
   </g>
   <g id="line2d_44">
    <path d="M 69.575 192.452853 
L 79.788462 207.953153 
L 90.001923 194.39039 
L 100.215385 201.171772 
L 110.428846 194.874775 
L 120.642308 191.484084 
L 130.855769 195.843544 
L 141.069231 196.812312 
L 151.282692 190.9997 
L 161.496154 191.484084 
L 171.709615 197.781081 
L 181.923077 202.624925 
L 192.136538 215.703303 
L 202.35 234.594294 
L 212.563462 255.907207 
L 222.776923 278.673273 
L 232.990385 301.439339 
L 243.203846 314.033333 
L 253.417308 319.361562 
L 263.630769 324.205405 
L 273.844231 333.893093 
L 284.057692 328.564865 
L 294.271154 317.908408 
L 304.484615 298.533033 
L 314.698077 286.907808 
L 324.911538 263.172973 
L 335.125 246.703904 
L 345.338462 234.594294 
L 355.551923 223.453453 
L 365.765385 224.422222 
L 375.978846 222.484685 
L 386.192308 212.796997 
L 396.405769 203.593694 
L 406.619231 200.687387 
L 416.832692 199.234234 
L 427.046154 189.062162 
L 437.259615 202.140541 
L 447.473077 197.296697 
L 457.686538 194.874775 
L 467.9 199.718619 
" clip-path="url(#p46895167b5)" style="fill: none; stroke: #ffb984; stroke-opacity: 0.5; stroke-width: 0.5; stroke-linecap: round"/>
   </g>
   <g id="line2d_45">
    <path d="M 69.575 226.844144 
L 79.788462 219.093994 
L 90.001923 223.453453 
L 100.215385 219.093994 
L 110.428846 216.672072 
L 120.642308 218.60961 
L 130.855769 214.25015 
L 141.069231 210.375075 
L 151.282692 212.796997 
L 161.496154 223.937838 
L 171.709615 235.563063 
L 181.923077 236.531832 
L 192.136538 239.922523 
L 202.35 261.71982 
L 212.563462 273.829429 
L 222.776923 287.392192 
L 232.990385 304.345646 
L 243.203846 310.642643 
L 253.417308 313.064565 
L 263.630769 307.251952 
L 273.844231 310.158258 
L 284.057692 297.564264 
L 294.271154 288.360961 
L 304.484615 268.501201 
L 314.698077 260.266667 
L 324.911538 251.063363 
L 335.125 247.188288 
L 345.338462 241.375676 
L 355.551923 236.047447 
L 365.765385 238.469369 
L 375.978846 237.500601 
L 386.192308 236.531832 
L 396.405769 231.203604 
L 406.619231 232.656757 
L 416.832692 231.203604 
L 427.046154 222.0003 
L 437.259615 226.844144 
L 447.473077 224.422222 
L 457.686538 223.937838 
L 467.9 214.25015 
" clip-path="url(#p46895167b5)" style="fill: none; stroke: #ffb984; stroke-opacity: 0.5; stroke-width: 0.5; stroke-linecap: round"/>
   </g>
   <g id="line2d_46">
    <path d="M 69.575 199.557157 
L 79.788462 200.203003 
L 90.001923 192.937237 
L 100.215385 195.197698 
L 110.428846 191.322623 
L 120.642308 190.9997 
L 130.855769 194.228929 
L 141.069231 193.906006 
L 151.282692 191.968468 
L 161.496154 196.650851 
L 171.709615 204.562462 
L 181.923077 213.11992 
L 192.136538 224.906607 
L 202.35 248.157057 
L 212.563462 268.501201 
L 222.776923 288.522422 
L 232.990385 308.543644 
L 243.203846 315.486486 
L 253.417308 322.429329 
L 263.630769 324.205405 
L 273.844231 328.564865 
L 284.057692 321.299099 
L 294.271154 311.288488 
L 304.484615 297.241341 
L 314.698077 284.808809 
L 324.911538 266.402202 
L 335.125 249.125826 
L 345.338462 238.146446 
L 355.551923 223.453453 
L 365.765385 223.130531 
L 375.978846 220.385686 
L 386.192308 214.25015 
L 396.405769 209.729229 
L 406.619231 206.177077 
L 416.832692 202.786386 
L 427.046154 197.135235 
L 437.259615 201.656156 
L 447.473077 201.171772 
L 457.686538 200.525926 
L 467.9 197.296697 
" clip-path="url(#p46895167b5)" style="fill: none; stroke: #ffb984; stroke-width: 2.5; stroke-linecap: round"/>
   </g>
   <g id="patch_3">
    <path d="M 69.575 367.8 
L 69.575 45.2 
" style="fill: none; stroke: #000000; stroke-width: 0.75; stroke-linejoin: miter; stroke-linecap: square"/>
   </g>
   <g id="patch_4">
    <path d="M 69.575 367.8 
L 467.9 367.8 
" style="fill: none; stroke: #000000; stroke-width: 0.75; stroke-linejoin: miter; stroke-linecap: square"/>
   </g>
   <g id="text_17">
    <text style="font: 500 18px &quot;Suisse Int&apos;l&quot;, sans-serif; text-anchor: middle" x="268.7375" y="29.2" transform="rotate(-0 268.7375 29.2)">Normalized Spatial Density of Cells in a Conical Well : CC-2670</text>
   </g>
   <g id="legend_1">
    <g id="line2d_47">
     <path d="M 487.81625 51.575 
L 495.31625 51.575 
L 502.81625 51.575 
" style="fill: none; stroke: #5088c5; stroke-width: 2.5; stroke-linecap: round"/>
    </g>
    <g id="text_18">
     <text style="font: 15px &quot;Suisse Int&apos;l&quot;, sans-serif; text-anchor: start" x="508.81625" y="57.95" transform="rotate(-0 508.81625 57.95)">water Average</text>
    </g>
    <g id="line2d_48">
     <path d="M 487.81625 74.644531 
L 495.31625 74.644531 
L 502.81625 74.644531 
" style="fill: none; stroke: #f28360; stroke-width: 2.5; stroke-linecap: round"/>
    </g>
    <g id="text_19">
     <text style="font: 15px &quot;Suisse Int&apos;l&quot;, sans-serif; text-anchor: start" x="508.81625" y="81.019531" transform="rotate(-0 508.81625 81.019531)">0.1% DMSO Average</text>
    </g>
    <g id="line2d_49">
     <path d="M 487.81625 97.714062 
L 495.31625 97.714062 
L 502.81625 97.714062 
" style="fill: none; stroke: #3b9886; stroke-width: 2.5; stroke-linecap: round"/>
    </g>
    <g id="text_20">
     <text style="font: 15px &quot;Suisse Int&apos;l&quot;, sans-serif; text-anchor: start" x="508.81625" y="104.089062" transform="rotate(-0 508.81625 104.089062)">50 µM Torin2 Average</text>
    </g>
    <g id="line2d_50">
     <path d="M 487.81625 120.783594 
L 495.31625 120.783594 
L 502.81625 120.783594 
" style="fill: none; stroke: #f7b846; stroke-width: 2.5; stroke-linecap: round"/>
    </g>
    <g id="text_21">
     <text style="font: 15px &quot;Suisse Int&apos;l&quot;, sans-serif; text-anchor: start" x="508.81625" y="127.158594" transform="rotate(-0 508.81625 127.158594)">50 µM TAK-063 Average</text>
    </g>
    <g id="line2d_51">
     <path d="M 487.81625 143.853125 
L 495.31625 143.853125 
L 502.81625 143.853125 
" style="fill: none; stroke: #7a77ab; stroke-width: 2.5; stroke-linecap: round"/>
    </g>
    <g id="text_22">
     <text style="font: 15px &quot;Suisse Int&apos;l&quot;, sans-serif; text-anchor: start" x="508.81625" y="150.228125" transform="rotate(-0 508.81625 150.228125)">50 µM Dynarrestin Average</text>
    </g>
    <g id="line2d_52">
     <path d="M 487.81625 166.922656 
L 495.31625 166.922656 
L 502.81625 166.922656 
" style="fill: none; stroke: #f898ae; stroke-width: 2.5; stroke-linecap: round"/>
    </g>
    <g id="text_23">
     <text style="font: 15px &quot;Suisse Int&apos;l&quot;, sans-serif; text-anchor: start" x="508.81625" y="173.297656" transform="rotate(-0 508.81625 173.297656)">50 µM ATP Average</text>
    </g>
    <g id="line2d_53">
     <path d="M 487.81625 189.992187 
L 495.31625 189.992187 
L 502.81625 189.992187 
" style="fill: none; stroke: #73b5e3; stroke-width: 2.5; stroke-linecap: round"/>
    </g>
    <g id="text_24">
     <text style="font: 15px &quot;Suisse Int&apos;l&quot;, sans-serif; text-anchor: start" x="508.81625" y="196.367187" transform="rotate(-0 508.81625 196.367187)">50 µM Linsitinib Average</text>
    </g>
    <g id="line2d_54">
     <path d="M 487.81625 213.061719 
L 495.31625 213.061719 
L 502.81625 213.061719 
" style="fill: none; stroke: #ffb984; stroke-width: 2.5; stroke-linecap: round"/>
    </g>
    <g id="text_25">
     <text style="font: 15px &quot;Suisse Int&apos;l&quot;, sans-serif; text-anchor: start" x="508.81625" y="219.436719" transform="rotate(-0 508.81625 219.436719)">50 µM Ibudilast Average</text>
    </g>
   </g>
  </g>
 </g>
 <defs>
  <clipPath id="p46895167b5">
   <rect x="69.575" y="45.2" width="398.325" height="322.6"/>
  </clipPath>
 </defs>
</svg>
