<?xml version="1.0" encoding="utf-8" standalone="no"?>
<!DOCTYPE svg PUBLIC "-//W3C//DTD SVG 1.1//EN"
  "http://www.w3.org/Graphics/SVG/1.1/DTD/svg11.dtd">
<svg xmlns:xlink="http://www.w3.org/1999/xlink" width="720pt" height="432pt" viewBox="0 0 720 432" xmlns="http://www.w3.org/2000/svg" version="1.1">
 <metadata>
  <rdf:RDF xmlns:dc="http://purl.org/dc/elements/1.1/" xmlns:cc="http://creativecommons.org/ns#" xmlns:rdf="http://www.w3.org/1999/02/22-rdf-syntax-ns#">
   <cc:Work>
    <dc:type rdf:resource="http://purl.org/dc/dcmitype/StillImage"/>
    <dc:date>2024-09-11T16:11:02.890762</dc:date>
    <dc:format>image/svg+xml</dc:format>
    <dc:creator>
     <cc:Agent>
      <dc:title>Matplotlib v3.9.2, https://matplotlib.org/</dc:title>
     </cc:Agent>
    </dc:creator>
   </cc:Work>
  </rdf:RDF>
 </metadata>
 <defs>
  <style type="text/css">*{stroke-linejoin: round; stroke-linecap: butt}</style>
 </defs>
 <g id="figure_1">
  <g id="patch_1">
   <path d="M 0 432 
L 720 432 
L 720 0 
L 0 0 
L 0 432 
z
" style="fill: none"/>
  </g>
  <g id="axes_1">
   <g id="patch_2">
    <path d="M 69.575 367.8 
L 466.775 367.8 
L 466.775 45.2 
L 69.575 45.2 
L 69.575 367.8 
z
" style="fill: none"/>
   </g>
   <g id="matplotlib.axis_1">
    <g id="xtick_1">
     <g id="line2d_1">
      <defs>
       <path id="m86f0feb4d2" d="M 0 0 
L 0 5 
" style="stroke: #000000; stroke-width: 0.75"/>
      </defs>
      <g>
       <use xlink:href="#m86f0feb4d2" x="69.575" y="367.8" style="stroke: #000000; stroke-width: 0.75"/>
      </g>
     </g>
     <g id="text_1">
      <text style="font: 15px &quot;Suisse Int&apos;l&quot;, sans-serif; text-anchor: middle" x="69.575" y="388.675" transform="rotate(-0 69.575 388.675)">0</text>
     </g>
    </g>
    <g id="xtick_2">
     <g id="line2d_2">
      <g>
       <use xlink:href="#m86f0feb4d2" x="120.498077" y="367.8" style="stroke: #000000; stroke-width: 0.75"/>
      </g>
     </g>
     <g id="text_2">
      <text style="font: 15px &quot;Suisse Int&apos;l&quot;, sans-serif; text-anchor: middle" x="120.498077" y="388.675" transform="rotate(-0 120.498077 388.675)">5</text>
     </g>
    </g>
    <g id="xtick_3">
     <g id="line2d_3">
      <g>
       <use xlink:href="#m86f0feb4d2" x="171.421154" y="367.8" style="stroke: #000000; stroke-width: 0.75"/>
      </g>
     </g>
     <g id="text_3">
      <text style="font: 15px &quot;Suisse Int&apos;l&quot;, sans-serif; text-anchor: middle" x="171.421154" y="388.675" transform="rotate(-0 171.421154 388.675)">10</text>
     </g>
    </g>
    <g id="xtick_4">
     <g id="line2d_4">
      <g>
       <use xlink:href="#m86f0feb4d2" x="222.344231" y="367.8" style="stroke: #000000; stroke-width: 0.75"/>
      </g>
     </g>
     <g id="text_4">
      <text style="font: 15px &quot;Suisse Int&apos;l&quot;, sans-serif; text-anchor: middle" x="222.344231" y="388.675" transform="rotate(-0 222.344231 388.675)">15</text>
     </g>
    </g>
    <g id="xtick_5">
     <g id="line2d_5">
      <g>
       <use xlink:href="#m86f0feb4d2" x="273.267308" y="367.8" style="stroke: #000000; stroke-width: 0.75"/>
      </g>
     </g>
     <g id="text_5">
      <text style="font: 15px &quot;Suisse Int&apos;l&quot;, sans-serif; text-anchor: middle" x="273.267308" y="388.675" transform="rotate(-0 273.267308 388.675)">20</text>
     </g>
    </g>
    <g id="xtick_6">
     <g id="line2d_6">
      <g>
       <use xlink:href="#m86f0feb4d2" x="324.190385" y="367.8" style="stroke: #000000; stroke-width: 0.75"/>
      </g>
     </g>
     <g id="text_6">
      <text style="font: 15px &quot;Suisse Int&apos;l&quot;, sans-serif; text-anchor: middle" x="324.190385" y="388.675" transform="rotate(-0 324.190385 388.675)">25</text>
     </g>
    </g>
    <g id="xtick_7">
     <g id="line2d_7">
      <g>
       <use xlink:href="#m86f0feb4d2" x="375.113462" y="367.8" style="stroke: #000000; stroke-width: 0.75"/>
      </g>
     </g>
     <g id="text_7">
      <text style="font: 15px &quot;Suisse Int&apos;l&quot;, sans-serif; text-anchor: middle" x="375.113462" y="388.675" transform="rotate(-0 375.113462 388.675)">30</text>
     </g>
    </g>
    <g id="xtick_8">
     <g id="line2d_8">
      <g>
       <use xlink:href="#m86f0feb4d2" x="426.036538" y="367.8" style="stroke: #000000; stroke-width: 0.75"/>
      </g>
     </g>
     <g id="text_8">
      <text style="font: 15px &quot;Suisse Int&apos;l&quot;, sans-serif; text-anchor: middle" x="426.036538" y="388.675" transform="rotate(-0 426.036538 388.675)">35</text>
     </g>
    </g>
    <g id="text_9">
     <text style="font: 500 15px &quot;Suisse Int&apos;l&quot;, sans-serif; text-anchor: middle" x="268.175" y="412.175" transform="rotate(-0 268.175 412.175)">Pixel Position</text>
    </g>
   </g>
   <g id="matplotlib.axis_2">
    <g id="ytick_1">
     <g id="line2d_9">
      <defs>
       <path id="m9e41fef1d2" d="M 0 0 
L -5 0 
" style="stroke: #000000; stroke-width: 0.75"/>
      </defs>
      <g>
       <use xlink:href="#m9e41fef1d2" x="69.575" y="340.674474" style="stroke: #000000; stroke-width: 0.75"/>
      </g>
     </g>
     <g id="text_10">
      <text style="font: 15px &quot;Suisse Int&apos;l&quot;, sans-serif; text-anchor: end" x="59.575" y="346.111974" transform="rotate(-0 59.575 346.111974)">10</text>
     </g>
    </g>
    <g id="ytick_2">
     <g id="line2d_10">
      <g>
       <use xlink:href="#m9e41fef1d2" x="69.575" y="287.392192" style="stroke: #000000; stroke-width: 0.75"/>
      </g>
     </g>
     <g id="text_11">
      <text style="font: 15px &quot;Suisse Int&apos;l&quot;, sans-serif; text-anchor: end" x="59.575" y="292.829692" transform="rotate(-0 59.575 292.829692)">20</text>
     </g>
    </g>
    <g id="ytick_3">
     <g id="line2d_11">
      <g>
       <use xlink:href="#m9e41fef1d2" x="69.575" y="234.10991" style="stroke: #000000; stroke-width: 0.75"/>
      </g>
     </g>
     <g id="text_12">
      <text style="font: 15px &quot;Suisse Int&apos;l&quot;, sans-serif; text-anchor: end" x="59.575" y="239.54741" transform="rotate(-0 59.575 239.54741)">30</text>
     </g>
    </g>
    <g id="ytick_4">
     <g id="line2d_12">
      <g>
       <use xlink:href="#m9e41fef1d2" x="69.575" y="180.827628" style="stroke: #000000; stroke-width: 0.75"/>
      </g>
     </g>
     <g id="text_13">
      <text style="font: 15px &quot;Suisse Int&apos;l&quot;, sans-serif; text-anchor: end" x="59.575" y="186.265128" transform="rotate(-0 59.575 186.265128)">40</text>
     </g>
    </g>
    <g id="ytick_5">
     <g id="line2d_13">
      <g>
       <use xlink:href="#m9e41fef1d2" x="69.575" y="127.545345" style="stroke: #000000; stroke-width: 0.75"/>
      </g>
     </g>
     <g id="text_14">
      <text style="font: 15px &quot;Suisse Int&apos;l&quot;, sans-serif; text-anchor: end" x="59.575" y="132.982845" transform="rotate(-0 59.575 132.982845)">50</text>
     </g>
    </g>
    <g id="ytick_6">
     <g id="line2d_14">
      <g>
       <use xlink:href="#m9e41fef1d2" x="69.575" y="74.263063" style="stroke: #000000; stroke-width: 0.75"/>
      </g>
     </g>
     <g id="text_15">
      <text style="font: 15px &quot;Suisse Int&apos;l&quot;, sans-serif; text-anchor: end" x="59.575" y="79.700563" transform="rotate(-0 59.575 79.700563)">60</text>
     </g>
    </g>
    <g id="text_16">
     <text style="font: 500 15px &quot;Suisse Int&apos;l&quot;, sans-serif; text-anchor: middle" x="27.675" y="206.5" transform="rotate(-90 27.675 206.5)">Relative Cell Density</text>
    </g>
   </g>
   <g id="line2d_15">
    <path d="M 69.575 189.546547 
L 79.759615 189.062162 
L 89.944231 192.937237 
L 100.128846 195.843544 
L 110.313462 192.937237 
L 120.498077 192.937237 
L 130.682692 187.609009 
L 140.867308 180.343243 
L 151.051923 195.359159 
L 161.236538 180.827628 
L 171.421154 184.218318 
L 181.605769 189.062162 
L 191.790385 175.015015 
L 201.975 185.671471 
L 212.159615 180.343243 
L 222.344231 180.827628 
L 232.528846 190.9997 
L 242.713462 190.515315 
L 252.898077 184.702703 
L 263.082692 194.874775 
L 273.267308 200.203003 
L 283.451923 188.577778 
L 293.636538 187.124625 
L 303.821154 187.609009 
L 314.005769 193.421622 
L 324.190385 192.452853 
L 334.375 196.812312 
L 344.559615 204.562462 
L 354.744231 203.593694 
L 364.928846 212.312613 
L 375.113462 220.062763 
L 385.298077 209.406306 
L 395.482692 200.687387 
L 405.667308 185.671471 
L 415.851923 184.218318 
L 426.036538 193.906006 
L 436.221154 223.937838 
L 446.405769 213.765766 
L 456.590385 194.874775 
L 466.775 195.359159 
" clip-path="url(#pf74aca1373)" style="fill: none; stroke: #5088c5; stroke-opacity: 0.5; stroke-width: 0.5; stroke-linecap: round"/>
   </g>
   <g id="line2d_16">
    <path d="M 69.575 158.061562 
L 79.759615 150.311411 
L 89.944231 154.186486 
L 100.128846 159.999099 
L 110.313462 147.889489 
L 120.498077 158.061562 
L 130.682692 154.186486 
L 140.867308 159.514715 
L 151.051923 166.78048 
L 161.236538 157.092793 
L 171.421154 152.248949 
L 181.605769 163.38979 
L 191.790385 162.421021 
L 201.975 161.936637 
L 212.159615 168.718018 
L 222.344231 164.358559 
L 232.528846 172.108709 
L 242.713462 175.015015 
L 252.898077 186.64024 
L 263.082692 195.843544 
L 273.267308 206.984384 
L 283.451923 214.734535 
L 293.636538 212.312613 
L 303.821154 217.156456 
L 314.005769 191.968468 
L 324.190385 190.030931 
L 334.375 171.624324 
L 344.559615 158.061562 
L 354.744231 159.514715 
L 364.928846 160.967868 
L 375.113462 153.702102 
L 385.298077 170.655556 
L 395.482692 169.202402 
L 405.667308 157.577177 
L 415.851923 162.905405 
L 426.036538 156.124024 
L 436.221154 152.248949 
L 446.405769 151.764565 
L 456.590385 154.670871 
L 466.775 159.514715 
" clip-path="url(#pf74aca1373)" style="fill: none; stroke: #5088c5; stroke-opacity: 0.5; stroke-width: 0.5; stroke-linecap: round"/>
   </g>
   <g id="line2d_17">
    <path d="M 69.575 123.185886 
L 79.759615 120.763964 
L 89.944231 132.389189 
L 100.128846 120.763964 
L 110.313462 133.842342 
L 120.498077 133.842342 
L 130.682692 126.092192 
L 140.867308 134.326727 
L 151.051923 136.264264 
L 161.236538 130.451652 
L 171.421154 131.42042 
L 181.605769 141.108108 
L 191.790385 140.139339 
L 201.975 140.139339 
L 212.159615 145.951952 
L 222.344231 155.155255 
L 232.528846 163.38979 
L 242.713462 183.24955 
L 252.898077 193.906006 
L 263.082692 198.265465 
L 273.267308 209.406306 
L 283.451923 199.718619 
L 293.636538 174.046246 
L 303.821154 162.905405 
L 314.005769 146.920721 
L 324.190385 145.467568 
L 334.375 138.201802 
L 344.559615 132.389189 
L 354.744231 134.326727 
L 364.928846 133.357958 
L 375.113462 139.170571 
L 385.298077 133.842342 
L 395.482692 140.139339 
L 405.667308 137.717417 
L 415.851923 131.904805 
L 426.036538 128.02973 
L 436.221154 120.763964 
L 446.405769 127.545345 
L 456.590385 121.732733 
L 466.775 126.092192 
" clip-path="url(#pf74aca1373)" style="fill: none; stroke: #5088c5; stroke-opacity: 0.5; stroke-width: 0.5; stroke-linecap: round"/>
   </g>
   <g id="line2d_18">
    <path d="M 69.575 156.931331 
L 79.759615 153.379179 
L 89.944231 159.837638 
L 100.128846 158.868869 
L 110.313462 158.223023 
L 120.498077 161.613714 
L 130.682692 155.962563 
L 140.867308 158.061562 
L 151.051923 166.134635 
L 161.236538 156.124024 
L 171.421154 155.962563 
L 181.605769 164.52002 
L 191.790385 159.191792 
L 201.975 162.582482 
L 212.159615 165.004404 
L 222.344231 166.78048 
L 232.528846 175.499399 
L 242.713462 182.926627 
L 252.898077 188.416316 
L 263.082692 196.327928 
L 273.267308 205.531231 
L 283.451923 201.01031 
L 293.636538 191.161161 
L 303.821154 189.223624 
L 314.005769 177.436937 
L 324.190385 175.983784 
L 334.375 168.879479 
L 344.559615 165.004404 
L 354.744231 165.811712 
L 364.928846 168.879479 
L 375.113462 170.978478 
L 385.298077 171.301401 
L 395.482692 170.00971 
L 405.667308 160.322022 
L 415.851923 159.676176 
L 426.036538 159.353253 
L 436.221154 165.65025 
L 446.405769 164.358559 
L 456.590385 157.092793 
L 466.775 160.322022 
" clip-path="url(#pf74aca1373)" style="fill: none; stroke: #5088c5; stroke-width: 2.5; stroke-linecap: round"/>
   </g>
   <g id="line2d_19">
    <path d="M 69.575 111.560661 
L 79.759615 112.045045 
L 89.944231 108.654354 
L 100.128846 114.466967 
L 110.313462 119.795195 
L 120.498077 111.560661 
L 130.682692 110.107508 
L 140.867308 119.310811 
L 151.051923 115.92012 
L 161.236538 116.404505 
L 171.421154 112.045045 
L 181.605769 103.326126 
L 191.790385 104.779279 
L 201.975 115.435736 
L 212.159615 118.342042 
L 222.344231 132.873574 
L 232.528846 142.076877 
L 242.713462 161.936637 
L 252.898077 168.718018 
L 263.082692 180.343243 
L 273.267308 182.765165 
L 283.451923 181.312012 
L 293.636538 172.593093 
L 303.821154 155.155255 
L 314.005769 148.858258 
L 324.190385 135.295495 
L 334.375 123.185886 
L 344.559615 120.27958 
L 354.744231 116.888889 
L 364.928846 107.201201 
L 375.113462 116.404505 
L 385.298077 107.685586 
L 395.482692 110.591892 
L 405.667308 108.654354 
L 415.851923 108.16997 
L 426.036538 106.232432 
L 436.221154 108.654354 
L 446.405769 109.138739 
L 456.590385 116.888889 
L 466.775 109.138739 
" clip-path="url(#pf74aca1373)" style="fill: none; stroke: #f28360; stroke-opacity: 0.5; stroke-width: 0.5; stroke-linecap: round"/>
   </g>
   <g id="line2d_20">
    <path d="M 69.575 84.91952 
L 79.759615 90.247748 
L 89.944231 90.732132 
L 100.128846 90.247748 
L 110.313462 89.763363 
L 120.498077 96.544745 
L 130.682692 86.857057 
L 140.867308 96.06036 
L 151.051923 103.810511 
L 161.236538 94.122823 
L 171.421154 102.841742 
L 181.605769 98.966667 
L 191.790385 105.748048 
L 201.975 122.217117 
L 212.159615 132.389189 
L 222.344231 152.248949 
L 232.528846 172.593093 
L 242.713462 181.796396 
L 252.898077 180.343243 
L 263.082692 187.124625 
L 273.267308 188.577778 
L 283.451923 160.483483 
L 293.636538 147.889489 
L 303.821154 117.373273 
L 314.005769 109.623123 
L 324.190385 105.748048 
L 334.375 97.997898 
L 344.559615 102.357357 
L 354.744231 98.482282 
L 364.928846 92.66967 
L 375.113462 97.029129 
L 385.298077 94.122823 
L 395.482692 95.091592 
L 405.667308 88.31021 
L 415.851923 96.06036 
L 426.036538 86.857057 
L 436.221154 88.794595 
L 446.405769 78.138138 
L 456.590385 91.700901 
L 466.775 78.622523 
" clip-path="url(#pf74aca1373)" style="fill: none; stroke: #f28360; stroke-opacity: 0.5; stroke-width: 0.5; stroke-linecap: round"/>
   </g>
   <g id="line2d_21">
    <path d="M 69.575 83.950751 
L 79.759615 88.794595 
L 89.944231 85.403904 
L 100.128846 82.013213 
L 110.313462 87.825826 
L 120.498077 91.216517 
L 130.682692 87.825826 
L 140.867308 85.403904 
L 151.051923 97.029129 
L 161.236538 97.997898 
L 171.421154 84.435135 
L 181.605769 94.607207 
L 191.790385 92.66967 
L 201.975 113.013814 
L 212.159615 107.685586 
L 222.344231 117.857658 
L 232.528846 134.811111 
L 242.713462 147.889489 
L 252.898077 161.452252 
L 263.082692 177.921321 
L 273.267308 195.843544 
L 283.451923 181.796396 
L 293.636538 186.155856 
L 303.821154 162.905405 
L 314.005769 144.014414 
L 324.190385 128.514114 
L 334.375 114.951351 
L 344.559615 112.045045 
L 354.744231 109.623123 
L 364.928846 96.544745 
L 375.113462 112.529429 
L 385.298077 97.513514 
L 395.482692 91.700901 
L 405.667308 97.029129 
L 415.851923 83.466366 
L 426.036538 101.872973 
L 436.221154 89.763363 
L 446.405769 94.122823 
L 456.590385 87.825826 
L 466.775 85.403904 
" clip-path="url(#pf74aca1373)" style="fill: none; stroke: #f28360; stroke-opacity: 0.5; stroke-width: 0.5; stroke-linecap: round"/>
   </g>
   <g id="line2d_22">
    <path d="M 69.575 93.476977 
L 79.759615 97.029129 
L 89.944231 94.93013 
L 100.128846 95.575976 
L 110.313462 99.128128 
L 120.498077 99.773974 
L 130.682692 94.93013 
L 140.867308 100.258358 
L 151.051923 105.586587 
L 161.236538 102.841742 
L 171.421154 99.773974 
L 181.605769 98.966667 
L 191.790385 101.065666 
L 201.975 116.888889 
L 212.159615 119.472272 
L 222.344231 134.326727 
L 232.528846 149.827027 
L 242.713462 163.874174 
L 252.898077 170.171171 
L 263.082692 181.796396 
L 273.267308 189.062162 
L 283.451923 174.530631 
L 293.636538 168.879479 
L 303.821154 145.144645 
L 314.005769 134.165265 
L 324.190385 123.185886 
L 334.375 112.045045 
L 344.559615 111.560661 
L 354.744231 108.331431 
L 364.928846 98.805205 
L 375.113462 108.654354 
L 385.298077 99.773974 
L 395.482692 99.128128 
L 405.667308 97.997898 
L 415.851923 95.898899 
L 426.036538 98.320821 
L 436.221154 95.737437 
L 446.405769 93.7999 
L 456.590385 98.805205 
L 466.775 91.055055 
" clip-path="url(#pf74aca1373)" style="fill: none; stroke: #f28360; stroke-width: 2.5; stroke-linecap: round"/>
   </g>
   <g id="line2d_23">
    <path d="M 69.575 115.92012 
L 79.759615 103.326126 
L 89.944231 115.92012 
L 100.128846 113.982583 
L 110.313462 116.888889 
L 120.498077 120.27958 
L 130.682692 111.560661 
L 140.867308 110.591892 
L 151.051923 113.498198 
L 161.236538 117.373273 
L 171.421154 109.623123 
L 181.605769 109.138739 
L 191.790385 114.951351 
L 201.975 123.185886 
L 212.159615 111.560661 
L 222.344231 120.763964 
L 232.528846 109.623123 
L 242.713462 119.795195 
L 252.898077 116.404505 
L 263.082692 132.873574 
L 273.267308 135.77988 
L 283.451923 133.357958 
L 293.636538 132.873574 
L 303.821154 129.967267 
L 314.005769 134.811111 
L 324.190385 128.02973 
L 334.375 124.154655 
L 344.559615 124.154655 
L 354.744231 122.217117 
L 364.928846 120.763964 
L 375.113462 130.451652 
L 385.298077 121.732733 
L 395.482692 117.857658 
L 405.667308 125.607808 
L 415.851923 122.701502 
L 426.036538 122.701502 
L 436.221154 121.248348 
L 446.405769 126.092192 
L 456.590385 112.045045 
L 466.775 120.27958 
" clip-path="url(#pf74aca1373)" style="fill: none; stroke: #3b9886; stroke-opacity: 0.5; stroke-width: 0.5; stroke-linecap: round"/>
   </g>
   <g id="line2d_24">
    <path d="M 69.575 107.201201 
L 79.759615 111.560661 
L 89.944231 116.888889 
L 100.128846 110.107508 
L 110.313462 113.982583 
L 120.498077 118.342042 
L 130.682692 118.826426 
L 140.867308 123.185886 
L 151.051923 123.185886 
L 161.236538 119.795195 
L 171.421154 127.060961 
L 181.605769 116.888889 
L 191.790385 118.342042 
L 201.975 125.607808 
L 212.159615 117.373273 
L 222.344231 116.888889 
L 232.528846 121.732733 
L 242.713462 132.389189 
L 252.898077 130.936036 
L 263.082692 142.561261 
L 273.267308 148.373874 
L 283.451923 146.436336 
L 293.636538 139.654955 
L 303.821154 136.748649 
L 314.005769 133.357958 
L 324.190385 123.67027 
L 334.375 135.295495 
L 344.559615 127.060961 
L 354.744231 129.967267 
L 364.928846 130.936036 
L 375.113462 125.123423 
L 385.298077 119.310811 
L 395.482692 124.154655 
L 405.667308 119.795195 
L 415.851923 116.404505 
L 426.036538 120.27958 
L 436.221154 113.013814 
L 446.405769 117.373273 
L 456.590385 109.138739 
L 466.775 110.591892 
" clip-path="url(#pf74aca1373)" style="fill: none; stroke: #3b9886; stroke-opacity: 0.5; stroke-width: 0.5; stroke-linecap: round"/>
   </g>
   <g id="line2d_25">
    <path d="M 69.575 106.716817 
L 79.759615 112.529429 
L 89.944231 116.404505 
L 100.128846 111.560661 
L 110.313462 109.623123 
L 120.498077 117.373273 
L 130.682692 104.779279 
L 140.867308 102.357357 
L 151.051923 103.326126 
L 161.236538 106.232432 
L 171.421154 115.92012 
L 181.605769 108.654354 
L 191.790385 107.685586 
L 201.975 120.27958 
L 212.159615 120.763964 
L 222.344231 121.732733 
L 232.528846 116.404505 
L 242.713462 138.686186 
L 252.898077 128.998498 
L 263.082692 136.748649 
L 273.267308 144.014414 
L 283.451923 133.842342 
L 293.636538 136.264264 
L 303.821154 130.451652 
L 314.005769 135.295495 
L 324.190385 124.639039 
L 334.375 137.717417 
L 344.559615 121.248348 
L 354.744231 127.545345 
L 364.928846 118.342042 
L 375.113462 122.701502 
L 385.298077 100.41982 
L 395.482692 97.997898 
L 405.667308 95.575976 
L 415.851923 102.841742 
L 426.036538 103.810511 
L 436.221154 117.857658 
L 446.405769 110.591892 
L 456.590385 114.466967 
L 466.775 114.466967 
" clip-path="url(#pf74aca1373)" style="fill: none; stroke: #3b9886; stroke-opacity: 0.5; stroke-width: 0.5; stroke-linecap: round"/>
   </g>
   <g id="line2d_26">
    <path d="M 69.575 109.946046 
L 79.759615 109.138739 
L 89.944231 116.404505 
L 100.128846 111.883584 
L 110.313462 113.498198 
L 120.498077 118.664965 
L 130.682692 111.722122 
L 140.867308 112.045045 
L 151.051923 113.336737 
L 161.236538 114.466967 
L 171.421154 117.534735 
L 181.605769 111.560661 
L 191.790385 113.65966 
L 201.975 123.024424 
L 212.159615 116.565966 
L 222.344231 119.795195 
L 232.528846 115.92012 
L 242.713462 130.29019 
L 252.898077 125.446346 
L 263.082692 137.394494 
L 273.267308 142.722723 
L 283.451923 137.878879 
L 293.636538 136.264264 
L 303.821154 132.389189 
L 314.005769 134.488188 
L 324.190385 125.446346 
L 334.375 132.389189 
L 344.559615 124.154655 
L 354.744231 126.576577 
L 364.928846 123.347347 
L 375.113462 126.092192 
L 385.298077 113.821121 
L 395.482692 113.336737 
L 405.667308 113.65966 
L 415.851923 113.982583 
L 426.036538 115.597197 
L 436.221154 117.373273 
L 446.405769 118.019119 
L 456.590385 111.883584 
L 466.775 115.112813 
" clip-path="url(#pf74aca1373)" style="fill: none; stroke: #3b9886; stroke-width: 2.5; stroke-linecap: round"/>
   </g>
   <g id="line2d_27">
    <path d="M 69.575 145.467568 
L 79.759615 145.467568 
L 89.944231 145.467568 
L 100.128846 146.920721 
L 110.313462 146.920721 
L 120.498077 144.983183 
L 130.682692 150.795796 
L 140.867308 141.108108 
L 151.051923 138.201802 
L 161.236538 148.373874 
L 171.421154 147.889489 
L 181.605769 151.28018 
L 191.790385 150.795796 
L 201.975 166.78048 
L 212.159615 166.78048 
L 222.344231 181.796396 
L 232.528846 203.593694 
L 242.713462 224.422222 
L 252.898077 232.656757 
L 263.082692 246.21952 
L 273.267308 248.157057 
L 283.451923 236.531832 
L 293.636538 223.453453 
L 303.821154 199.718619 
L 314.005769 183.733934 
L 324.190385 175.015015 
L 334.375 163.874174 
L 344.559615 162.421021 
L 354.744231 160.967868 
L 364.928846 159.999099 
L 375.113462 153.702102 
L 385.298077 157.577177 
L 395.482692 149.827027 
L 405.667308 154.186486 
L 415.851923 146.920721 
L 426.036538 140.623724 
L 436.221154 153.217718 
L 446.405769 145.951952 
L 456.590385 142.561261 
L 466.775 143.53003 
" clip-path="url(#pf74aca1373)" style="fill: none; stroke: #f7b846; stroke-opacity: 0.5; stroke-width: 0.5; stroke-linecap: round"/>
   </g>
   <g id="line2d_28">
    <path d="M 69.575 164.842943 
L 79.759615 169.202402 
L 89.944231 157.577177 
L 100.128846 160.483483 
L 110.313462 166.78048 
L 120.498077 169.202402 
L 130.682692 161.452252 
L 140.867308 173.077477 
L 151.051923 171.13994 
L 161.236538 152.248949 
L 171.421154 159.999099 
L 181.605769 163.874174 
L 191.790385 166.78048 
L 201.975 161.452252 
L 212.159615 182.765165 
L 222.344231 201.656156 
L 232.528846 212.312613 
L 242.713462 229.75045 
L 252.898077 244.281982 
L 263.082692 256.391592 
L 273.267308 260.266667 
L 283.451923 253.96967 
L 293.636538 248.641441 
L 303.821154 228.781682 
L 314.005769 217.640841 
L 324.190385 210.859459 
L 334.375 190.515315 
L 344.559615 186.64024 
L 354.744231 181.796396 
L 364.928846 167.264865 
L 375.113462 177.921321 
L 385.298077 166.296096 
L 395.482692 166.78048 
L 405.667308 170.171171 
L 415.851923 169.202402 
L 426.036538 166.78048 
L 436.221154 166.296096 
L 446.405769 165.811712 
L 456.590385 164.358559 
L 466.775 159.03033 
" clip-path="url(#pf74aca1373)" style="fill: none; stroke: #f7b846; stroke-opacity: 0.5; stroke-width: 0.5; stroke-linecap: round"/>
   </g>
   <g id="line2d_29">
    <path d="M 69.575 181.796396 
L 79.759615 184.702703 
L 89.944231 185.187087 
L 100.128846 176.952553 
L 110.313462 189.546547 
L 120.498077 186.155856 
L 130.682692 183.24955 
L 140.867308 185.187087 
L 151.051923 179.858859 
L 161.236538 181.796396 
L 171.421154 191.968468 
L 181.605769 190.515315 
L 191.790385 206.015616 
L 201.975 237.016216 
L 212.159615 241.375676 
L 222.344231 254.454054 
L 232.528846 275.282583 
L 242.713462 279.157658 
L 252.898077 288.845345 
L 263.082692 292.72042 
L 273.267308 270.923123 
L 283.451923 259.782282 
L 293.636538 240.891291 
L 303.821154 217.640841 
L 314.005769 208.437538 
L 324.190385 203.109309 
L 334.375 203.593694 
L 344.559615 199.718619 
L 354.744231 192.937237 
L 364.928846 192.452853 
L 375.113462 192.937237 
L 385.298077 179.374474 
L 395.482692 197.296697 
L 405.667308 184.702703 
L 415.851923 186.155856 
L 426.036538 176.952553 
L 436.221154 178.89009 
L 446.405769 184.702703 
L 456.590385 172.108709 
L 466.775 187.124625 
" clip-path="url(#pf74aca1373)" style="fill: none; stroke: #f7b846; stroke-opacity: 0.5; stroke-width: 0.5; stroke-linecap: round"/>
   </g>
   <g id="line2d_30">
    <path d="M 69.575 164.035636 
L 79.759615 166.457558 
L 89.944231 162.743944 
L 100.128846 161.452252 
L 110.313462 167.749249 
L 120.498077 166.78048 
L 130.682692 165.165866 
L 140.867308 166.457558 
L 151.051923 163.066867 
L 161.236538 160.806406 
L 171.421154 166.619019 
L 181.605769 168.556557 
L 191.790385 174.530631 
L 201.975 188.416316 
L 212.159615 196.973774 
L 222.344231 212.635536 
L 232.528846 230.396296 
L 242.713462 244.443443 
L 252.898077 255.261361 
L 263.082692 265.110511 
L 273.267308 259.782282 
L 283.451923 250.094595 
L 293.636538 237.662062 
L 303.821154 215.38038 
L 314.005769 203.270771 
L 324.190385 196.327928 
L 334.375 185.994394 
L 344.559615 182.926627 
L 354.744231 178.567167 
L 364.928846 173.238939 
L 375.113462 174.853554 
L 385.298077 167.749249 
L 395.482692 171.301401 
L 405.667308 169.686787 
L 415.851923 167.426326 
L 426.036538 161.452252 
L 436.221154 166.134635 
L 446.405769 165.488789 
L 456.590385 159.676176 
L 466.775 163.228328 
" clip-path="url(#pf74aca1373)" style="fill: none; stroke: #f7b846; stroke-width: 2.5; stroke-linecap: round"/>
   </g>
   <g id="line2d_31">
    <path d="M 69.575 195.359159 
L 79.759615 184.702703 
L 89.944231 190.9997 
L 100.128846 190.515315 
L 110.313462 191.484084 
L 120.498077 183.733934 
L 130.682692 180.343243 
L 140.867308 179.374474 
L 151.051923 171.624324 
L 161.236538 175.983784 
L 171.421154 181.796396 
L 181.605769 177.436937 
L 191.790385 181.312012 
L 201.975 172.108709 
L 212.159615 175.499399 
L 222.344231 174.046246 
L 232.528846 179.858859 
L 242.713462 178.89009 
L 252.898077 175.499399 
L 263.082692 179.858859 
L 273.267308 187.124625 
L 283.451923 179.858859 
L 293.636538 181.796396 
L 303.821154 175.983784 
L 314.005769 186.64024 
L 324.190385 179.374474 
L 334.375 171.13994 
L 344.559615 185.187087 
L 354.744231 181.796396 
L 364.928846 192.452853 
L 375.113462 199.234234 
L 385.298077 197.781081 
L 395.482692 204.078078 
L 405.667308 205.531231 
L 415.851923 191.968468 
L 426.036538 186.155856 
L 436.221154 178.405706 
L 446.405769 183.733934 
L 456.590385 205.046847 
L 466.775 196.327928 
" clip-path="url(#pf74aca1373)" style="fill: none; stroke: #7a77ab; stroke-opacity: 0.5; stroke-width: 0.5; stroke-linecap: round"/>
   </g>
   <g id="line2d_32">
    <path d="M 69.575 147.405105 
L 79.759615 141.108108 
L 89.944231 142.561261 
L 100.128846 148.373874 
L 110.313462 146.920721 
L 120.498077 153.217718 
L 130.682692 147.889489 
L 140.867308 154.670871 
L 151.051923 157.092793 
L 161.236538 147.889489 
L 171.421154 148.858258 
L 181.605769 156.124024 
L 191.790385 156.124024 
L 201.975 152.248949 
L 212.159615 155.63964 
L 222.344231 152.248949 
L 232.528846 169.686787 
L 242.713462 159.03033 
L 252.898077 167.749249 
L 263.082692 184.702703 
L 273.267308 197.296697 
L 283.451923 200.203003 
L 293.636538 195.843544 
L 303.821154 179.858859 
L 314.005769 173.561862 
L 324.190385 154.670871 
L 334.375 149.342643 
L 344.559615 144.983183 
L 354.744231 149.827027 
L 364.928846 137.233033 
L 375.113462 143.53003 
L 385.298077 167.264865 
L 395.482692 162.421021 
L 405.667308 155.63964 
L 415.851923 161.936637 
L 426.036538 158.545946 
L 436.221154 163.874174 
L 446.405769 155.155255 
L 456.590385 150.795796 
L 466.775 149.827027 
" clip-path="url(#pf74aca1373)" style="fill: none; stroke: #7a77ab; stroke-opacity: 0.5; stroke-width: 0.5; stroke-linecap: round"/>
   </g>
   <g id="line2d_33">
    <path d="M 69.575 116.888889 
L 79.759615 127.545345 
L 89.944231 126.092192 
L 100.128846 120.763964 
L 110.313462 125.607808 
L 120.498077 121.732733 
L 130.682692 123.185886 
L 140.867308 126.576577 
L 151.051923 122.217117 
L 161.236538 130.451652 
L 171.421154 121.248348 
L 181.605769 130.936036 
L 191.790385 128.514114 
L 201.975 133.842342 
L 212.159615 131.42042 
L 222.344231 141.592492 
L 232.528846 139.654955 
L 242.713462 161.936637 
L 252.898077 172.593093 
L 263.082692 181.796396 
L 273.267308 183.24955 
L 283.451923 173.561862 
L 293.636538 167.264865 
L 303.821154 150.795796 
L 314.005769 143.53003 
L 324.190385 129.967267 
L 334.375 122.217117 
L 344.559615 124.154655 
L 354.744231 122.217117 
L 364.928846 128.514114 
L 375.113462 117.857658 
L 385.298077 120.763964 
L 395.482692 133.842342 
L 405.667308 129.967267 
L 415.851923 128.998498 
L 426.036538 122.217117 
L 436.221154 118.342042 
L 446.405769 123.185886 
L 456.590385 115.92012 
L 466.775 115.92012 
" clip-path="url(#pf74aca1373)" style="fill: none; stroke: #7a77ab; stroke-opacity: 0.5; stroke-width: 0.5; stroke-linecap: round"/>
   </g>
   <g id="line2d_34">
    <path d="M 69.575 153.217718 
L 79.759615 151.118719 
L 89.944231 153.217718 
L 100.128846 153.217718 
L 110.313462 154.670871 
L 120.498077 152.894795 
L 130.682692 150.472873 
L 140.867308 153.540641 
L 151.051923 150.311411 
L 161.236538 151.441642 
L 171.421154 150.634334 
L 181.605769 154.832332 
L 191.790385 155.316717 
L 201.975 152.733333 
L 212.159615 154.186486 
L 222.344231 155.962563 
L 232.528846 163.066867 
L 242.713462 166.619019 
L 252.898077 171.947247 
L 263.082692 182.119319 
L 273.267308 189.223624 
L 283.451923 184.541241 
L 293.636538 181.634935 
L 303.821154 168.879479 
L 314.005769 167.910711 
L 324.190385 154.670871 
L 334.375 147.566567 
L 344.559615 151.441642 
L 354.744231 151.28018 
L 364.928846 152.733333 
L 375.113462 153.540641 
L 385.298077 161.936637 
L 395.482692 166.78048 
L 405.667308 163.712713 
L 415.851923 160.967868 
L 426.036538 155.63964 
L 436.221154 153.540641 
L 446.405769 154.025025 
L 456.590385 157.254254 
L 466.775 154.025025 
" clip-path="url(#pf74aca1373)" style="fill: none; stroke: #7a77ab; stroke-width: 2.5; stroke-linecap: round"/>
   </g>
   <g id="line2d_35">
    <path d="M 69.575 102.357357 
L 79.759615 98.966667 
L 89.944231 100.904204 
L 100.128846 103.326126 
L 110.313462 103.810511 
L 120.498077 96.544745 
L 130.682692 94.122823 
L 140.867308 101.872973 
L 151.051923 87.825826 
L 161.236538 98.966667 
L 171.421154 91.216517 
L 181.605769 98.966667 
L 191.790385 89.763363 
L 201.975 87.825826 
L 212.159615 99.935435 
L 222.344231 101.388589 
L 232.528846 122.701502 
L 242.713462 131.904805 
L 252.898077 143.045646 
L 263.082692 168.233634 
L 273.267308 175.015015 
L 283.451923 173.077477 
L 293.636538 157.092793 
L 303.821154 141.108108 
L 314.005769 117.373273 
L 324.190385 118.342042 
L 334.375 104.294895 
L 344.559615 99.935435 
L 354.744231 93.638438 
L 364.928846 89.763363 
L 375.113462 87.341441 
L 385.298077 91.700901 
L 395.482692 93.638438 
L 405.667308 89.763363 
L 415.851923 88.31021 
L 426.036538 100.904204 
L 436.221154 99.451051 
L 446.405769 93.154054 
L 456.590385 104.779279 
L 466.775 101.388589 
" clip-path="url(#pf74aca1373)" style="fill: none; stroke: #f898ae; stroke-opacity: 0.5; stroke-width: 0.5; stroke-linecap: round"/>
   </g>
   <g id="line2d_36">
    <path d="M 69.575 73.294294 
L 79.759615 86.857057 
L 89.944231 82.013213 
L 100.128846 82.013213 
L 110.313462 81.528829 
L 120.498077 81.528829 
L 130.682692 91.700901 
L 140.867308 92.66967 
L 151.051923 84.91952 
L 161.236538 84.91952 
L 171.421154 92.185285 
L 181.605769 97.997898 
L 191.790385 91.700901 
L 201.975 95.575976 
L 212.159615 105.748048 
L 222.344231 104.779279 
L 232.528846 113.982583 
L 242.713462 124.639039 
L 252.898077 137.233033 
L 263.082692 159.03033 
L 273.267308 173.561862 
L 283.451923 169.686787 
L 293.636538 164.842943 
L 303.821154 151.764565 
L 314.005769 126.092192 
L 324.190385 122.217117 
L 334.375 104.294895 
L 344.559615 96.544745 
L 354.744231 105.263664 
L 364.928846 96.544745 
L 375.113462 96.544745 
L 385.298077 86.857057 
L 395.482692 95.575976 
L 405.667308 96.544745 
L 415.851923 88.794595 
L 426.036538 85.403904 
L 436.221154 102.841742 
L 446.405769 90.247748 
L 456.590385 73.294294 
L 466.775 74.747447 
" clip-path="url(#pf74aca1373)" style="fill: none; stroke: #f898ae; stroke-opacity: 0.5; stroke-width: 0.5; stroke-linecap: round"/>
   </g>
   <g id="line2d_37">
    <path d="M 69.575 82.013213 
L 79.759615 98.482282 
L 89.944231 89.763363 
L 100.128846 91.700901 
L 110.313462 86.857057 
L 120.498077 79.106907 
L 130.682692 83.466366 
L 140.867308 82.981982 
L 151.051923 94.122823 
L 161.236538 86.372673 
L 171.421154 93.638438 
L 181.605769 89.763363 
L 191.790385 85.888288 
L 201.975 95.091592 
L 212.159615 97.513514 
L 222.344231 105.263664 
L 232.528846 119.795195 
L 242.713462 140.139339 
L 252.898077 158.061562 
L 263.082692 173.077477 
L 273.267308 177.436937 
L 283.451923 161.936637 
L 293.636538 145.467568 
L 303.821154 126.092192 
L 314.005769 123.185886 
L 324.190385 112.045045 
L 334.375 106.716817 
L 344.559615 96.06036 
L 354.744231 98.966667 
L 364.928846 96.06036 
L 375.113462 95.575976 
L 385.298077 95.575976 
L 395.482692 88.31021 
L 405.667308 93.638438 
L 415.851923 92.66967 
L 426.036538 86.372673 
L 436.221154 92.66967 
L 446.405769 82.981982 
L 456.590385 88.794595 
L 466.775 83.466366 
" clip-path="url(#pf74aca1373)" style="fill: none; stroke: #f898ae; stroke-opacity: 0.5; stroke-width: 0.5; stroke-linecap: round"/>
   </g>
   <g id="line2d_38">
    <path d="M 69.575 85.888288 
L 79.759615 94.768669 
L 89.944231 90.893594 
L 100.128846 92.346747 
L 110.313462 90.732132 
L 120.498077 85.726827 
L 130.682692 89.763363 
L 140.867308 92.508208 
L 151.051923 88.956056 
L 161.236538 90.086286 
L 171.421154 92.346747 
L 181.605769 95.575976 
L 191.790385 89.117518 
L 201.975 92.831131 
L 212.159615 101.065666 
L 222.344231 103.810511 
L 232.528846 118.826426 
L 242.713462 132.227728 
L 252.898077 146.113413 
L 263.082692 166.78048 
L 273.267308 175.337938 
L 283.451923 168.233634 
L 293.636538 155.801101 
L 303.821154 139.654955 
L 314.005769 122.217117 
L 324.190385 117.534735 
L 334.375 105.102202 
L 344.559615 97.513514 
L 354.744231 99.28959 
L 364.928846 94.122823 
L 375.113462 93.154054 
L 385.298077 91.377978 
L 395.482692 92.508208 
L 405.667308 93.315516 
L 415.851923 89.924825 
L 426.036538 90.893594 
L 436.221154 98.320821 
L 446.405769 88.794595 
L 456.590385 88.956056 
L 466.775 86.534134 
" clip-path="url(#pf74aca1373)" style="fill: none; stroke: #f898ae; stroke-width: 2.5; stroke-linecap: round"/>
   </g>
   <g id="line2d_39">
    <path d="M 69.575 78.622523 
L 79.759615 88.31021 
L 89.944231 90.732132 
L 100.128846 97.513514 
L 110.313462 106.232432 
L 120.498077 108.16997 
L 130.682692 117.857658 
L 140.867308 126.576577 
L 151.051923 147.405105 
L 161.236538 177.436937 
L 171.421154 204.562462 
L 181.605769 231.687988 
L 191.790385 261.71982 
L 201.975 283.032733 
L 212.159615 308.705105 
L 222.344231 325.658559 
L 232.528846 334.861862 
L 242.713462 345.033934 
L 252.898077 343.096396 
L 263.082692 338.252553 
L 273.267308 346.487087 
L 283.451923 342.612012 
L 293.636538 335.346246 
L 303.821154 321.783483 
L 314.005769 305.314414 
L 324.190385 282.548348 
L 334.375 255.907207 
L 344.559615 224.422222 
L 354.744231 196.327928 
L 364.928846 161.452252 
L 375.113462 140.139339 
L 385.298077 131.42042 
L 395.482692 117.857658 
L 405.667308 108.654354 
L 415.851923 98.482282 
L 426.036538 93.638438 
L 436.221154 91.216517 
L 446.405769 69.903604 
L 456.590385 86.372673 
L 466.775 85.888288 
" clip-path="url(#pf74aca1373)" style="fill: none; stroke: #73b5e3; stroke-opacity: 0.5; stroke-width: 0.5; stroke-linecap: round"/>
   </g>
   <g id="line2d_40">
    <path d="M 69.575 86.372673 
L 79.759615 85.888288 
L 89.944231 82.497598 
L 100.128846 73.778679 
L 110.313462 92.185285 
L 120.498077 87.341441 
L 130.682692 105.748048 
L 140.867308 102.841742 
L 151.051923 116.888889 
L 161.236538 120.27958 
L 171.421154 141.592492 
L 181.605769 171.624324 
L 191.790385 202.624925 
L 201.975 222.0003 
L 212.159615 255.422823 
L 222.344231 277.704505 
L 232.528846 307.736336 
L 242.713462 327.596096 
L 252.898077 341.643243 
L 263.082692 346.487087 
L 273.267308 352.784084 
L 283.451923 352.2997 
L 293.636538 350.362162 
L 303.821154 347.455856 
L 314.005769 339.705706 
L 324.190385 331.955556 
L 334.375 314.033333 
L 344.559615 288.360961 
L 354.744231 261.235435 
L 364.928846 230.234835 
L 375.113462 189.546547 
L 385.298077 159.03033 
L 395.482692 146.920721 
L 405.667308 123.185886 
L 415.851923 129.482883 
L 426.036538 105.263664 
L 436.221154 104.294895 
L 446.405769 102.841742 
L 456.590385 92.66967 
L 466.775 89.278979 
" clip-path="url(#pf74aca1373)" style="fill: none; stroke: #73b5e3; stroke-opacity: 0.5; stroke-width: 0.5; stroke-linecap: round"/>
   </g>
   <g id="line2d_41">
    <path d="M 69.575 88.31021 
L 79.759615 77.653754 
L 89.944231 73.778679 
L 100.128846 77.169369 
L 110.313462 83.466366 
L 120.498077 87.825826 
L 130.682692 99.451051 
L 140.867308 98.966667 
L 151.051923 116.404505 
L 161.236538 139.654955 
L 171.421154 159.999099 
L 181.605769 198.74985 
L 191.790385 237.984985 
L 201.975 267.532432 
L 212.159615 285.939039 
L 222.344231 317.424024 
L 232.528846 331.955556 
L 242.713462 341.158859 
L 252.898077 346.971471 
L 263.082692 353.268468 
L 273.267308 356.174775 
L 283.451923 349.393393 
L 293.636538 351.330931 
L 303.821154 347.455856 
L 314.005769 332.924324 
L 324.190385 315.486486 
L 334.375 301.923724 
L 344.559615 268.016817 
L 354.744231 242.344444 
L 364.928846 196.812312 
L 375.113462 166.78048 
L 385.298077 139.170571 
L 395.482692 111.560661 
L 405.667308 94.122823 
L 415.851923 74.747447 
L 426.036538 45.2 
L 436.221154 66.997297 
L 446.405769 68.934835 
L 456.590385 66.512913 
L 466.775 65.544144 
" clip-path="url(#pf74aca1373)" style="fill: none; stroke: #73b5e3; stroke-opacity: 0.5; stroke-width: 0.5; stroke-linecap: round"/>
   </g>
   <g id="line2d_42">
    <path d="M 69.575 84.435135 
L 79.759615 83.950751 
L 89.944231 82.336136 
L 100.128846 82.820521 
L 110.313462 93.961361 
L 120.498077 94.445746 
L 130.682692 107.685586 
L 140.867308 109.461662 
L 151.051923 126.899499 
L 161.236538 145.79049 
L 171.421154 168.718018 
L 181.605769 200.687387 
L 191.790385 234.10991 
L 201.975 257.521822 
L 212.159615 283.355656 
L 222.344231 306.929029 
L 232.528846 324.851251 
L 242.713462 337.92963 
L 252.898077 343.903704 
L 263.082692 346.002703 
L 273.267308 351.815315 
L 283.451923 348.101702 
L 293.636538 345.67978 
L 303.821154 338.898398 
L 314.005769 325.981481 
L 324.190385 309.996797 
L 334.375 290.621421 
L 344.559615 260.266667 
L 354.744231 233.302603 
L 364.928846 196.166466 
L 375.113462 165.488789 
L 385.298077 143.207107 
L 395.482692 125.446346 
L 405.667308 108.654354 
L 415.851923 100.904204 
L 426.036538 81.367367 
L 436.221154 87.502903 
L 446.405769 80.56006 
L 456.590385 81.851752 
L 466.775 80.237137 
" clip-path="url(#pf74aca1373)" style="fill: none; stroke: #73b5e3; stroke-width: 2.5; stroke-linecap: round"/>
   </g>
   <g id="line2d_43">
    <path d="M 69.575 179.374474 
L 79.759615 173.561862 
L 89.944231 160.967868 
L 100.128846 165.327327 
L 110.313462 162.421021 
L 120.498077 162.905405 
L 130.682692 172.593093 
L 140.867308 174.530631 
L 151.051923 172.108709 
L 161.236538 174.530631 
L 171.421154 180.343243 
L 181.605769 200.203003 
L 191.790385 219.093994 
L 201.975 248.157057 
L 212.159615 275.766967 
L 222.344231 299.501802 
L 232.528846 319.845946 
L 242.713462 321.783483 
L 252.898077 334.861862 
L 263.082692 341.158859 
L 273.267308 341.643243 
L 283.451923 337.768168 
L 293.636538 327.596096 
L 303.821154 324.68979 
L 314.005769 307.251952 
L 324.190385 284.97027 
L 334.375 253.485285 
L 344.559615 238.469369 
L 354.744231 210.859459 
L 364.928846 206.5 
L 375.113462 201.171772 
L 385.298077 193.421622 
L 395.482692 194.39039 
L 405.667308 185.187087 
L 415.851923 177.921321 
L 426.036538 180.343243 
L 436.221154 175.983784 
L 446.405769 181.796396 
L 456.590385 182.765165 
L 466.775 177.921321 
" clip-path="url(#pf74aca1373)" style="fill: none; stroke: #ffb984; stroke-opacity: 0.5; stroke-width: 0.5; stroke-linecap: round"/>
   </g>
   <g id="line2d_44">
    <path d="M 69.575 192.452853 
L 79.759615 207.953153 
L 89.944231 194.39039 
L 100.128846 201.171772 
L 110.313462 194.874775 
L 120.498077 191.484084 
L 130.682692 195.843544 
L 140.867308 196.812312 
L 151.051923 190.9997 
L 161.236538 191.484084 
L 171.421154 197.781081 
L 181.605769 202.624925 
L 191.790385 215.703303 
L 201.975 234.594294 
L 212.159615 255.907207 
L 222.344231 278.673273 
L 232.528846 301.439339 
L 242.713462 314.033333 
L 252.898077 319.361562 
L 263.082692 324.205405 
L 273.267308 333.893093 
L 283.451923 328.564865 
L 293.636538 317.908408 
L 303.821154 298.533033 
L 314.005769 286.907808 
L 324.190385 263.172973 
L 334.375 246.703904 
L 344.559615 234.594294 
L 354.744231 223.453453 
L 364.928846 224.422222 
L 375.113462 222.484685 
L 385.298077 212.796997 
L 395.482692 203.593694 
L 405.667308 200.687387 
L 415.851923 199.234234 
L 426.036538 189.062162 
L 436.221154 202.140541 
L 446.405769 197.296697 
L 456.590385 194.874775 
L 466.775 199.718619 
" clip-path="url(#pf74aca1373)" style="fill: none; stroke: #ffb984; stroke-opacity: 0.5; stroke-width: 0.5; stroke-linecap: round"/>
   </g>
   <g id="line2d_45">
    <path d="M 69.575 226.844144 
L 79.759615 219.093994 
L 89.944231 223.453453 
L 100.128846 219.093994 
L 110.313462 216.672072 
L 120.498077 218.60961 
L 130.682692 214.25015 
L 140.867308 210.375075 
L 151.051923 212.796997 
L 161.236538 223.937838 
L 171.421154 235.563063 
L 181.605769 236.531832 
L 191.790385 239.922523 
L 201.975 261.71982 
L 212.159615 273.829429 
L 222.344231 287.392192 
L 232.528846 304.345646 
L 242.713462 310.642643 
L 252.898077 313.064565 
L 263.082692 307.251952 
L 273.267308 310.158258 
L 283.451923 297.564264 
L 293.636538 288.360961 
L 303.821154 268.501201 
L 314.005769 260.266667 
L 324.190385 251.063363 
L 334.375 247.188288 
L 344.559615 241.375676 
L 354.744231 236.047447 
L 364.928846 238.469369 
L 375.113462 237.500601 
L 385.298077 236.531832 
L 395.482692 231.203604 
L 405.667308 232.656757 
L 415.851923 231.203604 
L 426.036538 222.0003 
L 436.221154 226.844144 
L 446.405769 224.422222 
L 456.590385 223.937838 
L 466.775 214.25015 
" clip-path="url(#pf74aca1373)" style="fill: none; stroke: #ffb984; stroke-opacity: 0.5; stroke-width: 0.5; stroke-linecap: round"/>
   </g>
   <g id="line2d_46">
    <path d="M 69.575 199.557157 
L 79.759615 200.203003 
L 89.944231 192.937237 
L 100.128846 195.197698 
L 110.313462 191.322623 
L 120.498077 190.9997 
L 130.682692 194.228929 
L 140.867308 193.906006 
L 151.051923 191.968468 
L 161.236538 196.650851 
L 171.421154 204.562462 
L 181.605769 213.11992 
L 191.790385 224.906607 
L 201.975 248.157057 
L 212.159615 268.501201 
L 222.344231 288.522422 
L 232.528846 308.543644 
L 242.713462 315.486486 
L 252.898077 322.429329 
L 263.082692 324.205405 
L 273.267308 328.564865 
L 283.451923 321.299099 
L 293.636538 311.288488 
L 303.821154 297.241341 
L 314.005769 284.808809 
L 324.190385 266.402202 
L 334.375 249.125826 
L 344.559615 238.146446 
L 354.744231 223.453453 
L 364.928846 223.130531 
L 375.113462 220.385686 
L 385.298077 214.25015 
L 395.482692 209.729229 
L 405.667308 206.177077 
L 415.851923 202.786386 
L 426.036538 197.135235 
L 436.221154 201.656156 
L 446.405769 201.171772 
L 456.590385 200.525926 
L 466.775 197.296697 
" clip-path="url(#pf74aca1373)" style="fill: none; stroke: #ffb984; stroke-width: 2.5; stroke-linecap: round"/>
   </g>
   <g id="patch_3">
    <path d="M 69.575 367.8 
L 69.575 45.2 
" style="fill: none; stroke: #000000; stroke-width: 0.75; stroke-linejoin: miter; stroke-linecap: square"/>
   </g>
   <g id="patch_4">
    <path d="M 69.575 367.8 
L 466.775 367.8 
" style="fill: none; stroke: #000000; stroke-width: 0.75; stroke-linejoin: miter; stroke-linecap: square"/>
   </g>
   <g id="text_17">
    <text style="font: 500 18px &quot;Suisse Int&apos;l&quot;, sans-serif; text-anchor: middle" x="268.175" y="29.2" transform="rotate(-0 268.175 29.2)">Normalized Spatial Density of Cells in a Conical Well : cc-2670</text>
   </g>
   <g id="legend_1">
    <g id="line2d_47">
     <path d="M 486.635 51.575 
L 494.135 51.575 
L 501.635 51.575 
" style="fill: none; stroke: #5088c5; stroke-width: 2.5; stroke-linecap: round"/>
    </g>
    <g id="text_18">
     <text style="font: 15px &quot;Suisse Int&apos;l&quot;, sans-serif; text-anchor: start" x="507.635" y="57.95" transform="rotate(-0 507.635 57.95)">water Average</text>
    </g>
    <g id="line2d_48">
     <path d="M 486.635 74.644531 
L 494.135 74.644531 
L 501.635 74.644531 
" style="fill: none; stroke: #f28360; stroke-width: 2.5; stroke-linecap: round"/>
    </g>
    <g id="text_19">
     <text style="font: 15px &quot;Suisse Int&apos;l&quot;, sans-serif; text-anchor: start" x="507.635" y="81.019531" transform="rotate(-0 507.635 81.019531)">0.1% DMSO Average</text>
    </g>
    <g id="line2d_49">
     <path d="M 486.635 97.714062 
L 494.135 97.714062 
L 501.635 97.714062 
" style="fill: none; stroke: #3b9886; stroke-width: 2.5; stroke-linecap: round"/>
    </g>
    <g id="text_20">
     <text style="font: 15px &quot;Suisse Int&apos;l&quot;, sans-serif; text-anchor: start" x="507.635" y="104.089062" transform="rotate(-0 507.635 104.089062)">50 µM Torin2 Average</text>
    </g>
    <g id="line2d_50">
     <path d="M 486.635 120.783594 
L 494.135 120.783594 
L 501.635 120.783594 
" style="fill: none; stroke: #f7b846; stroke-width: 2.5; stroke-linecap: round"/>
    </g>
    <g id="text_21">
     <text style="font: 15px &quot;Suisse Int&apos;l&quot;, sans-serif; text-anchor: start" x="507.635" y="127.158594" transform="rotate(-0 507.635 127.158594)">50 µM TAK-063 Average</text>
    </g>
    <g id="line2d_51">
     <path d="M 486.635 143.853125 
L 494.135 143.853125 
L 501.635 143.853125 
" style="fill: none; stroke: #7a77ab; stroke-width: 2.5; stroke-linecap: round"/>
    </g>
    <g id="text_22">
     <text style="font: 15px &quot;Suisse Int&apos;l&quot;, sans-serif; text-anchor: start" x="507.635" y="150.228125" transform="rotate(-0 507.635 150.228125)">50 µM Dynarrestin Average</text>
    </g>
    <g id="line2d_52">
     <path d="M 486.635 166.922656 
L 494.135 166.922656 
L 501.635 166.922656 
" style="fill: none; stroke: #f898ae; stroke-width: 2.5; stroke-linecap: round"/>
    </g>
    <g id="text_23">
     <text style="font: 15px &quot;Suisse Int&apos;l&quot;, sans-serif; text-anchor: start" x="507.635" y="173.297656" transform="rotate(-0 507.635 173.297656)">50 µM ATP Average</text>
    </g>
    <g id="line2d_53">
     <path d="M 486.635 189.992187 
L 494.135 189.992187 
L 501.635 189.992187 
" style="fill: none; stroke: #73b5e3; stroke-width: 2.5; stroke-linecap: round"/>
    </g>
    <g id="text_24">
     <text style="font: 15px &quot;Suisse Int&apos;l&quot;, sans-serif; text-anchor: start" x="507.635" y="196.367187" transform="rotate(-0 507.635 196.367187)">50 µM Linsitinib Average</text>
    </g>
    <g id="line2d_54">
     <path d="M 486.635 213.061719 
L 494.135 213.061719 
L 501.635 213.061719 
" style="fill: none; stroke: #ffb984; stroke-width: 2.5; stroke-linecap: round"/>
    </g>
    <g id="text_25">
     <text style="font: 15px &quot;Suisse Int&apos;l&quot;, sans-serif; text-anchor: start" x="507.635" y="219.436719" transform="rotate(-0 507.635 219.436719)">50 µM Ibudilast Average</text>
    </g>
   </g>
  </g>
 </g>
 <defs>
  <clipPath id="pf74aca1373">
   <rect x="69.575" y="45.2" width="397.2" height="322.6"/>
  </clipPath>
 </defs>
</svg>
