<?xml version="1.0" encoding="utf-8" standalone="no"?>
<!DOCTYPE svg PUBLIC "-//W3C//DTD SVG 1.1//EN"
  "http://www.w3.org/Graphics/SVG/1.1/DTD/svg11.dtd">
<svg xmlns:xlink="http://www.w3.org/1999/xlink" width="720pt" height="432pt" viewBox="0 0 720 432" xmlns="http://www.w3.org/2000/svg" version="1.1">
 <metadata>
  <rdf:RDF xmlns:dc="http://purl.org/dc/elements/1.1/" xmlns:cc="http://creativecommons.org/ns#" xmlns:rdf="http://www.w3.org/1999/02/22-rdf-syntax-ns#">
   <cc:Work>
    <dc:type rdf:resource="http://purl.org/dc/dcmitype/StillImage"/>
    <dc:date>2024-10-02T13:38:13.975500</dc:date>
    <dc:format>image/svg+xml</dc:format>
    <dc:creator>
     <cc:Agent>
      <dc:title>Matplotlib v3.8.4, https://matplotlib.org/</dc:title>
     </cc:Agent>
    </dc:creator>
   </cc:Work>
  </rdf:RDF>
 </metadata>
 <defs>
  <style type="text/css">*{stroke-linejoin: round; stroke-linecap: butt}</style>
 </defs>
 <g id="figure_1">
  <g id="patch_1">
   <path d="M 0 432 
L 720 432 
L 720 0 
L 0 0 
L 0 432 
z
" style="fill: none"/>
  </g>
  <g id="axes_1">
   <g id="patch_2">
    <path d="M 69.575 367.8 
L 466.4 367.8 
L 466.4 45.2 
L 69.575 45.2 
L 69.575 367.8 
z
" style="fill: none"/>
   </g>
   <g id="matplotlib.axis_1">
    <g id="xtick_1">
     <g id="line2d_1">
      <defs>
       <path id="me7b6d4e0ca" d="M 0 0 
L 0 5 
" style="stroke: #000000; stroke-width: 0.75"/>
      </defs>
      <g>
       <use xlink:href="#me7b6d4e0ca" x="69.575" y="367.8" style="stroke: #000000; stroke-width: 0.75"/>
      </g>
     </g>
     <g id="text_1">
      <text style="font: 15px &quot;Suisse Int&apos;l&quot;, sans-serif; text-anchor: middle" x="69.575" y="388.675" transform="rotate(-0 69.575 388.675)">0</text>
     </g>
    </g>
    <g id="xtick_2">
     <g id="line2d_2">
      <g>
       <use xlink:href="#me7b6d4e0ca" x="120.45" y="367.8" style="stroke: #000000; stroke-width: 0.75"/>
      </g>
     </g>
     <g id="text_2">
      <text style="font: 15px &quot;Suisse Int&apos;l&quot;, sans-serif; text-anchor: middle" x="120.45" y="388.675" transform="rotate(-0 120.45 388.675)">5</text>
     </g>
    </g>
    <g id="xtick_3">
     <g id="line2d_3">
      <g>
       <use xlink:href="#me7b6d4e0ca" x="171.325" y="367.8" style="stroke: #000000; stroke-width: 0.75"/>
      </g>
     </g>
     <g id="text_3">
      <text style="font: 15px &quot;Suisse Int&apos;l&quot;, sans-serif; text-anchor: middle" x="171.325" y="388.675" transform="rotate(-0 171.325 388.675)">10</text>
     </g>
    </g>
    <g id="xtick_4">
     <g id="line2d_4">
      <g>
       <use xlink:href="#me7b6d4e0ca" x="222.2" y="367.8" style="stroke: #000000; stroke-width: 0.75"/>
      </g>
     </g>
     <g id="text_4">
      <text style="font: 15px &quot;Suisse Int&apos;l&quot;, sans-serif; text-anchor: middle" x="222.2" y="388.675" transform="rotate(-0 222.2 388.675)">15</text>
     </g>
    </g>
    <g id="xtick_5">
     <g id="line2d_5">
      <g>
       <use xlink:href="#me7b6d4e0ca" x="273.075" y="367.8" style="stroke: #000000; stroke-width: 0.75"/>
      </g>
     </g>
     <g id="text_5">
      <text style="font: 15px &quot;Suisse Int&apos;l&quot;, sans-serif; text-anchor: middle" x="273.075" y="388.675" transform="rotate(-0 273.075 388.675)">20</text>
     </g>
    </g>
    <g id="xtick_6">
     <g id="line2d_6">
      <g>
       <use xlink:href="#me7b6d4e0ca" x="323.95" y="367.8" style="stroke: #000000; stroke-width: 0.75"/>
      </g>
     </g>
     <g id="text_6">
      <text style="font: 15px &quot;Suisse Int&apos;l&quot;, sans-serif; text-anchor: middle" x="323.95" y="388.675" transform="rotate(-0 323.95 388.675)">25</text>
     </g>
    </g>
    <g id="xtick_7">
     <g id="line2d_7">
      <g>
       <use xlink:href="#me7b6d4e0ca" x="374.825" y="367.8" style="stroke: #000000; stroke-width: 0.75"/>
      </g>
     </g>
     <g id="text_7">
      <text style="font: 15px &quot;Suisse Int&apos;l&quot;, sans-serif; text-anchor: middle" x="374.825" y="388.675" transform="rotate(-0 374.825 388.675)">30</text>
     </g>
    </g>
    <g id="xtick_8">
     <g id="line2d_8">
      <g>
       <use xlink:href="#me7b6d4e0ca" x="425.7" y="367.8" style="stroke: #000000; stroke-width: 0.75"/>
      </g>
     </g>
     <g id="text_8">
      <text style="font: 15px &quot;Suisse Int&apos;l&quot;, sans-serif; text-anchor: middle" x="425.7" y="388.675" transform="rotate(-0 425.7 388.675)">35</text>
     </g>
    </g>
    <g id="text_9">
     <text style="font: 500 15px &quot;Suisse Int&apos;l&quot;, sans-serif; text-anchor: middle" x="267.9875" y="412.175" transform="rotate(-0 267.9875 412.175)">Pixel Position</text>
    </g>
   </g>
   <g id="matplotlib.axis_2">
    <g id="ytick_1">
     <g id="line2d_9">
      <defs>
       <path id="m42ae3baf51" d="M 0 0 
L -5 0 
" style="stroke: #000000; stroke-width: 0.75"/>
      </defs>
      <g>
       <use xlink:href="#m42ae3baf51" x="69.575" y="340.674474" style="stroke: #000000; stroke-width: 0.75"/>
      </g>
     </g>
     <g id="text_10">
      <text style="font: 15px &quot;Suisse Int&apos;l&quot;, sans-serif; text-anchor: end" x="59.575" y="346.111974" transform="rotate(-0 59.575 346.111974)">10</text>
     </g>
    </g>
    <g id="ytick_2">
     <g id="line2d_10">
      <g>
       <use xlink:href="#m42ae3baf51" x="69.575" y="287.392192" style="stroke: #000000; stroke-width: 0.75"/>
      </g>
     </g>
     <g id="text_11">
      <text style="font: 15px &quot;Suisse Int&apos;l&quot;, sans-serif; text-anchor: end" x="59.575" y="292.829692" transform="rotate(-0 59.575 292.829692)">20</text>
     </g>
    </g>
    <g id="ytick_3">
     <g id="line2d_11">
      <g>
       <use xlink:href="#m42ae3baf51" x="69.575" y="234.10991" style="stroke: #000000; stroke-width: 0.75"/>
      </g>
     </g>
     <g id="text_12">
      <text style="font: 15px &quot;Suisse Int&apos;l&quot;, sans-serif; text-anchor: end" x="59.575" y="239.54741" transform="rotate(-0 59.575 239.54741)">30</text>
     </g>
    </g>
    <g id="ytick_4">
     <g id="line2d_12">
      <g>
       <use xlink:href="#m42ae3baf51" x="69.575" y="180.827628" style="stroke: #000000; stroke-width: 0.75"/>
      </g>
     </g>
     <g id="text_13">
      <text style="font: 15px &quot;Suisse Int&apos;l&quot;, sans-serif; text-anchor: end" x="59.575" y="186.265128" transform="rotate(-0 59.575 186.265128)">40</text>
     </g>
    </g>
    <g id="ytick_5">
     <g id="line2d_13">
      <g>
       <use xlink:href="#m42ae3baf51" x="69.575" y="127.545345" style="stroke: #000000; stroke-width: 0.75"/>
      </g>
     </g>
     <g id="text_14">
      <text style="font: 15px &quot;Suisse Int&apos;l&quot;, sans-serif; text-anchor: end" x="59.575" y="132.982845" transform="rotate(-0 59.575 132.982845)">50</text>
     </g>
    </g>
    <g id="ytick_6">
     <g id="line2d_14">
      <g>
       <use xlink:href="#m42ae3baf51" x="69.575" y="74.263063" style="stroke: #000000; stroke-width: 0.75"/>
      </g>
     </g>
     <g id="text_15">
      <text style="font: 15px &quot;Suisse Int&apos;l&quot;, sans-serif; text-anchor: end" x="59.575" y="79.700563" transform="rotate(-0 59.575 79.700563)">60</text>
     </g>
    </g>
    <g id="text_16">
     <text style="font: 500 15px &quot;Suisse Int&apos;l&quot;, sans-serif; text-anchor: middle" x="27.675" y="206.5" transform="rotate(-90 27.675 206.5)">Relative Cell Density</text>
    </g>
   </g>
   <g id="line2d_15">
    <path d="M 69.575 222.0003 
L 79.75 216.187688 
L 89.925 217.156456 
L 100.1 219.093994 
L 110.275 230.719219 
L 120.45 220.547147 
L 130.625 229.266066 
L 140.8 227.328529 
L 150.975 214.25015 
L 161.15 210.375075 
L 171.325 273.345045 
L 181.5 255.422823 
L 191.675 234.594294 
L 201.85 234.594294 
L 212.025 220.062763 
L 222.2 227.328529 
L 232.375 216.672072 
L 242.55 222.969069 
L 252.725 217.640841 
L 262.9 221.031532 
L 273.075 221.515916 
L 283.25 208.437538 
L 293.425 214.734535 
L 303.6 210.375075 
L 313.775 206.5 
L 323.95 218.60961 
L 334.125 214.734535 
L 344.3 212.796997 
L 354.475 196.812312 
L 364.65 208.437538 
L 374.825 207.953153 
L 385 213.765766 
L 395.175 208.437538 
L 405.35 209.890691 
L 415.525 213.765766 
L 425.7 207.953153 
L 435.875 207.953153 
L 446.05 210.859459 
L 456.225 217.640841 
L 466.4 213.765766 
" clip-path="url(#pdcceedff29)" style="fill: none; stroke: #5088c5; stroke-opacity: 0.5; stroke-width: 0.5; stroke-linecap: round"/>
   </g>
   <g id="line2d_16">
    <path d="M 69.575 201.171772 
L 79.75 197.296697 
L 89.925 198.265465 
L 100.1 182.765165 
L 110.275 184.702703 
L 120.45 182.280781 
L 130.625 177.436937 
L 140.8 189.062162 
L 150.975 185.187087 
L 161.15 175.983784 
L 171.325 222.969069 
L 181.5 220.062763 
L 191.675 205.531231 
L 201.85 204.562462 
L 212.025 202.140541 
L 222.2 198.74985 
L 232.375 195.843544 
L 242.55 186.155856 
L 252.725 192.452853 
L 262.9 184.702703 
L 273.075 197.296697 
L 283.25 184.218318 
L 293.425 180.343243 
L 303.6 182.765165 
L 313.775 181.796396 
L 323.95 183.733934 
L 334.125 185.187087 
L 344.3 185.187087 
L 354.475 180.827628 
L 364.65 187.124625 
L 374.825 178.405706 
L 385 186.155856 
L 395.175 182.765165 
L 405.35 186.64024 
L 415.525 182.765165 
L 425.7 190.515315 
L 435.875 177.921321 
L 446.05 180.343243 
L 456.225 192.937237 
L 466.4 187.124625 
" clip-path="url(#pdcceedff29)" style="fill: none; stroke: #5088c5; stroke-opacity: 0.5; stroke-width: 0.5; stroke-linecap: round"/>
   </g>
   <g id="line2d_17">
    <path d="M 69.575 150.795796 
L 79.75 149.827027 
L 89.925 146.920721 
L 100.1 150.795796 
L 110.275 151.764565 
L 120.45 151.764565 
L 130.625 147.405105 
L 140.8 151.764565 
L 150.975 154.186486 
L 161.15 159.514715 
L 171.325 149.342643 
L 181.5 153.702102 
L 191.675 142.561261 
L 201.85 156.124024 
L 212.025 148.373874 
L 222.2 151.28018 
L 232.375 154.186486 
L 242.55 157.577177 
L 252.725 164.358559 
L 262.9 163.38979 
L 273.075 179.374474 
L 283.25 165.811712 
L 293.425 172.593093 
L 303.6 169.202402 
L 313.775 172.593093 
L 323.95 173.561862 
L 334.125 163.874174 
L 344.3 154.186486 
L 354.475 152.248949 
L 364.65 149.342643 
L 374.825 157.577177 
L 385 143.53003 
L 395.175 144.014414 
L 405.35 139.170571 
L 415.525 140.623724 
L 425.7 154.670871 
L 435.875 167.264865 
L 446.05 165.811712 
L 456.225 166.78048 
L 466.4 155.155255 
" clip-path="url(#pdcceedff29)" style="fill: none; stroke: #5088c5; stroke-opacity: 0.5; stroke-width: 0.5; stroke-linecap: round"/>
   </g>
   <g id="line2d_18">
    <path d="M 69.575 191.322623 
L 79.75 187.77047 
L 89.925 187.447548 
L 100.1 184.218318 
L 110.275 189.062162 
L 120.45 184.864164 
L 130.625 184.702703 
L 140.8 189.385085 
L 150.975 184.541241 
L 161.15 181.957858 
L 171.325 215.218919 
L 181.5 209.729229 
L 191.675 194.228929 
L 201.85 198.426927 
L 212.025 190.192392 
L 222.2 192.452853 
L 232.375 188.900701 
L 242.55 188.900701 
L 252.725 191.484084 
L 262.9 189.708008 
L 273.075 199.395696 
L 283.25 186.155856 
L 293.425 189.223624 
L 303.6 187.447548 
L 313.775 186.963163 
L 323.95 191.968468 
L 334.125 187.931932 
L 344.3 184.056857 
L 354.475 176.62963 
L 364.65 181.634935 
L 374.825 181.312012 
L 385 181.150551 
L 395.175 178.405706 
L 405.35 178.567167 
L 415.525 179.051552 
L 425.7 184.37978 
L 435.875 184.37978 
L 446.05 185.671471 
L 456.225 192.452853 
L 466.4 185.348549 
" clip-path="url(#pdcceedff29)" style="fill: none; stroke: #5088c5; stroke-width: 2.5; stroke-linecap: round"/>
   </g>
   <g id="line2d_19">
    <path d="M 69.575 139.170571 
L 79.75 130.451652 
L 89.925 138.201802 
L 100.1 131.42042 
L 110.275 136.748649 
L 120.45 129.482883 
L 130.625 135.295495 
L 140.8 136.748649 
L 150.975 138.201802 
L 161.15 134.326727 
L 171.325 130.451652 
L 181.5 135.295495 
L 191.675 127.545345 
L 201.85 141.592492 
L 212.025 136.748649 
L 222.2 143.53003 
L 232.375 139.170571 
L 242.55 151.28018 
L 252.725 152.733333 
L 262.9 157.092793 
L 273.075 160.967868 
L 283.25 156.124024 
L 293.425 157.092793 
L 303.6 153.217718 
L 313.775 145.951952 
L 323.95 140.623724 
L 334.125 142.561261 
L 344.3 132.389189 
L 354.475 131.904805 
L 364.65 134.326727 
L 374.825 136.264264 
L 385 134.326727 
L 395.175 130.936036 
L 405.35 125.607808 
L 415.525 120.27958 
L 425.7 146.436336 
L 435.875 148.858258 
L 446.05 136.748649 
L 456.225 136.748649 
L 466.4 125.607808 
" clip-path="url(#pdcceedff29)" style="fill: none; stroke: #f28360; stroke-opacity: 0.5; stroke-width: 0.5; stroke-linecap: round"/>
   </g>
   <g id="line2d_20">
    <path d="M 69.575 76.200601 
L 79.75 68.934835 
L 89.925 72.325526 
L 100.1 84.435135 
L 110.275 93.154054 
L 120.45 77.169369 
L 130.625 83.466366 
L 140.8 88.31021 
L 150.975 82.981982 
L 161.15 82.013213 
L 171.325 87.825826 
L 181.5 90.732132 
L 191.675 88.794595 
L 201.85 90.247748 
L 212.025 101.388589 
L 222.2 104.294895 
L 232.375 111.560661 
L 242.55 113.013814 
L 252.725 124.639039 
L 262.9 116.404505 
L 273.075 128.998498 
L 283.25 123.67027 
L 293.425 105.748048 
L 303.6 107.201201 
L 313.775 88.794595 
L 323.95 94.607207 
L 334.125 98.482282 
L 344.3 89.763363 
L 354.475 81.044444 
L 364.65 90.247748 
L 374.825 81.044444 
L 385 89.278979 
L 395.175 81.044444 
L 405.35 77.653754 
L 415.525 82.981982 
L 425.7 82.981982 
L 435.875 69.903604 
L 446.05 77.169369 
L 456.225 86.372673 
L 466.4 84.435135 
" clip-path="url(#pdcceedff29)" style="fill: none; stroke: #f28360; stroke-opacity: 0.5; stroke-width: 0.5; stroke-linecap: round"/>
   </g>
   <g id="line2d_21">
    <path d="M 69.575 76.684985 
L 79.75 65.05976 
L 89.925 72.80991 
L 100.1 80.075676 
L 110.275 64.575375 
L 120.45 62.637838 
L 130.625 67.481682 
L 140.8 78.622523 
L 150.975 72.80991 
L 161.15 76.200601 
L 171.325 79.106907 
L 181.5 82.981982 
L 191.675 78.138138 
L 201.85 89.763363 
L 212.025 86.857057 
L 222.2 88.794595 
L 232.375 88.794595 
L 242.55 104.294895 
L 252.725 103.810511 
L 262.9 113.013814 
L 273.075 114.466967 
L 283.25 113.498198 
L 293.425 108.16997 
L 303.6 113.013814 
L 313.775 101.872973 
L 323.95 83.466366 
L 334.125 88.31021 
L 344.3 86.857057 
L 354.475 78.622523 
L 364.65 83.466366 
L 374.825 79.106907 
L 385 76.200601 
L 395.175 74.747447 
L 405.35 77.169369 
L 415.525 81.528829 
L 425.7 87.825826 
L 435.875 74.263063 
L 446.05 65.05976 
L 456.225 66.028529 
L 466.4 62.637838 
" clip-path="url(#pdcceedff29)" style="fill: none; stroke: #f28360; stroke-opacity: 0.5; stroke-width: 0.5; stroke-linecap: round"/>
   </g>
   <g id="line2d_22">
    <path d="M 69.575 97.352052 
L 79.75 88.148749 
L 89.925 94.445746 
L 100.1 98.643744 
L 110.275 98.159359 
L 120.45 89.763363 
L 130.625 95.414515 
L 140.8 101.227127 
L 150.975 97.997898 
L 161.15 97.513514 
L 171.325 99.128128 
L 181.5 103.003203 
L 191.675 98.159359 
L 201.85 107.201201 
L 212.025 108.331431 
L 222.2 112.206507 
L 232.375 113.175275 
L 242.55 122.862963 
L 252.725 127.060961 
L 262.9 128.837037 
L 273.075 134.811111 
L 283.25 131.097497 
L 293.425 123.67027 
L 303.6 124.477578 
L 313.775 112.206507 
L 323.95 106.232432 
L 334.125 109.784585 
L 344.3 103.003203 
L 354.475 97.190591 
L 364.65 102.68028 
L 374.825 98.805205 
L 385 99.935435 
L 395.175 95.575976 
L 405.35 93.476977 
L 415.525 94.93013 
L 425.7 105.748048 
L 435.875 97.674975 
L 446.05 92.992593 
L 456.225 96.383283 
L 466.4 90.893594 
" clip-path="url(#pdcceedff29)" style="fill: none; stroke: #f28360; stroke-width: 2.5; stroke-linecap: round"/>
   </g>
   <g id="line2d_23">
    <path d="M 69.575 79.591291 
L 79.75 83.466366 
L 89.925 87.825826 
L 100.1 75.231832 
L 110.275 79.591291 
L 120.45 88.794595 
L 130.625 85.403904 
L 140.8 87.341441 
L 150.975 92.66967 
L 161.15 90.247748 
L 171.325 80.56006 
L 181.5 81.528829 
L 191.675 84.91952 
L 201.85 89.278979 
L 212.025 92.185285 
L 222.2 72.80991 
L 232.375 74.747447 
L 242.55 80.075676 
L 252.725 79.106907 
L 262.9 86.857057 
L 273.075 98.482282 
L 283.25 93.638438 
L 293.425 97.997898 
L 303.6 88.794595 
L 313.775 97.997898 
L 323.95 98.482282 
L 334.125 96.06036 
L 344.3 91.700901 
L 354.475 82.497598 
L 364.65 77.169369 
L 374.825 94.607207 
L 385 87.825826 
L 395.175 86.857057 
L 405.35 75.231832 
L 415.525 83.466366 
L 425.7 79.591291 
L 435.875 76.684985 
L 446.05 81.528829 
L 456.225 83.466366 
L 466.4 86.857057 
" clip-path="url(#pdcceedff29)" style="fill: none; stroke: #3b9886; stroke-opacity: 0.5; stroke-width: 0.5; stroke-linecap: round"/>
   </g>
   <g id="line2d_24">
    <path d="M 69.575 99.451051 
L 79.75 81.528829 
L 89.925 85.403904 
L 100.1 93.638438 
L 110.275 86.372673 
L 120.45 87.825826 
L 130.625 90.732132 
L 140.8 85.403904 
L 150.975 88.794595 
L 161.15 87.341441 
L 171.325 93.638438 
L 181.5 77.653754 
L 191.675 89.278979 
L 201.85 87.341441 
L 212.025 83.466366 
L 222.2 88.31021 
L 232.375 93.638438 
L 242.55 90.732132 
L 252.725 106.232432 
L 262.9 109.623123 
L 273.075 115.92012 
L 283.25 115.435736 
L 293.425 115.435736 
L 303.6 107.685586 
L 313.775 105.263664 
L 323.95 102.841742 
L 334.125 100.41982 
L 344.3 95.575976 
L 354.475 97.997898 
L 364.65 97.997898 
L 374.825 88.31021 
L 385 95.575976 
L 395.175 86.372673 
L 405.35 87.825826 
L 415.525 88.31021 
L 425.7 84.91952 
L 435.875 87.341441 
L 446.05 91.216517 
L 456.225 84.435135 
L 466.4 87.825826 
" clip-path="url(#pdcceedff29)" style="fill: none; stroke: #3b9886; stroke-opacity: 0.5; stroke-width: 0.5; stroke-linecap: round"/>
   </g>
   <g id="line2d_25">
    <path d="M 69.575 110.107508 
L 79.75 102.357357 
L 89.925 113.013814 
L 100.1 106.232432 
L 110.275 113.013814 
L 120.45 110.107508 
L 130.625 104.294895 
L 140.8 96.544745 
L 150.975 102.841742 
L 161.15 94.122823 
L 171.325 98.482282 
L 181.5 97.029129 
L 191.675 99.935435 
L 201.85 102.357357 
L 212.025 94.122823 
L 222.2 108.654354 
L 232.375 105.263664 
L 242.55 115.435736 
L 252.725 129.967267 
L 262.9 132.873574 
L 273.075 137.717417 
L 283.25 137.233033 
L 293.425 131.904805 
L 303.6 120.763964 
L 313.775 116.888889 
L 323.95 118.342042 
L 334.125 110.107508 
L 344.3 109.138739 
L 354.475 102.841742 
L 364.65 111.076276 
L 374.825 101.388589 
L 385 101.872973 
L 395.175 90.247748 
L 405.35 95.575976 
L 415.525 97.029129 
L 425.7 95.575976 
L 435.875 106.716817 
L 446.05 110.591892 
L 456.225 105.748048 
L 466.4 111.076276 
" clip-path="url(#pdcceedff29)" style="fill: none; stroke: #3b9886; stroke-opacity: 0.5; stroke-width: 0.5; stroke-linecap: round"/>
   </g>
   <g id="line2d_26">
    <path d="M 69.575 96.383283 
L 79.75 89.117518 
L 89.925 95.414515 
L 100.1 91.700901 
L 110.275 92.992593 
L 120.45 95.575976 
L 130.625 93.476977 
L 140.8 89.763363 
L 150.975 94.768669 
L 161.15 90.570671 
L 171.325 90.893594 
L 181.5 85.403904 
L 191.675 91.377978 
L 201.85 92.992593 
L 212.025 89.924825 
L 222.2 89.924825 
L 232.375 91.216517 
L 242.55 95.414515 
L 252.725 105.102202 
L 262.9 109.784585 
L 273.075 117.373273 
L 283.25 115.435736 
L 293.425 115.112813 
L 303.6 105.748048 
L 313.775 106.716817 
L 323.95 106.555355 
L 334.125 102.195896 
L 344.3 98.805205 
L 354.475 94.445746 
L 364.65 95.414515 
L 374.825 94.768669 
L 385 95.091592 
L 395.175 87.825826 
L 405.35 86.211211 
L 415.525 89.601902 
L 425.7 86.695596 
L 435.875 90.247748 
L 446.05 94.445746 
L 456.225 91.216517 
L 466.4 95.253053 
" clip-path="url(#pdcceedff29)" style="fill: none; stroke: #3b9886; stroke-width: 2.5; stroke-linecap: round"/>
   </g>
   <g id="line2d_27">
    <path d="M 69.575 134.811111 
L 79.75 132.873574 
L 89.925 135.77988 
L 100.1 131.904805 
L 110.275 135.295495 
L 120.45 141.108108 
L 130.625 142.561261 
L 140.8 130.936036 
L 150.975 136.264264 
L 161.15 140.623724 
L 171.325 134.326727 
L 181.5 134.326727 
L 191.675 144.498799 
L 201.85 141.108108 
L 212.025 139.170571 
L 222.2 148.858258 
L 232.375 162.421021 
L 242.55 167.264865 
L 252.725 174.530631 
L 262.9 177.436937 
L 273.075 179.858859 
L 283.25 171.624324 
L 293.425 175.499399 
L 303.6 161.936637 
L 313.775 159.999099 
L 323.95 149.342643 
L 334.125 145.467568 
L 344.3 144.983183 
L 354.475 139.170571 
L 364.65 144.014414 
L 374.825 137.233033 
L 385 138.686186 
L 395.175 134.326727 
L 405.35 133.357958 
L 415.525 136.264264 
L 425.7 131.904805 
L 435.875 139.654955 
L 446.05 134.326727 
L 456.225 132.873574 
L 466.4 131.42042 
" clip-path="url(#pdcceedff29)" style="fill: none; stroke: #f7b846; stroke-opacity: 0.5; stroke-width: 0.5; stroke-linecap: round"/>
   </g>
   <g id="line2d_28">
    <path d="M 69.575 180.827628 
L 79.75 184.218318 
L 89.925 180.827628 
L 100.1 178.89009 
L 110.275 186.155856 
L 120.45 185.187087 
L 130.625 174.530631 
L 140.8 185.671471 
L 150.975 177.921321 
L 161.15 178.89009 
L 171.325 158.061562 
L 181.5 164.358559 
L 191.675 160.483483 
L 201.85 176.468168 
L 212.025 176.952553 
L 222.2 195.359159 
L 232.375 210.375075 
L 242.55 217.156456 
L 252.725 220.062763 
L 262.9 221.515916 
L 273.075 219.578378 
L 283.25 214.734535 
L 293.425 205.046847 
L 303.6 193.421622 
L 313.775 192.452853 
L 323.95 183.24955 
L 334.125 184.218318 
L 344.3 170.655556 
L 354.475 182.280781 
L 364.65 179.858859 
L 374.825 171.624324 
L 385 175.015015 
L 395.175 179.374474 
L 405.35 175.499399 
L 415.525 179.858859 
L 425.7 186.155856 
L 435.875 177.436937 
L 446.05 176.952553 
L 456.225 186.155856 
L 466.4 183.733934 
" clip-path="url(#pdcceedff29)" style="fill: none; stroke: #f7b846; stroke-opacity: 0.5; stroke-width: 0.5; stroke-linecap: round"/>
   </g>
   <g id="line2d_29">
    <path d="M 69.575 205.046847 
L 79.75 211.343844 
L 89.925 207.953153 
L 100.1 206.984384 
L 110.275 214.734535 
L 120.45 220.547147 
L 130.625 211.828228 
L 140.8 217.156456 
L 150.975 213.281381 
L 161.15 222.0003 
L 171.325 225.390991 
L 181.5 229.266066 
L 191.675 242.344444 
L 201.85 252.032132 
L 212.025 264.141742 
L 222.2 272.860661 
L 232.375 271.891892 
L 242.55 270.438739 
L 252.725 272.376276 
L 262.9 259.782282 
L 273.075 251.063363 
L 283.25 240.891291 
L 293.425 240.891291 
L 303.6 228.781682 
L 313.775 216.672072 
L 323.95 220.547147 
L 334.125 218.60961 
L 344.3 225.390991 
L 354.475 209.890691 
L 364.65 217.640841 
L 374.825 218.60961 
L 385 218.125225 
L 395.175 212.312613 
L 405.35 210.859459 
L 415.525 222.484685 
L 425.7 215.703303 
L 435.875 215.703303 
L 446.05 216.672072 
L 456.225 211.828228 
L 466.4 215.218919 
" clip-path="url(#pdcceedff29)" style="fill: none; stroke: #f7b846; stroke-opacity: 0.5; stroke-width: 0.5; stroke-linecap: round"/>
   </g>
   <g id="line2d_30">
    <path d="M 69.575 173.561862 
L 79.75 176.145245 
L 89.925 174.853554 
L 100.1 172.593093 
L 110.275 178.728629 
L 120.45 182.280781 
L 130.625 176.306707 
L 140.8 177.921321 
L 150.975 175.822322 
L 161.15 180.504705 
L 171.325 172.593093 
L 181.5 175.983784 
L 191.675 182.442242 
L 201.85 189.869469 
L 212.025 193.421622 
L 222.2 205.692693 
L 232.375 214.895996 
L 242.55 218.286687 
L 252.725 222.323223 
L 262.9 219.578378 
L 273.075 216.833534 
L 283.25 209.083383 
L 293.425 207.145846 
L 303.6 194.713313 
L 313.775 189.708008 
L 323.95 184.37978 
L 334.125 182.765165 
L 344.3 180.343243 
L 354.475 177.114014 
L 364.65 180.504705 
L 374.825 175.822322 
L 385 177.275475 
L 395.175 175.337938 
L 405.35 173.238939 
L 415.525 179.535936 
L 425.7 177.921321 
L 435.875 177.598398 
L 446.05 175.983784 
L 456.225 176.952553 
L 466.4 176.791091 
" clip-path="url(#pdcceedff29)" style="fill: none; stroke: #f7b846; stroke-width: 2.5; stroke-linecap: round"/>
   </g>
   <g id="line2d_31">
    <path d="M 69.575 214.734535 
L 79.75 216.672072 
L 89.925 219.578378 
L 100.1 211.828228 
L 110.275 210.859459 
L 120.45 201.656156 
L 130.625 209.406306 
L 140.8 267.048048 
L 150.975 239.922523 
L 161.15 231.203604 
L 171.325 216.672072 
L 181.5 218.60961 
L 191.675 214.25015 
L 201.85 209.890691 
L 212.025 214.25015 
L 222.2 216.672072 
L 232.375 205.531231 
L 242.55 206.015616 
L 252.725 203.109309 
L 262.9 198.74985 
L 273.075 207.468769 
L 283.25 203.109309 
L 293.425 201.171772 
L 303.6 195.359159 
L 313.775 199.718619 
L 323.95 195.843544 
L 334.125 195.843544 
L 344.3 197.781081 
L 354.475 196.327928 
L 364.65 204.562462 
L 374.825 200.687387 
L 385 194.874775 
L 395.175 205.046847 
L 405.35 203.593694 
L 415.525 196.812312 
L 425.7 204.078078 
L 435.875 205.531231 
L 446.05 213.281381 
L 456.225 207.953153 
L 466.4 201.656156 
" clip-path="url(#pdcceedff29)" style="fill: none; stroke: #7a77ab; stroke-opacity: 0.5; stroke-width: 0.5; stroke-linecap: round"/>
   </g>
   <g id="line2d_32">
    <path d="M 69.575 184.218318 
L 79.75 184.702703 
L 89.925 188.577778 
L 100.1 182.765165 
L 110.275 193.906006 
L 120.45 193.906006 
L 130.625 200.687387 
L 140.8 197.296697 
L 150.975 191.484084 
L 161.15 202.140541 
L 171.325 197.296697 
L 181.5 189.062162 
L 191.675 202.140541 
L 201.85 197.296697 
L 212.025 194.39039 
L 222.2 197.296697 
L 232.375 201.656156 
L 242.55 203.109309 
L 252.725 203.593694 
L 262.9 211.343844 
L 273.075 216.187688 
L 283.25 218.125225 
L 293.425 216.672072 
L 303.6 214.25015 
L 313.775 200.687387 
L 323.95 198.74985 
L 334.125 205.046847 
L 344.3 186.64024 
L 354.475 186.64024 
L 364.65 176.468168 
L 374.825 184.218318 
L 385 201.656156 
L 395.175 201.656156 
L 405.35 197.296697 
L 415.525 192.937237 
L 425.7 189.546547 
L 435.875 192.937237 
L 446.05 187.124625 
L 456.225 189.546547 
L 466.4 188.577778 
" clip-path="url(#pdcceedff29)" style="fill: none; stroke: #7a77ab; stroke-opacity: 0.5; stroke-width: 0.5; stroke-linecap: round"/>
   </g>
   <g id="line2d_33">
    <path d="M 69.575 159.514715 
L 79.75 165.327327 
L 89.925 167.749249 
L 100.1 162.905405 
L 110.275 169.686787 
L 120.45 175.983784 
L 130.625 175.499399 
L 140.8 175.015015 
L 150.975 166.78048 
L 161.15 171.624324 
L 171.325 182.280781 
L 181.5 175.499399 
L 191.675 177.436937 
L 201.85 173.561862 
L 212.025 168.718018 
L 222.2 173.077477 
L 232.375 180.343243 
L 242.55 182.280781 
L 252.725 184.702703 
L 262.9 187.609009 
L 273.075 189.062162 
L 283.25 184.702703 
L 293.425 182.280781 
L 303.6 172.108709 
L 313.775 174.046246 
L 323.95 163.874174 
L 334.125 171.624324 
L 344.3 163.38979 
L 354.475 155.63964 
L 364.65 154.670871 
L 374.825 156.124024 
L 385 159.999099 
L 395.175 150.311411 
L 405.35 162.905405 
L 415.525 168.233634 
L 425.7 158.545946 
L 435.875 148.373874 
L 446.05 153.702102 
L 456.225 156.608408 
L 466.4 151.28018 
" clip-path="url(#pdcceedff29)" style="fill: none; stroke: #7a77ab; stroke-opacity: 0.5; stroke-width: 0.5; stroke-linecap: round"/>
   </g>
   <g id="line2d_34">
    <path d="M 69.575 186.155856 
L 79.75 188.900701 
L 89.925 191.968468 
L 100.1 185.832933 
L 110.275 191.484084 
L 120.45 190.515315 
L 130.625 195.197698 
L 140.8 213.11992 
L 150.975 199.395696 
L 161.15 201.656156 
L 171.325 198.74985 
L 181.5 194.39039 
L 191.675 197.942543 
L 201.85 193.583083 
L 212.025 192.452853 
L 222.2 195.682082 
L 232.375 195.843544 
L 242.55 197.135235 
L 252.725 197.135235 
L 262.9 199.234234 
L 273.075 204.23954 
L 283.25 201.979079 
L 293.425 200.041542 
L 303.6 193.906006 
L 313.775 191.484084 
L 323.95 186.155856 
L 334.125 190.838238 
L 344.3 182.603704 
L 354.475 179.535936 
L 364.65 178.567167 
L 374.825 180.343243 
L 385 185.51001 
L 395.175 185.671471 
L 405.35 187.931932 
L 415.525 185.994394 
L 425.7 184.056857 
L 435.875 182.280781 
L 446.05 184.702703 
L 456.225 184.702703 
L 466.4 180.504705 
" clip-path="url(#pdcceedff29)" style="fill: none; stroke: #7a77ab; stroke-width: 2.5; stroke-linecap: round"/>
   </g>
   <g id="line2d_35">
    <path d="M 69.575 126.092192 
L 79.75 130.451652 
L 89.925 123.185886 
L 100.1 128.02973 
L 110.275 129.967267 
L 120.45 128.02973 
L 130.625 126.092192 
L 140.8 127.545345 
L 150.975 118.826426 
L 161.15 127.545345 
L 171.325 133.357958 
L 181.5 138.686186 
L 191.675 141.592492 
L 201.85 143.53003 
L 212.025 155.63964 
L 222.2 168.233634 
L 232.375 177.436937 
L 242.55 177.921321 
L 252.725 179.858859 
L 262.9 177.436937 
L 273.075 180.343243 
L 283.25 158.061562 
L 293.425 159.03033 
L 303.6 153.217718 
L 313.775 138.201802 
L 323.95 129.482883 
L 334.125 135.295495 
L 344.3 120.763964 
L 354.475 126.576577 
L 364.65 125.123423 
L 374.825 118.342042 
L 385 122.217117 
L 395.175 109.623123 
L 405.35 129.967267 
L 415.525 120.27958 
L 425.7 125.607808 
L 435.875 120.27958 
L 446.05 118.342042 
L 456.225 121.732733 
L 466.4 127.060961 
" clip-path="url(#pdcceedff29)" style="fill: none; stroke: #f898ae; stroke-opacity: 0.5; stroke-width: 0.5; stroke-linecap: round"/>
   </g>
   <g id="line2d_36">
    <path d="M 69.575 88.31021 
L 79.75 82.013213 
L 89.925 83.466366 
L 100.1 84.91952 
L 110.275 87.825826 
L 120.45 84.435135 
L 130.625 96.544745 
L 140.8 92.185285 
L 150.975 93.154054 
L 161.15 94.607207 
L 171.325 86.372673 
L 181.5 84.91952 
L 191.675 95.575976 
L 201.85 102.841742 
L 212.025 103.810511 
L 222.2 114.951351 
L 232.375 128.02973 
L 242.55 138.201802 
L 252.725 140.139339 
L 262.9 154.670871 
L 273.075 162.421021 
L 283.25 157.577177 
L 293.425 159.03033 
L 303.6 149.342643 
L 313.775 132.389189 
L 323.95 124.639039 
L 334.125 125.123423 
L 344.3 105.263664 
L 354.475 103.326126 
L 364.65 101.388589 
L 374.825 91.700901 
L 385 99.935435 
L 395.175 85.888288 
L 405.35 89.278979 
L 415.525 93.154054 
L 425.7 96.06036 
L 435.875 92.66967 
L 446.05 96.06036 
L 456.225 84.435135 
L 466.4 86.372673 
" clip-path="url(#pdcceedff29)" style="fill: none; stroke: #f898ae; stroke-opacity: 0.5; stroke-width: 0.5; stroke-linecap: round"/>
   </g>
   <g id="line2d_37">
    <path d="M 69.575 79.591291 
L 79.75 77.169369 
L 89.925 87.341441 
L 100.1 89.763363 
L 110.275 90.732132 
L 120.45 87.825826 
L 130.625 83.950751 
L 140.8 93.638438 
L 150.975 89.278979 
L 161.15 94.122823 
L 171.325 96.06036 
L 181.5 97.513514 
L 191.675 96.544745 
L 201.85 100.41982 
L 212.025 110.591892 
L 222.2 119.310811 
L 232.375 129.967267 
L 242.55 140.623724 
L 252.725 144.498799 
L 262.9 170.655556 
L 273.075 171.13994 
L 283.25 161.452252 
L 293.425 166.296096 
L 303.6 154.670871 
L 313.775 144.014414 
L 323.95 120.763964 
L 334.125 122.701502 
L 344.3 117.373273 
L 354.475 102.357357 
L 364.65 103.810511 
L 374.825 98.966667 
L 385 99.935435 
L 395.175 93.638438 
L 405.35 91.700901 
L 415.525 97.029129 
L 425.7 92.185285 
L 435.875 99.935435 
L 446.05 85.403904 
L 456.225 85.888288 
L 466.4 85.888288 
" clip-path="url(#pdcceedff29)" style="fill: none; stroke: #f898ae; stroke-opacity: 0.5; stroke-width: 0.5; stroke-linecap: round"/>
   </g>
   <g id="line2d_38">
    <path d="M 69.575 97.997898 
L 79.75 96.544745 
L 89.925 97.997898 
L 100.1 100.904204 
L 110.275 102.841742 
L 120.45 100.096897 
L 130.625 102.195896 
L 140.8 104.456356 
L 150.975 100.41982 
L 161.15 105.425125 
L 171.325 105.263664 
L 181.5 107.03974 
L 191.675 111.237738 
L 201.85 115.597197 
L 212.025 123.347347 
L 222.2 134.165265 
L 232.375 145.144645 
L 242.55 152.248949 
L 252.725 154.832332 
L 262.9 167.587788 
L 273.075 171.301401 
L 283.25 159.03033 
L 293.425 161.452252 
L 303.6 152.41041 
L 313.775 138.201802 
L 323.95 124.961962 
L 334.125 127.706807 
L 344.3 114.466967 
L 354.475 110.753353 
L 364.65 110.107508 
L 374.825 103.003203 
L 385 107.362663 
L 395.175 96.383283 
L 405.35 103.649049 
L 415.525 103.487588 
L 425.7 104.617818 
L 435.875 104.294895 
L 446.05 99.935435 
L 456.225 97.352052 
L 466.4 99.773974 
" clip-path="url(#pdcceedff29)" style="fill: none; stroke: #f898ae; stroke-width: 2.5; stroke-linecap: round"/>
   </g>
   <g id="line2d_39">
    <path d="M 69.575 87.341441 
L 79.75 86.857057 
L 89.925 96.544745 
L 100.1 93.154054 
L 110.275 99.935435 
L 120.45 99.451051 
L 130.625 101.388589 
L 140.8 112.529429 
L 150.975 105.748048 
L 161.15 105.748048 
L 171.325 107.685586 
L 181.5 115.92012 
L 191.675 122.701502 
L 201.85 120.763964 
L 212.025 141.108108 
L 222.2 164.358559 
L 232.375 176.468168 
L 242.55 200.687387 
L 252.725 215.703303 
L 262.9 219.093994 
L 273.075 233.141141 
L 283.25 224.906607 
L 293.425 232.656757 
L 303.6 222.484685 
L 313.775 193.906006 
L 323.95 180.827628 
L 334.125 162.421021 
L 344.3 143.045646 
L 354.475 136.748649 
L 364.65 116.404505 
L 374.825 113.498198 
L 385 100.41982 
L 395.175 100.904204 
L 405.35 101.388589 
L 415.525 87.825826 
L 425.7 103.326126 
L 435.875 97.029129 
L 446.05 96.06036 
L 456.225 88.31021 
L 466.4 95.091592 
" clip-path="url(#pdcceedff29)" style="fill: none; stroke: #73b5e3; stroke-opacity: 0.5; stroke-width: 0.5; stroke-linecap: round"/>
   </g>
   <g id="line2d_40">
    <path d="M 69.575 102.841742 
L 79.75 95.091592 
L 89.925 98.482282 
L 100.1 98.966667 
L 110.275 100.904204 
L 120.45 92.185285 
L 130.625 102.357357 
L 140.8 103.326126 
L 150.975 108.654354 
L 161.15 98.966667 
L 171.325 113.013814 
L 181.5 121.732733 
L 191.675 127.545345 
L 201.85 142.076877 
L 212.025 154.670871 
L 222.2 168.718018 
L 232.375 195.359159 
L 242.55 207.953153 
L 252.725 227.328529 
L 262.9 231.687988 
L 273.075 238.953754 
L 283.25 238.953754 
L 293.425 230.719219 
L 303.6 224.906607 
L 313.775 208.437538 
L 323.95 201.171772 
L 334.125 181.312012 
L 344.3 147.889489 
L 354.475 139.654955 
L 364.65 134.326727 
L 374.825 117.857658 
L 385 106.232432 
L 395.175 108.654354 
L 405.35 111.560661 
L 415.525 113.013814 
L 425.7 104.779279 
L 435.875 105.748048 
L 446.05 96.544745 
L 456.225 91.700901 
L 466.4 99.935435 
" clip-path="url(#pdcceedff29)" style="fill: none; stroke: #73b5e3; stroke-opacity: 0.5; stroke-width: 0.5; stroke-linecap: round"/>
   </g>
   <g id="line2d_41">
    <path d="M 69.575 117.373273 
L 79.75 108.16997 
L 89.925 114.951351 
L 100.1 109.138739 
L 110.275 121.248348 
L 120.45 117.373273 
L 130.625 116.404505 
L 140.8 121.732733 
L 150.975 116.888889 
L 161.15 114.466967 
L 171.325 116.404505 
L 181.5 113.498198 
L 191.675 119.795195 
L 201.85 132.389189 
L 212.025 145.467568 
L 222.2 162.905405 
L 232.375 188.577778 
L 242.55 212.312613 
L 252.725 222.969069 
L 262.9 237.984985 
L 273.075 249.61021 
L 283.25 245.735135 
L 293.425 240.891291 
L 303.6 230.719219 
L 313.775 213.765766 
L 323.95 186.64024 
L 334.125 159.514715 
L 344.3 155.155255 
L 354.475 137.233033 
L 364.65 131.42042 
L 374.825 128.998498 
L 385 122.701502 
L 395.175 116.888889 
L 405.35 101.388589 
L 415.525 81.044444 
L 425.7 87.825826 
L 435.875 101.872973 
L 446.05 110.107508 
L 456.225 124.639039 
L 466.4 114.951351 
" clip-path="url(#pdcceedff29)" style="fill: none; stroke: #73b5e3; stroke-opacity: 0.5; stroke-width: 0.5; stroke-linecap: round"/>
   </g>
   <g id="line2d_42">
    <path d="M 69.575 102.518819 
L 79.75 96.706206 
L 89.925 103.326126 
L 100.1 100.41982 
L 110.275 107.362663 
L 120.45 103.003203 
L 130.625 106.716817 
L 140.8 112.529429 
L 150.975 110.43043 
L 161.15 106.393894 
L 171.325 112.367968 
L 181.5 117.05035 
L 191.675 123.347347 
L 201.85 131.743343 
L 212.025 147.082182 
L 222.2 165.327327 
L 232.375 186.801702 
L 242.55 206.984384 
L 252.725 222.0003 
L 262.9 229.588989 
L 273.075 240.568368 
L 283.25 236.531832 
L 293.425 234.755756 
L 303.6 226.036837 
L 313.775 205.36977 
L 323.95 189.546547 
L 334.125 167.749249 
L 344.3 148.696797 
L 354.475 137.878879 
L 364.65 127.383884 
L 374.825 120.118118 
L 385 109.784585 
L 395.175 108.815816 
L 405.35 104.779279 
L 415.525 93.961361 
L 425.7 98.643744 
L 435.875 101.55005 
L 446.05 100.904204 
L 456.225 101.55005 
L 466.4 103.326126 
" clip-path="url(#pdcceedff29)" style="fill: none; stroke: #73b5e3; stroke-width: 2.5; stroke-linecap: round"/>
   </g>
   <g id="line2d_43">
    <path d="M 69.575 189.062162 
L 79.75 206.015616 
L 89.925 204.078078 
L 100.1 197.781081 
L 110.275 206.984384 
L 120.45 201.656156 
L 130.625 211.828228 
L 140.8 207.468769 
L 150.975 210.375075 
L 161.15 206.015616 
L 171.325 200.687387 
L 181.5 209.406306 
L 191.675 209.406306 
L 201.85 211.828228 
L 212.025 203.593694 
L 222.2 197.296697 
L 232.375 206.015616 
L 242.55 210.859459 
L 252.725 204.078078 
L 262.9 211.828228 
L 273.075 216.187688 
L 283.25 211.828228 
L 293.425 222.484685 
L 303.6 216.187688 
L 313.775 222.484685 
L 323.95 222.969069 
L 334.125 224.422222 
L 344.3 232.656757 
L 354.475 229.266066 
L 364.65 235.078679 
L 374.825 231.687988 
L 385 197.781081 
L 395.175 186.155856 
L 405.35 187.609009 
L 415.525 195.359159 
L 425.7 183.24955 
L 435.875 193.421622 
L 446.05 198.74985 
L 456.225 190.9997 
L 466.4 192.452853 
" clip-path="url(#pdcceedff29)" style="fill: none; stroke: #ffb984; stroke-opacity: 0.5; stroke-width: 0.5; stroke-linecap: round"/>
   </g>
   <g id="line2d_44">
    <path d="M 69.575 261.235435 
L 79.75 222.969069 
L 89.925 214.25015 
L 100.1 214.734535 
L 110.275 211.828228 
L 120.45 220.062763 
L 130.625 225.390991 
L 140.8 232.656757 
L 150.975 232.172372 
L 161.15 239.922523 
L 171.325 237.984985 
L 181.5 240.891291 
L 191.675 237.500601 
L 201.85 236.047447 
L 212.025 238.953754 
L 222.2 241.86006 
L 232.375 241.375676 
L 242.55 243.797598 
L 252.725 242.344444 
L 262.9 238.469369 
L 273.075 244.766366 
L 283.25 240.406907 
L 293.425 234.594294 
L 303.6 233.625526 
L 313.775 234.10991 
L 323.95 229.266066 
L 334.125 233.141141 
L 344.3 224.422222 
L 354.475 229.75045 
L 364.65 229.75045 
L 374.825 238.953754 
L 385 231.687988 
L 395.175 234.594294 
L 405.35 249.61021 
L 415.525 245.735135 
L 425.7 248.641441 
L 435.875 242.344444 
L 446.05 245.250751 
L 456.225 254.454054 
L 466.4 251.063363 
" clip-path="url(#pdcceedff29)" style="fill: none; stroke: #ffb984; stroke-opacity: 0.5; stroke-width: 0.5; stroke-linecap: round"/>
   </g>
   <g id="line2d_45">
    <path d="M 69.575 228.781682 
L 79.75 228.781682 
L 89.925 239.922523 
L 100.1 245.250751 
L 110.275 239.438138 
L 120.45 242.828829 
L 130.625 245.735135 
L 140.8 246.703904 
L 150.975 251.063363 
L 161.15 256.391592 
L 171.325 237.984985 
L 181.5 234.10991 
L 191.675 235.563063 
L 201.85 237.984985 
L 212.025 239.922523 
L 222.2 232.656757 
L 232.375 230.719219 
L 242.55 245.250751 
L 252.725 237.984985 
L 262.9 237.016216 
L 273.075 241.86006 
L 283.25 238.953754 
L 293.425 237.500601 
L 303.6 233.141141 
L 313.775 239.438138 
L 323.95 235.078679 
L 334.125 237.500601 
L 344.3 234.10991 
L 354.475 240.406907 
L 364.65 235.078679 
L 374.825 233.141141 
L 385 237.984985 
L 395.175 233.625526 
L 405.35 232.172372 
L 415.525 235.078679 
L 425.7 240.891291 
L 435.875 232.656757 
L 446.05 240.406907 
L 456.225 225.875375 
L 466.4 238.469369 
" clip-path="url(#pdcceedff29)" style="fill: none; stroke: #ffb984; stroke-opacity: 0.5; stroke-width: 0.5; stroke-linecap: round"/>
   </g>
   <g id="line2d_46">
    <path d="M 69.575 226.35976 
L 79.75 219.255455 
L 89.925 219.416917 
L 100.1 219.255455 
L 110.275 219.416917 
L 120.45 221.515916 
L 130.625 227.651451 
L 140.8 228.943143 
L 150.975 231.203604 
L 161.15 234.10991 
L 171.325 225.552452 
L 181.5 228.135836 
L 191.675 227.48999 
L 201.85 228.62022 
L 212.025 227.48999 
L 222.2 223.937838 
L 232.375 226.036837 
L 242.55 233.302603 
L 252.725 228.135836 
L 262.9 229.104605 
L 273.075 234.271371 
L 283.25 230.396296 
L 293.425 231.526527 
L 303.6 227.651451 
L 313.775 232.010911 
L 323.95 229.104605 
L 334.125 231.687988 
L 344.3 230.396296 
L 354.475 233.141141 
L 364.65 233.302603 
L 374.825 234.594294 
L 385 222.484685 
L 395.175 218.125225 
L 405.35 223.130531 
L 415.525 225.390991 
L 425.7 224.260761 
L 435.875 222.807608 
L 446.05 228.135836 
L 456.225 223.776376 
L 466.4 227.328529 
" clip-path="url(#pdcceedff29)" style="fill: none; stroke: #ffb984; stroke-width: 2.5; stroke-linecap: round"/>
   </g>
   <g id="patch_3">
    <path d="M 69.575 367.8 
L 69.575 45.2 
" style="fill: none; stroke: #000000; stroke-width: 0.75; stroke-linejoin: miter; stroke-linecap: square"/>
   </g>
   <g id="patch_4">
    <path d="M 69.575 367.8 
L 466.4 367.8 
" style="fill: none; stroke: #000000; stroke-width: 0.75; stroke-linejoin: miter; stroke-linecap: square"/>
   </g>
   <g id="text_17">
    <text style="font: 500 18px &quot;Suisse Int&apos;l&quot;, sans-serif; text-anchor: middle" x="267.9875" y="29.2" transform="rotate(-0 267.9875 29.2)">Normalized Spatial Density of Cells in a Conical Well : CC-125</text>
   </g>
   <g id="legend_1">
    <g id="line2d_47">
     <path d="M 486.24125 51.575 
L 493.74125 51.575 
L 501.24125 51.575 
" style="fill: none; stroke: #5088c5; stroke-width: 2.5; stroke-linecap: round"/>
    </g>
    <g id="text_18">
     <text style="font: 15px &quot;Suisse Int&apos;l&quot;, sans-serif; text-anchor: start" x="507.24125" y="57.95" transform="rotate(-0 507.24125 57.95)">water Average</text>
    </g>
    <g id="line2d_48">
     <path d="M 486.24125 74.644531 
L 493.74125 74.644531 
L 501.24125 74.644531 
" style="fill: none; stroke: #f28360; stroke-width: 2.5; stroke-linecap: round"/>
    </g>
    <g id="text_19">
     <text style="font: 15px &quot;Suisse Int&apos;l&quot;, sans-serif; text-anchor: start" x="507.24125" y="81.019531" transform="rotate(-0 507.24125 81.019531)">0.1% DMSO Average</text>
    </g>
    <g id="line2d_49">
     <path d="M 486.24125 97.714062 
L 493.74125 97.714062 
L 501.24125 97.714062 
" style="fill: none; stroke: #3b9886; stroke-width: 2.5; stroke-linecap: round"/>
    </g>
    <g id="text_20">
     <text style="font: 15px &quot;Suisse Int&apos;l&quot;, sans-serif; text-anchor: start" x="507.24125" y="104.089062" transform="rotate(-0 507.24125 104.089062)">50 µM Torin2 Average</text>
    </g>
    <g id="line2d_50">
     <path d="M 486.24125 120.783594 
L 493.74125 120.783594 
L 501.24125 120.783594 
" style="fill: none; stroke: #f7b846; stroke-width: 2.5; stroke-linecap: round"/>
    </g>
    <g id="text_21">
     <text style="font: 15px &quot;Suisse Int&apos;l&quot;, sans-serif; text-anchor: start" x="507.24125" y="127.158594" transform="rotate(-0 507.24125 127.158594)">50 µM TAK-063 Average</text>
    </g>
    <g id="line2d_51">
     <path d="M 486.24125 143.853125 
L 493.74125 143.853125 
L 501.24125 143.853125 
" style="fill: none; stroke: #7a77ab; stroke-width: 2.5; stroke-linecap: round"/>
    </g>
    <g id="text_22">
     <text style="font: 15px &quot;Suisse Int&apos;l&quot;, sans-serif; text-anchor: start" x="507.24125" y="150.228125" transform="rotate(-0 507.24125 150.228125)">50 µM Dynarrestin Average</text>
    </g>
    <g id="line2d_52">
     <path d="M 486.24125 166.922656 
L 493.74125 166.922656 
L 501.24125 166.922656 
" style="fill: none; stroke: #f898ae; stroke-width: 2.5; stroke-linecap: round"/>
    </g>
    <g id="text_23">
     <text style="font: 15px &quot;Suisse Int&apos;l&quot;, sans-serif; text-anchor: start" x="507.24125" y="173.297656" transform="rotate(-0 507.24125 173.297656)">50 µM ATP Average</text>
    </g>
    <g id="line2d_53">
     <path d="M 486.24125 189.992187 
L 493.74125 189.992187 
L 501.24125 189.992187 
" style="fill: none; stroke: #73b5e3; stroke-width: 2.5; stroke-linecap: round"/>
    </g>
    <g id="text_24">
     <text style="font: 15px &quot;Suisse Int&apos;l&quot;, sans-serif; text-anchor: start" x="507.24125" y="196.367187" transform="rotate(-0 507.24125 196.367187)">50 µM Linsitinib Average</text>
    </g>
    <g id="line2d_54">
     <path d="M 486.24125 213.061719 
L 493.74125 213.061719 
L 501.24125 213.061719 
" style="fill: none; stroke: #ffb984; stroke-width: 2.5; stroke-linecap: round"/>
    </g>
    <g id="text_25">
     <text style="font: 15px &quot;Suisse Int&apos;l&quot;, sans-serif; text-anchor: start" x="507.24125" y="219.436719" transform="rotate(-0 507.24125 219.436719)">50 µM Ibudilast Average</text>
    </g>
   </g>
  </g>
 </g>
 <defs>
  <clipPath id="pdcceedff29">
   <rect x="69.575" y="45.2" width="396.825" height="322.6"/>
  </clipPath>
 </defs>
</svg>
