<?xml version="1.0" encoding="utf-8" standalone="no"?>
<!DOCTYPE svg PUBLIC "-//W3C//DTD SVG 1.1//EN"
  "http://www.w3.org/Graphics/SVG/1.1/DTD/svg11.dtd">
<svg xmlns:xlink="http://www.w3.org/1999/xlink" width="720pt" height="432pt" viewBox="0 0 720 432" xmlns="http://www.w3.org/2000/svg" version="1.1">
 <metadata>
  <rdf:RDF xmlns:dc="http://purl.org/dc/elements/1.1/" xmlns:cc="http://creativecommons.org/ns#" xmlns:rdf="http://www.w3.org/1999/02/22-rdf-syntax-ns#">
   <cc:Work>
    <dc:type rdf:resource="http://purl.org/dc/dcmitype/StillImage"/>
    <dc:date>2024-09-11T16:11:02.746518</dc:date>
    <dc:format>image/svg+xml</dc:format>
    <dc:creator>
     <cc:Agent>
      <dc:title>Matplotlib v3.9.2, https://matplotlib.org/</dc:title>
     </cc:Agent>
    </dc:creator>
   </cc:Work>
  </rdf:RDF>
 </metadata>
 <defs>
  <style type="text/css">*{stroke-linejoin: round; stroke-linecap: butt}</style>
 </defs>
 <g id="figure_1">
  <g id="patch_1">
   <path d="M 0 432 
L 720 432 
L 720 0 
L 0 0 
L 0 432 
z
" style="fill: none"/>
  </g>
  <g id="axes_1">
   <g id="patch_2">
    <path d="M 69.575 367.8 
L 466.775 367.8 
L 466.775 45.2 
L 69.575 45.2 
L 69.575 367.8 
z
" style="fill: none"/>
   </g>
   <g id="matplotlib.axis_1">
    <g id="xtick_1">
     <g id="line2d_1">
      <defs>
       <path id="m3003f5abb8" d="M 0 0 
L 0 5 
" style="stroke: #000000; stroke-width: 0.75"/>
      </defs>
      <g>
       <use xlink:href="#m3003f5abb8" x="69.575" y="367.8" style="stroke: #000000; stroke-width: 0.75"/>
      </g>
     </g>
     <g id="text_1">
      <text style="font: 15px &quot;Suisse Int&apos;l&quot;, sans-serif; text-anchor: middle" x="69.575" y="388.675" transform="rotate(-0 69.575 388.675)">0</text>
     </g>
    </g>
    <g id="xtick_2">
     <g id="line2d_2">
      <g>
       <use xlink:href="#m3003f5abb8" x="120.498077" y="367.8" style="stroke: #000000; stroke-width: 0.75"/>
      </g>
     </g>
     <g id="text_2">
      <text style="font: 15px &quot;Suisse Int&apos;l&quot;, sans-serif; text-anchor: middle" x="120.498077" y="388.675" transform="rotate(-0 120.498077 388.675)">5</text>
     </g>
    </g>
    <g id="xtick_3">
     <g id="line2d_3">
      <g>
       <use xlink:href="#m3003f5abb8" x="171.421154" y="367.8" style="stroke: #000000; stroke-width: 0.75"/>
      </g>
     </g>
     <g id="text_3">
      <text style="font: 15px &quot;Suisse Int&apos;l&quot;, sans-serif; text-anchor: middle" x="171.421154" y="388.675" transform="rotate(-0 171.421154 388.675)">10</text>
     </g>
    </g>
    <g id="xtick_4">
     <g id="line2d_4">
      <g>
       <use xlink:href="#m3003f5abb8" x="222.344231" y="367.8" style="stroke: #000000; stroke-width: 0.75"/>
      </g>
     </g>
     <g id="text_4">
      <text style="font: 15px &quot;Suisse Int&apos;l&quot;, sans-serif; text-anchor: middle" x="222.344231" y="388.675" transform="rotate(-0 222.344231 388.675)">15</text>
     </g>
    </g>
    <g id="xtick_5">
     <g id="line2d_5">
      <g>
       <use xlink:href="#m3003f5abb8" x="273.267308" y="367.8" style="stroke: #000000; stroke-width: 0.75"/>
      </g>
     </g>
     <g id="text_5">
      <text style="font: 15px &quot;Suisse Int&apos;l&quot;, sans-serif; text-anchor: middle" x="273.267308" y="388.675" transform="rotate(-0 273.267308 388.675)">20</text>
     </g>
    </g>
    <g id="xtick_6">
     <g id="line2d_6">
      <g>
       <use xlink:href="#m3003f5abb8" x="324.190385" y="367.8" style="stroke: #000000; stroke-width: 0.75"/>
      </g>
     </g>
     <g id="text_6">
      <text style="font: 15px &quot;Suisse Int&apos;l&quot;, sans-serif; text-anchor: middle" x="324.190385" y="388.675" transform="rotate(-0 324.190385 388.675)">25</text>
     </g>
    </g>
    <g id="xtick_7">
     <g id="line2d_7">
      <g>
       <use xlink:href="#m3003f5abb8" x="375.113462" y="367.8" style="stroke: #000000; stroke-width: 0.75"/>
      </g>
     </g>
     <g id="text_7">
      <text style="font: 15px &quot;Suisse Int&apos;l&quot;, sans-serif; text-anchor: middle" x="375.113462" y="388.675" transform="rotate(-0 375.113462 388.675)">30</text>
     </g>
    </g>
    <g id="xtick_8">
     <g id="line2d_8">
      <g>
       <use xlink:href="#m3003f5abb8" x="426.036538" y="367.8" style="stroke: #000000; stroke-width: 0.75"/>
      </g>
     </g>
     <g id="text_8">
      <text style="font: 15px &quot;Suisse Int&apos;l&quot;, sans-serif; text-anchor: middle" x="426.036538" y="388.675" transform="rotate(-0 426.036538 388.675)">35</text>
     </g>
    </g>
    <g id="text_9">
     <text style="font: 500 15px &quot;Suisse Int&apos;l&quot;, sans-serif; text-anchor: middle" x="268.175" y="412.175" transform="rotate(-0 268.175 412.175)">Pixel Position</text>
    </g>
   </g>
   <g id="matplotlib.axis_2">
    <g id="ytick_1">
     <g id="line2d_9">
      <defs>
       <path id="m06c8934353" d="M 0 0 
L -5 0 
" style="stroke: #000000; stroke-width: 0.75"/>
      </defs>
      <g>
       <use xlink:href="#m06c8934353" x="69.575" y="340.674474" style="stroke: #000000; stroke-width: 0.75"/>
      </g>
     </g>
     <g id="text_10">
      <text style="font: 15px &quot;Suisse Int&apos;l&quot;, sans-serif; text-anchor: end" x="59.575" y="346.111974" transform="rotate(-0 59.575 346.111974)">10</text>
     </g>
    </g>
    <g id="ytick_2">
     <g id="line2d_10">
      <g>
       <use xlink:href="#m06c8934353" x="69.575" y="287.392192" style="stroke: #000000; stroke-width: 0.75"/>
      </g>
     </g>
     <g id="text_11">
      <text style="font: 15px &quot;Suisse Int&apos;l&quot;, sans-serif; text-anchor: end" x="59.575" y="292.829692" transform="rotate(-0 59.575 292.829692)">20</text>
     </g>
    </g>
    <g id="ytick_3">
     <g id="line2d_11">
      <g>
       <use xlink:href="#m06c8934353" x="69.575" y="234.10991" style="stroke: #000000; stroke-width: 0.75"/>
      </g>
     </g>
     <g id="text_12">
      <text style="font: 15px &quot;Suisse Int&apos;l&quot;, sans-serif; text-anchor: end" x="59.575" y="239.54741" transform="rotate(-0 59.575 239.54741)">30</text>
     </g>
    </g>
    <g id="ytick_4">
     <g id="line2d_12">
      <g>
       <use xlink:href="#m06c8934353" x="69.575" y="180.827628" style="stroke: #000000; stroke-width: 0.75"/>
      </g>
     </g>
     <g id="text_13">
      <text style="font: 15px &quot;Suisse Int&apos;l&quot;, sans-serif; text-anchor: end" x="59.575" y="186.265128" transform="rotate(-0 59.575 186.265128)">40</text>
     </g>
    </g>
    <g id="ytick_5">
     <g id="line2d_13">
      <g>
       <use xlink:href="#m06c8934353" x="69.575" y="127.545345" style="stroke: #000000; stroke-width: 0.75"/>
      </g>
     </g>
     <g id="text_14">
      <text style="font: 15px &quot;Suisse Int&apos;l&quot;, sans-serif; text-anchor: end" x="59.575" y="132.982845" transform="rotate(-0 59.575 132.982845)">50</text>
     </g>
    </g>
    <g id="ytick_6">
     <g id="line2d_14">
      <g>
       <use xlink:href="#m06c8934353" x="69.575" y="74.263063" style="stroke: #000000; stroke-width: 0.75"/>
      </g>
     </g>
     <g id="text_15">
      <text style="font: 15px &quot;Suisse Int&apos;l&quot;, sans-serif; text-anchor: end" x="59.575" y="79.700563" transform="rotate(-0 59.575 79.700563)">60</text>
     </g>
    </g>
    <g id="text_16">
     <text style="font: 500 15px &quot;Suisse Int&apos;l&quot;, sans-serif; text-anchor: middle" x="27.675" y="206.5" transform="rotate(-90 27.675 206.5)">Relative Cell Density</text>
    </g>
   </g>
   <g id="line2d_15">
    <path d="M 69.575 222.0003 
L 79.759615 216.187688 
L 89.944231 217.156456 
L 100.128846 219.093994 
L 110.313462 230.719219 
L 120.498077 220.547147 
L 130.682692 229.266066 
L 140.867308 227.328529 
L 151.051923 214.25015 
L 161.236538 210.375075 
L 171.421154 273.345045 
L 181.605769 255.422823 
L 191.790385 234.594294 
L 201.975 234.594294 
L 212.159615 220.062763 
L 222.344231 227.328529 
L 232.528846 216.672072 
L 242.713462 222.969069 
L 252.898077 217.640841 
L 263.082692 221.031532 
L 273.267308 221.515916 
L 283.451923 208.437538 
L 293.636538 214.734535 
L 303.821154 210.375075 
L 314.005769 206.5 
L 324.190385 218.60961 
L 334.375 214.734535 
L 344.559615 212.796997 
L 354.744231 196.812312 
L 364.928846 208.437538 
L 375.113462 207.953153 
L 385.298077 213.765766 
L 395.482692 208.437538 
L 405.667308 209.890691 
L 415.851923 213.765766 
L 426.036538 207.953153 
L 436.221154 207.953153 
L 446.405769 210.859459 
L 456.590385 217.640841 
L 466.775 213.765766 
" clip-path="url(#pa75b044ab9)" style="fill: none; stroke: #5088c5; stroke-opacity: 0.5; stroke-width: 0.5; stroke-linecap: round"/>
   </g>
   <g id="line2d_16">
    <path d="M 69.575 201.171772 
L 79.759615 197.296697 
L 89.944231 198.265465 
L 100.128846 182.765165 
L 110.313462 184.702703 
L 120.498077 182.280781 
L 130.682692 177.436937 
L 140.867308 189.062162 
L 151.051923 185.187087 
L 161.236538 175.983784 
L 171.421154 222.969069 
L 181.605769 220.062763 
L 191.790385 205.531231 
L 201.975 204.562462 
L 212.159615 202.140541 
L 222.344231 198.74985 
L 232.528846 195.843544 
L 242.713462 186.155856 
L 252.898077 192.452853 
L 263.082692 184.702703 
L 273.267308 197.296697 
L 283.451923 184.218318 
L 293.636538 180.343243 
L 303.821154 182.765165 
L 314.005769 181.796396 
L 324.190385 183.733934 
L 334.375 185.187087 
L 344.559615 185.187087 
L 354.744231 180.827628 
L 364.928846 187.124625 
L 375.113462 178.405706 
L 385.298077 186.155856 
L 395.482692 182.765165 
L 405.667308 186.64024 
L 415.851923 182.765165 
L 426.036538 190.515315 
L 436.221154 177.921321 
L 446.405769 180.343243 
L 456.590385 192.937237 
L 466.775 187.124625 
" clip-path="url(#pa75b044ab9)" style="fill: none; stroke: #5088c5; stroke-opacity: 0.5; stroke-width: 0.5; stroke-linecap: round"/>
   </g>
   <g id="line2d_17">
    <path d="M 69.575 150.795796 
L 79.759615 149.827027 
L 89.944231 146.920721 
L 100.128846 150.795796 
L 110.313462 151.764565 
L 120.498077 151.764565 
L 130.682692 147.405105 
L 140.867308 151.764565 
L 151.051923 154.186486 
L 161.236538 159.514715 
L 171.421154 149.342643 
L 181.605769 153.702102 
L 191.790385 142.561261 
L 201.975 156.124024 
L 212.159615 148.373874 
L 222.344231 151.28018 
L 232.528846 154.186486 
L 242.713462 157.577177 
L 252.898077 164.358559 
L 263.082692 163.38979 
L 273.267308 179.374474 
L 283.451923 165.811712 
L 293.636538 172.593093 
L 303.821154 169.202402 
L 314.005769 172.593093 
L 324.190385 173.561862 
L 334.375 163.874174 
L 344.559615 154.186486 
L 354.744231 152.248949 
L 364.928846 149.342643 
L 375.113462 157.577177 
L 385.298077 143.53003 
L 395.482692 144.014414 
L 405.667308 139.170571 
L 415.851923 140.623724 
L 426.036538 154.670871 
L 436.221154 167.264865 
L 446.405769 165.811712 
L 456.590385 166.78048 
L 466.775 155.155255 
" clip-path="url(#pa75b044ab9)" style="fill: none; stroke: #5088c5; stroke-opacity: 0.5; stroke-width: 0.5; stroke-linecap: round"/>
   </g>
   <g id="line2d_18">
    <path d="M 69.575 191.322623 
L 79.759615 187.77047 
L 89.944231 187.447548 
L 100.128846 184.218318 
L 110.313462 189.062162 
L 120.498077 184.864164 
L 130.682692 184.702703 
L 140.867308 189.385085 
L 151.051923 184.541241 
L 161.236538 181.957858 
L 171.421154 215.218919 
L 181.605769 209.729229 
L 191.790385 194.228929 
L 201.975 198.426927 
L 212.159615 190.192392 
L 222.344231 192.452853 
L 232.528846 188.900701 
L 242.713462 188.900701 
L 252.898077 191.484084 
L 263.082692 189.708008 
L 273.267308 199.395696 
L 283.451923 186.155856 
L 293.636538 189.223624 
L 303.821154 187.447548 
L 314.005769 186.963163 
L 324.190385 191.968468 
L 334.375 187.931932 
L 344.559615 184.056857 
L 354.744231 176.62963 
L 364.928846 181.634935 
L 375.113462 181.312012 
L 385.298077 181.150551 
L 395.482692 178.405706 
L 405.667308 178.567167 
L 415.851923 179.051552 
L 426.036538 184.37978 
L 436.221154 184.37978 
L 446.405769 185.671471 
L 456.590385 192.452853 
L 466.775 185.348549 
" clip-path="url(#pa75b044ab9)" style="fill: none; stroke: #5088c5; stroke-width: 2.5; stroke-linecap: round"/>
   </g>
   <g id="line2d_19">
    <path d="M 69.575 139.170571 
L 79.759615 130.451652 
L 89.944231 138.201802 
L 100.128846 131.42042 
L 110.313462 136.748649 
L 120.498077 129.482883 
L 130.682692 135.295495 
L 140.867308 136.748649 
L 151.051923 138.201802 
L 161.236538 134.326727 
L 171.421154 130.451652 
L 181.605769 135.295495 
L 191.790385 127.545345 
L 201.975 141.592492 
L 212.159615 136.748649 
L 222.344231 143.53003 
L 232.528846 139.170571 
L 242.713462 151.28018 
L 252.898077 152.733333 
L 263.082692 157.092793 
L 273.267308 160.967868 
L 283.451923 156.124024 
L 293.636538 157.092793 
L 303.821154 153.217718 
L 314.005769 145.951952 
L 324.190385 140.623724 
L 334.375 142.561261 
L 344.559615 132.389189 
L 354.744231 131.904805 
L 364.928846 134.326727 
L 375.113462 136.264264 
L 385.298077 134.326727 
L 395.482692 130.936036 
L 405.667308 125.607808 
L 415.851923 120.27958 
L 426.036538 146.436336 
L 436.221154 148.858258 
L 446.405769 136.748649 
L 456.590385 136.748649 
L 466.775 125.607808 
" clip-path="url(#pa75b044ab9)" style="fill: none; stroke: #f28360; stroke-opacity: 0.5; stroke-width: 0.5; stroke-linecap: round"/>
   </g>
   <g id="line2d_20">
    <path d="M 69.575 76.200601 
L 79.759615 68.934835 
L 89.944231 72.325526 
L 100.128846 84.435135 
L 110.313462 93.154054 
L 120.498077 77.169369 
L 130.682692 83.466366 
L 140.867308 88.31021 
L 151.051923 82.981982 
L 161.236538 82.013213 
L 171.421154 87.825826 
L 181.605769 90.732132 
L 191.790385 88.794595 
L 201.975 90.247748 
L 212.159615 101.388589 
L 222.344231 104.294895 
L 232.528846 111.560661 
L 242.713462 113.013814 
L 252.898077 124.639039 
L 263.082692 116.404505 
L 273.267308 128.998498 
L 283.451923 123.67027 
L 293.636538 105.748048 
L 303.821154 107.201201 
L 314.005769 88.794595 
L 324.190385 94.607207 
L 334.375 98.482282 
L 344.559615 89.763363 
L 354.744231 81.044444 
L 364.928846 90.247748 
L 375.113462 81.044444 
L 385.298077 89.278979 
L 395.482692 81.044444 
L 405.667308 77.653754 
L 415.851923 82.981982 
L 426.036538 82.981982 
L 436.221154 69.903604 
L 446.405769 77.169369 
L 456.590385 86.372673 
L 466.775 84.435135 
" clip-path="url(#pa75b044ab9)" style="fill: none; stroke: #f28360; stroke-opacity: 0.5; stroke-width: 0.5; stroke-linecap: round"/>
   </g>
   <g id="line2d_21">
    <path d="M 69.575 76.684985 
L 79.759615 65.05976 
L 89.944231 72.80991 
L 100.128846 80.075676 
L 110.313462 64.575375 
L 120.498077 62.637838 
L 130.682692 67.481682 
L 140.867308 78.622523 
L 151.051923 72.80991 
L 161.236538 76.200601 
L 171.421154 79.106907 
L 181.605769 82.981982 
L 191.790385 78.138138 
L 201.975 89.763363 
L 212.159615 86.857057 
L 222.344231 88.794595 
L 232.528846 88.794595 
L 242.713462 104.294895 
L 252.898077 103.810511 
L 263.082692 113.013814 
L 273.267308 114.466967 
L 283.451923 113.498198 
L 293.636538 108.16997 
L 303.821154 113.013814 
L 314.005769 101.872973 
L 324.190385 83.466366 
L 334.375 88.31021 
L 344.559615 86.857057 
L 354.744231 78.622523 
L 364.928846 83.466366 
L 375.113462 79.106907 
L 385.298077 76.200601 
L 395.482692 74.747447 
L 405.667308 77.169369 
L 415.851923 81.528829 
L 426.036538 87.825826 
L 436.221154 74.263063 
L 446.405769 65.05976 
L 456.590385 66.028529 
L 466.775 62.637838 
" clip-path="url(#pa75b044ab9)" style="fill: none; stroke: #f28360; stroke-opacity: 0.5; stroke-width: 0.5; stroke-linecap: round"/>
   </g>
   <g id="line2d_22">
    <path d="M 69.575 97.352052 
L 79.759615 88.148749 
L 89.944231 94.445746 
L 100.128846 98.643744 
L 110.313462 98.159359 
L 120.498077 89.763363 
L 130.682692 95.414515 
L 140.867308 101.227127 
L 151.051923 97.997898 
L 161.236538 97.513514 
L 171.421154 99.128128 
L 181.605769 103.003203 
L 191.790385 98.159359 
L 201.975 107.201201 
L 212.159615 108.331431 
L 222.344231 112.206507 
L 232.528846 113.175275 
L 242.713462 122.862963 
L 252.898077 127.060961 
L 263.082692 128.837037 
L 273.267308 134.811111 
L 283.451923 131.097497 
L 293.636538 123.67027 
L 303.821154 124.477578 
L 314.005769 112.206507 
L 324.190385 106.232432 
L 334.375 109.784585 
L 344.559615 103.003203 
L 354.744231 97.190591 
L 364.928846 102.68028 
L 375.113462 98.805205 
L 385.298077 99.935435 
L 395.482692 95.575976 
L 405.667308 93.476977 
L 415.851923 94.93013 
L 426.036538 105.748048 
L 436.221154 97.674975 
L 446.405769 92.992593 
L 456.590385 96.383283 
L 466.775 90.893594 
" clip-path="url(#pa75b044ab9)" style="fill: none; stroke: #f28360; stroke-width: 2.5; stroke-linecap: round"/>
   </g>
   <g id="line2d_23">
    <path d="M 69.575 79.591291 
L 79.759615 83.466366 
L 89.944231 87.825826 
L 100.128846 75.231832 
L 110.313462 79.591291 
L 120.498077 88.794595 
L 130.682692 85.403904 
L 140.867308 87.341441 
L 151.051923 92.66967 
L 161.236538 90.247748 
L 171.421154 80.56006 
L 181.605769 81.528829 
L 191.790385 84.91952 
L 201.975 89.278979 
L 212.159615 92.185285 
L 222.344231 72.80991 
L 232.528846 74.747447 
L 242.713462 80.075676 
L 252.898077 79.106907 
L 263.082692 86.857057 
L 273.267308 98.482282 
L 283.451923 93.638438 
L 293.636538 97.997898 
L 303.821154 88.794595 
L 314.005769 97.997898 
L 324.190385 98.482282 
L 334.375 96.06036 
L 344.559615 91.700901 
L 354.744231 82.497598 
L 364.928846 77.169369 
L 375.113462 94.607207 
L 385.298077 87.825826 
L 395.482692 86.857057 
L 405.667308 75.231832 
L 415.851923 83.466366 
L 426.036538 79.591291 
L 436.221154 76.684985 
L 446.405769 81.528829 
L 456.590385 83.466366 
L 466.775 86.857057 
" clip-path="url(#pa75b044ab9)" style="fill: none; stroke: #3b9886; stroke-opacity: 0.5; stroke-width: 0.5; stroke-linecap: round"/>
   </g>
   <g id="line2d_24">
    <path d="M 69.575 99.451051 
L 79.759615 81.528829 
L 89.944231 85.403904 
L 100.128846 93.638438 
L 110.313462 86.372673 
L 120.498077 87.825826 
L 130.682692 90.732132 
L 140.867308 85.403904 
L 151.051923 88.794595 
L 161.236538 87.341441 
L 171.421154 93.638438 
L 181.605769 77.653754 
L 191.790385 89.278979 
L 201.975 87.341441 
L 212.159615 83.466366 
L 222.344231 88.31021 
L 232.528846 93.638438 
L 242.713462 90.732132 
L 252.898077 106.232432 
L 263.082692 109.623123 
L 273.267308 115.92012 
L 283.451923 115.435736 
L 293.636538 115.435736 
L 303.821154 107.685586 
L 314.005769 105.263664 
L 324.190385 102.841742 
L 334.375 100.41982 
L 344.559615 95.575976 
L 354.744231 97.997898 
L 364.928846 97.997898 
L 375.113462 88.31021 
L 385.298077 95.575976 
L 395.482692 86.372673 
L 405.667308 87.825826 
L 415.851923 88.31021 
L 426.036538 84.91952 
L 436.221154 87.341441 
L 446.405769 91.216517 
L 456.590385 84.435135 
L 466.775 87.825826 
" clip-path="url(#pa75b044ab9)" style="fill: none; stroke: #3b9886; stroke-opacity: 0.5; stroke-width: 0.5; stroke-linecap: round"/>
   </g>
   <g id="line2d_25">
    <path d="M 69.575 110.107508 
L 79.759615 102.357357 
L 89.944231 113.013814 
L 100.128846 106.232432 
L 110.313462 113.013814 
L 120.498077 110.107508 
L 130.682692 104.294895 
L 140.867308 96.544745 
L 151.051923 102.841742 
L 161.236538 94.122823 
L 171.421154 98.482282 
L 181.605769 97.029129 
L 191.790385 99.935435 
L 201.975 102.357357 
L 212.159615 94.122823 
L 222.344231 108.654354 
L 232.528846 105.263664 
L 242.713462 115.435736 
L 252.898077 129.967267 
L 263.082692 132.873574 
L 273.267308 137.717417 
L 283.451923 137.233033 
L 293.636538 131.904805 
L 303.821154 120.763964 
L 314.005769 116.888889 
L 324.190385 118.342042 
L 334.375 110.107508 
L 344.559615 109.138739 
L 354.744231 102.841742 
L 364.928846 111.076276 
L 375.113462 101.388589 
L 385.298077 101.872973 
L 395.482692 90.247748 
L 405.667308 95.575976 
L 415.851923 97.029129 
L 426.036538 95.575976 
L 436.221154 106.716817 
L 446.405769 110.591892 
L 456.590385 105.748048 
L 466.775 111.076276 
" clip-path="url(#pa75b044ab9)" style="fill: none; stroke: #3b9886; stroke-opacity: 0.5; stroke-width: 0.5; stroke-linecap: round"/>
   </g>
   <g id="line2d_26">
    <path d="M 69.575 96.383283 
L 79.759615 89.117518 
L 89.944231 95.414515 
L 100.128846 91.700901 
L 110.313462 92.992593 
L 120.498077 95.575976 
L 130.682692 93.476977 
L 140.867308 89.763363 
L 151.051923 94.768669 
L 161.236538 90.570671 
L 171.421154 90.893594 
L 181.605769 85.403904 
L 191.790385 91.377978 
L 201.975 92.992593 
L 212.159615 89.924825 
L 222.344231 89.924825 
L 232.528846 91.216517 
L 242.713462 95.414515 
L 252.898077 105.102202 
L 263.082692 109.784585 
L 273.267308 117.373273 
L 283.451923 115.435736 
L 293.636538 115.112813 
L 303.821154 105.748048 
L 314.005769 106.716817 
L 324.190385 106.555355 
L 334.375 102.195896 
L 344.559615 98.805205 
L 354.744231 94.445746 
L 364.928846 95.414515 
L 375.113462 94.768669 
L 385.298077 95.091592 
L 395.482692 87.825826 
L 405.667308 86.211211 
L 415.851923 89.601902 
L 426.036538 86.695596 
L 436.221154 90.247748 
L 446.405769 94.445746 
L 456.590385 91.216517 
L 466.775 95.253053 
" clip-path="url(#pa75b044ab9)" style="fill: none; stroke: #3b9886; stroke-width: 2.5; stroke-linecap: round"/>
   </g>
   <g id="line2d_27">
    <path d="M 69.575 134.811111 
L 79.759615 132.873574 
L 89.944231 135.77988 
L 100.128846 131.904805 
L 110.313462 135.295495 
L 120.498077 141.108108 
L 130.682692 142.561261 
L 140.867308 130.936036 
L 151.051923 136.264264 
L 161.236538 140.623724 
L 171.421154 134.326727 
L 181.605769 134.326727 
L 191.790385 144.498799 
L 201.975 141.108108 
L 212.159615 139.170571 
L 222.344231 148.858258 
L 232.528846 162.421021 
L 242.713462 167.264865 
L 252.898077 174.530631 
L 263.082692 177.436937 
L 273.267308 179.858859 
L 283.451923 171.624324 
L 293.636538 175.499399 
L 303.821154 161.936637 
L 314.005769 159.999099 
L 324.190385 149.342643 
L 334.375 145.467568 
L 344.559615 144.983183 
L 354.744231 139.170571 
L 364.928846 144.014414 
L 375.113462 137.233033 
L 385.298077 138.686186 
L 395.482692 134.326727 
L 405.667308 133.357958 
L 415.851923 136.264264 
L 426.036538 131.904805 
L 436.221154 139.654955 
L 446.405769 134.326727 
L 456.590385 132.873574 
L 466.775 131.42042 
" clip-path="url(#pa75b044ab9)" style="fill: none; stroke: #f7b846; stroke-opacity: 0.5; stroke-width: 0.5; stroke-linecap: round"/>
   </g>
   <g id="line2d_28">
    <path d="M 69.575 180.827628 
L 79.759615 184.218318 
L 89.944231 180.827628 
L 100.128846 178.89009 
L 110.313462 186.155856 
L 120.498077 185.187087 
L 130.682692 174.530631 
L 140.867308 185.671471 
L 151.051923 177.921321 
L 161.236538 178.89009 
L 171.421154 158.061562 
L 181.605769 164.358559 
L 191.790385 160.483483 
L 201.975 176.468168 
L 212.159615 176.952553 
L 222.344231 195.359159 
L 232.528846 210.375075 
L 242.713462 217.156456 
L 252.898077 220.062763 
L 263.082692 221.515916 
L 273.267308 219.578378 
L 283.451923 214.734535 
L 293.636538 205.046847 
L 303.821154 193.421622 
L 314.005769 192.452853 
L 324.190385 183.24955 
L 334.375 184.218318 
L 344.559615 170.655556 
L 354.744231 182.280781 
L 364.928846 179.858859 
L 375.113462 171.624324 
L 385.298077 175.015015 
L 395.482692 179.374474 
L 405.667308 175.499399 
L 415.851923 179.858859 
L 426.036538 186.155856 
L 436.221154 177.436937 
L 446.405769 176.952553 
L 456.590385 186.155856 
L 466.775 183.733934 
" clip-path="url(#pa75b044ab9)" style="fill: none; stroke: #f7b846; stroke-opacity: 0.5; stroke-width: 0.5; stroke-linecap: round"/>
   </g>
   <g id="line2d_29">
    <path d="M 69.575 205.046847 
L 79.759615 211.343844 
L 89.944231 207.953153 
L 100.128846 206.984384 
L 110.313462 214.734535 
L 120.498077 220.547147 
L 130.682692 211.828228 
L 140.867308 217.156456 
L 151.051923 213.281381 
L 161.236538 222.0003 
L 171.421154 225.390991 
L 181.605769 229.266066 
L 191.790385 242.344444 
L 201.975 252.032132 
L 212.159615 264.141742 
L 222.344231 272.860661 
L 232.528846 271.891892 
L 242.713462 270.438739 
L 252.898077 272.376276 
L 263.082692 259.782282 
L 273.267308 251.063363 
L 283.451923 240.891291 
L 293.636538 240.891291 
L 303.821154 228.781682 
L 314.005769 216.672072 
L 324.190385 220.547147 
L 334.375 218.60961 
L 344.559615 225.390991 
L 354.744231 209.890691 
L 364.928846 217.640841 
L 375.113462 218.60961 
L 385.298077 218.125225 
L 395.482692 212.312613 
L 405.667308 210.859459 
L 415.851923 222.484685 
L 426.036538 215.703303 
L 436.221154 215.703303 
L 446.405769 216.672072 
L 456.590385 211.828228 
L 466.775 215.218919 
" clip-path="url(#pa75b044ab9)" style="fill: none; stroke: #f7b846; stroke-opacity: 0.5; stroke-width: 0.5; stroke-linecap: round"/>
   </g>
   <g id="line2d_30">
    <path d="M 69.575 173.561862 
L 79.759615 176.145245 
L 89.944231 174.853554 
L 100.128846 172.593093 
L 110.313462 178.728629 
L 120.498077 182.280781 
L 130.682692 176.306707 
L 140.867308 177.921321 
L 151.051923 175.822322 
L 161.236538 180.504705 
L 171.421154 172.593093 
L 181.605769 175.983784 
L 191.790385 182.442242 
L 201.975 189.869469 
L 212.159615 193.421622 
L 222.344231 205.692693 
L 232.528846 214.895996 
L 242.713462 218.286687 
L 252.898077 222.323223 
L 263.082692 219.578378 
L 273.267308 216.833534 
L 283.451923 209.083383 
L 293.636538 207.145846 
L 303.821154 194.713313 
L 314.005769 189.708008 
L 324.190385 184.37978 
L 334.375 182.765165 
L 344.559615 180.343243 
L 354.744231 177.114014 
L 364.928846 180.504705 
L 375.113462 175.822322 
L 385.298077 177.275475 
L 395.482692 175.337938 
L 405.667308 173.238939 
L 415.851923 179.535936 
L 426.036538 177.921321 
L 436.221154 177.598398 
L 446.405769 175.983784 
L 456.590385 176.952553 
L 466.775 176.791091 
" clip-path="url(#pa75b044ab9)" style="fill: none; stroke: #f7b846; stroke-width: 2.5; stroke-linecap: round"/>
   </g>
   <g id="line2d_31">
    <path d="M 69.575 214.734535 
L 79.759615 216.672072 
L 89.944231 219.578378 
L 100.128846 211.828228 
L 110.313462 210.859459 
L 120.498077 201.656156 
L 130.682692 209.406306 
L 140.867308 267.048048 
L 151.051923 239.922523 
L 161.236538 231.203604 
L 171.421154 216.672072 
L 181.605769 218.60961 
L 191.790385 214.25015 
L 201.975 209.890691 
L 212.159615 214.25015 
L 222.344231 216.672072 
L 232.528846 205.531231 
L 242.713462 206.015616 
L 252.898077 203.109309 
L 263.082692 198.74985 
L 273.267308 207.468769 
L 283.451923 203.109309 
L 293.636538 201.171772 
L 303.821154 195.359159 
L 314.005769 199.718619 
L 324.190385 195.843544 
L 334.375 195.843544 
L 344.559615 197.781081 
L 354.744231 196.327928 
L 364.928846 204.562462 
L 375.113462 200.687387 
L 385.298077 194.874775 
L 395.482692 205.046847 
L 405.667308 203.593694 
L 415.851923 196.812312 
L 426.036538 204.078078 
L 436.221154 205.531231 
L 446.405769 213.281381 
L 456.590385 207.953153 
L 466.775 201.656156 
" clip-path="url(#pa75b044ab9)" style="fill: none; stroke: #7a77ab; stroke-opacity: 0.5; stroke-width: 0.5; stroke-linecap: round"/>
   </g>
   <g id="line2d_32">
    <path d="M 69.575 184.218318 
L 79.759615 184.702703 
L 89.944231 188.577778 
L 100.128846 182.765165 
L 110.313462 193.906006 
L 120.498077 193.906006 
L 130.682692 200.687387 
L 140.867308 197.296697 
L 151.051923 191.484084 
L 161.236538 202.140541 
L 171.421154 197.296697 
L 181.605769 189.062162 
L 191.790385 202.140541 
L 201.975 197.296697 
L 212.159615 194.39039 
L 222.344231 197.296697 
L 232.528846 201.656156 
L 242.713462 203.109309 
L 252.898077 203.593694 
L 263.082692 211.343844 
L 273.267308 216.187688 
L 283.451923 218.125225 
L 293.636538 216.672072 
L 303.821154 214.25015 
L 314.005769 200.687387 
L 324.190385 198.74985 
L 334.375 205.046847 
L 344.559615 186.64024 
L 354.744231 186.64024 
L 364.928846 176.468168 
L 375.113462 184.218318 
L 385.298077 201.656156 
L 395.482692 201.656156 
L 405.667308 197.296697 
L 415.851923 192.937237 
L 426.036538 189.546547 
L 436.221154 192.937237 
L 446.405769 187.124625 
L 456.590385 189.546547 
L 466.775 188.577778 
" clip-path="url(#pa75b044ab9)" style="fill: none; stroke: #7a77ab; stroke-opacity: 0.5; stroke-width: 0.5; stroke-linecap: round"/>
   </g>
   <g id="line2d_33">
    <path d="M 69.575 159.514715 
L 79.759615 165.327327 
L 89.944231 167.749249 
L 100.128846 162.905405 
L 110.313462 169.686787 
L 120.498077 175.983784 
L 130.682692 175.499399 
L 140.867308 175.015015 
L 151.051923 166.78048 
L 161.236538 171.624324 
L 171.421154 182.280781 
L 181.605769 175.499399 
L 191.790385 177.436937 
L 201.975 173.561862 
L 212.159615 168.718018 
L 222.344231 173.077477 
L 232.528846 180.343243 
L 242.713462 182.280781 
L 252.898077 184.702703 
L 263.082692 187.609009 
L 273.267308 189.062162 
L 283.451923 184.702703 
L 293.636538 182.280781 
L 303.821154 172.108709 
L 314.005769 174.046246 
L 324.190385 163.874174 
L 334.375 171.624324 
L 344.559615 163.38979 
L 354.744231 155.63964 
L 364.928846 154.670871 
L 375.113462 156.124024 
L 385.298077 159.999099 
L 395.482692 150.311411 
L 405.667308 162.905405 
L 415.851923 168.233634 
L 426.036538 158.545946 
L 436.221154 148.373874 
L 446.405769 153.702102 
L 456.590385 156.608408 
L 466.775 151.28018 
" clip-path="url(#pa75b044ab9)" style="fill: none; stroke: #7a77ab; stroke-opacity: 0.5; stroke-width: 0.5; stroke-linecap: round"/>
   </g>
   <g id="line2d_34">
    <path d="M 69.575 186.155856 
L 79.759615 188.900701 
L 89.944231 191.968468 
L 100.128846 185.832933 
L 110.313462 191.484084 
L 120.498077 190.515315 
L 130.682692 195.197698 
L 140.867308 213.11992 
L 151.051923 199.395696 
L 161.236538 201.656156 
L 171.421154 198.74985 
L 181.605769 194.39039 
L 191.790385 197.942543 
L 201.975 193.583083 
L 212.159615 192.452853 
L 222.344231 195.682082 
L 232.528846 195.843544 
L 242.713462 197.135235 
L 252.898077 197.135235 
L 263.082692 199.234234 
L 273.267308 204.23954 
L 283.451923 201.979079 
L 293.636538 200.041542 
L 303.821154 193.906006 
L 314.005769 191.484084 
L 324.190385 186.155856 
L 334.375 190.838238 
L 344.559615 182.603704 
L 354.744231 179.535936 
L 364.928846 178.567167 
L 375.113462 180.343243 
L 385.298077 185.51001 
L 395.482692 185.671471 
L 405.667308 187.931932 
L 415.851923 185.994394 
L 426.036538 184.056857 
L 436.221154 182.280781 
L 446.405769 184.702703 
L 456.590385 184.702703 
L 466.775 180.504705 
" clip-path="url(#pa75b044ab9)" style="fill: none; stroke: #7a77ab; stroke-width: 2.5; stroke-linecap: round"/>
   </g>
   <g id="line2d_35">
    <path d="M 69.575 126.092192 
L 79.759615 130.451652 
L 89.944231 123.185886 
L 100.128846 128.02973 
L 110.313462 129.967267 
L 120.498077 128.02973 
L 130.682692 126.092192 
L 140.867308 127.545345 
L 151.051923 118.826426 
L 161.236538 127.545345 
L 171.421154 133.357958 
L 181.605769 138.686186 
L 191.790385 141.592492 
L 201.975 143.53003 
L 212.159615 155.63964 
L 222.344231 168.233634 
L 232.528846 177.436937 
L 242.713462 177.921321 
L 252.898077 179.858859 
L 263.082692 177.436937 
L 273.267308 180.343243 
L 283.451923 158.061562 
L 293.636538 159.03033 
L 303.821154 153.217718 
L 314.005769 138.201802 
L 324.190385 129.482883 
L 334.375 135.295495 
L 344.559615 120.763964 
L 354.744231 126.576577 
L 364.928846 125.123423 
L 375.113462 118.342042 
L 385.298077 122.217117 
L 395.482692 109.623123 
L 405.667308 129.967267 
L 415.851923 120.27958 
L 426.036538 125.607808 
L 436.221154 120.27958 
L 446.405769 118.342042 
L 456.590385 121.732733 
L 466.775 127.060961 
" clip-path="url(#pa75b044ab9)" style="fill: none; stroke: #f898ae; stroke-opacity: 0.5; stroke-width: 0.5; stroke-linecap: round"/>
   </g>
   <g id="line2d_36">
    <path d="M 69.575 88.31021 
L 79.759615 82.013213 
L 89.944231 83.466366 
L 100.128846 84.91952 
L 110.313462 87.825826 
L 120.498077 84.435135 
L 130.682692 96.544745 
L 140.867308 92.185285 
L 151.051923 93.154054 
L 161.236538 94.607207 
L 171.421154 86.372673 
L 181.605769 84.91952 
L 191.790385 95.575976 
L 201.975 102.841742 
L 212.159615 103.810511 
L 222.344231 114.951351 
L 232.528846 128.02973 
L 242.713462 138.201802 
L 252.898077 140.139339 
L 263.082692 154.670871 
L 273.267308 162.421021 
L 283.451923 157.577177 
L 293.636538 159.03033 
L 303.821154 149.342643 
L 314.005769 132.389189 
L 324.190385 124.639039 
L 334.375 125.123423 
L 344.559615 105.263664 
L 354.744231 103.326126 
L 364.928846 101.388589 
L 375.113462 91.700901 
L 385.298077 99.935435 
L 395.482692 85.888288 
L 405.667308 89.278979 
L 415.851923 93.154054 
L 426.036538 96.06036 
L 436.221154 92.66967 
L 446.405769 96.06036 
L 456.590385 84.435135 
L 466.775 86.372673 
" clip-path="url(#pa75b044ab9)" style="fill: none; stroke: #f898ae; stroke-opacity: 0.5; stroke-width: 0.5; stroke-linecap: round"/>
   </g>
   <g id="line2d_37">
    <path d="M 69.575 79.591291 
L 79.759615 77.169369 
L 89.944231 87.341441 
L 100.128846 89.763363 
L 110.313462 90.732132 
L 120.498077 87.825826 
L 130.682692 83.950751 
L 140.867308 93.638438 
L 151.051923 89.278979 
L 161.236538 94.122823 
L 171.421154 96.06036 
L 181.605769 97.513514 
L 191.790385 96.544745 
L 201.975 100.41982 
L 212.159615 110.591892 
L 222.344231 119.310811 
L 232.528846 129.967267 
L 242.713462 140.623724 
L 252.898077 144.498799 
L 263.082692 170.655556 
L 273.267308 171.13994 
L 283.451923 161.452252 
L 293.636538 166.296096 
L 303.821154 154.670871 
L 314.005769 144.014414 
L 324.190385 120.763964 
L 334.375 122.701502 
L 344.559615 117.373273 
L 354.744231 102.357357 
L 364.928846 103.810511 
L 375.113462 98.966667 
L 385.298077 99.935435 
L 395.482692 93.638438 
L 405.667308 91.700901 
L 415.851923 97.029129 
L 426.036538 92.185285 
L 436.221154 99.935435 
L 446.405769 85.403904 
L 456.590385 85.888288 
L 466.775 85.888288 
" clip-path="url(#pa75b044ab9)" style="fill: none; stroke: #f898ae; stroke-opacity: 0.5; stroke-width: 0.5; stroke-linecap: round"/>
   </g>
   <g id="line2d_38">
    <path d="M 69.575 97.997898 
L 79.759615 96.544745 
L 89.944231 97.997898 
L 100.128846 100.904204 
L 110.313462 102.841742 
L 120.498077 100.096897 
L 130.682692 102.195896 
L 140.867308 104.456356 
L 151.051923 100.41982 
L 161.236538 105.425125 
L 171.421154 105.263664 
L 181.605769 107.03974 
L 191.790385 111.237738 
L 201.975 115.597197 
L 212.159615 123.347347 
L 222.344231 134.165265 
L 232.528846 145.144645 
L 242.713462 152.248949 
L 252.898077 154.832332 
L 263.082692 167.587788 
L 273.267308 171.301401 
L 283.451923 159.03033 
L 293.636538 161.452252 
L 303.821154 152.41041 
L 314.005769 138.201802 
L 324.190385 124.961962 
L 334.375 127.706807 
L 344.559615 114.466967 
L 354.744231 110.753353 
L 364.928846 110.107508 
L 375.113462 103.003203 
L 385.298077 107.362663 
L 395.482692 96.383283 
L 405.667308 103.649049 
L 415.851923 103.487588 
L 426.036538 104.617818 
L 436.221154 104.294895 
L 446.405769 99.935435 
L 456.590385 97.352052 
L 466.775 99.773974 
" clip-path="url(#pa75b044ab9)" style="fill: none; stroke: #f898ae; stroke-width: 2.5; stroke-linecap: round"/>
   </g>
   <g id="line2d_39">
    <path d="M 69.575 87.341441 
L 79.759615 86.857057 
L 89.944231 96.544745 
L 100.128846 93.154054 
L 110.313462 99.935435 
L 120.498077 99.451051 
L 130.682692 101.388589 
L 140.867308 112.529429 
L 151.051923 105.748048 
L 161.236538 105.748048 
L 171.421154 107.685586 
L 181.605769 115.92012 
L 191.790385 122.701502 
L 201.975 120.763964 
L 212.159615 141.108108 
L 222.344231 164.358559 
L 232.528846 176.468168 
L 242.713462 200.687387 
L 252.898077 215.703303 
L 263.082692 219.093994 
L 273.267308 233.141141 
L 283.451923 224.906607 
L 293.636538 232.656757 
L 303.821154 222.484685 
L 314.005769 193.906006 
L 324.190385 180.827628 
L 334.375 162.421021 
L 344.559615 143.045646 
L 354.744231 136.748649 
L 364.928846 116.404505 
L 375.113462 113.498198 
L 385.298077 100.41982 
L 395.482692 100.904204 
L 405.667308 101.388589 
L 415.851923 87.825826 
L 426.036538 103.326126 
L 436.221154 97.029129 
L 446.405769 96.06036 
L 456.590385 88.31021 
L 466.775 95.091592 
" clip-path="url(#pa75b044ab9)" style="fill: none; stroke: #73b5e3; stroke-opacity: 0.5; stroke-width: 0.5; stroke-linecap: round"/>
   </g>
   <g id="line2d_40">
    <path d="M 69.575 102.841742 
L 79.759615 95.091592 
L 89.944231 98.482282 
L 100.128846 98.966667 
L 110.313462 100.904204 
L 120.498077 92.185285 
L 130.682692 102.357357 
L 140.867308 103.326126 
L 151.051923 108.654354 
L 161.236538 98.966667 
L 171.421154 113.013814 
L 181.605769 121.732733 
L 191.790385 127.545345 
L 201.975 142.076877 
L 212.159615 154.670871 
L 222.344231 168.718018 
L 232.528846 195.359159 
L 242.713462 207.953153 
L 252.898077 227.328529 
L 263.082692 231.687988 
L 273.267308 238.953754 
L 283.451923 238.953754 
L 293.636538 230.719219 
L 303.821154 224.906607 
L 314.005769 208.437538 
L 324.190385 201.171772 
L 334.375 181.312012 
L 344.559615 147.889489 
L 354.744231 139.654955 
L 364.928846 134.326727 
L 375.113462 117.857658 
L 385.298077 106.232432 
L 395.482692 108.654354 
L 405.667308 111.560661 
L 415.851923 113.013814 
L 426.036538 104.779279 
L 436.221154 105.748048 
L 446.405769 96.544745 
L 456.590385 91.700901 
L 466.775 99.935435 
" clip-path="url(#pa75b044ab9)" style="fill: none; stroke: #73b5e3; stroke-opacity: 0.5; stroke-width: 0.5; stroke-linecap: round"/>
   </g>
   <g id="line2d_41">
    <path d="M 69.575 117.373273 
L 79.759615 108.16997 
L 89.944231 114.951351 
L 100.128846 109.138739 
L 110.313462 121.248348 
L 120.498077 117.373273 
L 130.682692 116.404505 
L 140.867308 121.732733 
L 151.051923 116.888889 
L 161.236538 114.466967 
L 171.421154 116.404505 
L 181.605769 113.498198 
L 191.790385 119.795195 
L 201.975 132.389189 
L 212.159615 145.467568 
L 222.344231 162.905405 
L 232.528846 188.577778 
L 242.713462 212.312613 
L 252.898077 222.969069 
L 263.082692 237.984985 
L 273.267308 249.61021 
L 283.451923 245.735135 
L 293.636538 240.891291 
L 303.821154 230.719219 
L 314.005769 213.765766 
L 324.190385 186.64024 
L 334.375 159.514715 
L 344.559615 155.155255 
L 354.744231 137.233033 
L 364.928846 131.42042 
L 375.113462 128.998498 
L 385.298077 122.701502 
L 395.482692 116.888889 
L 405.667308 101.388589 
L 415.851923 81.044444 
L 426.036538 87.825826 
L 436.221154 101.872973 
L 446.405769 110.107508 
L 456.590385 124.639039 
L 466.775 114.951351 
" clip-path="url(#pa75b044ab9)" style="fill: none; stroke: #73b5e3; stroke-opacity: 0.5; stroke-width: 0.5; stroke-linecap: round"/>
   </g>
   <g id="line2d_42">
    <path d="M 69.575 102.518819 
L 79.759615 96.706206 
L 89.944231 103.326126 
L 100.128846 100.41982 
L 110.313462 107.362663 
L 120.498077 103.003203 
L 130.682692 106.716817 
L 140.867308 112.529429 
L 151.051923 110.43043 
L 161.236538 106.393894 
L 171.421154 112.367968 
L 181.605769 117.05035 
L 191.790385 123.347347 
L 201.975 131.743343 
L 212.159615 147.082182 
L 222.344231 165.327327 
L 232.528846 186.801702 
L 242.713462 206.984384 
L 252.898077 222.0003 
L 263.082692 229.588989 
L 273.267308 240.568368 
L 283.451923 236.531832 
L 293.636538 234.755756 
L 303.821154 226.036837 
L 314.005769 205.36977 
L 324.190385 189.546547 
L 334.375 167.749249 
L 344.559615 148.696797 
L 354.744231 137.878879 
L 364.928846 127.383884 
L 375.113462 120.118118 
L 385.298077 109.784585 
L 395.482692 108.815816 
L 405.667308 104.779279 
L 415.851923 93.961361 
L 426.036538 98.643744 
L 436.221154 101.55005 
L 446.405769 100.904204 
L 456.590385 101.55005 
L 466.775 103.326126 
" clip-path="url(#pa75b044ab9)" style="fill: none; stroke: #73b5e3; stroke-width: 2.5; stroke-linecap: round"/>
   </g>
   <g id="line2d_43">
    <path d="M 69.575 189.062162 
L 79.759615 206.015616 
L 89.944231 204.078078 
L 100.128846 197.781081 
L 110.313462 206.984384 
L 120.498077 201.656156 
L 130.682692 211.828228 
L 140.867308 207.468769 
L 151.051923 210.375075 
L 161.236538 206.015616 
L 171.421154 200.687387 
L 181.605769 209.406306 
L 191.790385 209.406306 
L 201.975 211.828228 
L 212.159615 203.593694 
L 222.344231 197.296697 
L 232.528846 206.015616 
L 242.713462 210.859459 
L 252.898077 204.078078 
L 263.082692 211.828228 
L 273.267308 216.187688 
L 283.451923 211.828228 
L 293.636538 222.484685 
L 303.821154 216.187688 
L 314.005769 222.484685 
L 324.190385 222.969069 
L 334.375 224.422222 
L 344.559615 232.656757 
L 354.744231 229.266066 
L 364.928846 235.078679 
L 375.113462 231.687988 
L 385.298077 197.781081 
L 395.482692 186.155856 
L 405.667308 187.609009 
L 415.851923 195.359159 
L 426.036538 183.24955 
L 436.221154 193.421622 
L 446.405769 198.74985 
L 456.590385 190.9997 
L 466.775 192.452853 
" clip-path="url(#pa75b044ab9)" style="fill: none; stroke: #ffb984; stroke-opacity: 0.5; stroke-width: 0.5; stroke-linecap: round"/>
   </g>
   <g id="line2d_44">
    <path d="M 69.575 261.235435 
L 79.759615 222.969069 
L 89.944231 214.25015 
L 100.128846 214.734535 
L 110.313462 211.828228 
L 120.498077 220.062763 
L 130.682692 225.390991 
L 140.867308 232.656757 
L 151.051923 232.172372 
L 161.236538 239.922523 
L 171.421154 237.984985 
L 181.605769 240.891291 
L 191.790385 237.500601 
L 201.975 236.047447 
L 212.159615 238.953754 
L 222.344231 241.86006 
L 232.528846 241.375676 
L 242.713462 243.797598 
L 252.898077 242.344444 
L 263.082692 238.469369 
L 273.267308 244.766366 
L 283.451923 240.406907 
L 293.636538 234.594294 
L 303.821154 233.625526 
L 314.005769 234.10991 
L 324.190385 229.266066 
L 334.375 233.141141 
L 344.559615 224.422222 
L 354.744231 229.75045 
L 364.928846 229.75045 
L 375.113462 238.953754 
L 385.298077 231.687988 
L 395.482692 234.594294 
L 405.667308 249.61021 
L 415.851923 245.735135 
L 426.036538 248.641441 
L 436.221154 242.344444 
L 446.405769 245.250751 
L 456.590385 254.454054 
L 466.775 251.063363 
" clip-path="url(#pa75b044ab9)" style="fill: none; stroke: #ffb984; stroke-opacity: 0.5; stroke-width: 0.5; stroke-linecap: round"/>
   </g>
   <g id="line2d_45">
    <path d="M 69.575 228.781682 
L 79.759615 228.781682 
L 89.944231 239.922523 
L 100.128846 245.250751 
L 110.313462 239.438138 
L 120.498077 242.828829 
L 130.682692 245.735135 
L 140.867308 246.703904 
L 151.051923 251.063363 
L 161.236538 256.391592 
L 171.421154 237.984985 
L 181.605769 234.10991 
L 191.790385 235.563063 
L 201.975 237.984985 
L 212.159615 239.922523 
L 222.344231 232.656757 
L 232.528846 230.719219 
L 242.713462 245.250751 
L 252.898077 237.984985 
L 263.082692 237.016216 
L 273.267308 241.86006 
L 283.451923 238.953754 
L 293.636538 237.500601 
L 303.821154 233.141141 
L 314.005769 239.438138 
L 324.190385 235.078679 
L 334.375 237.500601 
L 344.559615 234.10991 
L 354.744231 240.406907 
L 364.928846 235.078679 
L 375.113462 233.141141 
L 385.298077 237.984985 
L 395.482692 233.625526 
L 405.667308 232.172372 
L 415.851923 235.078679 
L 426.036538 240.891291 
L 436.221154 232.656757 
L 446.405769 240.406907 
L 456.590385 225.875375 
L 466.775 238.469369 
" clip-path="url(#pa75b044ab9)" style="fill: none; stroke: #ffb984; stroke-opacity: 0.5; stroke-width: 0.5; stroke-linecap: round"/>
   </g>
   <g id="line2d_46">
    <path d="M 69.575 226.35976 
L 79.759615 219.255455 
L 89.944231 219.416917 
L 100.128846 219.255455 
L 110.313462 219.416917 
L 120.498077 221.515916 
L 130.682692 227.651451 
L 140.867308 228.943143 
L 151.051923 231.203604 
L 161.236538 234.10991 
L 171.421154 225.552452 
L 181.605769 228.135836 
L 191.790385 227.48999 
L 201.975 228.62022 
L 212.159615 227.48999 
L 222.344231 223.937838 
L 232.528846 226.036837 
L 242.713462 233.302603 
L 252.898077 228.135836 
L 263.082692 229.104605 
L 273.267308 234.271371 
L 283.451923 230.396296 
L 293.636538 231.526527 
L 303.821154 227.651451 
L 314.005769 232.010911 
L 324.190385 229.104605 
L 334.375 231.687988 
L 344.559615 230.396296 
L 354.744231 233.141141 
L 364.928846 233.302603 
L 375.113462 234.594294 
L 385.298077 222.484685 
L 395.482692 218.125225 
L 405.667308 223.130531 
L 415.851923 225.390991 
L 426.036538 224.260761 
L 436.221154 222.807608 
L 446.405769 228.135836 
L 456.590385 223.776376 
L 466.775 227.328529 
" clip-path="url(#pa75b044ab9)" style="fill: none; stroke: #ffb984; stroke-width: 2.5; stroke-linecap: round"/>
   </g>
   <g id="patch_3">
    <path d="M 69.575 367.8 
L 69.575 45.2 
" style="fill: none; stroke: #000000; stroke-width: 0.75; stroke-linejoin: miter; stroke-linecap: square"/>
   </g>
   <g id="patch_4">
    <path d="M 69.575 367.8 
L 466.775 367.8 
" style="fill: none; stroke: #000000; stroke-width: 0.75; stroke-linejoin: miter; stroke-linecap: square"/>
   </g>
   <g id="text_17">
    <text style="font: 500 18px &quot;Suisse Int&apos;l&quot;, sans-serif; text-anchor: middle" x="268.175" y="29.2" transform="rotate(-0 268.175 29.2)">Normalized Spatial Density of Cells in a Conical Well : cc-125</text>
   </g>
   <g id="legend_1">
    <g id="line2d_47">
     <path d="M 486.635 51.575 
L 494.135 51.575 
L 501.635 51.575 
" style="fill: none; stroke: #5088c5; stroke-width: 2.5; stroke-linecap: round"/>
    </g>
    <g id="text_18">
     <text style="font: 15px &quot;Suisse Int&apos;l&quot;, sans-serif; text-anchor: start" x="507.635" y="57.95" transform="rotate(-0 507.635 57.95)">water Average</text>
    </g>
    <g id="line2d_48">
     <path d="M 486.635 74.644531 
L 494.135 74.644531 
L 501.635 74.644531 
" style="fill: none; stroke: #f28360; stroke-width: 2.5; stroke-linecap: round"/>
    </g>
    <g id="text_19">
     <text style="font: 15px &quot;Suisse Int&apos;l&quot;, sans-serif; text-anchor: start" x="507.635" y="81.019531" transform="rotate(-0 507.635 81.019531)">0.1% DMSO Average</text>
    </g>
    <g id="line2d_49">
     <path d="M 486.635 97.714062 
L 494.135 97.714062 
L 501.635 97.714062 
" style="fill: none; stroke: #3b9886; stroke-width: 2.5; stroke-linecap: round"/>
    </g>
    <g id="text_20">
     <text style="font: 15px &quot;Suisse Int&apos;l&quot;, sans-serif; text-anchor: start" x="507.635" y="104.089062" transform="rotate(-0 507.635 104.089062)">50 µM Torin2 Average</text>
    </g>
    <g id="line2d_50">
     <path d="M 486.635 120.783594 
L 494.135 120.783594 
L 501.635 120.783594 
" style="fill: none; stroke: #f7b846; stroke-width: 2.5; stroke-linecap: round"/>
    </g>
    <g id="text_21">
     <text style="font: 15px &quot;Suisse Int&apos;l&quot;, sans-serif; text-anchor: start" x="507.635" y="127.158594" transform="rotate(-0 507.635 127.158594)">50 µM TAK-063 Average</text>
    </g>
    <g id="line2d_51">
     <path d="M 486.635 143.853125 
L 494.135 143.853125 
L 501.635 143.853125 
" style="fill: none; stroke: #7a77ab; stroke-width: 2.5; stroke-linecap: round"/>
    </g>
    <g id="text_22">
     <text style="font: 15px &quot;Suisse Int&apos;l&quot;, sans-serif; text-anchor: start" x="507.635" y="150.228125" transform="rotate(-0 507.635 150.228125)">50 µM Dynarrestin Average</text>
    </g>
    <g id="line2d_52">
     <path d="M 486.635 166.922656 
L 494.135 166.922656 
L 501.635 166.922656 
" style="fill: none; stroke: #f898ae; stroke-width: 2.5; stroke-linecap: round"/>
    </g>
    <g id="text_23">
     <text style="font: 15px &quot;Suisse Int&apos;l&quot;, sans-serif; text-anchor: start" x="507.635" y="173.297656" transform="rotate(-0 507.635 173.297656)">50 µM ATP Average</text>
    </g>
    <g id="line2d_53">
     <path d="M 486.635 189.992187 
L 494.135 189.992187 
L 501.635 189.992187 
" style="fill: none; stroke: #73b5e3; stroke-width: 2.5; stroke-linecap: round"/>
    </g>
    <g id="text_24">
     <text style="font: 15px &quot;Suisse Int&apos;l&quot;, sans-serif; text-anchor: start" x="507.635" y="196.367187" transform="rotate(-0 507.635 196.367187)">50 µM Linsitinib Average</text>
    </g>
    <g id="line2d_54">
     <path d="M 486.635 213.061719 
L 494.135 213.061719 
L 501.635 213.061719 
" style="fill: none; stroke: #ffb984; stroke-width: 2.5; stroke-linecap: round"/>
    </g>
    <g id="text_25">
     <text style="font: 15px &quot;Suisse Int&apos;l&quot;, sans-serif; text-anchor: start" x="507.635" y="219.436719" transform="rotate(-0 507.635 219.436719)">50 µM Ibudilast Average</text>
    </g>
   </g>
  </g>
 </g>
 <defs>
  <clipPath id="pa75b044ab9">
   <rect x="69.575" y="45.2" width="397.2" height="322.6"/>
  </clipPath>
 </defs>
</svg>
