<?xml version="1.0" encoding="utf-8" standalone="no"?>
<!DOCTYPE svg PUBLIC "-//W3C//DTD SVG 1.1//EN"
  "http://www.w3.org/Graphics/SVG/1.1/DTD/svg11.dtd">
<svg xmlns:xlink="http://www.w3.org/1999/xlink" width="720pt" height="432pt" viewBox="0 0 720 432" xmlns="http://www.w3.org/2000/svg" version="1.1">
 <metadata>
  <rdf:RDF xmlns:dc="http://purl.org/dc/elements/1.1/" xmlns:cc="http://creativecommons.org/ns#" xmlns:rdf="http://www.w3.org/1999/02/22-rdf-syntax-ns#">
   <cc:Work>
    <dc:type rdf:resource="http://purl.org/dc/dcmitype/StillImage"/>
    <dc:date>2024-09-19T15:13:48.011934</dc:date>
    <dc:format>image/svg+xml</dc:format>
    <dc:creator>
     <cc:Agent>
      <dc:title>Matplotlib v3.8.4, https://matplotlib.org/</dc:title>
     </cc:Agent>
    </dc:creator>
   </cc:Work>
  </rdf:RDF>
 </metadata>
 <defs>
  <style type="text/css">*{stroke-linejoin: round; stroke-linecap: butt}</style>
 </defs>
 <g id="figure_1">
  <g id="patch_1">
   <path d="M 0 432 
L 720 432 
L 720 0 
L 0 0 
L 0 432 
z
" style="fill: none"/>
  </g>
  <g id="axes_1">
   <g id="patch_2">
    <path d="M 69.575 367.8 
L 467.9 367.8 
L 467.9 45.2 
L 69.575 45.2 
L 69.575 367.8 
z
" style="fill: none"/>
   </g>
   <g id="matplotlib.axis_1">
    <g id="xtick_1">
     <g id="line2d_1">
      <defs>
       <path id="mfaf620a098" d="M 0 0 
L 0 5 
" style="stroke: #000000; stroke-width: 0.75"/>
      </defs>
      <g>
       <use xlink:href="#mfaf620a098" x="69.575" y="367.8" style="stroke: #000000; stroke-width: 0.75"/>
      </g>
     </g>
     <g id="text_1">
      <text style="font: 15px &quot;Suisse Int&apos;l&quot;, sans-serif; text-anchor: middle" x="69.575" y="388.675" transform="rotate(-0 69.575 388.675)">0</text>
     </g>
    </g>
    <g id="xtick_2">
     <g id="line2d_2">
      <g>
       <use xlink:href="#mfaf620a098" x="120.642308" y="367.8" style="stroke: #000000; stroke-width: 0.75"/>
      </g>
     </g>
     <g id="text_2">
      <text style="font: 15px &quot;Suisse Int&apos;l&quot;, sans-serif; text-anchor: middle" x="120.642308" y="388.675" transform="rotate(-0 120.642308 388.675)">5</text>
     </g>
    </g>
    <g id="xtick_3">
     <g id="line2d_3">
      <g>
       <use xlink:href="#mfaf620a098" x="171.709615" y="367.8" style="stroke: #000000; stroke-width: 0.75"/>
      </g>
     </g>
     <g id="text_3">
      <text style="font: 15px &quot;Suisse Int&apos;l&quot;, sans-serif; text-anchor: middle" x="171.709615" y="388.675" transform="rotate(-0 171.709615 388.675)">10</text>
     </g>
    </g>
    <g id="xtick_4">
     <g id="line2d_4">
      <g>
       <use xlink:href="#mfaf620a098" x="222.776923" y="367.8" style="stroke: #000000; stroke-width: 0.75"/>
      </g>
     </g>
     <g id="text_4">
      <text style="font: 15px &quot;Suisse Int&apos;l&quot;, sans-serif; text-anchor: middle" x="222.776923" y="388.675" transform="rotate(-0 222.776923 388.675)">15</text>
     </g>
    </g>
    <g id="xtick_5">
     <g id="line2d_5">
      <g>
       <use xlink:href="#mfaf620a098" x="273.844231" y="367.8" style="stroke: #000000; stroke-width: 0.75"/>
      </g>
     </g>
     <g id="text_5">
      <text style="font: 15px &quot;Suisse Int&apos;l&quot;, sans-serif; text-anchor: middle" x="273.844231" y="388.675" transform="rotate(-0 273.844231 388.675)">20</text>
     </g>
    </g>
    <g id="xtick_6">
     <g id="line2d_6">
      <g>
       <use xlink:href="#mfaf620a098" x="324.911538" y="367.8" style="stroke: #000000; stroke-width: 0.75"/>
      </g>
     </g>
     <g id="text_6">
      <text style="font: 15px &quot;Suisse Int&apos;l&quot;, sans-serif; text-anchor: middle" x="324.911538" y="388.675" transform="rotate(-0 324.911538 388.675)">25</text>
     </g>
    </g>
    <g id="xtick_7">
     <g id="line2d_7">
      <g>
       <use xlink:href="#mfaf620a098" x="375.978846" y="367.8" style="stroke: #000000; stroke-width: 0.75"/>
      </g>
     </g>
     <g id="text_7">
      <text style="font: 15px &quot;Suisse Int&apos;l&quot;, sans-serif; text-anchor: middle" x="375.978846" y="388.675" transform="rotate(-0 375.978846 388.675)">30</text>
     </g>
    </g>
    <g id="xtick_8">
     <g id="line2d_8">
      <g>
       <use xlink:href="#mfaf620a098" x="427.046154" y="367.8" style="stroke: #000000; stroke-width: 0.75"/>
      </g>
     </g>
     <g id="text_8">
      <text style="font: 15px &quot;Suisse Int&apos;l&quot;, sans-serif; text-anchor: middle" x="427.046154" y="388.675" transform="rotate(-0 427.046154 388.675)">35</text>
     </g>
    </g>
    <g id="text_9">
     <text style="font: 500 15px &quot;Suisse Int&apos;l&quot;, sans-serif; text-anchor: middle" x="268.7375" y="412.175" transform="rotate(-0 268.7375 412.175)">Pixel Position</text>
    </g>
   </g>
   <g id="matplotlib.axis_2">
    <g id="ytick_1">
     <g id="line2d_9">
      <defs>
       <path id="maadcd1d0b7" d="M 0 0 
L -5 0 
" style="stroke: #000000; stroke-width: 0.75"/>
      </defs>
      <g>
       <use xlink:href="#maadcd1d0b7" x="69.575" y="340.674474" style="stroke: #000000; stroke-width: 0.75"/>
      </g>
     </g>
     <g id="text_10">
      <text style="font: 15px &quot;Suisse Int&apos;l&quot;, sans-serif; text-anchor: end" x="59.575" y="346.111974" transform="rotate(-0 59.575 346.111974)">10</text>
     </g>
    </g>
    <g id="ytick_2">
     <g id="line2d_10">
      <g>
       <use xlink:href="#maadcd1d0b7" x="69.575" y="287.392192" style="stroke: #000000; stroke-width: 0.75"/>
      </g>
     </g>
     <g id="text_11">
      <text style="font: 15px &quot;Suisse Int&apos;l&quot;, sans-serif; text-anchor: end" x="59.575" y="292.829692" transform="rotate(-0 59.575 292.829692)">20</text>
     </g>
    </g>
    <g id="ytick_3">
     <g id="line2d_11">
      <g>
       <use xlink:href="#maadcd1d0b7" x="69.575" y="234.10991" style="stroke: #000000; stroke-width: 0.75"/>
      </g>
     </g>
     <g id="text_12">
      <text style="font: 15px &quot;Suisse Int&apos;l&quot;, sans-serif; text-anchor: end" x="59.575" y="239.54741" transform="rotate(-0 59.575 239.54741)">30</text>
     </g>
    </g>
    <g id="ytick_4">
     <g id="line2d_12">
      <g>
       <use xlink:href="#maadcd1d0b7" x="69.575" y="180.827628" style="stroke: #000000; stroke-width: 0.75"/>
      </g>
     </g>
     <g id="text_13">
      <text style="font: 15px &quot;Suisse Int&apos;l&quot;, sans-serif; text-anchor: end" x="59.575" y="186.265128" transform="rotate(-0 59.575 186.265128)">40</text>
     </g>
    </g>
    <g id="ytick_5">
     <g id="line2d_13">
      <g>
       <use xlink:href="#maadcd1d0b7" x="69.575" y="127.545345" style="stroke: #000000; stroke-width: 0.75"/>
      </g>
     </g>
     <g id="text_14">
      <text style="font: 15px &quot;Suisse Int&apos;l&quot;, sans-serif; text-anchor: end" x="59.575" y="132.982845" transform="rotate(-0 59.575 132.982845)">50</text>
     </g>
    </g>
    <g id="ytick_6">
     <g id="line2d_14">
      <g>
       <use xlink:href="#maadcd1d0b7" x="69.575" y="74.263063" style="stroke: #000000; stroke-width: 0.75"/>
      </g>
     </g>
     <g id="text_15">
      <text style="font: 15px &quot;Suisse Int&apos;l&quot;, sans-serif; text-anchor: end" x="59.575" y="79.700563" transform="rotate(-0 59.575 79.700563)">60</text>
     </g>
    </g>
    <g id="text_16">
     <text style="font: 500 15px &quot;Suisse Int&apos;l&quot;, sans-serif; text-anchor: middle" x="27.675" y="206.5" transform="rotate(-90 27.675 206.5)">Relative Cell Density</text>
    </g>
   </g>
   <g id="line2d_15">
    <path d="M 69.575 222.0003 
L 79.788462 216.187688 
L 90.001923 217.156456 
L 100.215385 219.093994 
L 110.428846 230.719219 
L 120.642308 220.547147 
L 130.855769 229.266066 
L 141.069231 227.328529 
L 151.282692 214.25015 
L 161.496154 210.375075 
L 171.709615 273.345045 
L 181.923077 255.422823 
L 192.136538 234.594294 
L 202.35 234.594294 
L 212.563462 220.062763 
L 222.776923 227.328529 
L 232.990385 216.672072 
L 243.203846 222.969069 
L 253.417308 217.640841 
L 263.630769 221.031532 
L 273.844231 221.515916 
L 284.057692 208.437538 
L 294.271154 214.734535 
L 304.484615 210.375075 
L 314.698077 206.5 
L 324.911538 218.60961 
L 335.125 214.734535 
L 345.338462 212.796997 
L 355.551923 196.812312 
L 365.765385 208.437538 
L 375.978846 207.953153 
L 386.192308 213.765766 
L 396.405769 208.437538 
L 406.619231 209.890691 
L 416.832692 213.765766 
L 427.046154 207.953153 
L 437.259615 207.953153 
L 447.473077 210.859459 
L 457.686538 217.640841 
L 467.9 213.765766 
" clip-path="url(#pfd0d41e524)" style="fill: none; stroke: #5088c5; stroke-opacity: 0.5; stroke-width: 0.5; stroke-linecap: round"/>
   </g>
   <g id="line2d_16">
    <path d="M 69.575 201.171772 
L 79.788462 197.296697 
L 90.001923 198.265465 
L 100.215385 182.765165 
L 110.428846 184.702703 
L 120.642308 182.280781 
L 130.855769 177.436937 
L 141.069231 189.062162 
L 151.282692 185.187087 
L 161.496154 175.983784 
L 171.709615 222.969069 
L 181.923077 220.062763 
L 192.136538 205.531231 
L 202.35 204.562462 
L 212.563462 202.140541 
L 222.776923 198.74985 
L 232.990385 195.843544 
L 243.203846 186.155856 
L 253.417308 192.452853 
L 263.630769 184.702703 
L 273.844231 197.296697 
L 284.057692 184.218318 
L 294.271154 180.343243 
L 304.484615 182.765165 
L 314.698077 181.796396 
L 324.911538 183.733934 
L 335.125 185.187087 
L 345.338462 185.187087 
L 355.551923 180.827628 
L 365.765385 187.124625 
L 375.978846 178.405706 
L 386.192308 186.155856 
L 396.405769 182.765165 
L 406.619231 186.64024 
L 416.832692 182.765165 
L 427.046154 190.515315 
L 437.259615 177.921321 
L 447.473077 180.343243 
L 457.686538 192.937237 
L 467.9 187.124625 
" clip-path="url(#pfd0d41e524)" style="fill: none; stroke: #5088c5; stroke-opacity: 0.5; stroke-width: 0.5; stroke-linecap: round"/>
   </g>
   <g id="line2d_17">
    <path d="M 69.575 150.795796 
L 79.788462 149.827027 
L 90.001923 146.920721 
L 100.215385 150.795796 
L 110.428846 151.764565 
L 120.642308 151.764565 
L 130.855769 147.405105 
L 141.069231 151.764565 
L 151.282692 154.186486 
L 161.496154 159.514715 
L 171.709615 149.342643 
L 181.923077 153.702102 
L 192.136538 142.561261 
L 202.35 156.124024 
L 212.563462 148.373874 
L 222.776923 151.28018 
L 232.990385 154.186486 
L 243.203846 157.577177 
L 253.417308 164.358559 
L 263.630769 163.38979 
L 273.844231 179.374474 
L 284.057692 165.811712 
L 294.271154 172.593093 
L 304.484615 169.202402 
L 314.698077 172.593093 
L 324.911538 173.561862 
L 335.125 163.874174 
L 345.338462 154.186486 
L 355.551923 152.248949 
L 365.765385 149.342643 
L 375.978846 157.577177 
L 386.192308 143.53003 
L 396.405769 144.014414 
L 406.619231 139.170571 
L 416.832692 140.623724 
L 427.046154 154.670871 
L 437.259615 167.264865 
L 447.473077 165.811712 
L 457.686538 166.78048 
L 467.9 155.155255 
" clip-path="url(#pfd0d41e524)" style="fill: none; stroke: #5088c5; stroke-opacity: 0.5; stroke-width: 0.5; stroke-linecap: round"/>
   </g>
   <g id="line2d_18">
    <path d="M 69.575 191.322623 
L 79.788462 187.77047 
L 90.001923 187.447548 
L 100.215385 184.218318 
L 110.428846 189.062162 
L 120.642308 184.864164 
L 130.855769 184.702703 
L 141.069231 189.385085 
L 151.282692 184.541241 
L 161.496154 181.957858 
L 171.709615 215.218919 
L 181.923077 209.729229 
L 192.136538 194.228929 
L 202.35 198.426927 
L 212.563462 190.192392 
L 222.776923 192.452853 
L 232.990385 188.900701 
L 243.203846 188.900701 
L 253.417308 191.484084 
L 263.630769 189.708008 
L 273.844231 199.395696 
L 284.057692 186.155856 
L 294.271154 189.223624 
L 304.484615 187.447548 
L 314.698077 186.963163 
L 324.911538 191.968468 
L 335.125 187.931932 
L 345.338462 184.056857 
L 355.551923 176.62963 
L 365.765385 181.634935 
L 375.978846 181.312012 
L 386.192308 181.150551 
L 396.405769 178.405706 
L 406.619231 178.567167 
L 416.832692 179.051552 
L 427.046154 184.37978 
L 437.259615 184.37978 
L 447.473077 185.671471 
L 457.686538 192.452853 
L 467.9 185.348549 
" clip-path="url(#pfd0d41e524)" style="fill: none; stroke: #5088c5; stroke-width: 2.5; stroke-linecap: round"/>
   </g>
   <g id="line2d_19">
    <path d="M 69.575 139.170571 
L 79.788462 130.451652 
L 90.001923 138.201802 
L 100.215385 131.42042 
L 110.428846 136.748649 
L 120.642308 129.482883 
L 130.855769 135.295495 
L 141.069231 136.748649 
L 151.282692 138.201802 
L 161.496154 134.326727 
L 171.709615 130.451652 
L 181.923077 135.295495 
L 192.136538 127.545345 
L 202.35 141.592492 
L 212.563462 136.748649 
L 222.776923 143.53003 
L 232.990385 139.170571 
L 243.203846 151.28018 
L 253.417308 152.733333 
L 263.630769 157.092793 
L 273.844231 160.967868 
L 284.057692 156.124024 
L 294.271154 157.092793 
L 304.484615 153.217718 
L 314.698077 145.951952 
L 324.911538 140.623724 
L 335.125 142.561261 
L 345.338462 132.389189 
L 355.551923 131.904805 
L 365.765385 134.326727 
L 375.978846 136.264264 
L 386.192308 134.326727 
L 396.405769 130.936036 
L 406.619231 125.607808 
L 416.832692 120.27958 
L 427.046154 146.436336 
L 437.259615 148.858258 
L 447.473077 136.748649 
L 457.686538 136.748649 
L 467.9 125.607808 
" clip-path="url(#pfd0d41e524)" style="fill: none; stroke: #f28360; stroke-opacity: 0.5; stroke-width: 0.5; stroke-linecap: round"/>
   </g>
   <g id="line2d_20">
    <path d="M 69.575 76.200601 
L 79.788462 68.934835 
L 90.001923 72.325526 
L 100.215385 84.435135 
L 110.428846 93.154054 
L 120.642308 77.169369 
L 130.855769 83.466366 
L 141.069231 88.31021 
L 151.282692 82.981982 
L 161.496154 82.013213 
L 171.709615 87.825826 
L 181.923077 90.732132 
L 192.136538 88.794595 
L 202.35 90.247748 
L 212.563462 101.388589 
L 222.776923 104.294895 
L 232.990385 111.560661 
L 243.203846 113.013814 
L 253.417308 124.639039 
L 263.630769 116.404505 
L 273.844231 128.998498 
L 284.057692 123.67027 
L 294.271154 105.748048 
L 304.484615 107.201201 
L 314.698077 88.794595 
L 324.911538 94.607207 
L 335.125 98.482282 
L 345.338462 89.763363 
L 355.551923 81.044444 
L 365.765385 90.247748 
L 375.978846 81.044444 
L 386.192308 89.278979 
L 396.405769 81.044444 
L 406.619231 77.653754 
L 416.832692 82.981982 
L 427.046154 82.981982 
L 437.259615 69.903604 
L 447.473077 77.169369 
L 457.686538 86.372673 
L 467.9 84.435135 
" clip-path="url(#pfd0d41e524)" style="fill: none; stroke: #f28360; stroke-opacity: 0.5; stroke-width: 0.5; stroke-linecap: round"/>
   </g>
   <g id="line2d_21">
    <path d="M 69.575 76.684985 
L 79.788462 65.05976 
L 90.001923 72.80991 
L 100.215385 80.075676 
L 110.428846 64.575375 
L 120.642308 62.637838 
L 130.855769 67.481682 
L 141.069231 78.622523 
L 151.282692 72.80991 
L 161.496154 76.200601 
L 171.709615 79.106907 
L 181.923077 82.981982 
L 192.136538 78.138138 
L 202.35 89.763363 
L 212.563462 86.857057 
L 222.776923 88.794595 
L 232.990385 88.794595 
L 243.203846 104.294895 
L 253.417308 103.810511 
L 263.630769 113.013814 
L 273.844231 114.466967 
L 284.057692 113.498198 
L 294.271154 108.16997 
L 304.484615 113.013814 
L 314.698077 101.872973 
L 324.911538 83.466366 
L 335.125 88.31021 
L 345.338462 86.857057 
L 355.551923 78.622523 
L 365.765385 83.466366 
L 375.978846 79.106907 
L 386.192308 76.200601 
L 396.405769 74.747447 
L 406.619231 77.169369 
L 416.832692 81.528829 
L 427.046154 87.825826 
L 437.259615 74.263063 
L 447.473077 65.05976 
L 457.686538 66.028529 
L 467.9 62.637838 
" clip-path="url(#pfd0d41e524)" style="fill: none; stroke: #f28360; stroke-opacity: 0.5; stroke-width: 0.5; stroke-linecap: round"/>
   </g>
   <g id="line2d_22">
    <path d="M 69.575 97.352052 
L 79.788462 88.148749 
L 90.001923 94.445746 
L 100.215385 98.643744 
L 110.428846 98.159359 
L 120.642308 89.763363 
L 130.855769 95.414515 
L 141.069231 101.227127 
L 151.282692 97.997898 
L 161.496154 97.513514 
L 171.709615 99.128128 
L 181.923077 103.003203 
L 192.136538 98.159359 
L 202.35 107.201201 
L 212.563462 108.331431 
L 222.776923 112.206507 
L 232.990385 113.175275 
L 243.203846 122.862963 
L 253.417308 127.060961 
L 263.630769 128.837037 
L 273.844231 134.811111 
L 284.057692 131.097497 
L 294.271154 123.67027 
L 304.484615 124.477578 
L 314.698077 112.206507 
L 324.911538 106.232432 
L 335.125 109.784585 
L 345.338462 103.003203 
L 355.551923 97.190591 
L 365.765385 102.68028 
L 375.978846 98.805205 
L 386.192308 99.935435 
L 396.405769 95.575976 
L 406.619231 93.476977 
L 416.832692 94.93013 
L 427.046154 105.748048 
L 437.259615 97.674975 
L 447.473077 92.992593 
L 457.686538 96.383283 
L 467.9 90.893594 
" clip-path="url(#pfd0d41e524)" style="fill: none; stroke: #f28360; stroke-width: 2.5; stroke-linecap: round"/>
   </g>
   <g id="line2d_23">
    <path d="M 69.575 79.591291 
L 79.788462 83.466366 
L 90.001923 87.825826 
L 100.215385 75.231832 
L 110.428846 79.591291 
L 120.642308 88.794595 
L 130.855769 85.403904 
L 141.069231 87.341441 
L 151.282692 92.66967 
L 161.496154 90.247748 
L 171.709615 80.56006 
L 181.923077 81.528829 
L 192.136538 84.91952 
L 202.35 89.278979 
L 212.563462 92.185285 
L 222.776923 72.80991 
L 232.990385 74.747447 
L 243.203846 80.075676 
L 253.417308 79.106907 
L 263.630769 86.857057 
L 273.844231 98.482282 
L 284.057692 93.638438 
L 294.271154 97.997898 
L 304.484615 88.794595 
L 314.698077 97.997898 
L 324.911538 98.482282 
L 335.125 96.06036 
L 345.338462 91.700901 
L 355.551923 82.497598 
L 365.765385 77.169369 
L 375.978846 94.607207 
L 386.192308 87.825826 
L 396.405769 86.857057 
L 406.619231 75.231832 
L 416.832692 83.466366 
L 427.046154 79.591291 
L 437.259615 76.684985 
L 447.473077 81.528829 
L 457.686538 83.466366 
L 467.9 86.857057 
" clip-path="url(#pfd0d41e524)" style="fill: none; stroke: #3b9886; stroke-opacity: 0.5; stroke-width: 0.5; stroke-linecap: round"/>
   </g>
   <g id="line2d_24">
    <path d="M 69.575 99.451051 
L 79.788462 81.528829 
L 90.001923 85.403904 
L 100.215385 93.638438 
L 110.428846 86.372673 
L 120.642308 87.825826 
L 130.855769 90.732132 
L 141.069231 85.403904 
L 151.282692 88.794595 
L 161.496154 87.341441 
L 171.709615 93.638438 
L 181.923077 77.653754 
L 192.136538 89.278979 
L 202.35 87.341441 
L 212.563462 83.466366 
L 222.776923 88.31021 
L 232.990385 93.638438 
L 243.203846 90.732132 
L 253.417308 106.232432 
L 263.630769 109.623123 
L 273.844231 115.92012 
L 284.057692 115.435736 
L 294.271154 115.435736 
L 304.484615 107.685586 
L 314.698077 105.263664 
L 324.911538 102.841742 
L 335.125 100.41982 
L 345.338462 95.575976 
L 355.551923 97.997898 
L 365.765385 97.997898 
L 375.978846 88.31021 
L 386.192308 95.575976 
L 396.405769 86.372673 
L 406.619231 87.825826 
L 416.832692 88.31021 
L 427.046154 84.91952 
L 437.259615 87.341441 
L 447.473077 91.216517 
L 457.686538 84.435135 
L 467.9 87.825826 
" clip-path="url(#pfd0d41e524)" style="fill: none; stroke: #3b9886; stroke-opacity: 0.5; stroke-width: 0.5; stroke-linecap: round"/>
   </g>
   <g id="line2d_25">
    <path d="M 69.575 110.107508 
L 79.788462 102.357357 
L 90.001923 113.013814 
L 100.215385 106.232432 
L 110.428846 113.013814 
L 120.642308 110.107508 
L 130.855769 104.294895 
L 141.069231 96.544745 
L 151.282692 102.841742 
L 161.496154 94.122823 
L 171.709615 98.482282 
L 181.923077 97.029129 
L 192.136538 99.935435 
L 202.35 102.357357 
L 212.563462 94.122823 
L 222.776923 108.654354 
L 232.990385 105.263664 
L 243.203846 115.435736 
L 253.417308 129.967267 
L 263.630769 132.873574 
L 273.844231 137.717417 
L 284.057692 137.233033 
L 294.271154 131.904805 
L 304.484615 120.763964 
L 314.698077 116.888889 
L 324.911538 118.342042 
L 335.125 110.107508 
L 345.338462 109.138739 
L 355.551923 102.841742 
L 365.765385 111.076276 
L 375.978846 101.388589 
L 386.192308 101.872973 
L 396.405769 90.247748 
L 406.619231 95.575976 
L 416.832692 97.029129 
L 427.046154 95.575976 
L 437.259615 106.716817 
L 447.473077 110.591892 
L 457.686538 105.748048 
L 467.9 111.076276 
" clip-path="url(#pfd0d41e524)" style="fill: none; stroke: #3b9886; stroke-opacity: 0.5; stroke-width: 0.5; stroke-linecap: round"/>
   </g>
   <g id="line2d_26">
    <path d="M 69.575 96.383283 
L 79.788462 89.117518 
L 90.001923 95.414515 
L 100.215385 91.700901 
L 110.428846 92.992593 
L 120.642308 95.575976 
L 130.855769 93.476977 
L 141.069231 89.763363 
L 151.282692 94.768669 
L 161.496154 90.570671 
L 171.709615 90.893594 
L 181.923077 85.403904 
L 192.136538 91.377978 
L 202.35 92.992593 
L 212.563462 89.924825 
L 222.776923 89.924825 
L 232.990385 91.216517 
L 243.203846 95.414515 
L 253.417308 105.102202 
L 263.630769 109.784585 
L 273.844231 117.373273 
L 284.057692 115.435736 
L 294.271154 115.112813 
L 304.484615 105.748048 
L 314.698077 106.716817 
L 324.911538 106.555355 
L 335.125 102.195896 
L 345.338462 98.805205 
L 355.551923 94.445746 
L 365.765385 95.414515 
L 375.978846 94.768669 
L 386.192308 95.091592 
L 396.405769 87.825826 
L 406.619231 86.211211 
L 416.832692 89.601902 
L 427.046154 86.695596 
L 437.259615 90.247748 
L 447.473077 94.445746 
L 457.686538 91.216517 
L 467.9 95.253053 
" clip-path="url(#pfd0d41e524)" style="fill: none; stroke: #3b9886; stroke-width: 2.5; stroke-linecap: round"/>
   </g>
   <g id="line2d_27">
    <path d="M 69.575 134.811111 
L 79.788462 132.873574 
L 90.001923 135.77988 
L 100.215385 131.904805 
L 110.428846 135.295495 
L 120.642308 141.108108 
L 130.855769 142.561261 
L 141.069231 130.936036 
L 151.282692 136.264264 
L 161.496154 140.623724 
L 171.709615 134.326727 
L 181.923077 134.326727 
L 192.136538 144.498799 
L 202.35 141.108108 
L 212.563462 139.170571 
L 222.776923 148.858258 
L 232.990385 162.421021 
L 243.203846 167.264865 
L 253.417308 174.530631 
L 263.630769 177.436937 
L 273.844231 179.858859 
L 284.057692 171.624324 
L 294.271154 175.499399 
L 304.484615 161.936637 
L 314.698077 159.999099 
L 324.911538 149.342643 
L 335.125 145.467568 
L 345.338462 144.983183 
L 355.551923 139.170571 
L 365.765385 144.014414 
L 375.978846 137.233033 
L 386.192308 138.686186 
L 396.405769 134.326727 
L 406.619231 133.357958 
L 416.832692 136.264264 
L 427.046154 131.904805 
L 437.259615 139.654955 
L 447.473077 134.326727 
L 457.686538 132.873574 
L 467.9 131.42042 
" clip-path="url(#pfd0d41e524)" style="fill: none; stroke: #f7b846; stroke-opacity: 0.5; stroke-width: 0.5; stroke-linecap: round"/>
   </g>
   <g id="line2d_28">
    <path d="M 69.575 180.827628 
L 79.788462 184.218318 
L 90.001923 180.827628 
L 100.215385 178.89009 
L 110.428846 186.155856 
L 120.642308 185.187087 
L 130.855769 174.530631 
L 141.069231 185.671471 
L 151.282692 177.921321 
L 161.496154 178.89009 
L 171.709615 158.061562 
L 181.923077 164.358559 
L 192.136538 160.483483 
L 202.35 176.468168 
L 212.563462 176.952553 
L 222.776923 195.359159 
L 232.990385 210.375075 
L 243.203846 217.156456 
L 253.417308 220.062763 
L 263.630769 221.515916 
L 273.844231 219.578378 
L 284.057692 214.734535 
L 294.271154 205.046847 
L 304.484615 193.421622 
L 314.698077 192.452853 
L 324.911538 183.24955 
L 335.125 184.218318 
L 345.338462 170.655556 
L 355.551923 182.280781 
L 365.765385 179.858859 
L 375.978846 171.624324 
L 386.192308 175.015015 
L 396.405769 179.374474 
L 406.619231 175.499399 
L 416.832692 179.858859 
L 427.046154 186.155856 
L 437.259615 177.436937 
L 447.473077 176.952553 
L 457.686538 186.155856 
L 467.9 183.733934 
" clip-path="url(#pfd0d41e524)" style="fill: none; stroke: #f7b846; stroke-opacity: 0.5; stroke-width: 0.5; stroke-linecap: round"/>
   </g>
   <g id="line2d_29">
    <path d="M 69.575 205.046847 
L 79.788462 211.343844 
L 90.001923 207.953153 
L 100.215385 206.984384 
L 110.428846 214.734535 
L 120.642308 220.547147 
L 130.855769 211.828228 
L 141.069231 217.156456 
L 151.282692 213.281381 
L 161.496154 222.0003 
L 171.709615 225.390991 
L 181.923077 229.266066 
L 192.136538 242.344444 
L 202.35 252.032132 
L 212.563462 264.141742 
L 222.776923 272.860661 
L 232.990385 271.891892 
L 243.203846 270.438739 
L 253.417308 272.376276 
L 263.630769 259.782282 
L 273.844231 251.063363 
L 284.057692 240.891291 
L 294.271154 240.891291 
L 304.484615 228.781682 
L 314.698077 216.672072 
L 324.911538 220.547147 
L 335.125 218.60961 
L 345.338462 225.390991 
L 355.551923 209.890691 
L 365.765385 217.640841 
L 375.978846 218.60961 
L 386.192308 218.125225 
L 396.405769 212.312613 
L 406.619231 210.859459 
L 416.832692 222.484685 
L 427.046154 215.703303 
L 437.259615 215.703303 
L 447.473077 216.672072 
L 457.686538 211.828228 
L 467.9 215.218919 
" clip-path="url(#pfd0d41e524)" style="fill: none; stroke: #f7b846; stroke-opacity: 0.5; stroke-width: 0.5; stroke-linecap: round"/>
   </g>
   <g id="line2d_30">
    <path d="M 69.575 173.561862 
L 79.788462 176.145245 
L 90.001923 174.853554 
L 100.215385 172.593093 
L 110.428846 178.728629 
L 120.642308 182.280781 
L 130.855769 176.306707 
L 141.069231 177.921321 
L 151.282692 175.822322 
L 161.496154 180.504705 
L 171.709615 172.593093 
L 181.923077 175.983784 
L 192.136538 182.442242 
L 202.35 189.869469 
L 212.563462 193.421622 
L 222.776923 205.692693 
L 232.990385 214.895996 
L 243.203846 218.286687 
L 253.417308 222.323223 
L 263.630769 219.578378 
L 273.844231 216.833534 
L 284.057692 209.083383 
L 294.271154 207.145846 
L 304.484615 194.713313 
L 314.698077 189.708008 
L 324.911538 184.37978 
L 335.125 182.765165 
L 345.338462 180.343243 
L 355.551923 177.114014 
L 365.765385 180.504705 
L 375.978846 175.822322 
L 386.192308 177.275475 
L 396.405769 175.337938 
L 406.619231 173.238939 
L 416.832692 179.535936 
L 427.046154 177.921321 
L 437.259615 177.598398 
L 447.473077 175.983784 
L 457.686538 176.952553 
L 467.9 176.791091 
" clip-path="url(#pfd0d41e524)" style="fill: none; stroke: #f7b846; stroke-width: 2.5; stroke-linecap: round"/>
   </g>
   <g id="line2d_31">
    <path d="M 69.575 214.734535 
L 79.788462 216.672072 
L 90.001923 219.578378 
L 100.215385 211.828228 
L 110.428846 210.859459 
L 120.642308 201.656156 
L 130.855769 209.406306 
L 141.069231 267.048048 
L 151.282692 239.922523 
L 161.496154 231.203604 
L 171.709615 216.672072 
L 181.923077 218.60961 
L 192.136538 214.25015 
L 202.35 209.890691 
L 212.563462 214.25015 
L 222.776923 216.672072 
L 232.990385 205.531231 
L 243.203846 206.015616 
L 253.417308 203.109309 
L 263.630769 198.74985 
L 273.844231 207.468769 
L 284.057692 203.109309 
L 294.271154 201.171772 
L 304.484615 195.359159 
L 314.698077 199.718619 
L 324.911538 195.843544 
L 335.125 195.843544 
L 345.338462 197.781081 
L 355.551923 196.327928 
L 365.765385 204.562462 
L 375.978846 200.687387 
L 386.192308 194.874775 
L 396.405769 205.046847 
L 406.619231 203.593694 
L 416.832692 196.812312 
L 427.046154 204.078078 
L 437.259615 205.531231 
L 447.473077 213.281381 
L 457.686538 207.953153 
L 467.9 201.656156 
" clip-path="url(#pfd0d41e524)" style="fill: none; stroke: #7a77ab; stroke-opacity: 0.5; stroke-width: 0.5; stroke-linecap: round"/>
   </g>
   <g id="line2d_32">
    <path d="M 69.575 184.218318 
L 79.788462 184.702703 
L 90.001923 188.577778 
L 100.215385 182.765165 
L 110.428846 193.906006 
L 120.642308 193.906006 
L 130.855769 200.687387 
L 141.069231 197.296697 
L 151.282692 191.484084 
L 161.496154 202.140541 
L 171.709615 197.296697 
L 181.923077 189.062162 
L 192.136538 202.140541 
L 202.35 197.296697 
L 212.563462 194.39039 
L 222.776923 197.296697 
L 232.990385 201.656156 
L 243.203846 203.109309 
L 253.417308 203.593694 
L 263.630769 211.343844 
L 273.844231 216.187688 
L 284.057692 218.125225 
L 294.271154 216.672072 
L 304.484615 214.25015 
L 314.698077 200.687387 
L 324.911538 198.74985 
L 335.125 205.046847 
L 345.338462 186.64024 
L 355.551923 186.64024 
L 365.765385 176.468168 
L 375.978846 184.218318 
L 386.192308 201.656156 
L 396.405769 201.656156 
L 406.619231 197.296697 
L 416.832692 192.937237 
L 427.046154 189.546547 
L 437.259615 192.937237 
L 447.473077 187.124625 
L 457.686538 189.546547 
L 467.9 188.577778 
" clip-path="url(#pfd0d41e524)" style="fill: none; stroke: #7a77ab; stroke-opacity: 0.5; stroke-width: 0.5; stroke-linecap: round"/>
   </g>
   <g id="line2d_33">
    <path d="M 69.575 159.514715 
L 79.788462 165.327327 
L 90.001923 167.749249 
L 100.215385 162.905405 
L 110.428846 169.686787 
L 120.642308 175.983784 
L 130.855769 175.499399 
L 141.069231 175.015015 
L 151.282692 166.78048 
L 161.496154 171.624324 
L 171.709615 182.280781 
L 181.923077 175.499399 
L 192.136538 177.436937 
L 202.35 173.561862 
L 212.563462 168.718018 
L 222.776923 173.077477 
L 232.990385 180.343243 
L 243.203846 182.280781 
L 253.417308 184.702703 
L 263.630769 187.609009 
L 273.844231 189.062162 
L 284.057692 184.702703 
L 294.271154 182.280781 
L 304.484615 172.108709 
L 314.698077 174.046246 
L 324.911538 163.874174 
L 335.125 171.624324 
L 345.338462 163.38979 
L 355.551923 155.63964 
L 365.765385 154.670871 
L 375.978846 156.124024 
L 386.192308 159.999099 
L 396.405769 150.311411 
L 406.619231 162.905405 
L 416.832692 168.233634 
L 427.046154 158.545946 
L 437.259615 148.373874 
L 447.473077 153.702102 
L 457.686538 156.608408 
L 467.9 151.28018 
" clip-path="url(#pfd0d41e524)" style="fill: none; stroke: #7a77ab; stroke-opacity: 0.5; stroke-width: 0.5; stroke-linecap: round"/>
   </g>
   <g id="line2d_34">
    <path d="M 69.575 186.155856 
L 79.788462 188.900701 
L 90.001923 191.968468 
L 100.215385 185.832933 
L 110.428846 191.484084 
L 120.642308 190.515315 
L 130.855769 195.197698 
L 141.069231 213.11992 
L 151.282692 199.395696 
L 161.496154 201.656156 
L 171.709615 198.74985 
L 181.923077 194.39039 
L 192.136538 197.942543 
L 202.35 193.583083 
L 212.563462 192.452853 
L 222.776923 195.682082 
L 232.990385 195.843544 
L 243.203846 197.135235 
L 253.417308 197.135235 
L 263.630769 199.234234 
L 273.844231 204.23954 
L 284.057692 201.979079 
L 294.271154 200.041542 
L 304.484615 193.906006 
L 314.698077 191.484084 
L 324.911538 186.155856 
L 335.125 190.838238 
L 345.338462 182.603704 
L 355.551923 179.535936 
L 365.765385 178.567167 
L 375.978846 180.343243 
L 386.192308 185.51001 
L 396.405769 185.671471 
L 406.619231 187.931932 
L 416.832692 185.994394 
L 427.046154 184.056857 
L 437.259615 182.280781 
L 447.473077 184.702703 
L 457.686538 184.702703 
L 467.9 180.504705 
" clip-path="url(#pfd0d41e524)" style="fill: none; stroke: #7a77ab; stroke-width: 2.5; stroke-linecap: round"/>
   </g>
   <g id="line2d_35">
    <path d="M 69.575 126.092192 
L 79.788462 130.451652 
L 90.001923 123.185886 
L 100.215385 128.02973 
L 110.428846 129.967267 
L 120.642308 128.02973 
L 130.855769 126.092192 
L 141.069231 127.545345 
L 151.282692 118.826426 
L 161.496154 127.545345 
L 171.709615 133.357958 
L 181.923077 138.686186 
L 192.136538 141.592492 
L 202.35 143.53003 
L 212.563462 155.63964 
L 222.776923 168.233634 
L 232.990385 177.436937 
L 243.203846 177.921321 
L 253.417308 179.858859 
L 263.630769 177.436937 
L 273.844231 180.343243 
L 284.057692 158.061562 
L 294.271154 159.03033 
L 304.484615 153.217718 
L 314.698077 138.201802 
L 324.911538 129.482883 
L 335.125 135.295495 
L 345.338462 120.763964 
L 355.551923 126.576577 
L 365.765385 125.123423 
L 375.978846 118.342042 
L 386.192308 122.217117 
L 396.405769 109.623123 
L 406.619231 129.967267 
L 416.832692 120.27958 
L 427.046154 125.607808 
L 437.259615 120.27958 
L 447.473077 118.342042 
L 457.686538 121.732733 
L 467.9 127.060961 
" clip-path="url(#pfd0d41e524)" style="fill: none; stroke: #f898ae; stroke-opacity: 0.5; stroke-width: 0.5; stroke-linecap: round"/>
   </g>
   <g id="line2d_36">
    <path d="M 69.575 88.31021 
L 79.788462 82.013213 
L 90.001923 83.466366 
L 100.215385 84.91952 
L 110.428846 87.825826 
L 120.642308 84.435135 
L 130.855769 96.544745 
L 141.069231 92.185285 
L 151.282692 93.154054 
L 161.496154 94.607207 
L 171.709615 86.372673 
L 181.923077 84.91952 
L 192.136538 95.575976 
L 202.35 102.841742 
L 212.563462 103.810511 
L 222.776923 114.951351 
L 232.990385 128.02973 
L 243.203846 138.201802 
L 253.417308 140.139339 
L 263.630769 154.670871 
L 273.844231 162.421021 
L 284.057692 157.577177 
L 294.271154 159.03033 
L 304.484615 149.342643 
L 314.698077 132.389189 
L 324.911538 124.639039 
L 335.125 125.123423 
L 345.338462 105.263664 
L 355.551923 103.326126 
L 365.765385 101.388589 
L 375.978846 91.700901 
L 386.192308 99.935435 
L 396.405769 85.888288 
L 406.619231 89.278979 
L 416.832692 93.154054 
L 427.046154 96.06036 
L 437.259615 92.66967 
L 447.473077 96.06036 
L 457.686538 84.435135 
L 467.9 86.372673 
" clip-path="url(#pfd0d41e524)" style="fill: none; stroke: #f898ae; stroke-opacity: 0.5; stroke-width: 0.5; stroke-linecap: round"/>
   </g>
   <g id="line2d_37">
    <path d="M 69.575 79.591291 
L 79.788462 77.169369 
L 90.001923 87.341441 
L 100.215385 89.763363 
L 110.428846 90.732132 
L 120.642308 87.825826 
L 130.855769 83.950751 
L 141.069231 93.638438 
L 151.282692 89.278979 
L 161.496154 94.122823 
L 171.709615 96.06036 
L 181.923077 97.513514 
L 192.136538 96.544745 
L 202.35 100.41982 
L 212.563462 110.591892 
L 222.776923 119.310811 
L 232.990385 129.967267 
L 243.203846 140.623724 
L 253.417308 144.498799 
L 263.630769 170.655556 
L 273.844231 171.13994 
L 284.057692 161.452252 
L 294.271154 166.296096 
L 304.484615 154.670871 
L 314.698077 144.014414 
L 324.911538 120.763964 
L 335.125 122.701502 
L 345.338462 117.373273 
L 355.551923 102.357357 
L 365.765385 103.810511 
L 375.978846 98.966667 
L 386.192308 99.935435 
L 396.405769 93.638438 
L 406.619231 91.700901 
L 416.832692 97.029129 
L 427.046154 92.185285 
L 437.259615 99.935435 
L 447.473077 85.403904 
L 457.686538 85.888288 
L 467.9 85.888288 
" clip-path="url(#pfd0d41e524)" style="fill: none; stroke: #f898ae; stroke-opacity: 0.5; stroke-width: 0.5; stroke-linecap: round"/>
   </g>
   <g id="line2d_38">
    <path d="M 69.575 97.997898 
L 79.788462 96.544745 
L 90.001923 97.997898 
L 100.215385 100.904204 
L 110.428846 102.841742 
L 120.642308 100.096897 
L 130.855769 102.195896 
L 141.069231 104.456356 
L 151.282692 100.41982 
L 161.496154 105.425125 
L 171.709615 105.263664 
L 181.923077 107.03974 
L 192.136538 111.237738 
L 202.35 115.597197 
L 212.563462 123.347347 
L 222.776923 134.165265 
L 232.990385 145.144645 
L 243.203846 152.248949 
L 253.417308 154.832332 
L 263.630769 167.587788 
L 273.844231 171.301401 
L 284.057692 159.03033 
L 294.271154 161.452252 
L 304.484615 152.41041 
L 314.698077 138.201802 
L 324.911538 124.961962 
L 335.125 127.706807 
L 345.338462 114.466967 
L 355.551923 110.753353 
L 365.765385 110.107508 
L 375.978846 103.003203 
L 386.192308 107.362663 
L 396.405769 96.383283 
L 406.619231 103.649049 
L 416.832692 103.487588 
L 427.046154 104.617818 
L 437.259615 104.294895 
L 447.473077 99.935435 
L 457.686538 97.352052 
L 467.9 99.773974 
" clip-path="url(#pfd0d41e524)" style="fill: none; stroke: #f898ae; stroke-width: 2.5; stroke-linecap: round"/>
   </g>
   <g id="line2d_39">
    <path d="M 69.575 87.341441 
L 79.788462 86.857057 
L 90.001923 96.544745 
L 100.215385 93.154054 
L 110.428846 99.935435 
L 120.642308 99.451051 
L 130.855769 101.388589 
L 141.069231 112.529429 
L 151.282692 105.748048 
L 161.496154 105.748048 
L 171.709615 107.685586 
L 181.923077 115.92012 
L 192.136538 122.701502 
L 202.35 120.763964 
L 212.563462 141.108108 
L 222.776923 164.358559 
L 232.990385 176.468168 
L 243.203846 200.687387 
L 253.417308 215.703303 
L 263.630769 219.093994 
L 273.844231 233.141141 
L 284.057692 224.906607 
L 294.271154 232.656757 
L 304.484615 222.484685 
L 314.698077 193.906006 
L 324.911538 180.827628 
L 335.125 162.421021 
L 345.338462 143.045646 
L 355.551923 136.748649 
L 365.765385 116.404505 
L 375.978846 113.498198 
L 386.192308 100.41982 
L 396.405769 100.904204 
L 406.619231 101.388589 
L 416.832692 87.825826 
L 427.046154 103.326126 
L 437.259615 97.029129 
L 447.473077 96.06036 
L 457.686538 88.31021 
L 467.9 95.091592 
" clip-path="url(#pfd0d41e524)" style="fill: none; stroke: #73b5e3; stroke-opacity: 0.5; stroke-width: 0.5; stroke-linecap: round"/>
   </g>
   <g id="line2d_40">
    <path d="M 69.575 102.841742 
L 79.788462 95.091592 
L 90.001923 98.482282 
L 100.215385 98.966667 
L 110.428846 100.904204 
L 120.642308 92.185285 
L 130.855769 102.357357 
L 141.069231 103.326126 
L 151.282692 108.654354 
L 161.496154 98.966667 
L 171.709615 113.013814 
L 181.923077 121.732733 
L 192.136538 127.545345 
L 202.35 142.076877 
L 212.563462 154.670871 
L 222.776923 168.718018 
L 232.990385 195.359159 
L 243.203846 207.953153 
L 253.417308 227.328529 
L 263.630769 231.687988 
L 273.844231 238.953754 
L 284.057692 238.953754 
L 294.271154 230.719219 
L 304.484615 224.906607 
L 314.698077 208.437538 
L 324.911538 201.171772 
L 335.125 181.312012 
L 345.338462 147.889489 
L 355.551923 139.654955 
L 365.765385 134.326727 
L 375.978846 117.857658 
L 386.192308 106.232432 
L 396.405769 108.654354 
L 406.619231 111.560661 
L 416.832692 113.013814 
L 427.046154 104.779279 
L 437.259615 105.748048 
L 447.473077 96.544745 
L 457.686538 91.700901 
L 467.9 99.935435 
" clip-path="url(#pfd0d41e524)" style="fill: none; stroke: #73b5e3; stroke-opacity: 0.5; stroke-width: 0.5; stroke-linecap: round"/>
   </g>
   <g id="line2d_41">
    <path d="M 69.575 117.373273 
L 79.788462 108.16997 
L 90.001923 114.951351 
L 100.215385 109.138739 
L 110.428846 121.248348 
L 120.642308 117.373273 
L 130.855769 116.404505 
L 141.069231 121.732733 
L 151.282692 116.888889 
L 161.496154 114.466967 
L 171.709615 116.404505 
L 181.923077 113.498198 
L 192.136538 119.795195 
L 202.35 132.389189 
L 212.563462 145.467568 
L 222.776923 162.905405 
L 232.990385 188.577778 
L 243.203846 212.312613 
L 253.417308 222.969069 
L 263.630769 237.984985 
L 273.844231 249.61021 
L 284.057692 245.735135 
L 294.271154 240.891291 
L 304.484615 230.719219 
L 314.698077 213.765766 
L 324.911538 186.64024 
L 335.125 159.514715 
L 345.338462 155.155255 
L 355.551923 137.233033 
L 365.765385 131.42042 
L 375.978846 128.998498 
L 386.192308 122.701502 
L 396.405769 116.888889 
L 406.619231 101.388589 
L 416.832692 81.044444 
L 427.046154 87.825826 
L 437.259615 101.872973 
L 447.473077 110.107508 
L 457.686538 124.639039 
L 467.9 114.951351 
" clip-path="url(#pfd0d41e524)" style="fill: none; stroke: #73b5e3; stroke-opacity: 0.5; stroke-width: 0.5; stroke-linecap: round"/>
   </g>
   <g id="line2d_42">
    <path d="M 69.575 102.518819 
L 79.788462 96.706206 
L 90.001923 103.326126 
L 100.215385 100.41982 
L 110.428846 107.362663 
L 120.642308 103.003203 
L 130.855769 106.716817 
L 141.069231 112.529429 
L 151.282692 110.43043 
L 161.496154 106.393894 
L 171.709615 112.367968 
L 181.923077 117.05035 
L 192.136538 123.347347 
L 202.35 131.743343 
L 212.563462 147.082182 
L 222.776923 165.327327 
L 232.990385 186.801702 
L 243.203846 206.984384 
L 253.417308 222.0003 
L 263.630769 229.588989 
L 273.844231 240.568368 
L 284.057692 236.531832 
L 294.271154 234.755756 
L 304.484615 226.036837 
L 314.698077 205.36977 
L 324.911538 189.546547 
L 335.125 167.749249 
L 345.338462 148.696797 
L 355.551923 137.878879 
L 365.765385 127.383884 
L 375.978846 120.118118 
L 386.192308 109.784585 
L 396.405769 108.815816 
L 406.619231 104.779279 
L 416.832692 93.961361 
L 427.046154 98.643744 
L 437.259615 101.55005 
L 447.473077 100.904204 
L 457.686538 101.55005 
L 467.9 103.326126 
" clip-path="url(#pfd0d41e524)" style="fill: none; stroke: #73b5e3; stroke-width: 2.5; stroke-linecap: round"/>
   </g>
   <g id="line2d_43">
    <path d="M 69.575 189.062162 
L 79.788462 206.015616 
L 90.001923 204.078078 
L 100.215385 197.781081 
L 110.428846 206.984384 
L 120.642308 201.656156 
L 130.855769 211.828228 
L 141.069231 207.468769 
L 151.282692 210.375075 
L 161.496154 206.015616 
L 171.709615 200.687387 
L 181.923077 209.406306 
L 192.136538 209.406306 
L 202.35 211.828228 
L 212.563462 203.593694 
L 222.776923 197.296697 
L 232.990385 206.015616 
L 243.203846 210.859459 
L 253.417308 204.078078 
L 263.630769 211.828228 
L 273.844231 216.187688 
L 284.057692 211.828228 
L 294.271154 222.484685 
L 304.484615 216.187688 
L 314.698077 222.484685 
L 324.911538 222.969069 
L 335.125 224.422222 
L 345.338462 232.656757 
L 355.551923 229.266066 
L 365.765385 235.078679 
L 375.978846 231.687988 
L 386.192308 197.781081 
L 396.405769 186.155856 
L 406.619231 187.609009 
L 416.832692 195.359159 
L 427.046154 183.24955 
L 437.259615 193.421622 
L 447.473077 198.74985 
L 457.686538 190.9997 
L 467.9 192.452853 
" clip-path="url(#pfd0d41e524)" style="fill: none; stroke: #ffb984; stroke-opacity: 0.5; stroke-width: 0.5; stroke-linecap: round"/>
   </g>
   <g id="line2d_44">
    <path d="M 69.575 261.235435 
L 79.788462 222.969069 
L 90.001923 214.25015 
L 100.215385 214.734535 
L 110.428846 211.828228 
L 120.642308 220.062763 
L 130.855769 225.390991 
L 141.069231 232.656757 
L 151.282692 232.172372 
L 161.496154 239.922523 
L 171.709615 237.984985 
L 181.923077 240.891291 
L 192.136538 237.500601 
L 202.35 236.047447 
L 212.563462 238.953754 
L 222.776923 241.86006 
L 232.990385 241.375676 
L 243.203846 243.797598 
L 253.417308 242.344444 
L 263.630769 238.469369 
L 273.844231 244.766366 
L 284.057692 240.406907 
L 294.271154 234.594294 
L 304.484615 233.625526 
L 314.698077 234.10991 
L 324.911538 229.266066 
L 335.125 233.141141 
L 345.338462 224.422222 
L 355.551923 229.75045 
L 365.765385 229.75045 
L 375.978846 238.953754 
L 386.192308 231.687988 
L 396.405769 234.594294 
L 406.619231 249.61021 
L 416.832692 245.735135 
L 427.046154 248.641441 
L 437.259615 242.344444 
L 447.473077 245.250751 
L 457.686538 254.454054 
L 467.9 251.063363 
" clip-path="url(#pfd0d41e524)" style="fill: none; stroke: #ffb984; stroke-opacity: 0.5; stroke-width: 0.5; stroke-linecap: round"/>
   </g>
   <g id="line2d_45">
    <path d="M 69.575 228.781682 
L 79.788462 228.781682 
L 90.001923 239.922523 
L 100.215385 245.250751 
L 110.428846 239.438138 
L 120.642308 242.828829 
L 130.855769 245.735135 
L 141.069231 246.703904 
L 151.282692 251.063363 
L 161.496154 256.391592 
L 171.709615 237.984985 
L 181.923077 234.10991 
L 192.136538 235.563063 
L 202.35 237.984985 
L 212.563462 239.922523 
L 222.776923 232.656757 
L 232.990385 230.719219 
L 243.203846 245.250751 
L 253.417308 237.984985 
L 263.630769 237.016216 
L 273.844231 241.86006 
L 284.057692 238.953754 
L 294.271154 237.500601 
L 304.484615 233.141141 
L 314.698077 239.438138 
L 324.911538 235.078679 
L 335.125 237.500601 
L 345.338462 234.10991 
L 355.551923 240.406907 
L 365.765385 235.078679 
L 375.978846 233.141141 
L 386.192308 237.984985 
L 396.405769 233.625526 
L 406.619231 232.172372 
L 416.832692 235.078679 
L 427.046154 240.891291 
L 437.259615 232.656757 
L 447.473077 240.406907 
L 457.686538 225.875375 
L 467.9 238.469369 
" clip-path="url(#pfd0d41e524)" style="fill: none; stroke: #ffb984; stroke-opacity: 0.5; stroke-width: 0.5; stroke-linecap: round"/>
   </g>
   <g id="line2d_46">
    <path d="M 69.575 226.35976 
L 79.788462 219.255455 
L 90.001923 219.416917 
L 100.215385 219.255455 
L 110.428846 219.416917 
L 120.642308 221.515916 
L 130.855769 227.651451 
L 141.069231 228.943143 
L 151.282692 231.203604 
L 161.496154 234.10991 
L 171.709615 225.552452 
L 181.923077 228.135836 
L 192.136538 227.48999 
L 202.35 228.62022 
L 212.563462 227.48999 
L 222.776923 223.937838 
L 232.990385 226.036837 
L 243.203846 233.302603 
L 253.417308 228.135836 
L 263.630769 229.104605 
L 273.844231 234.271371 
L 284.057692 230.396296 
L 294.271154 231.526527 
L 304.484615 227.651451 
L 314.698077 232.010911 
L 324.911538 229.104605 
L 335.125 231.687988 
L 345.338462 230.396296 
L 355.551923 233.141141 
L 365.765385 233.302603 
L 375.978846 234.594294 
L 386.192308 222.484685 
L 396.405769 218.125225 
L 406.619231 223.130531 
L 416.832692 225.390991 
L 427.046154 224.260761 
L 437.259615 222.807608 
L 447.473077 228.135836 
L 457.686538 223.776376 
L 467.9 227.328529 
" clip-path="url(#pfd0d41e524)" style="fill: none; stroke: #ffb984; stroke-width: 2.5; stroke-linecap: round"/>
   </g>
   <g id="patch_3">
    <path d="M 69.575 367.8 
L 69.575 45.2 
" style="fill: none; stroke: #000000; stroke-width: 0.75; stroke-linejoin: miter; stroke-linecap: square"/>
   </g>
   <g id="patch_4">
    <path d="M 69.575 367.8 
L 467.9 367.8 
" style="fill: none; stroke: #000000; stroke-width: 0.75; stroke-linejoin: miter; stroke-linecap: square"/>
   </g>
   <g id="text_17">
    <text style="font: 500 18px &quot;Suisse Int&apos;l&quot;, sans-serif; text-anchor: middle" x="268.7375" y="29.2" transform="rotate(-0 268.7375 29.2)">Normalized Spatial Density of Cells in a Conical Well : CC-125</text>
   </g>
   <g id="legend_1">
    <g id="line2d_47">
     <path d="M 487.81625 51.575 
L 495.31625 51.575 
L 502.81625 51.575 
" style="fill: none; stroke: #5088c5; stroke-width: 2.5; stroke-linecap: round"/>
    </g>
    <g id="text_18">
     <text style="font: 15px &quot;Suisse Int&apos;l&quot;, sans-serif; text-anchor: start" x="508.81625" y="57.95" transform="rotate(-0 508.81625 57.95)">water Average</text>
    </g>
    <g id="line2d_48">
     <path d="M 487.81625 74.644531 
L 495.31625 74.644531 
L 502.81625 74.644531 
" style="fill: none; stroke: #f28360; stroke-width: 2.5; stroke-linecap: round"/>
    </g>
    <g id="text_19">
     <text style="font: 15px &quot;Suisse Int&apos;l&quot;, sans-serif; text-anchor: start" x="508.81625" y="81.019531" transform="rotate(-0 508.81625 81.019531)">0.1% DMSO Average</text>
    </g>
    <g id="line2d_49">
     <path d="M 487.81625 97.714062 
L 495.31625 97.714062 
L 502.81625 97.714062 
" style="fill: none; stroke: #3b9886; stroke-width: 2.5; stroke-linecap: round"/>
    </g>
    <g id="text_20">
     <text style="font: 15px &quot;Suisse Int&apos;l&quot;, sans-serif; text-anchor: start" x="508.81625" y="104.089062" transform="rotate(-0 508.81625 104.089062)">50 µM Torin2 Average</text>
    </g>
    <g id="line2d_50">
     <path d="M 487.81625 120.783594 
L 495.31625 120.783594 
L 502.81625 120.783594 
" style="fill: none; stroke: #f7b846; stroke-width: 2.5; stroke-linecap: round"/>
    </g>
    <g id="text_21">
     <text style="font: 15px &quot;Suisse Int&apos;l&quot;, sans-serif; text-anchor: start" x="508.81625" y="127.158594" transform="rotate(-0 508.81625 127.158594)">50 µM TAK-063 Average</text>
    </g>
    <g id="line2d_51">
     <path d="M 487.81625 143.853125 
L 495.31625 143.853125 
L 502.81625 143.853125 
" style="fill: none; stroke: #7a77ab; stroke-width: 2.5; stroke-linecap: round"/>
    </g>
    <g id="text_22">
     <text style="font: 15px &quot;Suisse Int&apos;l&quot;, sans-serif; text-anchor: start" x="508.81625" y="150.228125" transform="rotate(-0 508.81625 150.228125)">50 µM Dynarrestin Average</text>
    </g>
    <g id="line2d_52">
     <path d="M 487.81625 166.922656 
L 495.31625 166.922656 
L 502.81625 166.922656 
" style="fill: none; stroke: #f898ae; stroke-width: 2.5; stroke-linecap: round"/>
    </g>
    <g id="text_23">
     <text style="font: 15px &quot;Suisse Int&apos;l&quot;, sans-serif; text-anchor: start" x="508.81625" y="173.297656" transform="rotate(-0 508.81625 173.297656)">50 µM ATP Average</text>
    </g>
    <g id="line2d_53">
     <path d="M 487.81625 189.992187 
L 495.31625 189.992187 
L 502.81625 189.992187 
" style="fill: none; stroke: #73b5e3; stroke-width: 2.5; stroke-linecap: round"/>
    </g>
    <g id="text_24">
     <text style="font: 15px &quot;Suisse Int&apos;l&quot;, sans-serif; text-anchor: start" x="508.81625" y="196.367187" transform="rotate(-0 508.81625 196.367187)">50 µM Linsitinib Average</text>
    </g>
    <g id="line2d_54">
     <path d="M 487.81625 213.061719 
L 495.31625 213.061719 
L 502.81625 213.061719 
" style="fill: none; stroke: #ffb984; stroke-width: 2.5; stroke-linecap: round"/>
    </g>
    <g id="text_25">
     <text style="font: 15px &quot;Suisse Int&apos;l&quot;, sans-serif; text-anchor: start" x="508.81625" y="219.436719" transform="rotate(-0 508.81625 219.436719)">50 µM Ibudilast Average</text>
    </g>
   </g>
  </g>
 </g>
 <defs>
  <clipPath id="pfd0d41e524">
   <rect x="69.575" y="45.2" width="398.325" height="322.6"/>
  </clipPath>
 </defs>
</svg>
