<?xml version="1.0" encoding="utf-8" standalone="no"?>
<!DOCTYPE svg PUBLIC "-//W3C//DTD SVG 1.1//EN"
  "http://www.w3.org/Graphics/SVG/1.1/DTD/svg11.dtd">
<svg xmlns:xlink="http://www.w3.org/1999/xlink" width="720pt" height="432pt" viewBox="0 0 720 432" xmlns="http://www.w3.org/2000/svg" version="1.1">
 <metadata>
  <rdf:RDF xmlns:dc="http://purl.org/dc/elements/1.1/" xmlns:cc="http://creativecommons.org/ns#" xmlns:rdf="http://www.w3.org/1999/02/22-rdf-syntax-ns#">
   <cc:Work>
    <dc:type rdf:resource="http://purl.org/dc/dcmitype/StillImage"/>
    <dc:date>2024-10-02T13:38:14.249019</dc:date>
    <dc:format>image/svg+xml</dc:format>
    <dc:creator>
     <cc:Agent>
      <dc:title>Matplotlib v3.8.4, https://matplotlib.org/</dc:title>
     </cc:Agent>
    </dc:creator>
   </cc:Work>
  </rdf:RDF>
 </metadata>
 <defs>
  <style type="text/css">*{stroke-linejoin: round; stroke-linecap: butt}</style>
 </defs>
 <g id="figure_1">
  <g id="patch_1">
   <path d="M 0 432 
L 720 432 
L 720 0 
L 0 0 
L 0 432 
z
" style="fill: none"/>
  </g>
  <g id="axes_1">
   <g id="patch_2">
    <path d="M 69.575 367.8 
L 466.4 367.8 
L 466.4 45.2 
L 69.575 45.2 
L 69.575 367.8 
z
" style="fill: none"/>
   </g>
   <g id="matplotlib.axis_1">
    <g id="xtick_1">
     <g id="line2d_1">
      <defs>
       <path id="m6486b9d5a8" d="M 0 0 
L 0 5 
" style="stroke: #000000; stroke-width: 0.75"/>
      </defs>
      <g>
       <use xlink:href="#m6486b9d5a8" x="69.575" y="367.8" style="stroke: #000000; stroke-width: 0.75"/>
      </g>
     </g>
     <g id="text_1">
      <text style="font: 15px &quot;Suisse Int&apos;l&quot;, sans-serif; text-anchor: middle" x="69.575" y="388.675" transform="rotate(-0 69.575 388.675)">0</text>
     </g>
    </g>
    <g id="xtick_2">
     <g id="line2d_2">
      <g>
       <use xlink:href="#m6486b9d5a8" x="120.45" y="367.8" style="stroke: #000000; stroke-width: 0.75"/>
      </g>
     </g>
     <g id="text_2">
      <text style="font: 15px &quot;Suisse Int&apos;l&quot;, sans-serif; text-anchor: middle" x="120.45" y="388.675" transform="rotate(-0 120.45 388.675)">5</text>
     </g>
    </g>
    <g id="xtick_3">
     <g id="line2d_3">
      <g>
       <use xlink:href="#m6486b9d5a8" x="171.325" y="367.8" style="stroke: #000000; stroke-width: 0.75"/>
      </g>
     </g>
     <g id="text_3">
      <text style="font: 15px &quot;Suisse Int&apos;l&quot;, sans-serif; text-anchor: middle" x="171.325" y="388.675" transform="rotate(-0 171.325 388.675)">10</text>
     </g>
    </g>
    <g id="xtick_4">
     <g id="line2d_4">
      <g>
       <use xlink:href="#m6486b9d5a8" x="222.2" y="367.8" style="stroke: #000000; stroke-width: 0.75"/>
      </g>
     </g>
     <g id="text_4">
      <text style="font: 15px &quot;Suisse Int&apos;l&quot;, sans-serif; text-anchor: middle" x="222.2" y="388.675" transform="rotate(-0 222.2 388.675)">15</text>
     </g>
    </g>
    <g id="xtick_5">
     <g id="line2d_5">
      <g>
       <use xlink:href="#m6486b9d5a8" x="273.075" y="367.8" style="stroke: #000000; stroke-width: 0.75"/>
      </g>
     </g>
     <g id="text_5">
      <text style="font: 15px &quot;Suisse Int&apos;l&quot;, sans-serif; text-anchor: middle" x="273.075" y="388.675" transform="rotate(-0 273.075 388.675)">20</text>
     </g>
    </g>
    <g id="xtick_6">
     <g id="line2d_6">
      <g>
       <use xlink:href="#m6486b9d5a8" x="323.95" y="367.8" style="stroke: #000000; stroke-width: 0.75"/>
      </g>
     </g>
     <g id="text_6">
      <text style="font: 15px &quot;Suisse Int&apos;l&quot;, sans-serif; text-anchor: middle" x="323.95" y="388.675" transform="rotate(-0 323.95 388.675)">25</text>
     </g>
    </g>
    <g id="xtick_7">
     <g id="line2d_7">
      <g>
       <use xlink:href="#m6486b9d5a8" x="374.825" y="367.8" style="stroke: #000000; stroke-width: 0.75"/>
      </g>
     </g>
     <g id="text_7">
      <text style="font: 15px &quot;Suisse Int&apos;l&quot;, sans-serif; text-anchor: middle" x="374.825" y="388.675" transform="rotate(-0 374.825 388.675)">30</text>
     </g>
    </g>
    <g id="xtick_8">
     <g id="line2d_8">
      <g>
       <use xlink:href="#m6486b9d5a8" x="425.7" y="367.8" style="stroke: #000000; stroke-width: 0.75"/>
      </g>
     </g>
     <g id="text_8">
      <text style="font: 15px &quot;Suisse Int&apos;l&quot;, sans-serif; text-anchor: middle" x="425.7" y="388.675" transform="rotate(-0 425.7 388.675)">35</text>
     </g>
    </g>
    <g id="text_9">
     <text style="font: 500 15px &quot;Suisse Int&apos;l&quot;, sans-serif; text-anchor: middle" x="267.9875" y="412.175" transform="rotate(-0 267.9875 412.175)">Pixel Position</text>
    </g>
   </g>
   <g id="matplotlib.axis_2">
    <g id="ytick_1">
     <g id="line2d_9">
      <defs>
       <path id="m3af9adc8f5" d="M 0 0 
L -5 0 
" style="stroke: #000000; stroke-width: 0.75"/>
      </defs>
      <g>
       <use xlink:href="#m3af9adc8f5" x="69.575" y="340.674474" style="stroke: #000000; stroke-width: 0.75"/>
      </g>
     </g>
     <g id="text_10">
      <text style="font: 15px &quot;Suisse Int&apos;l&quot;, sans-serif; text-anchor: end" x="59.575" y="346.111974" transform="rotate(-0 59.575 346.111974)">10</text>
     </g>
    </g>
    <g id="ytick_2">
     <g id="line2d_10">
      <g>
       <use xlink:href="#m3af9adc8f5" x="69.575" y="287.392192" style="stroke: #000000; stroke-width: 0.75"/>
      </g>
     </g>
     <g id="text_11">
      <text style="font: 15px &quot;Suisse Int&apos;l&quot;, sans-serif; text-anchor: end" x="59.575" y="292.829692" transform="rotate(-0 59.575 292.829692)">20</text>
     </g>
    </g>
    <g id="ytick_3">
     <g id="line2d_11">
      <g>
       <use xlink:href="#m3af9adc8f5" x="69.575" y="234.10991" style="stroke: #000000; stroke-width: 0.75"/>
      </g>
     </g>
     <g id="text_12">
      <text style="font: 15px &quot;Suisse Int&apos;l&quot;, sans-serif; text-anchor: end" x="59.575" y="239.54741" transform="rotate(-0 59.575 239.54741)">30</text>
     </g>
    </g>
    <g id="ytick_4">
     <g id="line2d_12">
      <g>
       <use xlink:href="#m3af9adc8f5" x="69.575" y="180.827628" style="stroke: #000000; stroke-width: 0.75"/>
      </g>
     </g>
     <g id="text_13">
      <text style="font: 15px &quot;Suisse Int&apos;l&quot;, sans-serif; text-anchor: end" x="59.575" y="186.265128" transform="rotate(-0 59.575 186.265128)">40</text>
     </g>
    </g>
    <g id="ytick_5">
     <g id="line2d_13">
      <g>
       <use xlink:href="#m3af9adc8f5" x="69.575" y="127.545345" style="stroke: #000000; stroke-width: 0.75"/>
      </g>
     </g>
     <g id="text_14">
      <text style="font: 15px &quot;Suisse Int&apos;l&quot;, sans-serif; text-anchor: end" x="59.575" y="132.982845" transform="rotate(-0 59.575 132.982845)">50</text>
     </g>
    </g>
    <g id="ytick_6">
     <g id="line2d_14">
      <g>
       <use xlink:href="#m3af9adc8f5" x="69.575" y="74.263063" style="stroke: #000000; stroke-width: 0.75"/>
      </g>
     </g>
     <g id="text_15">
      <text style="font: 15px &quot;Suisse Int&apos;l&quot;, sans-serif; text-anchor: end" x="59.575" y="79.700563" transform="rotate(-0 59.575 79.700563)">60</text>
     </g>
    </g>
    <g id="text_16">
     <text style="font: 500 15px &quot;Suisse Int&apos;l&quot;, sans-serif; text-anchor: middle" x="27.675" y="206.5" transform="rotate(-90 27.675 206.5)">Relative Cell Density</text>
    </g>
   </g>
   <g id="line2d_15">
    <path d="M 69.575 191.968468 
L 79.75 192.452853 
L 89.925 189.062162 
L 100.1 185.187087 
L 110.275 176.468168 
L 120.45 184.218318 
L 130.625 192.452853 
L 140.8 186.64024 
L 150.975 186.155856 
L 161.15 195.359159 
L 171.325 204.078078 
L 181.5 204.078078 
L 191.675 201.656156 
L 201.85 212.796997 
L 212.025 213.281381 
L 222.2 222.484685 
L 232.375 246.703904 
L 242.55 273.345045 
L 252.725 308.220721 
L 262.9 326.627327 
L 273.075 342.127628 
L 283.25 354.237237 
L 293.425 361.503003 
L 303.6 362.956156 
L 313.775 361.503003 
L 323.95 366.346847 
L 334.125 353.268468 
L 344.3 351.330931 
L 354.475 343.580781 
L 364.65 330.986787 
L 374.825 306.283183 
L 385 195.359159 
L 395.175 180.827628 
L 405.35 189.062162 
L 415.525 183.733934 
L 425.7 178.405706 
L 435.875 180.827628 
L 446.05 189.062162 
L 456.225 189.546547 
L 466.4 183.733934 
" clip-path="url(#p7968e57251)" style="fill: none; stroke: #5088c5; stroke-opacity: 0.5; stroke-width: 0.5; stroke-linecap: round"/>
   </g>
   <g id="line2d_16">
    <path d="M 69.575 153.702102 
L 79.75 153.702102 
L 89.925 161.936637 
L 100.1 159.999099 
L 110.275 168.233634 
L 120.45 167.264865 
L 130.625 166.78048 
L 140.8 179.858859 
L 150.975 178.405706 
L 161.15 182.280781 
L 171.325 191.484084 
L 181.5 194.39039 
L 191.675 207.468769 
L 201.85 230.234835 
L 212.025 260.266667 
L 222.2 286.907808 
L 232.375 313.064565 
L 242.55 330.502402 
L 252.725 342.612012 
L 262.9 348.424625 
L 273.075 351.330931 
L 283.25 356.659159 
L 293.425 352.784084 
L 303.6 350.846547 
L 313.775 344.065165 
L 323.95 331.471171 
L 334.125 320.33033 
L 344.3 299.017417 
L 354.475 275.766967 
L 364.65 227.328529 
L 374.825 199.234234 
L 385 150.311411 
L 395.175 159.514715 
L 405.35 154.670871 
L 415.525 156.124024 
L 425.7 164.842943 
L 435.875 163.38979 
L 446.05 156.608408 
L 456.225 150.795796 
L 466.4 153.702102 
" clip-path="url(#p7968e57251)" style="fill: none; stroke: #5088c5; stroke-opacity: 0.5; stroke-width: 0.5; stroke-linecap: round"/>
   </g>
   <g id="line2d_17">
    <path d="M 69.575 133.842342 
L 79.75 149.342643 
L 89.925 138.201802 
L 100.1 140.623724 
L 110.275 143.045646 
L 120.45 147.405105 
L 130.625 153.217718 
L 140.8 151.28018 
L 150.975 152.733333 
L 161.15 151.28018 
L 171.325 159.514715 
L 181.5 164.358559 
L 191.675 185.187087 
L 201.85 217.640841 
L 212.025 256.391592 
L 222.2 288.845345 
L 232.375 308.220721 
L 242.55 329.533634 
L 252.725 339.221321 
L 262.9 346.002703 
L 273.075 350.846547 
L 283.25 346.487087 
L 293.425 342.612012 
L 303.6 335.830631 
L 313.775 328.08048 
L 323.95 311.611411 
L 334.125 284.485886 
L 344.3 256.391592 
L 354.475 213.765766 
L 364.65 179.858859 
L 374.825 162.421021 
L 385 146.436336 
L 395.175 135.77988 
L 405.35 114.466967 
L 415.525 125.123423 
L 425.7 129.482883 
L 435.875 120.763964 
L 446.05 135.77988 
L 456.225 136.264264 
L 466.4 135.77988 
" clip-path="url(#p7968e57251)" style="fill: none; stroke: #5088c5; stroke-opacity: 0.5; stroke-width: 0.5; stroke-linecap: round"/>
   </g>
   <g id="line2d_18">
    <path d="M 69.575 159.837638 
L 79.75 165.165866 
L 89.925 163.066867 
L 100.1 161.936637 
L 110.275 162.582482 
L 120.45 166.296096 
L 130.625 170.817017 
L 140.8 172.593093 
L 150.975 172.431632 
L 161.15 176.306707 
L 171.325 185.025626 
L 181.5 187.609009 
L 191.675 198.104004 
L 201.85 220.224224 
L 212.025 243.313213 
L 222.2 266.079279 
L 232.375 289.32973 
L 242.55 311.127027 
L 252.725 330.018018 
L 262.9 340.351552 
L 273.075 348.101702 
L 283.25 352.461161 
L 293.425 352.2997 
L 303.6 349.877778 
L 313.775 344.54955 
L 323.95 336.476476 
L 334.125 319.361562 
L 344.3 302.246647 
L 354.475 277.704505 
L 364.65 246.058058 
L 374.825 222.646146 
L 385 164.035636 
L 395.175 158.707407 
L 405.35 152.733333 
L 415.525 154.993794 
L 425.7 157.577177 
L 435.875 154.993794 
L 446.05 160.483483 
L 456.225 158.868869 
L 466.4 157.738639 
" clip-path="url(#p7968e57251)" style="fill: none; stroke: #5088c5; stroke-width: 2.5; stroke-linecap: round"/>
   </g>
   <g id="line2d_19">
    <path d="M 69.575 129.482883 
L 79.75 121.732733 
L 89.925 130.451652 
L 100.1 128.514114 
L 110.275 137.717417 
L 120.45 140.623724 
L 130.625 149.342643 
L 140.8 139.170571 
L 150.975 141.108108 
L 161.15 156.608408 
L 171.325 172.108709 
L 181.5 189.546547 
L 191.675 223.453453 
L 201.85 255.422823 
L 212.025 285.454655 
L 222.2 311.127027 
L 232.375 320.33033 
L 242.55 337.768168 
L 252.725 343.096396 
L 262.9 338.736937 
L 273.075 346.002703 
L 283.25 340.674474 
L 293.425 326.627327 
L 303.6 310.642643 
L 313.775 289.32973 
L 323.95 261.235435 
L 334.125 221.031532 
L 344.3 186.155856 
L 354.475 156.124024 
L 364.65 141.108108 
L 374.825 138.686186 
L 385 130.451652 
L 395.175 122.217117 
L 405.35 118.342042 
L 415.525 117.857658 
L 425.7 116.888889 
L 435.875 124.639039 
L 446.05 129.482883 
L 456.225 128.02973 
L 466.4 125.123423 
" clip-path="url(#p7968e57251)" style="fill: none; stroke: #f28360; stroke-opacity: 0.5; stroke-width: 0.5; stroke-linecap: round"/>
   </g>
   <g id="line2d_20">
    <path d="M 69.575 118.342042 
L 79.75 122.701502 
L 89.925 132.389189 
L 100.1 127.545345 
L 110.275 131.42042 
L 120.45 138.201802 
L 130.625 142.076877 
L 140.8 145.951952 
L 150.975 158.061562 
L 161.15 167.264865 
L 171.325 179.858859 
L 181.5 196.327928 
L 191.675 233.141141 
L 201.85 259.297898 
L 212.025 286.907808 
L 222.2 312.095796 
L 232.375 326.627327 
L 242.55 339.221321 
L 252.725 334.861862 
L 262.9 342.127628 
L 273.075 344.54955 
L 283.25 337.283784 
L 293.425 333.893093 
L 303.6 318.392793 
L 313.775 295.626727 
L 323.95 262.688589 
L 334.125 232.172372 
L 344.3 195.843544 
L 354.475 167.749249 
L 364.65 153.702102 
L 374.825 151.28018 
L 385 142.076877 
L 395.175 137.233033 
L 405.35 142.561261 
L 415.525 134.811111 
L 425.7 141.592492 
L 435.875 118.342042 
L 446.05 112.529429 
L 456.225 107.685586 
L 466.4 113.013814 
" clip-path="url(#p7968e57251)" style="fill: none; stroke: #f28360; stroke-opacity: 0.5; stroke-width: 0.5; stroke-linecap: round"/>
   </g>
   <g id="line2d_21">
    <path d="M 69.575 112.045045 
L 79.75 124.639039 
L 89.925 125.607808 
L 100.1 121.248348 
L 110.275 134.326727 
L 120.45 131.42042 
L 130.625 128.514114 
L 140.8 137.233033 
L 150.975 148.858258 
L 161.15 150.795796 
L 171.325 153.702102 
L 181.5 170.655556 
L 191.675 196.327928 
L 201.85 234.594294 
L 212.025 265.110511 
L 222.2 295.142342 
L 232.375 315.002102 
L 242.55 330.986787 
L 252.725 341.158859 
L 262.9 343.580781 
L 273.075 345.033934 
L 283.25 341.643243 
L 293.425 338.736937 
L 303.6 327.596096 
L 313.775 316.93964 
L 323.95 293.689189 
L 334.125 261.71982 
L 344.3 221.515916 
L 354.475 191.484084 
L 364.65 173.561862 
L 374.825 164.358559 
L 385 164.358559 
L 395.175 150.311411 
L 405.35 143.045646 
L 415.525 140.139339 
L 425.7 142.076877 
L 435.875 136.748649 
L 446.05 133.842342 
L 456.225 130.936036 
L 466.4 121.732733 
" clip-path="url(#p7968e57251)" style="fill: none; stroke: #f28360; stroke-opacity: 0.5; stroke-width: 0.5; stroke-linecap: round"/>
   </g>
   <g id="line2d_22">
    <path d="M 69.575 119.956657 
L 79.75 123.024424 
L 89.925 129.482883 
L 100.1 125.769269 
L 110.275 134.488188 
L 120.45 136.748649 
L 130.625 139.977878 
L 140.8 140.785185 
L 150.975 149.342643 
L 161.15 158.223023 
L 171.325 168.556557 
L 181.5 185.51001 
L 191.675 217.640841 
L 201.85 249.771672 
L 212.025 279.157658 
L 222.2 306.121722 
L 232.375 320.653253 
L 242.55 335.992092 
L 252.725 339.705706 
L 262.9 341.481782 
L 273.075 345.195395 
L 283.25 339.867167 
L 293.425 333.085786 
L 303.6 318.877177 
L 313.775 300.632032 
L 323.95 272.537738 
L 334.125 238.307908 
L 344.3 201.171772 
L 354.475 171.785786 
L 364.65 156.124024 
L 374.825 151.441642 
L 385 145.629029 
L 395.175 136.587187 
L 405.35 134.64965 
L 415.525 130.936036 
L 425.7 133.519419 
L 435.875 126.576577 
L 446.05 125.284885 
L 456.225 122.217117 
L 466.4 119.956657 
" clip-path="url(#p7968e57251)" style="fill: none; stroke: #f28360; stroke-width: 2.5; stroke-linecap: round"/>
   </g>
   <g id="line2d_23">
    <path d="M 69.575 115.92012 
L 79.75 116.404505 
L 89.925 114.466967 
L 100.1 115.92012 
L 110.275 119.310811 
L 120.45 124.154655 
L 130.625 123.185886 
L 140.8 119.795195 
L 150.975 118.342042 
L 161.15 111.076276 
L 171.325 126.092192 
L 181.5 123.185886 
L 191.675 118.342042 
L 201.85 114.951351 
L 212.025 117.857658 
L 222.2 119.795195 
L 232.375 124.639039 
L 242.55 127.545345 
L 252.725 119.310811 
L 262.9 128.02973 
L 273.075 132.873574 
L 283.25 116.888889 
L 293.425 124.639039 
L 303.6 129.482883 
L 313.775 121.248348 
L 323.95 119.795195 
L 334.125 113.982583 
L 344.3 119.310811 
L 354.475 119.795195 
L 364.65 124.639039 
L 374.825 116.404505 
L 385 120.27958 
L 395.175 124.154655 
L 405.35 107.201201 
L 415.525 114.951351 
L 425.7 112.045045 
L 435.875 107.201201 
L 446.05 114.466967 
L 456.225 111.076276 
L 466.4 126.576577 
" clip-path="url(#p7968e57251)" style="fill: none; stroke: #3b9886; stroke-opacity: 0.5; stroke-width: 0.5; stroke-linecap: round"/>
   </g>
   <g id="line2d_24">
    <path d="M 69.575 119.310811 
L 79.75 116.888889 
L 89.925 121.248348 
L 100.1 116.888889 
L 110.275 125.607808 
L 120.45 118.826426 
L 130.625 116.888889 
L 140.8 120.27958 
L 150.975 115.92012 
L 161.15 117.373273 
L 171.325 122.701502 
L 181.5 122.217117 
L 191.675 128.02973 
L 201.85 123.185886 
L 212.025 117.857658 
L 222.2 127.545345 
L 232.375 125.607808 
L 242.55 126.576577 
L 252.725 122.217117 
L 262.9 125.123423 
L 273.075 128.998498 
L 283.25 111.076276 
L 293.425 115.435736 
L 303.6 126.092192 
L 313.775 124.154655 
L 323.95 112.045045 
L 334.125 125.123423 
L 344.3 117.857658 
L 354.475 116.888889 
L 364.65 118.342042 
L 374.825 122.217117 
L 385 114.951351 
L 395.175 116.404505 
L 405.35 118.826426 
L 415.525 109.623123 
L 425.7 121.732733 
L 435.875 118.342042 
L 446.05 118.826426 
L 456.225 111.560661 
L 466.4 119.795195 
" clip-path="url(#p7968e57251)" style="fill: none; stroke: #3b9886; stroke-opacity: 0.5; stroke-width: 0.5; stroke-linecap: round"/>
   </g>
   <g id="line2d_25">
    <path d="M 69.575 97.997898 
L 79.75 97.997898 
L 89.925 104.294895 
L 100.1 113.013814 
L 110.275 105.748048 
L 120.45 109.138739 
L 130.625 113.013814 
L 140.8 108.654354 
L 150.975 106.716817 
L 161.15 105.748048 
L 171.325 93.638438 
L 181.5 97.029129 
L 191.675 88.31021 
L 201.85 86.372673 
L 212.025 92.66967 
L 222.2 94.122823 
L 232.375 98.966667 
L 242.55 96.544745 
L 252.725 102.357357 
L 262.9 98.482282 
L 273.075 114.466967 
L 283.25 99.935435 
L 293.425 99.451051 
L 303.6 104.779279 
L 313.775 114.466967 
L 323.95 101.872973 
L 334.125 102.841742 
L 344.3 102.841742 
L 354.475 97.513514 
L 364.65 99.451051 
L 374.825 91.216517 
L 385 87.825826 
L 395.175 79.591291 
L 405.35 68.45045 
L 415.525 48.590691 
L 425.7 60.7003 
L 435.875 82.013213 
L 446.05 89.763363 
L 456.225 88.794595 
L 466.4 100.41982 
" clip-path="url(#p7968e57251)" style="fill: none; stroke: #3b9886; stroke-opacity: 0.5; stroke-width: 0.5; stroke-linecap: round"/>
   </g>
   <g id="line2d_26">
    <path d="M 69.575 111.076276 
L 79.75 110.43043 
L 89.925 113.336737 
L 100.1 115.274274 
L 110.275 116.888889 
L 120.45 117.373273 
L 130.625 117.696196 
L 140.8 116.243043 
L 150.975 113.65966 
L 161.15 111.399199 
L 171.325 114.144044 
L 181.5 114.144044 
L 191.675 111.560661 
L 201.85 108.16997 
L 212.025 109.461662 
L 222.2 113.821121 
L 232.375 116.404505 
L 242.55 116.888889 
L 252.725 114.628428 
L 262.9 117.211812 
L 273.075 125.446346 
L 283.25 109.3002 
L 293.425 113.175275 
L 303.6 120.118118 
L 313.775 119.956657 
L 323.95 111.237738 
L 334.125 113.982583 
L 344.3 113.336737 
L 354.475 111.399199 
L 364.65 114.144044 
L 374.825 109.946046 
L 385 107.685586 
L 395.175 106.716817 
L 405.35 98.159359 
L 415.525 91.055055 
L 425.7 98.159359 
L 435.875 102.518819 
L 446.05 107.685586 
L 456.225 103.810511 
L 466.4 115.597197 
" clip-path="url(#p7968e57251)" style="fill: none; stroke: #3b9886; stroke-width: 2.5; stroke-linecap: round"/>
   </g>
   <g id="line2d_27">
    <path d="M 69.575 137.717417 
L 79.75 131.904805 
L 89.925 144.014414 
L 100.1 144.983183 
L 110.275 131.904805 
L 120.45 150.311411 
L 130.625 164.358559 
L 140.8 163.874174 
L 150.975 172.593093 
L 161.15 196.812312 
L 171.325 228.781682 
L 181.5 257.36036 
L 191.675 282.063964 
L 201.85 310.642643 
L 212.025 325.174174 
L 222.2 333.893093 
L 232.375 347.94024 
L 242.55 350.846547 
L 252.725 359.565465 
L 262.9 361.987387 
L 273.075 364.409309 
L 283.25 361.018619 
L 293.425 357.143544 
L 303.6 360.04985 
L 313.775 348.424625 
L 323.95 336.799399 
L 334.125 318.877177 
L 344.3 284.97027 
L 354.475 246.703904 
L 364.65 212.312613 
L 374.825 182.765165 
L 385 175.983784 
L 395.175 161.452252 
L 405.35 157.092793 
L 415.525 156.124024 
L 425.7 155.63964 
L 435.875 141.108108 
L 446.05 144.983183 
L 456.225 147.889489 
L 466.4 152.733333 
" clip-path="url(#p7968e57251)" style="fill: none; stroke: #f7b846; stroke-opacity: 0.5; stroke-width: 0.5; stroke-linecap: round"/>
   </g>
   <g id="line2d_28">
    <path d="M 69.575 171.624324 
L 79.75 170.655556 
L 89.925 158.545946 
L 100.1 168.233634 
L 110.275 168.718018 
L 120.45 165.327327 
L 130.625 165.811712 
L 140.8 158.061562 
L 150.975 203.109309 
L 161.15 222.0003 
L 171.325 242.344444 
L 181.5 268.501201 
L 191.675 289.814114 
L 201.85 312.095796 
L 212.025 326.142943 
L 222.2 341.643243 
L 232.375 352.2997 
L 242.55 350.846547 
L 252.725 358.112312 
L 262.9 362.956156 
L 273.075 363.924925 
L 283.25 359.565465 
L 293.425 361.503003 
L 303.6 353.752853 
L 313.775 344.065165 
L 323.95 325.174174 
L 334.125 297.564264 
L 344.3 266.079279 
L 354.475 236.047447 
L 364.65 219.093994 
L 374.825 199.718619 
L 385 185.187087 
L 395.175 179.858859 
L 405.35 175.499399 
L 415.525 174.530631 
L 425.7 175.499399 
L 435.875 178.405706 
L 446.05 162.905405 
L 456.225 165.327327 
L 466.4 169.686787 
" clip-path="url(#p7968e57251)" style="fill: none; stroke: #f7b846; stroke-opacity: 0.5; stroke-width: 0.5; stroke-linecap: round"/>
   </g>
   <g id="line2d_29">
    <path d="M 69.575 200.203003 
L 79.75 192.937237 
L 89.925 193.906006 
L 100.1 189.546547 
L 110.275 189.546547 
L 120.45 194.39039 
L 130.625 189.062162 
L 140.8 187.609009 
L 150.975 186.155856 
L 161.15 243.797598 
L 171.325 276.735736 
L 181.5 298.533033 
L 191.675 317.908408 
L 201.85 330.502402 
L 212.025 343.580781 
L 222.2 351.815315 
L 232.375 359.565465 
L 242.55 364.409309 
L 252.725 365.862462 
L 262.9 366.346847 
L 273.075 367.315616 
L 283.25 357.627928 
L 293.425 363.924925 
L 303.6 355.69039 
L 313.775 342.127628 
L 323.95 329.533634 
L 334.125 306.767568 
L 344.3 268.985586 
L 354.475 256.391592 
L 364.65 233.141141 
L 374.825 222.484685 
L 385 209.890691 
L 395.175 216.672072 
L 405.35 210.859459 
L 415.525 197.781081 
L 425.7 202.140541 
L 435.875 211.828228 
L 446.05 195.359159 
L 456.225 186.64024 
L 466.4 204.078078 
" clip-path="url(#p7968e57251)" style="fill: none; stroke: #f7b846; stroke-opacity: 0.5; stroke-width: 0.5; stroke-linecap: round"/>
   </g>
   <g id="line2d_30">
    <path d="M 69.575 169.848248 
L 79.75 165.165866 
L 89.925 165.488789 
L 100.1 167.587788 
L 110.275 163.38979 
L 120.45 170.00971 
L 130.625 173.077477 
L 140.8 169.848248 
L 150.975 187.286086 
L 161.15 220.87007 
L 171.325 249.287287 
L 181.5 274.798198 
L 191.675 296.595495 
L 201.85 317.746947 
L 212.025 331.632633 
L 222.2 342.450551 
L 232.375 353.268468 
L 242.55 355.367467 
L 252.725 361.18008 
L 262.9 363.763463 
L 273.075 365.216617 
L 283.25 359.404004 
L 293.425 360.857157 
L 303.6 356.497698 
L 313.775 344.872472 
L 323.95 330.502402 
L 334.125 307.736336 
L 344.3 273.345045 
L 354.475 246.380981 
L 364.65 221.515916 
L 374.825 201.656156 
L 385 190.353854 
L 395.175 185.994394 
L 405.35 181.150551 
L 415.525 176.145245 
L 425.7 177.75986 
L 435.875 177.114014 
L 446.05 167.749249 
L 456.225 166.619019 
L 466.4 175.499399 
" clip-path="url(#p7968e57251)" style="fill: none; stroke: #f7b846; stroke-width: 2.5; stroke-linecap: round"/>
   </g>
   <g id="line2d_31">
    <path d="M 69.575 192.937237 
L 79.75 196.327928 
L 89.925 182.765165 
L 100.1 190.9997 
L 110.275 199.718619 
L 120.45 192.937237 
L 130.625 204.078078 
L 140.8 196.812312 
L 150.975 187.124625 
L 161.15 203.109309 
L 171.325 200.687387 
L 181.5 203.109309 
L 191.675 200.203003 
L 201.85 216.672072 
L 212.025 218.125225 
L 222.2 238.953754 
L 232.375 248.641441 
L 242.55 285.454655 
L 252.725 320.814715 
L 262.9 337.768168 
L 273.075 354.237237 
L 283.25 356.659159 
L 293.425 361.503003 
L 303.6 367.8 
L 313.775 365.862462 
L 323.95 358.112312 
L 334.125 360.534234 
L 344.3 357.143544 
L 354.475 353.268468 
L 364.65 349.393393 
L 374.825 325.174174 
L 385 198.265465 
L 395.175 197.296697 
L 405.35 191.968468 
L 415.525 192.937237 
L 425.7 184.702703 
L 435.875 179.374474 
L 446.05 194.39039 
L 456.225 203.593694 
L 466.4 190.9997 
" clip-path="url(#p7968e57251)" style="fill: none; stroke: #7a77ab; stroke-opacity: 0.5; stroke-width: 0.5; stroke-linecap: round"/>
   </g>
   <g id="line2d_32">
    <path d="M 69.575 161.452252 
L 79.75 161.936637 
L 89.925 161.452252 
L 100.1 167.264865 
L 110.275 165.811712 
L 120.45 175.015015 
L 130.625 169.202402 
L 140.8 176.468168 
L 150.975 169.686787 
L 161.15 180.343243 
L 171.325 186.155856 
L 181.5 200.687387 
L 191.675 226.35976 
L 201.85 248.641441 
L 212.025 282.548348 
L 222.2 313.064565 
L 232.375 329.533634 
L 242.55 344.54955 
L 252.725 351.815315 
L 262.9 357.627928 
L 273.075 362.471772 
L 283.25 362.956156 
L 293.425 360.534234 
L 303.6 360.04985 
L 313.775 356.659159 
L 323.95 351.330931 
L 334.125 332.924324 
L 344.3 327.111712 
L 354.475 297.07988 
L 364.65 263.172973 
L 374.825 228.297297 
L 385 147.889489 
L 395.175 158.061562 
L 405.35 156.124024 
L 415.525 155.155255 
L 425.7 148.373874 
L 435.875 166.78048 
L 446.05 161.452252 
L 456.225 163.38979 
L 466.4 159.514715 
" clip-path="url(#p7968e57251)" style="fill: none; stroke: #7a77ab; stroke-opacity: 0.5; stroke-width: 0.5; stroke-linecap: round"/>
   </g>
   <g id="line2d_33">
    <path d="M 69.575 129.967267 
L 79.75 131.42042 
L 89.925 133.357958 
L 100.1 122.701502 
L 110.275 135.77988 
L 120.45 134.811111 
L 130.625 144.498799 
L 140.8 148.373874 
L 150.975 157.092793 
L 161.15 169.686787 
L 171.325 192.452853 
L 181.5 222.0003 
L 191.675 262.688589 
L 201.85 293.689189 
L 212.025 320.33033 
L 222.2 344.54955 
L 232.375 347.94024 
L 242.55 354.721622 
L 252.725 361.987387 
L 262.9 361.503003 
L 273.075 363.924925 
L 283.25 358.112312 
L 293.425 350.846547 
L 303.6 347.455856 
L 313.775 334.377477 
L 323.95 313.064565 
L 334.125 293.689189 
L 344.3 251.063363 
L 354.475 219.578378 
L 364.65 171.624324 
L 374.825 164.358559 
L 385 151.764565 
L 395.175 129.482883 
L 405.35 128.514114 
L 415.525 118.342042 
L 425.7 132.389189 
L 435.875 125.607808 
L 446.05 116.404505 
L 456.225 127.060961 
L 466.4 129.967267 
" clip-path="url(#p7968e57251)" style="fill: none; stroke: #7a77ab; stroke-opacity: 0.5; stroke-width: 0.5; stroke-linecap: round"/>
   </g>
   <g id="line2d_34">
    <path d="M 69.575 161.452252 
L 79.75 163.228328 
L 89.925 159.191792 
L 100.1 160.322022 
L 110.275 167.103403 
L 120.45 167.587788 
L 130.625 172.593093 
L 140.8 173.884785 
L 150.975 171.301401 
L 161.15 184.37978 
L 171.325 193.098699 
L 181.5 208.598999 
L 191.675 229.75045 
L 201.85 253.000901 
L 212.025 273.667968 
L 222.2 298.855956 
L 232.375 308.705105 
L 242.55 328.241942 
L 252.725 344.872472 
L 262.9 352.2997 
L 273.075 360.211311 
L 283.25 359.242543 
L 293.425 357.627928 
L 303.6 358.435235 
L 313.775 352.2997 
L 323.95 340.835936 
L 334.125 329.049249 
L 344.3 311.772873 
L 354.475 289.975576 
L 364.65 261.396897 
L 374.825 239.276677 
L 385 165.973173 
L 395.175 161.613714 
L 405.35 158.868869 
L 415.525 155.478178 
L 425.7 155.155255 
L 435.875 157.254254 
L 446.05 157.415716 
L 456.225 164.681481 
L 466.4 160.160561 
" clip-path="url(#p7968e57251)" style="fill: none; stroke: #7a77ab; stroke-width: 2.5; stroke-linecap: round"/>
   </g>
   <g id="line2d_35">
    <path d="M 69.575 111.560661 
L 79.75 107.685586 
L 89.925 113.013814 
L 100.1 110.107508 
L 110.275 110.107508 
L 120.45 120.763964 
L 130.625 121.248348 
L 140.8 124.639039 
L 150.975 131.42042 
L 161.15 142.561261 
L 171.325 162.905405 
L 181.5 205.531231 
L 191.675 249.61021 
L 201.85 278.673273 
L 212.025 312.095796 
L 222.2 328.564865 
L 232.375 343.096396 
L 242.55 351.330931 
L 252.725 354.237237 
L 262.9 359.081081 
L 273.075 362.956156 
L 283.25 356.174775 
L 293.425 348.909009 
L 303.6 339.221321 
L 313.775 330.986787 
L 323.95 312.095796 
L 334.125 278.673273 
L 344.3 228.297297 
L 354.475 177.436937 
L 364.65 139.654955 
L 374.825 122.217117 
L 385 108.16997 
L 395.175 91.700901 
L 405.35 97.029129 
L 415.525 95.575976 
L 425.7 100.904204 
L 435.875 108.16997 
L 446.05 94.607207 
L 456.225 92.66967 
L 466.4 103.810511 
" clip-path="url(#p7968e57251)" style="fill: none; stroke: #f898ae; stroke-opacity: 0.5; stroke-width: 0.5; stroke-linecap: round"/>
   </g>
   <g id="line2d_36">
    <path d="M 69.575 122.217117 
L 79.75 117.373273 
L 89.925 129.967267 
L 100.1 123.67027 
L 110.275 120.763964 
L 120.45 127.060961 
L 130.625 138.686186 
L 140.8 136.264264 
L 150.975 156.608408 
L 161.15 172.108709 
L 171.325 210.375075 
L 181.5 250.094595 
L 191.675 272.376276 
L 201.85 303.861261 
L 212.025 328.08048 
L 222.2 344.54955 
L 232.375 349.393393 
L 242.55 359.081081 
L 252.725 362.471772 
L 262.9 363.924925 
L 273.075 366.831231 
L 283.25 361.987387 
L 293.425 353.752853 
L 303.6 353.268468 
L 313.775 335.346246 
L 323.95 315.970871 
L 334.125 286.907808 
L 344.3 235.078679 
L 354.475 200.687387 
L 364.65 171.624324 
L 374.825 149.827027 
L 385 137.717417 
L 395.175 130.451652 
L 405.35 128.514114 
L 415.525 132.873574 
L 425.7 134.326727 
L 435.875 101.388589 
L 446.05 108.16997 
L 456.225 117.373273 
L 466.4 124.639039 
" clip-path="url(#p7968e57251)" style="fill: none; stroke: #f898ae; stroke-opacity: 0.5; stroke-width: 0.5; stroke-linecap: round"/>
   </g>
   <g id="line2d_37">
    <path d="M 69.575 110.107508 
L 79.75 120.763964 
L 89.925 118.826426 
L 100.1 114.951351 
L 110.275 117.857658 
L 120.45 128.514114 
L 130.625 127.060961 
L 140.8 131.42042 
L 150.975 144.983183 
L 161.15 162.421021 
L 171.325 182.280781 
L 181.5 232.656757 
L 191.675 261.235435 
L 201.85 288.360961 
L 212.025 319.361562 
L 222.2 337.768168 
L 232.375 343.580781 
L 242.55 356.174775 
L 252.725 356.659159 
L 262.9 360.04985 
L 273.075 361.018619 
L 283.25 358.596697 
L 293.425 359.565465 
L 303.6 358.112312 
L 313.775 348.424625 
L 323.95 339.221321 
L 334.125 328.08048 
L 344.3 300.954955 
L 354.475 265.594895 
L 364.65 217.156456 
L 374.825 189.062162 
L 385 158.061562 
L 395.175 142.076877 
L 405.35 139.170571 
L 415.525 135.295495 
L 425.7 136.264264 
L 435.875 119.795195 
L 446.05 123.67027 
L 456.225 128.02973 
L 466.4 112.529429 
" clip-path="url(#p7968e57251)" style="fill: none; stroke: #f898ae; stroke-opacity: 0.5; stroke-width: 0.5; stroke-linecap: round"/>
   </g>
   <g id="line2d_38">
    <path d="M 69.575 114.628428 
L 79.75 115.274274 
L 89.925 120.602503 
L 100.1 116.243043 
L 110.275 116.243043 
L 120.45 125.446346 
L 130.625 128.998498 
L 140.8 130.774575 
L 150.975 144.337337 
L 161.15 159.03033 
L 171.325 185.187087 
L 181.5 229.427528 
L 191.675 261.073974 
L 201.85 290.298498 
L 212.025 319.845946 
L 222.2 336.960861 
L 232.375 345.356857 
L 242.55 355.528929 
L 252.725 357.789389 
L 262.9 361.018619 
L 273.075 363.602002 
L 283.25 358.91962 
L 293.425 354.075776 
L 303.6 350.200701 
L 313.775 338.252553 
L 323.95 322.429329 
L 334.125 297.887187 
L 344.3 254.776977 
L 354.475 214.573073 
L 364.65 176.145245 
L 374.825 153.702102 
L 385 134.64965 
L 395.175 121.40981 
L 405.35 121.571271 
L 415.525 121.248348 
L 425.7 123.831732 
L 435.875 109.784585 
L 446.05 108.815816 
L 456.225 112.690891 
L 466.4 113.65966 
" clip-path="url(#p7968e57251)" style="fill: none; stroke: #f898ae; stroke-width: 2.5; stroke-linecap: round"/>
   </g>
   <g id="line2d_39">
    <path d="M 69.575 166.78048 
L 79.75 175.983784 
L 89.925 173.077477 
L 100.1 185.187087 
L 110.275 176.468168 
L 120.45 181.796396 
L 130.625 171.13994 
L 140.8 175.983784 
L 150.975 182.765165 
L 161.15 174.530631 
L 171.325 180.827628 
L 181.5 185.671471 
L 191.675 180.343243 
L 201.85 196.327928 
L 212.025 190.030931 
L 222.2 201.171772 
L 232.375 195.359159 
L 242.55 205.531231 
L 252.725 209.890691 
L 262.9 226.35976 
L 273.075 236.047447 
L 283.25 220.547147 
L 293.425 213.281381 
L 303.6 216.187688 
L 313.775 210.375075 
L 323.95 195.843544 
L 334.125 189.546547 
L 344.3 197.296697 
L 354.475 191.484084 
L 364.65 178.405706 
L 374.825 184.218318 
L 385 176.468168 
L 395.175 173.077477 
L 405.35 175.015015 
L 415.525 170.171171 
L 425.7 167.749249 
L 435.875 170.655556 
L 446.05 173.561862 
L 456.225 175.015015 
L 466.4 169.202402 
" clip-path="url(#p7968e57251)" style="fill: none; stroke: #73b5e3; stroke-opacity: 0.5; stroke-width: 0.5; stroke-linecap: round"/>
   </g>
   <g id="line2d_40">
    <path d="M 69.575 178.89009 
L 79.75 179.374474 
L 89.925 179.858859 
L 100.1 170.655556 
L 110.275 173.077477 
L 120.45 170.171171 
L 130.625 173.077477 
L 140.8 183.24955 
L 150.975 179.374474 
L 161.15 189.062162 
L 171.325 200.203003 
L 181.5 194.39039 
L 191.675 198.265465 
L 201.85 206.5 
L 212.025 205.531231 
L 222.2 206.5 
L 232.375 207.953153 
L 242.55 223.453453 
L 252.725 230.719219 
L 262.9 228.297297 
L 273.075 241.86006 
L 283.25 229.75045 
L 293.425 234.10991 
L 303.6 232.172372 
L 313.775 212.312613 
L 323.95 209.890691 
L 334.125 210.375075 
L 344.3 202.624925 
L 354.475 191.484084 
L 364.65 192.937237 
L 374.825 198.74985 
L 385 181.312012 
L 395.175 185.187087 
L 405.35 193.906006 
L 415.525 190.030931 
L 425.7 191.484084 
L 435.875 192.452853 
L 446.05 179.374474 
L 456.225 178.405706 
L 466.4 180.827628 
" clip-path="url(#p7968e57251)" style="fill: none; stroke: #73b5e3; stroke-opacity: 0.5; stroke-width: 0.5; stroke-linecap: round"/>
   </g>
   <g id="line2d_41">
    <path d="M 69.575 152.733333 
L 79.75 152.733333 
L 89.925 158.545946 
L 100.1 174.046246 
L 110.275 182.765165 
L 120.45 161.936637 
L 130.625 164.842943 
L 140.8 161.452252 
L 150.975 166.296096 
L 161.15 160.483483 
L 171.325 160.483483 
L 181.5 162.905405 
L 191.675 157.577177 
L 201.85 162.905405 
L 212.025 164.358559 
L 222.2 167.749249 
L 232.375 181.312012 
L 242.55 190.515315 
L 252.725 215.703303 
L 262.9 233.141141 
L 273.075 239.438138 
L 283.25 235.563063 
L 293.425 230.234835 
L 303.6 224.906607 
L 313.775 218.125225 
L 323.95 221.515916 
L 334.125 207.468769 
L 344.3 206.5 
L 354.475 196.812312 
L 364.65 180.827628 
L 374.825 174.046246 
L 385 171.13994 
L 395.175 163.38979 
L 405.35 155.63964 
L 415.525 157.577177 
L 425.7 148.858258 
L 435.875 153.702102 
L 446.05 149.827027 
L 456.225 154.670871 
L 466.4 159.03033 
" clip-path="url(#p7968e57251)" style="fill: none; stroke: #73b5e3; stroke-opacity: 0.5; stroke-width: 0.5; stroke-linecap: round"/>
   </g>
   <g id="line2d_42">
    <path d="M 69.575 166.134635 
L 79.75 169.363864 
L 89.925 170.494094 
L 100.1 176.62963 
L 110.275 177.436937 
L 120.45 171.301401 
L 130.625 169.686787 
L 140.8 173.561862 
L 150.975 176.145245 
L 161.15 174.692092 
L 171.325 180.504705 
L 181.5 180.989089 
L 191.675 178.728629 
L 201.85 188.577778 
L 212.025 186.64024 
L 222.2 191.807007 
L 232.375 194.874775 
L 242.55 206.5 
L 252.725 218.771071 
L 262.9 229.266066 
L 273.075 239.115215 
L 283.25 228.62022 
L 293.425 225.875375 
L 303.6 224.422222 
L 313.775 213.604304 
L 323.95 209.083383 
L 334.125 202.463463 
L 344.3 202.140541 
L 354.475 193.26016 
L 364.65 184.056857 
L 374.825 185.671471 
L 385 176.306707 
L 395.175 173.884785 
L 405.35 174.853554 
L 415.525 172.593093 
L 425.7 169.363864 
L 435.875 172.27017 
L 446.05 167.587788 
L 456.225 169.363864 
L 466.4 169.686787 
" clip-path="url(#p7968e57251)" style="fill: none; stroke: #73b5e3; stroke-width: 2.5; stroke-linecap: round"/>
   </g>
   <g id="line2d_43">
    <path d="M 69.575 218.125225 
L 79.75 217.156456 
L 89.925 219.578378 
L 100.1 223.937838 
L 110.275 234.10991 
L 120.45 229.75045 
L 130.625 234.10991 
L 140.8 217.640841 
L 150.975 223.937838 
L 161.15 225.390991 
L 171.325 223.453453 
L 181.5 223.937838 
L 191.675 217.640841 
L 201.85 221.515916 
L 212.025 229.75045 
L 222.2 232.656757 
L 232.375 235.078679 
L 242.55 244.766366 
L 252.725 257.36036 
L 262.9 272.860661 
L 273.075 281.095195 
L 283.25 279.157658 
L 293.425 272.860661 
L 303.6 270.923123 
L 313.775 254.938438 
L 323.95 242.828829 
L 334.125 228.297297 
L 344.3 235.078679 
L 354.475 232.172372 
L 364.65 233.141141 
L 374.825 228.297297 
L 385 231.687988 
L 395.175 222.484685 
L 405.35 213.765766 
L 415.525 218.60961 
L 425.7 217.640841 
L 435.875 217.640841 
L 446.05 216.187688 
L 456.225 214.734535 
L 466.4 215.703303 
" clip-path="url(#p7968e57251)" style="fill: none; stroke: #ffb984; stroke-opacity: 0.5; stroke-width: 0.5; stroke-linecap: round"/>
   </g>
   <g id="line2d_44">
    <path d="M 69.575 244.281982 
L 79.75 238.953754 
L 89.925 243.313213 
L 100.1 244.281982 
L 110.275 247.672673 
L 120.45 246.21952 
L 130.625 244.766366 
L 140.8 239.922523 
L 150.975 243.797598 
L 161.15 241.86006 
L 171.325 237.016216 
L 181.5 243.797598 
L 191.675 242.344444 
L 201.85 237.016216 
L 212.025 239.922523 
L 222.2 244.766366 
L 232.375 251.547748 
L 242.55 260.266667 
L 252.725 269.46997 
L 262.9 278.673273 
L 273.075 282.063964 
L 283.25 281.095195 
L 293.425 272.376276 
L 303.6 263.657357 
L 313.775 251.063363 
L 323.95 238.469369 
L 334.125 237.016216 
L 344.3 236.531832 
L 354.475 239.922523 
L 364.65 239.438138 
L 374.825 245.250751 
L 385 244.281982 
L 395.175 239.922523 
L 405.35 238.953754 
L 415.525 244.766366 
L 425.7 243.797598 
L 435.875 233.141141 
L 446.05 251.063363 
L 456.225 252.516517 
L 466.4 236.047447 
" clip-path="url(#p7968e57251)" style="fill: none; stroke: #ffb984; stroke-opacity: 0.5; stroke-width: 0.5; stroke-linecap: round"/>
   </g>
   <g id="line2d_45">
    <path d="M 69.575 255.907207 
L 79.75 268.501201 
L 89.925 261.71982 
L 100.1 268.016817 
L 110.275 259.297898 
L 120.45 259.297898 
L 130.625 258.329129 
L 140.8 253.96967 
L 150.975 256.875976 
L 161.15 247.672673 
L 171.325 241.375676 
L 181.5 242.828829 
L 191.675 238.953754 
L 201.85 251.547748 
L 212.025 244.281982 
L 222.2 261.71982 
L 232.375 266.563664 
L 242.55 280.126426 
L 252.725 274.798198 
L 262.9 286.423423 
L 273.075 274.313814 
L 283.25 272.860661 
L 293.425 263.657357 
L 303.6 262.204204 
L 313.775 255.422823 
L 323.95 258.813514 
L 334.125 256.391592 
L 344.3 261.71982 
L 354.475 257.844745 
L 364.65 263.657357 
L 374.825 258.329129 
L 385 257.36036 
L 395.175 259.782282 
L 405.35 258.813514 
L 415.525 257.36036 
L 425.7 263.657357 
L 435.875 263.172973 
L 446.05 265.110511 
L 456.225 256.391592 
L 466.4 259.297898 
" clip-path="url(#p7968e57251)" style="fill: none; stroke: #ffb984; stroke-opacity: 0.5; stroke-width: 0.5; stroke-linecap: round"/>
   </g>
   <g id="line2d_46">
    <path d="M 69.575 239.438138 
L 79.75 241.537137 
L 89.925 241.537137 
L 100.1 245.412212 
L 110.275 247.026827 
L 120.45 245.089289 
L 130.625 245.735135 
L 140.8 237.177678 
L 150.975 241.537137 
L 161.15 238.307908 
L 171.325 233.948448 
L 181.5 236.854755 
L 191.675 232.97968 
L 201.85 236.693293 
L 212.025 237.984985 
L 222.2 246.380981 
L 232.375 251.063363 
L 242.55 261.71982 
L 252.725 267.20951 
L 262.9 279.319119 
L 273.075 279.157658 
L 283.25 277.704505 
L 293.425 269.631431 
L 303.6 265.594895 
L 313.775 253.808208 
L 323.95 246.703904 
L 334.125 240.568368 
L 344.3 244.443443 
L 354.475 243.313213 
L 364.65 245.412212 
L 374.825 243.959059 
L 385 244.443443 
L 395.175 240.72983 
L 405.35 237.177678 
L 415.525 240.245445 
L 425.7 241.698599 
L 435.875 237.984985 
L 446.05 244.120521 
L 456.225 241.214214 
L 466.4 237.016216 
" clip-path="url(#p7968e57251)" style="fill: none; stroke: #ffb984; stroke-width: 2.5; stroke-linecap: round"/>
   </g>
   <g id="patch_3">
    <path d="M 69.575 367.8 
L 69.575 45.2 
" style="fill: none; stroke: #000000; stroke-width: 0.75; stroke-linejoin: miter; stroke-linecap: square"/>
   </g>
   <g id="patch_4">
    <path d="M 69.575 367.8 
L 466.4 367.8 
" style="fill: none; stroke: #000000; stroke-width: 0.75; stroke-linejoin: miter; stroke-linecap: square"/>
   </g>
   <g id="text_17">
    <text style="font: 500 18px &quot;Suisse Int&apos;l&quot;, sans-serif; text-anchor: middle" x="267.9875" y="29.2" transform="rotate(-0 267.9875 29.2)">Normalized Spatial Density of Cells in a Conical Well : CC-3707</text>
   </g>
   <g id="legend_1">
    <g id="line2d_47">
     <path d="M 486.24125 51.575 
L 493.74125 51.575 
L 501.24125 51.575 
" style="fill: none; stroke: #5088c5; stroke-width: 2.5; stroke-linecap: round"/>
    </g>
    <g id="text_18">
     <text style="font: 15px &quot;Suisse Int&apos;l&quot;, sans-serif; text-anchor: start" x="507.24125" y="57.95" transform="rotate(-0 507.24125 57.95)">water Average</text>
    </g>
    <g id="line2d_48">
     <path d="M 486.24125 74.644531 
L 493.74125 74.644531 
L 501.24125 74.644531 
" style="fill: none; stroke: #f28360; stroke-width: 2.5; stroke-linecap: round"/>
    </g>
    <g id="text_19">
     <text style="font: 15px &quot;Suisse Int&apos;l&quot;, sans-serif; text-anchor: start" x="507.24125" y="81.019531" transform="rotate(-0 507.24125 81.019531)">0.1% DMSO Average</text>
    </g>
    <g id="line2d_49">
     <path d="M 486.24125 97.714062 
L 493.74125 97.714062 
L 501.24125 97.714062 
" style="fill: none; stroke: #3b9886; stroke-width: 2.5; stroke-linecap: round"/>
    </g>
    <g id="text_20">
     <text style="font: 15px &quot;Suisse Int&apos;l&quot;, sans-serif; text-anchor: start" x="507.24125" y="104.089062" transform="rotate(-0 507.24125 104.089062)">50 µM Torin2 Average</text>
    </g>
    <g id="line2d_50">
     <path d="M 486.24125 120.783594 
L 493.74125 120.783594 
L 501.24125 120.783594 
" style="fill: none; stroke: #f7b846; stroke-width: 2.5; stroke-linecap: round"/>
    </g>
    <g id="text_21">
     <text style="font: 15px &quot;Suisse Int&apos;l&quot;, sans-serif; text-anchor: start" x="507.24125" y="127.158594" transform="rotate(-0 507.24125 127.158594)">50 µM TAK-063 Average</text>
    </g>
    <g id="line2d_51">
     <path d="M 486.24125 143.853125 
L 493.74125 143.853125 
L 501.24125 143.853125 
" style="fill: none; stroke: #7a77ab; stroke-width: 2.5; stroke-linecap: round"/>
    </g>
    <g id="text_22">
     <text style="font: 15px &quot;Suisse Int&apos;l&quot;, sans-serif; text-anchor: start" x="507.24125" y="150.228125" transform="rotate(-0 507.24125 150.228125)">50 µM Dynarrestin Average</text>
    </g>
    <g id="line2d_52">
     <path d="M 486.24125 166.922656 
L 493.74125 166.922656 
L 501.24125 166.922656 
" style="fill: none; stroke: #f898ae; stroke-width: 2.5; stroke-linecap: round"/>
    </g>
    <g id="text_23">
     <text style="font: 15px &quot;Suisse Int&apos;l&quot;, sans-serif; text-anchor: start" x="507.24125" y="173.297656" transform="rotate(-0 507.24125 173.297656)">50 µM ATP Average</text>
    </g>
    <g id="line2d_53">
     <path d="M 486.24125 189.992187 
L 493.74125 189.992187 
L 501.24125 189.992187 
" style="fill: none; stroke: #73b5e3; stroke-width: 2.5; stroke-linecap: round"/>
    </g>
    <g id="text_24">
     <text style="font: 15px &quot;Suisse Int&apos;l&quot;, sans-serif; text-anchor: start" x="507.24125" y="196.367187" transform="rotate(-0 507.24125 196.367187)">50 µM Linsitinib Average</text>
    </g>
    <g id="line2d_54">
     <path d="M 486.24125 213.061719 
L 493.74125 213.061719 
L 501.24125 213.061719 
" style="fill: none; stroke: #ffb984; stroke-width: 2.5; stroke-linecap: round"/>
    </g>
    <g id="text_25">
     <text style="font: 15px &quot;Suisse Int&apos;l&quot;, sans-serif; text-anchor: start" x="507.24125" y="219.436719" transform="rotate(-0 507.24125 219.436719)">50 µM Ibudilast Average</text>
    </g>
   </g>
  </g>
 </g>
 <defs>
  <clipPath id="p7968e57251">
   <rect x="69.575" y="45.2" width="396.825" height="322.6"/>
  </clipPath>
 </defs>
</svg>
