<?xml version="1.0" encoding="utf-8" standalone="no"?>
<!DOCTYPE svg PUBLIC "-//W3C//DTD SVG 1.1//EN"
  "http://www.w3.org/Graphics/SVG/1.1/DTD/svg11.dtd">
<svg xmlns:xlink="http://www.w3.org/1999/xlink" width="720pt" height="432pt" viewBox="0 0 720 432" xmlns="http://www.w3.org/2000/svg" version="1.1">
 <metadata>
  <rdf:RDF xmlns:dc="http://purl.org/dc/elements/1.1/" xmlns:cc="http://creativecommons.org/ns#" xmlns:rdf="http://www.w3.org/1999/02/22-rdf-syntax-ns#">
   <cc:Work>
    <dc:type rdf:resource="http://purl.org/dc/dcmitype/StillImage"/>
    <dc:date>2024-09-19T15:13:48.316883</dc:date>
    <dc:format>image/svg+xml</dc:format>
    <dc:creator>
     <cc:Agent>
      <dc:title>Matplotlib v3.8.4, https://matplotlib.org/</dc:title>
     </cc:Agent>
    </dc:creator>
   </cc:Work>
  </rdf:RDF>
 </metadata>
 <defs>
  <style type="text/css">*{stroke-linejoin: round; stroke-linecap: butt}</style>
 </defs>
 <g id="figure_1">
  <g id="patch_1">
   <path d="M 0 432 
L 720 432 
L 720 0 
L 0 0 
L 0 432 
z
" style="fill: none"/>
  </g>
  <g id="axes_1">
   <g id="patch_2">
    <path d="M 69.575 367.8 
L 467.9 367.8 
L 467.9 45.2 
L 69.575 45.2 
L 69.575 367.8 
z
" style="fill: none"/>
   </g>
   <g id="matplotlib.axis_1">
    <g id="xtick_1">
     <g id="line2d_1">
      <defs>
       <path id="m66be0b28fb" d="M 0 0 
L 0 5 
" style="stroke: #000000; stroke-width: 0.75"/>
      </defs>
      <g>
       <use xlink:href="#m66be0b28fb" x="69.575" y="367.8" style="stroke: #000000; stroke-width: 0.75"/>
      </g>
     </g>
     <g id="text_1">
      <text style="font: 15px &quot;Suisse Int&apos;l&quot;, sans-serif; text-anchor: middle" x="69.575" y="388.675" transform="rotate(-0 69.575 388.675)">0</text>
     </g>
    </g>
    <g id="xtick_2">
     <g id="line2d_2">
      <g>
       <use xlink:href="#m66be0b28fb" x="120.642308" y="367.8" style="stroke: #000000; stroke-width: 0.75"/>
      </g>
     </g>
     <g id="text_2">
      <text style="font: 15px &quot;Suisse Int&apos;l&quot;, sans-serif; text-anchor: middle" x="120.642308" y="388.675" transform="rotate(-0 120.642308 388.675)">5</text>
     </g>
    </g>
    <g id="xtick_3">
     <g id="line2d_3">
      <g>
       <use xlink:href="#m66be0b28fb" x="171.709615" y="367.8" style="stroke: #000000; stroke-width: 0.75"/>
      </g>
     </g>
     <g id="text_3">
      <text style="font: 15px &quot;Suisse Int&apos;l&quot;, sans-serif; text-anchor: middle" x="171.709615" y="388.675" transform="rotate(-0 171.709615 388.675)">10</text>
     </g>
    </g>
    <g id="xtick_4">
     <g id="line2d_4">
      <g>
       <use xlink:href="#m66be0b28fb" x="222.776923" y="367.8" style="stroke: #000000; stroke-width: 0.75"/>
      </g>
     </g>
     <g id="text_4">
      <text style="font: 15px &quot;Suisse Int&apos;l&quot;, sans-serif; text-anchor: middle" x="222.776923" y="388.675" transform="rotate(-0 222.776923 388.675)">15</text>
     </g>
    </g>
    <g id="xtick_5">
     <g id="line2d_5">
      <g>
       <use xlink:href="#m66be0b28fb" x="273.844231" y="367.8" style="stroke: #000000; stroke-width: 0.75"/>
      </g>
     </g>
     <g id="text_5">
      <text style="font: 15px &quot;Suisse Int&apos;l&quot;, sans-serif; text-anchor: middle" x="273.844231" y="388.675" transform="rotate(-0 273.844231 388.675)">20</text>
     </g>
    </g>
    <g id="xtick_6">
     <g id="line2d_6">
      <g>
       <use xlink:href="#m66be0b28fb" x="324.911538" y="367.8" style="stroke: #000000; stroke-width: 0.75"/>
      </g>
     </g>
     <g id="text_6">
      <text style="font: 15px &quot;Suisse Int&apos;l&quot;, sans-serif; text-anchor: middle" x="324.911538" y="388.675" transform="rotate(-0 324.911538 388.675)">25</text>
     </g>
    </g>
    <g id="xtick_7">
     <g id="line2d_7">
      <g>
       <use xlink:href="#m66be0b28fb" x="375.978846" y="367.8" style="stroke: #000000; stroke-width: 0.75"/>
      </g>
     </g>
     <g id="text_7">
      <text style="font: 15px &quot;Suisse Int&apos;l&quot;, sans-serif; text-anchor: middle" x="375.978846" y="388.675" transform="rotate(-0 375.978846 388.675)">30</text>
     </g>
    </g>
    <g id="xtick_8">
     <g id="line2d_8">
      <g>
       <use xlink:href="#m66be0b28fb" x="427.046154" y="367.8" style="stroke: #000000; stroke-width: 0.75"/>
      </g>
     </g>
     <g id="text_8">
      <text style="font: 15px &quot;Suisse Int&apos;l&quot;, sans-serif; text-anchor: middle" x="427.046154" y="388.675" transform="rotate(-0 427.046154 388.675)">35</text>
     </g>
    </g>
    <g id="text_9">
     <text style="font: 500 15px &quot;Suisse Int&apos;l&quot;, sans-serif; text-anchor: middle" x="268.7375" y="412.175" transform="rotate(-0 268.7375 412.175)">Pixel Position</text>
    </g>
   </g>
   <g id="matplotlib.axis_2">
    <g id="ytick_1">
     <g id="line2d_9">
      <defs>
       <path id="m5095647040" d="M 0 0 
L -5 0 
" style="stroke: #000000; stroke-width: 0.75"/>
      </defs>
      <g>
       <use xlink:href="#m5095647040" x="69.575" y="340.674474" style="stroke: #000000; stroke-width: 0.75"/>
      </g>
     </g>
     <g id="text_10">
      <text style="font: 15px &quot;Suisse Int&apos;l&quot;, sans-serif; text-anchor: end" x="59.575" y="346.111974" transform="rotate(-0 59.575 346.111974)">10</text>
     </g>
    </g>
    <g id="ytick_2">
     <g id="line2d_10">
      <g>
       <use xlink:href="#m5095647040" x="69.575" y="287.392192" style="stroke: #000000; stroke-width: 0.75"/>
      </g>
     </g>
     <g id="text_11">
      <text style="font: 15px &quot;Suisse Int&apos;l&quot;, sans-serif; text-anchor: end" x="59.575" y="292.829692" transform="rotate(-0 59.575 292.829692)">20</text>
     </g>
    </g>
    <g id="ytick_3">
     <g id="line2d_11">
      <g>
       <use xlink:href="#m5095647040" x="69.575" y="234.10991" style="stroke: #000000; stroke-width: 0.75"/>
      </g>
     </g>
     <g id="text_12">
      <text style="font: 15px &quot;Suisse Int&apos;l&quot;, sans-serif; text-anchor: end" x="59.575" y="239.54741" transform="rotate(-0 59.575 239.54741)">30</text>
     </g>
    </g>
    <g id="ytick_4">
     <g id="line2d_12">
      <g>
       <use xlink:href="#m5095647040" x="69.575" y="180.827628" style="stroke: #000000; stroke-width: 0.75"/>
      </g>
     </g>
     <g id="text_13">
      <text style="font: 15px &quot;Suisse Int&apos;l&quot;, sans-serif; text-anchor: end" x="59.575" y="186.265128" transform="rotate(-0 59.575 186.265128)">40</text>
     </g>
    </g>
    <g id="ytick_5">
     <g id="line2d_13">
      <g>
       <use xlink:href="#m5095647040" x="69.575" y="127.545345" style="stroke: #000000; stroke-width: 0.75"/>
      </g>
     </g>
     <g id="text_14">
      <text style="font: 15px &quot;Suisse Int&apos;l&quot;, sans-serif; text-anchor: end" x="59.575" y="132.982845" transform="rotate(-0 59.575 132.982845)">50</text>
     </g>
    </g>
    <g id="ytick_6">
     <g id="line2d_14">
      <g>
       <use xlink:href="#m5095647040" x="69.575" y="74.263063" style="stroke: #000000; stroke-width: 0.75"/>
      </g>
     </g>
     <g id="text_15">
      <text style="font: 15px &quot;Suisse Int&apos;l&quot;, sans-serif; text-anchor: end" x="59.575" y="79.700563" transform="rotate(-0 59.575 79.700563)">60</text>
     </g>
    </g>
    <g id="text_16">
     <text style="font: 500 15px &quot;Suisse Int&apos;l&quot;, sans-serif; text-anchor: middle" x="27.675" y="206.5" transform="rotate(-90 27.675 206.5)">Relative Cell Density</text>
    </g>
   </g>
   <g id="line2d_15">
    <path d="M 69.575 191.968468 
L 79.788462 192.452853 
L 90.001923 189.062162 
L 100.215385 185.187087 
L 110.428846 176.468168 
L 120.642308 184.218318 
L 130.855769 192.452853 
L 141.069231 186.64024 
L 151.282692 186.155856 
L 161.496154 195.359159 
L 171.709615 204.078078 
L 181.923077 204.078078 
L 192.136538 201.656156 
L 202.35 212.796997 
L 212.563462 213.281381 
L 222.776923 222.484685 
L 232.990385 246.703904 
L 243.203846 273.345045 
L 253.417308 308.220721 
L 263.630769 326.627327 
L 273.844231 342.127628 
L 284.057692 354.237237 
L 294.271154 361.503003 
L 304.484615 362.956156 
L 314.698077 361.503003 
L 324.911538 366.346847 
L 335.125 353.268468 
L 345.338462 351.330931 
L 355.551923 343.580781 
L 365.765385 330.986787 
L 375.978846 306.283183 
L 386.192308 195.359159 
L 396.405769 180.827628 
L 406.619231 189.062162 
L 416.832692 183.733934 
L 427.046154 178.405706 
L 437.259615 180.827628 
L 447.473077 189.062162 
L 457.686538 189.546547 
L 467.9 183.733934 
" clip-path="url(#p8aaee194d4)" style="fill: none; stroke: #5088c5; stroke-opacity: 0.5; stroke-width: 0.5; stroke-linecap: round"/>
   </g>
   <g id="line2d_16">
    <path d="M 69.575 153.702102 
L 79.788462 153.702102 
L 90.001923 161.936637 
L 100.215385 159.999099 
L 110.428846 168.233634 
L 120.642308 167.264865 
L 130.855769 166.78048 
L 141.069231 179.858859 
L 151.282692 178.405706 
L 161.496154 182.280781 
L 171.709615 191.484084 
L 181.923077 194.39039 
L 192.136538 207.468769 
L 202.35 230.234835 
L 212.563462 260.266667 
L 222.776923 286.907808 
L 232.990385 313.064565 
L 243.203846 330.502402 
L 253.417308 342.612012 
L 263.630769 348.424625 
L 273.844231 351.330931 
L 284.057692 356.659159 
L 294.271154 352.784084 
L 304.484615 350.846547 
L 314.698077 344.065165 
L 324.911538 331.471171 
L 335.125 320.33033 
L 345.338462 299.017417 
L 355.551923 275.766967 
L 365.765385 227.328529 
L 375.978846 199.234234 
L 386.192308 150.311411 
L 396.405769 159.514715 
L 406.619231 154.670871 
L 416.832692 156.124024 
L 427.046154 164.842943 
L 437.259615 163.38979 
L 447.473077 156.608408 
L 457.686538 150.795796 
L 467.9 153.702102 
" clip-path="url(#p8aaee194d4)" style="fill: none; stroke: #5088c5; stroke-opacity: 0.5; stroke-width: 0.5; stroke-linecap: round"/>
   </g>
   <g id="line2d_17">
    <path d="M 69.575 133.842342 
L 79.788462 149.342643 
L 90.001923 138.201802 
L 100.215385 140.623724 
L 110.428846 143.045646 
L 120.642308 147.405105 
L 130.855769 153.217718 
L 141.069231 151.28018 
L 151.282692 152.733333 
L 161.496154 151.28018 
L 171.709615 159.514715 
L 181.923077 164.358559 
L 192.136538 185.187087 
L 202.35 217.640841 
L 212.563462 256.391592 
L 222.776923 288.845345 
L 232.990385 308.220721 
L 243.203846 329.533634 
L 253.417308 339.221321 
L 263.630769 346.002703 
L 273.844231 350.846547 
L 284.057692 346.487087 
L 294.271154 342.612012 
L 304.484615 335.830631 
L 314.698077 328.08048 
L 324.911538 311.611411 
L 335.125 284.485886 
L 345.338462 256.391592 
L 355.551923 213.765766 
L 365.765385 179.858859 
L 375.978846 162.421021 
L 386.192308 146.436336 
L 396.405769 135.77988 
L 406.619231 114.466967 
L 416.832692 125.123423 
L 427.046154 129.482883 
L 437.259615 120.763964 
L 447.473077 135.77988 
L 457.686538 136.264264 
L 467.9 135.77988 
" clip-path="url(#p8aaee194d4)" style="fill: none; stroke: #5088c5; stroke-opacity: 0.5; stroke-width: 0.5; stroke-linecap: round"/>
   </g>
   <g id="line2d_18">
    <path d="M 69.575 159.837638 
L 79.788462 165.165866 
L 90.001923 163.066867 
L 100.215385 161.936637 
L 110.428846 162.582482 
L 120.642308 166.296096 
L 130.855769 170.817017 
L 141.069231 172.593093 
L 151.282692 172.431632 
L 161.496154 176.306707 
L 171.709615 185.025626 
L 181.923077 187.609009 
L 192.136538 198.104004 
L 202.35 220.224224 
L 212.563462 243.313213 
L 222.776923 266.079279 
L 232.990385 289.32973 
L 243.203846 311.127027 
L 253.417308 330.018018 
L 263.630769 340.351552 
L 273.844231 348.101702 
L 284.057692 352.461161 
L 294.271154 352.2997 
L 304.484615 349.877778 
L 314.698077 344.54955 
L 324.911538 336.476476 
L 335.125 319.361562 
L 345.338462 302.246647 
L 355.551923 277.704505 
L 365.765385 246.058058 
L 375.978846 222.646146 
L 386.192308 164.035636 
L 396.405769 158.707407 
L 406.619231 152.733333 
L 416.832692 154.993794 
L 427.046154 157.577177 
L 437.259615 154.993794 
L 447.473077 160.483483 
L 457.686538 158.868869 
L 467.9 157.738639 
" clip-path="url(#p8aaee194d4)" style="fill: none; stroke: #5088c5; stroke-width: 2.5; stroke-linecap: round"/>
   </g>
   <g id="line2d_19">
    <path d="M 69.575 129.482883 
L 79.788462 121.732733 
L 90.001923 130.451652 
L 100.215385 128.514114 
L 110.428846 137.717417 
L 120.642308 140.623724 
L 130.855769 149.342643 
L 141.069231 139.170571 
L 151.282692 141.108108 
L 161.496154 156.608408 
L 171.709615 172.108709 
L 181.923077 189.546547 
L 192.136538 223.453453 
L 202.35 255.422823 
L 212.563462 285.454655 
L 222.776923 311.127027 
L 232.990385 320.33033 
L 243.203846 337.768168 
L 253.417308 343.096396 
L 263.630769 338.736937 
L 273.844231 346.002703 
L 284.057692 340.674474 
L 294.271154 326.627327 
L 304.484615 310.642643 
L 314.698077 289.32973 
L 324.911538 261.235435 
L 335.125 221.031532 
L 345.338462 186.155856 
L 355.551923 156.124024 
L 365.765385 141.108108 
L 375.978846 138.686186 
L 386.192308 130.451652 
L 396.405769 122.217117 
L 406.619231 118.342042 
L 416.832692 117.857658 
L 427.046154 116.888889 
L 437.259615 124.639039 
L 447.473077 129.482883 
L 457.686538 128.02973 
L 467.9 125.123423 
" clip-path="url(#p8aaee194d4)" style="fill: none; stroke: #f28360; stroke-opacity: 0.5; stroke-width: 0.5; stroke-linecap: round"/>
   </g>
   <g id="line2d_20">
    <path d="M 69.575 118.342042 
L 79.788462 122.701502 
L 90.001923 132.389189 
L 100.215385 127.545345 
L 110.428846 131.42042 
L 120.642308 138.201802 
L 130.855769 142.076877 
L 141.069231 145.951952 
L 151.282692 158.061562 
L 161.496154 167.264865 
L 171.709615 179.858859 
L 181.923077 196.327928 
L 192.136538 233.141141 
L 202.35 259.297898 
L 212.563462 286.907808 
L 222.776923 312.095796 
L 232.990385 326.627327 
L 243.203846 339.221321 
L 253.417308 334.861862 
L 263.630769 342.127628 
L 273.844231 344.54955 
L 284.057692 337.283784 
L 294.271154 333.893093 
L 304.484615 318.392793 
L 314.698077 295.626727 
L 324.911538 262.688589 
L 335.125 232.172372 
L 345.338462 195.843544 
L 355.551923 167.749249 
L 365.765385 153.702102 
L 375.978846 151.28018 
L 386.192308 142.076877 
L 396.405769 137.233033 
L 406.619231 142.561261 
L 416.832692 134.811111 
L 427.046154 141.592492 
L 437.259615 118.342042 
L 447.473077 112.529429 
L 457.686538 107.685586 
L 467.9 113.013814 
" clip-path="url(#p8aaee194d4)" style="fill: none; stroke: #f28360; stroke-opacity: 0.5; stroke-width: 0.5; stroke-linecap: round"/>
   </g>
   <g id="line2d_21">
    <path d="M 69.575 112.045045 
L 79.788462 124.639039 
L 90.001923 125.607808 
L 100.215385 121.248348 
L 110.428846 134.326727 
L 120.642308 131.42042 
L 130.855769 128.514114 
L 141.069231 137.233033 
L 151.282692 148.858258 
L 161.496154 150.795796 
L 171.709615 153.702102 
L 181.923077 170.655556 
L 192.136538 196.327928 
L 202.35 234.594294 
L 212.563462 265.110511 
L 222.776923 295.142342 
L 232.990385 315.002102 
L 243.203846 330.986787 
L 253.417308 341.158859 
L 263.630769 343.580781 
L 273.844231 345.033934 
L 284.057692 341.643243 
L 294.271154 338.736937 
L 304.484615 327.596096 
L 314.698077 316.93964 
L 324.911538 293.689189 
L 335.125 261.71982 
L 345.338462 221.515916 
L 355.551923 191.484084 
L 365.765385 173.561862 
L 375.978846 164.358559 
L 386.192308 164.358559 
L 396.405769 150.311411 
L 406.619231 143.045646 
L 416.832692 140.139339 
L 427.046154 142.076877 
L 437.259615 136.748649 
L 447.473077 133.842342 
L 457.686538 130.936036 
L 467.9 121.732733 
" clip-path="url(#p8aaee194d4)" style="fill: none; stroke: #f28360; stroke-opacity: 0.5; stroke-width: 0.5; stroke-linecap: round"/>
   </g>
   <g id="line2d_22">
    <path d="M 69.575 119.956657 
L 79.788462 123.024424 
L 90.001923 129.482883 
L 100.215385 125.769269 
L 110.428846 134.488188 
L 120.642308 136.748649 
L 130.855769 139.977878 
L 141.069231 140.785185 
L 151.282692 149.342643 
L 161.496154 158.223023 
L 171.709615 168.556557 
L 181.923077 185.51001 
L 192.136538 217.640841 
L 202.35 249.771672 
L 212.563462 279.157658 
L 222.776923 306.121722 
L 232.990385 320.653253 
L 243.203846 335.992092 
L 253.417308 339.705706 
L 263.630769 341.481782 
L 273.844231 345.195395 
L 284.057692 339.867167 
L 294.271154 333.085786 
L 304.484615 318.877177 
L 314.698077 300.632032 
L 324.911538 272.537738 
L 335.125 238.307908 
L 345.338462 201.171772 
L 355.551923 171.785786 
L 365.765385 156.124024 
L 375.978846 151.441642 
L 386.192308 145.629029 
L 396.405769 136.587187 
L 406.619231 134.64965 
L 416.832692 130.936036 
L 427.046154 133.519419 
L 437.259615 126.576577 
L 447.473077 125.284885 
L 457.686538 122.217117 
L 467.9 119.956657 
" clip-path="url(#p8aaee194d4)" style="fill: none; stroke: #f28360; stroke-width: 2.5; stroke-linecap: round"/>
   </g>
   <g id="line2d_23">
    <path d="M 69.575 115.92012 
L 79.788462 116.404505 
L 90.001923 114.466967 
L 100.215385 115.92012 
L 110.428846 119.310811 
L 120.642308 124.154655 
L 130.855769 123.185886 
L 141.069231 119.795195 
L 151.282692 118.342042 
L 161.496154 111.076276 
L 171.709615 126.092192 
L 181.923077 123.185886 
L 192.136538 118.342042 
L 202.35 114.951351 
L 212.563462 117.857658 
L 222.776923 119.795195 
L 232.990385 124.639039 
L 243.203846 127.545345 
L 253.417308 119.310811 
L 263.630769 128.02973 
L 273.844231 132.873574 
L 284.057692 116.888889 
L 294.271154 124.639039 
L 304.484615 129.482883 
L 314.698077 121.248348 
L 324.911538 119.795195 
L 335.125 113.982583 
L 345.338462 119.310811 
L 355.551923 119.795195 
L 365.765385 124.639039 
L 375.978846 116.404505 
L 386.192308 120.27958 
L 396.405769 124.154655 
L 406.619231 107.201201 
L 416.832692 114.951351 
L 427.046154 112.045045 
L 437.259615 107.201201 
L 447.473077 114.466967 
L 457.686538 111.076276 
L 467.9 126.576577 
" clip-path="url(#p8aaee194d4)" style="fill: none; stroke: #3b9886; stroke-opacity: 0.5; stroke-width: 0.5; stroke-linecap: round"/>
   </g>
   <g id="line2d_24">
    <path d="M 69.575 119.310811 
L 79.788462 116.888889 
L 90.001923 121.248348 
L 100.215385 116.888889 
L 110.428846 125.607808 
L 120.642308 118.826426 
L 130.855769 116.888889 
L 141.069231 120.27958 
L 151.282692 115.92012 
L 161.496154 117.373273 
L 171.709615 122.701502 
L 181.923077 122.217117 
L 192.136538 128.02973 
L 202.35 123.185886 
L 212.563462 117.857658 
L 222.776923 127.545345 
L 232.990385 125.607808 
L 243.203846 126.576577 
L 253.417308 122.217117 
L 263.630769 125.123423 
L 273.844231 128.998498 
L 284.057692 111.076276 
L 294.271154 115.435736 
L 304.484615 126.092192 
L 314.698077 124.154655 
L 324.911538 112.045045 
L 335.125 125.123423 
L 345.338462 117.857658 
L 355.551923 116.888889 
L 365.765385 118.342042 
L 375.978846 122.217117 
L 386.192308 114.951351 
L 396.405769 116.404505 
L 406.619231 118.826426 
L 416.832692 109.623123 
L 427.046154 121.732733 
L 437.259615 118.342042 
L 447.473077 118.826426 
L 457.686538 111.560661 
L 467.9 119.795195 
" clip-path="url(#p8aaee194d4)" style="fill: none; stroke: #3b9886; stroke-opacity: 0.5; stroke-width: 0.5; stroke-linecap: round"/>
   </g>
   <g id="line2d_25">
    <path d="M 69.575 97.997898 
L 79.788462 97.997898 
L 90.001923 104.294895 
L 100.215385 113.013814 
L 110.428846 105.748048 
L 120.642308 109.138739 
L 130.855769 113.013814 
L 141.069231 108.654354 
L 151.282692 106.716817 
L 161.496154 105.748048 
L 171.709615 93.638438 
L 181.923077 97.029129 
L 192.136538 88.31021 
L 202.35 86.372673 
L 212.563462 92.66967 
L 222.776923 94.122823 
L 232.990385 98.966667 
L 243.203846 96.544745 
L 253.417308 102.357357 
L 263.630769 98.482282 
L 273.844231 114.466967 
L 284.057692 99.935435 
L 294.271154 99.451051 
L 304.484615 104.779279 
L 314.698077 114.466967 
L 324.911538 101.872973 
L 335.125 102.841742 
L 345.338462 102.841742 
L 355.551923 97.513514 
L 365.765385 99.451051 
L 375.978846 91.216517 
L 386.192308 87.825826 
L 396.405769 79.591291 
L 406.619231 68.45045 
L 416.832692 48.590691 
L 427.046154 60.7003 
L 437.259615 82.013213 
L 447.473077 89.763363 
L 457.686538 88.794595 
L 467.9 100.41982 
" clip-path="url(#p8aaee194d4)" style="fill: none; stroke: #3b9886; stroke-opacity: 0.5; stroke-width: 0.5; stroke-linecap: round"/>
   </g>
   <g id="line2d_26">
    <path d="M 69.575 111.076276 
L 79.788462 110.43043 
L 90.001923 113.336737 
L 100.215385 115.274274 
L 110.428846 116.888889 
L 120.642308 117.373273 
L 130.855769 117.696196 
L 141.069231 116.243043 
L 151.282692 113.65966 
L 161.496154 111.399199 
L 171.709615 114.144044 
L 181.923077 114.144044 
L 192.136538 111.560661 
L 202.35 108.16997 
L 212.563462 109.461662 
L 222.776923 113.821121 
L 232.990385 116.404505 
L 243.203846 116.888889 
L 253.417308 114.628428 
L 263.630769 117.211812 
L 273.844231 125.446346 
L 284.057692 109.3002 
L 294.271154 113.175275 
L 304.484615 120.118118 
L 314.698077 119.956657 
L 324.911538 111.237738 
L 335.125 113.982583 
L 345.338462 113.336737 
L 355.551923 111.399199 
L 365.765385 114.144044 
L 375.978846 109.946046 
L 386.192308 107.685586 
L 396.405769 106.716817 
L 406.619231 98.159359 
L 416.832692 91.055055 
L 427.046154 98.159359 
L 437.259615 102.518819 
L 447.473077 107.685586 
L 457.686538 103.810511 
L 467.9 115.597197 
" clip-path="url(#p8aaee194d4)" style="fill: none; stroke: #3b9886; stroke-width: 2.5; stroke-linecap: round"/>
   </g>
   <g id="line2d_27">
    <path d="M 69.575 137.717417 
L 79.788462 131.904805 
L 90.001923 144.014414 
L 100.215385 144.983183 
L 110.428846 131.904805 
L 120.642308 150.311411 
L 130.855769 164.358559 
L 141.069231 163.874174 
L 151.282692 172.593093 
L 161.496154 196.812312 
L 171.709615 228.781682 
L 181.923077 257.36036 
L 192.136538 282.063964 
L 202.35 310.642643 
L 212.563462 325.174174 
L 222.776923 333.893093 
L 232.990385 347.94024 
L 243.203846 350.846547 
L 253.417308 359.565465 
L 263.630769 361.987387 
L 273.844231 364.409309 
L 284.057692 361.018619 
L 294.271154 357.143544 
L 304.484615 360.04985 
L 314.698077 348.424625 
L 324.911538 336.799399 
L 335.125 318.877177 
L 345.338462 284.97027 
L 355.551923 246.703904 
L 365.765385 212.312613 
L 375.978846 182.765165 
L 386.192308 175.983784 
L 396.405769 161.452252 
L 406.619231 157.092793 
L 416.832692 156.124024 
L 427.046154 155.63964 
L 437.259615 141.108108 
L 447.473077 144.983183 
L 457.686538 147.889489 
L 467.9 152.733333 
" clip-path="url(#p8aaee194d4)" style="fill: none; stroke: #f7b846; stroke-opacity: 0.5; stroke-width: 0.5; stroke-linecap: round"/>
   </g>
   <g id="line2d_28">
    <path d="M 69.575 171.624324 
L 79.788462 170.655556 
L 90.001923 158.545946 
L 100.215385 168.233634 
L 110.428846 168.718018 
L 120.642308 165.327327 
L 130.855769 165.811712 
L 141.069231 158.061562 
L 151.282692 203.109309 
L 161.496154 222.0003 
L 171.709615 242.344444 
L 181.923077 268.501201 
L 192.136538 289.814114 
L 202.35 312.095796 
L 212.563462 326.142943 
L 222.776923 341.643243 
L 232.990385 352.2997 
L 243.203846 350.846547 
L 253.417308 358.112312 
L 263.630769 362.956156 
L 273.844231 363.924925 
L 284.057692 359.565465 
L 294.271154 361.503003 
L 304.484615 353.752853 
L 314.698077 344.065165 
L 324.911538 325.174174 
L 335.125 297.564264 
L 345.338462 266.079279 
L 355.551923 236.047447 
L 365.765385 219.093994 
L 375.978846 199.718619 
L 386.192308 185.187087 
L 396.405769 179.858859 
L 406.619231 175.499399 
L 416.832692 174.530631 
L 427.046154 175.499399 
L 437.259615 178.405706 
L 447.473077 162.905405 
L 457.686538 165.327327 
L 467.9 169.686787 
" clip-path="url(#p8aaee194d4)" style="fill: none; stroke: #f7b846; stroke-opacity: 0.5; stroke-width: 0.5; stroke-linecap: round"/>
   </g>
   <g id="line2d_29">
    <path d="M 69.575 200.203003 
L 79.788462 192.937237 
L 90.001923 193.906006 
L 100.215385 189.546547 
L 110.428846 189.546547 
L 120.642308 194.39039 
L 130.855769 189.062162 
L 141.069231 187.609009 
L 151.282692 186.155856 
L 161.496154 243.797598 
L 171.709615 276.735736 
L 181.923077 298.533033 
L 192.136538 317.908408 
L 202.35 330.502402 
L 212.563462 343.580781 
L 222.776923 351.815315 
L 232.990385 359.565465 
L 243.203846 364.409309 
L 253.417308 365.862462 
L 263.630769 366.346847 
L 273.844231 367.315616 
L 284.057692 357.627928 
L 294.271154 363.924925 
L 304.484615 355.69039 
L 314.698077 342.127628 
L 324.911538 329.533634 
L 335.125 306.767568 
L 345.338462 268.985586 
L 355.551923 256.391592 
L 365.765385 233.141141 
L 375.978846 222.484685 
L 386.192308 209.890691 
L 396.405769 216.672072 
L 406.619231 210.859459 
L 416.832692 197.781081 
L 427.046154 202.140541 
L 437.259615 211.828228 
L 447.473077 195.359159 
L 457.686538 186.64024 
L 467.9 204.078078 
" clip-path="url(#p8aaee194d4)" style="fill: none; stroke: #f7b846; stroke-opacity: 0.5; stroke-width: 0.5; stroke-linecap: round"/>
   </g>
   <g id="line2d_30">
    <path d="M 69.575 169.848248 
L 79.788462 165.165866 
L 90.001923 165.488789 
L 100.215385 167.587788 
L 110.428846 163.38979 
L 120.642308 170.00971 
L 130.855769 173.077477 
L 141.069231 169.848248 
L 151.282692 187.286086 
L 161.496154 220.87007 
L 171.709615 249.287287 
L 181.923077 274.798198 
L 192.136538 296.595495 
L 202.35 317.746947 
L 212.563462 331.632633 
L 222.776923 342.450551 
L 232.990385 353.268468 
L 243.203846 355.367467 
L 253.417308 361.18008 
L 263.630769 363.763463 
L 273.844231 365.216617 
L 284.057692 359.404004 
L 294.271154 360.857157 
L 304.484615 356.497698 
L 314.698077 344.872472 
L 324.911538 330.502402 
L 335.125 307.736336 
L 345.338462 273.345045 
L 355.551923 246.380981 
L 365.765385 221.515916 
L 375.978846 201.656156 
L 386.192308 190.353854 
L 396.405769 185.994394 
L 406.619231 181.150551 
L 416.832692 176.145245 
L 427.046154 177.75986 
L 437.259615 177.114014 
L 447.473077 167.749249 
L 457.686538 166.619019 
L 467.9 175.499399 
" clip-path="url(#p8aaee194d4)" style="fill: none; stroke: #f7b846; stroke-width: 2.5; stroke-linecap: round"/>
   </g>
   <g id="line2d_31">
    <path d="M 69.575 192.937237 
L 79.788462 196.327928 
L 90.001923 182.765165 
L 100.215385 190.9997 
L 110.428846 199.718619 
L 120.642308 192.937237 
L 130.855769 204.078078 
L 141.069231 196.812312 
L 151.282692 187.124625 
L 161.496154 203.109309 
L 171.709615 200.687387 
L 181.923077 203.109309 
L 192.136538 200.203003 
L 202.35 216.672072 
L 212.563462 218.125225 
L 222.776923 238.953754 
L 232.990385 248.641441 
L 243.203846 285.454655 
L 253.417308 320.814715 
L 263.630769 337.768168 
L 273.844231 354.237237 
L 284.057692 356.659159 
L 294.271154 361.503003 
L 304.484615 367.8 
L 314.698077 365.862462 
L 324.911538 358.112312 
L 335.125 360.534234 
L 345.338462 357.143544 
L 355.551923 353.268468 
L 365.765385 349.393393 
L 375.978846 325.174174 
L 386.192308 198.265465 
L 396.405769 197.296697 
L 406.619231 191.968468 
L 416.832692 192.937237 
L 427.046154 184.702703 
L 437.259615 179.374474 
L 447.473077 194.39039 
L 457.686538 203.593694 
L 467.9 190.9997 
" clip-path="url(#p8aaee194d4)" style="fill: none; stroke: #7a77ab; stroke-opacity: 0.5; stroke-width: 0.5; stroke-linecap: round"/>
   </g>
   <g id="line2d_32">
    <path d="M 69.575 161.452252 
L 79.788462 161.936637 
L 90.001923 161.452252 
L 100.215385 167.264865 
L 110.428846 165.811712 
L 120.642308 175.015015 
L 130.855769 169.202402 
L 141.069231 176.468168 
L 151.282692 169.686787 
L 161.496154 180.343243 
L 171.709615 186.155856 
L 181.923077 200.687387 
L 192.136538 226.35976 
L 202.35 248.641441 
L 212.563462 282.548348 
L 222.776923 313.064565 
L 232.990385 329.533634 
L 243.203846 344.54955 
L 253.417308 351.815315 
L 263.630769 357.627928 
L 273.844231 362.471772 
L 284.057692 362.956156 
L 294.271154 360.534234 
L 304.484615 360.04985 
L 314.698077 356.659159 
L 324.911538 351.330931 
L 335.125 332.924324 
L 345.338462 327.111712 
L 355.551923 297.07988 
L 365.765385 263.172973 
L 375.978846 228.297297 
L 386.192308 147.889489 
L 396.405769 158.061562 
L 406.619231 156.124024 
L 416.832692 155.155255 
L 427.046154 148.373874 
L 437.259615 166.78048 
L 447.473077 161.452252 
L 457.686538 163.38979 
L 467.9 159.514715 
" clip-path="url(#p8aaee194d4)" style="fill: none; stroke: #7a77ab; stroke-opacity: 0.5; stroke-width: 0.5; stroke-linecap: round"/>
   </g>
   <g id="line2d_33">
    <path d="M 69.575 129.967267 
L 79.788462 131.42042 
L 90.001923 133.357958 
L 100.215385 122.701502 
L 110.428846 135.77988 
L 120.642308 134.811111 
L 130.855769 144.498799 
L 141.069231 148.373874 
L 151.282692 157.092793 
L 161.496154 169.686787 
L 171.709615 192.452853 
L 181.923077 222.0003 
L 192.136538 262.688589 
L 202.35 293.689189 
L 212.563462 320.33033 
L 222.776923 344.54955 
L 232.990385 347.94024 
L 243.203846 354.721622 
L 253.417308 361.987387 
L 263.630769 361.503003 
L 273.844231 363.924925 
L 284.057692 358.112312 
L 294.271154 350.846547 
L 304.484615 347.455856 
L 314.698077 334.377477 
L 324.911538 313.064565 
L 335.125 293.689189 
L 345.338462 251.063363 
L 355.551923 219.578378 
L 365.765385 171.624324 
L 375.978846 164.358559 
L 386.192308 151.764565 
L 396.405769 129.482883 
L 406.619231 128.514114 
L 416.832692 118.342042 
L 427.046154 132.389189 
L 437.259615 125.607808 
L 447.473077 116.404505 
L 457.686538 127.060961 
L 467.9 129.967267 
" clip-path="url(#p8aaee194d4)" style="fill: none; stroke: #7a77ab; stroke-opacity: 0.5; stroke-width: 0.5; stroke-linecap: round"/>
   </g>
   <g id="line2d_34">
    <path d="M 69.575 161.452252 
L 79.788462 163.228328 
L 90.001923 159.191792 
L 100.215385 160.322022 
L 110.428846 167.103403 
L 120.642308 167.587788 
L 130.855769 172.593093 
L 141.069231 173.884785 
L 151.282692 171.301401 
L 161.496154 184.37978 
L 171.709615 193.098699 
L 181.923077 208.598999 
L 192.136538 229.75045 
L 202.35 253.000901 
L 212.563462 273.667968 
L 222.776923 298.855956 
L 232.990385 308.705105 
L 243.203846 328.241942 
L 253.417308 344.872472 
L 263.630769 352.2997 
L 273.844231 360.211311 
L 284.057692 359.242543 
L 294.271154 357.627928 
L 304.484615 358.435235 
L 314.698077 352.2997 
L 324.911538 340.835936 
L 335.125 329.049249 
L 345.338462 311.772873 
L 355.551923 289.975576 
L 365.765385 261.396897 
L 375.978846 239.276677 
L 386.192308 165.973173 
L 396.405769 161.613714 
L 406.619231 158.868869 
L 416.832692 155.478178 
L 427.046154 155.155255 
L 437.259615 157.254254 
L 447.473077 157.415716 
L 457.686538 164.681481 
L 467.9 160.160561 
" clip-path="url(#p8aaee194d4)" style="fill: none; stroke: #7a77ab; stroke-width: 2.5; stroke-linecap: round"/>
   </g>
   <g id="line2d_35">
    <path d="M 69.575 111.560661 
L 79.788462 107.685586 
L 90.001923 113.013814 
L 100.215385 110.107508 
L 110.428846 110.107508 
L 120.642308 120.763964 
L 130.855769 121.248348 
L 141.069231 124.639039 
L 151.282692 131.42042 
L 161.496154 142.561261 
L 171.709615 162.905405 
L 181.923077 205.531231 
L 192.136538 249.61021 
L 202.35 278.673273 
L 212.563462 312.095796 
L 222.776923 328.564865 
L 232.990385 343.096396 
L 243.203846 351.330931 
L 253.417308 354.237237 
L 263.630769 359.081081 
L 273.844231 362.956156 
L 284.057692 356.174775 
L 294.271154 348.909009 
L 304.484615 339.221321 
L 314.698077 330.986787 
L 324.911538 312.095796 
L 335.125 278.673273 
L 345.338462 228.297297 
L 355.551923 177.436937 
L 365.765385 139.654955 
L 375.978846 122.217117 
L 386.192308 108.16997 
L 396.405769 91.700901 
L 406.619231 97.029129 
L 416.832692 95.575976 
L 427.046154 100.904204 
L 437.259615 108.16997 
L 447.473077 94.607207 
L 457.686538 92.66967 
L 467.9 103.810511 
" clip-path="url(#p8aaee194d4)" style="fill: none; stroke: #f898ae; stroke-opacity: 0.5; stroke-width: 0.5; stroke-linecap: round"/>
   </g>
   <g id="line2d_36">
    <path d="M 69.575 122.217117 
L 79.788462 117.373273 
L 90.001923 129.967267 
L 100.215385 123.67027 
L 110.428846 120.763964 
L 120.642308 127.060961 
L 130.855769 138.686186 
L 141.069231 136.264264 
L 151.282692 156.608408 
L 161.496154 172.108709 
L 171.709615 210.375075 
L 181.923077 250.094595 
L 192.136538 272.376276 
L 202.35 303.861261 
L 212.563462 328.08048 
L 222.776923 344.54955 
L 232.990385 349.393393 
L 243.203846 359.081081 
L 253.417308 362.471772 
L 263.630769 363.924925 
L 273.844231 366.831231 
L 284.057692 361.987387 
L 294.271154 353.752853 
L 304.484615 353.268468 
L 314.698077 335.346246 
L 324.911538 315.970871 
L 335.125 286.907808 
L 345.338462 235.078679 
L 355.551923 200.687387 
L 365.765385 171.624324 
L 375.978846 149.827027 
L 386.192308 137.717417 
L 396.405769 130.451652 
L 406.619231 128.514114 
L 416.832692 132.873574 
L 427.046154 134.326727 
L 437.259615 101.388589 
L 447.473077 108.16997 
L 457.686538 117.373273 
L 467.9 124.639039 
" clip-path="url(#p8aaee194d4)" style="fill: none; stroke: #f898ae; stroke-opacity: 0.5; stroke-width: 0.5; stroke-linecap: round"/>
   </g>
   <g id="line2d_37">
    <path d="M 69.575 110.107508 
L 79.788462 120.763964 
L 90.001923 118.826426 
L 100.215385 114.951351 
L 110.428846 117.857658 
L 120.642308 128.514114 
L 130.855769 127.060961 
L 141.069231 131.42042 
L 151.282692 144.983183 
L 161.496154 162.421021 
L 171.709615 182.280781 
L 181.923077 232.656757 
L 192.136538 261.235435 
L 202.35 288.360961 
L 212.563462 319.361562 
L 222.776923 337.768168 
L 232.990385 343.580781 
L 243.203846 356.174775 
L 253.417308 356.659159 
L 263.630769 360.04985 
L 273.844231 361.018619 
L 284.057692 358.596697 
L 294.271154 359.565465 
L 304.484615 358.112312 
L 314.698077 348.424625 
L 324.911538 339.221321 
L 335.125 328.08048 
L 345.338462 300.954955 
L 355.551923 265.594895 
L 365.765385 217.156456 
L 375.978846 189.062162 
L 386.192308 158.061562 
L 396.405769 142.076877 
L 406.619231 139.170571 
L 416.832692 135.295495 
L 427.046154 136.264264 
L 437.259615 119.795195 
L 447.473077 123.67027 
L 457.686538 128.02973 
L 467.9 112.529429 
" clip-path="url(#p8aaee194d4)" style="fill: none; stroke: #f898ae; stroke-opacity: 0.5; stroke-width: 0.5; stroke-linecap: round"/>
   </g>
   <g id="line2d_38">
    <path d="M 69.575 114.628428 
L 79.788462 115.274274 
L 90.001923 120.602503 
L 100.215385 116.243043 
L 110.428846 116.243043 
L 120.642308 125.446346 
L 130.855769 128.998498 
L 141.069231 130.774575 
L 151.282692 144.337337 
L 161.496154 159.03033 
L 171.709615 185.187087 
L 181.923077 229.427528 
L 192.136538 261.073974 
L 202.35 290.298498 
L 212.563462 319.845946 
L 222.776923 336.960861 
L 232.990385 345.356857 
L 243.203846 355.528929 
L 253.417308 357.789389 
L 263.630769 361.018619 
L 273.844231 363.602002 
L 284.057692 358.91962 
L 294.271154 354.075776 
L 304.484615 350.200701 
L 314.698077 338.252553 
L 324.911538 322.429329 
L 335.125 297.887187 
L 345.338462 254.776977 
L 355.551923 214.573073 
L 365.765385 176.145245 
L 375.978846 153.702102 
L 386.192308 134.64965 
L 396.405769 121.40981 
L 406.619231 121.571271 
L 416.832692 121.248348 
L 427.046154 123.831732 
L 437.259615 109.784585 
L 447.473077 108.815816 
L 457.686538 112.690891 
L 467.9 113.65966 
" clip-path="url(#p8aaee194d4)" style="fill: none; stroke: #f898ae; stroke-width: 2.5; stroke-linecap: round"/>
   </g>
   <g id="line2d_39">
    <path d="M 69.575 166.78048 
L 79.788462 175.983784 
L 90.001923 173.077477 
L 100.215385 185.187087 
L 110.428846 176.468168 
L 120.642308 181.796396 
L 130.855769 171.13994 
L 141.069231 175.983784 
L 151.282692 182.765165 
L 161.496154 174.530631 
L 171.709615 180.827628 
L 181.923077 185.671471 
L 192.136538 180.343243 
L 202.35 196.327928 
L 212.563462 190.030931 
L 222.776923 201.171772 
L 232.990385 195.359159 
L 243.203846 205.531231 
L 253.417308 209.890691 
L 263.630769 226.35976 
L 273.844231 236.047447 
L 284.057692 220.547147 
L 294.271154 213.281381 
L 304.484615 216.187688 
L 314.698077 210.375075 
L 324.911538 195.843544 
L 335.125 189.546547 
L 345.338462 197.296697 
L 355.551923 191.484084 
L 365.765385 178.405706 
L 375.978846 184.218318 
L 386.192308 176.468168 
L 396.405769 173.077477 
L 406.619231 175.015015 
L 416.832692 170.171171 
L 427.046154 167.749249 
L 437.259615 170.655556 
L 447.473077 173.561862 
L 457.686538 175.015015 
L 467.9 169.202402 
" clip-path="url(#p8aaee194d4)" style="fill: none; stroke: #73b5e3; stroke-opacity: 0.5; stroke-width: 0.5; stroke-linecap: round"/>
   </g>
   <g id="line2d_40">
    <path d="M 69.575 178.89009 
L 79.788462 179.374474 
L 90.001923 179.858859 
L 100.215385 170.655556 
L 110.428846 173.077477 
L 120.642308 170.171171 
L 130.855769 173.077477 
L 141.069231 183.24955 
L 151.282692 179.374474 
L 161.496154 189.062162 
L 171.709615 200.203003 
L 181.923077 194.39039 
L 192.136538 198.265465 
L 202.35 206.5 
L 212.563462 205.531231 
L 222.776923 206.5 
L 232.990385 207.953153 
L 243.203846 223.453453 
L 253.417308 230.719219 
L 263.630769 228.297297 
L 273.844231 241.86006 
L 284.057692 229.75045 
L 294.271154 234.10991 
L 304.484615 232.172372 
L 314.698077 212.312613 
L 324.911538 209.890691 
L 335.125 210.375075 
L 345.338462 202.624925 
L 355.551923 191.484084 
L 365.765385 192.937237 
L 375.978846 198.74985 
L 386.192308 181.312012 
L 396.405769 185.187087 
L 406.619231 193.906006 
L 416.832692 190.030931 
L 427.046154 191.484084 
L 437.259615 192.452853 
L 447.473077 179.374474 
L 457.686538 178.405706 
L 467.9 180.827628 
" clip-path="url(#p8aaee194d4)" style="fill: none; stroke: #73b5e3; stroke-opacity: 0.5; stroke-width: 0.5; stroke-linecap: round"/>
   </g>
   <g id="line2d_41">
    <path d="M 69.575 152.733333 
L 79.788462 152.733333 
L 90.001923 158.545946 
L 100.215385 174.046246 
L 110.428846 182.765165 
L 120.642308 161.936637 
L 130.855769 164.842943 
L 141.069231 161.452252 
L 151.282692 166.296096 
L 161.496154 160.483483 
L 171.709615 160.483483 
L 181.923077 162.905405 
L 192.136538 157.577177 
L 202.35 162.905405 
L 212.563462 164.358559 
L 222.776923 167.749249 
L 232.990385 181.312012 
L 243.203846 190.515315 
L 253.417308 215.703303 
L 263.630769 233.141141 
L 273.844231 239.438138 
L 284.057692 235.563063 
L 294.271154 230.234835 
L 304.484615 224.906607 
L 314.698077 218.125225 
L 324.911538 221.515916 
L 335.125 207.468769 
L 345.338462 206.5 
L 355.551923 196.812312 
L 365.765385 180.827628 
L 375.978846 174.046246 
L 386.192308 171.13994 
L 396.405769 163.38979 
L 406.619231 155.63964 
L 416.832692 157.577177 
L 427.046154 148.858258 
L 437.259615 153.702102 
L 447.473077 149.827027 
L 457.686538 154.670871 
L 467.9 159.03033 
" clip-path="url(#p8aaee194d4)" style="fill: none; stroke: #73b5e3; stroke-opacity: 0.5; stroke-width: 0.5; stroke-linecap: round"/>
   </g>
   <g id="line2d_42">
    <path d="M 69.575 166.134635 
L 79.788462 169.363864 
L 90.001923 170.494094 
L 100.215385 176.62963 
L 110.428846 177.436937 
L 120.642308 171.301401 
L 130.855769 169.686787 
L 141.069231 173.561862 
L 151.282692 176.145245 
L 161.496154 174.692092 
L 171.709615 180.504705 
L 181.923077 180.989089 
L 192.136538 178.728629 
L 202.35 188.577778 
L 212.563462 186.64024 
L 222.776923 191.807007 
L 232.990385 194.874775 
L 243.203846 206.5 
L 253.417308 218.771071 
L 263.630769 229.266066 
L 273.844231 239.115215 
L 284.057692 228.62022 
L 294.271154 225.875375 
L 304.484615 224.422222 
L 314.698077 213.604304 
L 324.911538 209.083383 
L 335.125 202.463463 
L 345.338462 202.140541 
L 355.551923 193.26016 
L 365.765385 184.056857 
L 375.978846 185.671471 
L 386.192308 176.306707 
L 396.405769 173.884785 
L 406.619231 174.853554 
L 416.832692 172.593093 
L 427.046154 169.363864 
L 437.259615 172.27017 
L 447.473077 167.587788 
L 457.686538 169.363864 
L 467.9 169.686787 
" clip-path="url(#p8aaee194d4)" style="fill: none; stroke: #73b5e3; stroke-width: 2.5; stroke-linecap: round"/>
   </g>
   <g id="line2d_43">
    <path d="M 69.575 218.125225 
L 79.788462 217.156456 
L 90.001923 219.578378 
L 100.215385 223.937838 
L 110.428846 234.10991 
L 120.642308 229.75045 
L 130.855769 234.10991 
L 141.069231 217.640841 
L 151.282692 223.937838 
L 161.496154 225.390991 
L 171.709615 223.453453 
L 181.923077 223.937838 
L 192.136538 217.640841 
L 202.35 221.515916 
L 212.563462 229.75045 
L 222.776923 232.656757 
L 232.990385 235.078679 
L 243.203846 244.766366 
L 253.417308 257.36036 
L 263.630769 272.860661 
L 273.844231 281.095195 
L 284.057692 279.157658 
L 294.271154 272.860661 
L 304.484615 270.923123 
L 314.698077 254.938438 
L 324.911538 242.828829 
L 335.125 228.297297 
L 345.338462 235.078679 
L 355.551923 232.172372 
L 365.765385 233.141141 
L 375.978846 228.297297 
L 386.192308 231.687988 
L 396.405769 222.484685 
L 406.619231 213.765766 
L 416.832692 218.60961 
L 427.046154 217.640841 
L 437.259615 217.640841 
L 447.473077 216.187688 
L 457.686538 214.734535 
L 467.9 215.703303 
" clip-path="url(#p8aaee194d4)" style="fill: none; stroke: #ffb984; stroke-opacity: 0.5; stroke-width: 0.5; stroke-linecap: round"/>
   </g>
   <g id="line2d_44">
    <path d="M 69.575 244.281982 
L 79.788462 238.953754 
L 90.001923 243.313213 
L 100.215385 244.281982 
L 110.428846 247.672673 
L 120.642308 246.21952 
L 130.855769 244.766366 
L 141.069231 239.922523 
L 151.282692 243.797598 
L 161.496154 241.86006 
L 171.709615 237.016216 
L 181.923077 243.797598 
L 192.136538 242.344444 
L 202.35 237.016216 
L 212.563462 239.922523 
L 222.776923 244.766366 
L 232.990385 251.547748 
L 243.203846 260.266667 
L 253.417308 269.46997 
L 263.630769 278.673273 
L 273.844231 282.063964 
L 284.057692 281.095195 
L 294.271154 272.376276 
L 304.484615 263.657357 
L 314.698077 251.063363 
L 324.911538 238.469369 
L 335.125 237.016216 
L 345.338462 236.531832 
L 355.551923 239.922523 
L 365.765385 239.438138 
L 375.978846 245.250751 
L 386.192308 244.281982 
L 396.405769 239.922523 
L 406.619231 238.953754 
L 416.832692 244.766366 
L 427.046154 243.797598 
L 437.259615 233.141141 
L 447.473077 251.063363 
L 457.686538 252.516517 
L 467.9 236.047447 
" clip-path="url(#p8aaee194d4)" style="fill: none; stroke: #ffb984; stroke-opacity: 0.5; stroke-width: 0.5; stroke-linecap: round"/>
   </g>
   <g id="line2d_45">
    <path d="M 69.575 255.907207 
L 79.788462 268.501201 
L 90.001923 261.71982 
L 100.215385 268.016817 
L 110.428846 259.297898 
L 120.642308 259.297898 
L 130.855769 258.329129 
L 141.069231 253.96967 
L 151.282692 256.875976 
L 161.496154 247.672673 
L 171.709615 241.375676 
L 181.923077 242.828829 
L 192.136538 238.953754 
L 202.35 251.547748 
L 212.563462 244.281982 
L 222.776923 261.71982 
L 232.990385 266.563664 
L 243.203846 280.126426 
L 253.417308 274.798198 
L 263.630769 286.423423 
L 273.844231 274.313814 
L 284.057692 272.860661 
L 294.271154 263.657357 
L 304.484615 262.204204 
L 314.698077 255.422823 
L 324.911538 258.813514 
L 335.125 256.391592 
L 345.338462 261.71982 
L 355.551923 257.844745 
L 365.765385 263.657357 
L 375.978846 258.329129 
L 386.192308 257.36036 
L 396.405769 259.782282 
L 406.619231 258.813514 
L 416.832692 257.36036 
L 427.046154 263.657357 
L 437.259615 263.172973 
L 447.473077 265.110511 
L 457.686538 256.391592 
L 467.9 259.297898 
" clip-path="url(#p8aaee194d4)" style="fill: none; stroke: #ffb984; stroke-opacity: 0.5; stroke-width: 0.5; stroke-linecap: round"/>
   </g>
   <g id="line2d_46">
    <path d="M 69.575 239.438138 
L 79.788462 241.537137 
L 90.001923 241.537137 
L 100.215385 245.412212 
L 110.428846 247.026827 
L 120.642308 245.089289 
L 130.855769 245.735135 
L 141.069231 237.177678 
L 151.282692 241.537137 
L 161.496154 238.307908 
L 171.709615 233.948448 
L 181.923077 236.854755 
L 192.136538 232.97968 
L 202.35 236.693293 
L 212.563462 237.984985 
L 222.776923 246.380981 
L 232.990385 251.063363 
L 243.203846 261.71982 
L 253.417308 267.20951 
L 263.630769 279.319119 
L 273.844231 279.157658 
L 284.057692 277.704505 
L 294.271154 269.631431 
L 304.484615 265.594895 
L 314.698077 253.808208 
L 324.911538 246.703904 
L 335.125 240.568368 
L 345.338462 244.443443 
L 355.551923 243.313213 
L 365.765385 245.412212 
L 375.978846 243.959059 
L 386.192308 244.443443 
L 396.405769 240.72983 
L 406.619231 237.177678 
L 416.832692 240.245445 
L 427.046154 241.698599 
L 437.259615 237.984985 
L 447.473077 244.120521 
L 457.686538 241.214214 
L 467.9 237.016216 
" clip-path="url(#p8aaee194d4)" style="fill: none; stroke: #ffb984; stroke-width: 2.5; stroke-linecap: round"/>
   </g>
   <g id="patch_3">
    <path d="M 69.575 367.8 
L 69.575 45.2 
" style="fill: none; stroke: #000000; stroke-width: 0.75; stroke-linejoin: miter; stroke-linecap: square"/>
   </g>
   <g id="patch_4">
    <path d="M 69.575 367.8 
L 467.9 367.8 
" style="fill: none; stroke: #000000; stroke-width: 0.75; stroke-linejoin: miter; stroke-linecap: square"/>
   </g>
   <g id="text_17">
    <text style="font: 500 18px &quot;Suisse Int&apos;l&quot;, sans-serif; text-anchor: middle" x="268.7375" y="29.2" transform="rotate(-0 268.7375 29.2)">Normalized Spatial Density of Cells in a Conical Well : CC-3707</text>
   </g>
   <g id="legend_1">
    <g id="line2d_47">
     <path d="M 487.81625 51.575 
L 495.31625 51.575 
L 502.81625 51.575 
" style="fill: none; stroke: #5088c5; stroke-width: 2.5; stroke-linecap: round"/>
    </g>
    <g id="text_18">
     <text style="font: 15px &quot;Suisse Int&apos;l&quot;, sans-serif; text-anchor: start" x="508.81625" y="57.95" transform="rotate(-0 508.81625 57.95)">water Average</text>
    </g>
    <g id="line2d_48">
     <path d="M 487.81625 74.644531 
L 495.31625 74.644531 
L 502.81625 74.644531 
" style="fill: none; stroke: #f28360; stroke-width: 2.5; stroke-linecap: round"/>
    </g>
    <g id="text_19">
     <text style="font: 15px &quot;Suisse Int&apos;l&quot;, sans-serif; text-anchor: start" x="508.81625" y="81.019531" transform="rotate(-0 508.81625 81.019531)">0.1% DMSO Average</text>
    </g>
    <g id="line2d_49">
     <path d="M 487.81625 97.714062 
L 495.31625 97.714062 
L 502.81625 97.714062 
" style="fill: none; stroke: #3b9886; stroke-width: 2.5; stroke-linecap: round"/>
    </g>
    <g id="text_20">
     <text style="font: 15px &quot;Suisse Int&apos;l&quot;, sans-serif; text-anchor: start" x="508.81625" y="104.089062" transform="rotate(-0 508.81625 104.089062)">50 µM Torin2 Average</text>
    </g>
    <g id="line2d_50">
     <path d="M 487.81625 120.783594 
L 495.31625 120.783594 
L 502.81625 120.783594 
" style="fill: none; stroke: #f7b846; stroke-width: 2.5; stroke-linecap: round"/>
    </g>
    <g id="text_21">
     <text style="font: 15px &quot;Suisse Int&apos;l&quot;, sans-serif; text-anchor: start" x="508.81625" y="127.158594" transform="rotate(-0 508.81625 127.158594)">50 µM TAK-063 Average</text>
    </g>
    <g id="line2d_51">
     <path d="M 487.81625 143.853125 
L 495.31625 143.853125 
L 502.81625 143.853125 
" style="fill: none; stroke: #7a77ab; stroke-width: 2.5; stroke-linecap: round"/>
    </g>
    <g id="text_22">
     <text style="font: 15px &quot;Suisse Int&apos;l&quot;, sans-serif; text-anchor: start" x="508.81625" y="150.228125" transform="rotate(-0 508.81625 150.228125)">50 µM Dynarrestin Average</text>
    </g>
    <g id="line2d_52">
     <path d="M 487.81625 166.922656 
L 495.31625 166.922656 
L 502.81625 166.922656 
" style="fill: none; stroke: #f898ae; stroke-width: 2.5; stroke-linecap: round"/>
    </g>
    <g id="text_23">
     <text style="font: 15px &quot;Suisse Int&apos;l&quot;, sans-serif; text-anchor: start" x="508.81625" y="173.297656" transform="rotate(-0 508.81625 173.297656)">50 µM ATP Average</text>
    </g>
    <g id="line2d_53">
     <path d="M 487.81625 189.992187 
L 495.31625 189.992187 
L 502.81625 189.992187 
" style="fill: none; stroke: #73b5e3; stroke-width: 2.5; stroke-linecap: round"/>
    </g>
    <g id="text_24">
     <text style="font: 15px &quot;Suisse Int&apos;l&quot;, sans-serif; text-anchor: start" x="508.81625" y="196.367187" transform="rotate(-0 508.81625 196.367187)">50 µM Linsitinib Average</text>
    </g>
    <g id="line2d_54">
     <path d="M 487.81625 213.061719 
L 495.31625 213.061719 
L 502.81625 213.061719 
" style="fill: none; stroke: #ffb984; stroke-width: 2.5; stroke-linecap: round"/>
    </g>
    <g id="text_25">
     <text style="font: 15px &quot;Suisse Int&apos;l&quot;, sans-serif; text-anchor: start" x="508.81625" y="219.436719" transform="rotate(-0 508.81625 219.436719)">50 µM Ibudilast Average</text>
    </g>
   </g>
  </g>
 </g>
 <defs>
  <clipPath id="p8aaee194d4">
   <rect x="69.575" y="45.2" width="398.325" height="322.6"/>
  </clipPath>
 </defs>
</svg>
