<?xml version="1.0" encoding="utf-8" standalone="no"?>
<!DOCTYPE svg PUBLIC "-//W3C//DTD SVG 1.1//EN"
  "http://www.w3.org/Graphics/SVG/1.1/DTD/svg11.dtd">
<svg xmlns:xlink="http://www.w3.org/1999/xlink" width="720pt" height="432pt" viewBox="0 0 720 432" xmlns="http://www.w3.org/2000/svg" version="1.1">
 <metadata>
  <rdf:RDF xmlns:dc="http://purl.org/dc/elements/1.1/" xmlns:cc="http://creativecommons.org/ns#" xmlns:rdf="http://www.w3.org/1999/02/22-rdf-syntax-ns#">
   <cc:Work>
    <dc:type rdf:resource="http://purl.org/dc/dcmitype/StillImage"/>
    <dc:date>2024-09-19T15:13:47.522383</dc:date>
    <dc:format>image/svg+xml</dc:format>
    <dc:creator>
     <cc:Agent>
      <dc:title>Matplotlib v3.8.4, https://matplotlib.org/</dc:title>
     </cc:Agent>
    </dc:creator>
   </cc:Work>
  </rdf:RDF>
 </metadata>
 <defs>
  <style type="text/css">*{stroke-linejoin: round; stroke-linecap: butt}</style>
 </defs>
 <g id="figure_1">
  <g id="patch_1">
   <path d="M 0 432 
L 720 432 
L 720 0 
L 0 0 
L 0 432 
z
" style="fill: none"/>
  </g>
  <g id="axes_1">
   <g id="patch_2">
    <path d="M 69.575 367.8 
L 531.9 367.8 
L 531.9 45.2 
L 69.575 45.2 
L 69.575 367.8 
z
" style="fill: none"/>
   </g>
   <g id="matplotlib.axis_1">
    <g id="xtick_1">
     <g id="line2d_1">
      <defs>
       <path id="m92758e20cc" d="M 0 0 
L 0 5 
" style="stroke: #000000; stroke-width: 0.75"/>
      </defs>
      <g>
       <use xlink:href="#m92758e20cc" x="69.575" y="367.8" style="stroke: #000000; stroke-width: 0.75"/>
      </g>
     </g>
     <g id="text_1">
      <text style="font: 15px &quot;Suisse Int&apos;l&quot;, sans-serif; text-anchor: middle" x="69.575" y="388.675" transform="rotate(-0 69.575 388.675)">0</text>
     </g>
    </g>
    <g id="xtick_2">
     <g id="line2d_2">
      <g>
       <use xlink:href="#m92758e20cc" x="128.847436" y="367.8" style="stroke: #000000; stroke-width: 0.75"/>
      </g>
     </g>
     <g id="text_2">
      <text style="font: 15px &quot;Suisse Int&apos;l&quot;, sans-serif; text-anchor: middle" x="128.847436" y="388.675" transform="rotate(-0 128.847436 388.675)">5</text>
     </g>
    </g>
    <g id="xtick_3">
     <g id="line2d_3">
      <g>
       <use xlink:href="#m92758e20cc" x="188.119872" y="367.8" style="stroke: #000000; stroke-width: 0.75"/>
      </g>
     </g>
     <g id="text_3">
      <text style="font: 15px &quot;Suisse Int&apos;l&quot;, sans-serif; text-anchor: middle" x="188.119872" y="388.675" transform="rotate(-0 188.119872 388.675)">10</text>
     </g>
    </g>
    <g id="xtick_4">
     <g id="line2d_4">
      <g>
       <use xlink:href="#m92758e20cc" x="247.392308" y="367.8" style="stroke: #000000; stroke-width: 0.75"/>
      </g>
     </g>
     <g id="text_4">
      <text style="font: 15px &quot;Suisse Int&apos;l&quot;, sans-serif; text-anchor: middle" x="247.392308" y="388.675" transform="rotate(-0 247.392308 388.675)">15</text>
     </g>
    </g>
    <g id="xtick_5">
     <g id="line2d_5">
      <g>
       <use xlink:href="#m92758e20cc" x="306.664744" y="367.8" style="stroke: #000000; stroke-width: 0.75"/>
      </g>
     </g>
     <g id="text_5">
      <text style="font: 15px &quot;Suisse Int&apos;l&quot;, sans-serif; text-anchor: middle" x="306.664744" y="388.675" transform="rotate(-0 306.664744 388.675)">20</text>
     </g>
    </g>
    <g id="xtick_6">
     <g id="line2d_6">
      <g>
       <use xlink:href="#m92758e20cc" x="365.937179" y="367.8" style="stroke: #000000; stroke-width: 0.75"/>
      </g>
     </g>
     <g id="text_6">
      <text style="font: 15px &quot;Suisse Int&apos;l&quot;, sans-serif; text-anchor: middle" x="365.937179" y="388.675" transform="rotate(-0 365.937179 388.675)">25</text>
     </g>
    </g>
    <g id="xtick_7">
     <g id="line2d_7">
      <g>
       <use xlink:href="#m92758e20cc" x="425.209615" y="367.8" style="stroke: #000000; stroke-width: 0.75"/>
      </g>
     </g>
     <g id="text_7">
      <text style="font: 15px &quot;Suisse Int&apos;l&quot;, sans-serif; text-anchor: middle" x="425.209615" y="388.675" transform="rotate(-0 425.209615 388.675)">30</text>
     </g>
    </g>
    <g id="xtick_8">
     <g id="line2d_8">
      <g>
       <use xlink:href="#m92758e20cc" x="484.482051" y="367.8" style="stroke: #000000; stroke-width: 0.75"/>
      </g>
     </g>
     <g id="text_8">
      <text style="font: 15px &quot;Suisse Int&apos;l&quot;, sans-serif; text-anchor: middle" x="484.482051" y="388.675" transform="rotate(-0 484.482051 388.675)">35</text>
     </g>
    </g>
    <g id="text_9">
     <text style="font: 500 15px &quot;Suisse Int&apos;l&quot;, sans-serif; text-anchor: middle" x="300.7375" y="412.175" transform="rotate(-0 300.7375 412.175)">Pixel Position</text>
    </g>
   </g>
   <g id="matplotlib.axis_2">
    <g id="ytick_1">
     <g id="line2d_9">
      <defs>
       <path id="mf1d1674775" d="M 0 0 
L -5 0 
" style="stroke: #000000; stroke-width: 0.75"/>
      </defs>
      <g>
       <use xlink:href="#mf1d1674775" x="69.575" y="330.152515" style="stroke: #000000; stroke-width: 0.75"/>
      </g>
     </g>
     <g id="text_10">
      <text style="font: 15px &quot;Suisse Int&apos;l&quot;, sans-serif; text-anchor: end" x="59.575" y="335.590015" transform="rotate(-0 59.575 335.590015)">10</text>
     </g>
    </g>
    <g id="ytick_2">
     <g id="line2d_10">
      <g>
       <use xlink:href="#mf1d1674775" x="69.575" y="258.752113" style="stroke: #000000; stroke-width: 0.75"/>
      </g>
     </g>
     <g id="text_11">
      <text style="font: 15px &quot;Suisse Int&apos;l&quot;, sans-serif; text-anchor: end" x="59.575" y="264.189613" transform="rotate(-0 59.575 264.189613)">20</text>
     </g>
    </g>
    <g id="ytick_3">
     <g id="line2d_11">
      <g>
       <use xlink:href="#mf1d1674775" x="69.575" y="187.35171" style="stroke: #000000; stroke-width: 0.75"/>
      </g>
     </g>
     <g id="text_12">
      <text style="font: 15px &quot;Suisse Int&apos;l&quot;, sans-serif; text-anchor: end" x="59.575" y="192.78921" transform="rotate(-0 59.575 192.78921)">30</text>
     </g>
    </g>
    <g id="ytick_4">
     <g id="line2d_12">
      <g>
       <use xlink:href="#mf1d1674775" x="69.575" y="115.951308" style="stroke: #000000; stroke-width: 0.75"/>
      </g>
     </g>
     <g id="text_13">
      <text style="font: 15px &quot;Suisse Int&apos;l&quot;, sans-serif; text-anchor: end" x="59.575" y="121.388808" transform="rotate(-0 59.575 121.388808)">40</text>
     </g>
    </g>
    <g id="text_14">
     <text style="font: 500 15px &quot;Suisse Int&apos;l&quot;, sans-serif; text-anchor: middle" x="27.675" y="206.5" transform="rotate(-90 27.675 206.5)">Relative Cell Density</text>
    </g>
   </g>
   <g id="line2d_13">
    <path d="M 69.575 294.452314 
L 81.429487 291.855936 
L 93.283974 282.119517 
L 105.138462 267.839437 
L 116.992949 268.488531 
L 128.847436 270.435815 
L 140.701923 271.734004 
L 152.55641 260.699396 
L 164.410897 304.188732 
L 176.265385 306.136016 
L 188.119872 311.977867 
L 199.974359 302.241449 
L 211.828846 302.890543 
L 223.683333 308.0833 
L 235.537821 319.117907 
L 247.392308 316.521529 
L 259.246795 311.328773 
L 271.101282 321.065191 
L 282.955769 308.732394 
L 294.810256 309.381489 
L 306.664744 313.276056 
L 318.519231 309.381489 
L 330.373718 310.679678 
L 342.228205 306.136016 
L 354.082692 306.785111 
L 365.937179 301.592354 
L 377.791667 306.785111 
L 389.646154 302.241449 
L 401.500641 311.328773 
L 413.355128 306.136016 
L 425.209615 300.294165 
L 437.064103 306.136016 
L 448.91859 304.188732 
L 460.773077 305.486922 
L 472.627564 298.995976 
L 484.482051 304.188732 
L 496.336538 304.837827 
L 508.191026 299.64507 
L 520.045513 304.837827 
L 531.9 300.294165 
" clip-path="url(#pcc59e83a10)" style="fill: none; stroke: #bab0a8; stroke-opacity: 0.5; stroke-width: 0.5; stroke-linecap: round"/>
   </g>
   <g id="line2d_14">
    <path d="M 69.575 299.64507 
L 81.429487 300.294165 
L 93.283974 304.837827 
L 105.138462 308.732394 
L 116.992949 310.030584 
L 128.847436 308.732394 
L 140.701923 308.732394 
L 152.55641 306.136016 
L 164.410897 308.732394 
L 176.265385 303.539638 
L 188.119872 307.434205 
L 199.974359 306.785111 
L 211.828846 300.94326 
L 223.683333 295.101408 
L 235.537821 296.399598 
L 247.392308 299.64507 
L 259.246795 300.94326 
L 271.101282 297.697787 
L 282.955769 290.557746 
L 294.810256 287.961368 
L 306.664744 310.679678 
L 318.519231 298.346881 
L 330.373718 294.452314 
L 342.228205 288.610463 
L 354.082692 291.206841 
L 365.937179 297.697787 
L 377.791667 299.64507 
L 389.646154 300.294165 
L 401.500641 298.346881 
L 413.355128 294.452314 
L 425.209615 299.64507 
L 437.064103 290.557746 
L 448.91859 287.961368 
L 460.773077 284.066801 
L 472.627564 275.628571 
L 484.482051 269.78672 
L 496.336538 260.699396 
L 508.191026 302.241449 
L 520.045513 295.101408 
L 531.9 299.64507 
" clip-path="url(#pcc59e83a10)" style="fill: none; stroke: #bab0a8; stroke-opacity: 0.5; stroke-width: 0.5; stroke-linecap: round"/>
   </g>
   <g id="line2d_15">
    <path d="M 69.575 278.874044 
L 81.429487 280.821328 
L 93.283974 286.663179 
L 105.138462 278.874044 
L 116.992949 280.821328 
L 128.847436 280.172233 
L 140.701923 271.734004 
L 152.55641 271.734004 
L 164.410897 261.997586 
L 176.265385 296.399598 
L 188.119872 290.557746 
L 199.974359 290.557746 
L 211.828846 288.610463 
L 223.683333 293.803219 
L 235.537821 297.048692 
L 247.392308 297.697787 
L 259.246795 298.346881 
L 271.101282 295.750503 
L 282.955769 285.36499 
L 294.810256 291.855936 
L 306.664744 299.64507 
L 318.519231 283.417706 
L 330.373718 288.610463 
L 342.228205 286.014085 
L 354.082692 290.557746 
L 365.937179 290.557746 
L 377.791667 286.014085 
L 389.646154 282.119517 
L 401.500641 286.014085 
L 413.355128 286.014085 
L 425.209615 285.36499 
L 437.064103 293.154125 
L 448.91859 289.908652 
L 460.773077 281.470423 
L 472.627564 282.768612 
L 484.482051 284.715895 
L 496.336538 281.470423 
L 508.191026 273.032193 
L 520.045513 284.066801 
L 531.9 272.383099 
" clip-path="url(#pcc59e83a10)" style="fill: none; stroke: #bab0a8; stroke-opacity: 0.5; stroke-width: 0.5; stroke-linecap: round"/>
   </g>
   <g id="line2d_16">
    <path d="M 69.575 296.399598 
L 81.429487 295.101408 
L 93.283974 286.014085 
L 105.138462 281.470423 
L 116.992949 283.417706 
L 128.847436 281.470423 
L 140.701923 285.36499 
L 152.55641 283.417706 
L 164.410897 284.066801 
L 176.265385 278.874044 
L 188.119872 273.032193 
L 199.974359 284.715895 
L 211.828846 282.119517 
L 223.683333 284.066801 
L 235.537821 284.066801 
L 247.392308 286.663179 
L 259.246795 283.417706 
L 271.101282 274.330382 
L 282.955769 282.768612 
L 294.810256 287.961368 
L 306.664744 289.908652 
L 318.519231 289.259557 
L 330.373718 283.417706 
L 342.228205 289.259557 
L 354.082692 278.874044 
L 365.937179 289.259557 
L 377.791667 280.172233 
L 389.646154 284.715895 
L 401.500641 289.908652 
L 413.355128 282.119517 
L 425.209615 267.190342 
L 437.064103 275.628571 
L 448.91859 276.277666 
L 460.773077 291.206841 
L 472.627564 284.066801 
L 484.482051 283.417706 
L 496.336538 280.172233 
L 508.191026 295.750503 
L 520.045513 286.663179 
L 531.9 298.995976 
" clip-path="url(#pcc59e83a10)" style="fill: none; stroke: #bab0a8; stroke-opacity: 0.5; stroke-width: 0.5; stroke-linecap: round"/>
   </g>
   <g id="line2d_17">
    <path d="M 69.575 286.663179 
L 81.429487 277.575855 
L 93.283974 276.926761 
L 105.138462 267.190342 
L 116.992949 276.277666 
L 128.847436 270.435815 
L 140.701923 284.066801 
L 152.55641 290.557746 
L 164.410897 290.557746 
L 176.265385 287.312274 
L 188.119872 289.908652 
L 199.974359 284.715895 
L 211.828846 285.36499 
L 223.683333 281.470423 
L 235.537821 281.470423 
L 247.392308 274.330382 
L 259.246795 280.172233 
L 271.101282 282.768612 
L 282.955769 284.715895 
L 294.810256 278.22495 
L 306.664744 291.855936 
L 318.519231 278.22495 
L 330.373718 283.417706 
L 342.228205 280.172233 
L 354.082692 270.435815 
L 365.937179 276.926761 
L 377.791667 280.821328 
L 389.646154 278.874044 
L 401.500641 274.330382 
L 413.355128 278.874044 
L 425.209615 282.119517 
L 437.064103 273.681288 
L 448.91859 269.78672 
L 460.773077 280.172233 
L 472.627564 274.979477 
L 484.482051 278.874044 
L 496.336538 287.961368 
L 508.191026 276.926761 
L 520.045513 284.066801 
L 531.9 280.172233 
" clip-path="url(#pcc59e83a10)" style="fill: none; stroke: #bab0a8; stroke-opacity: 0.5; stroke-width: 0.5; stroke-linecap: round"/>
   </g>
   <g id="line2d_18">
    <path d="M 69.575 287.961368 
L 81.429487 283.417706 
L 93.283974 292.50503 
L 105.138462 292.50503 
L 116.992949 284.715895 
L 128.847436 282.119517 
L 140.701923 281.470423 
L 152.55641 286.014085 
L 164.410897 298.346881 
L 176.265385 291.206841 
L 188.119872 280.821328 
L 199.974359 286.663179 
L 211.828846 294.452314 
L 223.683333 288.610463 
L 235.537821 297.697787 
L 247.392308 290.557746 
L 259.246795 292.50503 
L 271.101282 291.855936 
L 282.955769 291.855936 
L 294.810256 290.557746 
L 306.664744 296.399598 
L 318.519231 292.50503 
L 330.373718 286.663179 
L 342.228205 285.36499 
L 354.082692 284.066801 
L 365.937179 278.874044 
L 377.791667 282.768612 
L 389.646154 283.417706 
L 401.500641 276.926761 
L 413.355128 289.908652 
L 425.209615 283.417706 
L 437.064103 280.821328 
L 448.91859 283.417706 
L 460.773077 291.206841 
L 472.627564 278.874044 
L 484.482051 280.172233 
L 496.336538 282.768612 
L 508.191026 276.926761 
L 520.045513 286.663179 
L 531.9 286.014085 
" clip-path="url(#pcc59e83a10)" style="fill: none; stroke: #bab0a8; stroke-opacity: 0.5; stroke-width: 0.5; stroke-linecap: round"/>
   </g>
   <g id="line2d_19">
    <path d="M 69.575 280.821328 
L 81.429487 282.768612 
L 93.283974 280.172233 
L 105.138462 278.874044 
L 116.992949 280.172233 
L 128.847436 287.312274 
L 140.701923 281.470423 
L 152.55641 279.523139 
L 164.410897 274.330382 
L 176.265385 284.715895 
L 188.119872 280.172233 
L 199.974359 287.961368 
L 211.828846 288.610463 
L 223.683333 287.312274 
L 235.537821 285.36499 
L 247.392308 282.119517 
L 259.246795 284.715895 
L 271.101282 285.36499 
L 282.955769 277.575855 
L 294.810256 289.908652 
L 306.664744 299.64507 
L 318.519231 288.610463 
L 330.373718 284.066801 
L 342.228205 287.312274 
L 354.082692 274.330382 
L 365.937179 281.470423 
L 377.791667 272.383099 
L 389.646154 271.734004 
L 401.500641 278.874044 
L 413.355128 280.172233 
L 425.209615 280.821328 
L 437.064103 274.330382 
L 448.91859 278.874044 
L 460.773077 279.523139 
L 472.627564 281.470423 
L 484.482051 278.22495 
L 496.336538 271.734004 
L 508.191026 276.926761 
L 520.045513 279.523139 
L 531.9 282.768612 
" clip-path="url(#pcc59e83a10)" style="fill: none; stroke: #bab0a8; stroke-opacity: 0.5; stroke-width: 0.5; stroke-linecap: round"/>
   </g>
   <g id="line2d_20">
    <path d="M 69.575 283.417706 
L 81.429487 280.821328 
L 93.283974 286.663179 
L 105.138462 287.961368 
L 116.992949 285.36499 
L 128.847436 291.206841 
L 140.701923 282.768612 
L 152.55641 260.050302 
L 164.410897 267.190342 
L 176.265385 278.22495 
L 188.119872 274.979477 
L 199.974359 289.908652 
L 211.828846 287.961368 
L 223.683333 294.452314 
L 235.537821 290.557746 
L 247.392308 297.048692 
L 259.246795 287.312274 
L 271.101282 293.154125 
L 282.955769 289.908652 
L 294.810256 281.470423 
L 306.664744 295.101408 
L 318.519231 286.663179 
L 330.373718 293.803219 
L 342.228205 288.610463 
L 354.082692 287.961368 
L 365.937179 282.119517 
L 377.791667 286.014085 
L 389.646154 272.383099 
L 401.500641 280.172233 
L 413.355128 278.874044 
L 425.209615 280.821328 
L 437.064103 282.119517 
L 448.91859 282.119517 
L 460.773077 278.874044 
L 472.627564 286.663179 
L 484.482051 281.470423 
L 496.336538 283.417706 
L 508.191026 282.768612 
L 520.045513 276.926761 
L 531.9 281.470423 
" clip-path="url(#pcc59e83a10)" style="fill: none; stroke: #bab0a8; stroke-opacity: 0.5; stroke-width: 0.5; stroke-linecap: round"/>
   </g>
   <g id="line2d_21">
    <path d="M 69.575 270.435815 
L 81.429487 284.715895 
L 93.283974 275.628571 
L 105.138462 276.926761 
L 116.992949 287.312274 
L 128.847436 277.575855 
L 140.701923 260.699396 
L 152.55641 258.752113 
L 164.410897 269.78672 
L 176.265385 260.050302 
L 188.119872 261.997586 
L 199.974359 265.892153 
L 211.828846 274.979477 
L 223.683333 274.330382 
L 235.537821 280.821328 
L 247.392308 281.470423 
L 259.246795 282.768612 
L 271.101282 278.874044 
L 282.955769 278.874044 
L 294.810256 274.979477 
L 306.664744 291.206841 
L 318.519231 280.821328 
L 330.373718 281.470423 
L 342.228205 273.681288 
L 354.082692 273.032193 
L 365.937179 277.575855 
L 377.791667 271.084909 
L 389.646154 272.383099 
L 401.500641 271.084909 
L 413.355128 282.768612 
L 425.209615 271.084909 
L 437.064103 274.330382 
L 448.91859 276.277666 
L 460.773077 278.22495 
L 472.627564 280.821328 
L 484.482051 273.681288 
L 496.336538 279.523139 
L 508.191026 270.435815 
L 520.045513 284.715895 
L 531.9 280.821328 
" clip-path="url(#pcc59e83a10)" style="fill: none; stroke: #bab0a8; stroke-opacity: 0.5; stroke-width: 0.5; stroke-linecap: round"/>
   </g>
   <g id="line2d_22">
    <path d="M 69.575 273.032193 
L 81.429487 271.734004 
L 93.283974 286.014085 
L 105.138462 288.610463 
L 116.992949 287.312274 
L 128.847436 295.750503 
L 140.701923 292.50503 
L 152.55641 287.961368 
L 164.410897 289.259557 
L 176.265385 280.821328 
L 188.119872 285.36499 
L 199.974359 288.610463 
L 211.828846 284.715895 
L 223.683333 286.663179 
L 235.537821 290.557746 
L 247.392308 286.663179 
L 259.246795 286.014085 
L 271.101282 291.855936 
L 282.955769 291.855936 
L 294.810256 286.663179 
L 306.664744 293.154125 
L 318.519231 282.768612 
L 330.373718 280.821328 
L 342.228205 286.663179 
L 354.082692 293.154125 
L 365.937179 289.908652 
L 377.791667 287.312274 
L 389.646154 287.961368 
L 401.500641 285.36499 
L 413.355128 290.557746 
L 425.209615 284.715895 
L 437.064103 291.855936 
L 448.91859 286.014085 
L 460.773077 289.259557 
L 472.627564 295.750503 
L 484.482051 289.259557 
L 496.336538 290.557746 
L 508.191026 261.348491 
L 520.045513 267.190342 
L 531.9 272.383099 
" clip-path="url(#pcc59e83a10)" style="fill: none; stroke: #bab0a8; stroke-opacity: 0.5; stroke-width: 0.5; stroke-linecap: round"/>
   </g>
   <g id="line2d_23">
    <path d="M 69.575 282.119517 
L 81.429487 288.610463 
L 93.283974 291.206841 
L 105.138462 286.014085 
L 116.992949 285.36499 
L 128.847436 293.803219 
L 140.701923 290.557746 
L 152.55641 282.119517 
L 164.410897 288.610463 
L 176.265385 274.330382 
L 188.119872 266.541247 
L 199.974359 260.699396 
L 211.828846 265.892153 
L 223.683333 271.084909 
L 235.537821 274.979477 
L 247.392308 280.821328 
L 259.246795 286.014085 
L 271.101282 291.855936 
L 282.955769 291.206841 
L 294.810256 286.014085 
L 306.664744 295.101408 
L 318.519231 288.610463 
L 330.373718 287.312274 
L 342.228205 290.557746 
L 354.082692 280.172233 
L 365.937179 289.259557 
L 377.791667 290.557746 
L 389.646154 280.821328 
L 401.500641 287.961368 
L 413.355128 287.961368 
L 425.209615 282.768612 
L 437.064103 279.523139 
L 448.91859 283.417706 
L 460.773077 286.014085 
L 472.627564 291.206841 
L 484.482051 283.417706 
L 496.336538 281.470423 
L 508.191026 286.014085 
L 520.045513 286.014085 
L 531.9 283.417706 
" clip-path="url(#pcc59e83a10)" style="fill: none; stroke: #bab0a8; stroke-opacity: 0.5; stroke-width: 0.5; stroke-linecap: round"/>
   </g>
   <g id="line2d_24">
    <path d="M 69.575 247.717505 
L 81.429487 245.121127 
L 93.283974 243.822938 
L 105.138462 240.577465 
L 116.992949 275.628571 
L 128.847436 270.435815 
L 140.701923 278.874044 
L 152.55641 281.470423 
L 164.410897 276.926761 
L 176.265385 282.119517 
L 188.119872 284.066801 
L 199.974359 280.821328 
L 211.828846 284.066801 
L 223.683333 290.557746 
L 235.537821 286.014085 
L 247.392308 285.36499 
L 259.246795 282.768612 
L 271.101282 284.066801 
L 282.955769 286.663179 
L 294.810256 286.663179 
L 306.664744 289.259557 
L 318.519231 285.36499 
L 330.373718 279.523139 
L 342.228205 281.470423 
L 354.082692 288.610463 
L 365.937179 282.768612 
L 377.791667 279.523139 
L 389.646154 283.417706 
L 401.500641 280.172233 
L 413.355128 282.768612 
L 425.209615 279.523139 
L 437.064103 280.821328 
L 448.91859 282.119517 
L 460.773077 278.22495 
L 472.627564 274.330382 
L 484.482051 272.383099 
L 496.336538 269.78672 
L 508.191026 267.190342 
L 520.045513 258.752113 
L 531.9 249.015694 
" clip-path="url(#pcc59e83a10)" style="fill: none; stroke: #bab0a8; stroke-opacity: 0.5; stroke-width: 0.5; stroke-linecap: round"/>
   </g>
   <g id="line2d_25">
    <path d="M 69.575 269.78672 
L 81.429487 261.348491 
L 93.283974 251.612072 
L 105.138462 250.313883 
L 116.992949 239.279276 
L 128.847436 235.384708 
L 140.701923 276.926761 
L 152.55641 270.435815 
L 164.410897 271.084909 
L 176.265385 276.926761 
L 188.119872 281.470423 
L 199.974359 283.417706 
L 211.828846 282.119517 
L 223.683333 282.768612 
L 235.537821 277.575855 
L 247.392308 276.926761 
L 259.246795 275.628571 
L 271.101282 278.22495 
L 282.955769 278.874044 
L 294.810256 280.172233 
L 306.664744 282.768612 
L 318.519231 277.575855 
L 330.373718 271.734004 
L 342.228205 273.681288 
L 354.082692 278.874044 
L 365.937179 277.575855 
L 377.791667 278.22495 
L 389.646154 282.768612 
L 401.500641 280.172233 
L 413.355128 278.22495 
L 425.209615 276.926761 
L 437.064103 276.277666 
L 448.91859 276.277666 
L 460.773077 282.119517 
L 472.627564 280.821328 
L 484.482051 278.22495 
L 496.336538 277.575855 
L 508.191026 274.330382 
L 520.045513 272.383099 
L 531.9 267.839437 
" clip-path="url(#pcc59e83a10)" style="fill: none; stroke: #bab0a8; stroke-opacity: 0.5; stroke-width: 0.5; stroke-linecap: round"/>
   </g>
   <g id="line2d_26">
    <path d="M 69.575 264.593964 
L 81.429487 263.944869 
L 93.283974 262.64668 
L 105.138462 264.593964 
L 116.992949 259.401207 
L 128.847436 258.752113 
L 140.701923 259.401207 
L 152.55641 260.699396 
L 164.410897 256.155734 
L 176.265385 257.453924 
L 188.119872 265.892153 
L 199.974359 265.892153 
L 211.828846 269.137626 
L 223.683333 263.944869 
L 235.537821 265.243058 
L 247.392308 263.944869 
L 259.246795 261.997586 
L 271.101282 269.137626 
L 282.955769 268.488531 
L 294.810256 266.541247 
L 306.664744 271.734004 
L 318.519231 263.295775 
L 330.373718 261.348491 
L 342.228205 267.839437 
L 354.082692 269.78672 
L 365.937179 269.137626 
L 377.791667 266.541247 
L 389.646154 262.64668 
L 401.500641 258.103018 
L 413.355128 256.155734 
L 425.209615 248.3666 
L 437.064103 243.173843 
L 448.91859 239.279276 
L 460.773077 237.981087 
L 472.627564 267.190342 
L 484.482051 266.541247 
L 496.336538 269.78672 
L 508.191026 265.892153 
L 520.045513 259.401207 
L 531.9 260.699396 
" clip-path="url(#pcc59e83a10)" style="fill: none; stroke: #bab0a8; stroke-opacity: 0.5; stroke-width: 0.5; stroke-linecap: round"/>
   </g>
   <g id="line2d_27">
    <path d="M 69.575 259.401207 
L 81.429487 256.804829 
L 93.283974 259.401207 
L 105.138462 261.348491 
L 116.992949 258.103018 
L 128.847436 258.752113 
L 140.701923 258.752113 
L 152.55641 260.050302 
L 164.410897 258.103018 
L 176.265385 260.050302 
L 188.119872 260.050302 
L 199.974359 259.401207 
L 211.828846 256.804829 
L 223.683333 256.804829 
L 235.537821 262.64668 
L 247.392308 258.103018 
L 259.246795 252.261167 
L 271.101282 249.015694 
L 282.955769 256.804829 
L 294.810256 261.997586 
L 306.664744 265.243058 
L 318.519231 261.997586 
L 330.373718 255.50664 
L 342.228205 260.050302 
L 354.082692 265.243058 
L 365.937179 263.295775 
L 377.791667 258.103018 
L 389.646154 261.997586 
L 401.500641 263.295775 
L 413.355128 261.348491 
L 425.209615 253.559356 
L 437.064103 247.06841 
L 448.91859 249.015694 
L 460.773077 247.06841 
L 472.627564 237.981087 
L 484.482051 260.699396 
L 496.336538 259.401207 
L 508.191026 258.752113 
L 520.045513 261.348491 
L 531.9 259.401207 
" clip-path="url(#pcc59e83a10)" style="fill: none; stroke: #bab0a8; stroke-opacity: 0.5; stroke-width: 0.5; stroke-linecap: round"/>
   </g>
   <g id="line2d_28">
    <path d="M 69.575 257.453924 
L 81.429487 251.612072 
L 93.283974 253.559356 
L 105.138462 256.804829 
L 116.992949 257.453924 
L 128.847436 256.804829 
L 140.701923 255.50664 
L 152.55641 252.910262 
L 164.410897 253.559356 
L 176.265385 256.155734 
L 188.119872 257.453924 
L 199.974359 252.910262 
L 211.828846 254.208451 
L 223.683333 263.295775 
L 235.537821 265.243058 
L 247.392308 261.997586 
L 259.246795 264.593964 
L 271.101282 264.593964 
L 282.955769 258.752113 
L 294.810256 260.699396 
L 306.664744 268.488531 
L 318.519231 267.839437 
L 330.373718 262.64668 
L 342.228205 261.348491 
L 354.082692 259.401207 
L 365.937179 261.348491 
L 377.791667 264.593964 
L 389.646154 265.892153 
L 401.500641 260.699396 
L 413.355128 255.50664 
L 425.209615 258.752113 
L 437.064103 260.699396 
L 448.91859 248.3666 
L 460.773077 246.419316 
L 472.627564 255.50664 
L 484.482051 255.50664 
L 496.336538 257.453924 
L 508.191026 255.50664 
L 520.045513 253.559356 
L 531.9 257.453924 
" clip-path="url(#pcc59e83a10)" style="fill: none; stroke: #bab0a8; stroke-opacity: 0.5; stroke-width: 0.5; stroke-linecap: round"/>
   </g>
   <g id="line2d_29">
    <path d="M 69.575 245.121127 
L 81.429487 250.962978 
L 93.283974 251.612072 
L 105.138462 250.962978 
L 116.992949 243.822938 
L 128.847436 249.015694 
L 140.701923 250.313883 
L 152.55641 250.313883 
L 164.410897 251.612072 
L 176.265385 255.50664 
L 188.119872 254.857545 
L 199.974359 252.261167 
L 211.828846 254.857545 
L 223.683333 250.313883 
L 235.537821 250.313883 
L 247.392308 252.910262 
L 259.246795 255.50664 
L 271.101282 252.910262 
L 282.955769 251.612072 
L 294.810256 253.559356 
L 306.664744 260.050302 
L 318.519231 258.752113 
L 330.373718 256.155734 
L 342.228205 258.752113 
L 354.082692 257.453924 
L 365.937179 256.155734 
L 377.791667 257.453924 
L 389.646154 256.155734 
L 401.500641 256.804829 
L 413.355128 256.804829 
L 425.209615 253.559356 
L 437.064103 254.857545 
L 448.91859 253.559356 
L 460.773077 261.348491 
L 472.627564 267.190342 
L 484.482051 255.50664 
L 496.336538 254.208451 
L 508.191026 254.208451 
L 520.045513 247.717505 
L 531.9 244.472032 
" clip-path="url(#pcc59e83a10)" style="fill: none; stroke: #bab0a8; stroke-opacity: 0.5; stroke-width: 0.5; stroke-linecap: round"/>
   </g>
   <g id="line2d_30">
    <path d="M 69.575 251.612072 
L 81.429487 252.910262 
L 93.283974 262.64668 
L 105.138462 259.401207 
L 116.992949 254.857545 
L 128.847436 256.804829 
L 140.701923 258.752113 
L 152.55641 258.752113 
L 164.410897 255.50664 
L 176.265385 257.453924 
L 188.119872 257.453924 
L 199.974359 259.401207 
L 211.828846 263.295775 
L 223.683333 258.103018 
L 235.537821 258.103018 
L 247.392308 259.401207 
L 259.246795 261.348491 
L 271.101282 260.050302 
L 282.955769 264.593964 
L 294.810256 265.892153 
L 306.664744 266.541247 
L 318.519231 258.103018 
L 330.373718 255.50664 
L 342.228205 256.155734 
L 354.082692 263.944869 
L 365.937179 260.699396 
L 377.791667 258.103018 
L 389.646154 254.857545 
L 401.500641 249.015694 
L 413.355128 252.261167 
L 425.209615 253.559356 
L 437.064103 244.472032 
L 448.91859 250.962978 
L 460.773077 256.804829 
L 472.627564 255.50664 
L 484.482051 253.559356 
L 496.336538 254.208451 
L 508.191026 250.962978 
L 520.045513 252.261167 
L 531.9 250.313883 
" clip-path="url(#pcc59e83a10)" style="fill: none; stroke: #bab0a8; stroke-opacity: 0.5; stroke-width: 0.5; stroke-linecap: round"/>
   </g>
   <g id="line2d_31">
    <path d="M 69.575 250.962978 
L 81.429487 252.910262 
L 93.283974 253.559356 
L 105.138462 249.015694 
L 116.992949 252.261167 
L 128.847436 260.050302 
L 140.701923 262.64668 
L 152.55641 258.752113 
L 164.410897 258.752113 
L 176.265385 261.997586 
L 188.119872 259.401207 
L 199.974359 261.997586 
L 211.828846 260.699396 
L 223.683333 258.752113 
L 235.537821 255.50664 
L 247.392308 250.313883 
L 259.246795 256.804829 
L 271.101282 257.453924 
L 282.955769 262.64668 
L 294.810256 262.64668 
L 306.664744 265.243058 
L 318.519231 260.699396 
L 330.373718 263.295775 
L 342.228205 267.190342 
L 354.082692 258.103018 
L 365.937179 258.752113 
L 377.791667 261.348491 
L 389.646154 259.401207 
L 401.500641 260.699396 
L 413.355128 267.839437 
L 425.209615 267.839437 
L 437.064103 265.892153 
L 448.91859 263.295775 
L 460.773077 238.630181 
L 472.627564 242.524748 
L 484.482051 249.664789 
L 496.336538 249.015694 
L 508.191026 247.06841 
L 520.045513 250.313883 
L 531.9 250.962978 
" clip-path="url(#pcc59e83a10)" style="fill: none; stroke: #bab0a8; stroke-opacity: 0.5; stroke-width: 0.5; stroke-linecap: round"/>
   </g>
   <g id="line2d_32">
    <path d="M 69.575 254.208451 
L 81.429487 250.962978 
L 93.283974 249.664789 
L 105.138462 254.857545 
L 116.992949 260.050302 
L 128.847436 263.944869 
L 140.701923 263.944869 
L 152.55641 260.050302 
L 164.410897 260.050302 
L 176.265385 257.453924 
L 188.119872 262.64668 
L 199.974359 260.699396 
L 211.828846 261.997586 
L 223.683333 260.699396 
L 235.537821 260.699396 
L 247.392308 263.944869 
L 259.246795 260.050302 
L 271.101282 265.243058 
L 282.955769 264.593964 
L 294.810256 263.295775 
L 306.664744 270.435815 
L 318.519231 269.137626 
L 330.373718 259.401207 
L 342.228205 258.752113 
L 354.082692 260.699396 
L 365.937179 259.401207 
L 377.791667 262.64668 
L 389.646154 258.752113 
L 401.500641 260.699396 
L 413.355128 267.190342 
L 425.209615 269.137626 
L 437.064103 264.593964 
L 448.91859 265.243058 
L 460.773077 259.401207 
L 472.627564 237.981087 
L 484.482051 243.822938 
L 496.336538 247.06841 
L 508.191026 246.419316 
L 520.045513 243.173843 
L 531.9 252.261167 
" clip-path="url(#pcc59e83a10)" style="fill: none; stroke: #bab0a8; stroke-opacity: 0.5; stroke-width: 0.5; stroke-linecap: round"/>
   </g>
   <g id="line2d_33">
    <path d="M 69.575 259.401207 
L 81.429487 257.453924 
L 93.283974 261.348491 
L 105.138462 258.752113 
L 116.992949 255.50664 
L 128.847436 258.103018 
L 140.701923 262.64668 
L 152.55641 261.997586 
L 164.410897 263.295775 
L 176.265385 260.050302 
L 188.119872 258.103018 
L 199.974359 257.453924 
L 211.828846 261.997586 
L 223.683333 263.295775 
L 235.537821 265.243058 
L 247.392308 268.488531 
L 259.246795 266.541247 
L 271.101282 260.699396 
L 282.955769 256.804829 
L 294.810256 263.295775 
L 306.664744 271.084909 
L 318.519231 267.839437 
L 330.373718 263.295775 
L 342.228205 268.488531 
L 354.082692 269.137626 
L 365.937179 269.137626 
L 377.791667 267.839437 
L 389.646154 271.084909 
L 401.500641 273.681288 
L 413.355128 270.435815 
L 425.209615 262.64668 
L 437.064103 265.243058 
L 448.91859 265.243058 
L 460.773077 230.841046 
L 472.627564 236.682897 
L 484.482051 242.524748 
L 496.336538 245.770221 
L 508.191026 249.664789 
L 520.045513 252.910262 
L 531.9 257.453924 
" clip-path="url(#pcc59e83a10)" style="fill: none; stroke: #bab0a8; stroke-opacity: 0.5; stroke-width: 0.5; stroke-linecap: round"/>
   </g>
   <g id="line2d_34">
    <path d="M 69.575 258.752113 
L 81.429487 258.103018 
L 93.283974 256.804829 
L 105.138462 254.208451 
L 116.992949 254.208451 
L 128.847436 263.295775 
L 140.701923 266.541247 
L 152.55641 267.839437 
L 164.410897 269.137626 
L 176.265385 266.541247 
L 188.119872 267.190342 
L 199.974359 266.541247 
L 211.828846 263.944869 
L 223.683333 262.64668 
L 235.537821 266.541247 
L 247.392308 271.734004 
L 259.246795 266.541247 
L 271.101282 262.64668 
L 282.955769 269.78672 
L 294.810256 272.383099 
L 306.664744 278.22495 
L 318.519231 276.926761 
L 330.373718 268.488531 
L 342.228205 269.137626 
L 354.082692 272.383099 
L 365.937179 270.435815 
L 377.791667 272.383099 
L 389.646154 274.979477 
L 401.500641 275.628571 
L 413.355128 274.979477 
L 425.209615 276.277666 
L 437.064103 274.979477 
L 448.91859 272.383099 
L 460.773077 236.033803 
L 472.627564 239.92837 
L 484.482051 239.279276 
L 496.336538 245.121127 
L 508.191026 249.015694 
L 520.045513 242.524748 
L 531.9 245.770221 
" clip-path="url(#pcc59e83a10)" style="fill: none; stroke: #bab0a8; stroke-opacity: 0.5; stroke-width: 0.5; stroke-linecap: round"/>
   </g>
   <g id="line2d_35">
    <path d="M 69.575 270.583336 
L 81.429487 269.99325 
L 93.283974 270.701354 
L 105.138462 268.901591 
L 116.992949 269.99325 
L 128.847436 271.379952 
L 140.701923 272.973185 
L 152.55641 270.465319 
L 164.410897 273.238723 
L 176.265385 274.241869 
L 188.119872 274.153357 
L 199.974359 274.979477 
L 211.828846 275.89411 
L 223.683333 276.189153 
L 235.537821 277.782385 
L 247.392308 277.575855 
L 259.246795 277.162795 
L 271.101282 277.664368 
L 282.955769 276.956265 
L 294.810256 277.369325 
L 306.664744 284.774904 
L 318.519231 278.460984 
L 330.373718 275.982623 
L 342.228205 276.602213 
L 354.082692 276.10064 
L 365.937179 276.543205 
L 377.791667 275.923614 
L 389.646154 274.949973 
L 401.500641 275.422041 
L 413.355128 276.425187 
L 425.209615 273.563271 
L 437.064103 272.73715 
L 448.91859 271.999543 
L 460.773077 269.108121 
L 472.627564 269.403164 
L 484.482051 269.314652 
L 496.336538 269.727712 
L 508.191026 269.137626 
L 520.045513 269.550686 
L 531.9 269.727712 
" clip-path="url(#pcc59e83a10)" style="fill: none; stroke: #bab0a8; stroke-width: 2.5; stroke-linecap: round"/>
   </g>
   <g id="line2d_36">
    <path d="M 69.575 125.038632 
L 81.429487 108.162173 
L 93.283974 94.531187 
L 105.138462 97.77666 
L 116.992949 97.127565 
L 128.847436 102.320322 
L 140.701923 115.302213 
L 152.55641 119.845875 
L 164.410897 124.389537 
L 176.265385 128.933199 
L 188.119872 138.669618 
L 199.974359 153.598793 
L 211.828846 176.317103 
L 223.683333 206.175453 
L 235.537821 215.911871 
L 247.392308 245.121127 
L 259.246795 262.64668 
L 271.101282 275.628571 
L 282.955769 288.610463 
L 294.810256 291.855936 
L 306.664744 306.136016 
L 318.519231 304.188732 
L 330.373718 305.486922 
L 342.228205 305.486922 
L 354.082692 301.592354 
L 365.937179 288.610463 
L 377.791667 279.523139 
L 389.646154 267.190342 
L 401.500641 245.770221 
L 413.355128 226.946479 
L 425.209615 219.157344 
L 437.064103 217.21006 
L 448.91859 208.122736 
L 460.773077 204.228169 
L 472.627564 208.771831 
L 484.482051 206.824547 
L 496.336538 156.844266 
L 508.191026 149.704225 
L 520.045513 146.458753 
L 531.9 139.967807 
" clip-path="url(#pcc59e83a10)" style="fill: none; stroke: #73b5e3; stroke-opacity: 0.5; stroke-width: 0.5; stroke-linecap: round"/>
   </g>
   <g id="line2d_37">
    <path d="M 69.575 76.356539 
L 81.429487 87.391147 
L 93.283974 88.040241 
L 105.138462 102.969416 
L 116.992949 105.565795 
L 128.847436 110.758551 
L 140.701923 120.49497 
L 152.55641 136.073239 
L 164.410897 154.247887 
L 176.265385 171.124346 
L 188.119872 193.193561 
L 199.974359 209.420926 
L 211.828846 239.92837 
L 223.683333 256.804829 
L 235.537821 276.277666 
L 247.392308 292.50503 
L 259.246795 298.346881 
L 271.101282 306.785111 
L 282.955769 307.434205 
L 294.810256 311.977867 
L 306.664744 315.22334 
L 318.519231 310.030584 
L 330.373718 302.890543 
L 342.228205 293.154125 
L 354.082692 283.417706 
L 365.937179 267.190342 
L 377.791667 244.472032 
L 389.646154 219.157344 
L 401.500641 190.597183 
L 413.355128 183.457143 
L 425.209615 165.282495 
L 437.064103 166.580684 
L 448.91859 171.124346 
L 460.773077 171.773441 
L 472.627564 186.702616 
L 484.482051 188.000805 
L 496.336538 138.020523 
L 508.191026 127.63501 
L 520.045513 101.022133 
L 531.9 89.338431 
" clip-path="url(#pcc59e83a10)" style="fill: none; stroke: #73b5e3; stroke-opacity: 0.5; stroke-width: 0.5; stroke-linecap: round"/>
   </g>
   <g id="line2d_38">
    <path d="M 69.575 102.969416 
L 81.429487 79.602012 
L 93.283974 86.092958 
L 105.138462 86.092958 
L 116.992949 89.987525 
L 128.847436 89.338431 
L 140.701923 99.723944 
L 152.55641 99.723944 
L 164.410897 106.863984 
L 176.265385 122.442254 
L 188.119872 145.160563 
L 199.974359 156.195171 
L 211.828846 178.264386 
L 223.683333 200.982696 
L 235.537821 228.244668 
L 247.392308 250.313883 
L 259.246795 267.839437 
L 271.101282 278.22495 
L 282.955769 284.066801 
L 294.810256 288.610463 
L 306.664744 296.399598 
L 318.519231 293.154125 
L 330.373718 286.663179 
L 342.228205 281.470423 
L 354.082692 269.78672 
L 365.937179 258.752113 
L 377.791667 241.875654 
L 389.646154 213.964588 
L 401.500641 188.000805 
L 413.355128 169.826157 
L 425.209615 151.651509 
L 437.064103 144.511469 
L 448.91859 154.896982 
L 460.773077 161.387928 
L 472.627564 174.369819 
L 484.482051 173.720724 
L 496.336538 152.949698 
L 508.191026 151.002414 
L 520.045513 139.967807 
L 531.9 119.196781 
" clip-path="url(#pcc59e83a10)" style="fill: none; stroke: #73b5e3; stroke-opacity: 0.5; stroke-width: 0.5; stroke-linecap: round"/>
   </g>
   <g id="line2d_39">
    <path d="M 69.575 71.163783 
L 81.429487 78.303823 
L 93.283974 77.005634 
L 105.138462 74.409256 
L 116.992949 80.900201 
L 128.847436 89.338431 
L 140.701923 97.77666 
L 152.55641 100.373038 
L 164.410897 128.284105 
L 176.265385 149.704225 
L 188.119872 181.509859 
L 199.974359 204.877264 
L 211.828846 228.893763 
L 223.683333 256.804829 
L 235.537821 273.032193 
L 247.392308 287.961368 
L 259.246795 310.030584 
L 271.101282 309.381489 
L 282.955769 311.977867 
L 294.810256 318.468813 
L 306.664744 319.117907 
L 318.519231 317.819718 
L 330.373718 313.276056 
L 342.228205 303.539638 
L 354.082692 292.50503 
L 365.937179 277.575855 
L 377.791667 256.155734 
L 389.646154 226.946479 
L 401.500641 197.737223 
L 413.355128 173.07163 
L 425.209615 161.387928 
L 437.064103 153.598793 
L 448.91859 143.862374 
L 460.773077 155.546076 
L 472.627564 162.686117 
L 484.482051 128.933199 
L 496.336538 115.951308 
L 508.191026 101.671227 
L 520.045513 84.145674 
L 531.9 75.05835 
" clip-path="url(#pcc59e83a10)" style="fill: none; stroke: #73b5e3; stroke-opacity: 0.5; stroke-width: 0.5; stroke-linecap: round"/>
   </g>
   <g id="line2d_40">
    <path d="M 69.575 75.05835 
L 81.429487 75.05835 
L 93.283974 65.971026 
L 105.138462 56.883702 
L 116.992949 67.91831 
L 128.847436 77.654728 
L 140.701923 76.356539 
L 152.55641 81.549296 
L 164.410897 87.391147 
L 176.265385 102.969416 
L 188.119872 123.091348 
L 199.974359 139.967807 
L 211.828846 165.93159 
L 223.683333 195.140845 
L 235.537821 221.104628 
L 247.392308 236.033803 
L 259.246795 263.295775 
L 271.101282 269.137626 
L 282.955769 279.523139 
L 294.810256 284.715895 
L 306.664744 286.663179 
L 318.519231 286.663179 
L 330.373718 282.119517 
L 342.228205 275.628571 
L 354.082692 271.734004 
L 365.937179 252.910262 
L 377.791667 232.78833 
L 389.646154 211.368209 
L 401.500641 191.246278 
L 413.355128 174.369819 
L 425.209615 146.458753 
L 437.064103 121.793159 
L 448.91859 112.05674 
L 460.773077 104.267606 
L 472.627564 105.565795 
L 484.482051 122.442254 
L 496.336538 124.389537 
L 508.191026 117.249497 
L 520.045513 110.109457 
L 531.9 89.987525 
" clip-path="url(#pcc59e83a10)" style="fill: none; stroke: #73b5e3; stroke-opacity: 0.5; stroke-width: 0.5; stroke-linecap: round"/>
   </g>
   <g id="line2d_41">
    <path d="M 69.575 61.427364 
L 81.429487 67.269215 
L 93.283974 60.77827 
L 105.138462 65.971026 
L 116.992949 80.251107 
L 128.847436 78.303823 
L 140.701923 98.425755 
L 152.55641 108.811268 
L 164.410897 134.77505 
L 176.265385 147.107847 
L 188.119872 171.773441 
L 199.974359 193.193561 
L 211.828846 215.911871 
L 223.683333 247.06841 
L 235.537821 270.435815 
L 247.392308 282.768612 
L 259.246795 289.908652 
L 271.101282 297.697787 
L 282.955769 294.452314 
L 294.810256 297.697787 
L 306.664744 299.64507 
L 318.519231 295.101408 
L 330.373718 293.154125 
L 342.228205 273.681288 
L 354.082692 245.121127 
L 365.937179 223.051911 
L 377.791667 200.333602 
L 389.646154 181.509859 
L 401.500641 160.089738 
L 413.355128 143.862374 
L 425.209615 118.547686 
L 437.064103 117.898592 
L 448.91859 112.05674 
L 460.773077 101.671227 
L 472.627564 113.35493 
L 484.482051 99.074849 
L 496.336538 82.847485 
L 508.191026 62.725553 
L 520.045513 64.672837 
L 531.9 60.77827 
" clip-path="url(#pcc59e83a10)" style="fill: none; stroke: #73b5e3; stroke-opacity: 0.5; stroke-width: 0.5; stroke-linecap: round"/>
   </g>
   <g id="line2d_42">
    <path d="M 69.575 87.391147 
L 81.429487 60.77827 
L 93.283974 55.585513 
L 105.138462 71.163783 
L 116.992949 78.303823 
L 128.847436 83.496579 
L 140.701923 91.285714 
L 152.55641 102.320322 
L 164.410897 115.302213 
L 176.265385 121.793159 
L 188.119872 136.722334 
L 199.974359 160.089738 
L 211.828846 186.702616 
L 223.683333 213.315493 
L 235.537821 237.331992 
L 247.392308 252.910262 
L 259.246795 264.593964 
L 271.101282 278.22495 
L 282.955769 284.066801 
L 294.810256 280.821328 
L 306.664744 284.715895 
L 318.519231 278.874044 
L 330.373718 276.926761 
L 342.228205 267.190342 
L 354.082692 247.06841 
L 365.937179 222.402817 
L 377.791667 202.280885 
L 389.646154 180.860765 
L 401.500641 158.791549 
L 413.355128 138.669618 
L 425.209615 129.582294 
L 437.064103 107.513078 
L 448.91859 97.127565 
L 460.773077 84.145674 
L 472.627564 78.303823 
L 484.482051 154.896982 
L 496.336538 143.21328 
L 508.191026 124.389537 
L 520.045513 115.951308 
L 531.9 102.320322 
" clip-path="url(#pcc59e83a10)" style="fill: none; stroke: #73b5e3; stroke-opacity: 0.5; stroke-width: 0.5; stroke-linecap: round"/>
   </g>
   <g id="line2d_43">
    <path d="M 69.575 69.216499 
L 81.429487 69.865594 
L 93.283974 67.91831 
L 105.138462 67.91831 
L 116.992949 79.602012 
L 128.847436 75.707445 
L 140.701923 81.549296 
L 152.55641 102.320322 
L 164.410897 114.004024 
L 176.265385 132.178672 
L 188.119872 158.142455 
L 199.974359 173.720724 
L 211.828846 201.631791 
L 223.683333 230.191952 
L 235.537821 252.910262 
L 247.392308 269.137626 
L 259.246795 287.312274 
L 271.101282 289.908652 
L 282.955769 301.592354 
L 294.810256 306.785111 
L 306.664744 307.434205 
L 318.519231 300.94326 
L 330.373718 300.94326 
L 342.228205 290.557746 
L 354.082692 278.22495 
L 365.937179 266.541247 
L 377.791667 247.717505 
L 389.646154 215.911871 
L 401.500641 189.298994 
L 413.355128 169.177062 
L 425.209615 140.616901 
L 437.064103 108.811268 
L 448.91859 107.513078 
L 460.773077 93.232998 
L 472.627564 89.338431 
L 484.482051 146.458753 
L 496.336538 128.284105 
L 508.191026 106.863984 
L 520.045513 91.934809 
L 531.9 75.707445 
" clip-path="url(#pcc59e83a10)" style="fill: none; stroke: #73b5e3; stroke-opacity: 0.5; stroke-width: 0.5; stroke-linecap: round"/>
   </g>
   <g id="line2d_44">
    <path d="M 69.575 130.231388 
L 81.429487 97.127565 
L 93.283974 86.092958 
L 105.138462 80.251107 
L 116.992949 82.19839 
L 128.847436 84.794769 
L 140.701923 89.338431 
L 152.55641 101.022133 
L 164.410897 112.05674 
L 176.265385 127.63501 
L 188.119872 138.020523 
L 199.974359 161.387928 
L 211.828846 176.966197 
L 223.683333 201.631791 
L 235.537821 217.859155 
L 247.392308 236.682897 
L 259.246795 256.155734 
L 271.101282 268.488531 
L 282.955769 284.715895 
L 294.810256 280.172233 
L 306.664744 295.750503 
L 318.519231 293.154125 
L 330.373718 284.715895 
L 342.228205 276.277666 
L 354.082692 261.997586 
L 365.937179 244.472032 
L 377.791667 224.350101 
L 389.646154 208.122736 
L 401.500641 180.860765 
L 413.355128 154.247887 
L 425.209615 135.424145 
L 437.064103 122.442254 
L 448.91859 108.811268 
L 460.773077 108.811268 
L 472.627564 94.531187 
L 484.482051 82.847485 
L 496.336538 175.668008 
L 508.191026 164.6334 
L 520.045513 160.738833 
L 531.9 143.21328 
" clip-path="url(#pcc59e83a10)" style="fill: none; stroke: #73b5e3; stroke-opacity: 0.5; stroke-width: 0.5; stroke-linecap: round"/>
   </g>
   <g id="line2d_45">
    <path d="M 69.575 141.915091 
L 81.429487 138.669618 
L 93.283974 128.284105 
L 105.138462 117.249497 
L 116.992949 111.407646 
L 128.847436 130.880483 
L 140.701923 129.582294 
L 152.55641 133.476861 
L 164.410897 144.511469 
L 176.265385 163.984306 
L 188.119872 183.457143 
L 199.974359 201.631791 
L 211.828846 234.086519 
L 223.683333 250.962978 
L 235.537821 274.330382 
L 247.392308 286.663179 
L 259.246795 298.995976 
L 271.101282 303.539638 
L 282.955769 312.626962 
L 294.810256 311.328773 
L 306.664744 313.925151 
L 318.519231 307.434205 
L 330.373718 312.626962 
L 342.228205 305.486922 
L 354.082692 286.014085 
L 365.937179 275.628571 
L 377.791667 256.155734 
L 389.646154 223.701006 
L 401.500641 194.491751 
L 413.355128 171.124346 
L 425.209615 151.651509 
L 437.064103 125.038632 
L 448.91859 107.513078 
L 460.773077 110.109457 
L 472.627564 96.478471 
L 484.482051 83.496579 
L 496.336538 78.303823 
L 508.191026 187.35171 
L 520.045513 184.106237 
L 531.9 162.686117 
" clip-path="url(#pcc59e83a10)" style="fill: none; stroke: #73b5e3; stroke-opacity: 0.5; stroke-width: 0.5; stroke-linecap: round"/>
   </g>
   <g id="line2d_46">
    <path d="M 69.575 134.125956 
L 81.429487 126.985915 
L 93.283974 117.898592 
L 105.138462 120.49497 
L 116.992949 126.985915 
L 128.847436 138.669618 
L 140.701923 142.564185 
L 152.55641 150.35332 
L 164.410897 166.580684 
L 176.265385 185.404427 
L 188.119872 204.228169 
L 199.974359 213.964588 
L 211.828846 243.173843 
L 223.683333 262.64668 
L 235.537821 276.277666 
L 247.392308 289.259557 
L 259.246795 291.206841 
L 271.101282 290.557746 
L 282.955769 294.452314 
L 294.810256 295.101408 
L 306.664744 295.750503 
L 318.519231 283.417706 
L 330.373718 269.78672 
L 342.228205 254.208451 
L 354.082692 241.226559 
L 365.937179 215.911871 
L 377.791667 193.842656 
L 389.646154 171.124346 
L 401.500641 155.546076 
L 413.355128 143.21328 
L 425.209615 131.529577 
L 437.064103 117.249497 
L 448.91859 99.074849 
L 460.773077 94.531187 
L 472.627564 181.509859 
L 484.482051 191.895372 
L 496.336538 200.982696 
L 508.191026 192.544467 
L 520.045513 159.440644 
L 531.9 134.77505 
" clip-path="url(#pcc59e83a10)" style="fill: none; stroke: #73b5e3; stroke-opacity: 0.5; stroke-width: 0.5; stroke-linecap: round"/>
   </g>
   <g id="line2d_47">
    <path d="M 69.575 105.565795 
L 81.429487 94.531187 
L 93.283974 83.496579 
L 105.138462 80.900201 
L 116.992949 78.952918 
L 128.847436 84.794769 
L 140.701923 91.285714 
L 152.55641 91.285714 
L 164.410897 112.05674 
L 176.265385 117.898592 
L 188.119872 112.05674 
L 199.974359 130.231388 
L 211.828846 128.933199 
L 223.683333 138.669618 
L 235.537821 169.177062 
L 247.392308 189.948089 
L 259.246795 211.368209 
L 271.101282 247.717505 
L 282.955769 250.962978 
L 294.810256 265.892153 
L 306.664744 274.979477 
L 318.519231 273.032193 
L 330.373718 273.032193 
L 342.228205 269.78672 
L 354.082692 257.453924 
L 365.937179 248.3666 
L 377.791667 228.893763 
L 389.646154 213.315493 
L 401.500641 193.842656 
L 413.355128 193.193561 
L 425.209615 192.544467 
L 437.064103 193.842656 
L 448.91859 193.193561 
L 460.773077 193.193561 
L 472.627564 191.246278 
L 484.482051 188.649899 
L 496.336538 145.809658 
L 508.191026 134.77505 
L 520.045513 142.564185 
L 531.9 125.038632 
" clip-path="url(#pcc59e83a10)" style="fill: none; stroke: #73b5e3; stroke-opacity: 0.5; stroke-width: 0.5; stroke-linecap: round"/>
   </g>
   <g id="line2d_48">
    <path d="M 69.575 61.427364 
L 81.429487 62.076459 
L 93.283974 58.830986 
L 105.138462 62.076459 
L 116.992949 70.514688 
L 128.847436 89.338431 
L 140.701923 88.040241 
L 152.55641 108.811268 
L 164.410897 102.320322 
L 176.265385 107.513078 
L 188.119872 121.793159 
L 199.974359 140.616901 
L 211.828846 165.93159 
L 223.683333 182.808048 
L 235.537821 218.508249 
L 247.392308 233.437425 
L 259.246795 247.717505 
L 271.101282 255.50664 
L 282.955769 265.892153 
L 294.810256 271.084909 
L 306.664744 274.330382 
L 318.519231 269.137626 
L 330.373718 268.488531 
L 342.228205 260.050302 
L 354.082692 243.822938 
L 365.937179 219.157344 
L 377.791667 199.035412 
L 389.646154 184.755332 
L 401.500641 154.896982 
L 413.355128 152.949698 
L 425.209615 147.107847 
L 437.064103 164.6334 
L 448.91859 174.369819 
L 460.773077 177.615292 
L 472.627564 175.018913 
L 484.482051 180.860765 
L 496.336538 120.49497 
L 508.191026 105.565795 
L 520.045513 77.654728 
L 531.9 59.48008 
" clip-path="url(#pcc59e83a10)" style="fill: none; stroke: #73b5e3; stroke-opacity: 0.5; stroke-width: 0.5; stroke-linecap: round"/>
   </g>
   <g id="line2d_49">
    <path d="M 69.575 70.514688 
L 81.429487 68.567404 
L 93.283974 74.409256 
L 105.138462 81.549296 
L 116.992949 77.654728 
L 128.847436 86.092958 
L 140.701923 92.583903 
L 152.55641 97.127565 
L 164.410897 114.004024 
L 176.265385 123.091348 
L 188.119872 141.265996 
L 199.974359 162.686117 
L 211.828846 180.860765 
L 223.683333 210.07002 
L 235.537821 226.946479 
L 247.392308 250.962978 
L 259.246795 264.593964 
L 271.101282 284.715895 
L 282.955769 283.417706 
L 294.810256 286.663179 
L 306.664744 291.206841 
L 318.519231 285.36499 
L 330.373718 269.78672 
L 342.228205 262.64668 
L 354.082692 241.875654 
L 365.937179 225.64829 
L 377.791667 186.053521 
L 389.646154 162.686117 
L 401.500641 146.458753 
L 413.355128 135.424145 
L 425.209615 123.740443 
L 437.064103 136.073239 
L 448.91859 157.49336 
L 460.773077 160.738833 
L 472.627564 173.720724 
L 484.482051 112.05674 
L 496.336538 97.127565 
L 508.191026 84.794769 
L 520.045513 57.532797 
L 531.9 64.023742 
" clip-path="url(#pcc59e83a10)" style="fill: none; stroke: #73b5e3; stroke-opacity: 0.5; stroke-width: 0.5; stroke-linecap: round"/>
   </g>
   <g id="line2d_50">
    <path d="M 69.575 65.321932 
L 81.429487 61.427364 
L 93.283974 58.830986 
L 105.138462 50.392757 
L 116.992949 60.77827 
L 128.847436 74.409256 
L 140.701923 70.514688 
L 152.55641 73.111066 
L 164.410897 77.005634 
L 176.265385 92.583903 
L 188.119872 102.320322 
L 199.974359 125.038632 
L 211.828846 126.336821 
L 223.683333 149.055131 
L 235.537821 169.826157 
L 247.392308 200.982696 
L 259.246795 225.64829 
L 271.101282 239.92837 
L 282.955769 263.295775 
L 294.810256 263.295775 
L 306.664744 271.084909 
L 318.519231 264.593964 
L 330.373718 261.997586 
L 342.228205 264.593964 
L 354.082692 258.752113 
L 365.937179 254.208451 
L 377.791667 233.437425 
L 389.646154 207.473642 
L 401.500641 184.106237 
L 413.355128 158.142455 
L 425.209615 134.125956 
L 437.064103 130.231388 
L 448.91859 115.302213 
L 460.773077 110.758551 
L 472.627564 108.162173 
L 484.482051 119.196781 
L 496.336538 125.687726 
L 508.191026 137.371429 
L 520.045513 93.232998 
L 531.9 88.689336 
" clip-path="url(#pcc59e83a10)" style="fill: none; stroke: #73b5e3; stroke-opacity: 0.5; stroke-width: 0.5; stroke-linecap: round"/>
   </g>
   <g id="line2d_51">
    <path d="M 69.575 47.796378 
L 81.429487 61.427364 
L 93.283974 60.129175 
L 105.138462 73.760161 
L 116.992949 71.812877 
L 128.847436 78.952918 
L 140.701923 95.180282 
L 152.55641 93.232998 
L 164.410897 96.478471 
L 176.265385 113.35493 
L 188.119872 123.740443 
L 199.974359 154.247887 
L 211.828846 174.369819 
L 223.683333 192.544467 
L 235.537821 219.806439 
L 247.392308 238.630181 
L 259.246795 253.559356 
L 271.101282 265.892153 
L 282.955769 269.137626 
L 294.810256 271.084909 
L 306.664744 274.979477 
L 318.519231 262.64668 
L 330.373718 260.699396 
L 342.228205 240.577465 
L 354.082692 221.753722 
L 365.937179 214.613682 
L 377.791667 188.000805 
L 389.646154 156.195171 
L 401.500641 136.722334 
L 413.355128 119.845875 
L 425.209615 110.109457 
L 437.064103 99.074849 
L 448.91859 83.496579 
L 460.773077 78.303823 
L 472.627564 84.794769 
L 484.482051 117.249497 
L 496.336538 106.863984 
L 508.191026 79.602012 
L 520.045513 59.48008 
L 531.9 59.48008 
" clip-path="url(#pcc59e83a10)" style="fill: none; stroke: #73b5e3; stroke-opacity: 0.5; stroke-width: 0.5; stroke-linecap: round"/>
   </g>
   <g id="line2d_52">
    <path d="M 69.575 59.48008 
L 81.429487 52.989135 
L 93.283974 52.989135 
L 105.138462 62.076459 
L 116.992949 75.05835 
L 128.847436 71.163783 
L 140.701923 82.847485 
L 152.55641 82.847485 
L 164.410897 91.934809 
L 176.265385 100.373038 
L 188.119872 121.144064 
L 199.974359 134.77505 
L 211.828846 160.089738 
L 223.683333 180.860765 
L 235.537821 201.631791 
L 247.392308 220.455533 
L 259.246795 236.033803 
L 271.101282 243.173843 
L 282.955769 246.419316 
L 294.810256 244.472032 
L 306.664744 250.962978 
L 318.519231 250.313883 
L 330.373718 245.770221 
L 342.228205 237.331992 
L 354.082692 208.122736 
L 365.937179 180.860765 
L 377.791667 170.475252 
L 389.646154 145.809658 
L 401.500641 134.125956 
L 413.355128 115.302213 
L 425.209615 105.565795 
L 437.064103 104.9167 
L 448.91859 93.232998 
L 460.773077 84.145674 
L 472.627564 88.040241 
L 484.482051 83.496579 
L 496.336538 90.63662 
L 508.191026 78.952918 
L 520.045513 56.883702 
L 531.9 48.445473 
" clip-path="url(#pcc59e83a10)" style="fill: none; stroke: #73b5e3; stroke-opacity: 0.5; stroke-width: 0.5; stroke-linecap: round"/>
   </g>
   <g id="line2d_53">
    <path d="M 69.575 51.041851 
L 81.429487 51.690946 
L 93.283974 62.725553 
L 105.138462 60.77827 
L 116.992949 67.269215 
L 128.847436 72.461972 
L 140.701923 88.689336 
L 152.55641 91.285714 
L 164.410897 107.513078 
L 176.265385 108.162173 
L 188.119872 119.196781 
L 199.974359 136.073239 
L 211.828846 163.984306 
L 223.683333 181.509859 
L 235.537821 210.07002 
L 247.392308 237.331992 
L 259.246795 252.910262 
L 271.101282 258.103018 
L 282.955769 273.681288 
L 294.810256 272.383099 
L 306.664744 278.22495 
L 318.519231 276.277666 
L 330.373718 272.383099 
L 342.228205 261.348491 
L 354.082692 234.086519 
L 365.937179 202.280885 
L 377.791667 171.773441 
L 389.646154 153.598793 
L 401.500641 121.144064 
L 413.355128 104.267606 
L 425.209615 99.074849 
L 437.064103 88.689336 
L 448.91859 88.689336 
L 460.773077 75.707445 
L 472.627564 65.971026 
L 484.482051 59.48008 
L 496.336538 106.214889 
L 508.191026 86.092958 
L 520.045513 68.567404 
L 531.9 56.883702 
" clip-path="url(#pcc59e83a10)" style="fill: none; stroke: #73b5e3; stroke-opacity: 0.5; stroke-width: 0.5; stroke-linecap: round"/>
   </g>
   <g id="line2d_54">
    <path d="M 69.575 87.391147 
L 81.429487 71.163783 
L 93.283974 54.936419 
L 105.138462 54.936419 
L 116.992949 54.936419 
L 128.847436 45.2 
L 140.701923 56.883702 
L 152.55641 61.427364 
L 164.410897 65.321932 
L 176.265385 76.356539 
L 188.119872 95.180282 
L 199.974359 100.373038 
L 211.828846 126.985915 
L 223.683333 131.529577 
L 235.537821 161.387928 
L 247.392308 199.035412 
L 259.246795 228.893763 
L 271.101282 244.472032 
L 282.955769 252.910262 
L 294.810256 271.084909 
L 306.664744 280.172233 
L 318.519231 277.575855 
L 330.373718 275.628571 
L 342.228205 272.383099 
L 354.082692 258.752113 
L 365.937179 229.542857 
L 377.791667 211.368209 
L 389.646154 183.457143 
L 401.500641 158.791549 
L 413.355128 139.967807 
L 425.209615 114.653119 
L 437.064103 92.583903 
L 448.91859 87.391147 
L 460.773077 83.496579 
L 472.627564 72.461972 
L 484.482051 78.303823 
L 496.336538 159.440644 
L 508.191026 151.002414 
L 520.045513 137.371429 
L 531.9 123.091348 
" clip-path="url(#pcc59e83a10)" style="fill: none; stroke: #73b5e3; stroke-opacity: 0.5; stroke-width: 0.5; stroke-linecap: round"/>
   </g>
   <g id="line2d_55">
    <path d="M 69.575 108.162173 
L 81.429487 86.742052 
L 93.283974 88.689336 
L 105.138462 75.707445 
L 116.992949 76.356539 
L 128.847436 81.549296 
L 140.701923 103.618511 
L 152.55641 102.320322 
L 164.410897 115.951308 
L 176.265385 124.389537 
L 188.119872 132.827767 
L 199.974359 155.546076 
L 211.828846 160.089738 
L 223.683333 186.702616 
L 235.537821 200.982696 
L 247.392308 228.244668 
L 259.246795 249.664789 
L 271.101282 265.243058 
L 282.955769 283.417706 
L 294.810256 284.715895 
L 306.664744 291.855936 
L 318.519231 290.557746 
L 330.373718 290.557746 
L 342.228205 290.557746 
L 354.082692 283.417706 
L 365.937179 273.032193 
L 377.791667 252.261167 
L 389.646154 233.437425 
L 401.500641 205.526358 
L 413.355128 172.422535 
L 425.209615 149.055131 
L 437.064103 131.529577 
L 448.91859 129.582294 
L 460.773077 107.513078 
L 472.627564 99.723944 
L 484.482051 95.829376 
L 496.336538 86.742052 
L 508.191026 77.654728 
L 520.045513 156.195171 
L 531.9 133.476861 
" clip-path="url(#pcc59e83a10)" style="fill: none; stroke: #73b5e3; stroke-opacity: 0.5; stroke-width: 0.5; stroke-linecap: round"/>
   </g>
   <g id="line2d_56">
    <path d="M 69.575 150.35332 
L 81.429487 131.529577 
L 93.283974 121.144064 
L 105.138462 108.162173 
L 116.992949 97.127565 
L 128.847436 100.373038 
L 140.701923 100.373038 
L 152.55641 112.05674 
L 164.410897 110.109457 
L 176.265385 115.951308 
L 188.119872 126.336821 
L 199.974359 141.915091 
L 211.828846 165.282495 
L 223.683333 193.193561 
L 235.537821 215.911871 
L 247.392308 230.191952 
L 259.246795 267.190342 
L 271.101282 287.961368 
L 282.955769 300.294165 
L 294.810256 304.837827 
L 306.664744 307.434205 
L 318.519231 304.837827 
L 330.373718 305.486922 
L 342.228205 304.837827 
L 354.082692 291.206841 
L 365.937179 274.330382 
L 377.791667 261.348491 
L 389.646154 235.384708 
L 401.500641 202.280885 
L 413.355128 183.457143 
L 425.209615 146.458753 
L 437.064103 136.722334 
L 448.91859 129.582294 
L 460.773077 119.196781 
L 472.627564 116.600402 
L 484.482051 102.320322 
L 496.336538 89.987525 
L 508.191026 80.900201 
L 520.045513 173.720724 
L 531.9 175.668008 
" clip-path="url(#pcc59e83a10)" style="fill: none; stroke: #73b5e3; stroke-opacity: 0.5; stroke-width: 0.5; stroke-linecap: round"/>
   </g>
   <g id="line2d_57">
    <path d="M 69.575 182.808048 
L 81.429487 159.440644 
L 93.283974 149.704225 
L 105.138462 138.669618 
L 116.992949 125.687726 
L 128.847436 128.284105 
L 140.701923 126.336821 
L 152.55641 130.880483 
L 164.410897 147.107847 
L 176.265385 163.335211 
L 188.119872 168.527968 
L 199.974359 185.404427 
L 211.828846 202.280885 
L 223.683333 212.017304 
L 235.537821 247.06841 
L 247.392308 258.752113 
L 259.246795 286.014085 
L 271.101282 284.066801 
L 282.955769 297.048692 
L 294.810256 303.539638 
L 306.664744 309.381489 
L 318.519231 302.890543 
L 330.373718 298.346881 
L 342.228205 291.855936 
L 354.082692 289.908652 
L 365.937179 271.734004 
L 377.791667 249.664789 
L 389.646154 236.033803 
L 401.500641 206.175453 
L 413.355128 186.053521 
L 425.209615 173.07163 
L 437.064103 146.458753 
L 448.91859 134.77505 
L 460.773077 132.827767 
L 472.627564 112.05674 
L 484.482051 94.531187 
L 496.336538 86.742052 
L 508.191026 189.948089 
L 520.045513 180.21167 
L 531.9 180.21167 
" clip-path="url(#pcc59e83a10)" style="fill: none; stroke: #73b5e3; stroke-opacity: 0.5; stroke-width: 0.5; stroke-linecap: round"/>
   </g>
   <g id="line2d_58">
    <path d="M 69.575 93.852588 
L 81.429487 85.945436 
L 93.283974 81.549296 
L 105.138462 81.37227 
L 116.992949 84.381708 
L 128.847436 89.721986 
L 140.701923 97.216078 
L 152.55641 103.648015 
L 164.410897 114.918657 
L 176.265385 127.103933 
L 188.119872 142.652698 
L 199.974359 160.679824 
L 211.828846 181.952424 
L 223.683333 203.667587 
L 235.537821 226.592427 
L 247.392308 246.24229 
L 259.246795 264.269416 
L 271.101282 274.743442 
L 282.955769 283.181672 
L 294.810256 286.663179 
L 306.664744 292.062466 
L 318.519231 287.636821 
L 330.373718 284.125809 
L 342.228205 276.484196 
L 354.082692 262.174611 
L 365.937179 244.855588 
L 377.791667 224.173075 
L 389.646154 201.454765 
L 401.500641 177.113719 
L 413.355128 159.499652 
L 425.209615 143.036254 
L 437.064103 133.063801 
L 448.91859 127.694019 
L 460.773077 123.327382 
L 472.627564 126.336821 
L 484.482051 127.753027 
L 496.336538 123.327382 
L 508.191026 122.383245 
L 520.045513 116.452881 
L 531.9 104.887196 
" clip-path="url(#pcc59e83a10)" style="fill: none; stroke: #73b5e3; stroke-width: 2.5; stroke-linecap: round"/>
   </g>
   <g id="line2d_59">
    <path d="M 69.575 136.073239 
L 81.429487 125.038632 
L 93.283974 112.05674 
L 105.138462 109.460362 
L 116.992949 112.705835 
L 128.847436 115.302213 
L 140.701923 120.49497 
L 152.55641 129.582294 
L 164.410897 143.862374 
L 176.265385 149.704225 
L 188.119872 162.037022 
L 199.974359 195.78994 
L 211.828846 232.139235 
L 223.683333 260.699396 
L 235.537821 282.768612 
L 247.392308 304.188732 
L 259.246795 323.012475 
L 271.101282 339.239839 
L 282.955769 347.678068 
L 294.810256 353.51992 
L 306.664744 358.063581 
L 318.519231 356.116298 
L 330.373718 354.818109 
L 342.228205 357.414487 
L 354.082692 356.116298 
L 365.937179 352.22173 
L 377.791667 343.783501 
L 389.646154 328.205231 
L 401.500641 310.030584 
L 413.355128 289.908652 
L 425.209615 261.997586 
L 437.064103 230.191952 
L 448.91859 202.280885 
L 460.773077 197.088129 
L 472.627564 193.842656 
L 484.482051 182.808048 
L 496.336538 186.702616 
L 508.191026 193.842656 
L 520.045513 197.737223 
L 531.9 151.002414 
" clip-path="url(#pcc59e83a10)" style="fill: none; stroke: #ffb984; stroke-opacity: 0.5; stroke-width: 0.5; stroke-linecap: round"/>
   </g>
   <g id="line2d_60">
    <path d="M 69.575 90.63662 
L 81.429487 84.794769 
L 93.283974 83.496579 
L 105.138462 93.232998 
L 116.992949 102.969416 
L 128.847436 107.513078 
L 140.701923 110.758551 
L 152.55641 122.442254 
L 164.410897 149.704225 
L 176.265385 178.264386 
L 188.119872 208.771831 
L 199.974359 245.770221 
L 211.828846 275.628571 
L 223.683333 299.64507 
L 235.537821 326.257948 
L 247.392308 337.292555 
L 259.246795 342.485312 
L 271.101282 352.22173 
L 282.955769 360.65996 
L 294.810256 361.309054 
L 306.664744 363.905433 
L 318.519231 362.607243 
L 330.373718 356.116298 
L 342.228205 354.818109 
L 354.082692 353.51992 
L 365.937179 345.08169 
L 377.791667 330.152515 
L 389.646154 306.785111 
L 401.500641 273.032193 
L 413.355128 236.033803 
L 425.209615 213.964588 
L 437.064103 202.92998 
L 448.91859 188.000805 
L 460.773077 186.053521 
L 472.627564 186.702616 
L 484.482051 141.915091 
L 496.336538 140.616901 
L 508.191026 131.529577 
L 520.045513 107.513078 
L 531.9 93.232998 
" clip-path="url(#pcc59e83a10)" style="fill: none; stroke: #ffb984; stroke-opacity: 0.5; stroke-width: 0.5; stroke-linecap: round"/>
   </g>
   <g id="line2d_61">
    <path d="M 69.575 111.407646 
L 81.429487 114.653119 
L 93.283974 105.565795 
L 105.138462 97.127565 
L 116.992949 106.214889 
L 128.847436 113.35493 
L 140.701923 119.196781 
L 152.55641 125.038632 
L 164.410897 138.669618 
L 176.265385 160.738833 
L 188.119872 192.544467 
L 199.974359 233.437425 
L 211.828846 267.190342 
L 223.683333 289.908652 
L 235.537821 313.925151 
L 247.392308 328.854326 
L 259.246795 333.397988 
L 271.101282 341.836217 
L 282.955769 345.730785 
L 294.810256 342.485312 
L 306.664744 347.678068 
L 318.519231 347.028974 
L 330.373718 343.134406 
L 342.228205 337.94165 
L 354.082692 327.556137 
L 365.937179 304.188732 
L 377.791667 287.312274 
L 389.646154 268.488531 
L 401.500641 233.437425 
L 413.355128 204.228169 
L 425.209615 170.475252 
L 437.064103 142.564185 
L 448.91859 126.336821 
L 460.773077 121.144064 
L 472.627564 124.389537 
L 484.482051 134.77505 
L 496.336538 145.160563 
L 508.191026 148.406036 
L 520.045513 156.844266 
L 531.9 128.933199 
" clip-path="url(#pcc59e83a10)" style="fill: none; stroke: #ffb984; stroke-opacity: 0.5; stroke-width: 0.5; stroke-linecap: round"/>
   </g>
   <g id="line2d_62">
    <path d="M 69.575 90.63662 
L 81.429487 91.285714 
L 93.283974 98.425755 
L 105.138462 105.565795 
L 116.992949 109.460362 
L 128.847436 123.091348 
L 140.701923 131.529577 
L 152.55641 147.756942 
L 164.410897 174.369819 
L 176.265385 195.78994 
L 188.119872 224.999195 
L 199.974359 253.559356 
L 211.828846 275.628571 
L 223.683333 295.101408 
L 235.537821 310.679678 
L 247.392308 323.661569 
L 259.246795 328.854326 
L 271.101282 332.748893 
L 282.955769 339.888934 
L 294.810256 340.538028 
L 306.664744 342.485312 
L 318.519231 339.239839 
L 330.373718 334.047082 
L 342.228205 330.80161 
L 354.082692 323.012475 
L 365.937179 309.381489 
L 377.791667 286.014085 
L 389.646154 267.190342 
L 401.500641 243.822938 
L 413.355128 209.420926 
L 425.209615 182.808048 
L 437.064103 156.195171 
L 448.91859 143.862374 
L 460.773077 136.073239 
L 472.627564 128.933199 
L 484.482051 140.616901 
L 496.336538 151.651509 
L 508.191026 116.600402 
L 520.045513 104.9167 
L 531.9 97.77666 
" clip-path="url(#pcc59e83a10)" style="fill: none; stroke: #ffb984; stroke-opacity: 0.5; stroke-width: 0.5; stroke-linecap: round"/>
   </g>
   <g id="line2d_63">
    <path d="M 69.575 120.49497 
L 81.429487 138.669618 
L 93.283974 132.178672 
L 105.138462 118.547686 
L 116.992949 110.109457 
L 128.847436 104.9167 
L 140.701923 113.35493 
L 152.55641 123.091348 
L 164.410897 117.898592 
L 176.265385 117.249497 
L 188.119872 131.529577 
L 199.974359 154.247887 
L 211.828846 177.615292 
L 223.683333 212.666398 
L 235.537821 245.770221 
L 247.392308 278.22495 
L 259.246795 304.837827 
L 271.101282 323.661569 
L 282.955769 335.994366 
L 294.810256 350.274447 
L 306.664744 355.467203 
L 318.519231 353.51992 
L 330.373718 350.923541 
L 342.228205 349.625352 
L 354.082692 345.08169 
L 365.937179 339.888934 
L 377.791667 328.205231 
L 389.646154 312.626962 
L 401.500641 291.855936 
L 413.355128 265.892153 
L 425.209615 245.770221 
L 437.064103 221.104628 
L 448.91859 184.106237 
L 460.773077 158.142455 
L 472.627564 138.669618 
L 484.482051 120.49497 
L 496.336538 113.35493 
L 508.191026 105.565795 
L 520.045513 102.969416 
L 531.9 106.863984 
" clip-path="url(#pcc59e83a10)" style="fill: none; stroke: #ffb984; stroke-opacity: 0.5; stroke-width: 0.5; stroke-linecap: round"/>
   </g>
   <g id="line2d_64">
    <path d="M 69.575 86.092958 
L 81.429487 90.63662 
L 93.283974 91.285714 
L 105.138462 95.829376 
L 116.992949 101.022133 
L 128.847436 104.267606 
L 140.701923 116.600402 
L 152.55641 141.915091 
L 164.410897 175.018913 
L 176.265385 207.473642 
L 188.119872 244.472032 
L 199.974359 278.874044 
L 211.828846 302.241449 
L 223.683333 324.310664 
L 235.537821 339.888934 
L 247.392308 347.678068 
L 259.246795 351.572636 
L 271.101282 354.169014 
L 282.955769 356.116298 
L 294.810256 356.116298 
L 306.664744 356.765392 
L 318.519231 352.870825 
L 330.373718 343.783501 
L 342.228205 337.292555 
L 354.082692 332.748893 
L 365.937179 317.819718 
L 377.791667 292.50503 
L 389.646154 260.050302 
L 401.500641 223.701006 
L 413.355128 186.053521 
L 425.209615 152.949698 
L 437.064103 131.529577 
L 448.91859 114.004024 
L 460.773077 108.811268 
L 472.627564 104.267606 
L 484.482051 107.513078 
L 496.336538 105.565795 
L 508.191026 125.687726 
L 520.045513 114.004024 
L 531.9 96.478471 
" clip-path="url(#pcc59e83a10)" style="fill: none; stroke: #ffb984; stroke-opacity: 0.5; stroke-width: 0.5; stroke-linecap: round"/>
   </g>
   <g id="line2d_65">
    <path d="M 69.575 85.443863 
L 81.429487 88.040241 
L 93.283974 91.934809 
L 105.138462 95.180282 
L 116.992949 97.77666 
L 128.847436 101.671227 
L 140.701923 112.05674 
L 152.55641 121.144064 
L 164.410897 137.371429 
L 176.265385 163.984306 
L 188.119872 197.737223 
L 199.974359 230.191952 
L 211.828846 258.103018 
L 223.683333 287.961368 
L 235.537821 307.434205 
L 247.392308 319.117907 
L 259.246795 333.397988 
L 271.101282 341.187123 
L 282.955769 340.538028 
L 294.810256 341.187123 
L 306.664744 345.08169 
L 318.519231 345.08169 
L 330.373718 339.888934 
L 342.228205 334.047082 
L 354.082692 324.959759 
L 365.937179 301.592354 
L 377.791667 267.190342 
L 389.646154 237.331992 
L 401.500641 195.78994 
L 413.355128 156.195171 
L 425.209615 136.722334 
L 437.064103 123.740443 
L 448.91859 109.460362 
L 460.773077 102.320322 
L 472.627564 97.77666 
L 484.482051 93.232998 
L 496.336538 126.985915 
L 508.191026 106.863984 
L 520.045513 90.63662 
L 531.9 88.689336 
" clip-path="url(#pcc59e83a10)" style="fill: none; stroke: #ffb984; stroke-opacity: 0.5; stroke-width: 0.5; stroke-linecap: round"/>
   </g>
   <g id="line2d_66">
    <path d="M 69.575 110.109457 
L 81.429487 106.863984 
L 93.283974 95.180282 
L 105.138462 90.63662 
L 116.992949 100.373038 
L 128.847436 115.951308 
L 140.701923 118.547686 
L 152.55641 126.985915 
L 164.410897 153.598793 
L 176.265385 177.615292 
L 188.119872 206.175453 
L 199.974359 240.577465 
L 211.828846 273.032193 
L 223.683333 302.890543 
L 235.537821 321.714286 
L 247.392308 336.643461 
L 259.246795 343.783501 
L 271.101282 343.783501 
L 282.955769 347.028974 
L 294.810256 349.625352 
L 306.664744 350.274447 
L 318.519231 345.08169 
L 330.373718 339.888934 
L 342.228205 335.345272 
L 354.082692 321.065191 
L 365.937179 298.346881 
L 377.791667 270.435815 
L 389.646154 232.139235 
L 401.500641 195.140845 
L 413.355128 164.6334 
L 425.209615 137.371429 
L 437.064103 122.442254 
L 448.91859 109.460362 
L 460.773077 100.373038 
L 472.627564 97.127565 
L 484.482051 92.583903 
L 496.336538 86.742052 
L 508.191026 139.318712 
L 520.045513 122.442254 
L 531.9 108.811268 
" clip-path="url(#pcc59e83a10)" style="fill: none; stroke: #ffb984; stroke-opacity: 0.5; stroke-width: 0.5; stroke-linecap: round"/>
   </g>
   <g id="line2d_67">
    <path d="M 69.575 100.373038 
L 81.429487 93.882093 
L 93.283974 95.829376 
L 105.138462 101.022133 
L 116.992949 112.05674 
L 128.847436 117.898592 
L 140.701923 124.389537 
L 152.55641 132.178672 
L 164.410897 153.598793 
L 176.265385 186.702616 
L 188.119872 214.613682 
L 199.974359 241.875654 
L 211.828846 269.137626 
L 223.683333 294.452314 
L 235.537821 313.925151 
L 247.392308 323.661569 
L 259.246795 328.854326 
L 271.101282 334.047082 
L 282.955769 338.590744 
L 294.810256 341.187123 
L 306.664744 341.836217 
L 318.519231 335.345272 
L 330.373718 323.012475 
L 342.228205 307.434205 
L 354.082692 286.014085 
L 365.937179 260.050302 
L 377.791667 228.244668 
L 389.646154 193.193561 
L 401.500641 163.984306 
L 413.355128 141.915091 
L 425.209615 128.284105 
L 437.064103 115.951308 
L 448.91859 103.618511 
L 460.773077 96.478471 
L 472.627564 93.882093 
L 484.482051 84.794769 
L 496.336538 164.6334 
L 508.191026 149.055131 
L 520.045513 130.880483 
L 531.9 112.705835 
" clip-path="url(#pcc59e83a10)" style="fill: none; stroke: #ffb984; stroke-opacity: 0.5; stroke-width: 0.5; stroke-linecap: round"/>
   </g>
   <g id="line2d_68">
    <path d="M 69.575 157.49336 
L 81.429487 147.107847 
L 93.283974 134.125956 
L 105.138462 123.091348 
L 116.992949 121.793159 
L 128.847436 121.793159 
L 140.701923 117.898592 
L 152.55641 122.442254 
L 164.410897 138.020523 
L 176.265385 152.300604 
L 188.119872 173.720724 
L 199.974359 205.526358 
L 211.828846 234.735614 
L 223.683333 271.084909 
L 235.537821 298.346881 
L 247.392308 315.22334 
L 259.246795 332.748893 
L 271.101282 342.485312 
L 282.955769 345.08169 
L 294.810256 348.327163 
L 306.664744 350.274447 
L 318.519231 348.976258 
L 330.373718 346.379879 
L 342.228205 347.678068 
L 354.082692 339.888934 
L 365.937179 326.907042 
L 377.791667 311.977867 
L 389.646154 289.908652 
L 401.500641 263.295775 
L 413.355128 230.841046 
L 425.209615 195.140845 
L 437.064103 164.6334 
L 448.91859 141.265996 
L 460.773077 126.336821 
L 472.627564 117.898592 
L 484.482051 116.600402 
L 496.336538 114.653119 
L 508.191026 106.863984 
L 520.045513 173.720724 
L 531.9 168.527968 
" clip-path="url(#pcc59e83a10)" style="fill: none; stroke: #ffb984; stroke-opacity: 0.5; stroke-width: 0.5; stroke-linecap: round"/>
   </g>
   <g id="line2d_69">
    <path d="M 69.575 156.195171 
L 81.429487 147.756942 
L 93.283974 141.915091 
L 105.138462 139.967807 
L 116.992949 151.002414 
L 128.847436 159.440644 
L 140.701923 164.6334 
L 152.55641 188.000805 
L 164.410897 216.560966 
L 176.265385 245.770221 
L 188.119872 281.470423 
L 199.974359 301.592354 
L 211.828846 314.574245 
L 223.683333 331.450704 
L 235.537821 343.783501 
L 247.392308 344.432596 
L 259.246795 345.08169 
L 271.101282 346.379879 
L 282.955769 343.783501 
L 294.810256 344.432596 
L 306.664744 347.028974 
L 318.519231 343.783501 
L 330.373718 332.099799 
L 342.228205 318.468813 
L 354.082692 301.592354 
L 365.937179 277.575855 
L 377.791667 250.313883 
L 389.646154 217.859155 
L 401.500641 180.860765 
L 413.355128 152.300604 
L 425.209615 137.371429 
L 437.064103 125.687726 
L 448.91859 117.249497 
L 460.773077 116.600402 
L 472.627564 110.758551 
L 484.482051 178.264386 
L 496.336538 173.07163 
L 508.191026 176.317103 
L 520.045513 175.668008 
L 531.9 168.527968 
" clip-path="url(#pcc59e83a10)" style="fill: none; stroke: #ffb984; stroke-opacity: 0.5; stroke-width: 0.5; stroke-linecap: round"/>
   </g>
   <g id="line2d_70">
    <path d="M 69.575 101.022133 
L 81.429487 100.373038 
L 93.283974 95.829376 
L 105.138462 102.320322 
L 116.992949 103.618511 
L 128.847436 101.022133 
L 140.701923 110.758551 
L 152.55641 114.653119 
L 164.410897 127.63501 
L 176.265385 147.107847 
L 188.119872 186.702616 
L 199.974359 216.560966 
L 211.828846 243.173843 
L 223.683333 282.119517 
L 235.537821 306.136016 
L 247.392308 321.065191 
L 259.246795 335.345272 
L 271.101282 348.976258 
L 282.955769 350.923541 
L 294.810256 354.169014 
L 306.664744 356.765392 
L 318.519231 350.274447 
L 330.373718 353.51992 
L 342.228205 354.169014 
L 354.082692 356.765392 
L 365.937179 348.327163 
L 377.791667 341.187123 
L 389.646154 319.117907 
L 401.500641 298.995976 
L 413.355128 268.488531 
L 425.209615 226.946479 
L 437.064103 195.140845 
L 448.91859 182.158954 
L 460.773077 177.615292 
L 472.627564 175.668008 
L 484.482051 172.422535 
L 496.336538 178.913481 
L 508.191026 126.985915 
L 520.045513 114.653119 
L 531.9 101.022133 
" clip-path="url(#pcc59e83a10)" style="fill: none; stroke: #ffb984; stroke-opacity: 0.5; stroke-width: 0.5; stroke-linecap: round"/>
   </g>
   <g id="line2d_71">
    <path d="M 69.575 95.180282 
L 81.429487 93.882093 
L 93.283974 95.180282 
L 105.138462 88.040241 
L 116.992949 95.180282 
L 128.847436 93.882093 
L 140.701923 100.373038 
L 152.55641 111.407646 
L 164.410897 133.476861 
L 176.265385 151.651509 
L 188.119872 186.702616 
L 199.974359 224.350101 
L 211.828846 250.313883 
L 223.683333 282.119517 
L 235.537821 308.732394 
L 247.392308 323.661569 
L 259.246795 330.152515 
L 271.101282 344.432596 
L 282.955769 349.625352 
L 294.810256 358.712676 
L 306.664744 361.309054 
L 318.519231 355.467203 
L 330.373718 359.361771 
L 342.228205 355.467203 
L 354.082692 350.274447 
L 365.937179 347.028974 
L 377.791667 336.643461 
L 389.646154 326.907042 
L 401.500641 302.890543 
L 413.355128 277.575855 
L 425.209615 242.524748 
L 437.064103 214.613682 
L 448.91859 187.35171 
L 460.773077 176.966197 
L 472.627564 178.264386 
L 484.482051 174.369819 
L 496.336538 165.282495 
L 508.191026 125.687726 
L 520.045513 114.004024 
L 531.9 95.180282 
" clip-path="url(#pcc59e83a10)" style="fill: none; stroke: #ffb984; stroke-opacity: 0.5; stroke-width: 0.5; stroke-linecap: round"/>
   </g>
   <g id="line2d_72">
    <path d="M 69.575 105.565795 
L 81.429487 82.19839 
L 93.283974 84.794769 
L 105.138462 89.987525 
L 116.992949 93.232998 
L 128.847436 103.618511 
L 140.701923 110.109457 
L 152.55641 123.740443 
L 164.410897 147.107847 
L 176.265385 175.668008 
L 188.119872 215.911871 
L 199.974359 256.804829 
L 211.828846 284.715895 
L 223.683333 313.276056 
L 235.537821 323.661569 
L 247.392308 337.292555 
L 259.246795 347.028974 
L 271.101282 353.51992 
L 282.955769 352.22173 
L 294.810256 354.818109 
L 306.664744 356.765392 
L 318.519231 353.51992 
L 330.373718 347.028974 
L 342.228205 343.783501 
L 354.082692 333.397988 
L 365.937179 317.819718 
L 377.791667 297.048692 
L 389.646154 270.435815 
L 401.500641 237.981087 
L 413.355128 207.473642 
L 425.209615 170.475252 
L 437.064103 140.616901 
L 448.91859 123.740443 
L 460.773077 107.513078 
L 472.627564 114.004024 
L 484.482051 130.231388 
L 496.336538 133.476861 
L 508.191026 141.915091 
L 520.045513 149.704225 
L 531.9 115.302213 
" clip-path="url(#pcc59e83a10)" style="fill: none; stroke: #ffb984; stroke-opacity: 0.5; stroke-width: 0.5; stroke-linecap: round"/>
   </g>
   <g id="line2d_73">
    <path d="M 69.575 112.05674 
L 81.429487 98.425755 
L 93.283974 105.565795 
L 105.138462 95.180282 
L 116.992949 103.618511 
L 128.847436 95.829376 
L 140.701923 112.05674 
L 152.55641 134.125956 
L 164.410897 163.335211 
L 176.265385 198.386318 
L 188.119872 240.577465 
L 199.974359 261.348491 
L 211.828846 290.557746 
L 223.683333 313.276056 
L 235.537821 328.205231 
L 247.392308 342.485312 
L 259.246795 354.169014 
L 271.101282 350.274447 
L 282.955769 355.467203 
L 294.810256 361.309054 
L 306.664744 365.203622 
L 318.519231 358.063581 
L 330.373718 360.010865 
L 342.228205 351.572636 
L 354.082692 353.51992 
L 365.937179 344.432596 
L 377.791667 334.696177 
L 389.646154 317.819718 
L 401.500641 299.64507 
L 413.355128 256.155734 
L 425.209615 223.701006 
L 437.064103 199.684507 
L 448.91859 167.878873 
L 460.773077 138.020523 
L 472.627564 144.511469 
L 484.482051 145.160563 
L 496.336538 152.949698 
L 508.191026 126.985915 
L 520.045513 129.582294 
L 531.9 120.49497 
" clip-path="url(#pcc59e83a10)" style="fill: none; stroke: #ffb984; stroke-opacity: 0.5; stroke-width: 0.5; stroke-linecap: round"/>
   </g>
   <g id="line2d_74">
    <path d="M 69.575 125.038632 
L 81.429487 112.05674 
L 93.283974 107.513078 
L 105.138462 110.109457 
L 116.992949 110.758551 
L 128.847436 123.091348 
L 140.701923 147.107847 
L 152.55641 153.598793 
L 164.410897 175.018913 
L 176.265385 220.455533 
L 188.119872 243.822938 
L 199.974359 276.926761 
L 211.828846 295.101408 
L 223.683333 312.626962 
L 235.537821 330.152515 
L 247.392308 342.485312 
L 259.246795 346.379879 
L 271.101282 350.274447 
L 282.955769 358.063581 
L 294.810256 350.923541 
L 306.664744 363.905433 
L 318.519231 356.116298 
L 330.373718 352.870825 
L 342.228205 352.22173 
L 354.082692 350.274447 
L 365.937179 337.94165 
L 377.791667 325.608853 
L 389.646154 319.767002 
L 401.500641 297.048692 
L 413.355128 288.610463 
L 425.209615 259.401207 
L 437.064103 217.859155 
L 448.91859 185.404427 
L 460.773077 151.002414 
L 472.627564 125.687726 
L 484.482051 112.705835 
L 496.336538 117.249497 
L 508.191026 135.424145 
L 520.045513 141.265996 
L 531.9 124.389537 
" clip-path="url(#pcc59e83a10)" style="fill: none; stroke: #ffb984; stroke-opacity: 0.5; stroke-width: 0.5; stroke-linecap: round"/>
   </g>
   <g id="line2d_75">
    <path d="M 69.575 112.05674 
L 81.429487 107.513078 
L 93.283974 97.127565 
L 105.138462 91.934809 
L 116.992949 91.285714 
L 128.847436 98.425755 
L 140.701923 94.531187 
L 152.55641 97.77666 
L 164.410897 102.320322 
L 176.265385 125.687726 
L 188.119872 151.651509 
L 199.974359 189.298994 
L 211.828846 228.244668 
L 223.683333 267.839437 
L 235.537821 288.610463 
L 247.392308 313.925151 
L 259.246795 328.205231 
L 271.101282 339.888934 
L 282.955769 353.51992 
L 294.810256 355.467203 
L 306.664744 360.65996 
L 318.519231 360.65996 
L 330.373718 360.65996 
L 342.228205 352.870825 
L 354.082692 354.818109 
L 365.937179 354.818109 
L 377.791667 355.467203 
L 389.646154 348.327163 
L 401.500641 332.099799 
L 413.355128 317.170624 
L 425.209615 291.855936 
L 437.064103 253.559356 
L 448.91859 224.350101 
L 460.773077 186.053521 
L 472.627564 157.49336 
L 484.482051 126.336821 
L 496.336538 125.038632 
L 508.191026 120.49497 
L 520.045513 108.811268 
L 531.9 126.985915 
" clip-path="url(#pcc59e83a10)" style="fill: none; stroke: #ffb984; stroke-opacity: 0.5; stroke-width: 0.5; stroke-linecap: round"/>
   </g>
   <g id="line2d_76">
    <path d="M 69.575 97.77666 
L 81.429487 99.074849 
L 93.283974 86.742052 
L 105.138462 82.19839 
L 116.992949 82.847485 
L 128.847436 93.882093 
L 140.701923 104.267606 
L 152.55641 110.758551 
L 164.410897 126.985915 
L 176.265385 149.055131 
L 188.119872 187.35171 
L 199.974359 226.297384 
L 211.828846 263.944869 
L 223.683333 291.206841 
L 235.537821 314.574245 
L 247.392308 330.80161 
L 259.246795 351.572636 
L 271.101282 351.572636 
L 282.955769 356.765392 
L 294.810256 356.116298 
L 306.664744 363.256338 
L 318.519231 362.607243 
L 330.373718 356.116298 
L 342.228205 352.870825 
L 354.082692 349.625352 
L 365.937179 339.888934 
L 377.791667 324.959759 
L 389.646154 310.030584 
L 401.500641 286.663179 
L 413.355128 246.419316 
L 425.209615 210.07002 
L 437.064103 173.07163 
L 448.91859 141.265996 
L 460.773077 125.038632 
L 472.627564 101.022133 
L 484.482051 93.882093 
L 496.336538 83.496579 
L 508.191026 84.145674 
L 520.045513 82.19839 
L 531.9 118.547686 
" clip-path="url(#pcc59e83a10)" style="fill: none; stroke: #ffb984; stroke-opacity: 0.5; stroke-width: 0.5; stroke-linecap: round"/>
   </g>
   <g id="line2d_77">
    <path d="M 69.575 106.214889 
L 81.429487 96.478471 
L 93.283974 95.829376 
L 105.138462 89.338431 
L 116.992949 86.742052 
L 128.847436 100.373038 
L 140.701923 90.63662 
L 152.55641 115.951308 
L 164.410897 123.091348 
L 176.265385 156.844266 
L 188.119872 180.21167 
L 199.974359 225.64829 
L 211.828846 258.752113 
L 223.683333 286.663179 
L 235.537821 306.785111 
L 247.392308 330.152515 
L 259.246795 334.696177 
L 271.101282 341.187123 
L 282.955769 356.116298 
L 294.810256 354.169014 
L 306.664744 357.414487 
L 318.519231 354.818109 
L 330.373718 353.51992 
L 342.228205 356.116298 
L 354.082692 350.274447 
L 365.937179 342.485312 
L 377.791667 331.450704 
L 389.646154 315.872435 
L 401.500641 295.101408 
L 413.355128 266.541247 
L 425.209615 226.297384 
L 437.064103 193.193561 
L 448.91859 167.229779 
L 460.773077 136.073239 
L 472.627564 106.214889 
L 484.482051 97.77666 
L 496.336538 86.092958 
L 508.191026 96.478471 
L 520.045513 122.442254 
L 531.9 108.811268 
" clip-path="url(#pcc59e83a10)" style="fill: none; stroke: #ffb984; stroke-opacity: 0.5; stroke-width: 0.5; stroke-linecap: round"/>
   </g>
   <g id="line2d_78">
    <path d="M 69.575 104.9167 
L 81.429487 95.180282 
L 93.283974 84.794769 
L 105.138462 93.232998 
L 116.992949 89.338431 
L 128.847436 91.285714 
L 140.701923 106.214889 
L 152.55641 124.389537 
L 164.410897 135.424145 
L 176.265385 175.668008 
L 188.119872 217.21006 
L 199.974359 247.717505 
L 211.828846 279.523139 
L 223.683333 309.381489 
L 235.537821 329.503421 
L 247.392308 334.047082 
L 259.246795 339.239839 
L 271.101282 348.327163 
L 282.955769 354.818109 
L 294.810256 356.765392 
L 306.664744 357.414487 
L 318.519231 355.467203 
L 330.373718 351.572636 
L 342.228205 345.08169 
L 354.082692 334.696177 
L 365.937179 317.170624 
L 377.791667 304.188732 
L 389.646154 269.78672 
L 401.500641 239.279276 
L 413.355128 197.088129 
L 425.209615 159.440644 
L 437.064103 137.371429 
L 448.91859 114.653119 
L 460.773077 103.618511 
L 472.627564 93.882093 
L 484.482051 89.338431 
L 496.336538 90.63662 
L 508.191026 145.160563 
L 520.045513 139.967807 
L 531.9 117.249497 
" clip-path="url(#pcc59e83a10)" style="fill: none; stroke: #ffb984; stroke-opacity: 0.5; stroke-width: 0.5; stroke-linecap: round"/>
   </g>
   <g id="line2d_79">
    <path d="M 69.575 130.231388 
L 81.429487 125.687726 
L 93.283974 117.249497 
L 105.138462 109.460362 
L 116.992949 110.758551 
L 128.847436 128.284105 
L 140.701923 129.582294 
L 152.55641 131.529577 
L 164.410897 172.422535 
L 176.265385 209.420926 
L 188.119872 231.490141 
L 199.974359 272.383099 
L 211.828846 299.64507 
L 223.683333 320.416097 
L 235.537821 332.099799 
L 247.392308 347.678068 
L 259.246795 350.274447 
L 271.101282 360.010865 
L 282.955769 362.607243 
L 294.810256 360.65996 
L 306.664744 364.554527 
L 318.519231 358.063581 
L 330.373718 358.063581 
L 342.228205 354.818109 
L 354.082692 348.327163 
L 365.937179 340.538028 
L 377.791667 328.205231 
L 389.646154 313.276056 
L 401.500641 280.821328 
L 413.355128 238.630181 
L 425.209615 206.824547 
L 437.064103 174.369819 
L 448.91859 150.35332 
L 460.773077 130.231388 
L 472.627564 117.249497 
L 484.482051 108.162173 
L 496.336538 94.531187 
L 508.191026 152.300604 
L 520.045513 147.756942 
L 531.9 140.616901 
" clip-path="url(#pcc59e83a10)" style="fill: none; stroke: #ffb984; stroke-opacity: 0.5; stroke-width: 0.5; stroke-linecap: round"/>
   </g>
   <g id="line2d_80">
    <path d="M 69.575 171.124346 
L 81.429487 172.422535 
L 93.283974 169.826157 
L 105.138462 154.247887 
L 116.992949 143.862374 
L 128.847436 132.178672 
L 140.701923 126.336821 
L 152.55641 123.740443 
L 164.410897 127.63501 
L 176.265385 143.21328 
L 188.119872 178.913481 
L 199.974359 222.402817 
L 211.828846 253.559356 
L 223.683333 280.821328 
L 235.537821 308.0833 
L 247.392308 330.80161 
L 259.246795 345.730785 
L 271.101282 350.274447 
L 282.955769 354.169014 
L 294.810256 356.765392 
L 306.664744 367.8 
L 318.519231 360.010865 
L 330.373718 362.607243 
L 342.228205 359.361771 
L 354.082692 364.554527 
L 365.937179 356.116298 
L 377.791667 347.028974 
L 389.646154 338.590744 
L 401.500641 325.608853 
L 413.355128 304.188732 
L 425.209615 274.979477 
L 437.064103 241.226559 
L 448.91859 200.333602 
L 460.773077 166.580684 
L 472.627564 137.371429 
L 484.482051 122.442254 
L 496.336538 107.513078 
L 508.191026 89.987525 
L 520.045513 93.232998 
L 531.9 165.93159 
" clip-path="url(#pcc59e83a10)" style="fill: none; stroke: #ffb984; stroke-opacity: 0.5; stroke-width: 0.5; stroke-linecap: round"/>
   </g>
   <g id="line2d_81">
    <path d="M 69.575 113.915511 
L 81.429487 109.637388 
L 93.283974 105.565795 
L 105.138462 103.441485 
L 116.992949 106.214889 
L 128.847436 111.23062 
L 140.701923 117.33801 
L 152.55641 128.284105 
L 164.410897 146.960326 
L 176.265385 172.216005 
L 188.119872 202.664441 
L 199.974359 236.417359 
L 211.828846 264.889007 
L 223.683333 292.268996 
L 235.537821 312.774483 
L 247.392308 327.880684 
L 259.246795 337.764624 
L 271.101282 345.022682 
L 282.955769 350.244942 
L 294.810256 352.22173 
L 306.664744 356.086793 
L 318.519231 352.487269 
L 330.373718 349.06477 
L 342.228205 344.963673 
L 354.082692 339.003805 
L 365.937179 326.346461 
L 377.791667 310.119096 
L 389.646154 289.259557 
L 401.500641 262.322133 
L 413.355128 232.080227 
L 425.209615 202.51692 
L 437.064103 176.258094 
L 448.91859 153.834827 
L 460.773077 138.551601 
L 472.627564 129.346259 
L 484.482051 125.746735 
L 496.336538 129.287251 
L 508.191026 129.346259 
L 520.045513 128.225096 
L 531.9 120.731004 
" clip-path="url(#pcc59e83a10)" style="fill: none; stroke: #ffb984; stroke-width: 2.5; stroke-linecap: round"/>
   </g>
   <g id="patch_3">
    <path d="M 69.575 367.8 
L 69.575 45.2 
" style="fill: none; stroke: #000000; stroke-width: 0.75; stroke-linejoin: miter; stroke-linecap: square"/>
   </g>
   <g id="patch_4">
    <path d="M 69.575 367.8 
L 531.9 367.8 
" style="fill: none; stroke: #000000; stroke-width: 0.75; stroke-linejoin: miter; stroke-linecap: square"/>
   </g>
   <g id="text_15">
    <text style="font: 500 18px &quot;Suisse Int&apos;l&quot;, sans-serif; text-anchor: middle" x="300.7375" y="29.2" transform="rotate(-0 300.7375 29.2)">Normalized Spatial Density of Cells in a Conical Well</text>
   </g>
   <g id="legend_1">
    <g id="line2d_82">
     <path d="M 555.01625 51.575 
L 562.51625 51.575 
L 570.01625 51.575 
" style="fill: none; stroke: #bab0a8; stroke-width: 2.5; stroke-linecap: round"/>
    </g>
    <g id="text_16">
     <text style="font: 15px &quot;Suisse Int&apos;l&quot;, sans-serif; text-anchor: start" x="576.01625" y="57.95" transform="rotate(-0 576.01625 57.95)">CC-125 Average</text>
    </g>
    <g id="line2d_83">
     <path d="M 555.01625 74.644531 
L 562.51625 74.644531 
L 570.01625 74.644531 
" style="fill: none; stroke: #73b5e3; stroke-width: 2.5; stroke-linecap: round"/>
    </g>
    <g id="text_17">
     <text style="font: 15px &quot;Suisse Int&apos;l&quot;, sans-serif; text-anchor: start" x="576.01625" y="81.019531" transform="rotate(-0 576.01625 81.019531)">CC-2670 Average</text>
    </g>
    <g id="line2d_84">
     <path d="M 555.01625 97.714062 
L 562.51625 97.714062 
L 570.01625 97.714062 
" style="fill: none; stroke: #ffb984; stroke-width: 2.5; stroke-linecap: round"/>
    </g>
    <g id="text_18">
     <text style="font: 15px &quot;Suisse Int&apos;l&quot;, sans-serif; text-anchor: start" x="576.01625" y="104.089062" transform="rotate(-0 576.01625 104.089062)">CC-3707 Average</text>
    </g>
   </g>
  </g>
 </g>
 <defs>
  <clipPath id="pcc59e83a10">
   <rect x="69.575" y="45.2" width="462.325" height="322.6"/>
  </clipPath>
 </defs>
</svg>
