<?xml version="1.0" encoding="utf-8" standalone="no"?>
<!DOCTYPE svg PUBLIC "-//W3C//DTD SVG 1.1//EN"
  "http://www.w3.org/Graphics/SVG/1.1/DTD/svg11.dtd">
<svg xmlns:xlink="http://www.w3.org/1999/xlink" width="720pt" height="432pt" viewBox="0 0 720 432" xmlns="http://www.w3.org/2000/svg" version="1.1">
 <metadata>
  <rdf:RDF xmlns:dc="http://purl.org/dc/elements/1.1/" xmlns:cc="http://creativecommons.org/ns#" xmlns:rdf="http://www.w3.org/1999/02/22-rdf-syntax-ns#">
   <cc:Work>
    <dc:type rdf:resource="http://purl.org/dc/dcmitype/StillImage"/>
    <dc:date>2024-09-11T16:00:31.046152</dc:date>
    <dc:format>image/svg+xml</dc:format>
    <dc:creator>
     <cc:Agent>
      <dc:title>Matplotlib v3.9.2, https://matplotlib.org/</dc:title>
     </cc:Agent>
    </dc:creator>
   </cc:Work>
  </rdf:RDF>
 </metadata>
 <defs>
  <style type="text/css">*{stroke-linejoin: round; stroke-linecap: butt}</style>
 </defs>
 <g id="figure_1">
  <g id="patch_1">
   <path d="M 0 432 
L 720 432 
L 720 0 
L 0 0 
L 0 432 
z
" style="fill: none"/>
  </g>
  <g id="axes_1">
   <g id="patch_2">
    <path d="M 69.575 367.8 
L 535.9 367.8 
L 535.9 45.2 
L 69.575 45.2 
L 69.575 367.8 
z
" style="fill: none"/>
   </g>
   <g id="matplotlib.axis_1">
    <g id="xtick_1">
     <g id="line2d_1">
      <defs>
       <path id="m5f7ec1062b" d="M 0 0 
L 0 5 
" style="stroke: #000000; stroke-width: 0.75"/>
      </defs>
      <g>
       <use xlink:href="#m5f7ec1062b" x="69.575" y="367.8" style="stroke: #000000; stroke-width: 0.75"/>
      </g>
     </g>
     <g id="text_1">
      <text style="font: 15px &quot;Suisse Int&apos;l&quot;, sans-serif; text-anchor: middle" x="69.575" y="388.675" transform="rotate(-0 69.575 388.675)">0</text>
     </g>
    </g>
    <g id="xtick_2">
     <g id="line2d_2">
      <g>
       <use xlink:href="#m5f7ec1062b" x="129.360256" y="367.8" style="stroke: #000000; stroke-width: 0.75"/>
      </g>
     </g>
     <g id="text_2">
      <text style="font: 15px &quot;Suisse Int&apos;l&quot;, sans-serif; text-anchor: middle" x="129.360256" y="388.675" transform="rotate(-0 129.360256 388.675)">5</text>
     </g>
    </g>
    <g id="xtick_3">
     <g id="line2d_3">
      <g>
       <use xlink:href="#m5f7ec1062b" x="189.145513" y="367.8" style="stroke: #000000; stroke-width: 0.75"/>
      </g>
     </g>
     <g id="text_3">
      <text style="font: 15px &quot;Suisse Int&apos;l&quot;, sans-serif; text-anchor: middle" x="189.145513" y="388.675" transform="rotate(-0 189.145513 388.675)">10</text>
     </g>
    </g>
    <g id="xtick_4">
     <g id="line2d_4">
      <g>
       <use xlink:href="#m5f7ec1062b" x="248.930769" y="367.8" style="stroke: #000000; stroke-width: 0.75"/>
      </g>
     </g>
     <g id="text_4">
      <text style="font: 15px &quot;Suisse Int&apos;l&quot;, sans-serif; text-anchor: middle" x="248.930769" y="388.675" transform="rotate(-0 248.930769 388.675)">15</text>
     </g>
    </g>
    <g id="xtick_5">
     <g id="line2d_5">
      <g>
       <use xlink:href="#m5f7ec1062b" x="308.716026" y="367.8" style="stroke: #000000; stroke-width: 0.75"/>
      </g>
     </g>
     <g id="text_5">
      <text style="font: 15px &quot;Suisse Int&apos;l&quot;, sans-serif; text-anchor: middle" x="308.716026" y="388.675" transform="rotate(-0 308.716026 388.675)">20</text>
     </g>
    </g>
    <g id="xtick_6">
     <g id="line2d_6">
      <g>
       <use xlink:href="#m5f7ec1062b" x="368.501282" y="367.8" style="stroke: #000000; stroke-width: 0.75"/>
      </g>
     </g>
     <g id="text_6">
      <text style="font: 15px &quot;Suisse Int&apos;l&quot;, sans-serif; text-anchor: middle" x="368.501282" y="388.675" transform="rotate(-0 368.501282 388.675)">25</text>
     </g>
    </g>
    <g id="xtick_7">
     <g id="line2d_7">
      <g>
       <use xlink:href="#m5f7ec1062b" x="428.286538" y="367.8" style="stroke: #000000; stroke-width: 0.75"/>
      </g>
     </g>
     <g id="text_7">
      <text style="font: 15px &quot;Suisse Int&apos;l&quot;, sans-serif; text-anchor: middle" x="428.286538" y="388.675" transform="rotate(-0 428.286538 388.675)">30</text>
     </g>
    </g>
    <g id="xtick_8">
     <g id="line2d_8">
      <g>
       <use xlink:href="#m5f7ec1062b" x="488.071795" y="367.8" style="stroke: #000000; stroke-width: 0.75"/>
      </g>
     </g>
     <g id="text_8">
      <text style="font: 15px &quot;Suisse Int&apos;l&quot;, sans-serif; text-anchor: middle" x="488.071795" y="388.675" transform="rotate(-0 488.071795 388.675)">35</text>
     </g>
    </g>
    <g id="text_9">
     <text style="font: 500 15px &quot;Suisse Int&apos;l&quot;, sans-serif; text-anchor: middle" x="302.7375" y="412.175" transform="rotate(-0 302.7375 412.175)">Pixel Position</text>
    </g>
   </g>
   <g id="matplotlib.axis_2">
    <g id="ytick_1">
     <g id="line2d_9">
      <defs>
       <path id="m84ad21ef4d" d="M 0 0 
L -5 0 
" style="stroke: #000000; stroke-width: 0.75"/>
      </defs>
      <g>
       <use xlink:href="#m84ad21ef4d" x="69.575" y="330.152515" style="stroke: #000000; stroke-width: 0.75"/>
      </g>
     </g>
     <g id="text_10">
      <text style="font: 15px &quot;Suisse Int&apos;l&quot;, sans-serif; text-anchor: end" x="59.575" y="335.590015" transform="rotate(-0 59.575 335.590015)">10</text>
     </g>
    </g>
    <g id="ytick_2">
     <g id="line2d_10">
      <g>
       <use xlink:href="#m84ad21ef4d" x="69.575" y="258.752113" style="stroke: #000000; stroke-width: 0.75"/>
      </g>
     </g>
     <g id="text_11">
      <text style="font: 15px &quot;Suisse Int&apos;l&quot;, sans-serif; text-anchor: end" x="59.575" y="264.189613" transform="rotate(-0 59.575 264.189613)">20</text>
     </g>
    </g>
    <g id="ytick_3">
     <g id="line2d_11">
      <g>
       <use xlink:href="#m84ad21ef4d" x="69.575" y="187.35171" style="stroke: #000000; stroke-width: 0.75"/>
      </g>
     </g>
     <g id="text_12">
      <text style="font: 15px &quot;Suisse Int&apos;l&quot;, sans-serif; text-anchor: end" x="59.575" y="192.78921" transform="rotate(-0 59.575 192.78921)">30</text>
     </g>
    </g>
    <g id="ytick_4">
     <g id="line2d_12">
      <g>
       <use xlink:href="#m84ad21ef4d" x="69.575" y="115.951308" style="stroke: #000000; stroke-width: 0.75"/>
      </g>
     </g>
     <g id="text_13">
      <text style="font: 15px &quot;Suisse Int&apos;l&quot;, sans-serif; text-anchor: end" x="59.575" y="121.388808" transform="rotate(-0 59.575 121.388808)">40</text>
     </g>
    </g>
    <g id="text_14">
     <text style="font: 500 15px &quot;Suisse Int&apos;l&quot;, sans-serif; text-anchor: middle" x="27.675" y="206.5" transform="rotate(-90 27.675 206.5)">Relative Cell Density</text>
    </g>
   </g>
   <g id="line2d_13">
    <path d="M 69.575 294.452314 
L 81.532051 291.855936 
L 93.489103 282.119517 
L 105.446154 267.839437 
L 117.403205 268.488531 
L 129.360256 270.435815 
L 141.317308 271.734004 
L 153.274359 260.699396 
L 165.23141 304.188732 
L 177.188462 306.136016 
L 189.145513 311.977867 
L 201.102564 302.241449 
L 213.059615 302.890543 
L 225.016667 308.0833 
L 236.973718 319.117907 
L 248.930769 316.521529 
L 260.887821 311.328773 
L 272.844872 321.065191 
L 284.801923 308.732394 
L 296.758974 309.381489 
L 308.716026 313.276056 
L 320.673077 309.381489 
L 332.630128 310.679678 
L 344.587179 306.136016 
L 356.544231 306.785111 
L 368.501282 301.592354 
L 380.458333 306.785111 
L 392.415385 302.241449 
L 404.372436 311.328773 
L 416.329487 306.136016 
L 428.286538 300.294165 
L 440.24359 306.136016 
L 452.200641 304.188732 
L 464.157692 305.486922 
L 476.114744 298.995976 
L 488.071795 304.188732 
L 500.028846 304.837827 
L 511.985897 299.64507 
L 523.942949 304.837827 
L 535.9 300.294165 
" clip-path="url(#p8663a95c60)" style="fill: none; stroke: #bab0a8; stroke-opacity: 0.5; stroke-width: 0.5; stroke-linecap: round"/>
   </g>
   <g id="line2d_14">
    <path d="M 69.575 299.64507 
L 81.532051 300.294165 
L 93.489103 304.837827 
L 105.446154 308.732394 
L 117.403205 310.030584 
L 129.360256 308.732394 
L 141.317308 308.732394 
L 153.274359 306.136016 
L 165.23141 308.732394 
L 177.188462 303.539638 
L 189.145513 307.434205 
L 201.102564 306.785111 
L 213.059615 300.94326 
L 225.016667 295.101408 
L 236.973718 296.399598 
L 248.930769 299.64507 
L 260.887821 300.94326 
L 272.844872 297.697787 
L 284.801923 290.557746 
L 296.758974 287.961368 
L 308.716026 310.679678 
L 320.673077 298.346881 
L 332.630128 294.452314 
L 344.587179 288.610463 
L 356.544231 291.206841 
L 368.501282 297.697787 
L 380.458333 299.64507 
L 392.415385 300.294165 
L 404.372436 298.346881 
L 416.329487 294.452314 
L 428.286538 299.64507 
L 440.24359 290.557746 
L 452.200641 287.961368 
L 464.157692 284.066801 
L 476.114744 275.628571 
L 488.071795 269.78672 
L 500.028846 260.699396 
L 511.985897 302.241449 
L 523.942949 295.101408 
L 535.9 299.64507 
" clip-path="url(#p8663a95c60)" style="fill: none; stroke: #bab0a8; stroke-opacity: 0.5; stroke-width: 0.5; stroke-linecap: round"/>
   </g>
   <g id="line2d_15">
    <path d="M 69.575 278.874044 
L 81.532051 280.821328 
L 93.489103 286.663179 
L 105.446154 278.874044 
L 117.403205 280.821328 
L 129.360256 280.172233 
L 141.317308 271.734004 
L 153.274359 271.734004 
L 165.23141 261.997586 
L 177.188462 296.399598 
L 189.145513 290.557746 
L 201.102564 290.557746 
L 213.059615 288.610463 
L 225.016667 293.803219 
L 236.973718 297.048692 
L 248.930769 297.697787 
L 260.887821 298.346881 
L 272.844872 295.750503 
L 284.801923 285.36499 
L 296.758974 291.855936 
L 308.716026 299.64507 
L 320.673077 283.417706 
L 332.630128 288.610463 
L 344.587179 286.014085 
L 356.544231 290.557746 
L 368.501282 290.557746 
L 380.458333 286.014085 
L 392.415385 282.119517 
L 404.372436 286.014085 
L 416.329487 286.014085 
L 428.286538 285.36499 
L 440.24359 293.154125 
L 452.200641 289.908652 
L 464.157692 281.470423 
L 476.114744 282.768612 
L 488.071795 284.715895 
L 500.028846 281.470423 
L 511.985897 273.032193 
L 523.942949 284.066801 
L 535.9 272.383099 
" clip-path="url(#p8663a95c60)" style="fill: none; stroke: #bab0a8; stroke-opacity: 0.5; stroke-width: 0.5; stroke-linecap: round"/>
   </g>
   <g id="line2d_16">
    <path d="M 69.575 296.399598 
L 81.532051 295.101408 
L 93.489103 286.014085 
L 105.446154 281.470423 
L 117.403205 283.417706 
L 129.360256 281.470423 
L 141.317308 285.36499 
L 153.274359 283.417706 
L 165.23141 284.066801 
L 177.188462 278.874044 
L 189.145513 273.032193 
L 201.102564 284.715895 
L 213.059615 282.119517 
L 225.016667 284.066801 
L 236.973718 284.066801 
L 248.930769 286.663179 
L 260.887821 283.417706 
L 272.844872 274.330382 
L 284.801923 282.768612 
L 296.758974 287.961368 
L 308.716026 289.908652 
L 320.673077 289.259557 
L 332.630128 283.417706 
L 344.587179 289.259557 
L 356.544231 278.874044 
L 368.501282 289.259557 
L 380.458333 280.172233 
L 392.415385 284.715895 
L 404.372436 289.908652 
L 416.329487 282.119517 
L 428.286538 267.190342 
L 440.24359 275.628571 
L 452.200641 276.277666 
L 464.157692 291.206841 
L 476.114744 284.066801 
L 488.071795 283.417706 
L 500.028846 280.172233 
L 511.985897 295.750503 
L 523.942949 286.663179 
L 535.9 298.995976 
" clip-path="url(#p8663a95c60)" style="fill: none; stroke: #bab0a8; stroke-opacity: 0.5; stroke-width: 0.5; stroke-linecap: round"/>
   </g>
   <g id="line2d_17">
    <path d="M 69.575 286.663179 
L 81.532051 277.575855 
L 93.489103 276.926761 
L 105.446154 267.190342 
L 117.403205 276.277666 
L 129.360256 270.435815 
L 141.317308 284.066801 
L 153.274359 290.557746 
L 165.23141 290.557746 
L 177.188462 287.312274 
L 189.145513 289.908652 
L 201.102564 284.715895 
L 213.059615 285.36499 
L 225.016667 281.470423 
L 236.973718 281.470423 
L 248.930769 274.330382 
L 260.887821 280.172233 
L 272.844872 282.768612 
L 284.801923 284.715895 
L 296.758974 278.22495 
L 308.716026 291.855936 
L 320.673077 278.22495 
L 332.630128 283.417706 
L 344.587179 280.172233 
L 356.544231 270.435815 
L 368.501282 276.926761 
L 380.458333 280.821328 
L 392.415385 278.874044 
L 404.372436 274.330382 
L 416.329487 278.874044 
L 428.286538 282.119517 
L 440.24359 273.681288 
L 452.200641 269.78672 
L 464.157692 280.172233 
L 476.114744 274.979477 
L 488.071795 278.874044 
L 500.028846 287.961368 
L 511.985897 276.926761 
L 523.942949 284.066801 
L 535.9 280.172233 
" clip-path="url(#p8663a95c60)" style="fill: none; stroke: #bab0a8; stroke-opacity: 0.5; stroke-width: 0.5; stroke-linecap: round"/>
   </g>
   <g id="line2d_18">
    <path d="M 69.575 287.961368 
L 81.532051 283.417706 
L 93.489103 292.50503 
L 105.446154 292.50503 
L 117.403205 284.715895 
L 129.360256 282.119517 
L 141.317308 281.470423 
L 153.274359 286.014085 
L 165.23141 298.346881 
L 177.188462 291.206841 
L 189.145513 280.821328 
L 201.102564 286.663179 
L 213.059615 294.452314 
L 225.016667 288.610463 
L 236.973718 297.697787 
L 248.930769 290.557746 
L 260.887821 292.50503 
L 272.844872 291.855936 
L 284.801923 291.855936 
L 296.758974 290.557746 
L 308.716026 296.399598 
L 320.673077 292.50503 
L 332.630128 286.663179 
L 344.587179 285.36499 
L 356.544231 284.066801 
L 368.501282 278.874044 
L 380.458333 282.768612 
L 392.415385 283.417706 
L 404.372436 276.926761 
L 416.329487 289.908652 
L 428.286538 283.417706 
L 440.24359 280.821328 
L 452.200641 283.417706 
L 464.157692 291.206841 
L 476.114744 278.874044 
L 488.071795 280.172233 
L 500.028846 282.768612 
L 511.985897 276.926761 
L 523.942949 286.663179 
L 535.9 286.014085 
" clip-path="url(#p8663a95c60)" style="fill: none; stroke: #bab0a8; stroke-opacity: 0.5; stroke-width: 0.5; stroke-linecap: round"/>
   </g>
   <g id="line2d_19">
    <path d="M 69.575 280.821328 
L 81.532051 282.768612 
L 93.489103 280.172233 
L 105.446154 278.874044 
L 117.403205 280.172233 
L 129.360256 287.312274 
L 141.317308 281.470423 
L 153.274359 279.523139 
L 165.23141 274.330382 
L 177.188462 284.715895 
L 189.145513 280.172233 
L 201.102564 287.961368 
L 213.059615 288.610463 
L 225.016667 287.312274 
L 236.973718 285.36499 
L 248.930769 282.119517 
L 260.887821 284.715895 
L 272.844872 285.36499 
L 284.801923 277.575855 
L 296.758974 289.908652 
L 308.716026 299.64507 
L 320.673077 288.610463 
L 332.630128 284.066801 
L 344.587179 287.312274 
L 356.544231 274.330382 
L 368.501282 281.470423 
L 380.458333 272.383099 
L 392.415385 271.734004 
L 404.372436 278.874044 
L 416.329487 280.172233 
L 428.286538 280.821328 
L 440.24359 274.330382 
L 452.200641 278.874044 
L 464.157692 279.523139 
L 476.114744 281.470423 
L 488.071795 278.22495 
L 500.028846 271.734004 
L 511.985897 276.926761 
L 523.942949 279.523139 
L 535.9 282.768612 
" clip-path="url(#p8663a95c60)" style="fill: none; stroke: #bab0a8; stroke-opacity: 0.5; stroke-width: 0.5; stroke-linecap: round"/>
   </g>
   <g id="line2d_20">
    <path d="M 69.575 283.417706 
L 81.532051 280.821328 
L 93.489103 286.663179 
L 105.446154 287.961368 
L 117.403205 285.36499 
L 129.360256 291.206841 
L 141.317308 282.768612 
L 153.274359 260.050302 
L 165.23141 267.190342 
L 177.188462 278.22495 
L 189.145513 274.979477 
L 201.102564 289.908652 
L 213.059615 287.961368 
L 225.016667 294.452314 
L 236.973718 290.557746 
L 248.930769 297.048692 
L 260.887821 287.312274 
L 272.844872 293.154125 
L 284.801923 289.908652 
L 296.758974 281.470423 
L 308.716026 295.101408 
L 320.673077 286.663179 
L 332.630128 293.803219 
L 344.587179 288.610463 
L 356.544231 287.961368 
L 368.501282 282.119517 
L 380.458333 286.014085 
L 392.415385 272.383099 
L 404.372436 280.172233 
L 416.329487 278.874044 
L 428.286538 280.821328 
L 440.24359 282.119517 
L 452.200641 282.119517 
L 464.157692 278.874044 
L 476.114744 286.663179 
L 488.071795 281.470423 
L 500.028846 283.417706 
L 511.985897 282.768612 
L 523.942949 276.926761 
L 535.9 281.470423 
" clip-path="url(#p8663a95c60)" style="fill: none; stroke: #bab0a8; stroke-opacity: 0.5; stroke-width: 0.5; stroke-linecap: round"/>
   </g>
   <g id="line2d_21">
    <path d="M 69.575 270.435815 
L 81.532051 284.715895 
L 93.489103 275.628571 
L 105.446154 276.926761 
L 117.403205 287.312274 
L 129.360256 277.575855 
L 141.317308 260.699396 
L 153.274359 258.752113 
L 165.23141 269.78672 
L 177.188462 260.050302 
L 189.145513 261.997586 
L 201.102564 265.892153 
L 213.059615 274.979477 
L 225.016667 274.330382 
L 236.973718 280.821328 
L 248.930769 281.470423 
L 260.887821 282.768612 
L 272.844872 278.874044 
L 284.801923 278.874044 
L 296.758974 274.979477 
L 308.716026 291.206841 
L 320.673077 280.821328 
L 332.630128 281.470423 
L 344.587179 273.681288 
L 356.544231 273.032193 
L 368.501282 277.575855 
L 380.458333 271.084909 
L 392.415385 272.383099 
L 404.372436 271.084909 
L 416.329487 282.768612 
L 428.286538 271.084909 
L 440.24359 274.330382 
L 452.200641 276.277666 
L 464.157692 278.22495 
L 476.114744 280.821328 
L 488.071795 273.681288 
L 500.028846 279.523139 
L 511.985897 270.435815 
L 523.942949 284.715895 
L 535.9 280.821328 
" clip-path="url(#p8663a95c60)" style="fill: none; stroke: #bab0a8; stroke-opacity: 0.5; stroke-width: 0.5; stroke-linecap: round"/>
   </g>
   <g id="line2d_22">
    <path d="M 69.575 273.032193 
L 81.532051 271.734004 
L 93.489103 286.014085 
L 105.446154 288.610463 
L 117.403205 287.312274 
L 129.360256 295.750503 
L 141.317308 292.50503 
L 153.274359 287.961368 
L 165.23141 289.259557 
L 177.188462 280.821328 
L 189.145513 285.36499 
L 201.102564 288.610463 
L 213.059615 284.715895 
L 225.016667 286.663179 
L 236.973718 290.557746 
L 248.930769 286.663179 
L 260.887821 286.014085 
L 272.844872 291.855936 
L 284.801923 291.855936 
L 296.758974 286.663179 
L 308.716026 293.154125 
L 320.673077 282.768612 
L 332.630128 280.821328 
L 344.587179 286.663179 
L 356.544231 293.154125 
L 368.501282 289.908652 
L 380.458333 287.312274 
L 392.415385 287.961368 
L 404.372436 285.36499 
L 416.329487 290.557746 
L 428.286538 284.715895 
L 440.24359 291.855936 
L 452.200641 286.014085 
L 464.157692 289.259557 
L 476.114744 295.750503 
L 488.071795 289.259557 
L 500.028846 290.557746 
L 511.985897 261.348491 
L 523.942949 267.190342 
L 535.9 272.383099 
" clip-path="url(#p8663a95c60)" style="fill: none; stroke: #bab0a8; stroke-opacity: 0.5; stroke-width: 0.5; stroke-linecap: round"/>
   </g>
   <g id="line2d_23">
    <path d="M 69.575 282.119517 
L 81.532051 288.610463 
L 93.489103 291.206841 
L 105.446154 286.014085 
L 117.403205 285.36499 
L 129.360256 293.803219 
L 141.317308 290.557746 
L 153.274359 282.119517 
L 165.23141 288.610463 
L 177.188462 274.330382 
L 189.145513 266.541247 
L 201.102564 260.699396 
L 213.059615 265.892153 
L 225.016667 271.084909 
L 236.973718 274.979477 
L 248.930769 280.821328 
L 260.887821 286.014085 
L 272.844872 291.855936 
L 284.801923 291.206841 
L 296.758974 286.014085 
L 308.716026 295.101408 
L 320.673077 288.610463 
L 332.630128 287.312274 
L 344.587179 290.557746 
L 356.544231 280.172233 
L 368.501282 289.259557 
L 380.458333 290.557746 
L 392.415385 280.821328 
L 404.372436 287.961368 
L 416.329487 287.961368 
L 428.286538 282.768612 
L 440.24359 279.523139 
L 452.200641 283.417706 
L 464.157692 286.014085 
L 476.114744 291.206841 
L 488.071795 283.417706 
L 500.028846 281.470423 
L 511.985897 286.014085 
L 523.942949 286.014085 
L 535.9 283.417706 
" clip-path="url(#p8663a95c60)" style="fill: none; stroke: #bab0a8; stroke-opacity: 0.5; stroke-width: 0.5; stroke-linecap: round"/>
   </g>
   <g id="line2d_24">
    <path d="M 69.575 247.717505 
L 81.532051 245.121127 
L 93.489103 243.822938 
L 105.446154 240.577465 
L 117.403205 275.628571 
L 129.360256 270.435815 
L 141.317308 278.874044 
L 153.274359 281.470423 
L 165.23141 276.926761 
L 177.188462 282.119517 
L 189.145513 284.066801 
L 201.102564 280.821328 
L 213.059615 284.066801 
L 225.016667 290.557746 
L 236.973718 286.014085 
L 248.930769 285.36499 
L 260.887821 282.768612 
L 272.844872 284.066801 
L 284.801923 286.663179 
L 296.758974 286.663179 
L 308.716026 289.259557 
L 320.673077 285.36499 
L 332.630128 279.523139 
L 344.587179 281.470423 
L 356.544231 288.610463 
L 368.501282 282.768612 
L 380.458333 279.523139 
L 392.415385 283.417706 
L 404.372436 280.172233 
L 416.329487 282.768612 
L 428.286538 279.523139 
L 440.24359 280.821328 
L 452.200641 282.119517 
L 464.157692 278.22495 
L 476.114744 274.330382 
L 488.071795 272.383099 
L 500.028846 269.78672 
L 511.985897 267.190342 
L 523.942949 258.752113 
L 535.9 249.015694 
" clip-path="url(#p8663a95c60)" style="fill: none; stroke: #bab0a8; stroke-opacity: 0.5; stroke-width: 0.5; stroke-linecap: round"/>
   </g>
   <g id="line2d_25">
    <path d="M 69.575 269.78672 
L 81.532051 261.348491 
L 93.489103 251.612072 
L 105.446154 250.313883 
L 117.403205 239.279276 
L 129.360256 235.384708 
L 141.317308 276.926761 
L 153.274359 270.435815 
L 165.23141 271.084909 
L 177.188462 276.926761 
L 189.145513 281.470423 
L 201.102564 283.417706 
L 213.059615 282.119517 
L 225.016667 282.768612 
L 236.973718 277.575855 
L 248.930769 276.926761 
L 260.887821 275.628571 
L 272.844872 278.22495 
L 284.801923 278.874044 
L 296.758974 280.172233 
L 308.716026 282.768612 
L 320.673077 277.575855 
L 332.630128 271.734004 
L 344.587179 273.681288 
L 356.544231 278.874044 
L 368.501282 277.575855 
L 380.458333 278.22495 
L 392.415385 282.768612 
L 404.372436 280.172233 
L 416.329487 278.22495 
L 428.286538 276.926761 
L 440.24359 276.277666 
L 452.200641 276.277666 
L 464.157692 282.119517 
L 476.114744 280.821328 
L 488.071795 278.22495 
L 500.028846 277.575855 
L 511.985897 274.330382 
L 523.942949 272.383099 
L 535.9 267.839437 
" clip-path="url(#p8663a95c60)" style="fill: none; stroke: #bab0a8; stroke-opacity: 0.5; stroke-width: 0.5; stroke-linecap: round"/>
   </g>
   <g id="line2d_26">
    <path d="M 69.575 264.593964 
L 81.532051 263.944869 
L 93.489103 262.64668 
L 105.446154 264.593964 
L 117.403205 259.401207 
L 129.360256 258.752113 
L 141.317308 259.401207 
L 153.274359 260.699396 
L 165.23141 256.155734 
L 177.188462 257.453924 
L 189.145513 265.892153 
L 201.102564 265.892153 
L 213.059615 269.137626 
L 225.016667 263.944869 
L 236.973718 265.243058 
L 248.930769 263.944869 
L 260.887821 261.997586 
L 272.844872 269.137626 
L 284.801923 268.488531 
L 296.758974 266.541247 
L 308.716026 271.734004 
L 320.673077 263.295775 
L 332.630128 261.348491 
L 344.587179 267.839437 
L 356.544231 269.78672 
L 368.501282 269.137626 
L 380.458333 266.541247 
L 392.415385 262.64668 
L 404.372436 258.103018 
L 416.329487 256.155734 
L 428.286538 248.3666 
L 440.24359 243.173843 
L 452.200641 239.279276 
L 464.157692 237.981087 
L 476.114744 267.190342 
L 488.071795 266.541247 
L 500.028846 269.78672 
L 511.985897 265.892153 
L 523.942949 259.401207 
L 535.9 260.699396 
" clip-path="url(#p8663a95c60)" style="fill: none; stroke: #bab0a8; stroke-opacity: 0.5; stroke-width: 0.5; stroke-linecap: round"/>
   </g>
   <g id="line2d_27">
    <path d="M 69.575 259.401207 
L 81.532051 256.804829 
L 93.489103 259.401207 
L 105.446154 261.348491 
L 117.403205 258.103018 
L 129.360256 258.752113 
L 141.317308 258.752113 
L 153.274359 260.050302 
L 165.23141 258.103018 
L 177.188462 260.050302 
L 189.145513 260.050302 
L 201.102564 259.401207 
L 213.059615 256.804829 
L 225.016667 256.804829 
L 236.973718 262.64668 
L 248.930769 258.103018 
L 260.887821 252.261167 
L 272.844872 249.015694 
L 284.801923 256.804829 
L 296.758974 261.997586 
L 308.716026 265.243058 
L 320.673077 261.997586 
L 332.630128 255.50664 
L 344.587179 260.050302 
L 356.544231 265.243058 
L 368.501282 263.295775 
L 380.458333 258.103018 
L 392.415385 261.997586 
L 404.372436 263.295775 
L 416.329487 261.348491 
L 428.286538 253.559356 
L 440.24359 247.06841 
L 452.200641 249.015694 
L 464.157692 247.06841 
L 476.114744 237.981087 
L 488.071795 260.699396 
L 500.028846 259.401207 
L 511.985897 258.752113 
L 523.942949 261.348491 
L 535.9 259.401207 
" clip-path="url(#p8663a95c60)" style="fill: none; stroke: #bab0a8; stroke-opacity: 0.5; stroke-width: 0.5; stroke-linecap: round"/>
   </g>
   <g id="line2d_28">
    <path d="M 69.575 257.453924 
L 81.532051 251.612072 
L 93.489103 253.559356 
L 105.446154 256.804829 
L 117.403205 257.453924 
L 129.360256 256.804829 
L 141.317308 255.50664 
L 153.274359 252.910262 
L 165.23141 253.559356 
L 177.188462 256.155734 
L 189.145513 257.453924 
L 201.102564 252.910262 
L 213.059615 254.208451 
L 225.016667 263.295775 
L 236.973718 265.243058 
L 248.930769 261.997586 
L 260.887821 264.593964 
L 272.844872 264.593964 
L 284.801923 258.752113 
L 296.758974 260.699396 
L 308.716026 268.488531 
L 320.673077 267.839437 
L 332.630128 262.64668 
L 344.587179 261.348491 
L 356.544231 259.401207 
L 368.501282 261.348491 
L 380.458333 264.593964 
L 392.415385 265.892153 
L 404.372436 260.699396 
L 416.329487 255.50664 
L 428.286538 258.752113 
L 440.24359 260.699396 
L 452.200641 248.3666 
L 464.157692 246.419316 
L 476.114744 255.50664 
L 488.071795 255.50664 
L 500.028846 257.453924 
L 511.985897 255.50664 
L 523.942949 253.559356 
L 535.9 257.453924 
" clip-path="url(#p8663a95c60)" style="fill: none; stroke: #bab0a8; stroke-opacity: 0.5; stroke-width: 0.5; stroke-linecap: round"/>
   </g>
   <g id="line2d_29">
    <path d="M 69.575 245.121127 
L 81.532051 250.962978 
L 93.489103 251.612072 
L 105.446154 250.962978 
L 117.403205 243.822938 
L 129.360256 249.015694 
L 141.317308 250.313883 
L 153.274359 250.313883 
L 165.23141 251.612072 
L 177.188462 255.50664 
L 189.145513 254.857545 
L 201.102564 252.261167 
L 213.059615 254.857545 
L 225.016667 250.313883 
L 236.973718 250.313883 
L 248.930769 252.910262 
L 260.887821 255.50664 
L 272.844872 252.910262 
L 284.801923 251.612072 
L 296.758974 253.559356 
L 308.716026 260.050302 
L 320.673077 258.752113 
L 332.630128 256.155734 
L 344.587179 258.752113 
L 356.544231 257.453924 
L 368.501282 256.155734 
L 380.458333 257.453924 
L 392.415385 256.155734 
L 404.372436 256.804829 
L 416.329487 256.804829 
L 428.286538 253.559356 
L 440.24359 254.857545 
L 452.200641 253.559356 
L 464.157692 261.348491 
L 476.114744 267.190342 
L 488.071795 255.50664 
L 500.028846 254.208451 
L 511.985897 254.208451 
L 523.942949 247.717505 
L 535.9 244.472032 
" clip-path="url(#p8663a95c60)" style="fill: none; stroke: #bab0a8; stroke-opacity: 0.5; stroke-width: 0.5; stroke-linecap: round"/>
   </g>
   <g id="line2d_30">
    <path d="M 69.575 251.612072 
L 81.532051 252.910262 
L 93.489103 262.64668 
L 105.446154 259.401207 
L 117.403205 254.857545 
L 129.360256 256.804829 
L 141.317308 258.752113 
L 153.274359 258.752113 
L 165.23141 255.50664 
L 177.188462 257.453924 
L 189.145513 257.453924 
L 201.102564 259.401207 
L 213.059615 263.295775 
L 225.016667 258.103018 
L 236.973718 258.103018 
L 248.930769 259.401207 
L 260.887821 261.348491 
L 272.844872 260.050302 
L 284.801923 264.593964 
L 296.758974 265.892153 
L 308.716026 266.541247 
L 320.673077 258.103018 
L 332.630128 255.50664 
L 344.587179 256.155734 
L 356.544231 263.944869 
L 368.501282 260.699396 
L 380.458333 258.103018 
L 392.415385 254.857545 
L 404.372436 249.015694 
L 416.329487 252.261167 
L 428.286538 253.559356 
L 440.24359 244.472032 
L 452.200641 250.962978 
L 464.157692 256.804829 
L 476.114744 255.50664 
L 488.071795 253.559356 
L 500.028846 254.208451 
L 511.985897 250.962978 
L 523.942949 252.261167 
L 535.9 250.313883 
" clip-path="url(#p8663a95c60)" style="fill: none; stroke: #bab0a8; stroke-opacity: 0.5; stroke-width: 0.5; stroke-linecap: round"/>
   </g>
   <g id="line2d_31">
    <path d="M 69.575 250.962978 
L 81.532051 252.910262 
L 93.489103 253.559356 
L 105.446154 249.015694 
L 117.403205 252.261167 
L 129.360256 260.050302 
L 141.317308 262.64668 
L 153.274359 258.752113 
L 165.23141 258.752113 
L 177.188462 261.997586 
L 189.145513 259.401207 
L 201.102564 261.997586 
L 213.059615 260.699396 
L 225.016667 258.752113 
L 236.973718 255.50664 
L 248.930769 250.313883 
L 260.887821 256.804829 
L 272.844872 257.453924 
L 284.801923 262.64668 
L 296.758974 262.64668 
L 308.716026 265.243058 
L 320.673077 260.699396 
L 332.630128 263.295775 
L 344.587179 267.190342 
L 356.544231 258.103018 
L 368.501282 258.752113 
L 380.458333 261.348491 
L 392.415385 259.401207 
L 404.372436 260.699396 
L 416.329487 267.839437 
L 428.286538 267.839437 
L 440.24359 265.892153 
L 452.200641 263.295775 
L 464.157692 238.630181 
L 476.114744 242.524748 
L 488.071795 249.664789 
L 500.028846 249.015694 
L 511.985897 247.06841 
L 523.942949 250.313883 
L 535.9 250.962978 
" clip-path="url(#p8663a95c60)" style="fill: none; stroke: #bab0a8; stroke-opacity: 0.5; stroke-width: 0.5; stroke-linecap: round"/>
   </g>
   <g id="line2d_32">
    <path d="M 69.575 254.208451 
L 81.532051 250.962978 
L 93.489103 249.664789 
L 105.446154 254.857545 
L 117.403205 260.050302 
L 129.360256 263.944869 
L 141.317308 263.944869 
L 153.274359 260.050302 
L 165.23141 260.050302 
L 177.188462 257.453924 
L 189.145513 262.64668 
L 201.102564 260.699396 
L 213.059615 261.997586 
L 225.016667 260.699396 
L 236.973718 260.699396 
L 248.930769 263.944869 
L 260.887821 260.050302 
L 272.844872 265.243058 
L 284.801923 264.593964 
L 296.758974 263.295775 
L 308.716026 270.435815 
L 320.673077 269.137626 
L 332.630128 259.401207 
L 344.587179 258.752113 
L 356.544231 260.699396 
L 368.501282 259.401207 
L 380.458333 262.64668 
L 392.415385 258.752113 
L 404.372436 260.699396 
L 416.329487 267.190342 
L 428.286538 269.137626 
L 440.24359 264.593964 
L 452.200641 265.243058 
L 464.157692 259.401207 
L 476.114744 237.981087 
L 488.071795 243.822938 
L 500.028846 247.06841 
L 511.985897 246.419316 
L 523.942949 243.173843 
L 535.9 252.261167 
" clip-path="url(#p8663a95c60)" style="fill: none; stroke: #bab0a8; stroke-opacity: 0.5; stroke-width: 0.5; stroke-linecap: round"/>
   </g>
   <g id="line2d_33">
    <path d="M 69.575 259.401207 
L 81.532051 257.453924 
L 93.489103 261.348491 
L 105.446154 258.752113 
L 117.403205 255.50664 
L 129.360256 258.103018 
L 141.317308 262.64668 
L 153.274359 261.997586 
L 165.23141 263.295775 
L 177.188462 260.050302 
L 189.145513 258.103018 
L 201.102564 257.453924 
L 213.059615 261.997586 
L 225.016667 263.295775 
L 236.973718 265.243058 
L 248.930769 268.488531 
L 260.887821 266.541247 
L 272.844872 260.699396 
L 284.801923 256.804829 
L 296.758974 263.295775 
L 308.716026 271.084909 
L 320.673077 267.839437 
L 332.630128 263.295775 
L 344.587179 268.488531 
L 356.544231 269.137626 
L 368.501282 269.137626 
L 380.458333 267.839437 
L 392.415385 271.084909 
L 404.372436 273.681288 
L 416.329487 270.435815 
L 428.286538 262.64668 
L 440.24359 265.243058 
L 452.200641 265.243058 
L 464.157692 230.841046 
L 476.114744 236.682897 
L 488.071795 242.524748 
L 500.028846 245.770221 
L 511.985897 249.664789 
L 523.942949 252.910262 
L 535.9 257.453924 
" clip-path="url(#p8663a95c60)" style="fill: none; stroke: #bab0a8; stroke-opacity: 0.5; stroke-width: 0.5; stroke-linecap: round"/>
   </g>
   <g id="line2d_34">
    <path d="M 69.575 258.752113 
L 81.532051 258.103018 
L 93.489103 256.804829 
L 105.446154 254.208451 
L 117.403205 254.208451 
L 129.360256 263.295775 
L 141.317308 266.541247 
L 153.274359 267.839437 
L 165.23141 269.137626 
L 177.188462 266.541247 
L 189.145513 267.190342 
L 201.102564 266.541247 
L 213.059615 263.944869 
L 225.016667 262.64668 
L 236.973718 266.541247 
L 248.930769 271.734004 
L 260.887821 266.541247 
L 272.844872 262.64668 
L 284.801923 269.78672 
L 296.758974 272.383099 
L 308.716026 278.22495 
L 320.673077 276.926761 
L 332.630128 268.488531 
L 344.587179 269.137626 
L 356.544231 272.383099 
L 368.501282 270.435815 
L 380.458333 272.383099 
L 392.415385 274.979477 
L 404.372436 275.628571 
L 416.329487 274.979477 
L 428.286538 276.277666 
L 440.24359 274.979477 
L 452.200641 272.383099 
L 464.157692 236.033803 
L 476.114744 239.92837 
L 488.071795 239.279276 
L 500.028846 245.121127 
L 511.985897 249.015694 
L 523.942949 242.524748 
L 535.9 245.770221 
" clip-path="url(#p8663a95c60)" style="fill: none; stroke: #bab0a8; stroke-opacity: 0.5; stroke-width: 0.5; stroke-linecap: round"/>
   </g>
   <g id="line2d_35">
    <path d="M 69.575 270.583336 
L 81.532051 269.99325 
L 93.489103 270.701354 
L 105.446154 268.901591 
L 117.403205 269.99325 
L 129.360256 271.379952 
L 141.317308 272.973185 
L 153.274359 270.465319 
L 165.23141 273.238723 
L 177.188462 274.241869 
L 189.145513 274.153357 
L 201.102564 274.979477 
L 213.059615 275.89411 
L 225.016667 276.189153 
L 236.973718 277.782385 
L 248.930769 277.575855 
L 260.887821 277.162795 
L 272.844872 277.664368 
L 284.801923 276.956265 
L 296.758974 277.369325 
L 308.716026 284.774904 
L 320.673077 278.460984 
L 332.630128 275.982623 
L 344.587179 276.602213 
L 356.544231 276.10064 
L 368.501282 276.543205 
L 380.458333 275.923614 
L 392.415385 274.949973 
L 404.372436 275.422041 
L 416.329487 276.425187 
L 428.286538 273.563271 
L 440.24359 272.73715 
L 452.200641 271.999543 
L 464.157692 269.108121 
L 476.114744 269.403164 
L 488.071795 269.314652 
L 500.028846 269.727712 
L 511.985897 269.137626 
L 523.942949 269.550686 
L 535.9 269.727712 
" clip-path="url(#p8663a95c60)" style="fill: none; stroke: #bab0a8; stroke-width: 2.5; stroke-linecap: round"/>
   </g>
   <g id="line2d_36">
    <path d="M 69.575 125.038632 
L 81.532051 108.162173 
L 93.489103 94.531187 
L 105.446154 97.77666 
L 117.403205 97.127565 
L 129.360256 102.320322 
L 141.317308 115.302213 
L 153.274359 119.845875 
L 165.23141 124.389537 
L 177.188462 128.933199 
L 189.145513 138.669618 
L 201.102564 153.598793 
L 213.059615 176.317103 
L 225.016667 206.175453 
L 236.973718 215.911871 
L 248.930769 245.121127 
L 260.887821 262.64668 
L 272.844872 275.628571 
L 284.801923 288.610463 
L 296.758974 291.855936 
L 308.716026 306.136016 
L 320.673077 304.188732 
L 332.630128 305.486922 
L 344.587179 305.486922 
L 356.544231 301.592354 
L 368.501282 288.610463 
L 380.458333 279.523139 
L 392.415385 267.190342 
L 404.372436 245.770221 
L 416.329487 226.946479 
L 428.286538 219.157344 
L 440.24359 217.21006 
L 452.200641 208.122736 
L 464.157692 204.228169 
L 476.114744 208.771831 
L 488.071795 206.824547 
L 500.028846 156.844266 
L 511.985897 149.704225 
L 523.942949 146.458753 
L 535.9 139.967807 
" clip-path="url(#p8663a95c60)" style="fill: none; stroke: #73b5e3; stroke-opacity: 0.5; stroke-width: 0.5; stroke-linecap: round"/>
   </g>
   <g id="line2d_37">
    <path d="M 69.575 76.356539 
L 81.532051 87.391147 
L 93.489103 88.040241 
L 105.446154 102.969416 
L 117.403205 105.565795 
L 129.360256 110.758551 
L 141.317308 120.49497 
L 153.274359 136.073239 
L 165.23141 154.247887 
L 177.188462 171.124346 
L 189.145513 193.193561 
L 201.102564 209.420926 
L 213.059615 239.92837 
L 225.016667 256.804829 
L 236.973718 276.277666 
L 248.930769 292.50503 
L 260.887821 298.346881 
L 272.844872 306.785111 
L 284.801923 307.434205 
L 296.758974 311.977867 
L 308.716026 315.22334 
L 320.673077 310.030584 
L 332.630128 302.890543 
L 344.587179 293.154125 
L 356.544231 283.417706 
L 368.501282 267.190342 
L 380.458333 244.472032 
L 392.415385 219.157344 
L 404.372436 190.597183 
L 416.329487 183.457143 
L 428.286538 165.282495 
L 440.24359 166.580684 
L 452.200641 171.124346 
L 464.157692 171.773441 
L 476.114744 186.702616 
L 488.071795 188.000805 
L 500.028846 138.020523 
L 511.985897 127.63501 
L 523.942949 101.022133 
L 535.9 89.338431 
" clip-path="url(#p8663a95c60)" style="fill: none; stroke: #73b5e3; stroke-opacity: 0.5; stroke-width: 0.5; stroke-linecap: round"/>
   </g>
   <g id="line2d_38">
    <path d="M 69.575 102.969416 
L 81.532051 79.602012 
L 93.489103 86.092958 
L 105.446154 86.092958 
L 117.403205 89.987525 
L 129.360256 89.338431 
L 141.317308 99.723944 
L 153.274359 99.723944 
L 165.23141 106.863984 
L 177.188462 122.442254 
L 189.145513 145.160563 
L 201.102564 156.195171 
L 213.059615 178.264386 
L 225.016667 200.982696 
L 236.973718 228.244668 
L 248.930769 250.313883 
L 260.887821 267.839437 
L 272.844872 278.22495 
L 284.801923 284.066801 
L 296.758974 288.610463 
L 308.716026 296.399598 
L 320.673077 293.154125 
L 332.630128 286.663179 
L 344.587179 281.470423 
L 356.544231 269.78672 
L 368.501282 258.752113 
L 380.458333 241.875654 
L 392.415385 213.964588 
L 404.372436 188.000805 
L 416.329487 169.826157 
L 428.286538 151.651509 
L 440.24359 144.511469 
L 452.200641 154.896982 
L 464.157692 161.387928 
L 476.114744 174.369819 
L 488.071795 173.720724 
L 500.028846 152.949698 
L 511.985897 151.002414 
L 523.942949 139.967807 
L 535.9 119.196781 
" clip-path="url(#p8663a95c60)" style="fill: none; stroke: #73b5e3; stroke-opacity: 0.5; stroke-width: 0.5; stroke-linecap: round"/>
   </g>
   <g id="line2d_39">
    <path d="M 69.575 71.163783 
L 81.532051 78.303823 
L 93.489103 77.005634 
L 105.446154 74.409256 
L 117.403205 80.900201 
L 129.360256 89.338431 
L 141.317308 97.77666 
L 153.274359 100.373038 
L 165.23141 128.284105 
L 177.188462 149.704225 
L 189.145513 181.509859 
L 201.102564 204.877264 
L 213.059615 228.893763 
L 225.016667 256.804829 
L 236.973718 273.032193 
L 248.930769 287.961368 
L 260.887821 310.030584 
L 272.844872 309.381489 
L 284.801923 311.977867 
L 296.758974 318.468813 
L 308.716026 319.117907 
L 320.673077 317.819718 
L 332.630128 313.276056 
L 344.587179 303.539638 
L 356.544231 292.50503 
L 368.501282 277.575855 
L 380.458333 256.155734 
L 392.415385 226.946479 
L 404.372436 197.737223 
L 416.329487 173.07163 
L 428.286538 161.387928 
L 440.24359 153.598793 
L 452.200641 143.862374 
L 464.157692 155.546076 
L 476.114744 162.686117 
L 488.071795 128.933199 
L 500.028846 115.951308 
L 511.985897 101.671227 
L 523.942949 84.145674 
L 535.9 75.05835 
" clip-path="url(#p8663a95c60)" style="fill: none; stroke: #73b5e3; stroke-opacity: 0.5; stroke-width: 0.5; stroke-linecap: round"/>
   </g>
   <g id="line2d_40">
    <path d="M 69.575 75.05835 
L 81.532051 75.05835 
L 93.489103 65.971026 
L 105.446154 56.883702 
L 117.403205 67.91831 
L 129.360256 77.654728 
L 141.317308 76.356539 
L 153.274359 81.549296 
L 165.23141 87.391147 
L 177.188462 102.969416 
L 189.145513 123.091348 
L 201.102564 139.967807 
L 213.059615 165.93159 
L 225.016667 195.140845 
L 236.973718 221.104628 
L 248.930769 236.033803 
L 260.887821 263.295775 
L 272.844872 269.137626 
L 284.801923 279.523139 
L 296.758974 284.715895 
L 308.716026 286.663179 
L 320.673077 286.663179 
L 332.630128 282.119517 
L 344.587179 275.628571 
L 356.544231 271.734004 
L 368.501282 252.910262 
L 380.458333 232.78833 
L 392.415385 211.368209 
L 404.372436 191.246278 
L 416.329487 174.369819 
L 428.286538 146.458753 
L 440.24359 121.793159 
L 452.200641 112.05674 
L 464.157692 104.267606 
L 476.114744 105.565795 
L 488.071795 122.442254 
L 500.028846 124.389537 
L 511.985897 117.249497 
L 523.942949 110.109457 
L 535.9 89.987525 
" clip-path="url(#p8663a95c60)" style="fill: none; stroke: #73b5e3; stroke-opacity: 0.5; stroke-width: 0.5; stroke-linecap: round"/>
   </g>
   <g id="line2d_41">
    <path d="M 69.575 61.427364 
L 81.532051 67.269215 
L 93.489103 60.77827 
L 105.446154 65.971026 
L 117.403205 80.251107 
L 129.360256 78.303823 
L 141.317308 98.425755 
L 153.274359 108.811268 
L 165.23141 134.77505 
L 177.188462 147.107847 
L 189.145513 171.773441 
L 201.102564 193.193561 
L 213.059615 215.911871 
L 225.016667 247.06841 
L 236.973718 270.435815 
L 248.930769 282.768612 
L 260.887821 289.908652 
L 272.844872 297.697787 
L 284.801923 294.452314 
L 296.758974 297.697787 
L 308.716026 299.64507 
L 320.673077 295.101408 
L 332.630128 293.154125 
L 344.587179 273.681288 
L 356.544231 245.121127 
L 368.501282 223.051911 
L 380.458333 200.333602 
L 392.415385 181.509859 
L 404.372436 160.089738 
L 416.329487 143.862374 
L 428.286538 118.547686 
L 440.24359 117.898592 
L 452.200641 112.05674 
L 464.157692 101.671227 
L 476.114744 113.35493 
L 488.071795 99.074849 
L 500.028846 82.847485 
L 511.985897 62.725553 
L 523.942949 64.672837 
L 535.9 60.77827 
" clip-path="url(#p8663a95c60)" style="fill: none; stroke: #73b5e3; stroke-opacity: 0.5; stroke-width: 0.5; stroke-linecap: round"/>
   </g>
   <g id="line2d_42">
    <path d="M 69.575 87.391147 
L 81.532051 60.77827 
L 93.489103 55.585513 
L 105.446154 71.163783 
L 117.403205 78.303823 
L 129.360256 83.496579 
L 141.317308 91.285714 
L 153.274359 102.320322 
L 165.23141 115.302213 
L 177.188462 121.793159 
L 189.145513 136.722334 
L 201.102564 160.089738 
L 213.059615 186.702616 
L 225.016667 213.315493 
L 236.973718 237.331992 
L 248.930769 252.910262 
L 260.887821 264.593964 
L 272.844872 278.22495 
L 284.801923 284.066801 
L 296.758974 280.821328 
L 308.716026 284.715895 
L 320.673077 278.874044 
L 332.630128 276.926761 
L 344.587179 267.190342 
L 356.544231 247.06841 
L 368.501282 222.402817 
L 380.458333 202.280885 
L 392.415385 180.860765 
L 404.372436 158.791549 
L 416.329487 138.669618 
L 428.286538 129.582294 
L 440.24359 107.513078 
L 452.200641 97.127565 
L 464.157692 84.145674 
L 476.114744 78.303823 
L 488.071795 154.896982 
L 500.028846 143.21328 
L 511.985897 124.389537 
L 523.942949 115.951308 
L 535.9 102.320322 
" clip-path="url(#p8663a95c60)" style="fill: none; stroke: #73b5e3; stroke-opacity: 0.5; stroke-width: 0.5; stroke-linecap: round"/>
   </g>
   <g id="line2d_43">
    <path d="M 69.575 69.216499 
L 81.532051 69.865594 
L 93.489103 67.91831 
L 105.446154 67.91831 
L 117.403205 79.602012 
L 129.360256 75.707445 
L 141.317308 81.549296 
L 153.274359 102.320322 
L 165.23141 114.004024 
L 177.188462 132.178672 
L 189.145513 158.142455 
L 201.102564 173.720724 
L 213.059615 201.631791 
L 225.016667 230.191952 
L 236.973718 252.910262 
L 248.930769 269.137626 
L 260.887821 287.312274 
L 272.844872 289.908652 
L 284.801923 301.592354 
L 296.758974 306.785111 
L 308.716026 307.434205 
L 320.673077 300.94326 
L 332.630128 300.94326 
L 344.587179 290.557746 
L 356.544231 278.22495 
L 368.501282 266.541247 
L 380.458333 247.717505 
L 392.415385 215.911871 
L 404.372436 189.298994 
L 416.329487 169.177062 
L 428.286538 140.616901 
L 440.24359 108.811268 
L 452.200641 107.513078 
L 464.157692 93.232998 
L 476.114744 89.338431 
L 488.071795 146.458753 
L 500.028846 128.284105 
L 511.985897 106.863984 
L 523.942949 91.934809 
L 535.9 75.707445 
" clip-path="url(#p8663a95c60)" style="fill: none; stroke: #73b5e3; stroke-opacity: 0.5; stroke-width: 0.5; stroke-linecap: round"/>
   </g>
   <g id="line2d_44">
    <path d="M 69.575 130.231388 
L 81.532051 97.127565 
L 93.489103 86.092958 
L 105.446154 80.251107 
L 117.403205 82.19839 
L 129.360256 84.794769 
L 141.317308 89.338431 
L 153.274359 101.022133 
L 165.23141 112.05674 
L 177.188462 127.63501 
L 189.145513 138.020523 
L 201.102564 161.387928 
L 213.059615 176.966197 
L 225.016667 201.631791 
L 236.973718 217.859155 
L 248.930769 236.682897 
L 260.887821 256.155734 
L 272.844872 268.488531 
L 284.801923 284.715895 
L 296.758974 280.172233 
L 308.716026 295.750503 
L 320.673077 293.154125 
L 332.630128 284.715895 
L 344.587179 276.277666 
L 356.544231 261.997586 
L 368.501282 244.472032 
L 380.458333 224.350101 
L 392.415385 208.122736 
L 404.372436 180.860765 
L 416.329487 154.247887 
L 428.286538 135.424145 
L 440.24359 122.442254 
L 452.200641 108.811268 
L 464.157692 108.811268 
L 476.114744 94.531187 
L 488.071795 82.847485 
L 500.028846 175.668008 
L 511.985897 164.6334 
L 523.942949 160.738833 
L 535.9 143.21328 
" clip-path="url(#p8663a95c60)" style="fill: none; stroke: #73b5e3; stroke-opacity: 0.5; stroke-width: 0.5; stroke-linecap: round"/>
   </g>
   <g id="line2d_45">
    <path d="M 69.575 141.915091 
L 81.532051 138.669618 
L 93.489103 128.284105 
L 105.446154 117.249497 
L 117.403205 111.407646 
L 129.360256 130.880483 
L 141.317308 129.582294 
L 153.274359 133.476861 
L 165.23141 144.511469 
L 177.188462 163.984306 
L 189.145513 183.457143 
L 201.102564 201.631791 
L 213.059615 234.086519 
L 225.016667 250.962978 
L 236.973718 274.330382 
L 248.930769 286.663179 
L 260.887821 298.995976 
L 272.844872 303.539638 
L 284.801923 312.626962 
L 296.758974 311.328773 
L 308.716026 313.925151 
L 320.673077 307.434205 
L 332.630128 312.626962 
L 344.587179 305.486922 
L 356.544231 286.014085 
L 368.501282 275.628571 
L 380.458333 256.155734 
L 392.415385 223.701006 
L 404.372436 194.491751 
L 416.329487 171.124346 
L 428.286538 151.651509 
L 440.24359 125.038632 
L 452.200641 107.513078 
L 464.157692 110.109457 
L 476.114744 96.478471 
L 488.071795 83.496579 
L 500.028846 78.303823 
L 511.985897 187.35171 
L 523.942949 184.106237 
L 535.9 162.686117 
" clip-path="url(#p8663a95c60)" style="fill: none; stroke: #73b5e3; stroke-opacity: 0.5; stroke-width: 0.5; stroke-linecap: round"/>
   </g>
   <g id="line2d_46">
    <path d="M 69.575 134.125956 
L 81.532051 126.985915 
L 93.489103 117.898592 
L 105.446154 120.49497 
L 117.403205 126.985915 
L 129.360256 138.669618 
L 141.317308 142.564185 
L 153.274359 150.35332 
L 165.23141 166.580684 
L 177.188462 185.404427 
L 189.145513 204.228169 
L 201.102564 213.964588 
L 213.059615 243.173843 
L 225.016667 262.64668 
L 236.973718 276.277666 
L 248.930769 289.259557 
L 260.887821 291.206841 
L 272.844872 290.557746 
L 284.801923 294.452314 
L 296.758974 295.101408 
L 308.716026 295.750503 
L 320.673077 283.417706 
L 332.630128 269.78672 
L 344.587179 254.208451 
L 356.544231 241.226559 
L 368.501282 215.911871 
L 380.458333 193.842656 
L 392.415385 171.124346 
L 404.372436 155.546076 
L 416.329487 143.21328 
L 428.286538 131.529577 
L 440.24359 117.249497 
L 452.200641 99.074849 
L 464.157692 94.531187 
L 476.114744 181.509859 
L 488.071795 191.895372 
L 500.028846 200.982696 
L 511.985897 192.544467 
L 523.942949 159.440644 
L 535.9 134.77505 
" clip-path="url(#p8663a95c60)" style="fill: none; stroke: #73b5e3; stroke-opacity: 0.5; stroke-width: 0.5; stroke-linecap: round"/>
   </g>
   <g id="line2d_47">
    <path d="M 69.575 105.565795 
L 81.532051 94.531187 
L 93.489103 83.496579 
L 105.446154 80.900201 
L 117.403205 78.952918 
L 129.360256 84.794769 
L 141.317308 91.285714 
L 153.274359 91.285714 
L 165.23141 112.05674 
L 177.188462 117.898592 
L 189.145513 112.05674 
L 201.102564 130.231388 
L 213.059615 128.933199 
L 225.016667 138.669618 
L 236.973718 169.177062 
L 248.930769 189.948089 
L 260.887821 211.368209 
L 272.844872 247.717505 
L 284.801923 250.962978 
L 296.758974 265.892153 
L 308.716026 274.979477 
L 320.673077 273.032193 
L 332.630128 273.032193 
L 344.587179 269.78672 
L 356.544231 257.453924 
L 368.501282 248.3666 
L 380.458333 228.893763 
L 392.415385 213.315493 
L 404.372436 193.842656 
L 416.329487 193.193561 
L 428.286538 192.544467 
L 440.24359 193.842656 
L 452.200641 193.193561 
L 464.157692 193.193561 
L 476.114744 191.246278 
L 488.071795 188.649899 
L 500.028846 145.809658 
L 511.985897 134.77505 
L 523.942949 142.564185 
L 535.9 125.038632 
" clip-path="url(#p8663a95c60)" style="fill: none; stroke: #73b5e3; stroke-opacity: 0.5; stroke-width: 0.5; stroke-linecap: round"/>
   </g>
   <g id="line2d_48">
    <path d="M 69.575 61.427364 
L 81.532051 62.076459 
L 93.489103 58.830986 
L 105.446154 62.076459 
L 117.403205 70.514688 
L 129.360256 89.338431 
L 141.317308 88.040241 
L 153.274359 108.811268 
L 165.23141 102.320322 
L 177.188462 107.513078 
L 189.145513 121.793159 
L 201.102564 140.616901 
L 213.059615 165.93159 
L 225.016667 182.808048 
L 236.973718 218.508249 
L 248.930769 233.437425 
L 260.887821 247.717505 
L 272.844872 255.50664 
L 284.801923 265.892153 
L 296.758974 271.084909 
L 308.716026 274.330382 
L 320.673077 269.137626 
L 332.630128 268.488531 
L 344.587179 260.050302 
L 356.544231 243.822938 
L 368.501282 219.157344 
L 380.458333 199.035412 
L 392.415385 184.755332 
L 404.372436 154.896982 
L 416.329487 152.949698 
L 428.286538 147.107847 
L 440.24359 164.6334 
L 452.200641 174.369819 
L 464.157692 177.615292 
L 476.114744 175.018913 
L 488.071795 180.860765 
L 500.028846 120.49497 
L 511.985897 105.565795 
L 523.942949 77.654728 
L 535.9 59.48008 
" clip-path="url(#p8663a95c60)" style="fill: none; stroke: #73b5e3; stroke-opacity: 0.5; stroke-width: 0.5; stroke-linecap: round"/>
   </g>
   <g id="line2d_49">
    <path d="M 69.575 70.514688 
L 81.532051 68.567404 
L 93.489103 74.409256 
L 105.446154 81.549296 
L 117.403205 77.654728 
L 129.360256 86.092958 
L 141.317308 92.583903 
L 153.274359 97.127565 
L 165.23141 114.004024 
L 177.188462 123.091348 
L 189.145513 141.265996 
L 201.102564 162.686117 
L 213.059615 180.860765 
L 225.016667 210.07002 
L 236.973718 226.946479 
L 248.930769 250.962978 
L 260.887821 264.593964 
L 272.844872 284.715895 
L 284.801923 283.417706 
L 296.758974 286.663179 
L 308.716026 291.206841 
L 320.673077 285.36499 
L 332.630128 269.78672 
L 344.587179 262.64668 
L 356.544231 241.875654 
L 368.501282 225.64829 
L 380.458333 186.053521 
L 392.415385 162.686117 
L 404.372436 146.458753 
L 416.329487 135.424145 
L 428.286538 123.740443 
L 440.24359 136.073239 
L 452.200641 157.49336 
L 464.157692 160.738833 
L 476.114744 173.720724 
L 488.071795 112.05674 
L 500.028846 97.127565 
L 511.985897 84.794769 
L 523.942949 57.532797 
L 535.9 64.023742 
" clip-path="url(#p8663a95c60)" style="fill: none; stroke: #73b5e3; stroke-opacity: 0.5; stroke-width: 0.5; stroke-linecap: round"/>
   </g>
   <g id="line2d_50">
    <path d="M 69.575 65.321932 
L 81.532051 61.427364 
L 93.489103 58.830986 
L 105.446154 50.392757 
L 117.403205 60.77827 
L 129.360256 74.409256 
L 141.317308 70.514688 
L 153.274359 73.111066 
L 165.23141 77.005634 
L 177.188462 92.583903 
L 189.145513 102.320322 
L 201.102564 125.038632 
L 213.059615 126.336821 
L 225.016667 149.055131 
L 236.973718 169.826157 
L 248.930769 200.982696 
L 260.887821 225.64829 
L 272.844872 239.92837 
L 284.801923 263.295775 
L 296.758974 263.295775 
L 308.716026 271.084909 
L 320.673077 264.593964 
L 332.630128 261.997586 
L 344.587179 264.593964 
L 356.544231 258.752113 
L 368.501282 254.208451 
L 380.458333 233.437425 
L 392.415385 207.473642 
L 404.372436 184.106237 
L 416.329487 158.142455 
L 428.286538 134.125956 
L 440.24359 130.231388 
L 452.200641 115.302213 
L 464.157692 110.758551 
L 476.114744 108.162173 
L 488.071795 119.196781 
L 500.028846 125.687726 
L 511.985897 137.371429 
L 523.942949 93.232998 
L 535.9 88.689336 
" clip-path="url(#p8663a95c60)" style="fill: none; stroke: #73b5e3; stroke-opacity: 0.5; stroke-width: 0.5; stroke-linecap: round"/>
   </g>
   <g id="line2d_51">
    <path d="M 69.575 47.796378 
L 81.532051 61.427364 
L 93.489103 60.129175 
L 105.446154 73.760161 
L 117.403205 71.812877 
L 129.360256 78.952918 
L 141.317308 95.180282 
L 153.274359 93.232998 
L 165.23141 96.478471 
L 177.188462 113.35493 
L 189.145513 123.740443 
L 201.102564 154.247887 
L 213.059615 174.369819 
L 225.016667 192.544467 
L 236.973718 219.806439 
L 248.930769 238.630181 
L 260.887821 253.559356 
L 272.844872 265.892153 
L 284.801923 269.137626 
L 296.758974 271.084909 
L 308.716026 274.979477 
L 320.673077 262.64668 
L 332.630128 260.699396 
L 344.587179 240.577465 
L 356.544231 221.753722 
L 368.501282 214.613682 
L 380.458333 188.000805 
L 392.415385 156.195171 
L 404.372436 136.722334 
L 416.329487 119.845875 
L 428.286538 110.109457 
L 440.24359 99.074849 
L 452.200641 83.496579 
L 464.157692 78.303823 
L 476.114744 84.794769 
L 488.071795 117.249497 
L 500.028846 106.863984 
L 511.985897 79.602012 
L 523.942949 59.48008 
L 535.9 59.48008 
" clip-path="url(#p8663a95c60)" style="fill: none; stroke: #73b5e3; stroke-opacity: 0.5; stroke-width: 0.5; stroke-linecap: round"/>
   </g>
   <g id="line2d_52">
    <path d="M 69.575 59.48008 
L 81.532051 52.989135 
L 93.489103 52.989135 
L 105.446154 62.076459 
L 117.403205 75.05835 
L 129.360256 71.163783 
L 141.317308 82.847485 
L 153.274359 82.847485 
L 165.23141 91.934809 
L 177.188462 100.373038 
L 189.145513 121.144064 
L 201.102564 134.77505 
L 213.059615 160.089738 
L 225.016667 180.860765 
L 236.973718 201.631791 
L 248.930769 220.455533 
L 260.887821 236.033803 
L 272.844872 243.173843 
L 284.801923 246.419316 
L 296.758974 244.472032 
L 308.716026 250.962978 
L 320.673077 250.313883 
L 332.630128 245.770221 
L 344.587179 237.331992 
L 356.544231 208.122736 
L 368.501282 180.860765 
L 380.458333 170.475252 
L 392.415385 145.809658 
L 404.372436 134.125956 
L 416.329487 115.302213 
L 428.286538 105.565795 
L 440.24359 104.9167 
L 452.200641 93.232998 
L 464.157692 84.145674 
L 476.114744 88.040241 
L 488.071795 83.496579 
L 500.028846 90.63662 
L 511.985897 78.952918 
L 523.942949 56.883702 
L 535.9 48.445473 
" clip-path="url(#p8663a95c60)" style="fill: none; stroke: #73b5e3; stroke-opacity: 0.5; stroke-width: 0.5; stroke-linecap: round"/>
   </g>
   <g id="line2d_53">
    <path d="M 69.575 51.041851 
L 81.532051 51.690946 
L 93.489103 62.725553 
L 105.446154 60.77827 
L 117.403205 67.269215 
L 129.360256 72.461972 
L 141.317308 88.689336 
L 153.274359 91.285714 
L 165.23141 107.513078 
L 177.188462 108.162173 
L 189.145513 119.196781 
L 201.102564 136.073239 
L 213.059615 163.984306 
L 225.016667 181.509859 
L 236.973718 210.07002 
L 248.930769 237.331992 
L 260.887821 252.910262 
L 272.844872 258.103018 
L 284.801923 273.681288 
L 296.758974 272.383099 
L 308.716026 278.22495 
L 320.673077 276.277666 
L 332.630128 272.383099 
L 344.587179 261.348491 
L 356.544231 234.086519 
L 368.501282 202.280885 
L 380.458333 171.773441 
L 392.415385 153.598793 
L 404.372436 121.144064 
L 416.329487 104.267606 
L 428.286538 99.074849 
L 440.24359 88.689336 
L 452.200641 88.689336 
L 464.157692 75.707445 
L 476.114744 65.971026 
L 488.071795 59.48008 
L 500.028846 106.214889 
L 511.985897 86.092958 
L 523.942949 68.567404 
L 535.9 56.883702 
" clip-path="url(#p8663a95c60)" style="fill: none; stroke: #73b5e3; stroke-opacity: 0.5; stroke-width: 0.5; stroke-linecap: round"/>
   </g>
   <g id="line2d_54">
    <path d="M 69.575 87.391147 
L 81.532051 71.163783 
L 93.489103 54.936419 
L 105.446154 54.936419 
L 117.403205 54.936419 
L 129.360256 45.2 
L 141.317308 56.883702 
L 153.274359 61.427364 
L 165.23141 65.321932 
L 177.188462 76.356539 
L 189.145513 95.180282 
L 201.102564 100.373038 
L 213.059615 126.985915 
L 225.016667 131.529577 
L 236.973718 161.387928 
L 248.930769 199.035412 
L 260.887821 228.893763 
L 272.844872 244.472032 
L 284.801923 252.910262 
L 296.758974 271.084909 
L 308.716026 280.172233 
L 320.673077 277.575855 
L 332.630128 275.628571 
L 344.587179 272.383099 
L 356.544231 258.752113 
L 368.501282 229.542857 
L 380.458333 211.368209 
L 392.415385 183.457143 
L 404.372436 158.791549 
L 416.329487 139.967807 
L 428.286538 114.653119 
L 440.24359 92.583903 
L 452.200641 87.391147 
L 464.157692 83.496579 
L 476.114744 72.461972 
L 488.071795 78.303823 
L 500.028846 159.440644 
L 511.985897 151.002414 
L 523.942949 137.371429 
L 535.9 123.091348 
" clip-path="url(#p8663a95c60)" style="fill: none; stroke: #73b5e3; stroke-opacity: 0.5; stroke-width: 0.5; stroke-linecap: round"/>
   </g>
   <g id="line2d_55">
    <path d="M 69.575 108.162173 
L 81.532051 86.742052 
L 93.489103 88.689336 
L 105.446154 75.707445 
L 117.403205 76.356539 
L 129.360256 81.549296 
L 141.317308 103.618511 
L 153.274359 102.320322 
L 165.23141 115.951308 
L 177.188462 124.389537 
L 189.145513 132.827767 
L 201.102564 155.546076 
L 213.059615 160.089738 
L 225.016667 186.702616 
L 236.973718 200.982696 
L 248.930769 228.244668 
L 260.887821 249.664789 
L 272.844872 265.243058 
L 284.801923 283.417706 
L 296.758974 284.715895 
L 308.716026 291.855936 
L 320.673077 290.557746 
L 332.630128 290.557746 
L 344.587179 290.557746 
L 356.544231 283.417706 
L 368.501282 273.032193 
L 380.458333 252.261167 
L 392.415385 233.437425 
L 404.372436 205.526358 
L 416.329487 172.422535 
L 428.286538 149.055131 
L 440.24359 131.529577 
L 452.200641 129.582294 
L 464.157692 107.513078 
L 476.114744 99.723944 
L 488.071795 95.829376 
L 500.028846 86.742052 
L 511.985897 77.654728 
L 523.942949 156.195171 
L 535.9 133.476861 
" clip-path="url(#p8663a95c60)" style="fill: none; stroke: #73b5e3; stroke-opacity: 0.5; stroke-width: 0.5; stroke-linecap: round"/>
   </g>
   <g id="line2d_56">
    <path d="M 69.575 150.35332 
L 81.532051 131.529577 
L 93.489103 121.144064 
L 105.446154 108.162173 
L 117.403205 97.127565 
L 129.360256 100.373038 
L 141.317308 100.373038 
L 153.274359 112.05674 
L 165.23141 110.109457 
L 177.188462 115.951308 
L 189.145513 126.336821 
L 201.102564 141.915091 
L 213.059615 165.282495 
L 225.016667 193.193561 
L 236.973718 215.911871 
L 248.930769 230.191952 
L 260.887821 267.190342 
L 272.844872 287.961368 
L 284.801923 300.294165 
L 296.758974 304.837827 
L 308.716026 307.434205 
L 320.673077 304.837827 
L 332.630128 305.486922 
L 344.587179 304.837827 
L 356.544231 291.206841 
L 368.501282 274.330382 
L 380.458333 261.348491 
L 392.415385 235.384708 
L 404.372436 202.280885 
L 416.329487 183.457143 
L 428.286538 146.458753 
L 440.24359 136.722334 
L 452.200641 129.582294 
L 464.157692 119.196781 
L 476.114744 116.600402 
L 488.071795 102.320322 
L 500.028846 89.987525 
L 511.985897 80.900201 
L 523.942949 173.720724 
L 535.9 175.668008 
" clip-path="url(#p8663a95c60)" style="fill: none; stroke: #73b5e3; stroke-opacity: 0.5; stroke-width: 0.5; stroke-linecap: round"/>
   </g>
   <g id="line2d_57">
    <path d="M 69.575 182.808048 
L 81.532051 159.440644 
L 93.489103 149.704225 
L 105.446154 138.669618 
L 117.403205 125.687726 
L 129.360256 128.284105 
L 141.317308 126.336821 
L 153.274359 130.880483 
L 165.23141 147.107847 
L 177.188462 163.335211 
L 189.145513 168.527968 
L 201.102564 185.404427 
L 213.059615 202.280885 
L 225.016667 212.017304 
L 236.973718 247.06841 
L 248.930769 258.752113 
L 260.887821 286.014085 
L 272.844872 284.066801 
L 284.801923 297.048692 
L 296.758974 303.539638 
L 308.716026 309.381489 
L 320.673077 302.890543 
L 332.630128 298.346881 
L 344.587179 291.855936 
L 356.544231 289.908652 
L 368.501282 271.734004 
L 380.458333 249.664789 
L 392.415385 236.033803 
L 404.372436 206.175453 
L 416.329487 186.053521 
L 428.286538 173.07163 
L 440.24359 146.458753 
L 452.200641 134.77505 
L 464.157692 132.827767 
L 476.114744 112.05674 
L 488.071795 94.531187 
L 500.028846 86.742052 
L 511.985897 189.948089 
L 523.942949 180.21167 
L 535.9 180.21167 
" clip-path="url(#p8663a95c60)" style="fill: none; stroke: #73b5e3; stroke-opacity: 0.5; stroke-width: 0.5; stroke-linecap: round"/>
   </g>
   <g id="line2d_58">
    <path d="M 69.575 93.852588 
L 81.532051 85.945436 
L 93.489103 81.549296 
L 105.446154 81.37227 
L 117.403205 84.381708 
L 129.360256 89.721986 
L 141.317308 97.216078 
L 153.274359 103.648015 
L 165.23141 114.918657 
L 177.188462 127.103933 
L 189.145513 142.652698 
L 201.102564 160.679824 
L 213.059615 181.952424 
L 225.016667 203.667587 
L 236.973718 226.592427 
L 248.930769 246.24229 
L 260.887821 264.269416 
L 272.844872 274.743442 
L 284.801923 283.181672 
L 296.758974 286.663179 
L 308.716026 292.062466 
L 320.673077 287.636821 
L 332.630128 284.125809 
L 344.587179 276.484196 
L 356.544231 262.174611 
L 368.501282 244.855588 
L 380.458333 224.173075 
L 392.415385 201.454765 
L 404.372436 177.113719 
L 416.329487 159.499652 
L 428.286538 143.036254 
L 440.24359 133.063801 
L 452.200641 127.694019 
L 464.157692 123.327382 
L 476.114744 126.336821 
L 488.071795 127.753027 
L 500.028846 123.327382 
L 511.985897 122.383245 
L 523.942949 116.452881 
L 535.9 104.887196 
" clip-path="url(#p8663a95c60)" style="fill: none; stroke: #73b5e3; stroke-width: 2.5; stroke-linecap: round"/>
   </g>
   <g id="line2d_59">
    <path d="M 69.575 136.073239 
L 81.532051 125.038632 
L 93.489103 112.05674 
L 105.446154 109.460362 
L 117.403205 112.705835 
L 129.360256 115.302213 
L 141.317308 120.49497 
L 153.274359 129.582294 
L 165.23141 143.862374 
L 177.188462 149.704225 
L 189.145513 162.037022 
L 201.102564 195.78994 
L 213.059615 232.139235 
L 225.016667 260.699396 
L 236.973718 282.768612 
L 248.930769 304.188732 
L 260.887821 323.012475 
L 272.844872 339.239839 
L 284.801923 347.678068 
L 296.758974 353.51992 
L 308.716026 358.063581 
L 320.673077 356.116298 
L 332.630128 354.818109 
L 344.587179 357.414487 
L 356.544231 356.116298 
L 368.501282 352.22173 
L 380.458333 343.783501 
L 392.415385 328.205231 
L 404.372436 310.030584 
L 416.329487 289.908652 
L 428.286538 261.997586 
L 440.24359 230.191952 
L 452.200641 202.280885 
L 464.157692 197.088129 
L 476.114744 193.842656 
L 488.071795 182.808048 
L 500.028846 186.702616 
L 511.985897 193.842656 
L 523.942949 197.737223 
L 535.9 151.002414 
" clip-path="url(#p8663a95c60)" style="fill: none; stroke: #ffb984; stroke-opacity: 0.5; stroke-width: 0.5; stroke-linecap: round"/>
   </g>
   <g id="line2d_60">
    <path d="M 69.575 90.63662 
L 81.532051 84.794769 
L 93.489103 83.496579 
L 105.446154 93.232998 
L 117.403205 102.969416 
L 129.360256 107.513078 
L 141.317308 110.758551 
L 153.274359 122.442254 
L 165.23141 149.704225 
L 177.188462 178.264386 
L 189.145513 208.771831 
L 201.102564 245.770221 
L 213.059615 275.628571 
L 225.016667 299.64507 
L 236.973718 326.257948 
L 248.930769 337.292555 
L 260.887821 342.485312 
L 272.844872 352.22173 
L 284.801923 360.65996 
L 296.758974 361.309054 
L 308.716026 363.905433 
L 320.673077 362.607243 
L 332.630128 356.116298 
L 344.587179 354.818109 
L 356.544231 353.51992 
L 368.501282 345.08169 
L 380.458333 330.152515 
L 392.415385 306.785111 
L 404.372436 273.032193 
L 416.329487 236.033803 
L 428.286538 213.964588 
L 440.24359 202.92998 
L 452.200641 188.000805 
L 464.157692 186.053521 
L 476.114744 186.702616 
L 488.071795 141.915091 
L 500.028846 140.616901 
L 511.985897 131.529577 
L 523.942949 107.513078 
L 535.9 93.232998 
" clip-path="url(#p8663a95c60)" style="fill: none; stroke: #ffb984; stroke-opacity: 0.5; stroke-width: 0.5; stroke-linecap: round"/>
   </g>
   <g id="line2d_61">
    <path d="M 69.575 111.407646 
L 81.532051 114.653119 
L 93.489103 105.565795 
L 105.446154 97.127565 
L 117.403205 106.214889 
L 129.360256 113.35493 
L 141.317308 119.196781 
L 153.274359 125.038632 
L 165.23141 138.669618 
L 177.188462 160.738833 
L 189.145513 192.544467 
L 201.102564 233.437425 
L 213.059615 267.190342 
L 225.016667 289.908652 
L 236.973718 313.925151 
L 248.930769 328.854326 
L 260.887821 333.397988 
L 272.844872 341.836217 
L 284.801923 345.730785 
L 296.758974 342.485312 
L 308.716026 347.678068 
L 320.673077 347.028974 
L 332.630128 343.134406 
L 344.587179 337.94165 
L 356.544231 327.556137 
L 368.501282 304.188732 
L 380.458333 287.312274 
L 392.415385 268.488531 
L 404.372436 233.437425 
L 416.329487 204.228169 
L 428.286538 170.475252 
L 440.24359 142.564185 
L 452.200641 126.336821 
L 464.157692 121.144064 
L 476.114744 124.389537 
L 488.071795 134.77505 
L 500.028846 145.160563 
L 511.985897 148.406036 
L 523.942949 156.844266 
L 535.9 128.933199 
" clip-path="url(#p8663a95c60)" style="fill: none; stroke: #ffb984; stroke-opacity: 0.5; stroke-width: 0.5; stroke-linecap: round"/>
   </g>
   <g id="line2d_62">
    <path d="M 69.575 90.63662 
L 81.532051 91.285714 
L 93.489103 98.425755 
L 105.446154 105.565795 
L 117.403205 109.460362 
L 129.360256 123.091348 
L 141.317308 131.529577 
L 153.274359 147.756942 
L 165.23141 174.369819 
L 177.188462 195.78994 
L 189.145513 224.999195 
L 201.102564 253.559356 
L 213.059615 275.628571 
L 225.016667 295.101408 
L 236.973718 310.679678 
L 248.930769 323.661569 
L 260.887821 328.854326 
L 272.844872 332.748893 
L 284.801923 339.888934 
L 296.758974 340.538028 
L 308.716026 342.485312 
L 320.673077 339.239839 
L 332.630128 334.047082 
L 344.587179 330.80161 
L 356.544231 323.012475 
L 368.501282 309.381489 
L 380.458333 286.014085 
L 392.415385 267.190342 
L 404.372436 243.822938 
L 416.329487 209.420926 
L 428.286538 182.808048 
L 440.24359 156.195171 
L 452.200641 143.862374 
L 464.157692 136.073239 
L 476.114744 128.933199 
L 488.071795 140.616901 
L 500.028846 151.651509 
L 511.985897 116.600402 
L 523.942949 104.9167 
L 535.9 97.77666 
" clip-path="url(#p8663a95c60)" style="fill: none; stroke: #ffb984; stroke-opacity: 0.5; stroke-width: 0.5; stroke-linecap: round"/>
   </g>
   <g id="line2d_63">
    <path d="M 69.575 120.49497 
L 81.532051 138.669618 
L 93.489103 132.178672 
L 105.446154 118.547686 
L 117.403205 110.109457 
L 129.360256 104.9167 
L 141.317308 113.35493 
L 153.274359 123.091348 
L 165.23141 117.898592 
L 177.188462 117.249497 
L 189.145513 131.529577 
L 201.102564 154.247887 
L 213.059615 177.615292 
L 225.016667 212.666398 
L 236.973718 245.770221 
L 248.930769 278.22495 
L 260.887821 304.837827 
L 272.844872 323.661569 
L 284.801923 335.994366 
L 296.758974 350.274447 
L 308.716026 355.467203 
L 320.673077 353.51992 
L 332.630128 350.923541 
L 344.587179 349.625352 
L 356.544231 345.08169 
L 368.501282 339.888934 
L 380.458333 328.205231 
L 392.415385 312.626962 
L 404.372436 291.855936 
L 416.329487 265.892153 
L 428.286538 245.770221 
L 440.24359 221.104628 
L 452.200641 184.106237 
L 464.157692 158.142455 
L 476.114744 138.669618 
L 488.071795 120.49497 
L 500.028846 113.35493 
L 511.985897 105.565795 
L 523.942949 102.969416 
L 535.9 106.863984 
" clip-path="url(#p8663a95c60)" style="fill: none; stroke: #ffb984; stroke-opacity: 0.5; stroke-width: 0.5; stroke-linecap: round"/>
   </g>
   <g id="line2d_64">
    <path d="M 69.575 86.092958 
L 81.532051 90.63662 
L 93.489103 91.285714 
L 105.446154 95.829376 
L 117.403205 101.022133 
L 129.360256 104.267606 
L 141.317308 116.600402 
L 153.274359 141.915091 
L 165.23141 175.018913 
L 177.188462 207.473642 
L 189.145513 244.472032 
L 201.102564 278.874044 
L 213.059615 302.241449 
L 225.016667 324.310664 
L 236.973718 339.888934 
L 248.930769 347.678068 
L 260.887821 351.572636 
L 272.844872 354.169014 
L 284.801923 356.116298 
L 296.758974 356.116298 
L 308.716026 356.765392 
L 320.673077 352.870825 
L 332.630128 343.783501 
L 344.587179 337.292555 
L 356.544231 332.748893 
L 368.501282 317.819718 
L 380.458333 292.50503 
L 392.415385 260.050302 
L 404.372436 223.701006 
L 416.329487 186.053521 
L 428.286538 152.949698 
L 440.24359 131.529577 
L 452.200641 114.004024 
L 464.157692 108.811268 
L 476.114744 104.267606 
L 488.071795 107.513078 
L 500.028846 105.565795 
L 511.985897 125.687726 
L 523.942949 114.004024 
L 535.9 96.478471 
" clip-path="url(#p8663a95c60)" style="fill: none; stroke: #ffb984; stroke-opacity: 0.5; stroke-width: 0.5; stroke-linecap: round"/>
   </g>
   <g id="line2d_65">
    <path d="M 69.575 85.443863 
L 81.532051 88.040241 
L 93.489103 91.934809 
L 105.446154 95.180282 
L 117.403205 97.77666 
L 129.360256 101.671227 
L 141.317308 112.05674 
L 153.274359 121.144064 
L 165.23141 137.371429 
L 177.188462 163.984306 
L 189.145513 197.737223 
L 201.102564 230.191952 
L 213.059615 258.103018 
L 225.016667 287.961368 
L 236.973718 307.434205 
L 248.930769 319.117907 
L 260.887821 333.397988 
L 272.844872 341.187123 
L 284.801923 340.538028 
L 296.758974 341.187123 
L 308.716026 345.08169 
L 320.673077 345.08169 
L 332.630128 339.888934 
L 344.587179 334.047082 
L 356.544231 324.959759 
L 368.501282 301.592354 
L 380.458333 267.190342 
L 392.415385 237.331992 
L 404.372436 195.78994 
L 416.329487 156.195171 
L 428.286538 136.722334 
L 440.24359 123.740443 
L 452.200641 109.460362 
L 464.157692 102.320322 
L 476.114744 97.77666 
L 488.071795 93.232998 
L 500.028846 126.985915 
L 511.985897 106.863984 
L 523.942949 90.63662 
L 535.9 88.689336 
" clip-path="url(#p8663a95c60)" style="fill: none; stroke: #ffb984; stroke-opacity: 0.5; stroke-width: 0.5; stroke-linecap: round"/>
   </g>
   <g id="line2d_66">
    <path d="M 69.575 110.109457 
L 81.532051 106.863984 
L 93.489103 95.180282 
L 105.446154 90.63662 
L 117.403205 100.373038 
L 129.360256 115.951308 
L 141.317308 118.547686 
L 153.274359 126.985915 
L 165.23141 153.598793 
L 177.188462 177.615292 
L 189.145513 206.175453 
L 201.102564 240.577465 
L 213.059615 273.032193 
L 225.016667 302.890543 
L 236.973718 321.714286 
L 248.930769 336.643461 
L 260.887821 343.783501 
L 272.844872 343.783501 
L 284.801923 347.028974 
L 296.758974 349.625352 
L 308.716026 350.274447 
L 320.673077 345.08169 
L 332.630128 339.888934 
L 344.587179 335.345272 
L 356.544231 321.065191 
L 368.501282 298.346881 
L 380.458333 270.435815 
L 392.415385 232.139235 
L 404.372436 195.140845 
L 416.329487 164.6334 
L 428.286538 137.371429 
L 440.24359 122.442254 
L 452.200641 109.460362 
L 464.157692 100.373038 
L 476.114744 97.127565 
L 488.071795 92.583903 
L 500.028846 86.742052 
L 511.985897 139.318712 
L 523.942949 122.442254 
L 535.9 108.811268 
" clip-path="url(#p8663a95c60)" style="fill: none; stroke: #ffb984; stroke-opacity: 0.5; stroke-width: 0.5; stroke-linecap: round"/>
   </g>
   <g id="line2d_67">
    <path d="M 69.575 100.373038 
L 81.532051 93.882093 
L 93.489103 95.829376 
L 105.446154 101.022133 
L 117.403205 112.05674 
L 129.360256 117.898592 
L 141.317308 124.389537 
L 153.274359 132.178672 
L 165.23141 153.598793 
L 177.188462 186.702616 
L 189.145513 214.613682 
L 201.102564 241.875654 
L 213.059615 269.137626 
L 225.016667 294.452314 
L 236.973718 313.925151 
L 248.930769 323.661569 
L 260.887821 328.854326 
L 272.844872 334.047082 
L 284.801923 338.590744 
L 296.758974 341.187123 
L 308.716026 341.836217 
L 320.673077 335.345272 
L 332.630128 323.012475 
L 344.587179 307.434205 
L 356.544231 286.014085 
L 368.501282 260.050302 
L 380.458333 228.244668 
L 392.415385 193.193561 
L 404.372436 163.984306 
L 416.329487 141.915091 
L 428.286538 128.284105 
L 440.24359 115.951308 
L 452.200641 103.618511 
L 464.157692 96.478471 
L 476.114744 93.882093 
L 488.071795 84.794769 
L 500.028846 164.6334 
L 511.985897 149.055131 
L 523.942949 130.880483 
L 535.9 112.705835 
" clip-path="url(#p8663a95c60)" style="fill: none; stroke: #ffb984; stroke-opacity: 0.5; stroke-width: 0.5; stroke-linecap: round"/>
   </g>
   <g id="line2d_68">
    <path d="M 69.575 157.49336 
L 81.532051 147.107847 
L 93.489103 134.125956 
L 105.446154 123.091348 
L 117.403205 121.793159 
L 129.360256 121.793159 
L 141.317308 117.898592 
L 153.274359 122.442254 
L 165.23141 138.020523 
L 177.188462 152.300604 
L 189.145513 173.720724 
L 201.102564 205.526358 
L 213.059615 234.735614 
L 225.016667 271.084909 
L 236.973718 298.346881 
L 248.930769 315.22334 
L 260.887821 332.748893 
L 272.844872 342.485312 
L 284.801923 345.08169 
L 296.758974 348.327163 
L 308.716026 350.274447 
L 320.673077 348.976258 
L 332.630128 346.379879 
L 344.587179 347.678068 
L 356.544231 339.888934 
L 368.501282 326.907042 
L 380.458333 311.977867 
L 392.415385 289.908652 
L 404.372436 263.295775 
L 416.329487 230.841046 
L 428.286538 195.140845 
L 440.24359 164.6334 
L 452.200641 141.265996 
L 464.157692 126.336821 
L 476.114744 117.898592 
L 488.071795 116.600402 
L 500.028846 114.653119 
L 511.985897 106.863984 
L 523.942949 173.720724 
L 535.9 168.527968 
" clip-path="url(#p8663a95c60)" style="fill: none; stroke: #ffb984; stroke-opacity: 0.5; stroke-width: 0.5; stroke-linecap: round"/>
   </g>
   <g id="line2d_69">
    <path d="M 69.575 156.195171 
L 81.532051 147.756942 
L 93.489103 141.915091 
L 105.446154 139.967807 
L 117.403205 151.002414 
L 129.360256 159.440644 
L 141.317308 164.6334 
L 153.274359 188.000805 
L 165.23141 216.560966 
L 177.188462 245.770221 
L 189.145513 281.470423 
L 201.102564 301.592354 
L 213.059615 314.574245 
L 225.016667 331.450704 
L 236.973718 343.783501 
L 248.930769 344.432596 
L 260.887821 345.08169 
L 272.844872 346.379879 
L 284.801923 343.783501 
L 296.758974 344.432596 
L 308.716026 347.028974 
L 320.673077 343.783501 
L 332.630128 332.099799 
L 344.587179 318.468813 
L 356.544231 301.592354 
L 368.501282 277.575855 
L 380.458333 250.313883 
L 392.415385 217.859155 
L 404.372436 180.860765 
L 416.329487 152.300604 
L 428.286538 137.371429 
L 440.24359 125.687726 
L 452.200641 117.249497 
L 464.157692 116.600402 
L 476.114744 110.758551 
L 488.071795 178.264386 
L 500.028846 173.07163 
L 511.985897 176.317103 
L 523.942949 175.668008 
L 535.9 168.527968 
" clip-path="url(#p8663a95c60)" style="fill: none; stroke: #ffb984; stroke-opacity: 0.5; stroke-width: 0.5; stroke-linecap: round"/>
   </g>
   <g id="line2d_70">
    <path d="M 69.575 101.022133 
L 81.532051 100.373038 
L 93.489103 95.829376 
L 105.446154 102.320322 
L 117.403205 103.618511 
L 129.360256 101.022133 
L 141.317308 110.758551 
L 153.274359 114.653119 
L 165.23141 127.63501 
L 177.188462 147.107847 
L 189.145513 186.702616 
L 201.102564 216.560966 
L 213.059615 243.173843 
L 225.016667 282.119517 
L 236.973718 306.136016 
L 248.930769 321.065191 
L 260.887821 335.345272 
L 272.844872 348.976258 
L 284.801923 350.923541 
L 296.758974 354.169014 
L 308.716026 356.765392 
L 320.673077 350.274447 
L 332.630128 353.51992 
L 344.587179 354.169014 
L 356.544231 356.765392 
L 368.501282 348.327163 
L 380.458333 341.187123 
L 392.415385 319.117907 
L 404.372436 298.995976 
L 416.329487 268.488531 
L 428.286538 226.946479 
L 440.24359 195.140845 
L 452.200641 182.158954 
L 464.157692 177.615292 
L 476.114744 175.668008 
L 488.071795 172.422535 
L 500.028846 178.913481 
L 511.985897 126.985915 
L 523.942949 114.653119 
L 535.9 101.022133 
" clip-path="url(#p8663a95c60)" style="fill: none; stroke: #ffb984; stroke-opacity: 0.5; stroke-width: 0.5; stroke-linecap: round"/>
   </g>
   <g id="line2d_71">
    <path d="M 69.575 95.180282 
L 81.532051 93.882093 
L 93.489103 95.180282 
L 105.446154 88.040241 
L 117.403205 95.180282 
L 129.360256 93.882093 
L 141.317308 100.373038 
L 153.274359 111.407646 
L 165.23141 133.476861 
L 177.188462 151.651509 
L 189.145513 186.702616 
L 201.102564 224.350101 
L 213.059615 250.313883 
L 225.016667 282.119517 
L 236.973718 308.732394 
L 248.930769 323.661569 
L 260.887821 330.152515 
L 272.844872 344.432596 
L 284.801923 349.625352 
L 296.758974 358.712676 
L 308.716026 361.309054 
L 320.673077 355.467203 
L 332.630128 359.361771 
L 344.587179 355.467203 
L 356.544231 350.274447 
L 368.501282 347.028974 
L 380.458333 336.643461 
L 392.415385 326.907042 
L 404.372436 302.890543 
L 416.329487 277.575855 
L 428.286538 242.524748 
L 440.24359 214.613682 
L 452.200641 187.35171 
L 464.157692 176.966197 
L 476.114744 178.264386 
L 488.071795 174.369819 
L 500.028846 165.282495 
L 511.985897 125.687726 
L 523.942949 114.004024 
L 535.9 95.180282 
" clip-path="url(#p8663a95c60)" style="fill: none; stroke: #ffb984; stroke-opacity: 0.5; stroke-width: 0.5; stroke-linecap: round"/>
   </g>
   <g id="line2d_72">
    <path d="M 69.575 105.565795 
L 81.532051 82.19839 
L 93.489103 84.794769 
L 105.446154 89.987525 
L 117.403205 93.232998 
L 129.360256 103.618511 
L 141.317308 110.109457 
L 153.274359 123.740443 
L 165.23141 147.107847 
L 177.188462 175.668008 
L 189.145513 215.911871 
L 201.102564 256.804829 
L 213.059615 284.715895 
L 225.016667 313.276056 
L 236.973718 323.661569 
L 248.930769 337.292555 
L 260.887821 347.028974 
L 272.844872 353.51992 
L 284.801923 352.22173 
L 296.758974 354.818109 
L 308.716026 356.765392 
L 320.673077 353.51992 
L 332.630128 347.028974 
L 344.587179 343.783501 
L 356.544231 333.397988 
L 368.501282 317.819718 
L 380.458333 297.048692 
L 392.415385 270.435815 
L 404.372436 237.981087 
L 416.329487 207.473642 
L 428.286538 170.475252 
L 440.24359 140.616901 
L 452.200641 123.740443 
L 464.157692 107.513078 
L 476.114744 114.004024 
L 488.071795 130.231388 
L 500.028846 133.476861 
L 511.985897 141.915091 
L 523.942949 149.704225 
L 535.9 115.302213 
" clip-path="url(#p8663a95c60)" style="fill: none; stroke: #ffb984; stroke-opacity: 0.5; stroke-width: 0.5; stroke-linecap: round"/>
   </g>
   <g id="line2d_73">
    <path d="M 69.575 112.05674 
L 81.532051 98.425755 
L 93.489103 105.565795 
L 105.446154 95.180282 
L 117.403205 103.618511 
L 129.360256 95.829376 
L 141.317308 112.05674 
L 153.274359 134.125956 
L 165.23141 163.335211 
L 177.188462 198.386318 
L 189.145513 240.577465 
L 201.102564 261.348491 
L 213.059615 290.557746 
L 225.016667 313.276056 
L 236.973718 328.205231 
L 248.930769 342.485312 
L 260.887821 354.169014 
L 272.844872 350.274447 
L 284.801923 355.467203 
L 296.758974 361.309054 
L 308.716026 365.203622 
L 320.673077 358.063581 
L 332.630128 360.010865 
L 344.587179 351.572636 
L 356.544231 353.51992 
L 368.501282 344.432596 
L 380.458333 334.696177 
L 392.415385 317.819718 
L 404.372436 299.64507 
L 416.329487 256.155734 
L 428.286538 223.701006 
L 440.24359 199.684507 
L 452.200641 167.878873 
L 464.157692 138.020523 
L 476.114744 144.511469 
L 488.071795 145.160563 
L 500.028846 152.949698 
L 511.985897 126.985915 
L 523.942949 129.582294 
L 535.9 120.49497 
" clip-path="url(#p8663a95c60)" style="fill: none; stroke: #ffb984; stroke-opacity: 0.5; stroke-width: 0.5; stroke-linecap: round"/>
   </g>
   <g id="line2d_74">
    <path d="M 69.575 125.038632 
L 81.532051 112.05674 
L 93.489103 107.513078 
L 105.446154 110.109457 
L 117.403205 110.758551 
L 129.360256 123.091348 
L 141.317308 147.107847 
L 153.274359 153.598793 
L 165.23141 175.018913 
L 177.188462 220.455533 
L 189.145513 243.822938 
L 201.102564 276.926761 
L 213.059615 295.101408 
L 225.016667 312.626962 
L 236.973718 330.152515 
L 248.930769 342.485312 
L 260.887821 346.379879 
L 272.844872 350.274447 
L 284.801923 358.063581 
L 296.758974 350.923541 
L 308.716026 363.905433 
L 320.673077 356.116298 
L 332.630128 352.870825 
L 344.587179 352.22173 
L 356.544231 350.274447 
L 368.501282 337.94165 
L 380.458333 325.608853 
L 392.415385 319.767002 
L 404.372436 297.048692 
L 416.329487 288.610463 
L 428.286538 259.401207 
L 440.24359 217.859155 
L 452.200641 185.404427 
L 464.157692 151.002414 
L 476.114744 125.687726 
L 488.071795 112.705835 
L 500.028846 117.249497 
L 511.985897 135.424145 
L 523.942949 141.265996 
L 535.9 124.389537 
" clip-path="url(#p8663a95c60)" style="fill: none; stroke: #ffb984; stroke-opacity: 0.5; stroke-width: 0.5; stroke-linecap: round"/>
   </g>
   <g id="line2d_75">
    <path d="M 69.575 112.05674 
L 81.532051 107.513078 
L 93.489103 97.127565 
L 105.446154 91.934809 
L 117.403205 91.285714 
L 129.360256 98.425755 
L 141.317308 94.531187 
L 153.274359 97.77666 
L 165.23141 102.320322 
L 177.188462 125.687726 
L 189.145513 151.651509 
L 201.102564 189.298994 
L 213.059615 228.244668 
L 225.016667 267.839437 
L 236.973718 288.610463 
L 248.930769 313.925151 
L 260.887821 328.205231 
L 272.844872 339.888934 
L 284.801923 353.51992 
L 296.758974 355.467203 
L 308.716026 360.65996 
L 320.673077 360.65996 
L 332.630128 360.65996 
L 344.587179 352.870825 
L 356.544231 354.818109 
L 368.501282 354.818109 
L 380.458333 355.467203 
L 392.415385 348.327163 
L 404.372436 332.099799 
L 416.329487 317.170624 
L 428.286538 291.855936 
L 440.24359 253.559356 
L 452.200641 224.350101 
L 464.157692 186.053521 
L 476.114744 157.49336 
L 488.071795 126.336821 
L 500.028846 125.038632 
L 511.985897 120.49497 
L 523.942949 108.811268 
L 535.9 126.985915 
" clip-path="url(#p8663a95c60)" style="fill: none; stroke: #ffb984; stroke-opacity: 0.5; stroke-width: 0.5; stroke-linecap: round"/>
   </g>
   <g id="line2d_76">
    <path d="M 69.575 97.77666 
L 81.532051 99.074849 
L 93.489103 86.742052 
L 105.446154 82.19839 
L 117.403205 82.847485 
L 129.360256 93.882093 
L 141.317308 104.267606 
L 153.274359 110.758551 
L 165.23141 126.985915 
L 177.188462 149.055131 
L 189.145513 187.35171 
L 201.102564 226.297384 
L 213.059615 263.944869 
L 225.016667 291.206841 
L 236.973718 314.574245 
L 248.930769 330.80161 
L 260.887821 351.572636 
L 272.844872 351.572636 
L 284.801923 356.765392 
L 296.758974 356.116298 
L 308.716026 363.256338 
L 320.673077 362.607243 
L 332.630128 356.116298 
L 344.587179 352.870825 
L 356.544231 349.625352 
L 368.501282 339.888934 
L 380.458333 324.959759 
L 392.415385 310.030584 
L 404.372436 286.663179 
L 416.329487 246.419316 
L 428.286538 210.07002 
L 440.24359 173.07163 
L 452.200641 141.265996 
L 464.157692 125.038632 
L 476.114744 101.022133 
L 488.071795 93.882093 
L 500.028846 83.496579 
L 511.985897 84.145674 
L 523.942949 82.19839 
L 535.9 118.547686 
" clip-path="url(#p8663a95c60)" style="fill: none; stroke: #ffb984; stroke-opacity: 0.5; stroke-width: 0.5; stroke-linecap: round"/>
   </g>
   <g id="line2d_77">
    <path d="M 69.575 106.214889 
L 81.532051 96.478471 
L 93.489103 95.829376 
L 105.446154 89.338431 
L 117.403205 86.742052 
L 129.360256 100.373038 
L 141.317308 90.63662 
L 153.274359 115.951308 
L 165.23141 123.091348 
L 177.188462 156.844266 
L 189.145513 180.21167 
L 201.102564 225.64829 
L 213.059615 258.752113 
L 225.016667 286.663179 
L 236.973718 306.785111 
L 248.930769 330.152515 
L 260.887821 334.696177 
L 272.844872 341.187123 
L 284.801923 356.116298 
L 296.758974 354.169014 
L 308.716026 357.414487 
L 320.673077 354.818109 
L 332.630128 353.51992 
L 344.587179 356.116298 
L 356.544231 350.274447 
L 368.501282 342.485312 
L 380.458333 331.450704 
L 392.415385 315.872435 
L 404.372436 295.101408 
L 416.329487 266.541247 
L 428.286538 226.297384 
L 440.24359 193.193561 
L 452.200641 167.229779 
L 464.157692 136.073239 
L 476.114744 106.214889 
L 488.071795 97.77666 
L 500.028846 86.092958 
L 511.985897 96.478471 
L 523.942949 122.442254 
L 535.9 108.811268 
" clip-path="url(#p8663a95c60)" style="fill: none; stroke: #ffb984; stroke-opacity: 0.5; stroke-width: 0.5; stroke-linecap: round"/>
   </g>
   <g id="line2d_78">
    <path d="M 69.575 104.9167 
L 81.532051 95.180282 
L 93.489103 84.794769 
L 105.446154 93.232998 
L 117.403205 89.338431 
L 129.360256 91.285714 
L 141.317308 106.214889 
L 153.274359 124.389537 
L 165.23141 135.424145 
L 177.188462 175.668008 
L 189.145513 217.21006 
L 201.102564 247.717505 
L 213.059615 279.523139 
L 225.016667 309.381489 
L 236.973718 329.503421 
L 248.930769 334.047082 
L 260.887821 339.239839 
L 272.844872 348.327163 
L 284.801923 354.818109 
L 296.758974 356.765392 
L 308.716026 357.414487 
L 320.673077 355.467203 
L 332.630128 351.572636 
L 344.587179 345.08169 
L 356.544231 334.696177 
L 368.501282 317.170624 
L 380.458333 304.188732 
L 392.415385 269.78672 
L 404.372436 239.279276 
L 416.329487 197.088129 
L 428.286538 159.440644 
L 440.24359 137.371429 
L 452.200641 114.653119 
L 464.157692 103.618511 
L 476.114744 93.882093 
L 488.071795 89.338431 
L 500.028846 90.63662 
L 511.985897 145.160563 
L 523.942949 139.967807 
L 535.9 117.249497 
" clip-path="url(#p8663a95c60)" style="fill: none; stroke: #ffb984; stroke-opacity: 0.5; stroke-width: 0.5; stroke-linecap: round"/>
   </g>
   <g id="line2d_79">
    <path d="M 69.575 130.231388 
L 81.532051 125.687726 
L 93.489103 117.249497 
L 105.446154 109.460362 
L 117.403205 110.758551 
L 129.360256 128.284105 
L 141.317308 129.582294 
L 153.274359 131.529577 
L 165.23141 172.422535 
L 177.188462 209.420926 
L 189.145513 231.490141 
L 201.102564 272.383099 
L 213.059615 299.64507 
L 225.016667 320.416097 
L 236.973718 332.099799 
L 248.930769 347.678068 
L 260.887821 350.274447 
L 272.844872 360.010865 
L 284.801923 362.607243 
L 296.758974 360.65996 
L 308.716026 364.554527 
L 320.673077 358.063581 
L 332.630128 358.063581 
L 344.587179 354.818109 
L 356.544231 348.327163 
L 368.501282 340.538028 
L 380.458333 328.205231 
L 392.415385 313.276056 
L 404.372436 280.821328 
L 416.329487 238.630181 
L 428.286538 206.824547 
L 440.24359 174.369819 
L 452.200641 150.35332 
L 464.157692 130.231388 
L 476.114744 117.249497 
L 488.071795 108.162173 
L 500.028846 94.531187 
L 511.985897 152.300604 
L 523.942949 147.756942 
L 535.9 140.616901 
" clip-path="url(#p8663a95c60)" style="fill: none; stroke: #ffb984; stroke-opacity: 0.5; stroke-width: 0.5; stroke-linecap: round"/>
   </g>
   <g id="line2d_80">
    <path d="M 69.575 171.124346 
L 81.532051 172.422535 
L 93.489103 169.826157 
L 105.446154 154.247887 
L 117.403205 143.862374 
L 129.360256 132.178672 
L 141.317308 126.336821 
L 153.274359 123.740443 
L 165.23141 127.63501 
L 177.188462 143.21328 
L 189.145513 178.913481 
L 201.102564 222.402817 
L 213.059615 253.559356 
L 225.016667 280.821328 
L 236.973718 308.0833 
L 248.930769 330.80161 
L 260.887821 345.730785 
L 272.844872 350.274447 
L 284.801923 354.169014 
L 296.758974 356.765392 
L 308.716026 367.8 
L 320.673077 360.010865 
L 332.630128 362.607243 
L 344.587179 359.361771 
L 356.544231 364.554527 
L 368.501282 356.116298 
L 380.458333 347.028974 
L 392.415385 338.590744 
L 404.372436 325.608853 
L 416.329487 304.188732 
L 428.286538 274.979477 
L 440.24359 241.226559 
L 452.200641 200.333602 
L 464.157692 166.580684 
L 476.114744 137.371429 
L 488.071795 122.442254 
L 500.028846 107.513078 
L 511.985897 89.987525 
L 523.942949 93.232998 
L 535.9 165.93159 
" clip-path="url(#p8663a95c60)" style="fill: none; stroke: #ffb984; stroke-opacity: 0.5; stroke-width: 0.5; stroke-linecap: round"/>
   </g>
   <g id="line2d_81">
    <path d="M 69.575 113.915511 
L 81.532051 109.637388 
L 93.489103 105.565795 
L 105.446154 103.441485 
L 117.403205 106.214889 
L 129.360256 111.23062 
L 141.317308 117.33801 
L 153.274359 128.284105 
L 165.23141 146.960326 
L 177.188462 172.216005 
L 189.145513 202.664441 
L 201.102564 236.417359 
L 213.059615 264.889007 
L 225.016667 292.268996 
L 236.973718 312.774483 
L 248.930769 327.880684 
L 260.887821 337.764624 
L 272.844872 345.022682 
L 284.801923 350.244942 
L 296.758974 352.22173 
L 308.716026 356.086793 
L 320.673077 352.487269 
L 332.630128 349.06477 
L 344.587179 344.963673 
L 356.544231 339.003805 
L 368.501282 326.346461 
L 380.458333 310.119096 
L 392.415385 289.259557 
L 404.372436 262.322133 
L 416.329487 232.080227 
L 428.286538 202.51692 
L 440.24359 176.258094 
L 452.200641 153.834827 
L 464.157692 138.551601 
L 476.114744 129.346259 
L 488.071795 125.746735 
L 500.028846 129.287251 
L 511.985897 129.346259 
L 523.942949 128.225096 
L 535.9 120.731004 
" clip-path="url(#p8663a95c60)" style="fill: none; stroke: #ffb984; stroke-width: 2.5; stroke-linecap: round"/>
   </g>
   <g id="patch_3">
    <path d="M 69.575 367.8 
L 69.575 45.2 
" style="fill: none; stroke: #000000; stroke-width: 0.75; stroke-linejoin: miter; stroke-linecap: square"/>
   </g>
   <g id="patch_4">
    <path d="M 69.575 367.8 
L 535.9 367.8 
" style="fill: none; stroke: #000000; stroke-width: 0.75; stroke-linejoin: miter; stroke-linecap: square"/>
   </g>
   <g id="text_15">
    <text style="font: 500 18px &quot;Suisse Int&apos;l&quot;, sans-serif; text-anchor: middle" x="302.7375" y="29.2" transform="rotate(-0 302.7375 29.2)">Normalized Spatial Density of Cells in a Conical Well</text>
   </g>
   <g id="legend_1">
    <g id="line2d_82">
     <path d="M 559.21625 51.575 
L 566.71625 51.575 
L 574.21625 51.575 
" style="fill: none; stroke: #bab0a8; stroke-width: 2.5; stroke-linecap: round"/>
    </g>
    <g id="text_16">
     <text style="font: 15px &quot;Suisse Int&apos;l&quot;, sans-serif; text-anchor: start" x="580.21625" y="57.95" transform="rotate(-0 580.21625 57.95)">cc-125 Average</text>
    </g>
    <g id="line2d_83">
     <path d="M 559.21625 74.644531 
L 566.71625 74.644531 
L 574.21625 74.644531 
" style="fill: none; stroke: #73b5e3; stroke-width: 2.5; stroke-linecap: round"/>
    </g>
    <g id="text_17">
     <text style="font: 15px &quot;Suisse Int&apos;l&quot;, sans-serif; text-anchor: start" x="580.21625" y="81.019531" transform="rotate(-0 580.21625 81.019531)">cc-2670 Average</text>
    </g>
    <g id="line2d_84">
     <path d="M 559.21625 97.714062 
L 566.71625 97.714062 
L 574.21625 97.714062 
" style="fill: none; stroke: #ffb984; stroke-width: 2.5; stroke-linecap: round"/>
    </g>
    <g id="text_18">
     <text style="font: 15px &quot;Suisse Int&apos;l&quot;, sans-serif; text-anchor: start" x="580.21625" y="104.089062" transform="rotate(-0 580.21625 104.089062)">cc-3707 Average</text>
    </g>
   </g>
  </g>
 </g>
 <defs>
  <clipPath id="p8663a95c60">
   <rect x="69.575" y="45.2" width="466.325" height="322.6"/>
  </clipPath>
 </defs>
</svg>
