<?xml version="1.0" encoding="utf-8" standalone="no"?>
<!DOCTYPE svg PUBLIC "-//W3C//DTD SVG 1.1//EN"
  "http://www.w3.org/Graphics/SVG/1.1/DTD/svg11.dtd">
<svg xmlns:xlink="http://www.w3.org/1999/xlink" width="720pt" height="432pt" viewBox="0 0 720 432" xmlns="http://www.w3.org/2000/svg" version="1.1">
 <metadata>
  <rdf:RDF xmlns:dc="http://purl.org/dc/elements/1.1/" xmlns:cc="http://creativecommons.org/ns#" xmlns:rdf="http://www.w3.org/1999/02/22-rdf-syntax-ns#">
   <cc:Work>
    <dc:type rdf:resource="http://purl.org/dc/dcmitype/StillImage"/>
    <dc:date>2024-10-02T13:38:12.865557</dc:date>
    <dc:format>image/svg+xml</dc:format>
    <dc:creator>
     <cc:Agent>
      <dc:title>Matplotlib v3.8.4, https://matplotlib.org/</dc:title>
     </cc:Agent>
    </dc:creator>
   </cc:Work>
  </rdf:RDF>
 </metadata>
 <defs>
  <style type="text/css">*{stroke-linejoin: round; stroke-linecap: butt}</style>
 </defs>
 <g id="figure_1">
  <g id="patch_1">
   <path d="M 0 432 
L 720 432 
L 720 0 
L 0 0 
L 0 432 
z
" style="fill: none"/>
  </g>
  <g id="axes_1">
   <g id="patch_2">
    <path d="M 69.575 367.8 
L 530.4 367.8 
L 530.4 45.2 
L 69.575 45.2 
L 69.575 367.8 
z
" style="fill: none"/>
   </g>
   <g id="matplotlib.axis_1">
    <g id="xtick_1">
     <g id="line2d_1">
      <defs>
       <path id="mc99c48110a" d="M 0 0 
L 0 5 
" style="stroke: #000000; stroke-width: 0.75"/>
      </defs>
      <g>
       <use xlink:href="#mc99c48110a" x="69.575" y="367.8" style="stroke: #000000; stroke-width: 0.75"/>
      </g>
     </g>
     <g id="text_1">
      <text style="font: 15px &quot;Suisse Int&apos;l&quot;, sans-serif; text-anchor: middle" x="69.575" y="388.675" transform="rotate(-0 69.575 388.675)">0</text>
     </g>
    </g>
    <g id="xtick_2">
     <g id="line2d_2">
      <g>
       <use xlink:href="#mc99c48110a" x="128.655128" y="367.8" style="stroke: #000000; stroke-width: 0.75"/>
      </g>
     </g>
     <g id="text_2">
      <text style="font: 15px &quot;Suisse Int&apos;l&quot;, sans-serif; text-anchor: middle" x="128.655128" y="388.675" transform="rotate(-0 128.655128 388.675)">5</text>
     </g>
    </g>
    <g id="xtick_3">
     <g id="line2d_3">
      <g>
       <use xlink:href="#mc99c48110a" x="187.735256" y="367.8" style="stroke: #000000; stroke-width: 0.75"/>
      </g>
     </g>
     <g id="text_3">
      <text style="font: 15px &quot;Suisse Int&apos;l&quot;, sans-serif; text-anchor: middle" x="187.735256" y="388.675" transform="rotate(-0 187.735256 388.675)">10</text>
     </g>
    </g>
    <g id="xtick_4">
     <g id="line2d_4">
      <g>
       <use xlink:href="#mc99c48110a" x="246.815385" y="367.8" style="stroke: #000000; stroke-width: 0.75"/>
      </g>
     </g>
     <g id="text_4">
      <text style="font: 15px &quot;Suisse Int&apos;l&quot;, sans-serif; text-anchor: middle" x="246.815385" y="388.675" transform="rotate(-0 246.815385 388.675)">15</text>
     </g>
    </g>
    <g id="xtick_5">
     <g id="line2d_5">
      <g>
       <use xlink:href="#mc99c48110a" x="305.895513" y="367.8" style="stroke: #000000; stroke-width: 0.75"/>
      </g>
     </g>
     <g id="text_5">
      <text style="font: 15px &quot;Suisse Int&apos;l&quot;, sans-serif; text-anchor: middle" x="305.895513" y="388.675" transform="rotate(-0 305.895513 388.675)">20</text>
     </g>
    </g>
    <g id="xtick_6">
     <g id="line2d_6">
      <g>
       <use xlink:href="#mc99c48110a" x="364.975641" y="367.8" style="stroke: #000000; stroke-width: 0.75"/>
      </g>
     </g>
     <g id="text_6">
      <text style="font: 15px &quot;Suisse Int&apos;l&quot;, sans-serif; text-anchor: middle" x="364.975641" y="388.675" transform="rotate(-0 364.975641 388.675)">25</text>
     </g>
    </g>
    <g id="xtick_7">
     <g id="line2d_7">
      <g>
       <use xlink:href="#mc99c48110a" x="424.055769" y="367.8" style="stroke: #000000; stroke-width: 0.75"/>
      </g>
     </g>
     <g id="text_7">
      <text style="font: 15px &quot;Suisse Int&apos;l&quot;, sans-serif; text-anchor: middle" x="424.055769" y="388.675" transform="rotate(-0 424.055769 388.675)">30</text>
     </g>
    </g>
    <g id="xtick_8">
     <g id="line2d_8">
      <g>
       <use xlink:href="#mc99c48110a" x="483.135897" y="367.8" style="stroke: #000000; stroke-width: 0.75"/>
      </g>
     </g>
     <g id="text_8">
      <text style="font: 15px &quot;Suisse Int&apos;l&quot;, sans-serif; text-anchor: middle" x="483.135897" y="388.675" transform="rotate(-0 483.135897 388.675)">35</text>
     </g>
    </g>
    <g id="text_9">
     <text style="font: 500 15px &quot;Suisse Int&apos;l&quot;, sans-serif; text-anchor: middle" x="299.9875" y="412.175" transform="rotate(-0 299.9875 412.175)">Pixel Position</text>
    </g>
   </g>
   <g id="matplotlib.axis_2">
    <g id="ytick_1">
     <g id="line2d_9">
      <defs>
       <path id="m821d4f628b" d="M 0 0 
L -5 0 
" style="stroke: #000000; stroke-width: 0.75"/>
      </defs>
      <g>
       <use xlink:href="#m821d4f628b" x="69.575" y="330.152515" style="stroke: #000000; stroke-width: 0.75"/>
      </g>
     </g>
     <g id="text_10">
      <text style="font: 15px &quot;Suisse Int&apos;l&quot;, sans-serif; text-anchor: end" x="59.575" y="335.590015" transform="rotate(-0 59.575 335.590015)">10</text>
     </g>
    </g>
    <g id="ytick_2">
     <g id="line2d_10">
      <g>
       <use xlink:href="#m821d4f628b" x="69.575" y="258.752113" style="stroke: #000000; stroke-width: 0.75"/>
      </g>
     </g>
     <g id="text_11">
      <text style="font: 15px &quot;Suisse Int&apos;l&quot;, sans-serif; text-anchor: end" x="59.575" y="264.189613" transform="rotate(-0 59.575 264.189613)">20</text>
     </g>
    </g>
    <g id="ytick_3">
     <g id="line2d_11">
      <g>
       <use xlink:href="#m821d4f628b" x="69.575" y="187.35171" style="stroke: #000000; stroke-width: 0.75"/>
      </g>
     </g>
     <g id="text_12">
      <text style="font: 15px &quot;Suisse Int&apos;l&quot;, sans-serif; text-anchor: end" x="59.575" y="192.78921" transform="rotate(-0 59.575 192.78921)">30</text>
     </g>
    </g>
    <g id="ytick_4">
     <g id="line2d_12">
      <g>
       <use xlink:href="#m821d4f628b" x="69.575" y="115.951308" style="stroke: #000000; stroke-width: 0.75"/>
      </g>
     </g>
     <g id="text_13">
      <text style="font: 15px &quot;Suisse Int&apos;l&quot;, sans-serif; text-anchor: end" x="59.575" y="121.388808" transform="rotate(-0 59.575 121.388808)">40</text>
     </g>
    </g>
    <g id="text_14">
     <text style="font: 500 15px &quot;Suisse Int&apos;l&quot;, sans-serif; text-anchor: middle" x="27.675" y="206.5" transform="rotate(-90 27.675 206.5)">Relative Cell Density</text>
    </g>
   </g>
   <g id="line2d_13">
    <path d="M 69.575 294.452314 
L 81.391026 291.855936 
L 93.207051 282.119517 
L 105.023077 267.839437 
L 116.839103 268.488531 
L 128.655128 270.435815 
L 140.471154 271.734004 
L 152.287179 260.699396 
L 164.103205 304.188732 
L 175.919231 306.136016 
L 187.735256 311.977867 
L 199.551282 302.241449 
L 211.367308 302.890543 
L 223.183333 308.0833 
L 234.999359 319.117907 
L 246.815385 316.521529 
L 258.63141 311.328773 
L 270.447436 321.065191 
L 282.263462 308.732394 
L 294.079487 309.381489 
L 305.895513 313.276056 
L 317.711538 309.381489 
L 329.527564 310.679678 
L 341.34359 306.136016 
L 353.159615 306.785111 
L 364.975641 301.592354 
L 376.791667 306.785111 
L 388.607692 302.241449 
L 400.423718 311.328773 
L 412.239744 306.136016 
L 424.055769 300.294165 
L 435.871795 306.136016 
L 447.687821 304.188732 
L 459.503846 305.486922 
L 471.319872 298.995976 
L 483.135897 304.188732 
L 494.951923 304.837827 
L 506.767949 299.64507 
L 518.583974 304.837827 
L 530.4 300.294165 
" clip-path="url(#p88886d6dfc)" style="fill: none; stroke: #bab0a8; stroke-opacity: 0.5; stroke-width: 0.5; stroke-linecap: round"/>
   </g>
   <g id="line2d_14">
    <path d="M 69.575 299.64507 
L 81.391026 300.294165 
L 93.207051 304.837827 
L 105.023077 308.732394 
L 116.839103 310.030584 
L 128.655128 308.732394 
L 140.471154 308.732394 
L 152.287179 306.136016 
L 164.103205 308.732394 
L 175.919231 303.539638 
L 187.735256 307.434205 
L 199.551282 306.785111 
L 211.367308 300.94326 
L 223.183333 295.101408 
L 234.999359 296.399598 
L 246.815385 299.64507 
L 258.63141 300.94326 
L 270.447436 297.697787 
L 282.263462 290.557746 
L 294.079487 287.961368 
L 305.895513 310.679678 
L 317.711538 298.346881 
L 329.527564 294.452314 
L 341.34359 288.610463 
L 353.159615 291.206841 
L 364.975641 297.697787 
L 376.791667 299.64507 
L 388.607692 300.294165 
L 400.423718 298.346881 
L 412.239744 294.452314 
L 424.055769 299.64507 
L 435.871795 290.557746 
L 447.687821 287.961368 
L 459.503846 284.066801 
L 471.319872 275.628571 
L 483.135897 269.78672 
L 494.951923 260.699396 
L 506.767949 302.241449 
L 518.583974 295.101408 
L 530.4 299.64507 
" clip-path="url(#p88886d6dfc)" style="fill: none; stroke: #bab0a8; stroke-opacity: 0.5; stroke-width: 0.5; stroke-linecap: round"/>
   </g>
   <g id="line2d_15">
    <path d="M 69.575 278.874044 
L 81.391026 280.821328 
L 93.207051 286.663179 
L 105.023077 278.874044 
L 116.839103 280.821328 
L 128.655128 280.172233 
L 140.471154 271.734004 
L 152.287179 271.734004 
L 164.103205 261.997586 
L 175.919231 296.399598 
L 187.735256 290.557746 
L 199.551282 290.557746 
L 211.367308 288.610463 
L 223.183333 293.803219 
L 234.999359 297.048692 
L 246.815385 297.697787 
L 258.63141 298.346881 
L 270.447436 295.750503 
L 282.263462 285.36499 
L 294.079487 291.855936 
L 305.895513 299.64507 
L 317.711538 283.417706 
L 329.527564 288.610463 
L 341.34359 286.014085 
L 353.159615 290.557746 
L 364.975641 290.557746 
L 376.791667 286.014085 
L 388.607692 282.119517 
L 400.423718 286.014085 
L 412.239744 286.014085 
L 424.055769 285.36499 
L 435.871795 293.154125 
L 447.687821 289.908652 
L 459.503846 281.470423 
L 471.319872 282.768612 
L 483.135897 284.715895 
L 494.951923 281.470423 
L 506.767949 273.032193 
L 518.583974 284.066801 
L 530.4 272.383099 
" clip-path="url(#p88886d6dfc)" style="fill: none; stroke: #bab0a8; stroke-opacity: 0.5; stroke-width: 0.5; stroke-linecap: round"/>
   </g>
   <g id="line2d_16">
    <path d="M 69.575 296.399598 
L 81.391026 295.101408 
L 93.207051 286.014085 
L 105.023077 281.470423 
L 116.839103 283.417706 
L 128.655128 281.470423 
L 140.471154 285.36499 
L 152.287179 283.417706 
L 164.103205 284.066801 
L 175.919231 278.874044 
L 187.735256 273.032193 
L 199.551282 284.715895 
L 211.367308 282.119517 
L 223.183333 284.066801 
L 234.999359 284.066801 
L 246.815385 286.663179 
L 258.63141 283.417706 
L 270.447436 274.330382 
L 282.263462 282.768612 
L 294.079487 287.961368 
L 305.895513 289.908652 
L 317.711538 289.259557 
L 329.527564 283.417706 
L 341.34359 289.259557 
L 353.159615 278.874044 
L 364.975641 289.259557 
L 376.791667 280.172233 
L 388.607692 284.715895 
L 400.423718 289.908652 
L 412.239744 282.119517 
L 424.055769 267.190342 
L 435.871795 275.628571 
L 447.687821 276.277666 
L 459.503846 291.206841 
L 471.319872 284.066801 
L 483.135897 283.417706 
L 494.951923 280.172233 
L 506.767949 295.750503 
L 518.583974 286.663179 
L 530.4 298.995976 
" clip-path="url(#p88886d6dfc)" style="fill: none; stroke: #bab0a8; stroke-opacity: 0.5; stroke-width: 0.5; stroke-linecap: round"/>
   </g>
   <g id="line2d_17">
    <path d="M 69.575 286.663179 
L 81.391026 277.575855 
L 93.207051 276.926761 
L 105.023077 267.190342 
L 116.839103 276.277666 
L 128.655128 270.435815 
L 140.471154 284.066801 
L 152.287179 290.557746 
L 164.103205 290.557746 
L 175.919231 287.312274 
L 187.735256 289.908652 
L 199.551282 284.715895 
L 211.367308 285.36499 
L 223.183333 281.470423 
L 234.999359 281.470423 
L 246.815385 274.330382 
L 258.63141 280.172233 
L 270.447436 282.768612 
L 282.263462 284.715895 
L 294.079487 278.22495 
L 305.895513 291.855936 
L 317.711538 278.22495 
L 329.527564 283.417706 
L 341.34359 280.172233 
L 353.159615 270.435815 
L 364.975641 276.926761 
L 376.791667 280.821328 
L 388.607692 278.874044 
L 400.423718 274.330382 
L 412.239744 278.874044 
L 424.055769 282.119517 
L 435.871795 273.681288 
L 447.687821 269.78672 
L 459.503846 280.172233 
L 471.319872 274.979477 
L 483.135897 278.874044 
L 494.951923 287.961368 
L 506.767949 276.926761 
L 518.583974 284.066801 
L 530.4 280.172233 
" clip-path="url(#p88886d6dfc)" style="fill: none; stroke: #bab0a8; stroke-opacity: 0.5; stroke-width: 0.5; stroke-linecap: round"/>
   </g>
   <g id="line2d_18">
    <path d="M 69.575 287.961368 
L 81.391026 283.417706 
L 93.207051 292.50503 
L 105.023077 292.50503 
L 116.839103 284.715895 
L 128.655128 282.119517 
L 140.471154 281.470423 
L 152.287179 286.014085 
L 164.103205 298.346881 
L 175.919231 291.206841 
L 187.735256 280.821328 
L 199.551282 286.663179 
L 211.367308 294.452314 
L 223.183333 288.610463 
L 234.999359 297.697787 
L 246.815385 290.557746 
L 258.63141 292.50503 
L 270.447436 291.855936 
L 282.263462 291.855936 
L 294.079487 290.557746 
L 305.895513 296.399598 
L 317.711538 292.50503 
L 329.527564 286.663179 
L 341.34359 285.36499 
L 353.159615 284.066801 
L 364.975641 278.874044 
L 376.791667 282.768612 
L 388.607692 283.417706 
L 400.423718 276.926761 
L 412.239744 289.908652 
L 424.055769 283.417706 
L 435.871795 280.821328 
L 447.687821 283.417706 
L 459.503846 291.206841 
L 471.319872 278.874044 
L 483.135897 280.172233 
L 494.951923 282.768612 
L 506.767949 276.926761 
L 518.583974 286.663179 
L 530.4 286.014085 
" clip-path="url(#p88886d6dfc)" style="fill: none; stroke: #bab0a8; stroke-opacity: 0.5; stroke-width: 0.5; stroke-linecap: round"/>
   </g>
   <g id="line2d_19">
    <path d="M 69.575 280.821328 
L 81.391026 282.768612 
L 93.207051 280.172233 
L 105.023077 278.874044 
L 116.839103 280.172233 
L 128.655128 287.312274 
L 140.471154 281.470423 
L 152.287179 279.523139 
L 164.103205 274.330382 
L 175.919231 284.715895 
L 187.735256 280.172233 
L 199.551282 287.961368 
L 211.367308 288.610463 
L 223.183333 287.312274 
L 234.999359 285.36499 
L 246.815385 282.119517 
L 258.63141 284.715895 
L 270.447436 285.36499 
L 282.263462 277.575855 
L 294.079487 289.908652 
L 305.895513 299.64507 
L 317.711538 288.610463 
L 329.527564 284.066801 
L 341.34359 287.312274 
L 353.159615 274.330382 
L 364.975641 281.470423 
L 376.791667 272.383099 
L 388.607692 271.734004 
L 400.423718 278.874044 
L 412.239744 280.172233 
L 424.055769 280.821328 
L 435.871795 274.330382 
L 447.687821 278.874044 
L 459.503846 279.523139 
L 471.319872 281.470423 
L 483.135897 278.22495 
L 494.951923 271.734004 
L 506.767949 276.926761 
L 518.583974 279.523139 
L 530.4 282.768612 
" clip-path="url(#p88886d6dfc)" style="fill: none; stroke: #bab0a8; stroke-opacity: 0.5; stroke-width: 0.5; stroke-linecap: round"/>
   </g>
   <g id="line2d_20">
    <path d="M 69.575 283.417706 
L 81.391026 280.821328 
L 93.207051 286.663179 
L 105.023077 287.961368 
L 116.839103 285.36499 
L 128.655128 291.206841 
L 140.471154 282.768612 
L 152.287179 260.050302 
L 164.103205 267.190342 
L 175.919231 278.22495 
L 187.735256 274.979477 
L 199.551282 289.908652 
L 211.367308 287.961368 
L 223.183333 294.452314 
L 234.999359 290.557746 
L 246.815385 297.048692 
L 258.63141 287.312274 
L 270.447436 293.154125 
L 282.263462 289.908652 
L 294.079487 281.470423 
L 305.895513 295.101408 
L 317.711538 286.663179 
L 329.527564 293.803219 
L 341.34359 288.610463 
L 353.159615 287.961368 
L 364.975641 282.119517 
L 376.791667 286.014085 
L 388.607692 272.383099 
L 400.423718 280.172233 
L 412.239744 278.874044 
L 424.055769 280.821328 
L 435.871795 282.119517 
L 447.687821 282.119517 
L 459.503846 278.874044 
L 471.319872 286.663179 
L 483.135897 281.470423 
L 494.951923 283.417706 
L 506.767949 282.768612 
L 518.583974 276.926761 
L 530.4 281.470423 
" clip-path="url(#p88886d6dfc)" style="fill: none; stroke: #bab0a8; stroke-opacity: 0.5; stroke-width: 0.5; stroke-linecap: round"/>
   </g>
   <g id="line2d_21">
    <path d="M 69.575 270.435815 
L 81.391026 284.715895 
L 93.207051 275.628571 
L 105.023077 276.926761 
L 116.839103 287.312274 
L 128.655128 277.575855 
L 140.471154 260.699396 
L 152.287179 258.752113 
L 164.103205 269.78672 
L 175.919231 260.050302 
L 187.735256 261.997586 
L 199.551282 265.892153 
L 211.367308 274.979477 
L 223.183333 274.330382 
L 234.999359 280.821328 
L 246.815385 281.470423 
L 258.63141 282.768612 
L 270.447436 278.874044 
L 282.263462 278.874044 
L 294.079487 274.979477 
L 305.895513 291.206841 
L 317.711538 280.821328 
L 329.527564 281.470423 
L 341.34359 273.681288 
L 353.159615 273.032193 
L 364.975641 277.575855 
L 376.791667 271.084909 
L 388.607692 272.383099 
L 400.423718 271.084909 
L 412.239744 282.768612 
L 424.055769 271.084909 
L 435.871795 274.330382 
L 447.687821 276.277666 
L 459.503846 278.22495 
L 471.319872 280.821328 
L 483.135897 273.681288 
L 494.951923 279.523139 
L 506.767949 270.435815 
L 518.583974 284.715895 
L 530.4 280.821328 
" clip-path="url(#p88886d6dfc)" style="fill: none; stroke: #bab0a8; stroke-opacity: 0.5; stroke-width: 0.5; stroke-linecap: round"/>
   </g>
   <g id="line2d_22">
    <path d="M 69.575 273.032193 
L 81.391026 271.734004 
L 93.207051 286.014085 
L 105.023077 288.610463 
L 116.839103 287.312274 
L 128.655128 295.750503 
L 140.471154 292.50503 
L 152.287179 287.961368 
L 164.103205 289.259557 
L 175.919231 280.821328 
L 187.735256 285.36499 
L 199.551282 288.610463 
L 211.367308 284.715895 
L 223.183333 286.663179 
L 234.999359 290.557746 
L 246.815385 286.663179 
L 258.63141 286.014085 
L 270.447436 291.855936 
L 282.263462 291.855936 
L 294.079487 286.663179 
L 305.895513 293.154125 
L 317.711538 282.768612 
L 329.527564 280.821328 
L 341.34359 286.663179 
L 353.159615 293.154125 
L 364.975641 289.908652 
L 376.791667 287.312274 
L 388.607692 287.961368 
L 400.423718 285.36499 
L 412.239744 290.557746 
L 424.055769 284.715895 
L 435.871795 291.855936 
L 447.687821 286.014085 
L 459.503846 289.259557 
L 471.319872 295.750503 
L 483.135897 289.259557 
L 494.951923 290.557746 
L 506.767949 261.348491 
L 518.583974 267.190342 
L 530.4 272.383099 
" clip-path="url(#p88886d6dfc)" style="fill: none; stroke: #bab0a8; stroke-opacity: 0.5; stroke-width: 0.5; stroke-linecap: round"/>
   </g>
   <g id="line2d_23">
    <path d="M 69.575 282.119517 
L 81.391026 288.610463 
L 93.207051 291.206841 
L 105.023077 286.014085 
L 116.839103 285.36499 
L 128.655128 293.803219 
L 140.471154 290.557746 
L 152.287179 282.119517 
L 164.103205 288.610463 
L 175.919231 274.330382 
L 187.735256 266.541247 
L 199.551282 260.699396 
L 211.367308 265.892153 
L 223.183333 271.084909 
L 234.999359 274.979477 
L 246.815385 280.821328 
L 258.63141 286.014085 
L 270.447436 291.855936 
L 282.263462 291.206841 
L 294.079487 286.014085 
L 305.895513 295.101408 
L 317.711538 288.610463 
L 329.527564 287.312274 
L 341.34359 290.557746 
L 353.159615 280.172233 
L 364.975641 289.259557 
L 376.791667 290.557746 
L 388.607692 280.821328 
L 400.423718 287.961368 
L 412.239744 287.961368 
L 424.055769 282.768612 
L 435.871795 279.523139 
L 447.687821 283.417706 
L 459.503846 286.014085 
L 471.319872 291.206841 
L 483.135897 283.417706 
L 494.951923 281.470423 
L 506.767949 286.014085 
L 518.583974 286.014085 
L 530.4 283.417706 
" clip-path="url(#p88886d6dfc)" style="fill: none; stroke: #bab0a8; stroke-opacity: 0.5; stroke-width: 0.5; stroke-linecap: round"/>
   </g>
   <g id="line2d_24">
    <path d="M 69.575 247.717505 
L 81.391026 245.121127 
L 93.207051 243.822938 
L 105.023077 240.577465 
L 116.839103 275.628571 
L 128.655128 270.435815 
L 140.471154 278.874044 
L 152.287179 281.470423 
L 164.103205 276.926761 
L 175.919231 282.119517 
L 187.735256 284.066801 
L 199.551282 280.821328 
L 211.367308 284.066801 
L 223.183333 290.557746 
L 234.999359 286.014085 
L 246.815385 285.36499 
L 258.63141 282.768612 
L 270.447436 284.066801 
L 282.263462 286.663179 
L 294.079487 286.663179 
L 305.895513 289.259557 
L 317.711538 285.36499 
L 329.527564 279.523139 
L 341.34359 281.470423 
L 353.159615 288.610463 
L 364.975641 282.768612 
L 376.791667 279.523139 
L 388.607692 283.417706 
L 400.423718 280.172233 
L 412.239744 282.768612 
L 424.055769 279.523139 
L 435.871795 280.821328 
L 447.687821 282.119517 
L 459.503846 278.22495 
L 471.319872 274.330382 
L 483.135897 272.383099 
L 494.951923 269.78672 
L 506.767949 267.190342 
L 518.583974 258.752113 
L 530.4 249.015694 
" clip-path="url(#p88886d6dfc)" style="fill: none; stroke: #bab0a8; stroke-opacity: 0.5; stroke-width: 0.5; stroke-linecap: round"/>
   </g>
   <g id="line2d_25">
    <path d="M 69.575 269.78672 
L 81.391026 261.348491 
L 93.207051 251.612072 
L 105.023077 250.313883 
L 116.839103 239.279276 
L 128.655128 235.384708 
L 140.471154 276.926761 
L 152.287179 270.435815 
L 164.103205 271.084909 
L 175.919231 276.926761 
L 187.735256 281.470423 
L 199.551282 283.417706 
L 211.367308 282.119517 
L 223.183333 282.768612 
L 234.999359 277.575855 
L 246.815385 276.926761 
L 258.63141 275.628571 
L 270.447436 278.22495 
L 282.263462 278.874044 
L 294.079487 280.172233 
L 305.895513 282.768612 
L 317.711538 277.575855 
L 329.527564 271.734004 
L 341.34359 273.681288 
L 353.159615 278.874044 
L 364.975641 277.575855 
L 376.791667 278.22495 
L 388.607692 282.768612 
L 400.423718 280.172233 
L 412.239744 278.22495 
L 424.055769 276.926761 
L 435.871795 276.277666 
L 447.687821 276.277666 
L 459.503846 282.119517 
L 471.319872 280.821328 
L 483.135897 278.22495 
L 494.951923 277.575855 
L 506.767949 274.330382 
L 518.583974 272.383099 
L 530.4 267.839437 
" clip-path="url(#p88886d6dfc)" style="fill: none; stroke: #bab0a8; stroke-opacity: 0.5; stroke-width: 0.5; stroke-linecap: round"/>
   </g>
   <g id="line2d_26">
    <path d="M 69.575 264.593964 
L 81.391026 263.944869 
L 93.207051 262.64668 
L 105.023077 264.593964 
L 116.839103 259.401207 
L 128.655128 258.752113 
L 140.471154 259.401207 
L 152.287179 260.699396 
L 164.103205 256.155734 
L 175.919231 257.453924 
L 187.735256 265.892153 
L 199.551282 265.892153 
L 211.367308 269.137626 
L 223.183333 263.944869 
L 234.999359 265.243058 
L 246.815385 263.944869 
L 258.63141 261.997586 
L 270.447436 269.137626 
L 282.263462 268.488531 
L 294.079487 266.541247 
L 305.895513 271.734004 
L 317.711538 263.295775 
L 329.527564 261.348491 
L 341.34359 267.839437 
L 353.159615 269.78672 
L 364.975641 269.137626 
L 376.791667 266.541247 
L 388.607692 262.64668 
L 400.423718 258.103018 
L 412.239744 256.155734 
L 424.055769 248.3666 
L 435.871795 243.173843 
L 447.687821 239.279276 
L 459.503846 237.981087 
L 471.319872 267.190342 
L 483.135897 266.541247 
L 494.951923 269.78672 
L 506.767949 265.892153 
L 518.583974 259.401207 
L 530.4 260.699396 
" clip-path="url(#p88886d6dfc)" style="fill: none; stroke: #bab0a8; stroke-opacity: 0.5; stroke-width: 0.5; stroke-linecap: round"/>
   </g>
   <g id="line2d_27">
    <path d="M 69.575 259.401207 
L 81.391026 256.804829 
L 93.207051 259.401207 
L 105.023077 261.348491 
L 116.839103 258.103018 
L 128.655128 258.752113 
L 140.471154 258.752113 
L 152.287179 260.050302 
L 164.103205 258.103018 
L 175.919231 260.050302 
L 187.735256 260.050302 
L 199.551282 259.401207 
L 211.367308 256.804829 
L 223.183333 256.804829 
L 234.999359 262.64668 
L 246.815385 258.103018 
L 258.63141 252.261167 
L 270.447436 249.015694 
L 282.263462 256.804829 
L 294.079487 261.997586 
L 305.895513 265.243058 
L 317.711538 261.997586 
L 329.527564 255.50664 
L 341.34359 260.050302 
L 353.159615 265.243058 
L 364.975641 263.295775 
L 376.791667 258.103018 
L 388.607692 261.997586 
L 400.423718 263.295775 
L 412.239744 261.348491 
L 424.055769 253.559356 
L 435.871795 247.06841 
L 447.687821 249.015694 
L 459.503846 247.06841 
L 471.319872 237.981087 
L 483.135897 260.699396 
L 494.951923 259.401207 
L 506.767949 258.752113 
L 518.583974 261.348491 
L 530.4 259.401207 
" clip-path="url(#p88886d6dfc)" style="fill: none; stroke: #bab0a8; stroke-opacity: 0.5; stroke-width: 0.5; stroke-linecap: round"/>
   </g>
   <g id="line2d_28">
    <path d="M 69.575 257.453924 
L 81.391026 251.612072 
L 93.207051 253.559356 
L 105.023077 256.804829 
L 116.839103 257.453924 
L 128.655128 256.804829 
L 140.471154 255.50664 
L 152.287179 252.910262 
L 164.103205 253.559356 
L 175.919231 256.155734 
L 187.735256 257.453924 
L 199.551282 252.910262 
L 211.367308 254.208451 
L 223.183333 263.295775 
L 234.999359 265.243058 
L 246.815385 261.997586 
L 258.63141 264.593964 
L 270.447436 264.593964 
L 282.263462 258.752113 
L 294.079487 260.699396 
L 305.895513 268.488531 
L 317.711538 267.839437 
L 329.527564 262.64668 
L 341.34359 261.348491 
L 353.159615 259.401207 
L 364.975641 261.348491 
L 376.791667 264.593964 
L 388.607692 265.892153 
L 400.423718 260.699396 
L 412.239744 255.50664 
L 424.055769 258.752113 
L 435.871795 260.699396 
L 447.687821 248.3666 
L 459.503846 246.419316 
L 471.319872 255.50664 
L 483.135897 255.50664 
L 494.951923 257.453924 
L 506.767949 255.50664 
L 518.583974 253.559356 
L 530.4 257.453924 
" clip-path="url(#p88886d6dfc)" style="fill: none; stroke: #bab0a8; stroke-opacity: 0.5; stroke-width: 0.5; stroke-linecap: round"/>
   </g>
   <g id="line2d_29">
    <path d="M 69.575 245.121127 
L 81.391026 250.962978 
L 93.207051 251.612072 
L 105.023077 250.962978 
L 116.839103 243.822938 
L 128.655128 249.015694 
L 140.471154 250.313883 
L 152.287179 250.313883 
L 164.103205 251.612072 
L 175.919231 255.50664 
L 187.735256 254.857545 
L 199.551282 252.261167 
L 211.367308 254.857545 
L 223.183333 250.313883 
L 234.999359 250.313883 
L 246.815385 252.910262 
L 258.63141 255.50664 
L 270.447436 252.910262 
L 282.263462 251.612072 
L 294.079487 253.559356 
L 305.895513 260.050302 
L 317.711538 258.752113 
L 329.527564 256.155734 
L 341.34359 258.752113 
L 353.159615 257.453924 
L 364.975641 256.155734 
L 376.791667 257.453924 
L 388.607692 256.155734 
L 400.423718 256.804829 
L 412.239744 256.804829 
L 424.055769 253.559356 
L 435.871795 254.857545 
L 447.687821 253.559356 
L 459.503846 261.348491 
L 471.319872 267.190342 
L 483.135897 255.50664 
L 494.951923 254.208451 
L 506.767949 254.208451 
L 518.583974 247.717505 
L 530.4 244.472032 
" clip-path="url(#p88886d6dfc)" style="fill: none; stroke: #bab0a8; stroke-opacity: 0.5; stroke-width: 0.5; stroke-linecap: round"/>
   </g>
   <g id="line2d_30">
    <path d="M 69.575 251.612072 
L 81.391026 252.910262 
L 93.207051 262.64668 
L 105.023077 259.401207 
L 116.839103 254.857545 
L 128.655128 256.804829 
L 140.471154 258.752113 
L 152.287179 258.752113 
L 164.103205 255.50664 
L 175.919231 257.453924 
L 187.735256 257.453924 
L 199.551282 259.401207 
L 211.367308 263.295775 
L 223.183333 258.103018 
L 234.999359 258.103018 
L 246.815385 259.401207 
L 258.63141 261.348491 
L 270.447436 260.050302 
L 282.263462 264.593964 
L 294.079487 265.892153 
L 305.895513 266.541247 
L 317.711538 258.103018 
L 329.527564 255.50664 
L 341.34359 256.155734 
L 353.159615 263.944869 
L 364.975641 260.699396 
L 376.791667 258.103018 
L 388.607692 254.857545 
L 400.423718 249.015694 
L 412.239744 252.261167 
L 424.055769 253.559356 
L 435.871795 244.472032 
L 447.687821 250.962978 
L 459.503846 256.804829 
L 471.319872 255.50664 
L 483.135897 253.559356 
L 494.951923 254.208451 
L 506.767949 250.962978 
L 518.583974 252.261167 
L 530.4 250.313883 
" clip-path="url(#p88886d6dfc)" style="fill: none; stroke: #bab0a8; stroke-opacity: 0.5; stroke-width: 0.5; stroke-linecap: round"/>
   </g>
   <g id="line2d_31">
    <path d="M 69.575 250.962978 
L 81.391026 252.910262 
L 93.207051 253.559356 
L 105.023077 249.015694 
L 116.839103 252.261167 
L 128.655128 260.050302 
L 140.471154 262.64668 
L 152.287179 258.752113 
L 164.103205 258.752113 
L 175.919231 261.997586 
L 187.735256 259.401207 
L 199.551282 261.997586 
L 211.367308 260.699396 
L 223.183333 258.752113 
L 234.999359 255.50664 
L 246.815385 250.313883 
L 258.63141 256.804829 
L 270.447436 257.453924 
L 282.263462 262.64668 
L 294.079487 262.64668 
L 305.895513 265.243058 
L 317.711538 260.699396 
L 329.527564 263.295775 
L 341.34359 267.190342 
L 353.159615 258.103018 
L 364.975641 258.752113 
L 376.791667 261.348491 
L 388.607692 259.401207 
L 400.423718 260.699396 
L 412.239744 267.839437 
L 424.055769 267.839437 
L 435.871795 265.892153 
L 447.687821 263.295775 
L 459.503846 238.630181 
L 471.319872 242.524748 
L 483.135897 249.664789 
L 494.951923 249.015694 
L 506.767949 247.06841 
L 518.583974 250.313883 
L 530.4 250.962978 
" clip-path="url(#p88886d6dfc)" style="fill: none; stroke: #bab0a8; stroke-opacity: 0.5; stroke-width: 0.5; stroke-linecap: round"/>
   </g>
   <g id="line2d_32">
    <path d="M 69.575 254.208451 
L 81.391026 250.962978 
L 93.207051 249.664789 
L 105.023077 254.857545 
L 116.839103 260.050302 
L 128.655128 263.944869 
L 140.471154 263.944869 
L 152.287179 260.050302 
L 164.103205 260.050302 
L 175.919231 257.453924 
L 187.735256 262.64668 
L 199.551282 260.699396 
L 211.367308 261.997586 
L 223.183333 260.699396 
L 234.999359 260.699396 
L 246.815385 263.944869 
L 258.63141 260.050302 
L 270.447436 265.243058 
L 282.263462 264.593964 
L 294.079487 263.295775 
L 305.895513 270.435815 
L 317.711538 269.137626 
L 329.527564 259.401207 
L 341.34359 258.752113 
L 353.159615 260.699396 
L 364.975641 259.401207 
L 376.791667 262.64668 
L 388.607692 258.752113 
L 400.423718 260.699396 
L 412.239744 267.190342 
L 424.055769 269.137626 
L 435.871795 264.593964 
L 447.687821 265.243058 
L 459.503846 259.401207 
L 471.319872 237.981087 
L 483.135897 243.822938 
L 494.951923 247.06841 
L 506.767949 246.419316 
L 518.583974 243.173843 
L 530.4 252.261167 
" clip-path="url(#p88886d6dfc)" style="fill: none; stroke: #bab0a8; stroke-opacity: 0.5; stroke-width: 0.5; stroke-linecap: round"/>
   </g>
   <g id="line2d_33">
    <path d="M 69.575 259.401207 
L 81.391026 257.453924 
L 93.207051 261.348491 
L 105.023077 258.752113 
L 116.839103 255.50664 
L 128.655128 258.103018 
L 140.471154 262.64668 
L 152.287179 261.997586 
L 164.103205 263.295775 
L 175.919231 260.050302 
L 187.735256 258.103018 
L 199.551282 257.453924 
L 211.367308 261.997586 
L 223.183333 263.295775 
L 234.999359 265.243058 
L 246.815385 268.488531 
L 258.63141 266.541247 
L 270.447436 260.699396 
L 282.263462 256.804829 
L 294.079487 263.295775 
L 305.895513 271.084909 
L 317.711538 267.839437 
L 329.527564 263.295775 
L 341.34359 268.488531 
L 353.159615 269.137626 
L 364.975641 269.137626 
L 376.791667 267.839437 
L 388.607692 271.084909 
L 400.423718 273.681288 
L 412.239744 270.435815 
L 424.055769 262.64668 
L 435.871795 265.243058 
L 447.687821 265.243058 
L 459.503846 230.841046 
L 471.319872 236.682897 
L 483.135897 242.524748 
L 494.951923 245.770221 
L 506.767949 249.664789 
L 518.583974 252.910262 
L 530.4 257.453924 
" clip-path="url(#p88886d6dfc)" style="fill: none; stroke: #bab0a8; stroke-opacity: 0.5; stroke-width: 0.5; stroke-linecap: round"/>
   </g>
   <g id="line2d_34">
    <path d="M 69.575 258.752113 
L 81.391026 258.103018 
L 93.207051 256.804829 
L 105.023077 254.208451 
L 116.839103 254.208451 
L 128.655128 263.295775 
L 140.471154 266.541247 
L 152.287179 267.839437 
L 164.103205 269.137626 
L 175.919231 266.541247 
L 187.735256 267.190342 
L 199.551282 266.541247 
L 211.367308 263.944869 
L 223.183333 262.64668 
L 234.999359 266.541247 
L 246.815385 271.734004 
L 258.63141 266.541247 
L 270.447436 262.64668 
L 282.263462 269.78672 
L 294.079487 272.383099 
L 305.895513 278.22495 
L 317.711538 276.926761 
L 329.527564 268.488531 
L 341.34359 269.137626 
L 353.159615 272.383099 
L 364.975641 270.435815 
L 376.791667 272.383099 
L 388.607692 274.979477 
L 400.423718 275.628571 
L 412.239744 274.979477 
L 424.055769 276.277666 
L 435.871795 274.979477 
L 447.687821 272.383099 
L 459.503846 236.033803 
L 471.319872 239.92837 
L 483.135897 239.279276 
L 494.951923 245.121127 
L 506.767949 249.015694 
L 518.583974 242.524748 
L 530.4 245.770221 
" clip-path="url(#p88886d6dfc)" style="fill: none; stroke: #bab0a8; stroke-opacity: 0.5; stroke-width: 0.5; stroke-linecap: round"/>
   </g>
   <g id="line2d_35">
    <path d="M 69.575 270.583336 
L 81.391026 269.99325 
L 93.207051 270.701354 
L 105.023077 268.901591 
L 116.839103 269.99325 
L 128.655128 271.379952 
L 140.471154 272.973185 
L 152.287179 270.465319 
L 164.103205 273.238723 
L 175.919231 274.241869 
L 187.735256 274.153357 
L 199.551282 274.979477 
L 211.367308 275.89411 
L 223.183333 276.189153 
L 234.999359 277.782385 
L 246.815385 277.575855 
L 258.63141 277.162795 
L 270.447436 277.664368 
L 282.263462 276.956265 
L 294.079487 277.369325 
L 305.895513 284.774904 
L 317.711538 278.460984 
L 329.527564 275.982623 
L 341.34359 276.602213 
L 353.159615 276.10064 
L 364.975641 276.543205 
L 376.791667 275.923614 
L 388.607692 274.949973 
L 400.423718 275.422041 
L 412.239744 276.425187 
L 424.055769 273.563271 
L 435.871795 272.73715 
L 447.687821 271.999543 
L 459.503846 269.108121 
L 471.319872 269.403164 
L 483.135897 269.314652 
L 494.951923 269.727712 
L 506.767949 269.137626 
L 518.583974 269.550686 
L 530.4 269.727712 
" clip-path="url(#p88886d6dfc)" style="fill: none; stroke: #bab0a8; stroke-width: 2.5; stroke-linecap: round"/>
   </g>
   <g id="line2d_36">
    <path d="M 69.575 125.038632 
L 81.391026 108.162173 
L 93.207051 94.531187 
L 105.023077 97.77666 
L 116.839103 97.127565 
L 128.655128 102.320322 
L 140.471154 115.302213 
L 152.287179 119.845875 
L 164.103205 124.389537 
L 175.919231 128.933199 
L 187.735256 138.669618 
L 199.551282 153.598793 
L 211.367308 176.317103 
L 223.183333 206.175453 
L 234.999359 215.911871 
L 246.815385 245.121127 
L 258.63141 262.64668 
L 270.447436 275.628571 
L 282.263462 288.610463 
L 294.079487 291.855936 
L 305.895513 306.136016 
L 317.711538 304.188732 
L 329.527564 305.486922 
L 341.34359 305.486922 
L 353.159615 301.592354 
L 364.975641 288.610463 
L 376.791667 279.523139 
L 388.607692 267.190342 
L 400.423718 245.770221 
L 412.239744 226.946479 
L 424.055769 219.157344 
L 435.871795 217.21006 
L 447.687821 208.122736 
L 459.503846 204.228169 
L 471.319872 208.771831 
L 483.135897 206.824547 
L 494.951923 156.844266 
L 506.767949 149.704225 
L 518.583974 146.458753 
L 530.4 139.967807 
" clip-path="url(#p88886d6dfc)" style="fill: none; stroke: #73b5e3; stroke-opacity: 0.5; stroke-width: 0.5; stroke-linecap: round"/>
   </g>
   <g id="line2d_37">
    <path d="M 69.575 76.356539 
L 81.391026 87.391147 
L 93.207051 88.040241 
L 105.023077 102.969416 
L 116.839103 105.565795 
L 128.655128 110.758551 
L 140.471154 120.49497 
L 152.287179 136.073239 
L 164.103205 154.247887 
L 175.919231 171.124346 
L 187.735256 193.193561 
L 199.551282 209.420926 
L 211.367308 239.92837 
L 223.183333 256.804829 
L 234.999359 276.277666 
L 246.815385 292.50503 
L 258.63141 298.346881 
L 270.447436 306.785111 
L 282.263462 307.434205 
L 294.079487 311.977867 
L 305.895513 315.22334 
L 317.711538 310.030584 
L 329.527564 302.890543 
L 341.34359 293.154125 
L 353.159615 283.417706 
L 364.975641 267.190342 
L 376.791667 244.472032 
L 388.607692 219.157344 
L 400.423718 190.597183 
L 412.239744 183.457143 
L 424.055769 165.282495 
L 435.871795 166.580684 
L 447.687821 171.124346 
L 459.503846 171.773441 
L 471.319872 186.702616 
L 483.135897 188.000805 
L 494.951923 138.020523 
L 506.767949 127.63501 
L 518.583974 101.022133 
L 530.4 89.338431 
" clip-path="url(#p88886d6dfc)" style="fill: none; stroke: #73b5e3; stroke-opacity: 0.5; stroke-width: 0.5; stroke-linecap: round"/>
   </g>
   <g id="line2d_38">
    <path d="M 69.575 102.969416 
L 81.391026 79.602012 
L 93.207051 86.092958 
L 105.023077 86.092958 
L 116.839103 89.987525 
L 128.655128 89.338431 
L 140.471154 99.723944 
L 152.287179 99.723944 
L 164.103205 106.863984 
L 175.919231 122.442254 
L 187.735256 145.160563 
L 199.551282 156.195171 
L 211.367308 178.264386 
L 223.183333 200.982696 
L 234.999359 228.244668 
L 246.815385 250.313883 
L 258.63141 267.839437 
L 270.447436 278.22495 
L 282.263462 284.066801 
L 294.079487 288.610463 
L 305.895513 296.399598 
L 317.711538 293.154125 
L 329.527564 286.663179 
L 341.34359 281.470423 
L 353.159615 269.78672 
L 364.975641 258.752113 
L 376.791667 241.875654 
L 388.607692 213.964588 
L 400.423718 188.000805 
L 412.239744 169.826157 
L 424.055769 151.651509 
L 435.871795 144.511469 
L 447.687821 154.896982 
L 459.503846 161.387928 
L 471.319872 174.369819 
L 483.135897 173.720724 
L 494.951923 152.949698 
L 506.767949 151.002414 
L 518.583974 139.967807 
L 530.4 119.196781 
" clip-path="url(#p88886d6dfc)" style="fill: none; stroke: #73b5e3; stroke-opacity: 0.5; stroke-width: 0.5; stroke-linecap: round"/>
   </g>
   <g id="line2d_39">
    <path d="M 69.575 71.163783 
L 81.391026 78.303823 
L 93.207051 77.005634 
L 105.023077 74.409256 
L 116.839103 80.900201 
L 128.655128 89.338431 
L 140.471154 97.77666 
L 152.287179 100.373038 
L 164.103205 128.284105 
L 175.919231 149.704225 
L 187.735256 181.509859 
L 199.551282 204.877264 
L 211.367308 228.893763 
L 223.183333 256.804829 
L 234.999359 273.032193 
L 246.815385 287.961368 
L 258.63141 310.030584 
L 270.447436 309.381489 
L 282.263462 311.977867 
L 294.079487 318.468813 
L 305.895513 319.117907 
L 317.711538 317.819718 
L 329.527564 313.276056 
L 341.34359 303.539638 
L 353.159615 292.50503 
L 364.975641 277.575855 
L 376.791667 256.155734 
L 388.607692 226.946479 
L 400.423718 197.737223 
L 412.239744 173.07163 
L 424.055769 161.387928 
L 435.871795 153.598793 
L 447.687821 143.862374 
L 459.503846 155.546076 
L 471.319872 162.686117 
L 483.135897 128.933199 
L 494.951923 115.951308 
L 506.767949 101.671227 
L 518.583974 84.145674 
L 530.4 75.05835 
" clip-path="url(#p88886d6dfc)" style="fill: none; stroke: #73b5e3; stroke-opacity: 0.5; stroke-width: 0.5; stroke-linecap: round"/>
   </g>
   <g id="line2d_40">
    <path d="M 69.575 75.05835 
L 81.391026 75.05835 
L 93.207051 65.971026 
L 105.023077 56.883702 
L 116.839103 67.91831 
L 128.655128 77.654728 
L 140.471154 76.356539 
L 152.287179 81.549296 
L 164.103205 87.391147 
L 175.919231 102.969416 
L 187.735256 123.091348 
L 199.551282 139.967807 
L 211.367308 165.93159 
L 223.183333 195.140845 
L 234.999359 221.104628 
L 246.815385 236.033803 
L 258.63141 263.295775 
L 270.447436 269.137626 
L 282.263462 279.523139 
L 294.079487 284.715895 
L 305.895513 286.663179 
L 317.711538 286.663179 
L 329.527564 282.119517 
L 341.34359 275.628571 
L 353.159615 271.734004 
L 364.975641 252.910262 
L 376.791667 232.78833 
L 388.607692 211.368209 
L 400.423718 191.246278 
L 412.239744 174.369819 
L 424.055769 146.458753 
L 435.871795 121.793159 
L 447.687821 112.05674 
L 459.503846 104.267606 
L 471.319872 105.565795 
L 483.135897 122.442254 
L 494.951923 124.389537 
L 506.767949 117.249497 
L 518.583974 110.109457 
L 530.4 89.987525 
" clip-path="url(#p88886d6dfc)" style="fill: none; stroke: #73b5e3; stroke-opacity: 0.5; stroke-width: 0.5; stroke-linecap: round"/>
   </g>
   <g id="line2d_41">
    <path d="M 69.575 61.427364 
L 81.391026 67.269215 
L 93.207051 60.77827 
L 105.023077 65.971026 
L 116.839103 80.251107 
L 128.655128 78.303823 
L 140.471154 98.425755 
L 152.287179 108.811268 
L 164.103205 134.77505 
L 175.919231 147.107847 
L 187.735256 171.773441 
L 199.551282 193.193561 
L 211.367308 215.911871 
L 223.183333 247.06841 
L 234.999359 270.435815 
L 246.815385 282.768612 
L 258.63141 289.908652 
L 270.447436 297.697787 
L 282.263462 294.452314 
L 294.079487 297.697787 
L 305.895513 299.64507 
L 317.711538 295.101408 
L 329.527564 293.154125 
L 341.34359 273.681288 
L 353.159615 245.121127 
L 364.975641 223.051911 
L 376.791667 200.333602 
L 388.607692 181.509859 
L 400.423718 160.089738 
L 412.239744 143.862374 
L 424.055769 118.547686 
L 435.871795 117.898592 
L 447.687821 112.05674 
L 459.503846 101.671227 
L 471.319872 113.35493 
L 483.135897 99.074849 
L 494.951923 82.847485 
L 506.767949 62.725553 
L 518.583974 64.672837 
L 530.4 60.77827 
" clip-path="url(#p88886d6dfc)" style="fill: none; stroke: #73b5e3; stroke-opacity: 0.5; stroke-width: 0.5; stroke-linecap: round"/>
   </g>
   <g id="line2d_42">
    <path d="M 69.575 87.391147 
L 81.391026 60.77827 
L 93.207051 55.585513 
L 105.023077 71.163783 
L 116.839103 78.303823 
L 128.655128 83.496579 
L 140.471154 91.285714 
L 152.287179 102.320322 
L 164.103205 115.302213 
L 175.919231 121.793159 
L 187.735256 136.722334 
L 199.551282 160.089738 
L 211.367308 186.702616 
L 223.183333 213.315493 
L 234.999359 237.331992 
L 246.815385 252.910262 
L 258.63141 264.593964 
L 270.447436 278.22495 
L 282.263462 284.066801 
L 294.079487 280.821328 
L 305.895513 284.715895 
L 317.711538 278.874044 
L 329.527564 276.926761 
L 341.34359 267.190342 
L 353.159615 247.06841 
L 364.975641 222.402817 
L 376.791667 202.280885 
L 388.607692 180.860765 
L 400.423718 158.791549 
L 412.239744 138.669618 
L 424.055769 129.582294 
L 435.871795 107.513078 
L 447.687821 97.127565 
L 459.503846 84.145674 
L 471.319872 78.303823 
L 483.135897 154.896982 
L 494.951923 143.21328 
L 506.767949 124.389537 
L 518.583974 115.951308 
L 530.4 102.320322 
" clip-path="url(#p88886d6dfc)" style="fill: none; stroke: #73b5e3; stroke-opacity: 0.5; stroke-width: 0.5; stroke-linecap: round"/>
   </g>
   <g id="line2d_43">
    <path d="M 69.575 69.216499 
L 81.391026 69.865594 
L 93.207051 67.91831 
L 105.023077 67.91831 
L 116.839103 79.602012 
L 128.655128 75.707445 
L 140.471154 81.549296 
L 152.287179 102.320322 
L 164.103205 114.004024 
L 175.919231 132.178672 
L 187.735256 158.142455 
L 199.551282 173.720724 
L 211.367308 201.631791 
L 223.183333 230.191952 
L 234.999359 252.910262 
L 246.815385 269.137626 
L 258.63141 287.312274 
L 270.447436 289.908652 
L 282.263462 301.592354 
L 294.079487 306.785111 
L 305.895513 307.434205 
L 317.711538 300.94326 
L 329.527564 300.94326 
L 341.34359 290.557746 
L 353.159615 278.22495 
L 364.975641 266.541247 
L 376.791667 247.717505 
L 388.607692 215.911871 
L 400.423718 189.298994 
L 412.239744 169.177062 
L 424.055769 140.616901 
L 435.871795 108.811268 
L 447.687821 107.513078 
L 459.503846 93.232998 
L 471.319872 89.338431 
L 483.135897 146.458753 
L 494.951923 128.284105 
L 506.767949 106.863984 
L 518.583974 91.934809 
L 530.4 75.707445 
" clip-path="url(#p88886d6dfc)" style="fill: none; stroke: #73b5e3; stroke-opacity: 0.5; stroke-width: 0.5; stroke-linecap: round"/>
   </g>
   <g id="line2d_44">
    <path d="M 69.575 130.231388 
L 81.391026 97.127565 
L 93.207051 86.092958 
L 105.023077 80.251107 
L 116.839103 82.19839 
L 128.655128 84.794769 
L 140.471154 89.338431 
L 152.287179 101.022133 
L 164.103205 112.05674 
L 175.919231 127.63501 
L 187.735256 138.020523 
L 199.551282 161.387928 
L 211.367308 176.966197 
L 223.183333 201.631791 
L 234.999359 217.859155 
L 246.815385 236.682897 
L 258.63141 256.155734 
L 270.447436 268.488531 
L 282.263462 284.715895 
L 294.079487 280.172233 
L 305.895513 295.750503 
L 317.711538 293.154125 
L 329.527564 284.715895 
L 341.34359 276.277666 
L 353.159615 261.997586 
L 364.975641 244.472032 
L 376.791667 224.350101 
L 388.607692 208.122736 
L 400.423718 180.860765 
L 412.239744 154.247887 
L 424.055769 135.424145 
L 435.871795 122.442254 
L 447.687821 108.811268 
L 459.503846 108.811268 
L 471.319872 94.531187 
L 483.135897 82.847485 
L 494.951923 175.668008 
L 506.767949 164.6334 
L 518.583974 160.738833 
L 530.4 143.21328 
" clip-path="url(#p88886d6dfc)" style="fill: none; stroke: #73b5e3; stroke-opacity: 0.5; stroke-width: 0.5; stroke-linecap: round"/>
   </g>
   <g id="line2d_45">
    <path d="M 69.575 141.915091 
L 81.391026 138.669618 
L 93.207051 128.284105 
L 105.023077 117.249497 
L 116.839103 111.407646 
L 128.655128 130.880483 
L 140.471154 129.582294 
L 152.287179 133.476861 
L 164.103205 144.511469 
L 175.919231 163.984306 
L 187.735256 183.457143 
L 199.551282 201.631791 
L 211.367308 234.086519 
L 223.183333 250.962978 
L 234.999359 274.330382 
L 246.815385 286.663179 
L 258.63141 298.995976 
L 270.447436 303.539638 
L 282.263462 312.626962 
L 294.079487 311.328773 
L 305.895513 313.925151 
L 317.711538 307.434205 
L 329.527564 312.626962 
L 341.34359 305.486922 
L 353.159615 286.014085 
L 364.975641 275.628571 
L 376.791667 256.155734 
L 388.607692 223.701006 
L 400.423718 194.491751 
L 412.239744 171.124346 
L 424.055769 151.651509 
L 435.871795 125.038632 
L 447.687821 107.513078 
L 459.503846 110.109457 
L 471.319872 96.478471 
L 483.135897 83.496579 
L 494.951923 78.303823 
L 506.767949 187.35171 
L 518.583974 184.106237 
L 530.4 162.686117 
" clip-path="url(#p88886d6dfc)" style="fill: none; stroke: #73b5e3; stroke-opacity: 0.5; stroke-width: 0.5; stroke-linecap: round"/>
   </g>
   <g id="line2d_46">
    <path d="M 69.575 134.125956 
L 81.391026 126.985915 
L 93.207051 117.898592 
L 105.023077 120.49497 
L 116.839103 126.985915 
L 128.655128 138.669618 
L 140.471154 142.564185 
L 152.287179 150.35332 
L 164.103205 166.580684 
L 175.919231 185.404427 
L 187.735256 204.228169 
L 199.551282 213.964588 
L 211.367308 243.173843 
L 223.183333 262.64668 
L 234.999359 276.277666 
L 246.815385 289.259557 
L 258.63141 291.206841 
L 270.447436 290.557746 
L 282.263462 294.452314 
L 294.079487 295.101408 
L 305.895513 295.750503 
L 317.711538 283.417706 
L 329.527564 269.78672 
L 341.34359 254.208451 
L 353.159615 241.226559 
L 364.975641 215.911871 
L 376.791667 193.842656 
L 388.607692 171.124346 
L 400.423718 155.546076 
L 412.239744 143.21328 
L 424.055769 131.529577 
L 435.871795 117.249497 
L 447.687821 99.074849 
L 459.503846 94.531187 
L 471.319872 181.509859 
L 483.135897 191.895372 
L 494.951923 200.982696 
L 506.767949 192.544467 
L 518.583974 159.440644 
L 530.4 134.77505 
" clip-path="url(#p88886d6dfc)" style="fill: none; stroke: #73b5e3; stroke-opacity: 0.5; stroke-width: 0.5; stroke-linecap: round"/>
   </g>
   <g id="line2d_47">
    <path d="M 69.575 105.565795 
L 81.391026 94.531187 
L 93.207051 83.496579 
L 105.023077 80.900201 
L 116.839103 78.952918 
L 128.655128 84.794769 
L 140.471154 91.285714 
L 152.287179 91.285714 
L 164.103205 112.05674 
L 175.919231 117.898592 
L 187.735256 112.05674 
L 199.551282 130.231388 
L 211.367308 128.933199 
L 223.183333 138.669618 
L 234.999359 169.177062 
L 246.815385 189.948089 
L 258.63141 211.368209 
L 270.447436 247.717505 
L 282.263462 250.962978 
L 294.079487 265.892153 
L 305.895513 274.979477 
L 317.711538 273.032193 
L 329.527564 273.032193 
L 341.34359 269.78672 
L 353.159615 257.453924 
L 364.975641 248.3666 
L 376.791667 228.893763 
L 388.607692 213.315493 
L 400.423718 193.842656 
L 412.239744 193.193561 
L 424.055769 192.544467 
L 435.871795 193.842656 
L 447.687821 193.193561 
L 459.503846 193.193561 
L 471.319872 191.246278 
L 483.135897 188.649899 
L 494.951923 145.809658 
L 506.767949 134.77505 
L 518.583974 142.564185 
L 530.4 125.038632 
" clip-path="url(#p88886d6dfc)" style="fill: none; stroke: #73b5e3; stroke-opacity: 0.5; stroke-width: 0.5; stroke-linecap: round"/>
   </g>
   <g id="line2d_48">
    <path d="M 69.575 61.427364 
L 81.391026 62.076459 
L 93.207051 58.830986 
L 105.023077 62.076459 
L 116.839103 70.514688 
L 128.655128 89.338431 
L 140.471154 88.040241 
L 152.287179 108.811268 
L 164.103205 102.320322 
L 175.919231 107.513078 
L 187.735256 121.793159 
L 199.551282 140.616901 
L 211.367308 165.93159 
L 223.183333 182.808048 
L 234.999359 218.508249 
L 246.815385 233.437425 
L 258.63141 247.717505 
L 270.447436 255.50664 
L 282.263462 265.892153 
L 294.079487 271.084909 
L 305.895513 274.330382 
L 317.711538 269.137626 
L 329.527564 268.488531 
L 341.34359 260.050302 
L 353.159615 243.822938 
L 364.975641 219.157344 
L 376.791667 199.035412 
L 388.607692 184.755332 
L 400.423718 154.896982 
L 412.239744 152.949698 
L 424.055769 147.107847 
L 435.871795 164.6334 
L 447.687821 174.369819 
L 459.503846 177.615292 
L 471.319872 175.018913 
L 483.135897 180.860765 
L 494.951923 120.49497 
L 506.767949 105.565795 
L 518.583974 77.654728 
L 530.4 59.48008 
" clip-path="url(#p88886d6dfc)" style="fill: none; stroke: #73b5e3; stroke-opacity: 0.5; stroke-width: 0.5; stroke-linecap: round"/>
   </g>
   <g id="line2d_49">
    <path d="M 69.575 70.514688 
L 81.391026 68.567404 
L 93.207051 74.409256 
L 105.023077 81.549296 
L 116.839103 77.654728 
L 128.655128 86.092958 
L 140.471154 92.583903 
L 152.287179 97.127565 
L 164.103205 114.004024 
L 175.919231 123.091348 
L 187.735256 141.265996 
L 199.551282 162.686117 
L 211.367308 180.860765 
L 223.183333 210.07002 
L 234.999359 226.946479 
L 246.815385 250.962978 
L 258.63141 264.593964 
L 270.447436 284.715895 
L 282.263462 283.417706 
L 294.079487 286.663179 
L 305.895513 291.206841 
L 317.711538 285.36499 
L 329.527564 269.78672 
L 341.34359 262.64668 
L 353.159615 241.875654 
L 364.975641 225.64829 
L 376.791667 186.053521 
L 388.607692 162.686117 
L 400.423718 146.458753 
L 412.239744 135.424145 
L 424.055769 123.740443 
L 435.871795 136.073239 
L 447.687821 157.49336 
L 459.503846 160.738833 
L 471.319872 173.720724 
L 483.135897 112.05674 
L 494.951923 97.127565 
L 506.767949 84.794769 
L 518.583974 57.532797 
L 530.4 64.023742 
" clip-path="url(#p88886d6dfc)" style="fill: none; stroke: #73b5e3; stroke-opacity: 0.5; stroke-width: 0.5; stroke-linecap: round"/>
   </g>
   <g id="line2d_50">
    <path d="M 69.575 65.321932 
L 81.391026 61.427364 
L 93.207051 58.830986 
L 105.023077 50.392757 
L 116.839103 60.77827 
L 128.655128 74.409256 
L 140.471154 70.514688 
L 152.287179 73.111066 
L 164.103205 77.005634 
L 175.919231 92.583903 
L 187.735256 102.320322 
L 199.551282 125.038632 
L 211.367308 126.336821 
L 223.183333 149.055131 
L 234.999359 169.826157 
L 246.815385 200.982696 
L 258.63141 225.64829 
L 270.447436 239.92837 
L 282.263462 263.295775 
L 294.079487 263.295775 
L 305.895513 271.084909 
L 317.711538 264.593964 
L 329.527564 261.997586 
L 341.34359 264.593964 
L 353.159615 258.752113 
L 364.975641 254.208451 
L 376.791667 233.437425 
L 388.607692 207.473642 
L 400.423718 184.106237 
L 412.239744 158.142455 
L 424.055769 134.125956 
L 435.871795 130.231388 
L 447.687821 115.302213 
L 459.503846 110.758551 
L 471.319872 108.162173 
L 483.135897 119.196781 
L 494.951923 125.687726 
L 506.767949 137.371429 
L 518.583974 93.232998 
L 530.4 88.689336 
" clip-path="url(#p88886d6dfc)" style="fill: none; stroke: #73b5e3; stroke-opacity: 0.5; stroke-width: 0.5; stroke-linecap: round"/>
   </g>
   <g id="line2d_51">
    <path d="M 69.575 47.796378 
L 81.391026 61.427364 
L 93.207051 60.129175 
L 105.023077 73.760161 
L 116.839103 71.812877 
L 128.655128 78.952918 
L 140.471154 95.180282 
L 152.287179 93.232998 
L 164.103205 96.478471 
L 175.919231 113.35493 
L 187.735256 123.740443 
L 199.551282 154.247887 
L 211.367308 174.369819 
L 223.183333 192.544467 
L 234.999359 219.806439 
L 246.815385 238.630181 
L 258.63141 253.559356 
L 270.447436 265.892153 
L 282.263462 269.137626 
L 294.079487 271.084909 
L 305.895513 274.979477 
L 317.711538 262.64668 
L 329.527564 260.699396 
L 341.34359 240.577465 
L 353.159615 221.753722 
L 364.975641 214.613682 
L 376.791667 188.000805 
L 388.607692 156.195171 
L 400.423718 136.722334 
L 412.239744 119.845875 
L 424.055769 110.109457 
L 435.871795 99.074849 
L 447.687821 83.496579 
L 459.503846 78.303823 
L 471.319872 84.794769 
L 483.135897 117.249497 
L 494.951923 106.863984 
L 506.767949 79.602012 
L 518.583974 59.48008 
L 530.4 59.48008 
" clip-path="url(#p88886d6dfc)" style="fill: none; stroke: #73b5e3; stroke-opacity: 0.5; stroke-width: 0.5; stroke-linecap: round"/>
   </g>
   <g id="line2d_52">
    <path d="M 69.575 59.48008 
L 81.391026 52.989135 
L 93.207051 52.989135 
L 105.023077 62.076459 
L 116.839103 75.05835 
L 128.655128 71.163783 
L 140.471154 82.847485 
L 152.287179 82.847485 
L 164.103205 91.934809 
L 175.919231 100.373038 
L 187.735256 121.144064 
L 199.551282 134.77505 
L 211.367308 160.089738 
L 223.183333 180.860765 
L 234.999359 201.631791 
L 246.815385 220.455533 
L 258.63141 236.033803 
L 270.447436 243.173843 
L 282.263462 246.419316 
L 294.079487 244.472032 
L 305.895513 250.962978 
L 317.711538 250.313883 
L 329.527564 245.770221 
L 341.34359 237.331992 
L 353.159615 208.122736 
L 364.975641 180.860765 
L 376.791667 170.475252 
L 388.607692 145.809658 
L 400.423718 134.125956 
L 412.239744 115.302213 
L 424.055769 105.565795 
L 435.871795 104.9167 
L 447.687821 93.232998 
L 459.503846 84.145674 
L 471.319872 88.040241 
L 483.135897 83.496579 
L 494.951923 90.63662 
L 506.767949 78.952918 
L 518.583974 56.883702 
L 530.4 48.445473 
" clip-path="url(#p88886d6dfc)" style="fill: none; stroke: #73b5e3; stroke-opacity: 0.5; stroke-width: 0.5; stroke-linecap: round"/>
   </g>
   <g id="line2d_53">
    <path d="M 69.575 51.041851 
L 81.391026 51.690946 
L 93.207051 62.725553 
L 105.023077 60.77827 
L 116.839103 67.269215 
L 128.655128 72.461972 
L 140.471154 88.689336 
L 152.287179 91.285714 
L 164.103205 107.513078 
L 175.919231 108.162173 
L 187.735256 119.196781 
L 199.551282 136.073239 
L 211.367308 163.984306 
L 223.183333 181.509859 
L 234.999359 210.07002 
L 246.815385 237.331992 
L 258.63141 252.910262 
L 270.447436 258.103018 
L 282.263462 273.681288 
L 294.079487 272.383099 
L 305.895513 278.22495 
L 317.711538 276.277666 
L 329.527564 272.383099 
L 341.34359 261.348491 
L 353.159615 234.086519 
L 364.975641 202.280885 
L 376.791667 171.773441 
L 388.607692 153.598793 
L 400.423718 121.144064 
L 412.239744 104.267606 
L 424.055769 99.074849 
L 435.871795 88.689336 
L 447.687821 88.689336 
L 459.503846 75.707445 
L 471.319872 65.971026 
L 483.135897 59.48008 
L 494.951923 106.214889 
L 506.767949 86.092958 
L 518.583974 68.567404 
L 530.4 56.883702 
" clip-path="url(#p88886d6dfc)" style="fill: none; stroke: #73b5e3; stroke-opacity: 0.5; stroke-width: 0.5; stroke-linecap: round"/>
   </g>
   <g id="line2d_54">
    <path d="M 69.575 87.391147 
L 81.391026 71.163783 
L 93.207051 54.936419 
L 105.023077 54.936419 
L 116.839103 54.936419 
L 128.655128 45.2 
L 140.471154 56.883702 
L 152.287179 61.427364 
L 164.103205 65.321932 
L 175.919231 76.356539 
L 187.735256 95.180282 
L 199.551282 100.373038 
L 211.367308 126.985915 
L 223.183333 131.529577 
L 234.999359 161.387928 
L 246.815385 199.035412 
L 258.63141 228.893763 
L 270.447436 244.472032 
L 282.263462 252.910262 
L 294.079487 271.084909 
L 305.895513 280.172233 
L 317.711538 277.575855 
L 329.527564 275.628571 
L 341.34359 272.383099 
L 353.159615 258.752113 
L 364.975641 229.542857 
L 376.791667 211.368209 
L 388.607692 183.457143 
L 400.423718 158.791549 
L 412.239744 139.967807 
L 424.055769 114.653119 
L 435.871795 92.583903 
L 447.687821 87.391147 
L 459.503846 83.496579 
L 471.319872 72.461972 
L 483.135897 78.303823 
L 494.951923 159.440644 
L 506.767949 151.002414 
L 518.583974 137.371429 
L 530.4 123.091348 
" clip-path="url(#p88886d6dfc)" style="fill: none; stroke: #73b5e3; stroke-opacity: 0.5; stroke-width: 0.5; stroke-linecap: round"/>
   </g>
   <g id="line2d_55">
    <path d="M 69.575 108.162173 
L 81.391026 86.742052 
L 93.207051 88.689336 
L 105.023077 75.707445 
L 116.839103 76.356539 
L 128.655128 81.549296 
L 140.471154 103.618511 
L 152.287179 102.320322 
L 164.103205 115.951308 
L 175.919231 124.389537 
L 187.735256 132.827767 
L 199.551282 155.546076 
L 211.367308 160.089738 
L 223.183333 186.702616 
L 234.999359 200.982696 
L 246.815385 228.244668 
L 258.63141 249.664789 
L 270.447436 265.243058 
L 282.263462 283.417706 
L 294.079487 284.715895 
L 305.895513 291.855936 
L 317.711538 290.557746 
L 329.527564 290.557746 
L 341.34359 290.557746 
L 353.159615 283.417706 
L 364.975641 273.032193 
L 376.791667 252.261167 
L 388.607692 233.437425 
L 400.423718 205.526358 
L 412.239744 172.422535 
L 424.055769 149.055131 
L 435.871795 131.529577 
L 447.687821 129.582294 
L 459.503846 107.513078 
L 471.319872 99.723944 
L 483.135897 95.829376 
L 494.951923 86.742052 
L 506.767949 77.654728 
L 518.583974 156.195171 
L 530.4 133.476861 
" clip-path="url(#p88886d6dfc)" style="fill: none; stroke: #73b5e3; stroke-opacity: 0.5; stroke-width: 0.5; stroke-linecap: round"/>
   </g>
   <g id="line2d_56">
    <path d="M 69.575 150.35332 
L 81.391026 131.529577 
L 93.207051 121.144064 
L 105.023077 108.162173 
L 116.839103 97.127565 
L 128.655128 100.373038 
L 140.471154 100.373038 
L 152.287179 112.05674 
L 164.103205 110.109457 
L 175.919231 115.951308 
L 187.735256 126.336821 
L 199.551282 141.915091 
L 211.367308 165.282495 
L 223.183333 193.193561 
L 234.999359 215.911871 
L 246.815385 230.191952 
L 258.63141 267.190342 
L 270.447436 287.961368 
L 282.263462 300.294165 
L 294.079487 304.837827 
L 305.895513 307.434205 
L 317.711538 304.837827 
L 329.527564 305.486922 
L 341.34359 304.837827 
L 353.159615 291.206841 
L 364.975641 274.330382 
L 376.791667 261.348491 
L 388.607692 235.384708 
L 400.423718 202.280885 
L 412.239744 183.457143 
L 424.055769 146.458753 
L 435.871795 136.722334 
L 447.687821 129.582294 
L 459.503846 119.196781 
L 471.319872 116.600402 
L 483.135897 102.320322 
L 494.951923 89.987525 
L 506.767949 80.900201 
L 518.583974 173.720724 
L 530.4 175.668008 
" clip-path="url(#p88886d6dfc)" style="fill: none; stroke: #73b5e3; stroke-opacity: 0.5; stroke-width: 0.5; stroke-linecap: round"/>
   </g>
   <g id="line2d_57">
    <path d="M 69.575 182.808048 
L 81.391026 159.440644 
L 93.207051 149.704225 
L 105.023077 138.669618 
L 116.839103 125.687726 
L 128.655128 128.284105 
L 140.471154 126.336821 
L 152.287179 130.880483 
L 164.103205 147.107847 
L 175.919231 163.335211 
L 187.735256 168.527968 
L 199.551282 185.404427 
L 211.367308 202.280885 
L 223.183333 212.017304 
L 234.999359 247.06841 
L 246.815385 258.752113 
L 258.63141 286.014085 
L 270.447436 284.066801 
L 282.263462 297.048692 
L 294.079487 303.539638 
L 305.895513 309.381489 
L 317.711538 302.890543 
L 329.527564 298.346881 
L 341.34359 291.855936 
L 353.159615 289.908652 
L 364.975641 271.734004 
L 376.791667 249.664789 
L 388.607692 236.033803 
L 400.423718 206.175453 
L 412.239744 186.053521 
L 424.055769 173.07163 
L 435.871795 146.458753 
L 447.687821 134.77505 
L 459.503846 132.827767 
L 471.319872 112.05674 
L 483.135897 94.531187 
L 494.951923 86.742052 
L 506.767949 189.948089 
L 518.583974 180.21167 
L 530.4 180.21167 
" clip-path="url(#p88886d6dfc)" style="fill: none; stroke: #73b5e3; stroke-opacity: 0.5; stroke-width: 0.5; stroke-linecap: round"/>
   </g>
   <g id="line2d_58">
    <path d="M 69.575 93.852588 
L 81.391026 85.945436 
L 93.207051 81.549296 
L 105.023077 81.37227 
L 116.839103 84.381708 
L 128.655128 89.721986 
L 140.471154 97.216078 
L 152.287179 103.648015 
L 164.103205 114.918657 
L 175.919231 127.103933 
L 187.735256 142.652698 
L 199.551282 160.679824 
L 211.367308 181.952424 
L 223.183333 203.667587 
L 234.999359 226.592427 
L 246.815385 246.24229 
L 258.63141 264.269416 
L 270.447436 274.743442 
L 282.263462 283.181672 
L 294.079487 286.663179 
L 305.895513 292.062466 
L 317.711538 287.636821 
L 329.527564 284.125809 
L 341.34359 276.484196 
L 353.159615 262.174611 
L 364.975641 244.855588 
L 376.791667 224.173075 
L 388.607692 201.454765 
L 400.423718 177.113719 
L 412.239744 159.499652 
L 424.055769 143.036254 
L 435.871795 133.063801 
L 447.687821 127.694019 
L 459.503846 123.327382 
L 471.319872 126.336821 
L 483.135897 127.753027 
L 494.951923 123.327382 
L 506.767949 122.383245 
L 518.583974 116.452881 
L 530.4 104.887196 
" clip-path="url(#p88886d6dfc)" style="fill: none; stroke: #73b5e3; stroke-width: 2.5; stroke-linecap: round"/>
   </g>
   <g id="line2d_59">
    <path d="M 69.575 136.073239 
L 81.391026 125.038632 
L 93.207051 112.05674 
L 105.023077 109.460362 
L 116.839103 112.705835 
L 128.655128 115.302213 
L 140.471154 120.49497 
L 152.287179 129.582294 
L 164.103205 143.862374 
L 175.919231 149.704225 
L 187.735256 162.037022 
L 199.551282 195.78994 
L 211.367308 232.139235 
L 223.183333 260.699396 
L 234.999359 282.768612 
L 246.815385 304.188732 
L 258.63141 323.012475 
L 270.447436 339.239839 
L 282.263462 347.678068 
L 294.079487 353.51992 
L 305.895513 358.063581 
L 317.711538 356.116298 
L 329.527564 354.818109 
L 341.34359 357.414487 
L 353.159615 356.116298 
L 364.975641 352.22173 
L 376.791667 343.783501 
L 388.607692 328.205231 
L 400.423718 310.030584 
L 412.239744 289.908652 
L 424.055769 261.997586 
L 435.871795 230.191952 
L 447.687821 202.280885 
L 459.503846 197.088129 
L 471.319872 193.842656 
L 483.135897 182.808048 
L 494.951923 186.702616 
L 506.767949 193.842656 
L 518.583974 197.737223 
L 530.4 151.002414 
" clip-path="url(#p88886d6dfc)" style="fill: none; stroke: #ffb984; stroke-opacity: 0.5; stroke-width: 0.5; stroke-linecap: round"/>
   </g>
   <g id="line2d_60">
    <path d="M 69.575 90.63662 
L 81.391026 84.794769 
L 93.207051 83.496579 
L 105.023077 93.232998 
L 116.839103 102.969416 
L 128.655128 107.513078 
L 140.471154 110.758551 
L 152.287179 122.442254 
L 164.103205 149.704225 
L 175.919231 178.264386 
L 187.735256 208.771831 
L 199.551282 245.770221 
L 211.367308 275.628571 
L 223.183333 299.64507 
L 234.999359 326.257948 
L 246.815385 337.292555 
L 258.63141 342.485312 
L 270.447436 352.22173 
L 282.263462 360.65996 
L 294.079487 361.309054 
L 305.895513 363.905433 
L 317.711538 362.607243 
L 329.527564 356.116298 
L 341.34359 354.818109 
L 353.159615 353.51992 
L 364.975641 345.08169 
L 376.791667 330.152515 
L 388.607692 306.785111 
L 400.423718 273.032193 
L 412.239744 236.033803 
L 424.055769 213.964588 
L 435.871795 202.92998 
L 447.687821 188.000805 
L 459.503846 186.053521 
L 471.319872 186.702616 
L 483.135897 141.915091 
L 494.951923 140.616901 
L 506.767949 131.529577 
L 518.583974 107.513078 
L 530.4 93.232998 
" clip-path="url(#p88886d6dfc)" style="fill: none; stroke: #ffb984; stroke-opacity: 0.5; stroke-width: 0.5; stroke-linecap: round"/>
   </g>
   <g id="line2d_61">
    <path d="M 69.575 111.407646 
L 81.391026 114.653119 
L 93.207051 105.565795 
L 105.023077 97.127565 
L 116.839103 106.214889 
L 128.655128 113.35493 
L 140.471154 119.196781 
L 152.287179 125.038632 
L 164.103205 138.669618 
L 175.919231 160.738833 
L 187.735256 192.544467 
L 199.551282 233.437425 
L 211.367308 267.190342 
L 223.183333 289.908652 
L 234.999359 313.925151 
L 246.815385 328.854326 
L 258.63141 333.397988 
L 270.447436 341.836217 
L 282.263462 345.730785 
L 294.079487 342.485312 
L 305.895513 347.678068 
L 317.711538 347.028974 
L 329.527564 343.134406 
L 341.34359 337.94165 
L 353.159615 327.556137 
L 364.975641 304.188732 
L 376.791667 287.312274 
L 388.607692 268.488531 
L 400.423718 233.437425 
L 412.239744 204.228169 
L 424.055769 170.475252 
L 435.871795 142.564185 
L 447.687821 126.336821 
L 459.503846 121.144064 
L 471.319872 124.389537 
L 483.135897 134.77505 
L 494.951923 145.160563 
L 506.767949 148.406036 
L 518.583974 156.844266 
L 530.4 128.933199 
" clip-path="url(#p88886d6dfc)" style="fill: none; stroke: #ffb984; stroke-opacity: 0.5; stroke-width: 0.5; stroke-linecap: round"/>
   </g>
   <g id="line2d_62">
    <path d="M 69.575 90.63662 
L 81.391026 91.285714 
L 93.207051 98.425755 
L 105.023077 105.565795 
L 116.839103 109.460362 
L 128.655128 123.091348 
L 140.471154 131.529577 
L 152.287179 147.756942 
L 164.103205 174.369819 
L 175.919231 195.78994 
L 187.735256 224.999195 
L 199.551282 253.559356 
L 211.367308 275.628571 
L 223.183333 295.101408 
L 234.999359 310.679678 
L 246.815385 323.661569 
L 258.63141 328.854326 
L 270.447436 332.748893 
L 282.263462 339.888934 
L 294.079487 340.538028 
L 305.895513 342.485312 
L 317.711538 339.239839 
L 329.527564 334.047082 
L 341.34359 330.80161 
L 353.159615 323.012475 
L 364.975641 309.381489 
L 376.791667 286.014085 
L 388.607692 267.190342 
L 400.423718 243.822938 
L 412.239744 209.420926 
L 424.055769 182.808048 
L 435.871795 156.195171 
L 447.687821 143.862374 
L 459.503846 136.073239 
L 471.319872 128.933199 
L 483.135897 140.616901 
L 494.951923 151.651509 
L 506.767949 116.600402 
L 518.583974 104.9167 
L 530.4 97.77666 
" clip-path="url(#p88886d6dfc)" style="fill: none; stroke: #ffb984; stroke-opacity: 0.5; stroke-width: 0.5; stroke-linecap: round"/>
   </g>
   <g id="line2d_63">
    <path d="M 69.575 120.49497 
L 81.391026 138.669618 
L 93.207051 132.178672 
L 105.023077 118.547686 
L 116.839103 110.109457 
L 128.655128 104.9167 
L 140.471154 113.35493 
L 152.287179 123.091348 
L 164.103205 117.898592 
L 175.919231 117.249497 
L 187.735256 131.529577 
L 199.551282 154.247887 
L 211.367308 177.615292 
L 223.183333 212.666398 
L 234.999359 245.770221 
L 246.815385 278.22495 
L 258.63141 304.837827 
L 270.447436 323.661569 
L 282.263462 335.994366 
L 294.079487 350.274447 
L 305.895513 355.467203 
L 317.711538 353.51992 
L 329.527564 350.923541 
L 341.34359 349.625352 
L 353.159615 345.08169 
L 364.975641 339.888934 
L 376.791667 328.205231 
L 388.607692 312.626962 
L 400.423718 291.855936 
L 412.239744 265.892153 
L 424.055769 245.770221 
L 435.871795 221.104628 
L 447.687821 184.106237 
L 459.503846 158.142455 
L 471.319872 138.669618 
L 483.135897 120.49497 
L 494.951923 113.35493 
L 506.767949 105.565795 
L 518.583974 102.969416 
L 530.4 106.863984 
" clip-path="url(#p88886d6dfc)" style="fill: none; stroke: #ffb984; stroke-opacity: 0.5; stroke-width: 0.5; stroke-linecap: round"/>
   </g>
   <g id="line2d_64">
    <path d="M 69.575 86.092958 
L 81.391026 90.63662 
L 93.207051 91.285714 
L 105.023077 95.829376 
L 116.839103 101.022133 
L 128.655128 104.267606 
L 140.471154 116.600402 
L 152.287179 141.915091 
L 164.103205 175.018913 
L 175.919231 207.473642 
L 187.735256 244.472032 
L 199.551282 278.874044 
L 211.367308 302.241449 
L 223.183333 324.310664 
L 234.999359 339.888934 
L 246.815385 347.678068 
L 258.63141 351.572636 
L 270.447436 354.169014 
L 282.263462 356.116298 
L 294.079487 356.116298 
L 305.895513 356.765392 
L 317.711538 352.870825 
L 329.527564 343.783501 
L 341.34359 337.292555 
L 353.159615 332.748893 
L 364.975641 317.819718 
L 376.791667 292.50503 
L 388.607692 260.050302 
L 400.423718 223.701006 
L 412.239744 186.053521 
L 424.055769 152.949698 
L 435.871795 131.529577 
L 447.687821 114.004024 
L 459.503846 108.811268 
L 471.319872 104.267606 
L 483.135897 107.513078 
L 494.951923 105.565795 
L 506.767949 125.687726 
L 518.583974 114.004024 
L 530.4 96.478471 
" clip-path="url(#p88886d6dfc)" style="fill: none; stroke: #ffb984; stroke-opacity: 0.5; stroke-width: 0.5; stroke-linecap: round"/>
   </g>
   <g id="line2d_65">
    <path d="M 69.575 85.443863 
L 81.391026 88.040241 
L 93.207051 91.934809 
L 105.023077 95.180282 
L 116.839103 97.77666 
L 128.655128 101.671227 
L 140.471154 112.05674 
L 152.287179 121.144064 
L 164.103205 137.371429 
L 175.919231 163.984306 
L 187.735256 197.737223 
L 199.551282 230.191952 
L 211.367308 258.103018 
L 223.183333 287.961368 
L 234.999359 307.434205 
L 246.815385 319.117907 
L 258.63141 333.397988 
L 270.447436 341.187123 
L 282.263462 340.538028 
L 294.079487 341.187123 
L 305.895513 345.08169 
L 317.711538 345.08169 
L 329.527564 339.888934 
L 341.34359 334.047082 
L 353.159615 324.959759 
L 364.975641 301.592354 
L 376.791667 267.190342 
L 388.607692 237.331992 
L 400.423718 195.78994 
L 412.239744 156.195171 
L 424.055769 136.722334 
L 435.871795 123.740443 
L 447.687821 109.460362 
L 459.503846 102.320322 
L 471.319872 97.77666 
L 483.135897 93.232998 
L 494.951923 126.985915 
L 506.767949 106.863984 
L 518.583974 90.63662 
L 530.4 88.689336 
" clip-path="url(#p88886d6dfc)" style="fill: none; stroke: #ffb984; stroke-opacity: 0.5; stroke-width: 0.5; stroke-linecap: round"/>
   </g>
   <g id="line2d_66">
    <path d="M 69.575 110.109457 
L 81.391026 106.863984 
L 93.207051 95.180282 
L 105.023077 90.63662 
L 116.839103 100.373038 
L 128.655128 115.951308 
L 140.471154 118.547686 
L 152.287179 126.985915 
L 164.103205 153.598793 
L 175.919231 177.615292 
L 187.735256 206.175453 
L 199.551282 240.577465 
L 211.367308 273.032193 
L 223.183333 302.890543 
L 234.999359 321.714286 
L 246.815385 336.643461 
L 258.63141 343.783501 
L 270.447436 343.783501 
L 282.263462 347.028974 
L 294.079487 349.625352 
L 305.895513 350.274447 
L 317.711538 345.08169 
L 329.527564 339.888934 
L 341.34359 335.345272 
L 353.159615 321.065191 
L 364.975641 298.346881 
L 376.791667 270.435815 
L 388.607692 232.139235 
L 400.423718 195.140845 
L 412.239744 164.6334 
L 424.055769 137.371429 
L 435.871795 122.442254 
L 447.687821 109.460362 
L 459.503846 100.373038 
L 471.319872 97.127565 
L 483.135897 92.583903 
L 494.951923 86.742052 
L 506.767949 139.318712 
L 518.583974 122.442254 
L 530.4 108.811268 
" clip-path="url(#p88886d6dfc)" style="fill: none; stroke: #ffb984; stroke-opacity: 0.5; stroke-width: 0.5; stroke-linecap: round"/>
   </g>
   <g id="line2d_67">
    <path d="M 69.575 100.373038 
L 81.391026 93.882093 
L 93.207051 95.829376 
L 105.023077 101.022133 
L 116.839103 112.05674 
L 128.655128 117.898592 
L 140.471154 124.389537 
L 152.287179 132.178672 
L 164.103205 153.598793 
L 175.919231 186.702616 
L 187.735256 214.613682 
L 199.551282 241.875654 
L 211.367308 269.137626 
L 223.183333 294.452314 
L 234.999359 313.925151 
L 246.815385 323.661569 
L 258.63141 328.854326 
L 270.447436 334.047082 
L 282.263462 338.590744 
L 294.079487 341.187123 
L 305.895513 341.836217 
L 317.711538 335.345272 
L 329.527564 323.012475 
L 341.34359 307.434205 
L 353.159615 286.014085 
L 364.975641 260.050302 
L 376.791667 228.244668 
L 388.607692 193.193561 
L 400.423718 163.984306 
L 412.239744 141.915091 
L 424.055769 128.284105 
L 435.871795 115.951308 
L 447.687821 103.618511 
L 459.503846 96.478471 
L 471.319872 93.882093 
L 483.135897 84.794769 
L 494.951923 164.6334 
L 506.767949 149.055131 
L 518.583974 130.880483 
L 530.4 112.705835 
" clip-path="url(#p88886d6dfc)" style="fill: none; stroke: #ffb984; stroke-opacity: 0.5; stroke-width: 0.5; stroke-linecap: round"/>
   </g>
   <g id="line2d_68">
    <path d="M 69.575 157.49336 
L 81.391026 147.107847 
L 93.207051 134.125956 
L 105.023077 123.091348 
L 116.839103 121.793159 
L 128.655128 121.793159 
L 140.471154 117.898592 
L 152.287179 122.442254 
L 164.103205 138.020523 
L 175.919231 152.300604 
L 187.735256 173.720724 
L 199.551282 205.526358 
L 211.367308 234.735614 
L 223.183333 271.084909 
L 234.999359 298.346881 
L 246.815385 315.22334 
L 258.63141 332.748893 
L 270.447436 342.485312 
L 282.263462 345.08169 
L 294.079487 348.327163 
L 305.895513 350.274447 
L 317.711538 348.976258 
L 329.527564 346.379879 
L 341.34359 347.678068 
L 353.159615 339.888934 
L 364.975641 326.907042 
L 376.791667 311.977867 
L 388.607692 289.908652 
L 400.423718 263.295775 
L 412.239744 230.841046 
L 424.055769 195.140845 
L 435.871795 164.6334 
L 447.687821 141.265996 
L 459.503846 126.336821 
L 471.319872 117.898592 
L 483.135897 116.600402 
L 494.951923 114.653119 
L 506.767949 106.863984 
L 518.583974 173.720724 
L 530.4 168.527968 
" clip-path="url(#p88886d6dfc)" style="fill: none; stroke: #ffb984; stroke-opacity: 0.5; stroke-width: 0.5; stroke-linecap: round"/>
   </g>
   <g id="line2d_69">
    <path d="M 69.575 156.195171 
L 81.391026 147.756942 
L 93.207051 141.915091 
L 105.023077 139.967807 
L 116.839103 151.002414 
L 128.655128 159.440644 
L 140.471154 164.6334 
L 152.287179 188.000805 
L 164.103205 216.560966 
L 175.919231 245.770221 
L 187.735256 281.470423 
L 199.551282 301.592354 
L 211.367308 314.574245 
L 223.183333 331.450704 
L 234.999359 343.783501 
L 246.815385 344.432596 
L 258.63141 345.08169 
L 270.447436 346.379879 
L 282.263462 343.783501 
L 294.079487 344.432596 
L 305.895513 347.028974 
L 317.711538 343.783501 
L 329.527564 332.099799 
L 341.34359 318.468813 
L 353.159615 301.592354 
L 364.975641 277.575855 
L 376.791667 250.313883 
L 388.607692 217.859155 
L 400.423718 180.860765 
L 412.239744 152.300604 
L 424.055769 137.371429 
L 435.871795 125.687726 
L 447.687821 117.249497 
L 459.503846 116.600402 
L 471.319872 110.758551 
L 483.135897 178.264386 
L 494.951923 173.07163 
L 506.767949 176.317103 
L 518.583974 175.668008 
L 530.4 168.527968 
" clip-path="url(#p88886d6dfc)" style="fill: none; stroke: #ffb984; stroke-opacity: 0.5; stroke-width: 0.5; stroke-linecap: round"/>
   </g>
   <g id="line2d_70">
    <path d="M 69.575 101.022133 
L 81.391026 100.373038 
L 93.207051 95.829376 
L 105.023077 102.320322 
L 116.839103 103.618511 
L 128.655128 101.022133 
L 140.471154 110.758551 
L 152.287179 114.653119 
L 164.103205 127.63501 
L 175.919231 147.107847 
L 187.735256 186.702616 
L 199.551282 216.560966 
L 211.367308 243.173843 
L 223.183333 282.119517 
L 234.999359 306.136016 
L 246.815385 321.065191 
L 258.63141 335.345272 
L 270.447436 348.976258 
L 282.263462 350.923541 
L 294.079487 354.169014 
L 305.895513 356.765392 
L 317.711538 350.274447 
L 329.527564 353.51992 
L 341.34359 354.169014 
L 353.159615 356.765392 
L 364.975641 348.327163 
L 376.791667 341.187123 
L 388.607692 319.117907 
L 400.423718 298.995976 
L 412.239744 268.488531 
L 424.055769 226.946479 
L 435.871795 195.140845 
L 447.687821 182.158954 
L 459.503846 177.615292 
L 471.319872 175.668008 
L 483.135897 172.422535 
L 494.951923 178.913481 
L 506.767949 126.985915 
L 518.583974 114.653119 
L 530.4 101.022133 
" clip-path="url(#p88886d6dfc)" style="fill: none; stroke: #ffb984; stroke-opacity: 0.5; stroke-width: 0.5; stroke-linecap: round"/>
   </g>
   <g id="line2d_71">
    <path d="M 69.575 95.180282 
L 81.391026 93.882093 
L 93.207051 95.180282 
L 105.023077 88.040241 
L 116.839103 95.180282 
L 128.655128 93.882093 
L 140.471154 100.373038 
L 152.287179 111.407646 
L 164.103205 133.476861 
L 175.919231 151.651509 
L 187.735256 186.702616 
L 199.551282 224.350101 
L 211.367308 250.313883 
L 223.183333 282.119517 
L 234.999359 308.732394 
L 246.815385 323.661569 
L 258.63141 330.152515 
L 270.447436 344.432596 
L 282.263462 349.625352 
L 294.079487 358.712676 
L 305.895513 361.309054 
L 317.711538 355.467203 
L 329.527564 359.361771 
L 341.34359 355.467203 
L 353.159615 350.274447 
L 364.975641 347.028974 
L 376.791667 336.643461 
L 388.607692 326.907042 
L 400.423718 302.890543 
L 412.239744 277.575855 
L 424.055769 242.524748 
L 435.871795 214.613682 
L 447.687821 187.35171 
L 459.503846 176.966197 
L 471.319872 178.264386 
L 483.135897 174.369819 
L 494.951923 165.282495 
L 506.767949 125.687726 
L 518.583974 114.004024 
L 530.4 95.180282 
" clip-path="url(#p88886d6dfc)" style="fill: none; stroke: #ffb984; stroke-opacity: 0.5; stroke-width: 0.5; stroke-linecap: round"/>
   </g>
   <g id="line2d_72">
    <path d="M 69.575 105.565795 
L 81.391026 82.19839 
L 93.207051 84.794769 
L 105.023077 89.987525 
L 116.839103 93.232998 
L 128.655128 103.618511 
L 140.471154 110.109457 
L 152.287179 123.740443 
L 164.103205 147.107847 
L 175.919231 175.668008 
L 187.735256 215.911871 
L 199.551282 256.804829 
L 211.367308 284.715895 
L 223.183333 313.276056 
L 234.999359 323.661569 
L 246.815385 337.292555 
L 258.63141 347.028974 
L 270.447436 353.51992 
L 282.263462 352.22173 
L 294.079487 354.818109 
L 305.895513 356.765392 
L 317.711538 353.51992 
L 329.527564 347.028974 
L 341.34359 343.783501 
L 353.159615 333.397988 
L 364.975641 317.819718 
L 376.791667 297.048692 
L 388.607692 270.435815 
L 400.423718 237.981087 
L 412.239744 207.473642 
L 424.055769 170.475252 
L 435.871795 140.616901 
L 447.687821 123.740443 
L 459.503846 107.513078 
L 471.319872 114.004024 
L 483.135897 130.231388 
L 494.951923 133.476861 
L 506.767949 141.915091 
L 518.583974 149.704225 
L 530.4 115.302213 
" clip-path="url(#p88886d6dfc)" style="fill: none; stroke: #ffb984; stroke-opacity: 0.5; stroke-width: 0.5; stroke-linecap: round"/>
   </g>
   <g id="line2d_73">
    <path d="M 69.575 112.05674 
L 81.391026 98.425755 
L 93.207051 105.565795 
L 105.023077 95.180282 
L 116.839103 103.618511 
L 128.655128 95.829376 
L 140.471154 112.05674 
L 152.287179 134.125956 
L 164.103205 163.335211 
L 175.919231 198.386318 
L 187.735256 240.577465 
L 199.551282 261.348491 
L 211.367308 290.557746 
L 223.183333 313.276056 
L 234.999359 328.205231 
L 246.815385 342.485312 
L 258.63141 354.169014 
L 270.447436 350.274447 
L 282.263462 355.467203 
L 294.079487 361.309054 
L 305.895513 365.203622 
L 317.711538 358.063581 
L 329.527564 360.010865 
L 341.34359 351.572636 
L 353.159615 353.51992 
L 364.975641 344.432596 
L 376.791667 334.696177 
L 388.607692 317.819718 
L 400.423718 299.64507 
L 412.239744 256.155734 
L 424.055769 223.701006 
L 435.871795 199.684507 
L 447.687821 167.878873 
L 459.503846 138.020523 
L 471.319872 144.511469 
L 483.135897 145.160563 
L 494.951923 152.949698 
L 506.767949 126.985915 
L 518.583974 129.582294 
L 530.4 120.49497 
" clip-path="url(#p88886d6dfc)" style="fill: none; stroke: #ffb984; stroke-opacity: 0.5; stroke-width: 0.5; stroke-linecap: round"/>
   </g>
   <g id="line2d_74">
    <path d="M 69.575 125.038632 
L 81.391026 112.05674 
L 93.207051 107.513078 
L 105.023077 110.109457 
L 116.839103 110.758551 
L 128.655128 123.091348 
L 140.471154 147.107847 
L 152.287179 153.598793 
L 164.103205 175.018913 
L 175.919231 220.455533 
L 187.735256 243.822938 
L 199.551282 276.926761 
L 211.367308 295.101408 
L 223.183333 312.626962 
L 234.999359 330.152515 
L 246.815385 342.485312 
L 258.63141 346.379879 
L 270.447436 350.274447 
L 282.263462 358.063581 
L 294.079487 350.923541 
L 305.895513 363.905433 
L 317.711538 356.116298 
L 329.527564 352.870825 
L 341.34359 352.22173 
L 353.159615 350.274447 
L 364.975641 337.94165 
L 376.791667 325.608853 
L 388.607692 319.767002 
L 400.423718 297.048692 
L 412.239744 288.610463 
L 424.055769 259.401207 
L 435.871795 217.859155 
L 447.687821 185.404427 
L 459.503846 151.002414 
L 471.319872 125.687726 
L 483.135897 112.705835 
L 494.951923 117.249497 
L 506.767949 135.424145 
L 518.583974 141.265996 
L 530.4 124.389537 
" clip-path="url(#p88886d6dfc)" style="fill: none; stroke: #ffb984; stroke-opacity: 0.5; stroke-width: 0.5; stroke-linecap: round"/>
   </g>
   <g id="line2d_75">
    <path d="M 69.575 112.05674 
L 81.391026 107.513078 
L 93.207051 97.127565 
L 105.023077 91.934809 
L 116.839103 91.285714 
L 128.655128 98.425755 
L 140.471154 94.531187 
L 152.287179 97.77666 
L 164.103205 102.320322 
L 175.919231 125.687726 
L 187.735256 151.651509 
L 199.551282 189.298994 
L 211.367308 228.244668 
L 223.183333 267.839437 
L 234.999359 288.610463 
L 246.815385 313.925151 
L 258.63141 328.205231 
L 270.447436 339.888934 
L 282.263462 353.51992 
L 294.079487 355.467203 
L 305.895513 360.65996 
L 317.711538 360.65996 
L 329.527564 360.65996 
L 341.34359 352.870825 
L 353.159615 354.818109 
L 364.975641 354.818109 
L 376.791667 355.467203 
L 388.607692 348.327163 
L 400.423718 332.099799 
L 412.239744 317.170624 
L 424.055769 291.855936 
L 435.871795 253.559356 
L 447.687821 224.350101 
L 459.503846 186.053521 
L 471.319872 157.49336 
L 483.135897 126.336821 
L 494.951923 125.038632 
L 506.767949 120.49497 
L 518.583974 108.811268 
L 530.4 126.985915 
" clip-path="url(#p88886d6dfc)" style="fill: none; stroke: #ffb984; stroke-opacity: 0.5; stroke-width: 0.5; stroke-linecap: round"/>
   </g>
   <g id="line2d_76">
    <path d="M 69.575 97.77666 
L 81.391026 99.074849 
L 93.207051 86.742052 
L 105.023077 82.19839 
L 116.839103 82.847485 
L 128.655128 93.882093 
L 140.471154 104.267606 
L 152.287179 110.758551 
L 164.103205 126.985915 
L 175.919231 149.055131 
L 187.735256 187.35171 
L 199.551282 226.297384 
L 211.367308 263.944869 
L 223.183333 291.206841 
L 234.999359 314.574245 
L 246.815385 330.80161 
L 258.63141 351.572636 
L 270.447436 351.572636 
L 282.263462 356.765392 
L 294.079487 356.116298 
L 305.895513 363.256338 
L 317.711538 362.607243 
L 329.527564 356.116298 
L 341.34359 352.870825 
L 353.159615 349.625352 
L 364.975641 339.888934 
L 376.791667 324.959759 
L 388.607692 310.030584 
L 400.423718 286.663179 
L 412.239744 246.419316 
L 424.055769 210.07002 
L 435.871795 173.07163 
L 447.687821 141.265996 
L 459.503846 125.038632 
L 471.319872 101.022133 
L 483.135897 93.882093 
L 494.951923 83.496579 
L 506.767949 84.145674 
L 518.583974 82.19839 
L 530.4 118.547686 
" clip-path="url(#p88886d6dfc)" style="fill: none; stroke: #ffb984; stroke-opacity: 0.5; stroke-width: 0.5; stroke-linecap: round"/>
   </g>
   <g id="line2d_77">
    <path d="M 69.575 106.214889 
L 81.391026 96.478471 
L 93.207051 95.829376 
L 105.023077 89.338431 
L 116.839103 86.742052 
L 128.655128 100.373038 
L 140.471154 90.63662 
L 152.287179 115.951308 
L 164.103205 123.091348 
L 175.919231 156.844266 
L 187.735256 180.21167 
L 199.551282 225.64829 
L 211.367308 258.752113 
L 223.183333 286.663179 
L 234.999359 306.785111 
L 246.815385 330.152515 
L 258.63141 334.696177 
L 270.447436 341.187123 
L 282.263462 356.116298 
L 294.079487 354.169014 
L 305.895513 357.414487 
L 317.711538 354.818109 
L 329.527564 353.51992 
L 341.34359 356.116298 
L 353.159615 350.274447 
L 364.975641 342.485312 
L 376.791667 331.450704 
L 388.607692 315.872435 
L 400.423718 295.101408 
L 412.239744 266.541247 
L 424.055769 226.297384 
L 435.871795 193.193561 
L 447.687821 167.229779 
L 459.503846 136.073239 
L 471.319872 106.214889 
L 483.135897 97.77666 
L 494.951923 86.092958 
L 506.767949 96.478471 
L 518.583974 122.442254 
L 530.4 108.811268 
" clip-path="url(#p88886d6dfc)" style="fill: none; stroke: #ffb984; stroke-opacity: 0.5; stroke-width: 0.5; stroke-linecap: round"/>
   </g>
   <g id="line2d_78">
    <path d="M 69.575 104.9167 
L 81.391026 95.180282 
L 93.207051 84.794769 
L 105.023077 93.232998 
L 116.839103 89.338431 
L 128.655128 91.285714 
L 140.471154 106.214889 
L 152.287179 124.389537 
L 164.103205 135.424145 
L 175.919231 175.668008 
L 187.735256 217.21006 
L 199.551282 247.717505 
L 211.367308 279.523139 
L 223.183333 309.381489 
L 234.999359 329.503421 
L 246.815385 334.047082 
L 258.63141 339.239839 
L 270.447436 348.327163 
L 282.263462 354.818109 
L 294.079487 356.765392 
L 305.895513 357.414487 
L 317.711538 355.467203 
L 329.527564 351.572636 
L 341.34359 345.08169 
L 353.159615 334.696177 
L 364.975641 317.170624 
L 376.791667 304.188732 
L 388.607692 269.78672 
L 400.423718 239.279276 
L 412.239744 197.088129 
L 424.055769 159.440644 
L 435.871795 137.371429 
L 447.687821 114.653119 
L 459.503846 103.618511 
L 471.319872 93.882093 
L 483.135897 89.338431 
L 494.951923 90.63662 
L 506.767949 145.160563 
L 518.583974 139.967807 
L 530.4 117.249497 
" clip-path="url(#p88886d6dfc)" style="fill: none; stroke: #ffb984; stroke-opacity: 0.5; stroke-width: 0.5; stroke-linecap: round"/>
   </g>
   <g id="line2d_79">
    <path d="M 69.575 130.231388 
L 81.391026 125.687726 
L 93.207051 117.249497 
L 105.023077 109.460362 
L 116.839103 110.758551 
L 128.655128 128.284105 
L 140.471154 129.582294 
L 152.287179 131.529577 
L 164.103205 172.422535 
L 175.919231 209.420926 
L 187.735256 231.490141 
L 199.551282 272.383099 
L 211.367308 299.64507 
L 223.183333 320.416097 
L 234.999359 332.099799 
L 246.815385 347.678068 
L 258.63141 350.274447 
L 270.447436 360.010865 
L 282.263462 362.607243 
L 294.079487 360.65996 
L 305.895513 364.554527 
L 317.711538 358.063581 
L 329.527564 358.063581 
L 341.34359 354.818109 
L 353.159615 348.327163 
L 364.975641 340.538028 
L 376.791667 328.205231 
L 388.607692 313.276056 
L 400.423718 280.821328 
L 412.239744 238.630181 
L 424.055769 206.824547 
L 435.871795 174.369819 
L 447.687821 150.35332 
L 459.503846 130.231388 
L 471.319872 117.249497 
L 483.135897 108.162173 
L 494.951923 94.531187 
L 506.767949 152.300604 
L 518.583974 147.756942 
L 530.4 140.616901 
" clip-path="url(#p88886d6dfc)" style="fill: none; stroke: #ffb984; stroke-opacity: 0.5; stroke-width: 0.5; stroke-linecap: round"/>
   </g>
   <g id="line2d_80">
    <path d="M 69.575 171.124346 
L 81.391026 172.422535 
L 93.207051 169.826157 
L 105.023077 154.247887 
L 116.839103 143.862374 
L 128.655128 132.178672 
L 140.471154 126.336821 
L 152.287179 123.740443 
L 164.103205 127.63501 
L 175.919231 143.21328 
L 187.735256 178.913481 
L 199.551282 222.402817 
L 211.367308 253.559356 
L 223.183333 280.821328 
L 234.999359 308.0833 
L 246.815385 330.80161 
L 258.63141 345.730785 
L 270.447436 350.274447 
L 282.263462 354.169014 
L 294.079487 356.765392 
L 305.895513 367.8 
L 317.711538 360.010865 
L 329.527564 362.607243 
L 341.34359 359.361771 
L 353.159615 364.554527 
L 364.975641 356.116298 
L 376.791667 347.028974 
L 388.607692 338.590744 
L 400.423718 325.608853 
L 412.239744 304.188732 
L 424.055769 274.979477 
L 435.871795 241.226559 
L 447.687821 200.333602 
L 459.503846 166.580684 
L 471.319872 137.371429 
L 483.135897 122.442254 
L 494.951923 107.513078 
L 506.767949 89.987525 
L 518.583974 93.232998 
L 530.4 165.93159 
" clip-path="url(#p88886d6dfc)" style="fill: none; stroke: #ffb984; stroke-opacity: 0.5; stroke-width: 0.5; stroke-linecap: round"/>
   </g>
   <g id="line2d_81">
    <path d="M 69.575 113.915511 
L 81.391026 109.637388 
L 93.207051 105.565795 
L 105.023077 103.441485 
L 116.839103 106.214889 
L 128.655128 111.23062 
L 140.471154 117.33801 
L 152.287179 128.284105 
L 164.103205 146.960326 
L 175.919231 172.216005 
L 187.735256 202.664441 
L 199.551282 236.417359 
L 211.367308 264.889007 
L 223.183333 292.268996 
L 234.999359 312.774483 
L 246.815385 327.880684 
L 258.63141 337.764624 
L 270.447436 345.022682 
L 282.263462 350.244942 
L 294.079487 352.22173 
L 305.895513 356.086793 
L 317.711538 352.487269 
L 329.527564 349.06477 
L 341.34359 344.963673 
L 353.159615 339.003805 
L 364.975641 326.346461 
L 376.791667 310.119096 
L 388.607692 289.259557 
L 400.423718 262.322133 
L 412.239744 232.080227 
L 424.055769 202.51692 
L 435.871795 176.258094 
L 447.687821 153.834827 
L 459.503846 138.551601 
L 471.319872 129.346259 
L 483.135897 125.746735 
L 494.951923 129.287251 
L 506.767949 129.346259 
L 518.583974 128.225096 
L 530.4 120.731004 
" clip-path="url(#p88886d6dfc)" style="fill: none; stroke: #ffb984; stroke-width: 2.5; stroke-linecap: round"/>
   </g>
   <g id="patch_3">
    <path d="M 69.575 367.8 
L 69.575 45.2 
" style="fill: none; stroke: #000000; stroke-width: 0.75; stroke-linejoin: miter; stroke-linecap: square"/>
   </g>
   <g id="patch_4">
    <path d="M 69.575 367.8 
L 530.4 367.8 
" style="fill: none; stroke: #000000; stroke-width: 0.75; stroke-linejoin: miter; stroke-linecap: square"/>
   </g>
   <g id="text_15">
    <text style="font: 500 18px &quot;Suisse Int&apos;l&quot;, sans-serif; text-anchor: middle" x="299.9875" y="29.2" transform="rotate(-0 299.9875 29.2)">Normalized Spatial Density of Cells in a Conical Well</text>
   </g>
   <g id="legend_1">
    <g id="line2d_82">
     <path d="M 553.44125 51.575 
L 560.94125 51.575 
L 568.44125 51.575 
" style="fill: none; stroke: #bab0a8; stroke-width: 2.5; stroke-linecap: round"/>
    </g>
    <g id="text_16">
     <text style="font: 15px &quot;Suisse Int&apos;l&quot;, sans-serif; text-anchor: start" x="574.44125" y="57.95" transform="rotate(-0 574.44125 57.95)">CC-125 Average</text>
    </g>
    <g id="line2d_83">
     <path d="M 553.44125 74.644531 
L 560.94125 74.644531 
L 568.44125 74.644531 
" style="fill: none; stroke: #73b5e3; stroke-width: 2.5; stroke-linecap: round"/>
    </g>
    <g id="text_17">
     <text style="font: 15px &quot;Suisse Int&apos;l&quot;, sans-serif; text-anchor: start" x="574.44125" y="81.019531" transform="rotate(-0 574.44125 81.019531)">CC-2670 Average</text>
    </g>
    <g id="line2d_84">
     <path d="M 553.44125 97.714062 
L 560.94125 97.714062 
L 568.44125 97.714062 
" style="fill: none; stroke: #ffb984; stroke-width: 2.5; stroke-linecap: round"/>
    </g>
    <g id="text_18">
     <text style="font: 15px &quot;Suisse Int&apos;l&quot;, sans-serif; text-anchor: start" x="574.44125" y="104.089062" transform="rotate(-0 574.44125 104.089062)">CC-3707 Average</text>
    </g>
   </g>
  </g>
 </g>
 <defs>
  <clipPath id="p88886d6dfc">
   <rect x="69.575" y="45.2" width="460.825" height="322.6"/>
  </clipPath>
 </defs>
</svg>
